<?xml version="1.0" encoding="utf-8"?>
<!-- Generator: Adobe Illustrator 24.0.2, SVG Export Plug-In . SVG Version: 6.00 Build 0)  -->
<svg version="1.1" id="Warstwa_1" xmlns="http://www.w3.org/2000/svg" xmlns:xlink="http://www.w3.org/1999/xlink" x="0px" y="0px"
	 viewBox="0 0 329 239" style="enable-background:new 0 0 329 239;" xml:space="preserve">
<style type="text/css">
	.st0{fill:#FFFFFF;}
</style>
<path class="st0" d="M264.7,167.7l1.2-1.3c2.6-3,4.1-6.8,4.1-10.7V41.3c0-12.1-9.8-21.9-21.9-21.9H91.7c-12.1,0-21.9,9.8-21.9,21.9
	v138.4c0,22,17.9,39.9,39.9,39.9h144.4c8.8,0,15.9-7.1,15.9-15.9c0-4-1.4-7.8-4.1-10.7l-1.2-1.3l1.2-1.3c2.6-3,4.1-6.8,4.1-10.7
	c0-4-1.4-7.8-4.1-10.7L264.7,167.7z M248.1,27.3c7.8,0.1,13.9,6.3,13.9,14V96l-68.7-68.7H248.1z M245.9,91.2h-47.7V43.5L245.9,91.2z
	 M254.1,163.8H109.7c-8.8,0-15.9,7.1-15.9,15.9s7.1,15.9,15.9,15.9h144.4c4.4,0,8,3.6,8,8s-3.6,8-8,8H109.7
	c-17.6,0-31.9-14.3-31.9-31.9s14.3-31.9,31.9-31.9h144.4c4.4,0,8,3.6,8,8C262,160.3,258.5,163.8,254.1,163.8z M262,179.7
	c0,4.4-3.6,8-8,8H109.7c-4.4,0-8-3.6-8-8s3.6-8,8-8h144.4C258.5,171.7,262,175.3,262,179.7z M262.1,140.9h-2.5l-0.3-0.1
	c-1.6-0.6-3.3-0.9-5.3-0.9H109.7c-10.8,0-20.9,4.3-28.5,12l-3.4,3.5V41.3c0-7.7,6.3-14,14-14h84.6c7.7,0,14,6.3,14,14v57.8h57.7
	c7.7,0,14,6.3,14,14V140.9z"/>
</svg>
