<?xml version="1.0" encoding="utf-8"?>
<!-- Generator: Adobe Illustrator 22.1.0, SVG Export Plug-In . SVG Version: 6.00 Build 0)  -->
<svg version="1.1" id="Warstwa_1" xmlns="http://www.w3.org/2000/svg" xmlns:xlink="http://www.w3.org/1999/xlink" x="0px" y="0px"
	 viewBox="0 0 329 239" style="enable-background:new 0 0 329 239;" xml:space="preserve">
<style type="text/css">
	.st0{fill:#FFFFFF;}
</style>
<path class="st0" d="M279,74.6l-9.1-16.2c-3.6-6.4-8,0.3-9.5,3.8c-1.1,2.7-2.2,5.3-3.3,8c-1.8,4.4-6.9,11.8-6.3,16.5c0,0,0,0,0,0
	l-0.9,0.7v0l-7.8,6.2c-11.6,9.2-24.9,19-39.9,21.3c-16,2.4-31.8-5.3-45.3-13.1c-20.9-11.9-39.1-29.6-56.7-45.8
	c-6.9-6.3-13.6-12.6-20.3-19.1l0,0c-2.9-7.2-9.7-13-17.8-10.2c-10.8,3.2-13.5,15-11,24.8v0c1.3,35.1,32.6,65.3,59.4,83.9
	c-16.7-3.9-30.5-7.6-34.2-8.6c-6.2-5.1-15.9-8.8-22.3-1.8c-8.5,8.6-3.2,21,4,28.5c18.9,34.8,65.4,47.7,102,50.1
	c35.7,2.3,76.2-3.3,97.8-35.1c12.9-19,15.3-41.1,15.7-63.4V105c0.2-7.7,0.2-18.5,5.1-25.1C279.8,78.5,280,76.4,279,74.6L279,74.6z
	 M266.5,70.8l3.2,5.8c-1.5,2.7-3.4,7.6-4.6,15.7l-4.8-6.7C263.1,79,265.1,74.3,266.5,70.8L266.5,70.8z M60.2,38.6
	c0.9-1.6,2.3-2.7,4.4-3.3c2.4-0.6,4,0.3,5.4,2.3L59,43.7C59,41.9,59.3,40.1,60.2,38.6C61,36.9,59.3,40.1,60.2,38.6L60.2,38.6z
	 M69.3,79.9C63,68.5,60.6,58.7,60,53.4L75.1,45c20.8,20,42.2,40.1,65.7,57.1c14.3,10.3,31.6,20,49.4,21.9c19.7,2.1,37.1-8,52.3-19.4
	l0,0h0c-2.1,4.6-4.4,9.1-6.9,13.4c0,0,0,0.1-0.1,0.1c-1,1.7-2.1,3.5-3.3,5.1v0c-0.3,0.4-0.5,0.7-0.7,1.1c0,0,0,0,0,0
	c-0.9,1.3-1.9,2.5-2.9,3.7c-0.1,0.1-0.2,0.3-0.3,0.4c0,0,0,0,0,0c-1.8,2.2-3.9,4.3-6.1,6.1c-11.1,9.9-27.2,11.4-41.4,11.7
	c-14.8,0.3-29.4-2.2-43.9-5.1c-0.3-0.1-0.5-0.3-0.8-0.4l0,0C114.2,128.7,84.9,108.4,69.3,79.9C63,68.5,84.9,108.4,69.3,79.9
	L69.3,79.9z M58.3,135.8c0-1.7,0.6-3.2,2-4.5c0.1,0,0.1-0.1,0.1-0.2c0.6-0.7,1.2-1,2-1c2,0,3.8,0.9,5.5,1.9l-7,11.1
	C59.5,140.9,58.3,138.2,58.3,135.8C58.3,134.1,58.3,138.2,58.3,135.8L58.3,135.8z M264.2,107.8c0,34.1-12.1,67-45.8,80.2
	c-31.4,12.3-72.2,8.8-103.4-2.2C96.5,179.2,77.3,168,66.6,151l9.3-14.8c17.1,4.6,34.4,8.8,51.7,12.4c17.4,3.7,35.1,7.1,52.9,6.8
	c17-0.4,34.5-2.8,47.8-14.2c13.7-11.7,21-29.2,27.8-45.5l0.2-0.4l7.9,11.1C264.2,106.8,264.2,107.3,264.2,107.8L264.2,107.8z
	 M264.2,107.8"/>
<path class="st0" d="M191.1,182.6c-0.6,0-1.1,0-1.7,0c-2.5-0.1-4.4-2.2-4.3-4.7c0.1-2.5,2.2-4.4,4.7-4.3c15.6,0.7,33-11.1,33.2-11.2
	c2-1.4,4.8-0.9,6.3,1.2c1.4,2,0.9,4.8-1.2,6.3C227.3,170.3,209.1,182.6,191.1,182.6L191.1,182.6z M191.1,182.6"/>
<path class="st0" d="M171.6,182.5c-2.5,0-4.5-2-4.5-4.5c0-2.5,2-4.5,4.5-4.5h0c2.5,0,4.5,2,4.5,4.5
	C176.1,180.5,174.1,182.5,171.6,182.5L171.6,182.5z M171.6,182.5"/>
</svg>
