<?xml version="1.0" encoding="utf-8"?>
<!-- Generator: Adobe Illustrator 22.1.0, SVG Export Plug-In . SVG Version: 6.00 Build 0)  -->
<svg version="1.1" id="Warstwa_1" xmlns="http://www.w3.org/2000/svg" xmlns:xlink="http://www.w3.org/1999/xlink" x="0px" y="0px"
	 viewBox="0 0 329 239" style="enable-background:new 0 0 329 239;" xml:space="preserve">
<style type="text/css">
	.st0{fill:#FFFFFF;}
</style>
<g>
	<path class="st0" d="M215,71.7c4-2.7,6.4-7.1,6.4-11.9V46.2c0-7.9-6.4-14.4-14.4-14.4h-84.7c-7.9,0-14.4,6.4-14.4,14.4v13.6
		c0,4.8,2.4,9.2,6.3,11.9c-5.7,3.6-11.7,9.8-11.7,19.6v98.1c0,0.3-0.1,8.4,5.6,14.2c3.6,3.6,8.5,5.5,14.6,5.5h83.8
		c6.2,0,11.1-1.8,14.6-5.5c5.6-5.7,5.6-13.7,5.6-14.1V91.3C226.8,81.4,220.7,75.3,215,71.7z M220.4,183.4v6c0,0.1,0,5.8-3.8,9.6
		c-2.3,2.4-5.7,3.6-10.1,3.6h-83.8c-4.4,0-7.7-1.2-10.1-3.5c-3.7-3.8-3.8-9.4-3.8-9.7v-6H220.4z M220.4,97v80H108.9V97H220.4z
		 M207,67.8h-84.7c-4.4,0-8-3.6-8-8V46.2c0-4.4,3.6-8,8-8H207c4.4,0,8,3.6,8,8v13.6C215,64.2,211.4,67.8,207,67.8z M123.6,74.2h82
		c1.6,0.5,14.4,5.1,14.8,16.5H108.9C109.3,79.4,121.5,74.8,123.6,74.2z"/>
	<path class="st0" d="M128.5,44.1c-1.8,0-3.2,1.4-3.2,3.2v11.4c0,1.8,1.4,3.2,3.2,3.2c1.8,0,3.2-1.4,3.2-3.2V47.3
		C131.7,45.5,130.3,44.1,128.5,44.1z"/>
	<path class="st0" d="M143,44.1c-1.8,0-3.2,1.4-3.2,3.2v11.4c0,1.8,1.4,3.2,3.2,3.2c1.8,0,3.2-1.4,3.2-3.2V47.3
		C146.1,45.5,144.7,44.1,143,44.1z"/>
	<path class="st0" d="M157.4,44.1c-1.8,0-3.2,1.4-3.2,3.2v11.4c0,1.8,1.4,3.2,3.2,3.2c1.8,0,3.2-1.4,3.2-3.2V47.3
		C160.6,45.5,159.2,44.1,157.4,44.1z"/>
	<path class="st0" d="M171.9,44.1c-1.8,0-3.2,1.4-3.2,3.2v11.4c0,1.8,1.4,3.2,3.2,3.2s3.2-1.4,3.2-3.2V47.3
		C175.1,45.5,173.6,44.1,171.9,44.1z"/>
	<path class="st0" d="M186.3,44.1c-1.8,0-3.2,1.4-3.2,3.2v11.4c0,1.8,1.4,3.2,3.2,3.2c1.8,0,3.2-1.4,3.2-3.2V47.3
		C189.5,45.5,188.1,44.1,186.3,44.1z"/>
	<path class="st0" d="M200.8,44.1c-1.8,0-3.2,1.4-3.2,3.2v11.4c0,1.8,1.4,3.2,3.2,3.2s3.2-1.4,3.2-3.2V47.3
		C204,45.5,202.5,44.1,200.8,44.1z"/>
</g>
</svg>
