<?xml version="1.0" encoding="utf-8"?>
<!-- Generator: Adobe Illustrator 22.1.0, SVG Export Plug-In . SVG Version: 6.00 Build 0)  -->
<svg version="1.1" id="Warstwa_1" xmlns="http://www.w3.org/2000/svg" xmlns:xlink="http://www.w3.org/1999/xlink" x="0px" y="0px"
	 viewBox="0 0 329 239" style="enable-background:new 0 0 329 239;" xml:space="preserve">
<style type="text/css">
	.st0{fill:#FFFFFF;}
</style>
<g>
	<path class="st0" d="M219.3,29h-109c-1.5,0-2.7,1.2-2.7,2.7v42c0,1.5,1.2,2.7,2.7,2.7c1.5,0,2.7-1.2,2.7-2.7V34.4h103.6v172H113
		V84.4c0-1.5-1.2-2.7-2.7-2.7c-1.5,0-2.7,1.2-2.7,2.7v124.7c0,1.5,1.2,2.7,2.7,2.7h109c1.5,0,2.7-1.2,2.7-2.7V31.7
		C222,30.2,220.8,29,219.3,29L219.3,29z M219.3,29"/>
	<path class="st0" d="M186.5,40.2c-1.4,0.2-13.7,1.9-18.9,7.1c-0.4,0.4-0.8,0.8-1.2,1.3c-0.4-0.4-0.8-0.8-1.2-1.3
		c-5.3-5.2-17.6-6.9-19-7.1c-0.8-0.1-1.7,0.2-2.2,0.8c-0.6,0.6-0.9,1.4-0.8,2.2c0.2,1.4,1.9,13.6,7.2,18.8c3.6,3.5,7.9,5.5,11.7,5.5
		c1.4,0,2.6-0.2,3.8-0.8c0.1-0.1,0.3-0.1,0.4-0.2c1.3,0.6,2.7,1,4.3,1c3.8,0,8.1-1.9,11.7-5.5c5.3-5.2,7-17.4,7.2-18.8
		c0.1-0.8-0.2-1.7-0.8-2.2C188.2,40.4,187.4,40.1,186.5,40.2L186.5,40.2z M154.3,58.2c-2.5-2.4-4.1-8-5-12.1c4.1,0.9,9.7,2.5,12.2,5
		c0.7,0.7,1.3,1.4,1.9,2.2c-0.8,1.9-1.3,3.8-1.3,5.6c0,1.1,0.2,2.2,0.5,3.2C160.4,62.3,157.2,61.1,154.3,58.2L154.3,58.2z
		 M178.6,58.2c-3.2,3.2-8.3,5.2-10.4,3.1c-0.5-0.5-0.8-1.3-0.8-2.4c0-2.4,1.5-5.4,3.9-7.8c2.5-2.5,8.1-4.1,12.2-4.9
		C182.7,50.2,181.1,55.8,178.6,58.2L178.6,58.2z M178.6,58.2"/>
	<path class="st0" d="M120.9,82.7V86c0,4.8,3.9,8.7,8.7,8.7h22.7c4.8,0,8.7-3.9,8.7-8.7v-3.4c0-4.8-3.9-8.7-8.7-8.7h-22.7
		C124.8,74,120.9,77.9,120.9,82.7L120.9,82.7z M155.7,82.7V86c0,1.8-1.5,3.3-3.3,3.3h-22.7c-1.8,0-3.3-1.5-3.3-3.3v-3.4
		c0-1.8,1.5-3.3,3.3-3.3h22.7C154.2,79.3,155.7,80.8,155.7,82.7L155.7,82.7z M155.7,82.7"/>
	<path class="st0" d="M209.2,82.7c0-4.8-3.9-8.7-8.7-8.7h-22.7c-4.8,0-8.7,3.9-8.7,8.7V86c0,4.8,3.9,8.7,8.7,8.7h22.7
		c4.8,0,8.7-3.9,8.7-8.7V82.7z M203.8,86c0,1.8-1.5,3.3-3.3,3.3h-22.7c-1.8,0-3.3-1.5-3.3-3.3v-3.4c0-1.8,1.5-3.3,3.3-3.3h22.7
		c1.8,0,3.3,1.5,3.3,3.3V86z M203.8,86"/>
	<path class="st0" d="M120.9,112c0,4.8,3.9,8.7,8.7,8.7h22.7c4.8,0,8.7-3.9,8.7-8.7v-3.4c0-4.8-3.9-8.7-8.7-8.7h-22.7
		c-4.8,0-8.7,3.9-8.7,8.7V112z M126.3,108.6c0-1.8,1.5-3.3,3.3-3.3h22.7c1.8,0,3.3,1.5,3.3,3.3v3.4c0,1.8-1.5,3.3-3.3,3.3h-22.7
		c-1.8,0-3.3-1.5-3.3-3.3V108.6z M126.3,108.6"/>
	<path class="st0" d="M209.2,108.6c0-4.8-3.9-8.7-8.7-8.7h-22.7c-4.8,0-8.7,3.9-8.7,8.7v3.4c0,4.8,3.9,8.7,8.7,8.7h22.7
		c4.8,0,8.7-3.9,8.7-8.7V108.6z M203.8,112c0,1.8-1.5,3.3-3.3,3.3h-22.7c-1.8,0-3.3-1.5-3.3-3.3v-3.4c0-1.8,1.5-3.3,3.3-3.3h22.7
		c1.8,0,3.3,1.5,3.3,3.3V112z M203.8,112"/>
	<path class="st0" d="M120.9,137.9c0,4.8,3.9,8.7,8.7,8.7h22.7c4.8,0,8.7-3.9,8.7-8.7v-3.4c0-4.8-3.9-8.7-8.7-8.7h-22.7
		c-4.8,0-8.7,3.9-8.7,8.7V137.9z M126.3,134.5c0-1.8,1.5-3.3,3.3-3.3h22.7c1.8,0,3.3,1.5,3.3,3.3v3.4c0,1.8-1.5,3.3-3.3,3.3h-22.7
		c-1.8,0-3.3-1.5-3.3-3.3V134.5z M126.3,134.5"/>
	<path class="st0" d="M209.2,134.5c0-4.8-3.9-8.6-8.7-8.6h-2.9c-1.5,0-2.7,1.2-2.7,2.7c0,1.5,1.2,2.7,2.7,2.7h2.9
		c1.8,0,3.3,1.5,3.3,3.3v3.5c0,1.8-1.5,3.3-3.3,3.3h-22.7c-1.8,0-3.3-1.5-3.3-3.3v-3.5c0-1.8,1.5-3.3,3.3-3.3h9.1
		c1.5,0,2.7-1.2,2.7-2.7c0-1.5-1.2-2.7-2.7-2.7h-9.1c-4.8,0-8.7,3.9-8.7,8.6v3.5c0,4.8,3.9,8.6,8.7,8.6h22.7c4.8,0,8.7-3.9,8.7-8.6
		V134.5z M209.2,134.5"/>
	<path class="st0" d="M120.9,163.8c0,4.8,3.9,8.7,8.7,8.7h22.7c4.8,0,8.7-3.9,8.7-8.7v-3.4c0-4.8-3.9-8.7-8.7-8.7h-22.7
		c-4.8,0-8.7,3.9-8.7,8.7V163.8z M126.3,160.4c0-1.8,1.5-3.3,3.3-3.3h22.7c1.8,0,3.3,1.5,3.3,3.3v3.4c0,1.8-1.5,3.3-3.3,3.3h-22.7
		c-1.8,0-3.3-1.5-3.3-3.3V160.4z M126.3,160.4"/>
	<path class="st0" d="M209.2,160.4c0-4.8-3.9-8.7-8.7-8.7h-22.7c-4.8,0-8.7,3.9-8.7,8.7v3.4c0,4.8,3.9,8.7,8.7,8.7h22.7
		c4.8,0,8.7-3.9,8.7-8.7V160.4z M203.8,163.8c0,1.8-1.5,3.3-3.3,3.3h-22.7c-1.8,0-3.3-1.5-3.3-3.3v-3.4c0-1.8,1.5-3.3,3.3-3.3h22.7
		c1.8,0,3.3,1.5,3.3,3.3V163.8z M203.8,163.8"/>
	<path class="st0" d="M120.9,189.8c0,4.8,3.9,8.6,8.7,8.6h22.7c4.8,0,8.7-3.9,8.7-8.6v-3.5c0-4.8-3.9-8.6-8.7-8.6h-5.6
		c-1.5,0-2.7,1.2-2.7,2.7c0,1.5,1.2,2.7,2.7,2.7h5.6c1.8,0,3.3,1.5,3.3,3.3v3.5c0,1.8-1.5,3.3-3.3,3.3h-22.7c-1.8,0-3.3-1.5-3.3-3.3
		v-3.5c0-1.8,1.5-3.3,3.3-3.3h6.3c1.5,0,2.7-1.2,2.7-2.7c0-1.5-1.2-2.7-2.7-2.7h-6.3c-4.8,0-8.7,3.9-8.7,8.6V189.8z M120.9,189.8"/>
	<path class="st0" d="M200.5,177.7h-22.7c-4.8,0-8.7,3.9-8.7,8.7v3.4c0,4.8,3.9,8.7,8.7,8.7h22.7c4.8,0,8.7-3.9,8.7-8.7v-3.4
		C209.2,181.6,205.3,177.7,200.5,177.7L200.5,177.7z M203.8,189.7c0,1.8-1.5,3.3-3.3,3.3h-22.7c-1.8,0-3.3-1.5-3.3-3.3v-3.4
		c0-1.8,1.5-3.3,3.3-3.3h22.7c1.8,0,3.3,1.5,3.3,3.3V189.7z M203.8,189.7"/>
</g>
</svg>
