<?xml version="1.0" encoding="utf-8"?>
<!-- Generator: Adobe Illustrator 22.1.0, SVG Export Plug-In . SVG Version: 6.00 Build 0)  -->
<svg version="1.1" id="Warstwa_1" xmlns="http://www.w3.org/2000/svg" xmlns:xlink="http://www.w3.org/1999/xlink" x="0px" y="0px"
	 viewBox="0 0 329 239" style="enable-background:new 0 0 329 239;" xml:space="preserve">
<style type="text/css">
	.st0{fill:#FFFFFF;}
</style>
<path class="st0" d="M156.3,128c-1.9,0-3.4,1.5-3.4,3.4c0,1.9,1.5,3.4,3.4,3.4c1.9,0,3.4-1.5,3.4-3.4
	C159.7,129.5,158.2,128,156.3,128L156.3,128z M156.3,128"/>
<path class="st0" d="M189.1,107c-1.9,0-3.4,1.5-3.4,3.4c0,1.9,1.5,3.4,3.4,3.4c1.9,0,3.4-1.5,3.4-3.4
	C192.4,108.5,190.9,107,189.1,107L189.1,107z M189.1,107"/>
<path class="st0" d="M178.3,98.2c-1.9,0-3.4,1.5-3.4,3.4c0,1.9,1.5,3.4,3.4,3.4c1.9,0,3.4-1.5,3.4-3.4
	C181.7,99.7,180.2,98.2,178.3,98.2L178.3,98.2z M178.3,98.2"/>
<path class="st0" d="M268.6,117.4c-4.5-6.6-10.9-11.4-18.2-14.1c5.7-5.3,9.7-12.2,11.4-20c0.3-1.3-0.3-2.6-1.4-3.3
	c-6.7-4.3-14.5-6.4-22.2-6.1c3.3-7.1,4.3-15,2.9-22.9c-0.2-1.3-1.2-2.3-2.5-2.5c-7.9-1.4-15.8-0.4-22.9,2.9
	c0.3-7.7-1.8-15.5-6.1-22.2c-0.7-1.1-2-1.6-3.3-1.4c-7.8,1.7-14.7,5.7-20,11.4c-2.7-7.3-7.6-13.6-14.1-18.2c-1.1-0.7-2.5-0.7-3.6,0
	c-6.6,4.5-11.4,10.9-14.1,18.2c-5.3-5.7-12.2-9.7-20-11.4c-1.3-0.3-2.6,0.3-3.3,1.4c-4.3,6.7-6.4,14.5-6.1,22.2
	c-7.1-3.3-15-4.3-22.9-2.9c-1.3,0.2-2.3,1.2-2.5,2.5c-1.4,7.9-0.4,15.8,2.9,22.9c-7.7-0.3-15.5,1.8-22.2,6.1c-1.1,0.7-1.6,2-1.4,3.3
	c1.7,7.8,5.7,14.7,11.4,20c-7.3,2.7-13.6,7.6-18.2,14.1c-0.7,1.1-0.7,2.5,0,3.6c4.5,6.6,10.9,11.4,18.2,14.1
	c-5.7,5.3-9.7,12.2-11.4,20c-0.3,1.3,0.3,2.6,1.4,3.3c6.3,4.1,13.5,6.1,20.8,6.1c0.5,0,0.9,0,1.4,0c-3.3,7.1-4.3,15-2.9,22.9
	c0.2,1.3,1.2,2.3,2.5,2.5c2.3,0.4,4.7,0.6,7,0.6c5.5,0,10.9-1.2,15.9-3.5c-0.3,7.7,1.8,15.5,6.1,22.2c0.6,0.9,1.6,1.4,2.7,1.4
	c0.2,0,0.4,0,0.7-0.1c7.8-1.7,14.7-5.7,20-11.4c2.7,7.3,7.6,13.6,14.1,18.2c0.5,0.4,1.2,0.6,1.8,0.6c0.6,0,1.3-0.2,1.8-0.6
	c6.6-4.5,11.4-10.9,14.1-18.2c5.3,5.7,12.2,9.7,20,11.4c0.2,0,0.4,0.1,0.7,0.1c1.1,0,2.1-0.5,2.7-1.4c4.3-6.7,6.4-14.5,6.1-22.2
	c5,2.3,10.4,3.5,15.9,3.5c2.3,0,4.7-0.2,7-0.6c1.3-0.2,2.3-1.2,2.5-2.5c1.4-7.9,0.4-15.8-2.9-22.9c0.5,0,0.9,0,1.4,0
	c7.3,0,14.5-2.1,20.8-6.1c1.1-0.7,1.6-2,1.4-3.3c-1.7-7.8-5.7-14.7-11.4-20c7.3-2.7,13.6-7.6,18.2-14.1
	C269.4,119.9,269.4,118.5,268.6,117.4L268.6,117.4z M255.1,84.1c-2.7,9.3-9.5,16.9-18.5,20.7c-4.7,1.9-9.8,2.7-14.8,2.3
	c-1.3-5.6-3.6-10.9-6.5-15.7c3.3-3.8,7.4-6.9,12.1-8.8C236.4,78.8,246.6,79.4,255.1,84.1L255.1,84.1z M170.3,165.8
	c-25.7,0-46.6-20.9-46.6-46.6s20.9-46.6,46.6-46.6s46.6,20.9,46.6,46.6S196,165.8,170.3,165.8L170.3,165.8z M235.2,54.3
	c0.8,7.2-0.9,14.5-4.7,20.6c-1.9,0.5-3.7,1.1-5.5,1.8c-5.1,2.1-9.7,5.3-13.5,9.4c-2.4-3-5.1-5.7-8.1-8.1c4-3.7,7.2-8.3,9.4-13.5
	c0.7-1.8,1.3-3.6,1.8-5.5C220.7,55.2,228,53.5,235.2,54.3L235.2,54.3z M205.4,34.4c4.7,8.5,5.3,18.7,1.5,27.7
	c-1.9,4.7-5,8.9-8.8,12.1c-4.8-3-10.1-5.2-15.7-6.5c-0.4-5,0.4-10.1,2.3-14.8C188.5,43.9,196.1,37.1,205.4,34.4L205.4,34.4z
	 M170.3,27.5c5.6,4.5,9.6,10.9,11.2,17.9c-1,1.6-1.9,3.3-2.6,5.1c-2.1,5.1-3.1,10.6-2.9,16.1c-1.9-0.2-3.8-0.3-5.7-0.3
	c-1.9,0-3.9,0.1-5.7,0.3c0.2-5.5-0.8-11-2.9-16.1c-0.7-1.8-1.6-3.5-2.6-5.1C160.7,38.4,164.7,32,170.3,27.5L170.3,27.5z M135.2,34.4
	c9.3,2.7,16.9,9.5,20.7,18.5c1.9,4.7,2.7,9.8,2.3,14.8c-5.6,1.3-10.9,3.6-15.7,6.5c-3.8-3.3-6.9-7.4-8.8-12.1
	C129.9,53.1,130.5,42.9,135.2,34.4L135.2,34.4z M105.5,54.3c7.2-0.8,14.5,0.9,20.6,4.7c0.5,1.9,1.1,3.7,1.8,5.5
	c2.1,5.1,5.3,9.7,9.4,13.5c-3,2.4-5.7,5.1-8.1,8.1c-3.7-4-8.3-7.2-13.5-9.4c-1.8-0.7-3.6-1.3-5.5-1.8
	C106.3,68.9,104.7,61.5,105.5,54.3L105.5,54.3z M85.6,84.1c8.5-4.7,18.7-5.3,27.7-1.5c4.7,1.9,8.9,5,12.1,8.8
	c-3,4.8-5.2,10.1-6.5,15.7c-5,0.4-10.1-0.4-14.8-2.3C95,101,88.3,93.4,85.6,84.1L85.6,84.1z M78.6,119.2c4.5-5.6,10.9-9.6,17.9-11.2
	c1.6,1,3.3,1.9,5.1,2.6c4.7,1.9,9.6,2.9,14.6,2.9c0.5,0,1,0,1.5,0c-0.2,1.9-0.3,3.8-0.3,5.7c0,1.9,0.1,3.9,0.3,5.7
	c-5.5-0.2-11,0.8-16.1,2.9c-1.8,0.7-3.5,1.6-5.1,2.6C89.4,128.8,83.1,124.9,78.6,119.2L78.6,119.2z M85.6,154.3
	c2.7-9.3,9.5-16.9,18.5-20.7c4.7-1.9,9.8-2.7,14.8-2.3c1.3,5.6,3.6,10.9,6.5,15.7c-3.3,3.8-7.4,6.9-12.1,8.8
	C104.2,159.6,94,159,85.6,154.3L85.6,154.3z M105.5,184.1c-0.8-7.2,0.9-14.5,4.7-20.6c1.9-0.5,3.7-1.1,5.5-1.8
	c5.1-2.1,9.7-5.3,13.5-9.4c2.4,3,5.1,5.7,8.1,8.1c-4,3.7-7.2,8.3-9.4,13.5c-0.7,1.8-1.3,3.6-1.8,5.5
	C120,183.2,112.6,184.9,105.5,184.1L105.5,184.1z M135.2,204c-4.7-8.5-5.3-18.7-1.5-27.7c1.9-4.7,5-8.9,8.8-12.1
	c4.8,3,10.1,5.2,15.7,6.5c0.4,5-0.4,10.1-2.3,14.8C152.1,194.5,144.5,201.3,135.2,204L135.2,204z M170.3,211
	c-5.6-4.5-9.6-10.9-11.2-17.9c1-1.6,1.9-3.3,2.6-5.1c2.1-5.1,3.1-10.6,2.9-16.1c1.9,0.2,3.8,0.3,5.7,0.3c1.9,0,3.9-0.1,5.7-0.3
	c-0.2,5.5,0.8,11,2.9,16.1c0.7,1.8,1.6,3.5,2.6,5.1C180,200.1,176,206.5,170.3,211L170.3,211z M205.4,204
	c-9.3-2.7-16.9-9.5-20.7-18.5c-1.9-4.7-2.7-9.8-2.3-14.8c5.6-1.3,10.9-3.6,15.7-6.5c3.8,3.3,6.9,7.4,8.8,12.1
	C210.7,185.3,210.1,195.5,205.4,204L205.4,204z M235.2,184.1c-7.2,0.8-14.5-0.9-20.6-4.7c-0.5-1.9-1.1-3.7-1.8-5.5
	c-2.1-5.1-5.3-9.7-9.4-13.5c3-2.4,5.7-5.1,8.1-8.1c3.7,4,8.3,7.2,13.5,9.4c1.8,0.7,3.6,1.3,5.5,1.8
	C234.3,169.6,236,176.9,235.2,184.1L235.2,184.1z M255.1,154.3c-8.5,4.7-18.7,5.3-27.7,1.5c-4.7-1.9-8.9-5-12.1-8.8
	c3-4.8,5.2-10.1,6.5-15.7c5-0.4,10.1,0.4,14.8,2.3C245.6,137.4,252.4,145,255.1,154.3L255.1,154.3z M244.2,130.4
	c-1.6-1-3.3-1.9-5.1-2.6c-5.1-2.1-10.6-3.1-16.1-2.9c0.2-1.9,0.3-3.8,0.3-5.7c0-1.9-0.1-3.9-0.3-5.7c0.5,0,1,0,1.5,0
	c5,0,10-1,14.6-2.9c1.8-0.7,3.5-1.6,5.1-2.6c7.1,1.6,13.4,5.5,17.9,11.2C257.6,124.8,251.2,128.8,244.2,130.4L244.2,130.4z
	 M244.2,130.4"/>
</svg>
