<?xml version="1.0" encoding="utf-8"?>
<!-- Generator: Adobe Illustrator 22.1.0, SVG Export Plug-In . SVG Version: 6.00 Build 0)  -->
<svg version="1.1" id="Warstwa_1" xmlns="http://www.w3.org/2000/svg" xmlns:xlink="http://www.w3.org/1999/xlink" x="0px" y="0px"
	 viewBox="0 0 329 239" style="enable-background:new 0 0 329 239;" xml:space="preserve">
<style type="text/css">
	.st0{fill:#FFFFFF;}
</style>
<path class="st0" d="M255.1,101.3L255.1,101.3c-12.2-12.2-29.3-17.9-46.2-15.5c1.6-11.1-0.3-22.2-5.4-32.4
	c-6.6-13.1-18-22.7-31.9-27.3c-13.9-4.5-28.8-3.4-41.8,3.3c-13,6.6-22.7,18-27.3,31.9c-4.4,13.5-3.5,27.8,2.6,40.5
	c-21.8,8.8-36.2,30-36.2,53.7c0,31.9,26,57.9,57.9,57.9c22.6,0,42.8-12.9,52.3-33.1c10.2,9.4,23.3,14.6,37.3,14.6
	c14.7,0,28.4-5.7,38.8-16C276.4,157.4,276.4,122.6,255.1,101.3z M183,141.7c-0.3-1.4-1.2-2.6-2.4-3.3c-1.2-0.7-2.7-1-4.1-0.6
	c-2.9,0.7-4.7,3.6-4,6.5c0.9,3.6,1.3,7.4,1.3,11.2c0,19-11.2,35.8-28.4,43.3c1.4-5,2.1-10.2,2.1-15.4c0-13.5-4.7-26.5-13.3-36.8
	c5.8-10.7,15.9-19,27.5-22.5c2.7,3.1,5.1,6.5,7,10.1c0.7,1.3,1.8,2.2,3.1,2.7c1.4,0.4,2.8,0.3,4.1-0.3c1.3-0.7,2.2-1.8,2.7-3.1
	c0.4-1.4,0.3-2.8-0.3-4.1c-0.9-1.8-1.9-3.5-3-5.2c2.2-5.7,5.5-10.7,9.9-15.1c4.3-4.3,9.3-7.6,15-9.8c1.5,1.1,2.8,2.4,4.1,3.7
	c8.3,8.3,12.9,19.4,12.9,31.1c0,11.8-4.6,22.8-12.9,31.1c-4.3,4.3-9.4,7.6-15,9.8c-1.5-1.1-2.8-2.4-4.1-3.7
	c-0.7-0.7-1.4-1.5-2.1-2.3c1-4.4,1.6-8.9,1.6-13.4C184.6,150.8,184,146.2,183,141.7z M159.8,41.1c1,0.8,2.2,1.3,3.5,1.3
	c1.6,0,3.1-0.7,4.1-1.9c0.9-1.1,2-2.2,3.1-3.3c10.1,3.9,18.3,11.4,23.3,21.1c4.8,9.4,6,20.1,3.5,30.3c-4.3,1.6-8.3,3.7-12.1,6.2
	c-0.4-0.8-0.7-1.6-1.1-2.3c-5.7-11.3-15.2-20.2-26.8-25.3c0.2-6.3,1.7-12.5,4.5-18.2c0.6-1.3,0.7-2.8,0.3-4.1
	c-0.5-1.4-1.4-2.5-2.7-3.1c-1.3-0.6-2.8-0.7-4.1-0.3c-1.4,0.5-2.5,1.4-3.1,2.7c-1.1,2.3-2.1,4.7-2.9,7.2c-6.3-4.3-13.4-7.3-20.9-8.7
	c2-1.4,4-2.7,6.2-3.8c7.6-3.8,15.8-5.4,24.1-4.6C157.4,36.6,157.8,39.4,159.8,41.1z M115.3,78.1c10.5-5.3,22.4-6.2,33.6-2.6
	c11.2,3.6,20.3,11.4,25.6,21.9c0.8,1.6,1.5,3.2,2.1,4.8c-3.6,3.7-6.5,7.9-8.9,12.4c-10.8-10.8-25.5-17-41-17
	c-3.8,0-7.5,0.4-11.2,1.1c-0.1-0.2-0.2-0.3-0.2-0.5l0,0c-2.8-5.4-4.3-11.2-4.7-17.3C112,79.9,113.6,78.9,115.3,78.1z M126.7,108.3
	c9.1,0,18.1,2.7,25.7,7.6c-6.6,2.9-12.7,7.1-17.8,12.3c-4-7.5-9.6-14-16.4-19.1C120.9,108.6,123.8,108.3,126.7,108.3z M146.8,63.1
	c0,0.2,0,0.4-0.1,0.6c-11.8-2.5-24.1-1.1-35,4.1c1.3-5.5,3.7-10.6,7-15.2C128.9,52.8,139,56.5,146.8,63.1z M105.1,113.6
	c9.8,5.1,17.7,13.7,21.9,23.9c-0.2,0.3-0.4,0.7-0.7,1c-10.1-8.4-22.8-13-35.9-13.2C94.5,120.5,99.5,116.5,105.1,113.6z M89.6,136.1
	c26,0,47.1,21.1,47.1,47.1c0,6.6-1.3,13-4,18.9c-2,0.3-4.1,0.4-6.1,0.4c-26,0-47.1-21.1-47.1-47.1c0-6.6,1.3-13,4-18.9
	C85.5,136.3,87.6,136.1,89.6,136.1z M228.2,128c-0.2,0-0.4,0.1-0.6,0.1c-1.2-12-6.4-23.2-14.7-32c5.6-0.4,11.3,0.2,16.6,1.9
	C232.6,107.8,232.1,118.6,228.2,128z M211.9,172.6c9-9,14.6-20.8,15.8-33.3c10.7-3.2,22.7-2,32.6,3.2c-0.6,10.8-5.1,21-12.8,28.6
	c-12.4,12.4-30.6,16.2-46.7,10.1C204.8,178.9,208.5,176,211.9,172.6z M241.9,104.2c2,1.4,3.8,3,5.6,4.7c6,6,10,13.3,11.8,21.4
	c-6.1-2.3-12.6-3.5-19.1-3.5C242.2,119.4,242.8,111.7,241.9,104.2z"/>
</svg>
