<?xml version="1.0" encoding="utf-8"?>
<!-- Generator: Adobe Illustrator 22.1.0, SVG Export Plug-In . SVG Version: 6.00 Build 0)  -->
<svg version="1.1" id="Warstwa_1" xmlns="http://www.w3.org/2000/svg" xmlns:xlink="http://www.w3.org/1999/xlink" x="0px" y="0px"
	 viewBox="0 0 329 239" style="enable-background:new 0 0 329 239;" xml:space="preserve">
<style type="text/css">
	.st0{fill:#FFFFFF;}
</style>
<path class="st0" d="M212.7,107.7c5.2,2.2,10,5.2,14.2,8.9c0.7,0.7,1.7,1,2.6,1c1,0,2-0.4,2.8-1.2c0,0,0,0,0,0
	c4.3-4.4,6.5-10.2,6.3-16.4c-0.4-12-10.6-21.7-22.8-21.7h-9.5c-1.5,0-2.6,1.2-2.6,2.6v13.2c0,2.4,0.6,4.8,1.7,6.9
	C207,104.1,209.6,106.4,212.7,107.7L212.7,107.7z M209,83.6h6.9c9.4,0,17.2,7.5,17.5,16.6c0.1,4.3-1.3,8.4-4,11.6
	c-4.4-3.7-9.3-6.7-14.6-9c-2-0.8-3.7-2.4-4.7-4.3c-0.7-1.3-1.1-2.9-1.1-4.4V83.6z M209,83.6"/>
<path class="st0" d="M230.2,196.5c12.1-10.7,18.9-25.7,18.9-42c0-11.1-3.2-21.7-9.2-30.8c6.2-6.5,9.5-15,9.2-24
	c-0.6-17.8-15.4-31.9-33.3-31.9H209v-7.2c3.2-1,5.5-4,5.5-7.5c0-4.3-3.5-7.9-7.9-7.9h-2.9v-8.8c0-2.9-2.4-5.3-5.3-5.3h-10.7
	c-2.9,0-5.3,2.4-5.3,5.3v8.8h-13.4c-4.4,0-8.1,3.7-7.9,8.3c0.2,4.2,3.7,7.5,8,7.5c4.4,0,8,3.6,8,8v25.1c0,3.8-2.3,7.2-5.7,8.7
	c-20.9,8.7-34.4,29-34.4,51.7c0,8.9,2.1,17.7,6.2,25.6c3.2,6.2,7.5,11.7,12.7,16.4c-6,4.6-2.5,14.1,5,14.1c16.2,0,28.4,0,37.6,0
	c4.5,0,8.3,0,11.5,0c16.6,0,16.8-0.1,17.8-0.5l0,0C234.1,208,234.9,200.2,230.2,196.5L230.2,196.5z M187.8,36.5h10.7v8.8h-10.7V36.5
	z M222.4,198.3c0.4,1.1,1.4,1.8,2.5,1.8c3.5,0,4.2,3.9,1,5.2c-1.1,0.1-7,0.1-27.4,0.1c-9.1,0-21.3,0-37.6,0c-3.5,0-4-5.3,0.3-5.3
	c1.1,0,2.1-0.7,2.5-1.8c0.4-1.1,0-2.3-0.9-2.9c-12.9-9.6-20.6-24.8-20.6-40.8c0-20.5,12.2-38.9,31.2-46.9c5.4-2.3,9-7.6,9-13.5V69.1
	c0-7.3-6-13.3-13.3-13.3c-1.5,0-2.7-1.1-2.8-2.5c-0.1-1.5,1.1-2.8,2.6-2.8h37.5c1.4,0,2.6,1.2,2.6,2.6c0,1.4-1.2,2.6-2.6,2.6h-18.8
	c-1.5,0-2.6,1.2-2.6,2.6c0,1.5,1.2,2.6,2.6,2.6h15.9v9.5c0,1.5,1.2,2.6,2.6,2.6h9.5c15,0,27.5,11.8,28,26.8
	c0.3,8.3-3.1,16.1-9.1,21.5c-1,0.9-1.2,2.4-0.4,3.5c6.2,8.7,9.5,18.9,9.5,29.7c0,16.2-7.5,31.1-20.5,40.8
	C222.5,196,222.1,197.2,222.4,198.3L222.4,198.3z M222.4,198.3"/>
<path class="st0" d="M238.6,156.1C238.6,156.1,238.6,156.1,238.6,156.1C238.6,156.1,238.6,156.1,238.6,156.1
	C238.6,156.1,238.6,156.1,238.6,156.1c0-0.1,0-0.1,0-0.1c0,0,0,0,0,0c0-0.1,0-0.2,0-0.3l0-0.1c0-0.1,0-0.2,0-0.3c0-0.1,0-0.2,0-0.3
	l0-0.1c0-0.1,0-0.1,0-0.2c0-0.2,0-0.5-0.1-0.7c-0.4-5.4-2.6-10.2-6.3-13.8c-6-5.7-15.9-8.2-25.3-2.4c-2.9,1.8-5.7,4.2-8.9,7.6
	c-1,1.1-0.9,2.7,0.1,3.7c1.1,1,2.7,0.9,3.7-0.1c2.8-3,5.4-5.2,7.8-6.7c7.1-4.3,14.5-2.6,18.9,1.7c3.1,3,4.7,7.1,4.7,11.9v0.1
	c-0.5,8.2-7.2,14.6-15.4,14.6c-18.8,0-27.5-36.1-49.7-36.1c-5.4,0-10.6,2.1-14.5,5.9c-4.1,4-6.5,9.6-6.2,15.8
	c0.4,11.8,5.3,22.9,13.8,31.2c8.5,8.3,19.8,12.9,31.7,12.9h0.1c11.8,0,23-4.6,31.6-12.9C233.3,178.9,238.2,167.9,238.6,156.1
	L238.6,156.1z M193.2,194.8h-0.1c-23.3,0-40.8-19.4-40.2-40.2c0.2-8.4,7-15,15.4-15c18.6,0,27.7,36.1,49.7,36.1
	c4.2,0,8.1-1.2,11.4-3.4C222.8,185.7,209.1,194.8,193.2,194.8L193.2,194.8z M193.2,194.8"/>
<path class="st0" d="M131.5,140c-0.2-0.9-1-1.6-1.9-1.9c-4.7-1.3-9.8-0.9-14.3,0.9c-1.9-4.4-5.2-8.2-9.5-10.7
	c-0.8-0.5-1.8-0.5-2.6,0c-7,4-11.3,11.5-11.3,19.5c0,6.1,2.5,11.9,6.8,16.1c-4.3,2.4-7.3,7.5-7.3,13.4c0,1.8,0.3,3.6,0.9,5.3
	c-0.3,0-0.6,0-0.9,0h0c-3.4,0-6.5,1.3-8.7,3.5c-2.3,2.3-3.5,5.4-3.5,8.8c0,2,0.4,3.9,1.2,5.8c0.8,1.9,2,3.7,3.5,5.2c1,1,2.7,1,3.7,0
	c1-1,1-2.7,0-3.7c0,0,0,0,0,0c-2-2-3.2-4.7-3.2-7.3c0-2,0.7-3.8,2-5.1c1.3-1.3,3-2,5.1-2h0c2.6,0,5.3,1.2,7.3,3.2
	c3.5,3.5,4.5,9.1,1.2,12.4c-1.3,1.2-2.9,1.9-4.9,2c-1.4,0-2.6,1.2-2.6,2.7c0,1.4,1.2,2.6,2.6,2.6h0.1c3.3-0.1,6.3-1.3,8.5-3.5
	c0.3-0.3,0.6-0.6,0.9-1c0.3,0.3,0.6,0.7,0.9,1c2.4,2.4,5.5,3.5,8.8,3.5c3.9,0,7.9-1.6,11-4.7c5.8-5.8,6.4-14.7,1.2-19.8
	c-2.5-2.5-5.9-3.7-9.7-3.5c0.6-1.7,0.9-3.5,0.9-5.3c0-3.6-1.1-6.9-3-9.5c4.1-0.9,7.9-3,11-6C131.4,156,133.6,147.7,131.5,140
	L131.5,140z M97.3,147.8c0-5.6,2.8-10.9,7.3-14.1c3.3,2.3,5.7,5.7,6.7,9.6c0.4,1.5,0.6,2.9,0.6,4.5c0,4.4-1.7,8.6-4.7,11.8V148
	c0-1.5-1.2-2.6-2.6-2.6c-1.5,0-2.6,1.2-2.6,2.6v11.5C99,156.4,97.3,152.2,97.3,147.8L97.3,147.8z M104.6,186.8c-3.2,0-6-2.3-7.3-6
	c0,0,0,0,0,0c-0.4-1.2-0.6-2.4-0.6-3.6c0-5.3,3.5-9.6,7.9-9.6c0.5,0,1.1,0.1,1.6,0.2c0,0,0,0,0.1,0c3.6,1,6.2,4.9,6.2,9.4
	C112.5,182.5,109,186.8,104.6,186.8L104.6,186.8z M117.1,187.8c0.2,0,0.5,0,0.7,0c2,0,3.8,0.7,5.1,2c3.1,3.1,2.5,8.6-1.2,12.4
	c-3.8,3.8-9.3,4.3-12.4,1.2c-3.2-3.2-2.3-8.9,1.2-12.4C112.3,189.1,114.7,188,117.1,187.8L117.1,187.8z M111.3,162.9
	c3.7-4.1,5.9-9.5,5.9-15.2c0-1.2-0.1-2.5-0.3-3.7c3.1-1.3,6.6-1.8,9.9-1.2c0.9,5.5-0.8,11.1-4.8,15.1
	C119.1,160.9,115.3,162.6,111.3,162.9L111.3,162.9z M111.3,162.9"/>
</svg>
