<?xml version="1.0" encoding="utf-8"?>
<!-- Generator: Adobe Illustrator 22.1.0, SVG Export Plug-In . SVG Version: 6.00 Build 0)  -->
<svg version="1.1" id="Warstwa_1" xmlns="http://www.w3.org/2000/svg" xmlns:xlink="http://www.w3.org/1999/xlink" x="0px" y="0px"
	 viewBox="0 0 329 239" style="enable-background:new 0 0 329 239;" xml:space="preserve">
<style type="text/css">
	.st0{fill:#FFFFFF;}
</style>
<path class="st0" d="M266.1,188.7c-0.5-2.7-2.9-4.8-5.7-4.8h-2.8c1.1-2.4,1.6-5,1.6-7.6v-57.7c0-4.4-2.4-8.3-6.2-10.3V67
	c0-2.9-2.3-5.3-5.1-5.5V32c0-3.9-1.9-7.4-5.3-9.7c-3.5-2.3-7.6-2.7-11.4-1.3l-8.6,3.4c-6.5,2.4-10.6,8.4-10.6,15.2v22
	c-2.9,0.2-5.2,2.6-5.2,5.5v41.2c-3.8,2-6.2,5.9-6.2,10.3v57.7c0,2.6,0.6,5.2,1.6,7.6h-13.8c6.3-10.6,6.6-20.8,6.5-24v-52.4
	c0-3-2.5-5.5-5.5-5.5h-10.3V76.5h2.7c3,0,5.5-2.5,5.5-5.5c0-2.1-1.2-4-3-4.9h1.2c3,0,5.5-2.5,5.5-5.5c0-2.3-1.4-4.2-3.3-5
	c2-0.8,3.3-2.8,3.3-5.1c0-2.4-1.6-4.5-3.7-5.2c2.2-0.7,3.7-2.8,3.7-5.2c0-3-2.4-5.4-5.5-5.4h-1.2c1.8-0.9,3-2.7,3-4.8
	c0-3-2.5-5.5-5.5-5.5h-2.8c-0.5-2.6-2.7-4.5-5.3-4.5c-2.7,0-4.9,1.9-5.4,4.5h-2.8c-3,0-5.5,2.5-5.5,5.5c0,2.1,1.2,3.9,2.9,4.8h-1
	c-3,0-5.5,2.4-5.5,5.4c0,2.4,1.6,4.5,3.7,5.2c-2.2,0.7-3.7,2.8-3.7,5.2s1.6,4.5,3.7,5.2c-2.2,0.7-3.7,2.8-3.7,5.2
	c0,3,2.5,5.5,5.5,5.5h1.2c-1.8,0.9-3,2.8-3,4.9c0,3,2.5,5.5,5.5,5.5h2.7V102h-10.3c-3,0-5.5,2.5-5.5,5.5l0,52.2
	c-0.1,3.2,0.2,13.5,6.5,24.2h-11.5c0.7-2,1-4.2,0.9-6.3l-4.2-64.7c-0.5-7.8-6.7-13.9-14.4-14.4V59.4c0-6.3-5.1-11.4-11.4-11.4h-17.9
	c-6.3,0-11.4,5.1-11.4,11.4v38.9c-7.8,0.4-14,6.6-14.4,14.4l-4.2,64.8c-0.1,2.2,0.2,4.3,0.9,6.3h-2.1c-3,0-5.5,2.4-5.5,5.4v27.5
	c0,3,2.5,5.5,5.5,5.5h191.2c3,0,5.5-2.5,5.5-5.5v-27.5L266.1,188.7z M90.1,109.3H104v9.7H85.2l0.4-5.6
	C85.7,111.1,87.7,109.3,90.1,109.3z M100.6,58.9h17.9c0.2,0,0.5,0.3,0.5,0.5v38.9h-18.9V59.4C100.1,59.2,100.4,58.9,100.6,58.9z
	 M114.9,119v-9.8l13.9,0c2.4,0.1,4.4,1.9,4.5,4.3l0.4,5.6H114.9z M109.4,149.6c1.6,1.7,4.2,5.9,4.2,10.3c0,2.7-1.9,5-4.1,5
	s-4.1-2.3-4.1-5C105.3,155.3,107.8,151.3,109.4,149.6z M104,140.1c-4.9,3.4-9.6,11.3-9.6,19.9c0,8.8,6.7,15.9,15,15.9
	s15-7.1,15-15.9c0-8.5-4.7-16.4-9.6-19.9v-10.2h19.5l3.1,48.2c0.1,1.5-0.4,2.9-1.5,4c-1,1.1-2.4,1.7-3.9,1.7H86.7l-0.1,0
	c-1.4,0.1-2.7-0.5-3.8-1.7l0,0c-1-1.1-1.6-2.5-1.5-3.9l3.1-48.3H104V140.1z M237,32.1v29.5h-14.1v-22c0-2.2,1.4-4.1,3.7-5l8.5-3.4
	c0.7-0.2,1.2,0,1.4,0.1C237,31.6,237,31.9,237,32.1z M217.7,106.8V72.4h24.4v34.4H217.7z M211.5,176.2v-57.7c0-0.4,0.4-0.8,0.8-0.8
	h35.2c0.4,0,0.8,0.4,0.8,0.8v57.7c0,4.1-3.5,7.6-7.6,7.6H219c-2,0-3.8-0.7-5.3-2.1C212.3,180.2,211.5,178.3,211.5,176.2z
	 M184.2,160.1c0,0.5,0.4,13.1-9,23.8h-2.6c-9.2-10.4-9.1-22.6-9-23.9l0-47.1h20.6V160L184.2,160.1z M74.7,211.3v-16.6H255v16.6H74.7
	z"/>
</svg>
