<?xml version="1.0" encoding="utf-8"?>
<!-- Generator: Adobe Illustrator 22.1.0, SVG Export Plug-In . SVG Version: 6.00 Build 0)  -->
<svg version="1.1" id="Warstwa_1" xmlns="http://www.w3.org/2000/svg" xmlns:xlink="http://www.w3.org/1999/xlink" x="0px" y="0px"
	 viewBox="0 0 329 239" style="enable-background:new 0 0 329 239;" xml:space="preserve">
<style type="text/css">
	.st0{fill:#FFFFFF;}
</style>
<g>
	<path class="st0" d="M205.1,150.8c0-4.1-1.9-7.8-4.9-10.1c0,0,0,0,0-0.1c3-2.4,5-6,5-10.1c0-4.3-2.2-8.2-5.5-10.5c0,0,0,0,0-0.1
		c3.3-2.6,5.4-6.7,5.4-11.2V81.6c0,0,0,0,0,0l-23.7-30.9c-1-1.2-0.1-3,1.5-3l0,0c1,0,1.9-0.8,1.9-1.9V29.5c0-1-0.8-1.9-1.9-1.9
		h-36.6c-1,0-1.9,0.8-1.9,1.9v16.2c0,1,0.8,1.9,1.9,1.9h0.3c1.6,0,2.5,1.8,1.5,3.1l-24.1,30.9c0,0,0,0,0,0v27.1
		c0,4.5,2.2,8.6,5.5,11.2c0,0,0,0,0,0.1c-3.3,2.3-5.4,6.2-5.4,10.5c0,4.1,2,7.8,5,10.1c0,0,0,0,0,0.1c-3,2.4-4.9,6-4.9,10.1
		c0,4.3,2.1,8.2,5.4,10.5c0,0,0,0,0,0.1c-3.3,2.6-5.5,6.7-5.5,11.2v23.2c0,8,6.6,14.6,14.6,14.6H153v-0.2c2.4,1.9,5.4,3.1,8.7,3.1
		h5.8c3.3,0,6.3-1.3,8.7-3.1v0.2h14.5c7.8,0,14.2-6.4,14.2-14.2v-23.6c0-4.5-2-8.6-5.3-11.2c0,0,0,0,0-0.1
		C202.9,159,205.1,155.1,205.1,150.8L205.1,150.8z M149.7,40.2v-5.3c0-1,0.8-1.9,1.9-1.9h25.6c1,0,1.9,0.8,1.9,1.9v5.3
		c0,1-0.8,1.9-1.9,1.9h-25.6C150.5,42.1,149.7,41.3,149.7,40.2z M158.1,47.6H171c0.6,0,1.1,0.3,1.5,0.7l24.3,31.5c0,0,0,0.1,0,0.1
		h-64.4c0,0,0,0,0-0.1l24.3-31.5C157,47.9,157.6,47.6,158.1,47.6z M192.2,143.5c4.3,0,7.7,3.6,7.4,7.9c-0.3,4-3.7,7-7.7,7h-4.2
		c-1.5,0-2.7,1.2-2.7,2.7v0c0,1.5,1.2,2.7,2.7,2.7h3.1c4.8,0,8.8,3.9,8.8,8.8v23.2c0,5-4.1,9.1-9.1,9.1h-9.8c0,0,0,0,0,0
		c0.8-2.1,1.3-4,1.3-6.1c0,0,0,0,0,0l-5.4,0c0,0,0,0,0,0c0,4.9-4,9.1-8.9,9.1h-5.8c-4.9,0-8.9-4.2-8.9-9.1c0,0,0,0,0,0l-5.4,0
		c0,0,0,0,0,0c0,2.1,0.5,3.9,1.3,6.1c0,0,0,0,0,0h-10.1c-5,0-9.1-4.1-9.1-9.1v-23.2c0-4.8,3.9-8.8,8.8-8.8h26.7
		c1.5,0,2.7-1.2,2.7-2.7v0c0-1.5-1.2-2.7-2.7-2.7h-27.5c-4,0-7.5-3-7.7-7c-0.3-4.3,3.2-7.9,7.4-7.9h27.8c1.5,0,2.7-1.2,2.7-2.7v0
		c0-1.5-1.2-2.7-2.7-2.7h-27.5c-4,0-7.5-3-7.7-7c-0.3-4.3,3.2-7.9,7.4-7.9h27.8c1.5,0,2.7-1.2,2.7-2.7v0c0-1.5-1.2-2.7-2.7-2.7
		h-26.3c-5,0-9.1-4.1-9.1-9.1V85.4c0,0,0,0,0,0h70.1c0,0,0,0,0,0v23.2c0,5-4.1,9.1-9.1,9.1h-2.7c-1.5,0-2.7,1.2-2.7,2.7v0
		c0,1.5,1.2,2.7,2.7,2.7h4.2c4,0,7.5,3,7.7,7c0.3,4.3-3.2,7.9-7.4,7.9h-4.5c-1.5,0-2.7,1.2-2.7,2.7v0c0,1.5,1.2,2.7,2.7,2.7H192.2z
		 M192.2,143.5"/>
	<path class="st0" d="M146.9,68.3L146.9,68.3c1.7,0,3.2,1.4,3.2,3.2v0c0,1.3-1,2.3-2.3,2.3h-1.2c-1.3,0-2.3-1-2.3-2.3v-0.5
		C144.2,69.5,145.4,68.3,146.9,68.3z"/>
	<path class="st0" d="M151,62.5h4c0.5,0,0.9,0.4,0.9,0.9V67c0,0.5-0.4,0.9-0.9,0.9h-4c-0.5,0-0.9-0.4-0.9-0.9v-3.6
		C150.1,62.9,150.5,62.5,151,62.5z"/>
	<path class="st0" d="M176,138.1h0.4c1.5,0,2.7,1.2,2.7,2.7v0c0,1.5-1.2,2.7-2.7,2.7H176c-1.5,0-2.7-1.2-2.7-2.7v0
		C173.3,139.3,174.5,138.1,176,138.1z"/>
	<path class="st0" d="M176,117.7h0.4c1.5,0,2.7,1.2,2.7,2.7v0c0,1.5-1.2,2.7-2.7,2.7H176c-1.5,0-2.7-1.2-2.7-2.7v0
		C173.3,118.9,174.5,117.7,176,117.7z"/>
	<path class="st0" d="M176,158.4h0.4c1.5,0,2.7,1.2,2.7,2.7v0c0,1.5-1.2,2.7-2.7,2.7H176c-1.5,0-2.7-1.2-2.7-2.7v0
		C173.3,159.6,174.5,158.4,176,158.4z"/>
</g>
</svg>
