<?xml version="1.0" encoding="utf-8"?>
<!-- Generator: Adobe Illustrator 22.1.0, SVG Export Plug-In . SVG Version: 6.00 Build 0)  -->
<svg version="1.1" id="Warstwa_1" xmlns="http://www.w3.org/2000/svg" xmlns:xlink="http://www.w3.org/1999/xlink" x="0px" y="0px"
	 viewBox="0 0 329 239" style="enable-background:new 0 0 329 239;" xml:space="preserve">
<style type="text/css">
	.st0{fill:#FFFFFF;}
</style>
<g>
	<path class="st0" d="M248.4,104.1h-27.8v-7.2c0-1.9-1.5-3.4-3.4-3.4h-73.3c-1.9,0-3.4,1.5-3.4,3.4c0,1.9,1.5,3.4,3.4,3.4h69.9v26
		c0,22.9-12.2,44.1-31.9,55.7h-65.2c-19.7-11.6-31.9-32.8-31.9-55.7v-26h22.7c1.9,0,3.4-1.5,3.4-3.4c0-1.9-1.5-3.4-3.4-3.4H81.4
		c-1.9,0-3.4,1.5-3.4,3.4v29.4c0,12.8,3.4,25.4,10,36.4c4.4,7.4,10.1,13.9,16.8,19.3H81.4c-1.9,0-3.4,1.5-3.4,3.4
		c0,12.4,10.1,22.4,22.4,22.4h105.9c12.4,0,22.4-10.1,22.4-22.4c0-1.9-1.5-3.4-3.4-3.4h-31.5c6.2-4.9,11.5-10.9,15.7-17.5h9.6
		c18,0,32.7-14.7,32.7-32.7v-24.3C251.8,105.6,250.3,104.1,248.4,104.1z M221.6,188.8c-1.6,7-7.8,12.2-15.2,12.2H100.4
		c-7.4,0-13.7-5.2-15.2-12.2H221.6z M220.6,126.3v-1.9h10.9v7.3c0,6.8-5.5,12.3-12.3,12.3h-0.8C219.8,138.3,220.6,132.4,220.6,126.3
		z M245,131.8c0,14.3-11.6,25.9-25.9,25.9h-5.8c1.1-2.2,2.1-4.5,2.9-6.8h2.9c10.5,0,19.1-8.6,19.1-19.1v-10.7c0-1.9-1.5-3.4-3.4-3.4
		h-14.3v-6.8H245V131.8z"/>
	<path class="st0" d="M147.2,57c3.4,4.3,3.4,10.2,0,14.5l-1.8,2.3c-1.2,1.5-0.9,3.6,0.5,4.8c0.6,0.5,1.4,0.7,2.1,0.7
		c1,0,2-0.4,2.7-1.3l1.8-2.3c5.4-6.8,5.3-16.2,0-22.9l-1.8-2.2c-2.6-3.3-2.6-7.8,0-11.1c1.2-1.5,0.9-3.6-0.5-4.8
		c-1.5-1.2-3.6-0.9-4.8,0.6c-4.6,5.7-4.6,13.8,0,19.5L147.2,57z"/>
	<path class="st0" d="M166,64.6c3.4,4.3,3.4,10.2,0,14.5l-1.8,2.3c-1.2,1.5-0.9,3.6,0.5,4.8c0.6,0.5,1.4,0.7,2.1,0.7
		c1,0,2-0.4,2.7-1.3l1.8-2.3c5.4-6.7,5.3-16.2,0-22.9l-1.8-2.2c-2.6-3.3-2.6-7.8,0-11.1c1.2-1.5,0.9-3.6-0.5-4.8
		c-1.5-1.2-3.6-0.9-4.8,0.5c-4.6,5.7-4.6,13.8,0,19.5L166,64.6z"/>
	<path class="st0" d="M128.4,64.6c3.4,4.3,3.4,10.2,0,14.5l-1.8,2.3c-1.2,1.5-0.9,3.6,0.5,4.8c0.6,0.5,1.4,0.7,2.1,0.7
		c1,0,2-0.4,2.7-1.3l1.8-2.3c5.4-6.7,5.3-16.2,0-22.9l-1.8-2.2c-2.6-3.3-2.6-7.8,0-11.1c1.2-1.5,0.9-3.6-0.6-4.8
		c-1.5-1.2-3.6-0.9-4.8,0.5c-4.6,5.7-4.6,13.8,0,19.5L128.4,64.6z"/>
	<path class="st0" d="M126.6,93.5c-0.9,0-1.8,0.4-2.4,1c-0.6,0.6-1,1.5-1,2.4c0,0.9,0.4,1.8,1,2.4c0.6,0.6,1.5,1,2.4,1
		c0.9,0,1.8-0.4,2.4-1c0.6-0.6,1-1.5,1-2.4c0-0.9-0.4-1.8-1-2.4C128.4,93.9,127.5,93.5,126.6,93.5z"/>
	<path class="st0" d="M188.3,165.1c10.2-10.3,16-24.4,16-38.8c0-1.9-1.5-3.4-3.4-3.4c-1.9,0-3.4,1.5-3.4,3.4c0,12.6-5.1,25-14,34
		c-1.3,1.3-1.3,3.5,0,4.8c0.7,0.7,1.5,1,2.4,1C186.8,166.1,187.6,165.8,188.3,165.1z"/>
	<path class="st0" d="M178.7,171.8L178.7,171.8c2-0.8,2.6-2.6,1.6-4c-1.1-1.4-3.4-1.9-5.3-1.1l-0.1,0c-1.9,0.8-2.5,2.6-1.5,4
		c0.7,1,2,1.5,3.4,1.5C177.4,172.2,178.1,172,178.7,171.8z"/>
</g>
</svg>
