<?xml version="1.0" encoding="utf-8"?>
<!-- Generator: Adobe Illustrator 22.1.0, SVG Export Plug-In . SVG Version: 6.00 Build 0)  -->
<svg version="1.1" id="Warstwa_1" xmlns="http://www.w3.org/2000/svg" xmlns:xlink="http://www.w3.org/1999/xlink" x="0px" y="0px"
	 viewBox="0 0 329 239" style="enable-background:new 0 0 329 239;" xml:space="preserve">
<style type="text/css">
	.st0{fill:#FFFFFF;}
</style>
<g>
	<path class="st0" d="M260.9,58.4c-1.5-18.4-16.6-32.9-35.1-33.8c-5.1-0.2-10.1,0.6-14.8,2.4c-6.2,2.4-13.3,3.4-22.3,3.4l-2.8,0
		c-9.1,0-16.1-1.2-22.3-3.6c-4.7-1.8-9.7-2.7-14.8-2.5c-18.5,0.7-33.7,15-35.4,33.4c-0.1,0.8-0.1,1.6-0.1,2.4
		c-2.9-0.6-5.8-0.9-8.8-0.8C85.9,60,70.7,74.4,69.1,92.8c-1.1,12.9,4.2,25,14.5,32.8l-0.4,77.4c0,7.1,5.7,12.8,12.7,12.9l92.6,0.4
		c7.1,0,12.8-5.7,12.8-12.7l0.1-22.8l31.4,0.1c7.1,0,12.8-5.7,12.9-12.7l0.4-77.3C256.4,83.4,261.9,71.3,260.9,58.4z M198,123
		c-0.6,0.4-1,1.2-1,2l-0.4,78.7c0,4.4-3.6,8-8,8l-92.6-0.4c-4.4,0-8-3.6-8-8l0.4-78.7c0-0.8-0.4-1.5-1-2
		c-9.5-6.7-14.5-17.6-13.5-29.2c1.4-15.8,14.9-28.6,30.8-29.1c4.4-0.2,8.8,0.6,12.9,2.2c6.7,2.6,14.3,3.9,24,3.9l2.8,0
		c9.7,0,17.3-1.1,24-3.7c4.1-1.6,8.5-2.3,12.9-2.1c15.8,0.7,29.2,13.6,30.5,29.4C212.7,105.5,207.6,116.4,198,123z M242.3,87.8
		c-0.6,0.4-1,1.2-1,2l-0.4,78.5c0,4.4-3.6,8-8,7.9l-31.4-0.1l0.2-49.8c10.3-7.6,15.8-19.8,14.8-32.7c-1.5-18.4-16.6-33-35.1-33.8
		c-5.1-0.2-10.1,0.6-14.8,2.4c-6.2,2.4-13.3,3.4-22.3,3.4l-2.8,0c-9.1,0-16.1-1.2-22.3-3.6c-0.4-0.2-0.8-0.3-1.2-0.4
		c0-1.1,0-2.2,0.1-3.3c1.4-15.7,14.9-28.5,30.8-29.1c4.4-0.2,8.8,0.6,12.9,2.2c6.7,2.6,14.4,3.9,24,3.9l2.8,0c9.7,0,17.3-1.1,24-3.7
		c4.1-1.6,8.5-2.3,12.9-2.1c15.8,0.7,29.2,13.6,30.5,29.4C257,70.4,251.9,81.2,242.3,87.8z"/>
	<path class="st0" d="M230,68.1l1.3-2.2c0.7-1.1,0.3-2.6-0.8-3.3c-1.1-0.7-2.6-0.3-3.3,0.8l-1.3,2.2c-0.7,1.1-0.3,2.6,0.8,3.3
		c0.4,0.2,0.8,0.4,1.2,0.4C228.7,69.2,229.5,68.8,230,68.1z"/>
	<path class="st0" d="M201.7,51l-2.4,0.4c-1.3,0.2-2.2,1.4-2,2.7c0.2,1.2,1.2,2,2.4,2c0.1,0,0.2,0,0.4,0l2.4-0.4
		c1.3-0.2,2.2-1.4,2-2.7C204.2,51.7,203,50.8,201.7,51z"/>
	<path class="st0" d="M225.8,55.5c0.7,0,1.4-0.3,1.8-0.9l1.6-1.9c0.9-1,0.7-2.5-0.3-3.4c-1-0.8-2.5-0.7-3.4,0.3l-1.6,1.9
		c-0.9,1-0.7,2.5,0.3,3.4C224.7,55.3,225.2,55.5,225.8,55.5z"/>
	<path class="st0" d="M217.4,66.1l1.3-2.2c0.7-1.1,0.3-2.6-0.8-3.3c-1.1-0.7-2.6-0.3-3.3,0.8l-1.3,2.2c-0.7,1.1-0.3,2.6,0.8,3.3
		c0.4,0.2,0.8,0.4,1.2,0.4C216.1,67.2,216.9,66.8,217.4,66.1z"/>
	<path class="st0" d="M153.3,51.9c-0.2-1.3-1.3-2.3-2.7-2.1c-1.3,0.2-2.3,1.3-2.1,2.7l0.3,2.5c0.1,1.2,1.2,2.1,2.4,2.1
		c0.1,0,0.2,0,0.3,0c1.3-0.2,2.3-1.3,2.1-2.7L153.3,51.9z"/>
	<path class="st0" d="M137.1,48.1l-0.3-2.5c-0.2-1.3-1.3-2.3-2.7-2.1c-1.3,0.1-2.3,1.3-2.1,2.7l0.3,2.5c0.1,1.2,1.2,2.1,2.4,2.1
		c0.1,0,0.2,0,0.3,0C136.3,50.6,137.2,49.4,137.1,48.1z"/>
	<path class="st0" d="M167.5,48.2l-2.4,0.4c-1.3,0.2-2.2,1.4-2,2.7c0.2,1.2,1.2,2,2.4,2c0.1,0,0.2,0,0.4,0l2.4-0.4
		c1.3-0.2,2.2-1.4,2-2.7C170.1,48.9,168.9,48,167.5,48.2z"/>
	<path class="st0" d="M199.1,44.7c-0.2-1.3-1.4-2.2-2.7-2l-2.4,0.4c-1.3,0.2-2.2,1.4-2,2.7c0.2,1.2,1.2,2,2.4,2c0.1,0,0.2,0,0.4,0
		l2.4-0.4C198.4,47.2,199.3,46,199.1,44.7z"/>
	<path class="st0" d="M139.5,56.4l-2.4,0.4c-1.3,0.2-2.2,1.4-2,2.7c0.2,1.2,1.2,2,2.4,2c0.1,0,0.2,0,0.4,0l2.4-0.4
		c1.3-0.2,2.2-1.4,2-2.7C142.1,57.1,140.9,56.2,139.5,56.4z"/>
	<path class="st0" d="M149.4,39.3c-0.2-1.3-1.4-2.2-2.7-2l-2.4,0.4c-1.3,0.2-2.2,1.4-2,2.7c0.2,1.2,1.2,2,2.4,2c0.1,0,0.2,0,0.4,0
		l2.4-0.4C148.7,41.9,149.6,40.6,149.4,39.3z"/>
	<path class="st0" d="M165.6,39.9c-0.2-1.3-1.4-2.2-2.7-2l-2.4,0.4c-1.3,0.2-2.2,1.4-2,2.7c0.2,1.2,1.2,2,2.4,2c0.1,0,0.2,0,0.4,0
		l2.4-0.4C164.9,42.5,165.8,41.2,165.6,39.9z"/>
	<path class="st0" d="M228.5,84.3c0.2,1.2,1.2,2,2.4,2c0.1,0,0.2,0,0.4,0l2.4-0.4c1.3-0.2,2.2-1.4,2-2.7c-0.2-1.3-1.4-2.2-2.7-2
		l-2.4,0.4C229.2,81.8,228.3,83,228.5,84.3z"/>
	<path class="st0" d="M242,67l-2.4,0.4c-1.3,0.2-2.2,1.4-2,2.7c0.2,1.2,1.2,2,2.4,2c0.1,0,0.2,0,0.4,0l2.4-0.4
		c1.3-0.2,2.2-1.4,2-2.7C244.6,67.7,243.4,66.8,242,67z"/>
	<path class="st0" d="M243.2,50.9l-2.4,0.4c-1.3,0.2-2.2,1.4-2,2.7c0.2,1.2,1.2,2,2.4,2c0.1,0,0.2,0,0.4,0l2.4-0.4
		c1.3-0.2,2.2-1.4,2-2.7C245.8,51.6,244.6,50.7,243.2,50.9z"/>
	<path class="st0" d="M183.3,48.7c-0.9-1-2.4-1.1-3.4-0.2c-1,0.9-1.1,2.4-0.2,3.4l1.6,1.9c0.5,0.5,1.1,0.8,1.8,0.8
		c0.6,0,1.1-0.2,1.6-0.6c1-0.9,1.1-2.4,0.2-3.4L183.3,48.7z"/>
	<path class="st0" d="M213.7,43.4c-1-0.8-2.5-0.7-3.4,0.3l-1.6,1.9c-0.9,1-0.7,2.5,0.3,3.4c0.5,0.4,1,0.6,1.5,0.6
		c0.7,0,1.4-0.3,1.8-0.9l1.6-1.9C214.9,45.7,214.8,44.2,213.7,43.4z"/>
	<path class="st0" d="M227.4,42.3c0.1,0,0.2,0,0.4,0l2.4-0.4c1.3-0.2,2.2-1.4,2-2.7c-0.2-1.3-1.4-2.2-2.7-2l-2.4,0.4
		c-1.3,0.2-2.2,1.4-2,2.7C225.2,41.4,226.2,42.3,227.4,42.3z"/>
	<path class="st0" d="M220.9,77.4l2.3,0.9c0.3,0.1,0.6,0.2,0.9,0.2c1,0,1.9-0.6,2.2-1.5c0.5-1.2-0.1-2.6-1.3-3.1l-2.3-0.9
		c-1.2-0.5-2.6,0.1-3.1,1.3C219.1,75.5,219.7,76.9,220.9,77.4z"/>
	<path class="st0" d="M231.1,156.3l-1.6,1.9c-0.8,1-0.7,2.5,0.3,3.4c0.4,0.4,1,0.6,1.5,0.6c0.7,0,1.4-0.3,1.8-0.9l1.6-1.9
		c0.9-1,0.7-2.5-0.3-3.4C233.4,155.2,231.9,155.3,231.1,156.3z"/>
	<path class="st0" d="M211.2,158.3l-1.6,1.9c-0.9,1-0.7,2.5,0.3,3.4c0.4,0.4,1,0.6,1.5,0.6c0.7,0,1.4-0.3,1.8-0.9l1.6-1.9
		c0.9-1,0.7-2.5-0.3-3.4C213.5,157.1,212,157.3,211.2,158.3z"/>
	<path class="st0" d="M224.2,148.8c-0.2-1.3-1.4-2.2-2.7-2l-2.4,0.4c-1.3,0.2-2.2,1.4-2,2.7c0.2,1.2,1.2,2,2.4,2c0.1,0,0.2,0,0.4,0
		l2.4-0.4C223.5,151.4,224.4,150.1,224.2,148.8z"/>
	<path class="st0" d="M212.2,149c-0.2-1.3-1.4-2.2-2.7-2l-2.4,0.4c-1.3,0.2-2.2,1.4-2,2.7c0.2,1.2,1.2,2,2.4,2c0.1,0,0.2,0,0.4,0
		l2.4-0.4C211.5,151.6,212.4,150.3,212.2,149z"/>
	<path class="st0" d="M234.2,143.8l-2.4,0.4c-1.3,0.2-2.2,1.4-2,2.7c0.2,1.2,1.2,2,2.4,2c0.1,0,0.2,0,0.4,0l2.4-0.4
		c1.3-0.2,2.2-1.4,2-2.7C236.7,144.5,235.5,143.6,234.2,143.8z"/>
	<path class="st0" d="M228.9,135.1c-1-0.9-2.5-0.7-3.4,0.3l-1.6,1.9c-0.9,1-0.7,2.5,0.3,3.4c0.5,0.4,1,0.6,1.5,0.6
		c0.7,0,1.4-0.3,1.8-0.9l1.6-1.9C230.1,137.5,229.9,136,228.9,135.1z"/>
	<path class="st0" d="M219,125.9l1.7-1.7c0.9-0.9,0.9-2.5,0-3.4c-0.9-0.9-2.5-0.9-3.4,0l-1.7,1.7c-0.9,0.9-0.9,2.5,0,3.4
		c0.5,0.5,1.1,0.7,1.7,0.7C217.9,126.6,218.5,126.4,219,125.9z"/>
	<path class="st0" d="M234.2,121l-2.4,0.4c-1.3,0.2-2.2,1.4-2,2.7c0.2,1.2,1.2,2,2.4,2c0.1,0,0.2,0,0.4,0l2.4-0.4
		c1.3-0.2,2.2-1.4,2-2.7C236.7,121.7,235.5,120.8,234.2,121z"/>
	<path class="st0" d="M227.1,114.2c0.4,0.4,1,0.6,1.5,0.6c0.7,0,1.4-0.3,1.8-0.9l1.6-1.9c0.8-1,0.7-2.5-0.3-3.4
		c-1-0.9-2.5-0.7-3.4,0.3l-1.6,1.9C225.9,111.9,226,113.4,227.1,114.2z"/>
	<path class="st0" d="M211.1,138.8c0.5,0.6,1.2,0.9,1.9,0.9c0.5,0,1-0.2,1.5-0.5c1-0.8,1.2-2.3,0.4-3.4l-1.5-1.9
		c-0.8-1-2.3-1.2-3.4-0.4c-1,0.8-1.2,2.3-0.4,3.4L211.1,138.8z"/>
	<path class="st0" d="M224.1,165.2c-0.8-1-2.3-1.2-3.4-0.4c-1,0.8-1.2,2.3-0.4,3.4l1.5,1.9c0.5,0.6,1.2,0.9,1.9,0.9
		c0.5,0,1-0.2,1.5-0.5c1-0.8,1.2-2.3,0.4-3.4L224.1,165.2z"/>
	<path class="st0" d="M234.2,98.2l-2.4,0.4c-1.3,0.2-2.2,1.4-2,2.7c0.2,1.2,1.2,2,2.4,2c0.1,0,0.2,0,0.4,0l2.4-0.4
		c1.3-0.2,2.2-1.4,2-2.7C236.7,98.9,235.5,98,234.2,98.2z"/>
	<path class="st0" d="M229.7,89.7c-1-0.9-2.5-0.7-3.4,0.3l-1.6,1.9c-0.8,1-0.7,2.5,0.3,3.4c0.5,0.4,1,0.6,1.5,0.6
		c0.7,0,1.4-0.3,1.8-0.9l1.6-1.9C230.9,92.1,230.8,90.6,229.7,89.7z"/>
</g>
</svg>
