<?xml version="1.0" encoding="utf-8"?>
<!-- Generator: Adobe Illustrator 22.1.0, SVG Export Plug-In . SVG Version: 6.00 Build 0)  -->
<svg version="1.1" id="Warstwa_1" xmlns="http://www.w3.org/2000/svg" xmlns:xlink="http://www.w3.org/1999/xlink" x="0px" y="0px"
	 viewBox="0 0 329 239" style="enable-background:new 0 0 329 239;" xml:space="preserve">
<style type="text/css">
	.st0{fill:#FFFFFF;}
</style>
<path class="st0" d="M172.2,24.6l-3.9-4.7c-1.3-1.4-3.5-1.6-4.9-0.3c-0.1,0.1-0.2,0.2-0.3,0.3l-3.9,4.7c-8.9,10.7-13.7,24.1-13.8,38
	c0,11.2,9.1,20.3,20.3,20.3c11.2,0,20.3-9.1,20.3-20.3C185.9,48.7,181.1,35.3,172.2,24.6z M165.7,76.1c-7.5,0-13.5-6-13.5-13.5
	c0-12.3,4.3-24.2,12.2-33.7l1.3-1.6L167,29c7.9,9.5,12.2,21.4,12.2,33.7C179.2,70.1,173.1,76.1,165.7,76.1z"/>
<path class="st0" d="M224.8,42.4c-19.6,0-35.4,15.9-35.5,35.5c0,8.4,6.8,15.2,15.2,15.2c8.4,0,15.2-6.8,15.2-15.2
	c0-2.8,2.3-5.1,5.1-5.1c8.4,0,15.2-6.8,15.2-15.2S233.2,42.4,224.8,42.4z M224.8,66c-6.5,0-11.8,5.3-11.8,11.8
	c0,4.7-3.8,8.4-8.4,8.4c-4.7,0-8.4-3.8-8.4-8.4c0-15.8,12.9-28.7,28.7-28.7c4.7,0,8.4,3.8,8.4,8.4S229.4,66,224.8,66z"/>
<path class="st0" d="M135.6,58c-0.5,0-1,0-1.5,0.2l-1.1,0.4l1.4-5.5c1.1-4.3-1.6-8.7-5.9-9.8c-1.3-0.3-2.6-0.3-3.9,0l-5.5,1.4
	l0.4-1.1c0.4-1.1,0.2-2.3-0.5-3.2c-0.7-0.9-1.8-1.5-3-1.4c-8.1,0.9-15.5,4.6-21.2,10.4c-11.9,11.9-14,29-4.8,38.2
	c3.9,3.8,9.2,5.9,14.7,5.8c1.3,0,2.6-0.1,3.9-0.3c7.5-1.2,14.3-4.8,19.6-10.3c5.8-5.6,9.5-13.1,10.4-21.2
	C138.8,59.8,137.4,58.2,135.6,58z M116,52.4l10.2-2.5c0.7-0.2,1.5,0.3,1.6,1c0.1,0.2,0.1,0.4,0,0.7l-2.5,10.1l-15,5.8L116,52.4z
	 M123.5,78.1c-4.2,4.4-9.8,7.3-15.8,8.4c-4.6,0.9-9.4-0.4-12.9-3.6c-6.6-6.6-4.4-19.4,4.8-28.7c3.2-3.2,7-5.7,11.3-7.2l-9.7,25.1
	c-0.7,1.7,0.2,3.7,1.9,4.4c0.8,0.3,1.7,0.3,2.4,0l25.1-9.7C129.1,71,126.7,74.9,123.5,78.1z"/>
<path class="st0" d="M194.3,103.2c-5.4,0-10.5,2.1-14.3,5.9c-9.8,9.8-15.9,22.8-17.1,36.6l-0.6,6.1c-0.2,1.9,1.2,3.5,3.1,3.7
	c0.1,0,0.2,0,0.3,0c0.1,0,0.2,0,0.3,0l6.1-0.6c13.8-1.3,26.8-7.3,36.6-17.1c3.8-3.8,6-9,5.9-14.4
	C214.6,112.2,205.5,103.2,194.3,103.2z M203.9,133L203.9,133c-8.7,8.7-20.2,14.1-32.4,15.2l-2.1,0.2l0.2-2.1
	c1.1-12.3,6.5-23.7,15.2-32.4c5.3-5.2,13.9-5.1,19.1,0.2C209,119.3,209,127.7,203.9,133z"/>
<path class="st0" d="M147.1,93c-8.4,0-15.2,6.8-15.2,15.2c0,2.8-2.3,5.1-5.1,5.1c-8.4,0-15.2,6.8-15.2,15.2s6.8,15.2,15.2,15.2
	c19.6,0,35.4-15.9,35.5-35.5C162.3,99.8,155.5,93,147.1,93z M126.8,136.9c-4.7,0-8.4-3.8-8.4-8.4c0-4.7,3.8-8.4,8.4-8.4
	c6.5,0,11.8-5.3,11.8-11.8c0-4.7,3.8-8.4,8.4-8.4s8.4,3.8,8.4,8.4C155.5,124.1,142.7,136.9,126.8,136.9z"/>
<path class="st0" d="M243.4,77.2c-13,0-23.6,13.6-23.6,30.4c-0.1,8.1,2.6,16,7.6,22.3c1.2,1.4,3.3,1.6,4.8,0.4
	c0.4-0.3,0.7-0.7,0.9-1.2l0.5-1.1l2.9,4.9c2.3,3.8,7.3,5.1,11.1,2.8c1.1-0.7,2.1-1.6,2.8-2.8l2.9-4.9l0.5,1.1c0.5,1.1,1.5,1.8,2.6,2
	c0.2,0,0.3,0,0.5,0c1,0,1.9-0.4,2.6-1.2c5-6.3,7.7-14.2,7.6-22.3C267,90.8,256.4,77.2,243.4,77.2z M244.5,129.5
	c-0.4,0.6-1.2,0.8-1.9,0.5c-0.2-0.1-0.3-0.3-0.5-0.5l-5.4-9l6.5-14.7l6.5,14.7L244.5,129.5z M257.4,120.7L257.4,120.7l-10.9-24.6
	c-0.8-1.7-2.8-2.5-4.5-1.7c-0.8,0.3-1.4,1-1.7,1.7l-10.9,24.6c-1.9-4.1-2.9-8.6-2.9-13.1c0-13,7.6-23.6,16.9-23.6
	s16.9,10.6,16.9,23.6C260.3,112.1,259.3,116.6,257.4,120.7z"/>
<path class="st0" d="M138.6,204.1l-0.6-6.1c-1.3-13.8-7.3-26.8-17.1-36.6c-7.9-7.9-20.7-7.9-28.7,0c-3.8,3.8-5.9,9-5.9,14.3
	c0,5.4,2.1,10.5,5.9,14.3c9.8,9.8,22.8,15.9,36.6,17.1l6.1,0.6c0.1,0,0.2,0,0.3,0c1.9,0,3.4-1.5,3.4-3.4
	C138.7,204.4,138.7,204.3,138.6,204.1z M129.5,200.5c-12.3-1.1-23.7-6.5-32.4-15.2c-5.3-5.3-5.3-13.8,0-19.1l0,0
	c5.3-5.3,13.8-5.3,19.1,0l0,0c8.7,8.7,14.1,20.2,15.2,32.4l0.2,2.1L129.5,200.5z"/>
<path class="st0" d="M238.3,147.1c-8.4,0-15.2,6.8-15.2,15.2c0,2.8-2.3,5.1-5.1,5.1c-8.4,0-15.2,6.8-15.2,15.2
	c0,8.4,6.8,15.2,15.2,15.2c19.6,0,35.4-15.9,35.5-35.5C253.5,153.9,246.7,147.1,238.3,147.1z M218,191c-4.7,0-8.4-3.8-8.4-8.4
	c0-4.7,3.8-8.4,8.4-8.4c6.5,0,11.8-5.3,11.8-11.8c0-4.7,3.8-8.4,8.4-8.4s8.4,3.8,8.4,8.4C246.7,178.1,233.9,190.9,218,191z"/>
<path class="st0" d="M199.4,199.1c-2.1-15.9-14.3-28.7-30.1-31.5c-6.7-1.3-13.6,0.8-18.6,5.5c-9.2,9.2-7.1,26.3,4.8,38.2
	c5.6,5.8,13.1,9.5,21.2,10.4c0.1,0,0.2,0,0.3,0c1.9,0,3.4-1.5,3.4-3.4c0-0.4-0.1-0.8-0.2-1.2l-0.4-1.1l5.5,1.4
	c0.7,0.2,1.3,0.2,2,0.2c4.5,0,8.1-3.7,8.1-8.1c0-0.7-0.1-1.3-0.2-1.9l-1.4-5.5l1.1,0.4c1.1,0.4,2.3,0.2,3.2-0.4
	C199,201.3,199.5,200.2,199.4,199.1z M188.2,210.5c-0.3,0.3-0.8,0.5-1.3,0.4l-10.1-2.5l-5.8-15l15,5.8l2.5,10.1
	C188.7,209.7,188.6,210.2,188.2,210.5z M166.4,184.3c-1.7-0.7-3.7,0.2-4.4,1.9c-0.3,0.8-0.3,1.6,0,2.4l9.7,25.1
	c-4.3-1.5-8.1-4-11.3-7.2c-9.2-9.2-11.4-22.1-4.8-28.7c2.7-2.6,6.3-3.9,10-3.8c1,0,1.9,0.1,2.9,0.2c6,1,11.6,3.9,15.8,8.4
	c3.2,3.2,5.7,7,7.2,11.3L166.4,184.3z"/>
<path class="st0" d="M96.2,122.3C96.2,122.3,96.2,122.3,96.2,122.3c6-5.9,6.1-15.5,0.3-21.5c-5.9-6-15.5-6.1-21.5-0.3
	c-0.1,0.1-0.2,0.2-0.3,0.3c-13.8,13.8-13.8,36.3,0,50.2c2.8,2.9,6.7,4.5,10.7,4.5c8.4,0,15.2-6.8,15.2-15.2c0-4-1.6-7.9-4.5-10.8
	C94.3,127.5,94.3,124.3,96.2,122.3z M91.5,146.2c-3.3,3.2-8.6,3.2-11.9,0c-11.2-11.2-11.2-29.4,0-40.6c0,0,0,0,0,0l0,0
	c3.3-3.3,8.7-3.3,11.9,0.1c3.3,3.3,3.3,8.6,0,11.9c-4.6,4.6-4.6,12.1,0,16.7C94.8,137.6,94.8,142.9,91.5,146.2z"/>
</svg>
