<?xml version="1.0" encoding="utf-8"?>
<!-- Generator: Adobe Illustrator 22.1.0, SVG Export Plug-In . SVG Version: 6.00 Build 0)  -->
<svg version="1.1" id="Warstwa_1" xmlns="http://www.w3.org/2000/svg" xmlns:xlink="http://www.w3.org/1999/xlink" x="0px" y="0px"
	 viewBox="0 0 329 239" style="enable-background:new 0 0 329 239;" xml:space="preserve">
<style type="text/css">
	.st0{fill:#FFFFFF;}
</style>
<path class="st0" d="M248.8,142.9c9.3-21,11.3-42.2,5.8-59.6c-0.5-1.7-0.6-3.5-0.1-4.9c1.9-5.3,1.2-11.1-1.9-15.9
	c-3.1-4.7-8.1-7.7-13.8-8.1c-1.5-0.1-3.1-0.8-4.5-2c-13.8-12.1-34-18.7-56.9-18.6c-21.5,0.1-43,6-58.9,16.4S88.7,77.9,80,97.5
	c-9.3,21-11.3,42.2-5.8,59.6c0.5,1.7,0.6,3.5,0.1,4.9c-1.9,5.3-1.2,11.1,1.9,15.9c3.1,4.7,8.1,7.7,13.8,8.1c1.5,0.1,3.1,0.8,4.5,2
	c13.8,12.1,34,18.7,56.9,18.6c21.5-0.1,43-6,58.9-16.4S240.2,162.6,248.8,142.9L248.8,142.9z M151.3,199.8
	c-21.3,0.1-39.9-6-52.4-16.9c-2.5-2.2-5.5-3.5-8.5-3.7c-3.5-0.3-6.6-2.1-8.5-5c-1.9-2.9-2.3-6.5-1.2-9.8c1-2.8,1-6.1,0-9.3
	c-5-15.9-3-35.3,5.6-54.8c8.2-18.5,21.4-34.7,36.2-44.3c14.8-9.7,34.9-15.3,55.1-15.3c21.3-0.1,39.9,6,52.4,16.9
	c2.5,2.2,5.5,3.5,8.5,3.7c3.5,0.3,6.6,2.1,8.5,5c1.9,2.9,2.3,6.5,1.2,9.8c-1,2.8-1,6.1,0,9.3c5,15.9,3,35.3-5.6,54.8
	c-8.2,18.5-21.4,34.7-36.2,44.3C191.6,194.2,171.5,199.8,151.3,199.8L151.3,199.8z M151.3,199.8"/>
<path class="st0" d="M92.9,142.6c-0.3-2.6-0.4-5.2-0.3-8c0.1-1.9-1.4-3.5-3.3-3.5c-1.9-0.1-3.5,1.4-3.5,3.3c-0.1,3.1,0,6.1,0.4,9
	c0.1,0.5,0.3,1,0.5,1.5c0.7,1.1,1.9,1.7,3.3,1.5C91.8,146.2,93.1,144.5,92.9,142.6L92.9,142.6z M92.9,142.6"/>
<path class="st0" d="M243.1,102.1c-0.1-2.9-0.4-5.8-0.9-8.5c-0.3-1.9-2.1-3.1-4-2.7c-1.9,0.3-3.1,2.1-2.7,4c0.4,2.4,0.7,4.9,0.8,7.5
	c0,0.7,0.2,1.3,0.6,1.8c0.6,1,1.7,1.6,3,1.5C241.7,105.5,243.2,104,243.1,102.1L243.1,102.1z M243.1,102.1"/>
<path class="st0" d="M114.7,82.3c1.2-1.4,1.1-3.6-0.4-4.8c-1.4-1.2-3.6-1.1-4.8,0.4C99,90.1,91,105.5,87.6,120.3
	c-0.2,0.9,0,1.9,0.5,2.6c0.5,0.7,1.2,1.3,2.1,1.5c1.8,0.4,3.7-0.7,4.1-2.6C97.5,108.1,104.9,93.7,114.7,82.3L114.7,82.3z
	 M114.7,82.3"/>
<path class="st0" d="M219.4,162.6c11.6-13.6,19.9-30.6,22.7-46.8c0.3-1.9-0.9-3.6-2.8-3.9c-1.9-0.3-3.6,0.9-3.9,2.8
	c-2.6,15-10.3,30.8-21.2,43.5c-1,1.2-1.1,2.9-0.3,4.1c0.2,0.3,0.4,0.5,0.6,0.7C216,164.2,218.1,164,219.4,162.6L219.4,162.6z
	 M219.4,162.6"/>
<path class="st0" d="M197,77.2c-0.5-0.8-1.3-1.3-2.2-1.5c-0.9-0.2-1.8,0-2.6,0.5c-0.8,0.5-1.3,1.3-1.5,2.2c-0.2,0.9,0,1.8,0.5,2.6
	c0.5,0.8,1.3,1.3,2.2,1.5c0.9,0.2,1.8,0,2.6-0.5c0.8-0.5,1.3-1.3,1.5-2.2C197.7,78.9,197.5,77.9,197,77.2L197,77.2z M197,77.2"/>
<path class="st0" d="M209.8,116.7c-0.5-0.8-1.3-1.3-2.2-1.5c-0.9-0.2-1.8,0-2.6,0.5c-0.8,0.5-1.3,1.3-1.5,2.2
	c-0.2,0.9,0,1.8,0.5,2.6c0.5,0.8,1.3,1.3,2.2,1.5c0.9,0.2,1.8,0,2.6-0.5c0.8-0.5,1.3-1.3,1.5-2.2
	C210.4,118.4,210.3,117.5,209.8,116.7L209.8,116.7z M209.8,116.7"/>
<path class="st0" d="M150.4,85.8c-0.5-0.8-1.3-1.3-2.2-1.5c-0.9-0.2-1.8,0-2.6,0.5s-1.3,1.3-1.5,2.2c-0.2,0.9,0,1.8,0.5,2.6
	c0.5,0.8,1.3,1.3,2.2,1.5c0.9,0.2,1.8,0,2.6-0.5c0.8-0.5,1.3-1.3,1.5-2.2C151.1,87.5,150.9,86.6,150.4,85.8L150.4,85.8z M150.4,85.8
	"/>
<path class="st0" d="M168.9,160.8c-0.5-0.8-1.3-1.3-2.2-1.5c-0.9-0.2-1.8,0-2.6,0.5c-0.8,0.5-1.3,1.3-1.5,2.2
	c-0.2,0.9,0,1.8,0.5,2.6c0.5,0.8,1.3,1.3,2.2,1.5c0.9,0.2,1.8,0,2.6-0.5c0.8-0.5,1.3-1.3,1.5-2.2
	C169.6,162.5,169.4,161.6,168.9,160.8L168.9,160.8z M168.9,160.8"/>
<path class="st0" d="M131.6,150.4c-0.5-0.8-1.3-1.3-2.2-1.5c-0.9-0.2-1.8,0-2.6,0.5c-0.8,0.5-1.3,1.3-1.5,2.2
	c-0.2,0.9,0,1.8,0.5,2.6c0.5,0.8,1.3,1.3,2.2,1.5c0.9,0.2,1.8,0,2.6-0.5s1.3-1.3,1.5-2.2C132.3,152.1,132.1,151.1,131.6,150.4
	L131.6,150.4z M131.6,150.4"/>
</svg>
