<?xml version="1.0" encoding="utf-8"?>
<!-- Generator: Adobe Illustrator 24.0.2, SVG Export Plug-In . SVG Version: 6.00 Build 0)  -->
<svg version="1.1" id="Warstwa_1" xmlns="http://www.w3.org/2000/svg" xmlns:xlink="http://www.w3.org/1999/xlink" x="0px" y="0px"
	 viewBox="0 0 329 239" style="enable-background:new 0 0 329 239;" xml:space="preserve">
<style type="text/css">
	.st0{fill:#FFFFFF;}
</style>
<path class="st0" d="M241,95.6h-2.6V25.3c0-10.5-8.3-19.4-18.6-19.8c-5.3-0.2-10.3,1.7-14.1,5.4c-3.8,3.7-5.9,8.6-5.9,13.9v8.8
	c0,2.4,2,4.4,4.4,4.4s4.4-2,4.4-4.4v-8.5c0-5.7,4.3-10.5,9.8-10.9c2.9-0.2,5.8,0.8,7.9,2.8c2.1,2,3.3,4.8,3.3,7.7v47h-7
	c-2.4,0-4.4,2-4.4,4.4s2,4.4,4.4,4.4h7v14.9H60.4c-9.2,0-16.7,7.5-16.7,16.7v17.5h13v17.5c0,21,11.6,40.2,30.2,50.1l1.6,0.9
	l-5.4,12.4h-9.4c-2.4,0-4.4,2-4.4,4.4c0,2.4,2,4.4,4.4,4.4H89l7.8-18l1.7,0.5c4.9,1.3,9.9,2,15,2H188c5.1,0,10.1-0.7,15-2l1.7-0.5
	l7.8,18h15.2c2.4,0,4.4-2,4.4-4.4c0-2.4-2-4.4-4.4-4.4h-9.4l-5.4-12.4l1.6-0.9c18.6-9.9,30.2-29.1,30.2-50.1v-17.5h13v-17.5
	C257.7,103.1,250.2,95.6,241,95.6z M104.2,104.4h46.3v56.4c0,1.9-1.6,3.5-3.5,3.5h-39.3c-1.9,0-3.5-1.6-3.5-3.5V104.4z M52.5,121
	v-8.7c0-4.4,3.6-8,8-8h35V121H52.5z M235.9,147.3c0,26.4-21.5,47.9-47.9,47.9h-74.6c-26.4,0-47.9-21.5-47.9-47.9v-17.5h29.9v35.3
	c0,4.3,3.5,7.9,7.9,7.9h47.8c4.5,0,8.2-3.7,8.2-8.2v-35h76.6V147.3z M249,121h-89.7v-16.7H241c4.4,0,8,3.6,8,8V121z"/>
</svg>
