<?xml version="1.0" encoding="utf-8"?>
<!-- Generator: Adobe Illustrator 22.1.0, SVG Export Plug-In . SVG Version: 6.00 Build 0)  -->
<svg version="1.1" id="Warstwa_1" xmlns="http://www.w3.org/2000/svg" xmlns:xlink="http://www.w3.org/1999/xlink" x="0px" y="0px"
	 viewBox="0 0 329 239" style="enable-background:new 0 0 329 239;" xml:space="preserve">
<style type="text/css">
	.st0{fill:#FFFFFF;}
</style>
<path class="st0" d="M223.6,101.6h-55.9c1.1-8.7,4.7-16.9,10.2-23.7c3.9,4,9.1,6.3,14.7,6.6h0.5c5,0,15.2-2.5,18.2-10.7
	c1.6-4.9,2.2-10,1.8-15.2c-0.2-7.1-0.3-11.7,7.4-16.4c0.9-0.6,1.4-1.7,1.1-2.8c-0.3-1.1-1.2-1.8-2.3-1.9c-1.3,0-33-1-44.4,14.3
	c-1.7,2.2-2.8,4.8-3.3,7.6c-0.2,1.4,0.7,2.7,2,2.9c1.4,0.2,2.7-0.7,2.9-2c0.4-2,1.2-3.9,2.4-5.5c6.9-9.3,23.6-11.6,33.2-12.1
	c-4.3,5.1-4.2,10.6-4,16.1c0.4,4.5-0.1,9-1.5,13.3c-2.2,6-10.9,7.6-13.8,7.4c-4.4-0.2-8.6-2.1-11.6-5.4c4.5-4.8,9.8-8.8,15.6-12
	c1.2-0.6,1.8-2.1,1.2-3.3c-0.6-1.2-2.1-1.8-3.3-1.2c-1,0.5-21.9,10.9-29.5,33.1c-2.5-8.1-6.5-15.5-12-22c5.4-7.6,5.3-17.9-0.2-25.4
	c-13.2-17.8-50-16.6-51.5-16.6c-1.1,0-2,0.8-2.3,1.9c-0.3,1.1,0.2,2.2,1.1,2.8c9.3,5.6,9.1,11.5,8.9,19.6
	c-0.5,5.9,0.2,11.9,2.1,17.6c3.4,9.4,15.2,12.2,20.9,12.2h0.6c2.3-0.1,4.6-0.5,6.7-1.2c1.3-0.5,2-1.8,1.5-3.1
	c-0.4-1.3-1.8-2-3.1-1.6c-1.7,0.6-3.5,0.9-5.3,1c-3.5,0.1-13.9-1.8-16.6-8.9c-1.6-5.1-2.2-10.4-1.8-15.7c0.2-6.5,0.4-13.2-5.3-19.3
	c11,0.6,31.7,3.1,40.1,14.4c3.9,5.5,4.2,12.8,0.7,18.6c-5.7-5.9-12.2-10.9-19.5-14.7c-1.2-0.6-2.7-0.1-3.3,1.2
	c-0.6,1.2-0.1,2.7,1.1,3.3c0.3,0.2,30.7,15.2,34.2,47h-53.5c-4.1,0-7.4,3.3-7.4,7.4v8.8c0,4.1,3.3,7.4,7.4,7.4h4.8l8.7,79.5
	c0.6,5.8,5.5,10.2,11.3,10.1h65.2c5.8,0,10.7-4.4,11.3-10.1l7.5-68.8c0.1-0.7-0.1-1.3-0.5-1.8c-0.4-0.5-1-0.8-1.7-0.9
	c-0.7-0.1-1.3,0.1-1.8,0.5c-0.5,0.4-0.8,1-0.9,1.7l-7.5,68.8c-0.4,3.2-3.1,5.7-6.4,5.7h-65.2c-3.3,0-6-2.5-6.4-5.7l-8.6-79h6.5
	c1.4,0,2.5-1.1,2.5-2.5c0-1.4-1.1-2.5-2.5-2.5H116c-0.1,0-0.3,0-0.4,0c0,0-0.1,0-0.1,0h-6.7c-1.3,0-2.4-1.1-2.4-2.4v-8.8
	c0-1.3,1.1-2.4,2.4-2.4h55.9c0.1,0,0.1,0,0.2,0h0.3c0.1,0,0.1,0,0.2,0h58.3c1.3,0,2.4,1.1,2.4,2.4v8.8c0,1.3-1.1,2.4-2.4,2.4h-74.2
	c-1.4,0-2.5,1.1-2.5,2.5c0,1.4,1.1,2.5,2.5,2.5h74.2c4.1,0,7.4-3.3,7.4-7.4v-8.8C231,104.9,227.7,101.6,223.6,101.6L223.6,101.6z
	 M223.6,101.6"/>
</svg>
