<?xml version="1.0" encoding="utf-8"?>
<!-- Generator: Adobe Illustrator 22.1.0, SVG Export Plug-In . SVG Version: 6.00 Build 0)  -->
<svg version="1.1" id="Warstwa_1" xmlns="http://www.w3.org/2000/svg" xmlns:xlink="http://www.w3.org/1999/xlink" x="0px" y="0px"
	 viewBox="0 0 329 239" style="enable-background:new 0 0 329 239;" xml:space="preserve">
<style type="text/css">
	.st0{fill:#FFFFFF;}
</style>
<path class="st0" d="M254.1,189.8h-28.9c-1.7,0-3,1.3-3,3c0,1.7,1.3,3,3,3h25.9v1.7l-43.5,8.3h-87.2l-43.5-8.3v-1.7h11.9
	c0,0,0,0,0,0c0,0,0,0,0,0h10.8c0,0,0,0,0,0c0,0,0,0,0,0h35.8c0,0,0,0,0,0c0,0,0,0,0,0h10.7c0,0,0,0,0,0c0,0,0,0,0,0h35.8
	c0,0,0,0,0,0c0,0,0,0,0,0h32.3c1.7,0,3-1.3,3-3c0-1.7-1.3-3-3-3h-19.3c3.6-2.3,6.9-4.9,9.9-7.9c4.3-4.3,7.9-9.2,10.6-14.5
	c3.8,1.5,7.8,2.3,11.9,2.3c17.5,0,31.7-14.2,31.7-31.7c0-17.5-14.2-31.7-31.7-31.7c-1.9,0-3.8,0.2-5.6,0.5V105
	c0-3.8-3.1-6.9-6.9-6.9h-14.1c-1.7,0-3,1.3-3,3s1.3,3,3,3h14.1c0.5,0,1,0.4,1,1v5.1H112.3V105c0-0.5,0.4-1,1-1h76.2c1.7,0,3-1.3,3-3
	s-1.3-3-3-3h-76.2c-3.8,0-6.9,3.1-6.9,6.9v36.1c0,4.5,0.5,9,1.6,13.3c-4.9-1.5-10.7-0.3-15.9,3.3c-1.4,0.9-1.7,2.8-0.8,4.2
	c0.9,1.4,2.8,1.7,4.2,0.8c3.5-2.4,7.1-3.3,10.1-2.7l-10.9,16.3c-0.9,1.4-0.5,3.2,0.8,4.1c0.5,0.3,1.1,0.5,1.7,0.5
	c1,0,1.9-0.5,2.5-1.3l10.9-16.3c1.1,1.7,1.7,3.9,1.8,6.4c0,0,0,0,0,0c0,0,0,0,0,0c0,3.9-1.3,8.2-3.9,12c-1.5,2.2-3.2,4-5.1,5.5
	c-1.3,1.1-2.8,1.9-4.2,2.5h-9.4c-0.1-0.1-0.2-0.1-0.3-0.2c-5-3.3-5.3-11.9-0.7-19.6c0.8-1.4,0.4-3.3-1-4.1c-1.4-0.8-3.3-0.4-4.1,1
	c-2.9,4.9-4.3,10.3-4,15.3c0.2,2.8,0.9,5.4,2.1,7.5h-7.6c-1.7,0-3,1.3-3,3v7.1c0,1.4,1,2.7,2.4,2.9l43.9,8.3v8.8c0,1.7,1.3,3,3,3
	h87.5c1.7,0,3-1.3,3-3v-8.8l43.9-8.3c1.4-0.3,2.4-1.5,2.4-2.9v-7.1C257.1,191.1,255.8,189.8,254.1,189.8z M221.7,126.9
	c1.7-0.9,3.6-1.4,5.6-1.4c6.8,0,12.4,5.5,12.4,12.4c0,6.8-5.5,12.4-12.4,12.4c-2.2,0-4.3-0.6-6.1-1.6c0.3-2.5,0.5-5,0.5-7.6
	L221.7,126.9L221.7,126.9z M227.3,112.1c14.2,0,25.8,11.6,25.8,25.8c0,14.2-11.6,25.8-25.8,25.8c-3.3,0-6.5-0.6-9.5-1.8
	c0.9-2.3,1.6-4.7,2.2-7.1c2.3,1,4.7,1.5,7.3,1.5c10.1,0,18.3-8.2,18.3-18.3s-8.2-18.3-18.3-18.3c-1.9,0-3.8,0.3-5.6,0.9v-7.4
	c0,0,0,0,0,0s0,0,0,0v-0.2C223.5,112.4,225.4,112.1,227.3,112.1z M215.7,116v9.2c0,0,0,0,0,0v15.8c0,13.8-5.4,26.8-15.1,36.6
	c-5.4,5.4-12,9.6-19.2,12.1h-34.7c-1-0.3-1.9-0.7-2.9-1.1c2.2-3.4,3-7.3,2.3-10.9c0,0,0,0,0,0c0,0,0,0,0,0c-1-4.8-4.3-8.7-9.5-11
	c-4.8-2.2-10.7-2.8-16.6-1.6c-0.5,0.1-1.1,0.2-1.6,0.4c-4-7.5-6.1-15.8-6.1-24.4v-25L215.7,116L215.7,116z M113.3,185
	c2.8-4.1,4.4-8.8,4.8-13.3c1-0.3,2-0.6,3.1-0.8c7.6-1.5,14.9,0.8,17.9,5.1l-19.2,3.8c-1.6,0.3-2.7,1.9-2.3,3.5
	c0.3,1.4,1.5,2.4,2.9,2.4c0.2,0,0.4,0,0.6-0.1l19.2-3.8c-0.4,2-1.5,3.9-3.2,5.7c0,0,0,0,0,0c-0.7,0.8-1.6,1.5-2.5,2.1h-25.1
	C110.8,188.3,112.1,186.8,113.3,185z M204.8,217h-81.5v-5.4h81.5V217z"/>
<path class="st0" d="M171.8,78.7c-1.4,0.9-1.8,2.7-0.9,4.1c0.6,0.9,1.5,1.4,2.5,1.4c0.5,0,1.1-0.1,1.6-0.5c6-3.8,9.6-10.3,9.6-17.3
	c0-5.7-2.3-11-6.3-14.8c4-3.8,6.3-9.1,6.3-14.8c0-7.1-3.6-13.6-9.6-17.3c-1.4-0.9-3.2-0.5-4.1,0.9c-0.9,1.4-0.5,3.2,0.9,4.1
	c4.3,2.7,6.8,7.3,6.8,12.3c0,5-2.5,9.6-6.8,12.3c-1.8,1.1-1.8,3.9,0,5.1c4.3,2.7,6.8,7.3,6.8,12.3C178.6,71.4,176.1,76,171.8,78.7
	C170.4,79.6,176.1,76,171.8,78.7z"/>
<path class="st0" d="M192.9,78.7c-1.4,0.9-1.8,2.7-0.9,4.1c0.6,0.9,1.5,1.4,2.5,1.4c0.5,0,1.1-0.1,1.6-0.5c6-3.8,9.6-10.3,9.6-17.3
	c0-7.1-3.6-13.6-9.6-17.3c-1.4-0.9-3.2-0.5-4.1,0.9c-0.9,1.4-0.5,3.2,0.9,4.1c4.3,2.7,6.8,7.3,6.8,12.3
	C199.7,71.4,197.1,76,192.9,78.7z"/>
<path class="st0" d="M149.1,78.7c-1.4,0.9-1.8,2.7-0.9,4.1c0.6,0.9,1.5,1.4,2.5,1.4c0.5,0,1.1-0.1,1.6-0.5c6-3.8,9.6-10.3,9.6-17.3
	c0-7.1-3.6-13.6-9.6-17.3c-1.4-0.9-3.2-0.5-4.1,0.9c-0.9,1.4-0.5,3.2,0.9,4.1c4.3,2.7,6.8,7.3,6.8,12.3
	C155.9,71.4,153.3,76,149.1,78.7z"/>
</svg>
