<?xml version="1.0" encoding="utf-8"?>
<!-- Generator: Adobe Illustrator 22.1.0, SVG Export Plug-In . SVG Version: 6.00 Build 0)  -->
<svg version="1.1" id="Warstwa_1" xmlns="http://www.w3.org/2000/svg" xmlns:xlink="http://www.w3.org/1999/xlink" x="0px" y="0px"
	 viewBox="0 0 329 239" style="enable-background:new 0 0 329 239;" xml:space="preserve">
<style type="text/css">
	.st0{fill:#FFFFFF;}
</style>
<path class="st0" d="M70.7,124.6c-0.5,1-0.5,2.1,0,3.1l0,0.1c0.3,4.1,1.7,11.4,6.5,22.8c0.9,2.2,1.8,4.2,2.6,6
	c0.8,1.9,1.6,3.7,2.2,5.3l0,0.1c0.4,3.5,2,7.3,4.6,11l0.3,0.6c0.3,0.6,0.7,1.2,1.3,1.6l0.6,0.4c3.2,3.5,6.7,6,10,7.2l0.1,0
	l25.6,18.2c0.1,0,0.2,0.1,0.3,0.2c0.4,0.3,3.7,2.3,9.5,2.3c5.2,0,10.7-1.6,16.4-4.9c8.8-5,34.9-21.5,52.2-32.4l0.1-0.1l0.2,0
	c7.2,1.7,13.6,2.6,19.1,2.6c7,0,12.4-1.6,16.2-4.6c19.4-16.5,11-57.5-19.2-93.3c-14.6-17.4-31.8-30.5-48.4-36.9
	c-16.5-6.4-30.8-5.6-40.2,2.4c-9.6,8-12.7,17.1-10.5,31.3l0,0.2l-0.1,0.1c-14.2,16.1-37.4,42.2-48.6,54.9c-0.4,0.4-0.7,1-0.8,1.7
	L70.7,124.6z M103.9,176.1c-0.2,0.2-0.5,0.2-0.8,0.2c-0.4,0-0.8-0.1-1.1-0.2l-0.1-0.1l-8.3-5.9l-0.3-0.2c-0.1-0.1-0.2-0.2-0.3-0.3
	c-0.1-0.1-0.1-0.2-0.2-0.3l-0.1-0.1c-0.3-0.6-0.6-1.5-1.1-2.6c-0.7-1.6-1.6-3.8-2.8-6.5l-0.1-0.1l0-0.1c0.2-0.6,0.4-1,0.5-1.2
	l0.1-0.1c0.2-0.2,0.5-0.2,0.9-0.2c0.8,0,1.6,0.2,2.6,0.6c2.5,1.1,5.1,3.2,7.1,5.7c2.1,2.6,3.7,5.6,4.2,8.1
	C104.5,174.4,104.4,175.8,103.9,176.1z M126.8,59.3c0.1-8.5,3.5-13.1,8.5-17.5c4.5-3.8,10.5-5.4,17.9-4.8
	c18.4,1.5,42.2,16.6,60.6,38.4c12.9,15.3,22,32.4,25.9,48.3c3.8,15.9,1.7,28.3-6,34.8c-2.3,2-6.1,3-11.3,3c-2.8,0-6.1-0.3-9.7-0.9
	l-1-0.2l0.8-0.5c2.7-1.7,5.1-3.2,7-4.4c2.8-1.8,4.6-2.9,5-3.2c0.4-0.3,0.6-0.6,0.9-0.9c0.2-0.2,16.4-22-8.7-61.9
	c-17.1-27.1-35.6-36-48-40.4c-12.4-4.4-26.5-7.1-36.9,5.6c-0.3,0.3-1.8,2-4.4,5l-0.7,0.8L126.8,59.3z M84.7,118.8
	c15.7-17.7,51.3-58,52.7-59.7c6.1-7.6,14.2-8.5,28.8-3.3c12.3,4.3,28.5,12.5,44.3,37.6c20.3,32.3,11.4,49.9,9.4,53.1l-0.1,0.1
	c-6.1,4.1-59.3,38.1-72.7,45.7c-0.6,0.4-1.2,0.7-1.8,1l-0.9,0.4l0.4-0.9c1.7-4.3,1.9-9.6,0.5-15.7c-2.5-10.8-9.7-23.2-19.9-34
	c-10.3-11-22.3-19.2-32.9-22.3c-2.3-0.7-4.7-1.2-7.4-1.4l-0.7-0.1L84.7,118.8z M78.1,127.7c2.9-1.5,7.1-1.4,12.2,0.1
	c9.5,2.8,20.3,10.2,29.7,20.3c9.3,10,15.9,21.2,18.1,30.7c1.5,6.5,0.8,11.4-2,14.2c-1.2,1.2-3.1,2-5.3,2.2c-0.4,0-0.8,0.2-1.2,0.4
	l-0.1,0.1l-0.1,0c-0.5-0.1-0.7-0.4-0.8-0.4l-19.4-13.8l0.3-0.3c2.1-2.4,2.8-5.8,1.9-9.7c-0.8-3.8-2.8-7.8-5.7-11.2
	c-3-3.7-6.5-6.3-10-7.8c-3.6-1.5-6.9-1.6-9.6-0.1l-0.4,0.2l-0.2-0.4c-0.3-0.6-0.5-1.3-0.8-1.9c-0.3-0.7-0.6-1.5-1-2.3
	c-4.4-10.5-5.6-16.9-5.8-19.7l0-0.3L78.1,127.7z"/>
</svg>
