<?xml version="1.0" encoding="utf-8"?>
<!-- Generator: Adobe Illustrator 24.0.2, SVG Export Plug-In . SVG Version: 6.00 Build 0)  -->
<svg version="1.1" id="Warstwa_1" xmlns="http://www.w3.org/2000/svg" xmlns:xlink="http://www.w3.org/1999/xlink" x="0px" y="0px"
	 viewBox="0 0 633 849" style="enable-background:new 0 0 633 849;" xml:space="preserve">
<style type="text/css">
	.st0{fill:#FFFFFF;}
	.st1{opacity:0.7;fill:#FFFFFF;}
</style>
<path class="st0" d="M500.4,775.7H145.2c-12.7,0-22.9-10.3-22.9-22.9c0-12.7,10.3-22.9,22.9-22.9h335l63.2-491.2
	c3.2-25.2-4.5-50.7-21.4-69.8c-16.8-19.1-41-30.1-66.5-30.1H190.1c-25.4,0-49.7,11-66.5,30.1c-16.8,19.1-24.6,44.5-21.3,69.8
	l21.2,165.1c1.6,12.6-7.3,24.1-19.8,25.7c-12.7,1.7-24.1-7.3-25.7-19.8L56.8,244.5c-4.9-38.3,6.9-76.9,32.4-105.9
	c25.5-29,62.3-45.6,100.9-45.6h265.5c38.6,0,75.4,16.6,100.9,45.6c25.5,29,37.3,67.6,32.4,105.9l-65.7,511.2
	C521.7,767.1,512,775.7,500.4,775.7z"/>
<path class="st0" d="M418.5,284.3H227.1c-12.7,0-22.9-10.3-22.9-22.9c0-12.7,10.3-22.9,22.9-22.9h191.4c12.7,0,22.9,10.3,22.9,22.9
	C441.5,274.1,431.2,284.3,418.5,284.3z"/>
<path class="st1" d="M495.9,467.9H243.7l60.1-60.1c15.4-15.4,15.4-40.2,0-55.6c-15.4-15.4-40.2-15.4-55.6,0L106.5,493.9
	c-15.4,15.4-15.4,40.2,0,55.6l141.6,141.6c7.7,7.7,17.7,11.5,27.8,11.5s20.1-3.8,27.8-11.5c15.4-15.4,15.4-40.2,0-55.6l-60.1-60.1
	h252.2c10.3,0,18.6-8.3,18.6-18.6v-70.3C514.5,476.3,506.2,467.9,495.9,467.9z"/>
</svg>
