<?xml version="1.0" encoding="utf-8"?>
<!-- Generator: Adobe Illustrator 22.1.0, SVG Export Plug-In . SVG Version: 6.00 Build 0)  -->
<svg version="1.1" id="Warstwa_1" xmlns="http://www.w3.org/2000/svg" xmlns:xlink="http://www.w3.org/1999/xlink" x="0px" y="0px"
	 viewBox="0 0 400 400" style="enable-background:new 0 0 400 400;" xml:space="preserve">
<style type="text/css">
	.st0{fill:#FFFFFF;}
</style>
<path class="st0" d="M318.3,103h-56.9c0,0,0,0,0,0V92.6c0-3.4-2.8-6.2-6.2-6.2h-7.9c-3.4,0-6.2,2.8-6.2,6.2v10.3c0,0,0,0,0,0h-15.8
	c0,0,0,0,0,0l0-42.9c0-9.1,7.1-16.9,16.2-17.3c9.6-0.3,17.5,7.3,17.5,16.8v0.9c0,3.2,2.6,5.9,5.9,5.9h8.5c3.2,0,5.9-2.6,5.9-5.9
	v-0.1c0-20.3-16-37.3-36.2-37.8c-20.8-0.5-37.9,16.3-37.9,37v43.4c0,0,0,0,0,0h-14.8c0,0,0,0,0,0V93c0-3.6-2.9-6.5-6.5-6.5h-7.2
	c-3.6,0-6.5,2.9-6.5,6.5v9.9c0,0,0,0,0,0h-59.8c-3.8,0-6.9,3.1-6.9,6.9v3.2c0,43.7,30.9,80.3,72.1,89c0,0,0,0,0,0l-13.7,165.2
	c0,0,0,0,0,0h105.4c0,0,0,0,0,0l-13.7-165.2c0,0,0,0,0,0c41.1-8.7,72.1-45.3,72.1-89v-2.8C325.7,106.2,322.4,103,318.3,103z
	 M245.2,347.1h-61.5c0,0,0,0,0,0l11.8-142.8c0,0,0,0,0,0h37.9c0,0,0,0,0,0L245.2,347.1C245.3,347.1,245.3,347.1,245.2,347.1z
	 M234.7,183.8h-40.4c-35.6,0-65.1-26.4-70-60.6c0,0,0,0,0,0h180.4c0,0,0,0,0,0C299.8,157.4,270.3,183.8,234.7,183.8z"/>
</svg>
