<?xml version="1.0" encoding="utf-8"?>
<!-- Generator: Adobe Illustrator 22.1.0, SVG Export Plug-In . SVG Version: 6.00 Build 0)  -->
<svg version="1.1" id="Warstwa_1" xmlns="http://www.w3.org/2000/svg" xmlns:xlink="http://www.w3.org/1999/xlink" x="0px" y="0px"
	 viewBox="0 0 329 239" style="enable-background:new 0 0 329 239;" xml:space="preserve">
<style type="text/css">
	.st0{fill:#FFFFFF;}
</style>
<path class="st0" d="M289.2,92.6c-9.9-13.7-23.7-24.2-39.8-30.3c-2.9-1.1-4.8-3.8-5-6.8c-0.4-9.3,1.1-21.6,10.7-26.9
	c1.7-1,2.8-2.8,2.8-4.8c0-2-1.1-3.8-2.9-4.7c-7.5-4-16.9-1-23.9,2.7c-3.4-5.5-11.4-14.4-27.7-18.2c-1.8-0.4-3.8,0.1-5.1,1.5
	c-1.3,1.4-1.8,3.3-1.3,5.1c1,4,1.3,7.3,1.2,9.9c-4.2-1.9-9.9-4.1-17.2-6.4c-2.3-0.7-4.8,0.1-6.1,2.2c-1.3,2-1.2,4.7,0.4,6.5
	c8.1,9.4,11.2,19.2,9.1,29.4c-1.4,7.1-5.8,13.3-12.1,16.9c-1.8,1.1-3.6,2.2-5.3,3.4c-5.8-4-12.1-7.3-18.8-9.8
	c-2.9-1.1-4.8-3.8-5-6.8c-0.4-9.3,1.1-21.6,10.7-26.9c1.7-1,2.8-2.8,2.8-4.8c0-2-1.1-3.8-2.9-4.7c-7.4-3.9-16.5-1.2-23.9,2.7
	c-5.1-6.3-14.6-14.4-31.1-18.2c-1.8-0.4-3.8,0.1-5.1,1.5c-1.3,1.4-1.8,3.3-1.3,5.1c0.8,3.2,1.3,6,1.4,8.6c-3.7-1.5-8.4-3.3-14-5.1
	c-2.3-0.7-4.8,0.1-6.1,2.2c-1.3,2-1.2,4.7,0.4,6.5c8.1,9.4,11.2,19.2,9.1,29.4C81.7,59,77.3,65.1,71,68.8
	c-12.5,7.3-23,17.7-30.4,29.9c-7.6,12.7-11.6,27.1-11.6,41.8c0,46.3,39.1,83.9,87.2,83.9c18.4,0,35.8-5.4,50.6-15.6
	c14.3,9.8,31.7,15.6,50.6,15.6c15.8,0,31.3-4.1,44.8-11.9c2.6-1.5,3.5-4.8,2-7.4c-1.5-2.6-4.8-3.5-7.4-2
	c-11.9,6.8-25.5,10.5-39.4,10.5c-42.2,0-76.5-32.8-76.5-73.1c0-25.7,13.7-49,36.6-62.4c8.9-5.2,15.1-14,17.2-24.1
	c1.3-6.3,1.5-14.9-2.6-24.5c7,3,10.1,5,10.2,5.1c2.4,1.7,5.8,1.1,7.5-1.4c1.7-2.4,1.1-5.8-1.4-7.5c0,0-0.1-0.1-0.2-0.2
	c0.4-2.2,0.7-5.1,0.5-8.7c7.6,3.4,11.4,8,13.1,10.8c-0.7,0.5-1.1,0.9-1.4,1.1c-2.3,1.9-2.7,5.3-0.8,7.6c1.9,2.3,5.3,2.7,7.6,0.8
	c2.5-2,7-5,11.6-7c-3.9,6.8-5.8,15.6-5.3,26c0.3,7.3,5,13.8,11.9,16.4c29.4,11.1,48.4,37.8,48.4,68c0,12.5-3.4,24.9-9.7,35.7
	c-1.5,2.6-0.6,5.9,1.9,7.4c0.9,0.5,1.8,0.7,2.7,0.7c1.8,0,3.6-1,4.6-2.7c7.3-12.5,11.2-26.8,11.2-41.2
	C304.8,123.3,299.4,106.7,289.2,92.6L289.2,92.6z M141.9,98.7c-7.6,12.7-11.6,27.1-11.6,41.8c0,24.2,10.7,46,27.7,61.3
	c-12.4,7.8-26.7,11.8-41.7,11.8c-42.2,0-76.5-32.8-76.5-73.1c0-25.7,13.7-49,36.6-62.4c8.9-5.2,15.1-14,17.2-24.1
	c1.3-6.3,1.5-14.9-2.6-24.5c2.2,0.9,4,1.8,5.4,2.5c1.6,0.8,3.4,0.7,4.9-0.1c1.5-0.8,2.6-2.3,2.8-4.1c0.4-2.7,0.6-6.5,0.1-11.1
	c11.2,4.4,16.8,11.1,19.4,15.1c0.8,1.2,2,2.1,3.4,2.4c1.4,0.3,2.9,0.1,4.1-0.7c2.3-1.5,4.5-2.6,6.6-3.5c-3.9,6.8-5.8,15.6-5.3,26
	c0.3,7.3,5,13.8,11.9,16.4c4.8,1.8,9.3,4.1,13.6,6.8C151.7,84.9,146.2,91.5,141.9,98.7L141.9,98.7z M141.9,98.7"/>
<path class="st0" d="M279.9,191.6c-2.1-2.1-5.5-2.2-7.6-0.1l-0.1,0.1c-2.1,2.1-2.2,5.5-0.1,7.6c1.1,1.1,2.5,1.6,3.9,1.6
	c1.4,0,2.7-0.5,3.8-1.5l0.1-0.1C281.9,197.1,282,193.7,279.9,191.6L279.9,191.6z M279.9,191.6"/>
<path class="st0" d="M269.3,99.7c-0.4-0.7-0.9-1.3-1.6-1.7c-6.8-7.3-15.5-13.2-25.6-17c-1.7-0.6-3.5-0.4-5,0.6
	c-1.5,1-2.3,2.7-2.3,4.4v19.2c0,7.8-2.3,15.3-6.7,21.7c-4.9,7.2-7.8,15.5-8.5,24.1c-4.1-8.7-4.4-18.8-0.6-27.8
	c2.5-5.9,3.6-12.3,3.5-18.5c0.2-1,0.2-2.1-0.2-3.1c-0.9-9.4-4.7-18.4-11.3-25.7c-3.2-3.5-7.8-5.1-12.5-4.4
	c-4.6,0.7-8.4,3.6-10.4,7.8c-1.3,2.8-3.3,5.1-6,6.6c-20,11.7-32,32-32,54.3c0,35.2,30.1,63.8,67.1,63.8c3.5,0,6.9-0.3,10.2-0.7
	c0,0,0,0,0,0c32.2-4.7,56.9-31.2,56.9-63C284.5,125.1,278.9,110.9,269.3,99.7L269.3,99.7z M266.4,114.1c3,5,5.2,10.5,6.3,16.3
	c-2.9-1.5-6.2-2.4-9.7-2.4c-0.2,0-0.4,0-0.6,0c0-1.6-0.3-3.2-0.8-4.8l-1.2-3.7C262.8,118.2,264.9,116.4,266.4,114.1L266.4,114.1z
	 M245.6,94.4c4.9,2.6,9.2,5.9,13,9.7l-0.7,2.9c-0.5,2-2.3,3.4-4.4,3.4c-1.3,0-2.5-0.6-3.4-1.5l-4.5-5.1V94.4z M216.2,171.6
	c0.7,1.5,0.1,3.2-1.3,4c-0.9,0.5-1.9,0.6-2.8,0.2l-6.5-2.9c0-0.1-0.1-0.2-0.1-0.4c3.4-1,6.3-2.9,8.7-5.3L216.2,171.6z M210,113
	c0.3-0.1,0.5-0.2,0.8-0.4l0.3-0.1c-0.1,0.4-0.2,0.8-0.3,1.2C210.6,113.5,210.3,113.3,210,113L210,113z M198,83.8
	c0.6-1.2,1.6-1.5,2.2-1.6c0.1,0,0.3,0,0.5,0c0.6,0,1.6,0.2,2.3,1c4.4,4.9,7.2,10.9,8.3,17.2l-5.2,2.6c-2.7,1.4-5.9,0.9-8.1-0.9
	c0,0-0.1-0.1-0.1-0.1c-0.7-0.6-1.3-1.4-1.8-2.3l-4.1-7.6C194.5,89.8,196.5,87,198,83.8L198,83.8z M204.4,133.3
	c-1.1,1.5-2.6,2.5-4.2,2.7c-0.2,0-0.4,0-0.6,0c-0.3,0-0.5,0-0.8,0c-3.2-0.4-5.9-3.5-6.3-7.5c-0.3-2.3,0.3-4.6,1.5-6.3
	c1.1-1.6,2.6-2.5,4.3-2.7c0.2,0,0.4,0,0.6,0c3.5,0,6.6,3.2,7,7.5C206.1,129.3,205.6,131.5,204.4,133.3L204.4,133.3z M183,98.3
	l3.5,6.5c0.6,1.1,1.2,2,1.9,2.9l-0.4,1.7c-0.7,3.1-2.7,5.8-5.5,7.4c-3.1,1.8-6.8,2.1-10.1,0.8l-5.1-1.9
	C171.1,109,176.4,103,183,98.3L183,98.3z M173.2,129.2c5.8,0,10.5,4.2,10.5,9.3c0,5.1-4.7,9.3-10.5,9.3c-5.8,0-10.5-4.2-10.5-9.3
	C162.7,133.4,167.4,129.2,173.2,129.2L173.2,129.2z M173.7,173.7c-4.4-5-7.8-10.9-9.9-17.2c2.8,1.3,6.1,2.1,9.5,2.1
	c2.4,0,4.7-0.4,6.8-1.1c0.3,1.6,0.8,3.2,1.5,4.7C177.2,164.6,174.3,168.8,173.7,173.7L173.7,173.7z M193,186.4l-1,1.3
	c-3-1.4-5.9-3.1-8.5-5l0.8-7.4c0.2-1.7,1.3-3.2,2.8-3.8c1.2-0.5,2.4-0.5,3.6,0l0.3,0.1c0.5,0.2,0.9,0.4,1.4,0.6
	c1.3,0.5,2.2,1.6,2.6,2.9C196.3,178.9,195.5,183.1,193,186.4L193,186.4z M196.3,162C196.3,162,196.3,162,196.3,162l-1.2-0.5
	c-2.8-1.3-4.7-3.9-4.7-6.9c0-4.1,3.5-7.5,8.1-7.9c0.3,0,0.6,0,0.9,0c0.3,0,0.6,0,0.9,0c4.6,0.4,8.1,3.8,8.1,7.9c0,4.4-4,7.9-9,7.9
	C198.4,162.5,197.3,162.3,196.3,162L196.3,162z M217.4,193.3c-5.1,0-10-0.6-14.7-1.8c1.4-2.1,2.4-4.4,3-6.9l2.1,0.9
	c1.8,0.8,3.7,1.2,5.7,1.2c1.5,0,2.9-0.2,4.3-0.7c2.6,1.5,4.2,4.2,4.3,7.1C220.5,193.2,218.9,193.3,217.4,193.3L217.4,193.3z
	 M232.7,191.3c-0.6-4.8-3-9.3-6.7-12.5c0.5-1.2,0.9-2.4,1.1-3.7c1.9-0.9,3.2-2.8,3.2-4.9v-0.6h4c0,0.4,0,0.8,0,1.1
	c0,6.5,2.4,12.8,6.7,17.7C238.3,189.6,235.5,190.5,232.7,191.3L232.7,191.3z M240.7,157.1c-1.2,1.1-2.7,1.7-4.2,1.7h-6.2v-4.2
	c0-5.6,1.2-11.1,3.6-16.1l1.6,1.5c1.5,1.4,3.2,2.4,5,3.2l2,7.9C243,153.3,242.4,155.6,240.7,157.1L240.7,157.1z M239.5,129
	c2-3.6,3.5-7.3,4.5-11.2c1.6,1.3,3.5,2.2,5.5,2.8l2,6c0.6,1.8,0.2,3.8-1.1,5.2c-1,1.1-2.3,1.7-3.7,1.8c-1.4,0.1-2.8-0.4-3.9-1.4
	L239.5,129z M250.6,183l-1.5-1.7c-2.6-2.9-4.1-6.7-4.1-10.7c0-1.4,0.7-2.7,1.9-3.6c1-0.7,2.3-0.9,3.4-0.7l7,1.6
	c0.9,0.3,1.8,0.5,2.8,0.6c0,0,0,0,0,0c1,0.1,2,0.2,3,0.2c0.6,0,1.1,0,1.7-0.1C261,174.4,256.2,179.2,250.6,183L250.6,183z
	 M263.1,158.2c-0.5,0-1-0.1-1.5-0.1l-1.5-0.4c-3.9-1.3-6.8-4.9-6.8-9.3c0-5.4,4.4-9.7,9.7-9.7c5.4,0,9.7,4.4,9.7,9.7
	C272.8,153.8,268.4,158.2,263.1,158.2L263.1,158.2z M263.1,158.2"/>
<path class="st0" d="M90.7,186.1c-18.1-9-29.3-26.5-29.3-45.6c0-11.9,4.4-23.5,12.3-32.6c2-2.2,1.7-5.6-0.5-7.6
	c-2.2-2-5.6-1.7-7.6,0.5c-9.7,11.1-15,25.2-15,39.7c0,23.3,13.5,44.4,35.3,55.3c0.8,0.4,1.6,0.6,2.4,0.6c2,0,3.9-1.1,4.8-3
	C94.5,190.6,93.4,187.4,90.7,186.1L90.7,186.1z M90.7,186.1"/>
<path class="st0" d="M89.3,89.3c-1.5-2.6-4.8-3.5-7.4-2c-2.6,1.5-3.5,4.8-2,7.3c1,1.7,2.8,2.7,4.7,2.7c0.9,0,1.8-0.2,2.7-0.7
	c0,0,0,0,0,0C89.9,95.2,90.8,91.9,89.3,89.3L89.3,89.3z M89.3,89.3"/>
</svg>
