<?xml version="1.0" encoding="utf-8"?>
<!-- Generator: Adobe Illustrator 22.1.0, SVG Export Plug-In . SVG Version: 6.00 Build 0)  -->
<svg version="1.1" id="Warstwa_1" xmlns="http://www.w3.org/2000/svg" xmlns:xlink="http://www.w3.org/1999/xlink" x="0px" y="0px"
	 viewBox="0 0 329 239" style="enable-background:new 0 0 329 239;" xml:space="preserve">
<style type="text/css">
	.st0{fill:#FFFFFF;}
</style>
<path class="st0" d="M224.9,46.6L224.9,46.6C206,31.9,181,23.8,154.4,23.8c-23,0-45.5,6.3-63.4,17.7c-2,1.3-2.9,3.5-2.7,5.7
	c-0.6-0.3-1.2-0.5-1.9-0.6c-1.6-0.2-3.1,0.3-4.3,1.3C64,62.8,53.9,82.4,53.9,103.2c0,14.5,4.9,26.4,14.6,35.4
	c8.5,7.9,20.4,13.4,36.3,16.9c2,0.4,4-0.2,5.4-1.6c1.4-1.4,2-3.4,1.6-5.4L108,130c-0.2-1,0-2.1,0.7-2.9c0.7-0.8,1.6-1.3,2.7-1.3
	c0.9,0,1.8,0.4,2.4,1c0.6,0.6,1,1.5,1,2.4v73.6c0,3.3,2.6,5.9,5.9,5.9h67.4c3.3,0,5.9-2.6,5.9-5.9v-10.8c0-2.9-2.1-5.3-4.8-5.8
	c2.7-0.5,4.8-2.9,4.8-5.8v-51.2c0-1.9,1.5-3.4,3.4-3.4s3.4,1.5,3.4,3.4c0,0.2,0,0.5-0.1,0.7l-3.8,18.5c-0.4,2,0.2,4,1.6,5.4
	c1.4,1.4,3.5,2,5.4,1.6c15.9-3.5,27.8-9.1,36.3-16.9c9.7-9,14.6-20.9,14.6-35.4C254.9,81.7,244.3,61.6,224.9,46.6z M99.6,119.7
	c-0.5,0.6-0.9,1.2-1.3,1.8l-0.7-1.4c-0.9-1.8-0.8-3.8,0.2-5.5c1-1.7,2.8-2.7,4.8-2.7h6.5c1.9,0,3.6,0.9,4.6,2.3
	c-0.8-0.1-1.6-0.2-2.4-0.2C106.8,114.1,102.5,116.1,99.6,119.7z M182.3,192.1v4.9h-55.6v-79.4c0-9.6-7.8-17.4-17.4-17.4h-6.5
	c-6.1,0-11.7,3.1-14.9,8.3c-3.2,5.2-3.4,11.6-0.7,17l7.6,14.9c-19.5-7.1-29-19.3-29-37.2c0-17.1,8.5-33.5,23.9-46.1
	c1.2-1,2-2.4,2.1-4c0-0.4,0-0.9,0-1.3c1.8,0.8,3.9,0.8,5.7-0.4c15.9-10.2,36.2-15.8,57-15.8c48.9,0,88.7,30.3,88.7,67.5
	c0,17.8-9.5,30-29,37.2l7.6-14.9c2.8-5.4,2.5-11.8-0.7-17c-3.2-5.2-8.7-8.3-14.9-8.3h-6.5c-9.6,0-17.4,7.8-17.4,17.4v62.9
	c0,2.9,2.1,5.3,4.8,5.8C184.3,186.8,182.3,189.2,182.3,192.1z M199.7,111.9h6.5c2,0,3.8,1,4.8,2.7c1,1.7,1.1,3.7,0.2,5.5l-0.7,1.4
	c-2.7-4.4-7.5-7.4-13.1-7.4c-0.8,0-1.6,0.1-2.4,0.2C196.1,112.9,197.8,111.9,199.7,111.9z"/>
</svg>
