<?xml version="1.0" encoding="utf-8"?>
<!-- Generator: Adobe Illustrator 22.1.0, SVG Export Plug-In . SVG Version: 6.00 Build 0)  -->
<svg version="1.1" id="Warstwa_1" xmlns="http://www.w3.org/2000/svg" xmlns:xlink="http://www.w3.org/1999/xlink" x="0px" y="0px"
	 viewBox="0 0 329 239" style="enable-background:new 0 0 329 239;" xml:space="preserve">
<style type="text/css">
	.st0{fill:#FFFFFF;}
</style>
<g>
	<path class="st0" d="M160.9,145.3c4.3,0,7.8-3.5,7.8-7.8c0-4.3-3.5-7.8-7.8-7.8s-7.8,3.5-7.8,7.8
		C153.1,141.8,156.6,145.3,160.9,145.3z"/>
	<path class="st0" d="M140.6,129c2,0,3.7-1.7,3.7-3.7c0-2-1.7-3.7-3.7-3.7c-2,0-3.7,1.7-3.7,3.7C136.9,127.2,138.6,129,140.6,129z"
		/>
	<path class="st0" d="M181.3,137.1c2,0,3.7-1.7,3.7-3.7s-1.7-3.7-3.7-3.7c-2,0-3.7,1.7-3.7,3.7c0,1,0.3,1.9,1,2.6
		C179.3,136.6,180.3,137.1,181.3,137.1z"/>
	<path class="st0" d="M231.2,136.8h-16.8v-29.9l0.8-0.4c2.3-1.2,4.2-2.6,5.8-4.3L254.1,69c0.7-0.7,1.1-1.6,1.1-2.5
		c0-1-0.4-1.9-1-2.5l-29-29c-1.4-1.4-3.7-1.4-5.1,0l-10.4,10.5c-2.1,2.1-4.5,3.5-7.4,4.3l-0.3,0.1l-53.5,4.4
		c-1.5,0.1-7.2,1.9-11.8,6.4l-25,25h-14c-7.6,0-13.8,6.2-13.8,13.8v51c0,7.6,6.2,13.8,13.8,13.8h17.7l0.2,1.2
		c2.3,11.1,12.2,19.2,23.5,19.2h6.6v1.5c0,10.4,8.5,18.9,18.9,18.9h40.9c10.4,0,18.9-8.5,18.9-18.9v-1.5h6.6c13.2,0,24-10.8,24-24
		C255.2,147.5,244.4,136.8,231.2,136.8z M112.6,95.2l29.2-29.4c2.1-2.1,4.5-3.5,7.4-4.3l0.3-0.1l53.5-4.4c1.5-0.1,7.2-1.9,11.8-6.4
		l7.8-7.8l23.8,23.8l-30.6,30.6c-3.2,3.2-7.4,4.9-11.9,4.9h-39.1c-3.6,0-6.6-3-6.6-6.6s3-6.6,6.6-6.6h24.6c2,0,3.6-1.6,3.6-3.6
		c0-2-1.6-3.6-3.6-3.6h-39.1c-3.7,0-7.1,1.4-9.7,4.1L122,104.5c-1.3,1.3-2.9,1.9-4.7,1.9c-1.8,0-3.4-0.7-4.7-1.9
		c-1.3-1.3-1.9-2.9-1.9-4.7S111.4,96.4,112.6,95.2z M105.9,155.1l0.8,2h-8.9c-0.1,0-0.1,0-0.2,0c-1.6,0-3.2-0.6-4.4-1.8
		c-1.3-1.2-2-2.9-2-4.7v-51c0-3.6,3-6.6,6.6-6.6h7.3l-0.7,2c-1.8,5.1-0.5,10.6,3.2,14.3c5.4,5.4,14.2,5.4,19.6,0l18.6-18.7
		c1.3-1.3,2.9-1.9,4.7-1.9h2.2l-0.8,2c-0.5,1.4-0.8,3-0.8,4.6c0,7.6,6.2,13.8,13.8,13.8c15.5,0,39,0,40.5-0.1l1.7-0.3v41.8
		c0,3.6-3,6.6-6.6,6.6h-69.4l0.8-2c0.5-1.4,0.8-3,0.8-4.6c0-7.6-6.2-13.8-13.8-13.8s-13.8,6.2-13.8,13.8
		C105.1,152.2,105.4,153.7,105.9,155.1z M118.9,157.3c-3.6,0-6.6-3-6.6-6.6c0-3.6,3-6.6,6.6-6.6s6.6,3,6.6,6.6
		C125.5,154.3,122.5,157.3,118.9,157.3z M231.2,177.7h-11.1c-1.2,0-2.3,0.6-3,1.5c-0.7,1-0.8,2.1-0.4,3.2c0.5,1.3,0.7,2.6,0.7,3.9
		c0,6.5-5.2,11.7-11.7,11.7h-40.8c-6.5,0-11.7-5.2-11.7-11.7c0-1.4,0.2-2.6,0.7-3.9c0.4-1.1,0.2-2.3-0.4-3.2c-0.7-1-1.8-1.5-3-1.5
		h-11.1c-7.1,0-13.4-4.5-15.8-11.2l-0.7-2h77.8c7.6,0,13.8-6.2,13.8-13.8v-6.6h16.8c9.3,0,16.8,7.5,16.8,16.8
		C248,170.1,240.4,177.7,231.2,177.7z"/>
</g>
</svg>
