<?xml version="1.0" encoding="utf-8"?>
<!-- Generator: Adobe Illustrator 22.1.0, SVG Export Plug-In . SVG Version: 6.00 Build 0)  -->
<svg version="1.1" id="Warstwa_1" xmlns="http://www.w3.org/2000/svg" xmlns:xlink="http://www.w3.org/1999/xlink" x="0px" y="0px"
	 viewBox="0 0 329 239" style="enable-background:new 0 0 329 239;" xml:space="preserve">
<style type="text/css">
	.st0{fill:#FFFFFF;}
</style>
<path class="st0" d="M262.5,106.3c1.1-1.6,2-3.3,2.8-5.1c3.6-9.1,1.5-18.7-5.8-25.6c-11.8-11.3-27.8-17.6-45-17.6
	c-8.8,0-17.3,1.7-25.3,4.9c-8-3.3-16.5-4.9-25.3-4.9c-8.4,0-16.5,1.5-24.2,4.5c-7.7-3-15.8-4.5-24.2-4.5c-17.2,0-33.1,6.2-45,17.6
	c-7.3,7-9.5,16.6-5.8,25.6c0.7,1.8,1.7,3.5,2.8,5.1c-2.5,2.5-3.8,5.4-3.8,8.3c0,2.8,1.1,5.4,3.2,7.7c-1.4,1.5-2,3.5-1.8,5.6
	c0.2,2.2,1.4,4.1,3.3,5.4l0,0c2.1,1.4,5,2.5,8,2.9c3.2,0.5,6.5,0.3,9.5-0.4c2.2-0.5,3.9-0.7,5.1-0.4c1,0.2,1.7,0.8,2.4,1.9
	c0.7,1.1,1.6,2.1,2.7,3.1c0.1,0.1,0.1,0.1,0.2,0.2l0.3,0.3c0.2,0.2,0.4,0.4,0.7,0.6c0.5,0.4,1,0.7,1.4,1c1.9,1.3,4.1,2.1,6.4,2.5
	c4.6,0.8,9.3-0.6,12.9-3.7c0.8-0.7,1.7-1,2.6-0.9c1,0.1,1.9,0.6,2.5,1.5c2.9,3.8,7.3,6.1,11.9,6.4c4.6,0.3,9.2-1.4,12.5-4.8
	c0.7-0.7,1.6-1.1,2.6-1.1c1,0,1.9,0.5,2.6,1.3c3.1,3.6,7.6,5.6,12.2,5.6c0,0,0,0,0,0c4.6,0,9.1-2,12.2-5.6c0.7-0.8,1.6-1.2,2.6-1.3
	c1,0,1.9,0.3,2.6,1.1c3.3,3.4,7.9,5.1,12.5,4.8c4.6-0.3,8.9-2.7,11.9-6.4c0.7-0.9,1.5-1.4,2.5-1.5c1-0.1,1.9,0.2,2.6,0.9
	c3.6,3.1,8.3,4.5,12.9,3.7c2.3-0.4,4.4-1.2,6.3-2.5c0.5-0.3,0.9-0.7,1.4-1.1c0.2-0.2,0.4-0.4,0.7-0.6l0.3-0.3
	c0.1-0.1,0.1-0.1,0.2-0.2c1.1-1,2-2,2.7-3.1c0.7-1.1,1.4-1.7,2.4-1.9c1.2-0.3,2.9-0.2,5.1,0.4c3,0.8,6.3,0.9,9.5,0.4
	c1.8-0.3,3.6-0.8,5.2-1.4c1,1.2,1.6,2.8,1.6,4.4v4.5c0,3.8-3.1,7-7,7H76.6c-3.8,0-7-3.1-7-7v-2.6c0-1.7-1.3-3-3-3s-3,1.3-3,3v2.6
	c0,7.1,5.8,12.9,12.9,12.9h170.2c1.5,4.1,1,8.7-1.5,12.6c-3.2,5.2-9.1,8.3-15.7,8.3H100.3c-10.4,0-16.5-7-17.8-13.5
	c-0.3-1.6-1.9-2.7-3.5-2.4c-1.6,0.3-2.7,1.9-2.4,3.5c1,5,3.7,9.6,7.8,12.9c4.4,3.6,9.8,5.4,15.8,5.4h129.3c8.7,0,16.5-4.2,20.8-11.1
	c3-4.9,3.9-10.5,2.6-15.7h0.3c7.1,0,12.9-5.8,12.9-12.9v-4.5c0-2.9-1-5.7-2.7-7.9c0.7-1,1.2-2.2,1.3-3.4c0.2-2-0.4-4-1.8-5.6
	c2.1-2.3,3.2-5,3.2-7.7C266.3,111.7,265,108.8,262.5,106.3z M232.3,126.3c-13.6,0-23.8-4.1-27-8.7h34.4c7.2,0,13.9-2.5,18.8-6.9
	c1,1.1,1.8,2.4,1.8,3.9C260.3,120.2,248.8,126.3,232.3,126.3z M69.7,114.7c0-1.5,0.8-2.8,1.8-3.9c4.9,4.3,11.6,6.9,18.8,6.9h34.4
	c-3.2,4.5-13.4,8.7-27,8.7C81.2,126.3,69.7,120.2,69.7,114.7z M74.7,79.9C85.4,69.6,99.9,64,115.5,64c5.6,0,11,0.7,16.3,2.2
	c-4.7,2.6-9,5.8-12.9,9.4c-2.4,2.3-4.3,5-5.6,7.9c-0.7,1.5,0,3.3,1.5,3.9c0.4,0.2,0.8,0.3,1.2,0.3c1.1,0,2.2-0.7,2.7-1.8
	c1-2.2,2.4-4.2,4.3-6c5.1-4.9,11.1-8.7,17.8-11.5c0,0,0,0,0,0c7.3-3,15-4.5,23-4.5c6.1,0,12.1,0.9,17.8,2.6c-4.4,2.5-8.5,5.5-12.1,9
	c-1.8,1.7-3.4,4.2-4.8,7.6c-0.6,1.5,0.1,3.3,1.6,3.9c0.4,0.2,0.8,0.2,1.2,0.2c1.2,0,2.3-0.7,2.8-1.8c1.1-2.5,2.3-4.5,3.4-5.6
	c4.8-4.6,10.4-8.3,16.7-11c0,0,0,0,0,0c7.6-3.3,15.7-4.9,24.1-4.9c15.6,0,30.1,5.7,40.8,15.9c5.5,5.2,7.1,12.4,4.4,19.1
	c-3.1,7.7-11,12.7-20,12.7H90.3c-9.1,0-16.9-5-20-12.7C67.6,92.3,69.2,85.1,74.7,79.9z M192,117.6c-3.2,4.5-13.4,8.7-27,8.7
	c-13.6,0-23.8-4.1-27-8.7L192,117.6L192,117.6z M77.3,130.3c-2.2-0.3-4.1-1-5.6-2l-0.1,0c-0.4-0.3-0.6-0.6-0.7-1c0-0.3,0-0.6,0.4-1
	l0,0c0,0,0.1-0.1,0.1-0.1c0.9,0.5,1.9,1.1,2.9,1.6c2.3,1.1,4.9,2,7.7,2.7C80.6,130.6,78.9,130.6,77.3,130.3z M231.5,134.1
	c-0.4,0.6-0.9,1.2-1.6,1.8c0,0,0,0,0,0l-0.1,0.1c-0.1,0.1-0.2,0.2-0.3,0.3l-0.2,0.2c-0.1,0.1-0.3,0.3-0.4,0.4
	c-0.3,0.3-0.6,0.5-0.9,0.7c-1.2,0.8-2.6,1.3-4,1.6c-2.9,0.5-5.8-0.4-8-2.3c-2-1.8-4.6-2.6-7.2-2.3c-2.6,0.3-4.9,1.6-6.6,3.8
	c-1.9,2.5-4.6,3.9-7.5,4.1c-2.9,0.2-5.7-0.9-7.9-3c-1.9-1.9-4.4-2.9-7-2.8c-2.6,0.1-5,1.3-6.8,3.3c-2,2.3-4.8,3.6-7.7,3.6
	c0,0,0,0,0,0c-2.9,0-5.7-1.3-7.7-3.6c-1.8-2-4.2-3.2-6.8-3.3c-2.6-0.1-5.1,0.9-7,2.8c-2.1,2.2-4.9,3.2-7.9,3c-3-0.2-5.6-1.7-7.6-4.1
	c-1.7-2.1-4-3.5-6.6-3.8c-2.6-0.3-5.2,0.5-7.2,2.3c-2.3,2-5.1,2.8-8,2.3c-1.4-0.2-2.8-0.8-4-1.6c-0.3-0.2-0.6-0.4-0.9-0.7
	c-0.1-0.1-0.3-0.3-0.4-0.4l-0.3-0.3c-0.1-0.1-0.2-0.2-0.3-0.3l-0.1-0.1c0,0,0,0,0,0c-0.7-0.6-1.2-1.2-1.6-1.8
	c-0.4-0.7-0.9-1.3-1.5-1.8c0.2,0,0.5,0,0.7,0c8.7,0,17-1.6,23.2-4.6c5.6-2.6,9.2-6.1,10.4-10.1h0.1c1.2,3.9,4.8,7.4,10.4,10.1
	c6.3,2.9,14.5,4.6,23.2,4.6c8.7,0,17-1.6,23.2-4.6c5.6-2.6,9.2-6.1,10.4-10.1h0.1c1.2,3.9,4.8,7.4,10.4,10.1
	c6.3,2.9,14.5,4.6,23.2,4.6c0.2,0,0.5,0,0.7,0C232.4,132.8,232,133.4,231.5,134.1z M252.7,130.4c-1.6,0.2-3.3,0.3-4.9,0.1
	c2.8-0.7,5.4-1.6,7.7-2.7c1.1-0.5,2-1,2.9-1.6c0,0,0.1,0.1,0.1,0.1c0.4,0.4,0.4,0.8,0.4,1c0,0.4-0.3,0.8-0.7,1.1
	c-0.2,0.1-0.3,0.2-0.5,0.3c0,0,0,0,0,0C256.4,129.5,254.6,130.1,252.7,130.4z"/>
</svg>
