<?xml version="1.0" encoding="utf-8"?>
<!-- Generator: Adobe Illustrator 22.1.0, SVG Export Plug-In . SVG Version: 6.00 Build 0)  -->
<svg version="1.1" id="Warstwa_1" xmlns="http://www.w3.org/2000/svg" xmlns:xlink="http://www.w3.org/1999/xlink" x="0px" y="0px"
	 viewBox="0 0 329 239" style="enable-background:new 0 0 329 239;" xml:space="preserve">
<style type="text/css">
	.st0{fill:#FFFFFF;}
</style>
<path class="st0" d="M233.7,91l-22.7-31.2V37.7c0-7.1-5.8-12.9-12.9-12.9h-64.5c-7.1,0-12.9,5.8-12.9,12.9v22.1L98.1,91
	c-0.5,0.7-0.8,1.6-0.8,2.4v85.7c0,2.3,1.9,4.1,4.1,4.1c2.3,0,4.1-1.9,4.1-4.1V97.6h73.8v109h-73.8v-14.9c0-2.3-1.9-4.1-4.1-4.1
	c-2.3,0-4.1,1.9-4.1,4.1v19c0,2.3,1.9,4.1,4.1,4.1h129c2.3,0,4.1-1.9,4.1-4.1V93.4C234.5,92.6,234.2,91.7,233.7,91z M198.8,65.3
	l-17.4,24h-71.8l17.4-24H198.8z M187.6,206.5V94.8l19.3-26.5l19.3,26.5v111.8H187.6z M129,57.1V37.7c0-2.6,2.1-4.7,4.7-4.7h64.5
	c2.6,0,4.7,2.1,4.7,4.7v19.3H129z"/>
</svg>
