<?xml version="1.0" encoding="utf-8"?>
<!-- Generator: Adobe Illustrator 22.1.0, SVG Export Plug-In . SVG Version: 6.00 Build 0)  -->
<svg version="1.1" id="Warstwa_1" xmlns="http://www.w3.org/2000/svg" xmlns:xlink="http://www.w3.org/1999/xlink" x="0px" y="0px"
	 viewBox="0 0 329 239" style="enable-background:new 0 0 329 239;" xml:space="preserve">
<style type="text/css">
	.st0{fill:#FFFFFF;}
</style>
<g>
	<path class="st0" d="M232.4,37.6c-1.2-0.8-2.7-0.8-4-0.2l-14.7,7.4l-15.7-7.4c-1.2-0.6-2.5-0.5-3.7,0.1l-13.6,7.2l-14.6-7.3
		c-1.2-0.6-2.5-0.6-3.7,0l-14.7,7.3l-14.7-7.3c-1.2-0.6-2.5-0.6-3.7,0l-14.7,7.3l-14.7-7.3c-1.3-0.6-2.8-0.6-4,0.2
		c-1.2,0.8-2,2.1-2,3.5v156.7c0,1.4,0.7,2.8,2,3.5c1.2,0.8,2.7,0.8,4,0.2l14.7-7.3l14.7,7.3c1.2,0.6,2.5,0.6,3.7,0l14.7-7.3
		l14.7,7.3c1.2,0.6,2.5,0.6,3.7,0l14.6-7.3l13.6,7.2c1.1,0.6,2.5,0.6,3.7,0.1l15.7-7.4l14.7,7.4c1.3,0.6,2.8,0.6,4-0.2
		c1.2-0.8,2-2.1,2-3.5V41.1C234.3,39.7,233.6,38.4,232.4,37.6L232.4,37.6z M226.1,191.2l-10.5-5.3c-1.1-0.6-2.5-0.6-3.6,0l-15.7,7.4
		l-13.6-7.3c-1.2-0.6-2.6-0.6-3.8-0.1l-14.7,7.3l-14.7-7.3c-1.2-0.6-2.5-0.6-3.7,0l-14.7,7.3l-14.7-7.3c-1.2-0.6-2.5-0.6-3.7,0
		l-10.5,5.3V47.8l10.5,5.3c1.2,0.6,2.5,0.6,3.7,0l14.7-7.3l14.7,7.3c1.2,0.6,2.5,0.6,3.7,0l14.7-7.3l14.7,7.3c1.2,0.6,2.6,0.6,3.8,0
		l13.6-7.3l15.7,7.4c1.1,0.5,2.5,0.5,3.6,0l10.5-5.3V191.2z M226.1,191.2"/>
	<path class="st0" d="M205.5,70H123c-2.3,0-4.1,1.8-4.1,4.1c0,2.3,1.8,4.1,4.1,4.1h82.5c2.3,0,4.1-1.8,4.1-4.1
		C209.6,71.8,207.7,70,205.5,70L205.5,70z M205.5,70"/>
	<path class="st0" d="M205.5,86.5H123c-2.3,0-4.1,1.8-4.1,4.1c0,2.3,1.8,4.1,4.1,4.1h82.5c2.3,0,4.1-1.8,4.1-4.1
		C209.6,88.3,207.7,86.5,205.5,86.5L205.5,86.5z M205.5,86.5"/>
	<path class="st0" d="M139.5,152.5H123c-2.3,0-4.1,1.8-4.1,4.1c0,2.3,1.8,4.1,4.1,4.1h16.5c2.3,0,4.1-1.8,4.1-4.1
		C143.6,154.3,141.7,152.5,139.5,152.5L139.5,152.5z M139.5,152.5"/>
</g>
</svg>
