<?xml version="1.0" encoding="utf-8"?>
<!-- Generator: Adobe Illustrator 22.1.0, SVG Export Plug-In . SVG Version: 6.00 Build 0)  -->
<svg version="1.1" id="Warstwa_1" xmlns="http://www.w3.org/2000/svg" xmlns:xlink="http://www.w3.org/1999/xlink" x="0px" y="0px"
	 viewBox="0 0 329 239" style="enable-background:new 0 0 329 239;" xml:space="preserve">
<style type="text/css">
	.st0{fill:#FFFFFF;}
</style>
<g>
	<path class="st0" d="M257.9,58.7L257.9,58.7l-92-34.9c-1.1-0.4-2.3-0.4-3.3,0l-92,34.9c-1.8,0.7-3,2.4-3,4.4v114.2
		c0,1.9,1.2,3.7,3,4.4l92,35.3c0.5,0.2,1.1,0.3,1.7,0.3s1.1-0.1,1.7-0.3l92-35c1.8-0.7,3-2.4,3-4.4V63.1
		C260.9,61.1,259.7,59.4,257.9,58.7z M105.5,134.8l22.2,8.5c1.4,0.5,3.1,0.4,4.3-0.5c1.3-0.9,2-2.3,2-3.8V91.5l25.6,9.7v104.6
		l-82.7-31.8V69.8l25.6,9.7v50.9C102.4,132.4,103.7,134.1,105.5,134.8z M111.8,127.2V83.1l12.9,4.9v44.2L111.8,127.2z M164.2,67.1
		L130.1,80l-10.5-4l34.1-12.9L164.2,67.1z M179,71.5c1.8-0.7,3-2.4,3-4.4c0-1.9-1.2-3.7-3-4.4l-23.7-9c-1.1-0.4-2.2-0.4-3.3,0
		L106.4,71l-21-8l78.8-29.9l78.8,29.9L164.2,93l-21-8L179,71.5z M251.6,69.8v104.5l-82.7,31.5V101.2L251.6,69.8z"/>
	<path class="st0" d="M202.1,176.7c-1.3-1.1-3.1-1.3-4.6-0.7l-19.1,7.3c-2.1,0.8-3.3,3-2.9,5.2c0.4,2.2,2.3,3.8,4.6,3.8c0,0,0,0,0,0
		c0.6,0,1.1-0.1,1.7-0.3l19.1-7.3c1.6-0.6,2.7-2,3-3.6C204.1,179.4,203.4,177.7,202.1,176.7z"/>
	<path class="st0" d="M211.8,180.2c0.6,0,1.1-0.1,1.7-0.3l6.4-2.4c1.6-0.6,2.7-2,3-3.6c0.3-1.7-0.4-3.4-1.7-4.4
		c-1.3-1.1-3.1-1.3-4.6-0.7l-6.4,2.4c-2.1,0.8-3.3,3-2.9,5.2C207.6,178.6,209.5,180.2,211.8,180.2z"/>
	<path class="st0" d="M180,179.6C180,179.6,180,179.6,180,179.6c0.6,0,1.1-0.1,1.7-0.3l19.1-7.3c1.6-0.6,2.7-2,3-3.6
		c0.3-1.7-0.4-3.4-1.7-4.4c-1.3-1.1-3.1-1.3-4.6-0.7l-19.1,7.3c-2.1,0.8-3.3,3-2.9,5.2C175.9,178,177.8,179.6,180,179.6z"/>
	<path class="st0" d="M211.8,167.5c0.6,0,1.1-0.1,1.7-0.3l6.4-2.4c1.6-0.6,2.7-2,3-3.6c0.3-1.7-0.4-3.4-1.7-4.4
		c-1.3-1.1-3.1-1.3-4.6-0.7l-6.4,2.4c-2.1,0.8-3.3,3-2.9,5.2C207.6,165.9,209.5,167.5,211.8,167.5z"/>
	<path class="st0" d="M180,166.9C180,166.9,180,166.9,180,166.9c0.6,0,1.1-0.1,1.7-0.3l19.1-7.3c1.6-0.6,2.7-2,3-3.6
		c0.3-1.7-0.4-3.4-1.7-4.4c-1.3-1.1-3.1-1.3-4.6-0.7l-19.1,7.3c-2.1,0.8-3.3,3-2.9,5.2C175.9,165.3,177.8,166.9,180,166.9z"/>
	<path class="st0" d="M211.8,154.8c0.6,0,1.1-0.1,1.7-0.3l6.4-2.4c1.6-0.6,2.7-2,3-3.6c0.3-1.7-0.4-3.4-1.7-4.4
		c-1.3-1.1-3.1-1.3-4.6-0.7l-6.4,2.4c-2.1,0.8-3.3,3-2.9,5.2C207.6,153.2,209.5,154.8,211.8,154.8z"/>
</g>
</svg>
