<?xml version="1.0" encoding="utf-8"?>
<!-- Generator: Adobe Illustrator 22.1.0, SVG Export Plug-In . SVG Version: 6.00 Build 0)  -->
<svg version="1.1" id="Warstwa_1" xmlns="http://www.w3.org/2000/svg" xmlns:xlink="http://www.w3.org/1999/xlink" x="0px" y="0px"
	 viewBox="0 0 329 239" style="enable-background:new 0 0 329 239;" xml:space="preserve">
<style type="text/css">
	.st0{fill:#FFFFFF;}
</style>
<g>
	<path class="st0" d="M264,42.2l-18.7-6.6c-1.5-0.5-3.2,0.3-3.8,1.8c-0.5,1.5,0.3,3.2,1.8,3.8l16.7,5.9v144.4l-59.7-20.6V26l31.1,11
		c1.5,0.5,3.2-0.3,3.8-1.8c0.5-1.5-0.3-3.2-1.8-3.8L198.3,19c-0.3-0.1-0.7-0.2-1-0.2c-0.5,0-1.1,0.2-1.6,0.5l-64.6,40.9L66.8,42.1
		c-0.9-0.3-1.9-0.1-2.6,0.5C63.4,43.2,63,44,63,45v150.7c0,1.3,0.8,2.4,2,2.8l12.2,4.3c0.3,0.1,0.7,0.2,1,0.2c1.2,0,2.4-0.8,2.8-2
		c0.5-1.5-0.3-3.2-1.8-3.8l-10.3-3.6V48.9l59.7,16.8v149l-37.5-13.2c-1.5-0.5-3.2,0.3-3.8,1.8c-0.5,1.5,0.3,3.2,1.8,3.8l41.5,14.6
		c0.3,0.1,0.7,0.2,1,0.2h0c0.6,0,1.2-0.2,1.7-0.5l64.4-45l64.3,22.2c0.9,0.3,1.9,0.2,2.7-0.4c0.8-0.6,1.2-1.5,1.2-2.4V45
		C266,43.7,265.2,42.6,264,42.2L264,42.2z M134.6,65l59.7-37.9v144.2l-59.7,41.7V65z M134.6,65"/>
	<path class="st0" d="M119.8,205c0.6,0,1.2-0.2,1.7-0.5c0.8-0.6,1.3-1.5,1.3-2.4V72.4c0-1.3-0.9-2.5-2.2-2.9L78.7,57.8
		c-0.9-0.3-1.9-0.1-2.6,0.5c-0.7,0.6-1.2,1.4-1.2,2.4v126.6c0,1.3,0.8,2.4,2,2.8l41.9,14.8C119.1,204.9,119.4,205,119.8,205
		L119.8,205z M116.8,74.7v36.6l-35.9-10.1V64.6L116.8,74.7z M116.8,197.8l-35.9-12.7v-77.8l35.9,10.1V197.8z M116.8,197.8"/>
	<path class="st0" d="M207.5,36.2c-0.8,0.6-1.3,1.5-1.3,2.4v125.9c0,1.3,0.8,2.4,2,2.8l41.9,14.5c0.3,0.1,0.6,0.2,1,0.2
		c0.6,0,1.2-0.2,1.7-0.6c0.8-0.6,1.2-1.5,1.2-2.4V53.4c0-1.3-0.8-2.4-2-2.8l-41.9-14.8C209.3,35.5,208.3,35.6,207.5,36.2L207.5,36.2
		z M248.2,174.8l-35.9-12.4v-48.8l35.9,12.7V174.8z M248.2,55.5v64.4l-35.9-12.7V42.8L248.2,55.5z M248.2,55.5"/>
	<path class="st0" d="M218.3,130.6l22.4,7.9c0.3,0.1,0.7,0.2,1,0.2c1.2,0,2.4-0.8,2.8-2c0.5-1.5-0.3-3.2-1.8-3.8l-22.4-7.9
		c-1.5-0.5-3.2,0.3-3.8,1.8C215.9,128.4,216.7,130.1,218.3,130.6L218.3,130.6z M218.3,130.6"/>
	<path class="st0" d="M218.3,142.8l22.4,7.9c0.3,0.1,0.7,0.2,1,0.2c1.2,0,2.4-0.8,2.8-2c0.5-1.5-0.3-3.2-1.8-3.8l-22.4-7.9
		c-1.5-0.5-3.2,0.3-3.8,1.8C215.9,140.5,216.7,142.2,218.3,142.8L218.3,142.8z M218.3,142.8"/>
	<path class="st0" d="M218.3,154.9l22.4,7.9c0.3,0.1,0.7,0.2,1,0.2c1.2,0,2.4-0.8,2.8-2c0.5-1.5-0.3-3.2-1.8-3.8l-22.4-7.9
		c-1.5-0.5-3.2,0.3-3.8,1.8C215.9,152.7,216.7,154.4,218.3,154.9L218.3,154.9z M218.3,154.9"/>
	<path class="st0" d="M186.9,40.8c-1-0.5-2.1-0.5-3,0.1L142,67.4c-0.9,0.5-1.4,1.5-1.4,2.5v12.3c0,1.6,1.3,3,3,3c1.6,0,3-1.3,3-3
		V71.6l35.9-22.8v116.4l-35.9,25.1V94.9c0-1.6-1.3-3-3-3c-1.6,0-3,1.3-3,3V196c0,1.1,0.6,2.1,1.6,2.6c0.4,0.2,0.9,0.3,1.4,0.3
		c0.6,0,1.2-0.2,1.7-0.5l41.9-29.3c0.8-0.6,1.3-1.5,1.3-2.4V43.4C188.4,42.3,187.8,41.3,186.9,40.8L186.9,40.8z M186.9,40.8"/>
</g>
</svg>
