<?xml version="1.0" encoding="utf-8"?>
<!-- Generator: Adobe Illustrator 22.1.0, SVG Export Plug-In . SVG Version: 6.00 Build 0)  -->
<svg version="1.1" id="Warstwa_1" xmlns="http://www.w3.org/2000/svg" xmlns:xlink="http://www.w3.org/1999/xlink" x="0px" y="0px"
	 viewBox="0 0 329 239" style="enable-background:new 0 0 329 239;" xml:space="preserve">
<style type="text/css">
	.st0{fill:#FFFFFF;}
</style>
<g>
	<path class="st0" d="M119.6,190.1c-1,0-2,0.4-2.7,1.1c-0.7,0.7-1.1,1.7-1.1,2.7s0.4,2,1.1,2.7c0.7,0.7,1.7,1.1,2.7,1.1
		c1,0,2-0.4,2.7-1.1c0.7-0.7,1.1-1.7,1.1-2.7s-0.4-2-1.1-2.7C121.6,190.6,120.7,190.1,119.6,190.1L119.6,190.1z M119.6,190.1"/>
	<path class="st0" d="M243,43H85.6h0h-0.5C74.6,43,66,51.6,66,62.2v116.5c0,10.6,8.6,19.2,19.2,19.2h16.5c2.1,0,3.8-1.7,3.8-3.8
		c0-2.1-1.7-3.8-3.8-3.8H85.2c-6.3,0-11.5-5.2-11.5-11.5V62.2c0-6,4.6-10.9,10.4-11.4l24.5,24.5c0.7,0.7,1.7,1.1,2.7,1.1h35.5
		c2.1,0,3.8-1.7,3.8-3.8c0-2.1-1.7-3.8-3.8-3.8h-34l-18-18h138.4l-18,18h-33.6c-2.1,0-3.8,1.7-3.8,3.8c0,2.1,1.7,3.8,3.8,3.8h35.2
		c1,0,2-0.4,2.7-1.1l24.5-24.5c5.8,0.5,10.4,5.5,10.4,11.4v116.5c0,6.3-5.2,11.5-11.5,11.5H136.4c-2.1,0-3.8,1.7-3.8,3.8
		c0,2.1,1.7,3.8,3.8,3.8H243c10.6,0,19.2-8.6,19.2-19.2V62.2C262.2,51.6,253.6,43,243,43L243,43z M243,43"/>
	<path class="st0" d="M166.8,75.2c0.7-0.7,1.1-1.7,1.1-2.7c0-1-0.4-2-1.1-2.7c-0.7-0.7-1.7-1.1-2.7-1.1c-1,0-2,0.4-2.7,1.1
		c-0.7,0.7-1.1,1.7-1.1,2.7c0,1,0.4,2,1.1,2.7c0.7,0.7,1.7,1.1,2.7,1.1C165.1,76.3,166.1,75.9,166.8,75.2L166.8,75.2z M166.8,75.2"
		/>
	<path class="st0" d="M88.3,62.4c-0.7-0.7-1.7-1.1-2.7-1.1c-1,0-2,0.4-2.7,1.1c-0.7,0.7-1.1,1.7-1.1,2.7c0,1,0.4,2,1.1,2.7
		c0.7,0.7,1.7,1.1,2.7,1.1c1,0,2-0.4,2.7-1.1c0.7-0.7,1.1-1.7,1.1-2.7C89.4,64.1,89,63.1,88.3,62.4L88.3,62.4z M88.3,62.4"/>
	<path class="st0" d="M242.6,68.9c1,0,2-0.4,2.7-1.1c0.7-0.7,1.1-1.7,1.1-2.7c0-1-0.4-2-1.1-2.7c-0.7-0.7-1.7-1.1-2.7-1.1
		c-1,0-2,0.4-2.7,1.1c-0.7,0.7-1.1,1.7-1.1,2.7c0,1,0.4,2,1.1,2.7C240.6,68.5,241.6,68.9,242.6,68.9L242.6,68.9z M242.6,68.9"/>
	<path class="st0" d="M85.6,171.9c-1,0-2,0.4-2.7,1.1c-0.7,0.7-1.1,1.7-1.1,2.7c0,1,0.4,2,1.1,2.7c0.7,0.7,1.7,1.1,2.7,1.1
		c1,0,2-0.4,2.7-1.1c0.7-0.7,1.1-1.7,1.1-2.7c0-1-0.4-2-1.1-2.7C87.5,172.3,86.6,171.9,85.6,171.9L85.6,171.9z M85.6,171.9"/>
	<path class="st0" d="M239.9,178.4c0.7,0.7,1.7,1.1,2.7,1.1c1,0,2-0.4,2.7-1.1c0.7-0.7,1.1-1.7,1.1-2.7c0-1-0.4-2-1.1-2.7
		c-0.7-0.7-1.7-1.1-2.7-1.1c-1,0-2,0.4-2.7,1.1c-0.7,0.7-1.1,1.7-1.1,2.7C238.8,176.7,239.2,177.7,239.9,178.4L239.9,178.4z
		 M239.9,178.4"/>
	<path class="st0" d="M92.8,127.4c0,14.8,12,26.8,26.8,26.8h88.9c14.8,0,26.8-12,26.8-26.8c0-14.8-12-26.8-26.8-26.8h-88.9
		C104.9,100.5,92.8,112.6,92.8,127.4L92.8,127.4z M227.7,127.4c0,10.6-8.6,19.2-19.2,19.2h-88.9c-10.6,0-19.2-8.6-19.2-19.2
		c0-10.6,8.6-19.2,19.2-19.2h88.9C219.1,108.2,227.7,116.8,227.7,127.4L227.7,127.4z M227.7,127.4"/>
	<path class="st0" d="M108.2,127.4c0,6.3,5.2,11.5,11.5,11.5c6.3,0,11.5-5.2,11.5-11.5c0-6.3-5.2-11.5-11.5-11.5
		C113.3,115.9,108.2,121,108.2,127.4L108.2,127.4z M123.5,127.4c0,2.1-1.7,3.8-3.8,3.8s-3.8-1.7-3.8-3.8c0-2.1,1.7-3.8,3.8-3.8
		S123.5,125.2,123.5,127.4L123.5,127.4z M123.5,127.4"/>
	<path class="st0" d="M208.5,138.8c6.3,0,11.5-5.2,11.5-11.5c0-6.3-5.2-11.5-11.5-11.5c-6.3,0-11.5,5.2-11.5,11.5
		C197.1,133.7,202.2,138.8,208.5,138.8L208.5,138.8z M208.5,123.5c2.1,0,3.8,1.7,3.8,3.8c0,2.1-1.7,3.8-3.8,3.8
		c-2.1,0-3.8-1.7-3.8-3.8C204.7,125.2,206.4,123.5,208.5,123.5L208.5,123.5z M208.5,123.5"/>
	<path class="st0" d="M143.2,131.2H185c2.1,0,3.8-1.7,3.8-3.8c0-2.1-1.7-3.8-3.8-3.8h-41.8c-2.1,0-3.8,1.7-3.8,3.8
		C139.4,129.5,141.1,131.2,143.2,131.2L143.2,131.2z M143.2,131.2"/>
	<path class="st0" d="M217,175.7c0-2.1-1.7-3.8-3.8-3.8H115c-2.1,0-3.8,1.7-3.8,3.8c0,2.1,1.7,3.8,3.8,3.8h98.1
		C215.3,179.5,217,177.8,217,175.7L217,175.7z M217,175.7"/>
</g>
</svg>
