<?xml version="1.0" encoding="utf-8"?>
<!-- Generator: Adobe Illustrator 22.1.0, SVG Export Plug-In . SVG Version: 6.00 Build 0)  -->
<svg version="1.1" id="Warstwa_1" xmlns="http://www.w3.org/2000/svg" xmlns:xlink="http://www.w3.org/1999/xlink" x="0px" y="0px"
	 viewBox="0 0 329 239" style="enable-background:new 0 0 329 239;" xml:space="preserve">
<style type="text/css">
	.st0{fill:#FFFFFF;}
</style>
<g>
	<path class="st0" d="M214.8,83c-8,0-15.9,1.3-23.4,3.7c-1.8-20.1-8.3-37.1-19.1-49.5c-9.1-10.5-21-17.4-35-20.4
		c-3-8-9.6-13.1-16.9-13.1c-7.4,0-13.9,5.1-16.9,13.1c-15.1,3.2-27.7,11-37,22.8C55,54.3,48.9,74.4,48.9,97.9
		c0,23.5,6.1,43.6,17.5,58.2c12.6,16.1,31.3,24.6,53.9,24.6c7.7,0,15-1,21.7-2.9c8.6,32.1,37.9,55.7,72.7,55.7
		c41.5,0,75.2-33.8,75.2-75.2C290,116.8,256.2,83,214.8,83L214.8,83z M120.4,10.8c3.2,0,6.1,1.7,8.3,4.7c-2.7-0.3-5.5-0.4-8.3-0.4
		c-2.8,0-5.6,0.1-8.3,0.4C114.3,12.6,117.2,10.8,120.4,10.8L120.4,10.8z M214.8,226.4c-37.6,0-68.2-30.6-68.2-68.2
		c0-19.6,8.5-38.3,23.2-51.3c1.5-1.3,1.6-3.5,0.3-5c-1.3-1.5-3.5-1.6-5-0.3c-16.3,14.3-25.6,34.9-25.6,56.6c0,4.3,0.4,8.5,1.1,12.6
		c-6.2,1.8-13,2.8-20.2,2.8c-20.4,0-37.2-7.6-48.4-21.9c-10.5-13.4-16-32-16-53.9C56,76,61.5,57.4,72,44
		c11.2-14.3,28-21.9,48.4-21.9c19.6,0,35.3,6.6,46.6,19.7c10.1,11.7,16.2,28.1,17.5,47.5c-1.9,0.8-3.8,1.7-5.6,2.7
		c-1.7,0.9-2.3,3.1-1.4,4.8c0.9,1.7,3.1,2.3,4.8,1.4c9.9-5.4,21.1-8.2,32.5-8.2c37.6,0,68.2,30.6,68.2,68.2
		C282.9,195.9,252.3,226.4,214.8,226.4L214.8,226.4z M214.8,226.4"/>
	<path class="st0" d="M256.3,154.7h-19.4c-0.1-0.6-0.2-1.1-0.3-1.7l9.8-4c1.8-0.7,2.7-2.8,1.9-4.6c-0.7-1.8-2.8-2.7-4.6-1.9l-9.8,4
		c-0.3-0.5-0.6-1-0.9-1.4l13.7-13.7c1.4-1.4,1.4-3.6,0-5c-1.4-1.4-3.6-1.4-5,0l-13.7,13.7c-0.5-0.3-0.9-0.7-1.4-0.9l4-9.8
		c0.7-1.8-0.1-3.9-1.9-4.6c-1.8-0.7-3.9,0.1-4.6,1.9l-4,9.8c-0.5-0.1-1.1-0.2-1.7-0.3v-19.4c0-2-1.6-3.5-3.5-3.5
		c-2,0-3.5,1.6-3.5,3.5v19.4c-0.6,0.1-1.1,0.2-1.7,0.3l-4-9.8c-0.7-1.8-2.8-2.7-4.6-1.9c-1.8,0.7-2.7,2.8-1.9,4.6l4,9.8
		c-0.5,0.3-1,0.6-1.4,0.9l-13.7-13.7c-1.4-1.4-3.6-1.4-5,0c-1.4,1.4-1.4,3.6,0,5l13.7,13.7c-0.3,0.5-0.7,0.9-0.9,1.4l-9.8-4
		c-1.8-0.7-3.9,0.1-4.6,1.9c-0.7,1.8,0.1,3.9,1.9,4.6l9.8,4c-0.1,0.5-0.2,1.1-0.3,1.7h-19.4c-1.9,0-3.5,1.6-3.5,3.5
		c0,1.9,1.6,3.5,3.5,3.5h19.4c0.1,0.6,0.2,1.1,0.3,1.7l-9.8,4c-1.8,0.7-2.7,2.8-1.9,4.6c0.6,1.4,1.9,2.2,3.3,2.2
		c0.5,0,0.9-0.1,1.4-0.3l9.8-4c0.3,0.5,0.6,1,0.9,1.4l-13.7,13.7c-1.4,1.4-1.4,3.6,0,5c0.7,0.7,1.6,1,2.5,1c0.9,0,1.8-0.3,2.5-1
		l13.7-13.7c0.5,0.3,0.9,0.6,1.4,0.9l-4,9.8c-0.7,1.8,0.1,3.9,1.9,4.6c0.4,0.2,0.9,0.3,1.3,0.3c1.4,0,2.7-0.8,3.3-2.2l4-9.8
		c0.5,0.1,1.1,0.2,1.7,0.3v19.4c0,1.9,1.6,3.5,3.5,3.5c2,0,3.5-1.6,3.5-3.5v-19.4c0.6-0.1,1.1-0.2,1.7-0.3l4,9.8
		c0.6,1.4,1.9,2.2,3.3,2.2c0.5,0,0.9-0.1,1.3-0.3c1.8-0.7,2.7-2.8,1.9-4.6l-4-9.8c0.5-0.3,1-0.6,1.4-0.9l13.7,13.7
		c0.7,0.7,1.6,1,2.5,1c0.9,0,1.8-0.3,2.5-1c1.4-1.4,1.4-3.6,0-5l-13.7-13.7c0.3-0.5,0.7-0.9,0.9-1.4l9.8,4c0.4,0.2,0.9,0.3,1.3,0.3
		c1.4,0,2.7-0.8,3.3-2.2c0.7-1.8-0.1-3.9-1.9-4.6l-9.8-4c0.1-0.5,0.2-1.1,0.3-1.7h19.4c1.9,0,3.5-1.6,3.5-3.5
		C259.8,156.3,258.2,154.7,256.3,154.7L256.3,154.7z M214.8,173.6c-8.5,0-15.3-6.9-15.3-15.3c0-8.5,6.9-15.3,15.3-15.3
		c8.5,0,15.3,6.9,15.3,15.3C230.1,166.7,223.2,173.6,214.8,173.6L214.8,173.6z M214.8,173.6"/>
</g>
</svg>
