<?xml version="1.0" encoding="utf-8"?>
<!-- Generator: Adobe Illustrator 22.1.0, SVG Export Plug-In . SVG Version: 6.00 Build 0)  -->
<svg version="1.1" id="Warstwa_1" xmlns="http://www.w3.org/2000/svg" xmlns:xlink="http://www.w3.org/1999/xlink" x="0px" y="0px"
	 viewBox="0 0 329 239" style="enable-background:new 0 0 329 239;" xml:space="preserve">
<style type="text/css">
	.st0{fill:#FFFFFF;}
</style>
<g>
	<path class="st0" d="M90.8,153.8L90.8,153.8c0,0.2,0,0.4,0,0.5l0,0.4c-0.2,8.1,0.3,14.7,1.6,20.8c0.8,3.6,4.8,15,10.2,17.7
		c0,0,0.1,0,0.1,0.1l0.1,0.1c2.3,1,4.7,0.8,6.7-0.5c6.7-4.4,7.5-21.6,7.6-26.8c0-1,0.8-1.8,1.8-1.9c1,0,1.9,0.9,1.9,1.9
		c0.1,5.2,0.9,22.4,7.6,26.8c1.2,0.8,2.4,1.1,3.8,1.1c0,0,0,0,0,0c1,0,2-0.2,2.9-0.6c0.1-0.1,0.3-0.1,0.4-0.2c3.8-2.2,5.7-5.4,7-8
		c1.9-3.8,3.1-8,3.8-12.8c0.6-4.2,1.1-16.1,1.1-17.9c0-0.9,0.2-1.6,0.6-2.4l0.5-0.8c0.3-0.5,0.6-1,1-1.5c3.8-4.9,5.5-10.6,5.4-17.2
		v0c-0.1-4.2-1-7.5-2.9-10.4c-3.6-5.8-11.2-9.1-18.7-8.4c-3,0.3-5.8,1-8.5,2.1c-3.8,1.6-7.3,1.7-10.9,0.1
		c-5.2-2.2-10.4-2.9-15.4-1.9c-7.9,1.6-13.4,6.8-14.7,13.9c-1.5,8,0.1,15.3,4.7,21.6C89.5,150.9,90.1,152.4,90.8,153.8z
		 M111.4,122.1c5.2,2.3,10.6,2.2,16.1-0.1c2-0.9,4.2-1.4,6.5-1.6c5.1-0.5,10.2,1.7,12.5,5.4c1.2,1.9,1.8,4.2,1.9,7.1
		c0.1,5.1-1.2,9.4-4.1,13.1c-0.6,0.7-1,1.5-1.5,2.2l-0.4,0.6c-1.1,1.9-1.7,3.9-1.6,6c0,1.4-0.4,12.7-1,16.8
		c-0.6,4.2-1.6,7.7-3.2,10.8c-1.3,2.5-2.5,4.1-4.3,5.1c-0.3,0.1-0.3,0-0.4,0c-2.6-1.7-4.5-12.4-4.6-21.4c0-4.5-3.6-8.2-8.1-8.4
		c-0.1,0-0.1,0-0.2,0h-0.1c-0.1,0-0.2,0-0.2,0c-4.5,0.2-8.1,3.9-8.1,8.3c-0.1,9-2.1,19.7-4.7,21.4c-0.1,0.1-0.2,0.1-0.5,0
		c-2-1.2-5.7-8.4-6.7-13.2c-1.2-5.6-1.7-11.8-1.5-19.3l0-0.3c0-0.8,0.1-2-0.5-3.2l-0.2-0.4c-0.8-1.7-1.6-3.5-2.8-5.2
		c-3.5-4.9-4.7-10.3-3.6-16.5c0.8-4.4,4.4-7.6,9.6-8.7C103.7,119.9,107.4,120.3,111.4,122.1z"/>
	<path class="st0" d="M246.3,161.2h-8.5v-8.5c0-1.8-1.5-3.3-3.3-3.3h-15.4c-1.8,0-3.3,1.5-3.3,3.3v8.5h-8.5c-1.8,0-3.3,1.5-3.3,3.3
		v15.4c0,1.8,1.5,3.3,3.3,3.3h8.5v8.5c0,1.8,1.5,3.3,3.3,3.3h15.4c1.8,0,3.3-1.5,3.3-3.3v-8.5h8.5c1.8,0,3.3-1.5,3.3-3.3v-15.4
		C249.6,162.7,248.1,161.2,246.3,161.2z M219.1,176.6h-8.5v-8.9h8.5c1.8,0,3.3-1.5,3.3-3.3v-8.5h8.9v8.5c0,1.8,1.5,3.3,3.3,3.3h8.5
		v8.9h-8.5c-1.8,0-3.3,1.5-3.3,3.3v8.5h-8.9v-8.5C222.4,178.1,220.9,176.6,219.1,176.6z"/>
	<path class="st0" d="M268.2,26.1L268.2,26.1c0-0.2-0.1-0.4-0.1-0.6c-0.1-0.2-0.2-0.4-0.3-0.6c-0.1-0.1-0.2-0.3-0.3-0.5
		c-0.2-0.2-0.4-0.3-0.5-0.5c-0.1-0.1-0.2-0.2-0.3-0.3c-0.1,0-0.1-0.1-0.2-0.1c-0.2-0.1-0.4-0.1-0.6-0.2l-0.1,0
		c-0.1,0-0.3-0.1-0.4-0.1l-0.1,0H130.8c-0.1,0-0.2,0-0.2,0c-0.2,0-0.4,0.1-0.5,0.1l-0.1,0c-0.2,0-0.3,0.1-0.5,0.2l-0.2,0.1
		c-0.1,0.1-0.3,0.2-0.3,0.3c-0.2,0.1-0.4,0.3-0.5,0.5c-0.1,0.1-0.2,0.3-0.3,0.4l0.7,0.4L128,25c-0.1,0.1-0.2,0.3-0.3,0.5
		c-0.1,0.2-0.1,0.4-0.1,0.6l0,0.1c0,0.1-0.1,0.2-0.1,0.4V79H72.4c-1.8,0-3.3,1.5-3.3,3.3v136.9c0,1.8,1.5,3.3,3.3,3.3h93.5
		c1.8,0,3.3-1.5,3.3-3.3v-8.5H265c1.8,0,3.3-1.5,3.3-3.3V26.6C268.3,26.4,268.3,26.3,268.2,26.1z M162.7,85.5v130.4h-87V85.5H162.7z
		 M169.2,194.9h20.9c1.8,0,3.3-1.5,3.3-3.3c0-1.8-1.5-3.3-3.3-3.3h-20.9v-13h20.9c1.8,0,3.3-1.5,3.3-3.3c0-1.8-1.5-3.3-3.3-3.3
		h-20.9v-13h20.9c1.8,0,3.3-1.5,3.3-3.3c0-1.8-1.5-3.3-3.3-3.3h-20.9V82.3c0-1.8-1.5-3.3-3.3-3.3H134V39.4l7.9,14.5
		c0.6,1.1,1.7,1.7,2.9,1.7H251c1.2,0,2.3-0.7,2.9-1.7l7.9-14.5v164.7h-92.6V194.9z M249.1,49.2H146.8l-10.5-19.3h123.3L249.1,49.2z"
		/>
</g>
</svg>
