<?xml version="1.0" encoding="utf-8"?>
<!-- Generator: Adobe Illustrator 22.1.0, SVG Export Plug-In . SVG Version: 6.00 Build 0)  -->
<svg version="1.1" id="Warstwa_1" xmlns="http://www.w3.org/2000/svg" xmlns:xlink="http://www.w3.org/1999/xlink" x="0px" y="0px"
	 viewBox="0 0 329 239" style="enable-background:new 0 0 329 239;" xml:space="preserve">
<style type="text/css">
	.st0{fill:#FFFFFF;}
</style>
<path class="st0" d="M124.7,144.4h27.4c1,0,1.8,0.7,2,1.7v0c3.7,24.5,26.7,41.4,51.2,37.7c22-3.3,38-21.9,38.2-44.1V131c0,0,0,0,0,0
	h18.2c4.7,0,8.6-3.8,8.6-8.6v-19.1c0-4.7-3.8-8.6-8.6-8.6h-18.5c0,0,0,0,0,0L243,93c-3.5-24.5-26.3-41.6-50.8-38.1
	c-19.6,2.8-35.2,18.5-38.1,38.1l0,0c-0.1,1-1,1.7-2,1.7h-27.4c-1.1,0-2-0.9-2-2V43c0-1.1-0.9-2-2-2H71.1c-1.1,0-2-0.9-2-2V16.2
	c0-1.1-0.9-2-2-2h-5.4c-1.1,0-2,0.9-2,2v206.7c0,1.1,0.9,2,2,2h5.4c1.1,0,2-0.9,2-2V200c0-1.1,0.9-2,2-2h49.7c1.1,0,2-0.9,2-2v-49.7
	C122.7,145.3,123.6,144.4,124.7,144.4z M243.5,104.1h8.8c4.7,0,8.6,3.8,8.6,8.6v0.2c0,4.7-3.8,8.6-8.6,8.6h-8.8c0,0,0,0,0,0
	L243.5,104.1C243.5,104.1,243.5,104.1,243.5,104.1z M163,99.4c0-19.9,16.4-36,36.4-35.5c19.4,0.4,34.7,16.8,34.7,36.2v38.8
	c0,19.4-15.3,35.8-34.7,36.2c-20,0.5-36.4-15.7-36.4-35.5V99.4z M124.7,104.1h26.8c1.1,0,2,0.9,2,2v26.8c0,1.1-0.9,2-2,2h-26.8
	c-1.1,0-2-0.9-2-2v-26.8C122.7,105,123.6,104.1,124.7,104.1z M111.3,188.6H97.9c-1.1,0-2-0.9-2-2v-63.1c0-1.1-0.9-2-2-2h-5.4
	c-1.1,0-2,0.9-2,2v63.1c0,1.1-0.9,2-2,2H71.1c-1.1,0-2-0.9-2-2V52.4c0-1.1,0.9-2,2-2h40.3c1.1,0,2,0.9,2,2v134.2
	C113.3,187.7,112.4,188.6,111.3,188.6z"/>
</svg>
