<?xml version="1.0" encoding="utf-8"?>
<!-- Generator: Adobe Illustrator 22.1.0, SVG Export Plug-In . SVG Version: 6.00 Build 0)  -->
<svg version="1.1" id="Warstwa_1" xmlns="http://www.w3.org/2000/svg" xmlns:xlink="http://www.w3.org/1999/xlink" x="0px" y="0px"
	 viewBox="0 0 329 239" style="enable-background:new 0 0 329 239;" xml:space="preserve">
<style type="text/css">
	.st0{fill:#FFFFFF;}
</style>
<path class="st0" d="M277,172.5H51c-1.9,0-3.5-1.6-3.5-3.5V72c0-1.9,1.6-3.5,3.5-3.5h226c1.9,0,3.5,1.6,3.5,3.5v97
	C280.5,170.9,278.9,172.5,277,172.5z M54.5,165.5h219v-90h-219V165.5z"/>
<path class="st0" d="M259.5,154h-88c-1.9,0-3.5-1.6-3.5-3.5v-39c0-1.9,1.6-3.5,3.5-3.5h88c1.9,0,3.5,1.6,3.5,3.5v39
	C263,152.4,261.4,154,259.5,154z M175,147h81v-32h-81V147z"/>
<path class="st0" d="M83.5,113h-20c-1.9,0-3.5-1.6-3.5-3.5v-25c0-1.9,1.6-3.5,3.5-3.5h20c1.9,0,3.5,1.6,3.5,3.5v25
	C87,111.4,85.4,113,83.5,113z M67,106h13V88H67V106z"/>
<path class="st0" d="M240.5,128h-49c-1.9,0-3.5-1.6-3.5-3.5s1.6-3.5,3.5-3.5h49c1.9,0,3.5,1.6,3.5,3.5S242.4,128,240.5,128z"/>
<path class="st0" d="M240.5,143h-49c-1.9,0-3.5-1.6-3.5-3.5s1.6-3.5,3.5-3.5h49c1.9,0,3.5,1.6,3.5,3.5S242.4,143,240.5,143z"/>
</svg>
