<?xml version="1.0" encoding="utf-8"?>
<!-- Generator: Adobe Illustrator 24.0.2, SVG Export Plug-In . SVG Version: 6.00 Build 0)  -->
<svg version="1.1" id="Warstwa_1" xmlns="http://www.w3.org/2000/svg" xmlns:xlink="http://www.w3.org/1999/xlink" x="0px" y="0px"
	 viewBox="0 0 329 239" style="enable-background:new 0 0 329 239;" xml:space="preserve">
<style type="text/css">
	.st0{fill:#FFFFFF;}
</style>
<path class="st0" d="M167.8,60.3c-12.1,0.1-21.6,6.9-21.6,15.6c0,8.7,9.5,15.6,21.6,15.6c12.1,0,21.6-6.9,21.6-15.6
	S179.9,60.3,167.8,60.3z M167.8,84.4c-8.7,0-14.6-4.4-14.6-8.5c0-4.1,5.9-8.5,14.6-8.5c8.7,0,14.6,4.4,14.6,8.5
	S176.5,84.4,167.8,84.4z"/>
<path class="st0" d="M143.7,46.8c-1.4,0-2.7,0.5-3.7,1.5c-0.9,0.9-1.4,2.2-1.3,3.4c0,2.8,2.2,5,5,5s5-2.2,5-5S146.4,46.8,143.7,46.8
	z"/>
<circle class="st0" cx="191.9" cy="51.8" r="5"/>
<path class="st0" d="M167.8,212.9c11.8,0,22.8-2.2,31.9-6.3l1.5-0.7l1.2,1.1c12.3,10.7,31.1,5.7,42.1-5.4
	c11.5-11.5,16.4-31.3,4.3-43.4c-1.5-1.5-3.1-2.7-4.8-3.7l-1.6-0.9l0.4-1.8c0.6-2.8,0.9-5.7,0.9-8.8c0-19.4-13.6-37-33.8-43.6
	l-3.4-1.1l2.2-2.8c5.9-7.5,9.6-16.7,10.6-26.4l0.2-1.8l1.8-0.4c13-2.5,22.4-13.9,22.4-27.1c0-15.2-12.4-27.6-27.6-27.6
	c-7,0-13.6,2.6-18.6,7.2l-1.4,1.3l-1.6-1c-8.1-4.9-17.3-7.5-26.6-7.5c-9.5,0-18.4,2.5-26.6,7.5l-1.6,1l-1.4-1.3
	c-5-4.7-11.6-7.2-18.6-7.2c-15.2,0-27.6,12.4-27.6,27.6c0,13.2,9.4,24.6,22.4,27.1l1.8,0.4l0.2,1.9c0.9,9.6,4.6,18.7,10.6,26.4
	l2.2,2.8l-3.3,1.1c-20.2,6.8-33.8,24.3-33.8,43.6c0,3.2,0.3,6.1,0.9,8.8l0.4,1.8l-1.6,0.9c-1.7,1-3.3,2.2-4.8,3.7
	c-4.7,4.6-7.2,10.8-7.2,17.7c0,9,4.2,18.6,11.3,25.6l0,0c12.6,12.6,31.1,14.9,42.1,5.4l1.2-1l1.4,0.6
	C145.3,210.8,156.3,212.9,167.8,212.9z M243.7,163.4c4,4,5.6,9.7,4.7,16.1c-0.9,6.2-4.1,12.3-9,17.2c-5.5,5.5-13.4,9.3-20.8,9.3
	c-4.7,0-9.1-1.5-12.6-5c-3.3-3.3-5-7.7-5-12.7c0-7.2,3.5-14.9,9.3-20.6C219.4,158.6,234.8,154.4,243.7,163.4z M236.6,143.1
	c0,1.9-0.2,3.9-0.5,6.2l-0.4,2.3l-2.3-0.2c-5.4-0.5-11.1,0.6-16.4,3.1l-2.7,1.3l-0.8-2.9c-4.5-17.3-11-31.6-18.8-41.4l-1.8-2.2
	l2.5-1.5c1.3-0.8,2.6-1.7,4-2.8l0.9-0.7l1.1,0.2C221.7,108.3,236.6,124.6,236.6,143.1z M123,64v-3.5h-3.5
	C108.1,60.4,99,51.1,99,39.8c0-11.4,9.2-20.6,20.6-20.6c10.8,0,16,7.6,18.6,11.3c0,0,0,0,0,0c4.6-3.7,14.3-11.3,29.5-11.3
	c15.3,0,25.3,7.8,29.6,11.3c2.3-3.3,6.5-9.3,14.5-10.9c5.7-1.1,11.7,0.3,16.5,3.9c4.7,3.6,7.6,8.9,8.1,14.6
	c0.5,5.8-1.4,11.3-5.3,15.6c-3.9,4.2-9.4,6.7-15.1,6.7h-3.6v2.8c0,12.2-5,24.1-13.8,32.7c-8.4,8.3-19.4,12.8-30.9,12.8
	c-0.2,0-0.5,0-0.7,0C142.7,108.3,123,88.3,123,64z M134.3,104.5l1.1-0.2l0.9,0.7c1.5,1.1,2.7,2,4,2.8l2.5,1.5l-1.8,2.2
	c-7.9,9.8-14.4,24.1-18.8,41.3l-0.7,2.9l-2.7-1.3c-5.3-2.5-11-3.5-16.4-3.1l-2.2,0.2l-0.5-2.2c-0.4-2-0.7-4.2-0.7-6.3
	C99,124.6,113.8,108.3,134.3,104.5z M129.4,200.9c-3.2,3.2-7.6,4.9-12.6,4.9c0,0,0,0-0.1,0c-7.1,0-15-3.6-20.7-9.3
	c-10.4-10.2-12.3-25.2-4.3-33.3l0,0c4-4,9.7-5.7,16.2-4.7c6.1,0.9,12.2,4.1,17.2,9C134.2,176.6,138.4,191.9,129.4,200.9z
	 M130.2,162.6c-0.5-0.5-0.9-0.9-1.4-1.3l-1.2-1l0.4-1.5c4.6-19.7,11.9-35.7,20.5-45.1l1.1-1.2l1.6,0.5c5.3,1.8,10.9,2.8,16.6,2.8
	c5.8,0,11.4-0.9,16.6-2.8l1.6-0.5l1.1,1.2c8.7,9.6,16,25.6,20.5,45.1l0.3,1.3l-1,1c-0.3,0.3-0.6,0.6-0.9,0.8
	c-0.2,0.2-0.5,0.4-0.7,0.7c-10.1,10.1-13.9,24.3-9.4,35.4l0.9,2.3l-2.4,0.9c-7.9,3.1-17.1,4.7-26.7,4.7c-9.5,0-18.4-1.6-26.5-4.7
	l-2.4-0.9l0.9-2.4C144,186.9,140.2,172.6,130.2,162.6z"/>
<circle class="st0" cx="167.8" cy="149.1" r="5"/>
<circle class="st0" cx="167.6" cy="173.2" r="5"/>
</svg>
