<?xml version="1.0" encoding="utf-8"?>
<!-- Generator: Adobe Illustrator 22.1.0, SVG Export Plug-In . SVG Version: 6.00 Build 0)  -->
<svg version="1.1" id="Warstwa_1" xmlns="http://www.w3.org/2000/svg" xmlns:xlink="http://www.w3.org/1999/xlink" x="0px" y="0px"
	 viewBox="0 0 329 239" style="enable-background:new 0 0 329 239;" xml:space="preserve">
<style type="text/css">
	.st0{fill:#FFFFFF;}
</style>
<g>
	<path class="st0" d="M119.4,119.2c6,8.4,14.3,14.8,24,18.4h0c4.8,1.8,9.9,2.9,15.1,3.1l0.8,0.1c0.7,0,1.4,0.1,2.1,0.1
		c28.4,0,51.5-23.1,51.5-51.5c0-0.7,0-1.4-0.1-2.1l-0.1-0.8c-0.3-5.1-1.3-10.2-3.1-15.1v0c-3.6-9.7-10-18-18.4-24
		c-7.1-5.1-15.4-8.3-24.1-9.3c-15.6-1.8-31.1,3.6-42.2,14.7c-11.1,11.1-16.5,26.6-14.7,42.2C111.1,103.8,114.3,112.1,119.4,119.2
		L119.4,119.2z M157.5,135c-2.6-0.2-5.2-0.7-7.8-1.3l55.8-55.8c0.7,2.5,1.1,5.1,1.3,7.8L157.5,135z M165.6,135l41.4-41.4
		C204.9,115.6,187.5,132.9,165.6,135L165.6,135z M203.5,71.8l-59.8,59.8c-7.1-3-13.4-7.7-18.2-13.8l64.3-64.3
		C195.8,58.4,200.6,64.6,203.5,71.8L203.5,71.8z M160.1,43.6l-44.6,44.6C116.2,63.9,135.8,44.3,160.1,43.6L160.1,43.6z M167.8,44.1
		c6.1,0.9,12,3,17.2,6.2l-62.8,62.8c-3.2-5.3-5.3-11.1-6.2-17.2L167.8,44.1z M167.8,44.1"/>
	<path class="st0" d="M235.8,89.4c0-1.6-1.3-2.9-2.9-2.9h-8.7c-1.6-33.6-29.3-60-62.9-60S100,53,98.4,86.5h-8.7
		c-1.6,0-2.9,1.3-2.9,2.9c0.1,37.8,28.3,69.5,65.8,73.9v14.8h-40.1c-1.6,0-2.9,1.3-2.9,2.9v14.3c0,1.6,1.3,2.9,2.9,2.9H210
		c1.6,0,2.9-1.3,2.9-2.9V181c0-1.6-1.3-2.9-2.9-2.9h-40.1v-14.8C207.4,158.9,235.7,127.2,235.8,89.4L235.8,89.4z M161.3,32.2
		c23.2,0,44,13.9,52.9,35.3c8.9,21.4,4,46-12.4,62.4c-16.4,16.4-41,21.3-62.4,12.4c-21.4-8.9-35.3-29.7-35.3-52.9
		C104.1,57.8,129.7,32.2,161.3,32.2L161.3,32.2z M92.7,92.3h5.7c1.6,33.6,29.3,60,62.9,60s61.3-26.4,62.9-60h5.7
		c-1.7,36.7-31.9,65.6-68.6,65.6C124.6,157.8,94.4,129,92.7,92.3L92.7,92.3z M207.1,192.5h-91.6v-8.6h91.6V192.5z M164.2,163.8v14.3
		h-5.7v-14.3H164.2z M164.2,163.8"/>
</g>
</svg>
