<?xml version="1.0" encoding="utf-8"?>
<!-- Generator: Adobe Illustrator 22.1.0, SVG Export Plug-In . SVG Version: 6.00 Build 0)  -->
<svg version="1.1" id="Warstwa_1" xmlns="http://www.w3.org/2000/svg" xmlns:xlink="http://www.w3.org/1999/xlink" x="0px" y="0px"
	 viewBox="0 0 329 239" style="enable-background:new 0 0 329 239;" xml:space="preserve">
<style type="text/css">
	.st0{fill:#FFFFFF;}
</style>
<g>
	<rect x="243.8" y="135.7" class="st0" width="7.1" height="7.1"/>
	<rect x="243.8" y="164" class="st0" width="7.1" height="7.1"/>
	<rect x="243.8" y="192.3" class="st0" width="7.1" height="7.1"/>
	<path class="st0" d="M272.2,107.3h-15.9c-1.8-8.3-5.7-15.9-11.4-22.3c-2.6-2.9-5.6-5.2-8.8-6.9c6.5-4.5,10.7-11.9,10.7-20.4v-3.5
		h-17.7c-9,0-16.9,4.9-21.3,12.1v-8.5c0-7.8,6.4-14.2,14.2-14.2v-7.1c-11.7,0-21.3,9.5-21.3,21.3v19.7c-10.5-3.8-22.3-1-29.8,7.4
		c-0.9,1-1.8,2.1-2.6,3.1l0.3-1.5c0.5-2.4,0.7-4.8,0.7-7.5c0-10-4.1-18.9-10.8-25.4l12.4-18.3c0.3-0.4,0.5-0.8,0.7-1.3
		c2.7-5.4,0.5-12-4.9-14.7l-0.9-0.4c-2.6-1.3-5.6-1.5-8.4-0.6c-2.8,0.9-5,2.9-6.4,5.6c-0.2,0.4-0.4,0.8-0.5,1.2l-7.2,19.9
		c-0.5-0.1-1-0.3-1.5-0.4l2.5-25c0-0.3,0.1-0.7,0.1-1.1c0-5.7-4.6-10.3-10.3-10.3h-0.7c-5.7,0-10.3,4.6-10.3,10.3c0,0.4,0,0.7,0.1,1
		l2.5,25.1c-0.5,0.1-1,0.2-1.5,0.4L117.2,25c-0.1-0.4-0.3-0.8-0.5-1.2c-1.3-2.6-3.6-4.6-6.3-5.5c-2.8-0.9-5.8-0.7-8.4,0.6l-0.9,0.4
		c-5.4,2.7-7.6,9.3-4.9,14.7c0.2,0.4,0.5,0.8,0.7,1.2l12.4,18.3c-6.6,6.5-10.8,15.5-10.8,25.6c0,2.4,0.3,4.9,0.7,7.2l4.3,20.9h-5.1
		c-3.9,0-7.1,3.2-7.1,7.1v0.3c-1.2-0.2-2.3-0.3-3.5-0.3H70.2v3.5c0,8.4,4.2,15.9,10.7,20.4c-3.2,1.7-6.2,4-8.8,6.9
		c-8.1,9.1-12.5,20.8-12.5,32.9c0,13.6,5.4,26.3,15.2,35.7c9.3,9,21.5,13.9,34.4,13.9c0.7,0,1.3,0,2,0c12.6-0.5,24.1-5.8,32.6-14.1
		h103.6c9.8,0,17.7-7.9,17.7-17.7v-67.3h7.1c3.9,0,7.1-3.2,7.1-7.1v-7.1C279.2,110.5,276.1,107.3,272.2,107.3L272.2,107.3z
		 M229.1,61.3h10.3c-1.6,8.1-8.8,14.2-17.4,14.2h-10.3C213.4,67.4,220.5,61.3,229.1,61.3L229.1,61.3z M176.2,89.5
		c5.8-6.4,15.3-8.5,23.2-5.1c0.4,0.2,0.9,0.3,1.3,0.5v7.6c-3.5-1.3-6.9-4.1-8.1-5.3l-5,5c0.8,0.8,8.4,8.1,16.7,8.1
		c8.3,0,15.8-7.3,16.7-8.1l-5-5c-1.3,1.3-4.6,4-8.1,5.3v-9.9H222c1.2,0,2.4-0.1,3.5-0.3c5,0.4,10.2,3.1,14.1,7.5
		c4.5,5.1,7.7,11.1,9.4,17.6h-82.3C168.4,100.7,171.6,94.6,176.2,89.5L176.2,89.5z M157.4,27.4c0-0.1,0.1-0.3,0.2-0.5
		c0.5-0.9,1.3-1.6,2.2-1.9c1-0.3,2-0.3,3,0.2l0.9,0.4c1.9,1,2.7,3.3,1.7,5.2c-0.1,0.2-0.2,0.3-0.3,0.5l-12.1,17.8
		c-1-0.6-1.9-1.2-2.9-1.7L157.4,27.4z M130.4,18.4c0-1.8,1.4-3.2,3.2-3.2h0.7c1.8,0,3.2,1.4,3.2,3.5L135,43.6c-0.3,0-0.7-0.1-1-0.1
		s-0.7,0-1,0.1L130.4,18.4z M102.8,31.3c-0.1-0.1-0.2-0.3-0.3-0.5c-1-1.9-0.2-4.3,1.7-5.2l0.9-0.4c0.9-0.5,2-0.5,3-0.2
		c1,0.3,1.8,1,2.3,2c0.1,0.1,0.1,0.3,0.2,0.4l7.3,20c-1,0.5-2,1.1-2.9,1.7L102.8,31.3z M134,50.6c15.6,0,28.3,12.7,28.3,28.6
		c0,1.9-0.2,3.9-0.6,5.8l-4.6,22.3h-39.5c2.5-2.2,5.7-3.5,9.3-3.5v-7.1c-6.7,0-12.7,3.1-16.6,8L106.2,85c-0.4-1.9-0.6-3.8-0.6-6
		C105.6,63.3,118.3,50.6,134,50.6L134,50.6z M98.5,114.4h7.4c-0.2,1.2-0.3,2.3-0.3,3.5v3.9c-2-2.1-4.4-3.8-7.1-5V114.4z M87.9,121.5
		c8.6,0,15.7,6.1,17.4,14.2H95c-8.6,0-15.7-6.1-17.4-14.2H87.9z M110.9,220.7c-11.8,0.4-22.8-3.8-31.2-11.8c-8.4-8.1-13-19-13-30.6
		c0-10.4,3.8-20.5,10.7-28.2c3.9-4.3,9.1-7.1,14.1-7.5c1.2,0.2,2.3,0.3,3.5,0.3h10.6v9.9c-3.5-1.3-6.9-4.1-8.1-5.3l-5,5
		c0.8,0.8,8.4,8.1,16.7,8.1s15.8-7.3,16.7-8.1l-5-5c-1.3,1.3-4.6,4-8.1,5.3V146c1.7-0.3,3.3-0.7,4.9-1.4c7.9-3.4,17.4-1.3,23.2,5.1
		c7.5,8.3,11.3,19.1,10.9,30.3C150.7,202,132.8,219.8,110.9,220.7L110.9,220.7z M158.7,178.2c0-7.4-1.6-14.7-4.7-21.3h104v21.3
		H158.7z M247.4,206.5h-97.6c4.4-6.2,7.3-13.5,8.5-21.3H258v10.6C258,201.8,253.2,206.5,247.4,206.5L247.4,206.5z M272.2,121.5H258
		v28.3H149.8c-1.2-1.7-2.4-3.3-3.8-4.8c-7.9-8.8-20.5-11.5-31.3-6.9c-0.6,0.3-1.4,0.5-2.1,0.6v-10.2h138.2v-7.1H112.7v-3.5
		c0-1.2,0.2-2.4,0.5-3.5h158.9V121.5z M272.2,121.5"/>
	<path class="st0" d="M80.8,178.2h-7.1c0,19.5,15.9,35.4,35.4,35.4v-7.1C93.5,206.5,80.8,193.8,80.8,178.2L80.8,178.2z M80.8,178.2"
		/>
	<rect x="144.6" y="64.8" class="st0" width="7.1" height="7.1"/>
	<rect x="144.6" y="79" class="st0" width="7.1" height="7.1"/>
	<rect x="144.6" y="93.1" class="st0" width="7.1" height="7.1"/>
</g>
</svg>
