<?xml version="1.0" encoding="utf-8"?>
<!-- Generator: Adobe Illustrator 22.1.0, SVG Export Plug-In . SVG Version: 6.00 Build 0)  -->
<svg version="1.1" id="Warstwa_1" xmlns="http://www.w3.org/2000/svg" xmlns:xlink="http://www.w3.org/1999/xlink" x="0px" y="0px"
	 viewBox="0 0 329 239" style="enable-background:new 0 0 329 239;" xml:space="preserve">
<style type="text/css">
	.st0{fill:#FFFFFF;}
</style>
<g>
	<circle class="st0" cx="132" cy="70.6" r="6"/>
	<path class="st0" d="M173.6,144.6c0-3.3-2.7-6-6-6h-9.9v-9.9c0-3.3-2.7-6-6-6c-3.3,0-6,2.7-6,6v9.9H136c-3.3,0-6,2.7-6,6s2.7,6,6,6
		h9.9v9.9c0,3.3,2.7,6,6,6c3.3,0,6-2.7,6-6v-9.9h9.9C171,150.6,173.6,147.9,173.6,144.6z"/>
	<path class="st0" d="M276.3,143.2L276.3,143.2c-9.3-16.1-29.9-21.6-46-12.3l-13.1,7.6v-30.9c0-4.7-1.5-9.3-4.4-13.1l-19.4-25.9
		v-9.2c4.8-2.3,7.9-7.2,7.9-12.5V28.6c0-7.7-6.2-13.9-13.9-13.9h-71.3c-7.7,0-13.9,6.2-13.9,13.9v18.2c0,5.4,3.1,10.2,7.9,12.5v9.2
		L90.9,94.4c-2.8,3.8-4.4,8.4-4.4,13.1v76.7c0,12,9.8,21.8,21.8,21.8h62.5c6.4,9.9,17.3,15.4,28.4,15.4c5.7,0,11.5-1.4,16.7-4.5
		l48-27.7C280,179.9,285.5,159.3,276.3,143.2z M166,194.1h-57.7c-5.4,0-9.9-4.4-9.9-9.9v-2h67.5C165.2,186.1,165.3,190.2,166,194.1z
		 M98.4,116.1h106.9v29.2l-23,13.3c-4.9,2.9-9.1,6.9-12,11.7H98.4V116.1z M188.2,168.9l19.8-11.4l21.8,37.7L210,206.6
		c-10.4,6-23.7,2.4-29.7-8C174.3,188.2,177.9,174.9,188.2,168.9z M189.4,46.8c0,1.1-0.9,2-2,2h-71.3c-1.1,0-2-0.9-2-2V28.6
		c0-1.1,0.9-2,2-2h71.3c1.1,0,2,0.9,2,2V46.8z M100.4,101.6L121,74.1c0.8-1,1.2-2.3,1.2-3.6v-9.9h59.3v3.9h-33.6c-3.3,0-6,2.7-6,6
		s2.7,6,6,6h36.6l18.8,25.1c0.6,0.8,1.1,1.7,1.4,2.6H99C99.3,103.3,99.8,102.4,100.4,101.6z M265.9,149.2c6,10.4,2.4,23.7-8,29.7
		l-17.9,10.3l-21.8-37.7l17.9-10.3C246.6,135.2,259.9,138.8,265.9,149.2z"/>
</g>
</svg>
