<?xml version="1.0" encoding="utf-8"?>
<!-- Generator: Adobe Illustrator 22.1.0, SVG Export Plug-In . SVG Version: 6.00 Build 0)  -->
<svg version="1.1" id="Warstwa_1" xmlns="http://www.w3.org/2000/svg" xmlns:xlink="http://www.w3.org/1999/xlink" x="0px" y="0px"
	 viewBox="0 0 329 239" style="enable-background:new 0 0 329 239;" xml:space="preserve">
<style type="text/css">
	.st0{fill:#FFFFFF;}
</style>
<path class="st0" d="M271,140.2c-4.2-2.8-8.2-5.2-12.1-7.5c-3.8-2.3-7.8-4.7-11.9-7.4l-0.5-25.2c0-0.8-0.5-1.6-1.3-1.9l-38.4-15.9
	c1-0.3,2-0.6,3-0.9c1.9-0.6,3.8-1.2,6.3-2.1c0.8-0.3,1.3-1,1.4-1.8l2.5-39.9c0.1-0.9-0.5-1.7-1.3-2.1l-44.4-17.6
	c-3.3-1.3-7.1-2.8-11.2-2.6c-3.7,0.2-7,1.9-10,3.4L72.7,59c-0.8,0.4-1.2,1.2-1.2,2.1l3.9,43.9c0.1,0.8,0.6,1.5,1.3,1.8l38.5,16.2
	c3.5,1.5,7.5,3.2,11.8,3.3c0.2,0,0.4,0,0.6,0c6.7,0,12.5-3.5,18.2-7.8l1.6,6.4c-0.1,0-0.1,0-0.2,0.1l-37.4,19.8
	c-0.3,0.2-0.6,0.5-0.8,0.8l-32.8-19.3c-0.6-0.4-1.2-0.7-1.9-1.2c-3.1-1.9-6.7-4.2-10.5-4.4c-2.7-0.2-4.4,1-5.3,2
	c-1.6,1.8-2.3,4.6-1.9,7.7c0.8,5.3,4.7,9.2,8.4,12.3c7.9,6.6,17.1,11.7,26.9,14.9l-20,14.1c-0.5,0.4-0.9,1-0.9,1.7
	c0,0.7,0.3,1.3,0.8,1.7c15,11.7,31.1,22.2,46.7,32.4c7.2,4.7,14.6,9.5,21.8,14.4c1.8,1.2,4,2.7,6.7,3.1c0.5,0.1,0.9,0.1,1.4,0.1
	c3.6,0,6.8-1.9,9.1-3.3c15.3-9.1,30.6-18.8,45.5-29c3.7-2.5,7.5-5,11.1-7.5c10.8-7.3,22-14.8,32.8-22.8c0.6-0.4,1.2-0.9,1.8-1.3
	c7.5-5.7,15.1-11.6,22.4-17.6c0.5-0.4,0.8-1.1,0.8-1.7C272,141.2,271.6,140.6,271,140.2L271,140.2z M242.9,130.3
	c0,1.8,0.1,3.7-0.6,5.2c-0.8,1.9-2.8,3.2-5.2,4.6l-37.3,22.8c-1.5,0.9-2.9,1.7-4.2,2.2l-0.4-41.7l47.2-20L242.9,130.3z M239.1,100.3
	l-45.8,19.4c-0.3,0.1-0.5,0.3-0.7,0.5l-43.2-18.3c0.6-0.4,1.2-0.7,1.9-1.1l40-20.2L239.1,100.3z M155.1,68c3.1-1.8,6.4-3.1,9.6-4.7
	c7.9-3.7,15.9-7.4,23.9-10.9L187.1,78c-1.2,0.6-2.4,1.2-3.6,1.8c-7.8,3.9-15.6,7.9-23.4,11.8c-1.9,1-3.9,1.9-5.8,2.9L155.1,68z
	 M213.4,75.9c-1.8,0.6-3.4,1.1-4.8,1.6c-1.9,0.6-3.8,1.2-6.3,2.1c-0.4,0.1-0.6,0.3-0.9,0.6c-2.5-1-4.9-2-7.4-3
	c-0.7-0.3-1.7-0.9-2.6-1l1.5-25.5c7.5-3.2,15-6.4,22.6-9.4L213.4,75.9z M155,22.4c2.7-1.3,5.5-2.7,8.3-2.9c3.1-0.2,6.5,1.1,9.4,2.3
	l40.2,16c-1.9,0.7-3.7,1.5-5.6,2.3c-4.4,1.8-8.8,3.6-13.1,5.5c-2.4-2.4-5.7-3.5-8.4-4.3c-13.5-4.1-27-8.8-40.2-14.1
	C148.7,25.6,151.9,24,155,22.4L155,22.4z M113.1,43.5c6.8-3.4,13.5-6.8,20.3-10.2c2.4-1.2,4.8-2.4,7.2-3.6
	c14.4,5.8,29.2,11.1,44,15.6c1.9,0.6,3.8,1.1,5.3,2.1c-12.6,5.5-25.2,11.2-37.5,17.2c0,0,0,0-0.1,0c-16.1-5.7-32.5-10.9-49-15.6
	c0.3-0.2,0.7-0.4,1-0.7C107.1,46.4,110.1,45,113.1,43.5L113.1,43.5z M88.6,55.8c3-1.5,6.3-2.7,9.5-4.1c0.2,0.2,0.5,0.3,0.8,0.4
	c16.2,4.5,32.4,9.6,48.3,15.1c-2.1,1-4.2,2.1-6.3,3.1c-2,1-4,2-6,3.1c-0.9,0.5-4.8,3.2-5.6,2.9L78.7,60.7
	C82,59.1,85.3,57.4,88.6,55.8L88.6,55.8z M126.8,90.7c0,3.3-0.1,6.7-0.1,10c0,4.2-0.2,8.5-0.3,12.7c0,1.6,0,3.3,0,4.9
	c-3.7-7.9-8.1-15.5-13-22.7c4.4-4.3,9-8.5,13.7-12.6C127.3,85.6,126.9,88.4,126.8,90.7L126.8,90.7z M79.4,100.2
	c-0.1-2.8-0.2-5.5-0.8-8.2c-0.5-2.2-0.4-4.6-0.6-6.9c-0.4-4.9-0.3-9.8-0.8-14.6L91,89.9L79.4,100.2z M94.2,87.1L78.4,65
	c0.5,0.2,0.9,0.4,1.1,0.4c2.1,0.6,4.1,1.3,6.2,1.9c5.7,1.8,11.4,3.5,17.1,5.3c5.5,1.7,10.9,3.4,16.4,5.1c1.3,0.4,3.8,0.9,5.6,1.8
	c-4.7,4.1-9.4,8.4-13.9,12.7c-1.7-2.4-3.4-4.7-5.2-6.9c-0.6-0.7-1.6-1.9-3.1-2.4c-2.8-0.8-5.1,1.2-6.1,2.1L94.2,87.1z M81.3,104.1
	l18.1-16c1.4-1.2,1.9-1.3,2.1-1.2c0.3,0.1,0.8,0.7,1,1c8.2,10.3,15.2,21.6,20.7,33.5c-2.2-0.6-4.3-1.6-6.3-2.4
	C116.9,119,88.7,107.2,81.3,104.1L81.3,104.1z M143.6,102.2c-1,2.5-0.4,5.1,0.1,7l1.2,4.8c-4.7,3.6-9.3,6.7-14.1,7.7l0.4-41.6
	c0-0.5,5-2.6,5.6-2.9c2-1,4-2,6-3c2.6-1.3,5.4-2.3,8.1-3.6L150,96.7C147.5,98.1,144.7,99.4,143.6,102.2L143.6,102.2z M147.2,105.5
	L191,124l0.4,41.1v0c-1.2-0.4-2.4-1.1-3.5-1.8c-3-1.8-6.1-3.7-9-5.5c-6-3.7-12.1-7.5-18.3-11.1c-2.9-1.7-3.7-2.1-4.5-5.2
	c-0.9-3.4-1.8-7-2.6-10.4c-0.4-1.7-0.9-3.5-1.3-5.2l-4.4-17.8C147.5,107.2,147.3,106.3,147.2,105.5L147.2,105.5z M67.9,139.5
	c-3.1-2.6-6.4-5.8-6.9-9.7c-0.3-1.8,0.1-3.5,0.8-4.3c0.3-0.3,0.7-0.7,1.8-0.7c0.1,0,0.2,0,0.2,0c2.8,0.2,5.8,2.1,8.5,3.7
	c0.7,0.4,1.3,0.8,2,1.2L177,190.4c-12.3,2.5-25.1,2.4-37.4-0.2c-9.5-2.1-16-5.5-19.8-10.5c-4.4-5.7-5.2-13.5-6-20.4
	c-0.1-1-0.9-1.8-1.9-1.9C95.9,156.1,80.2,149.8,67.9,139.5L67.9,139.5z M246.3,157.8c-0.6,0.4-1.2,0.9-1.8,1.3
	c-10.6,8-21.8,15.4-32.6,22.7c-3.6,2.4-7.4,5-11.1,7.5c-14.9,10.1-30.1,19.8-45.3,28.8c-2.7,1.6-5.3,3-7.7,2.6
	c-1.7-0.2-3.3-1.4-4.9-2.4c-7.2-4.9-14.7-9.7-21.9-14.4c-14.7-9.6-30-19.5-44.2-30.4l19.9-14c0.2-0.1,0.3-0.2,0.4-0.4
	c4.2,1.1,8.4,1.9,12.7,2.3c0.8,6.7,2,14.7,6.7,20.8c4.4,5.8,11.7,9.8,22.3,12.1c6.6,1.4,13.3,2.1,20.1,2.1c8.2,0,16.4-1.1,24.3-3.1
	c0.8-0.2,1.4-0.9,1.5-1.7c0.1-0.8-0.3-1.7-1-2.1l-70.6-41.6l35.5-18.8c0.3,1.1,0.5,2.1,0.8,3.2c0.8,3.4,1.7,6.9,2.6,10.4
	c1.2,4.5,3,5.8,6.5,7.8c6.1,3.5,12.3,7.3,18.2,11c3,1.8,6,3.7,9,5.6c1.9,1.1,4.2,2.5,6.9,2.8c0.3,0,0.5,0,0.7,0
	c3.4,0,6.4-1.8,8.7-3.2l37.3-22.8c2.3-1.4,5.4-3.3,6.8-6.5c1-2.3,1-4.7,1-6.8c3.3,2.1,6.5,4,9.6,5.9c3.1,1.8,6.3,3.8,9.6,5.8
	C259.7,147.5,253,152.7,246.3,157.8L246.3,157.8z M246.3,157.8"/>
</svg>
