<?xml version="1.0" encoding="utf-8"?>
<!-- Generator: Adobe Illustrator 22.1.0, SVG Export Plug-In . SVG Version: 6.00 Build 0)  -->
<svg version="1.1" id="Warstwa_1" xmlns="http://www.w3.org/2000/svg" xmlns:xlink="http://www.w3.org/1999/xlink" x="0px" y="0px"
	 viewBox="0 0 329 239" style="enable-background:new 0 0 329 239;" xml:space="preserve">
<style type="text/css">
	.st0{fill:#FFFFFF;}
</style>
<path class="st0" d="M206.3,136.9l0.3-0.4L248,76c0.5-0.7,0.7-1.6,0.7-2.7V41.9c0.1-1.3-0.4-2.4-1.2-3.2c-0.9-0.9-2.2-1.5-3.4-1.5
	H99.5c-2.7,0-4.8,2.1-4.8,4.8v31.3c0,1,0.3,1.9,0.8,2.6l41.2,61V196c0,1.5,0.5,3,1.6,4c1.1,1.1,2.6,1.8,4.2,1.8h58
	c3.2,0,5.8-2.6,5.8-5.8V136.9z M102.1,57.5c0-7.1,5.7-12.8,12.8-12.8h113.6c7.1,0,12.8,5.7,12.8,12.8c0,7.1-5.7,12.8-12.8,12.8H115
	C107.9,70.3,102.1,64.6,102.1,57.5z M198.8,194.2h-54.6v-23.6h54.6V194.2z M199,163.1h-54.6V140H199V163.1z M200,132.4h-56.8
	l-30.7-43.9c-1.4-2-1.6-4.6-0.4-6.9c1.2-2.3,3.6-3.8,6.1-3.8h107.4c2.6,0,4.9,1.4,6,3.7c1.2,2.3,1,5-0.5,7.1L200,132.4z"/>
</svg>
