<?xml version="1.0" encoding="utf-8"?>
<!-- Generator: Adobe Illustrator 22.1.0, SVG Export Plug-In . SVG Version: 6.00 Build 0)  -->
<svg version="1.1" id="Warstwa_1" xmlns="http://www.w3.org/2000/svg" xmlns:xlink="http://www.w3.org/1999/xlink" x="0px" y="0px"
	 viewBox="0 0 329 239" style="enable-background:new 0 0 329 239;" xml:space="preserve">
<style type="text/css">
	.st0{fill:#FFFFFF;}
</style>
<path class="st0" d="M249.2,60.5v-1.6h22.1c2.8,0,5.1-2.3,5.1-5.1s-2.3-5.1-5.1-5.1H112.5c-32,0-58.5,25.6-59,57.2
	c-0.2,15.7,5.7,30.4,16.7,41.6c11,11.2,25.7,17.3,41.4,17.3h10.4l0.2,1.3c2.1,13.9,14.2,24.3,28.2,24.3h28.9v-7.3
	c0-8.7-3.9-16.8-10.7-22.3l-1.5-1.2l1.5-1.2c6.8-5.5,10.7-13.6,10.7-22.3V129h-28.9c-14,0-26.2,10.5-28.2,24.3l-0.2,1.3h-1.9
	c-6.9,0-13.7-2.9-18.6-7.8c-4.8-4.9-7.4-11.2-7.3-17.9c0.2-13.7,11.6-24.9,25.3-24.9h86.1C229.7,103.9,249.2,84.4,249.2,60.5z
	 M132.8,152.7c2.2-7.9,9.4-13.5,17.7-13.5H169l-0.5,1.9c-2.2,7.9-9.4,13.5-17.7,13.5h-18.5L132.8,152.7z M150.8,164.8
	c8.2,0,15.5,5.5,17.7,13.5l0.5,1.9h-18.5c-8.2,0-15.5-5.5-17.7-13.5l-0.5-1.9H150.8z M85.6,146.8c-12.4-8.1-20.5-21.6-21.6-36.2
	l-0.2-2.5l22.2,9.7l-0.4,1.3c-1,3.3-1.5,6.7-1.5,10.2c0,5.5,1.2,10.8,3.7,15.7l2.4,4.9L85.6,146.8z M98.8,100.5
	c-2.8,2.1-5.3,4.5-7.4,7.3l-0.7,0.9l-26-11.3l0.3-1.2c2.5-10.8,8.7-20.6,17.6-27.4l1.5-1.1l15.8,32.1L98.8,100.5z M126.8,93.7h-7.1
	c-3.2,0-6.4,0.4-9.4,1.3l-1.2,0.3L92.9,62.7l1.5-0.6c5.5-2.1,11.2-3.2,17.1-3.2h15.2V93.7z M161.2,93.7H137V58.9h24.2V93.7z
	 M171.4,58.9H239v1.6c0,18.3-14.9,33.2-33.2,33.2h-34.4V58.9z"/>
<path class="st0" d="M202.5,80.6L202.5,80.6c-3.6,0-6.5-2.9-6.5-6.5v0c0-3.6,2.9-6.5,6.5-6.5h0c3.6,0,6.5,2.9,6.5,6.5v0
	C208.9,77.7,206,80.6,202.5,80.6z"/>
</svg>
