<?xml version="1.0" encoding="utf-8"?>
<!-- Generator: Adobe Illustrator 22.1.0, SVG Export Plug-In . SVG Version: 6.00 Build 0)  -->
<svg version="1.1" id="Warstwa_1" xmlns="http://www.w3.org/2000/svg" xmlns:xlink="http://www.w3.org/1999/xlink" x="0px" y="0px"
	 viewBox="0 0 329 239" style="enable-background:new 0 0 329 239;" xml:space="preserve">
<style type="text/css">
	.st0{fill:#FFFFFF;}
</style>
<path class="st0" d="M263,170.2L263,170.2c-0.1-11.4-0.2-22.9-0.2-34.3c0-42.4-29.1-81.8-67.6-98c-27-11.3-58.1-11.9-85.3-0.8
	c-9.5,3.9-18.4,9-26.5,15.4c-1.6,1.2-1.8,3.5-0.6,5c1.2,1.6,3.5,1.8,5,0.6c6.7-5.3,14.1-9.7,21.8-13.1l9.7,17.1
	C105.2,68,92.8,77.9,83.7,90.4L68,78.7c2.9-4,6.2-7.8,9.7-11.4c1.4-1.4,1.4-3.7-0.1-5.1c-1.4-1.4-3.7-1.4-5.1,0.1
	c-4.6,4.7-8.8,9.8-12.4,15.1c0,0,0,0,0,0.1c-12.4,18.4-19.2,40.3-19.2,62.5v30.2h-0.1c-6.4,0-11.5,5.2-11.5,11.5v10.9
	c0,6.4,5.2,11.5,11.5,11.5h175c2,0,3.6-1.6,3.6-3.6c0-2-1.6-3.6-3.6-3.6h-175c-2.4,0-4.3-1.9-4.3-4.3v-10.9c0-2.4,1.9-4.3,4.3-4.3
	H263c2.4,0,4.3,2,4.3,4.3v10.9c0,2.4-1.9,4.3-4.3,4.3h-32.9c-2,0-3.6,1.6-3.6,3.6c0,2,1.6,3.6,3.6,3.6H263c6.4,0,11.5-5.2,11.5-11.5
	v-10.9C274.6,175.3,269.4,170.2,263,170.2L263,170.2z M225.3,66.5c3.8,3.8,7.3,7.9,10.5,12.2l-15.7,11.7C211,77.9,198.5,68,184.4,62
	L194,45C205.7,50.1,216.2,57.3,225.3,66.5L225.3,66.5z M116.5,42.2c11.3-4.1,23.2-6.2,35.4-6.2s24.1,2.1,35.4,6.2l-9.8,17.3
	c-8.3-2.6-16.9-4-25.6-4c-8.8,0-17.4,1.3-25.6,4L116.5,42.2z M67.5,170.2H48v-30l19.5,2.9V170.2z M48.3,132.9
	c1.1-17.2,6.5-33.8,15.7-48.3l15.7,11.7c-7.2,12-11.4,25.5-12.1,39.4L48.3,132.9z M210.7,170.2H92.4c-0.7-9.7,1.7-17.3,7.2-22.7
	c2.4-2.3,5.2-4.2,8.3-6.1c3.4-2.2,6.8-4.4,9.8-7.5c2.2-2.2,3.7-4.7,4.6-7.2c0.7-2,1.1-3.8,1.6-5.6c0.8-3.3,1.5-6.1,3.5-8.9
	c2.7-3.7,6.6-7,11.6-9.8c8.3-4.7,17.7-7.2,26.3-6.9c-0.9,2-1.8,4.4-2.5,7c-2.4,9.4-0.4,17.3,5.9,22.7c1,0.9,2.5,1.1,3.7,0.6
	c1.3-0.5,2.1-1.7,2.2-3c0,0,0.3-3.7,2.3-7.2c2-3.6,4.9-5.6,8.9-6.2c-0.1,2.3-0.1,5.3,0.5,8.7c1.3,6.9,5.2,16.8,16.9,24.9
	C212.1,149.2,212.4,160.7,210.7,170.2L210.7,170.2z M229.1,170.2H218c2.4-15-1.3-26.4-10.8-33.1c-18.2-12.7-14.1-29.9-13.9-30.6
	c0.3-1,0.1-2.1-0.6-3c-0.6-0.9-1.6-1.4-2.7-1.5c-0.6,0-1.2-0.1-1.8-0.1c-10.3,0-16,6-18.8,12.1c-2.6-8.7,4.3-19.4,4.4-19.5
	c0.7-1,0.8-2.3,0.3-3.4c-0.5-1.1-1.5-1.9-2.7-2.1c-2.5-0.4-5.1-0.6-7.8-0.6c-9.5,0-19.5,2.8-28.4,7.8c-5.8,3.3-10.4,7.3-13.8,11.7
	c-3,4-3.9,7.8-4.8,11.5c-0.4,1.6-0.8,3.3-1.4,4.9c-0.5,1.6-1.5,3.1-3,4.5c-2.4,2.5-5.4,4.4-8.6,6.5c-3.2,2.1-6.5,4.2-9.4,7
	c-7,6.8-10.1,16.2-9.3,27.8H74.7v-30.2c0-15.2,4.4-29.9,12.8-42.5c0,0,0,0,0,0c9.2-13.9,22.8-24.6,38.3-30.2c0,0,0,0,0,0
	c8.4-3,17.1-4.5,26.1-4.5c8.9,0,17.7,1.5,26.1,4.5v0c15.6,5.6,29.2,16.3,38.3,30.2c0,0,0,0,0,0c8.4,12.6,12.8,27.3,12.8,42.5V170.2z
	 M224.1,96.3l15.7-11.7c9.2,14.5,14.5,31.1,15.7,48.3l-19.3,2.9C235.5,121.8,231.4,108.3,224.1,96.3L224.1,96.3z M255.7,170.2h-19.5
	V143l19.5-2.9V170.2z M255.7,170.2"/>
</svg>
