<?xml version="1.0" encoding="utf-8"?>
<!-- Generator: Adobe Illustrator 22.1.0, SVG Export Plug-In . SVG Version: 6.00 Build 0)  -->
<svg version="1.1" id="Warstwa_1" xmlns="http://www.w3.org/2000/svg" xmlns:xlink="http://www.w3.org/1999/xlink" x="0px" y="0px"
	 viewBox="0 0 329 239" style="enable-background:new 0 0 329 239;" xml:space="preserve">
<style type="text/css">
	.st0{fill:#FFFFFF;}
</style>
<g>
	<path class="st0" d="M135.4,176.1c-6,0-10.9,4.9-10.9,10.9c0,2.2,1.7,3.9,3.9,3.9s3.9-1.7,3.9-3.9c0-1.7,1.4-3.1,3.1-3.1
		c1.7,0,3.1,1.4,3.1,3.1c0,2.2,1.7,3.9,3.9,3.9s3.9-1.7,3.9-3.9C146.3,180.9,141.4,176.1,135.4,176.1z"/>
	<path class="st0" d="M173.3,198.2c2.2,0,3.9-1.7,3.9-3.9c0-1.7,1.4-3.1,3.1-3.1c1.7,0,3.1,1.4,3.1,3.1c0,2.2,1.7,3.9,3.9,3.9
		s3.9-1.7,3.9-3.9c0-6-4.9-10.9-10.9-10.9c-6,0-10.9,4.9-10.9,10.9C169.4,196.4,171.2,198.2,173.3,198.2z"/>
	<path class="st0" d="M220.5,199.9c1.8,0,3.3-1.5,3.3-3.3c0-1.8-1.5-3.3-3.3-3.3s-3.3,1.5-3.3,3.3
		C217.2,198.4,218.7,199.9,220.5,199.9z"/>
	<path class="st0" d="M107.6,187.1c-1.8,0-3.3,1.5-3.3,3.3c0,1.8,1.5,3.3,3.3,3.3s3.3-1.5,3.3-3.3
		C110.9,188.6,109.4,187.1,107.6,187.1z"/>
	<path class="st0" d="M239.4,186.5c-1.3,0-2.7,0.1-4,0.4c-2.7-3.6-6.2-6.6-10.1-8.7l12.9-8.1c7.2-4.5,12.1-11.8,13.6-20.2l6.2-35
		c0.2-1-0.1-2.1-0.6-2.9c-0.6-0.9-1.5-1.4-2.5-1.6l-5.2-0.9c-2.1-0.4-4.1,1-4.5,3.2c-0.2,1,0,2.1,0.6,2.9c0.6,0.9,1.5,1.4,2.5,1.6
		l1.4,0.2l-5.5,31.2c-1.1,6.2-4.8,11.6-10.1,14.9l-15.6,9.8c-1.1,0.7-2.4,1.1-3.7,1.3c-2.2-0.4-4.5-0.5-6.8-0.4
		c-2.7-7.6-9.4-13.2-17.4-14.5l-3.5-4.5c-2.1-2.7-3.6-5.8-4.2-9.2c5.8,2.8,11.8,3,17.4,0.5c13.5-6.1,20.6-27,20.9-27.9
		c0.7-2-0.4-4.1-2.3-4.9c-0.4-0.2-11-4.1-21.7-4.1c-3.6,0-6.8,0.4-9.7,1.3l0.8-4.4l47,8.3c1,0.2,2.1,0,2.9-0.6
		c0.9-0.6,1.4-1.5,1.6-2.5c0.2-1,0-2.1-0.6-2.9c-0.6-0.9-1.5-1.4-2.5-1.6l-3.7-0.7l11.1-63.1l8,1.4c2.2,0.4,4.2-1.1,4.5-3.2
		l3.1-17.3c0.4-2.1-1-4.1-3.2-4.5l-41-7.2c-1-0.2-2.1,0-2.9,0.6c-0.9,0.6-1.4,1.5-1.6,2.5l-3,17.3c-0.2,1,0,2.1,0.6,2.9
		c0.6,0.9,1.5,1.4,2.5,1.6l8,1.4l-1.4,7.7c-0.2,1,0,2.1,0.6,2.9s1.5,1.4,2.5,1.6c1,0.2,2.1,0,2.9-0.6c0.9-0.6,1.4-1.5,1.6-2.5
		l1.4-7.7l9.6,1.7l-6.9,39.4l-9.6-1.7l3.2-18.2c0.2-1,0-2.1-0.6-2.9s-1.5-1.4-2.5-1.6c-2.1-0.4-4.1,1-4.5,3.2l-7.4,41.9l-22.1-3.9
		c-2.1-0.4-4.1,1-4.5,3.2l-2.6,14.8c-5.6,5.7-6.2,13.5-6,18.1c-2.9,1.4-5.6,3.2-8.2,5.5v-30c7.2-2.8,14.7-9.3,14.7-19.5
		c0-14.5-15.1-30.9-15.7-31.6c-0.7-0.8-1.8-1.3-2.9-1.3s-2.1,0.5-2.9,1.3c-0.6,0.7-15.7,17.1-15.7,31.6c0,10.2,7.5,16.7,14.7,19.5
		v24.2c-2.6-2.3-5.3-4.1-8.2-5.5c0.3-5.3-0.6-16.5-11.3-21.9c-3.6-1.8-8-2.7-13.2-2.7c-10.4,0-20.5,3.7-21.7,4.1
		c-2,0.7-3,2.9-2.3,4.9c0.3,0.9,7.3,21.8,20.9,27.9c2.6,1.2,5.3,1.8,8.1,1.8c7.3,0,13.2-4.2,16.2-6.9c6.1,3,10.1,8.2,11.5,10.1v18.1
		c-2.3,0.5-4.6,1.4-6.6,2.8c-4.1-4.5-10-7-16.2-7c-9.5,0-17.7,5.9-20.8,14.7c-0.5,0-1.1,0-1.6,0c-10.3,0-19.6,4.6-25.8,12.8
		c-1.3-0.3-2.6-0.4-4-0.4c0,0,0,0,0,0c-5.4,0-10.4,2.1-14.2,5.9s-5.9,8.9-5.9,14.2c0,2.2,1.7,3.9,3.9,3.9h190.2
		c2.2,0,3.9-1.7,3.9-3.9C259.6,195.5,250.5,186.5,239.4,186.5z M171.1,166.5c-2-1.3-4.3-2.3-6.6-2.8v-12.3c1.2-1.8,4.8-6.3,10.1-9.4
		c0.1,6.5,2.3,12.8,6.3,18l0.2,0.3C177.3,161.4,173.8,163.5,171.1,166.5z M164.5,101.1v-9.7c0-2.2-1.7-3.9-3.9-3.9s-3.9,1.7-3.9,3.9
		v9.6c-3.4-2-6.9-5.3-6.9-10.8c0-8.1,7-18.1,10.8-22.9c3.8,4.8,10.8,14.8,10.8,22.9C171.4,95.8,167.9,99.1,164.5,101.1z
		 M160.6,171.1c3.1,0,6.1,1.3,8.2,3.6c0.8,0.9,2,1.4,3.3,1.2c1.2-0.1,2.3-0.8,3-1.9c2.6-4.3,7.2-6.9,12.2-6.9c7,0,12.9,5,14.1,11.8
		c0.4,2.1,2.4,3.5,4.5,3.2c1.3-0.2,2.6-0.3,3.9-0.3c8.5,0,16.3,4.3,20.9,11.5c1,1.5,2.9,2.2,4.6,1.6c1.4-0.5,2.8-0.7,4.2-0.7
		c5.3,0,10,3.5,11.7,8.4H70c1.7-5,6.4-8.4,11.7-8.4c1.5,0,2.9,0.3,4.2,0.7c1.7,0.6,3.7,0,4.6-1.6c4.6-7.2,12.4-11.5,20.9-11.5
		c1.3,0,2.6,0.1,3.9,0.3c2.1,0.3,4.1-1.1,4.5-3.2c1.2-6.8,7.1-11.8,14.1-11.8c5,0,9.6,2.6,12.2,6.9c0.6,1,1.7,1.7,3,1.9
		c1.2,0.1,2.4-0.3,3.3-1.2C154.4,172.4,157.4,171.1,160.6,171.1z M196.3,131.7c1.9-0.9,2.8-3.3,1.8-5.2c-0.9-1.9-3.3-2.8-5.2-1.8
		l-12.4,5.9c0.4-4.1,2-8.8,7-11.3c2.5-1.3,5.8-1.9,9.7-1.9c5.7,0,11.6,1.4,15.1,2.4c-2.3,5.4-7.7,16.2-15.3,19.6
		c-1.6,0.7-3.2,1.1-4.9,1.1c-3.2,0-6.1-1.4-8.3-2.8L196.3,131.7z M215.5,103.4l2.8-16l9.6,1.7l-2.8,16L215.5,103.4z M251.2,26.8
		l-1.7,9.6L224.1,32l-7.9-1.4l1.7-9.6L251.2,26.8z M123,120.7c-0.4,0.9-0.5,2-0.2,3s1.1,1.8,2,2.2l12.4,5.9
		c-2.2,1.4-5.1,2.8-8.3,2.8c-1.6,0-3.3-0.4-4.9-1.1c-7.6-3.4-12.9-14.1-15.3-19.6c3.5-1,9.4-2.4,15.1-2.4c3.9,0,7.2,0.6,9.7,1.9
		c5,2.5,6.6,7.3,7,11.3l-12.4-5.9C126.3,117.9,124,118.7,123,120.7z"/>
</g>
</svg>
