<?xml version="1.0" encoding="utf-8"?>
<!-- Generator: Adobe Illustrator 24.0.2, SVG Export Plug-In . SVG Version: 6.00 Build 0)  -->
<svg version="1.1" id="Warstwa_1" xmlns="http://www.w3.org/2000/svg" xmlns:xlink="http://www.w3.org/1999/xlink" x="0px" y="0px"
	 viewBox="0 0 329 239" style="enable-background:new 0 0 329 239;" xml:space="preserve">
<style type="text/css">
	.st0{fill:#FFFFFF;}
</style>
<path class="st0" d="M84.4,195.8h7.2c2,0,3.6-1.7,3.6-3.7s-1.6-3.7-3.6-3.7h-7.2c-2,0-3.6,1.7-3.6,3.7S82.5,195.8,84.4,195.8
	L84.4,195.8z M84.4,195.8L84.4,195.8z"/>
<path class="st0" d="M258,195.8h7.2c2,0,3.6-1.7,3.6-3.7s-1.6-3.7-3.6-3.7H258c-2,0-3.6,1.7-3.6,3.7S256,195.8,258,195.8L258,195.8z
	 M258,195.8L258,195.8z"/>
<path class="st0" d="M84.4,218.1h7.2c2,0,3.6-1.7,3.6-3.7c0-2-1.6-3.7-3.6-3.7h-7.2c-2,0-3.6,1.7-3.6,3.7
	C80.8,216.4,82.5,218.1,84.4,218.1L84.4,218.1z M84.4,218.1L84.4,218.1z"/>
<path class="st0" d="M171.2,195.8h7.2c2,0,3.6-1.7,3.6-3.7s-1.6-3.7-3.6-3.7h-7.2c-2,0-3.6,1.7-3.6,3.7S169.2,195.8,171.2,195.8
	L171.2,195.8z M171.2,195.8L171.2,195.8z"/>
<path class="st0" d="M171.2,218.1h7.2c2,0,3.6-1.7,3.6-3.7c0-2-1.6-3.7-3.6-3.7h-7.2c-2,0-3.6,1.7-3.6,3.7
	C167.6,216.4,169.2,218.1,171.2,218.1L171.2,218.1z M171.2,218.1L171.2,218.1z"/>
<path class="st0" d="M258,218.1h7.2c2,0,3.6-1.7,3.6-3.7c0-2-1.6-3.7-3.6-3.7H258c-2,0-3.6,1.7-3.6,3.7
	C254.4,216.4,256,218.1,258,218.1L258,218.1z M258,218.1L258,218.1z"/>
<g>
	<path class="st0" d="M112.4,127.2c0.7,1.9,2.8,2.9,4.7,2.1l6.7-2.7c0.9-0.4,1.6-1.1,2-2c0.4-0.9,0.4-1.9,0.1-2.8s-1-1.7-1.9-2
		c-0.9-0.4-1.9-0.4-2.8-0.1l-6.7,2.7C112.6,123.1,111.7,125.2,112.4,127.2z"/>
	<path class="st0" d="M279.7,155h-22.6c0.4-2.6,1.3-5.1,2.5-7.5c0.4,0,0.8,0,1.2,0c7.2,0,14-3.7,18-9.9c4-6.2,4.8-14,2.1-20.9
		c4-6.8,3.2-15.4-2.1-21.2c1-9.2-5.1-17.6-14-19.2c-5.7-8.9-15.3-14.2-25.7-14.2c-10.3,0-20,5.3-25.7,14.2c-2,0.4-4,1.1-5.8,2.2
		l14-37.4c0.3-0.9,0.3-2-0.1-2.9c-0.4-0.9-1.2-1.6-2.1-1.9l-10.9-3.7c-1.8-0.6-3.8,0.3-4.5,2.2l-3.9,10.3v-35c0-2-1.6-3.7-3.6-3.7
		h-14.5c-2,0-3.6,1.7-3.6,3.7v35l-3.9-10.3c-0.7-1.9-2.7-2.8-4.5-2.2l-10.8,3.7c-0.9,0.3-1.7,1-2.1,1.9c-0.4,0.9-0.5,2-0.1,2.9
		l15.5,41.4c1.6,4.1,2.3,8.5,2.3,13v4.2c-1.2,0.5-2.4,1-3.5,1.7l-1.2-2.5c-3.2-6.6-9.8-10.8-17-10.8h-8.6c-1.3,0-2.4,0.7-3.1,1.8
		c-0.7,1.1-0.7,2.5-0.2,3.6l3,6.1c3.2,6.6,9.8,10.8,17,10.8h1c-1.3,2.2-2.4,4.6-3,7.2c-2.9-3-6.8-4.6-10.9-4.4
		c-4.1,0.2-7.9,2.2-10.4,5.5l-0.8,1.1c-0.8,1.1-1.6,2.2-2.3,3.4l-3.2-11.4c-1.5-5.4-4.8-10-9.3-13.2c6.5-5,8.9-13.8,6-21.6
		c-3-7.8-10.7-12.6-18.8-11.7c-6.1-5.3-14.5-6.8-22-3.8c-7.5,3-12.7,10-13.7,18.1c-6.6,5-9.1,13.9-6.1,21.7c0.2,0.6,0.5,1.2,0.8,1.8
		c1,4.1,3,7.6,4.3,9.5l-0.8,5.4L53.2,92.5c0.4-3.4,0.8-11.3-3.6-17.4c-5.7-7.8-16.7-8.9-17.2-9l-3.3-0.3L28.4,69
		c-0.1,0.5-2.3,11.3,3.4,19.1c4.4,6,12.1,8.1,15.5,8.7l14.3,19.6l-5.5-0.9c-2.2-2.8-7.5-8.4-14.7-9.5c-9.5-1.5-16.4,5.1-20,8
		c2.2,3.4,6.9,12.2,16.6,13.7c7.6,1.2,14.6-3,17.3-4.9l12.3,1.9L83.2,146l-5.5-0.8c-2.2-2.8-7.5-8.4-14.7-9.5
		c-9.5-1.5-18.1,5.5-18.5,5.8l-2.5,2.1l1.8,2.8c0.3,0.4,6.4,9.7,15.9,11.1c2.5,0.4,4.9,0.2,7.1-0.3c-0.2,0.5-0.4,1-0.4,1.6v12.2v6.3
		v48.4c0,2,1.6,3.7,3.6,3.7h209.8c2,0,3.6-1.7,3.6-3.7v-66.8C283.4,156.6,281.7,155,279.7,155z M37.7,83.8c-2.1-2.9-2.5-6.8-2.5-9.6
		c2.7,0.8,6.3,2.3,8.4,5.3s2.5,6.8,2.5,9.6C43.4,88.2,39.8,86.7,37.7,83.8z M39.1,120.5c-3.6-0.5-5.5-2.9-7.5-4.9
		c2.5-1.3,5-2.9,8.6-2.4c3.5,0.5,6.6,3,8.5,5C46.3,119.6,42.7,121.1,39.1,120.5z M208.5,87.6c1.7-2.4,4.4-3.9,7.3-4.1
		c1.2-0.1,2.3-0.8,2.9-1.9c4.2-7.5,12-12.1,20.4-12.1s16.2,4.6,20.4,12.1c0.6,1.1,1.7,1.8,2.9,1.9c2.9,0.2,5.6,1.7,7.3,4.1
		c1.7,2.4,2.3,5.5,1.7,8.4c-0.3,1.4,0.1,2.8,1.2,3.7c2.3,1.9,3.6,4.8,3.6,7.8c0,2.4-0.8,4.6-2.3,6.5c-0.9,1.2-1.1,2.8-0.4,4.1
		c2.4,4.6,2.3,10.2-0.3,14.7c-2.6,4.5-7.3,7.2-12.4,7.3c-3.2,0-6.3-1.1-8.9-3.1c-0.5-0.4-1.1-0.7-1.8-0.8c-3.2-0.4-6.3-1.7-8.9-3.7
		c-1.3-1-3.1-1-4.3,0c-2.6,2-5.7,3.3-8.9,3.7c-0.6,0.1-1.2,0.4-1.8,0.8c-2.5,2-5.7,3.1-8.9,3.1c-5.1,0-9.8-2.8-12.4-7.3
		c-2.6-4.5-2.7-10-0.3-14.7c0.7-1.3,0.5-3-0.4-4.1c-2.6-3.3-3-7.9-0.9-11.6l0,0c0.6-1,1.3-1.9,2.2-2.7c1.1-0.9,1.5-2.3,1.2-3.7
		C206.1,93.1,206.7,90.1,208.5,87.6z M252.3,145.8c-1.3,2.9-2.2,6-2.6,9.2H246c0-3.9,1-7.7,2.8-11.2
		C249.9,144.6,251.1,145.2,252.3,145.8z M241.8,141.4c-1.1,2.3-2,4.8-2.5,7.3c-0.5-2.6-1.4-5.2-2.6-7.5c0.8-0.4,1.5-0.8,2.3-1.3
		C239.9,140.5,240.9,141,241.8,141.4z M232.7,155h-3.8c-0.4-3.3-1.3-6.4-2.7-9.4c1.2-0.6,2.4-1.3,3.5-2.1
		C231.7,147,232.7,150.9,232.7,155z M221.6,155h-10.8c-0.5-2.5-1.6-4.9-3.1-7l-3.9-5.3c3.8,3.1,8.6,4.8,13.5,4.8
		c0.6,0,1.1,0,1.7-0.1C220.3,149.8,221.2,152.3,221.6,155z M191,126.9l5-12.6c0.3,0.9,0.8,1.8,1.3,2.6c-1.9,4.7-2.1,9.9-0.7,14.8
		v12.2c0,0.8,0.3,1.6,0.7,2.2l4.7,6.4c0.6,0.8,1,1.6,1.3,2.5H187l1.8-3C193.4,144.4,194.2,135.1,191,126.9z M209.5,40.8l4,1.4
		l-14.1,37.7c-1.5,4.2-2.5,8.5-2.7,13l-10.3,26.1l-0.2-0.2c-1.1-1.4-2.5-2.7-4.1-3.6v-5.6L209.5,40.8z M185.7,64V13.9h7.2V63
		c0,0.4,0,0.7,0.2,1.1l-3.8,10l-3.6-9.7C185.7,64.2,185.7,64.1,185.7,64z M165.1,42.2l4-1.4l14.7,39.3c0.6,1.5,1,3.1,1.3,4.7L182,92
		c-0.3-4.2-1.2-8.3-2.7-12.2L165.1,42.2z M174.9,107.9v5.3c-2.4,0-4.8,0.7-6.8,1.9C169.6,112.1,172,109.6,174.9,107.9z M161.3,103
		c-4.5,0-8.5-2.6-10.5-6.7l-0.4-0.8h2.7c4.5,0,8.5,2.6,10.5,6.7l0.4,0.8H161.3z M142.7,124.4l0.9-1.1c1.4-1.8,3.6-2.8,5.8-2.7
		s4.3,1.3,5.6,3.2c1.6,2.4,4.2,3.9,7.1,3.9c2.8,0,5.5-1.5,7.1-3.9c1.8-2.7,5.2-3.9,8.2-2.8c0,0,0,0,0.1,0c1.2,0.5,2.3,1.3,3.1,2.3
		l0.8,1.1c5.3,6.8,5.8,16.2,1.3,23.6l-4.2,7h-32.8l-4.2-7C136.9,140.6,137.5,131.2,142.7,124.4z M135.3,151.9l1.8,3h-3.8
		c-0.2-6.4-3.6-11.9-5.2-14.2l1-0.4c1-0.4,1.7-1.2,2.1-2.2C131.3,143.1,132.7,147.8,135.3,151.9z M118.8,155c0.8-3.1,3-5.8,4.8-7.5
		c1.1,2,2.2,4.7,2.3,7.5H118.8z M131.2,135.7L131.2,135.7C131.2,135.7,131.2,135.7,131.2,135.7L131.2,135.7z M124.6,113.8l5.8,20.4
		c0,0.1,0,0.2,0.1,0.2c-1-1.2-2.6-1.6-4-1l-3.4,1.4c-1.9,0.8-2.8,2.9-2,4.8c0,0.1,0.1,0.2,0.1,0.3c-2.7,2.1-8.7,7.5-9.8,14.9
		c0,0,0,0.1,0,0.1h-2.6l-2.6-5.4l6.1-2.4c0.9-0.4,1.6-1.1,2-2c0.4-0.9,0.4-1.9,0.1-2.8c-0.3-0.9-1-1.7-1.9-2.1
		c-0.9-0.4-1.9-0.4-2.8-0.1l-6.7,2.7l-0.1-0.3c3-2.5,7.7-7.5,8.7-14c1.5-9.5-5.5-18.1-5.8-18.5l-2.1-2.5l-2.8,1.8
		c-0.3,0.2-4.7,3.1-7.9,7.9c0.1-1.6,0.5-3.2,1.1-4.8c0.4-1.2,1-2.3,1.7-3.4c1.3-1.1,2.5-2.4,3.5-3.8c1.2-0.9,2.5-1.7,4-2.3h0l0,0
		c1.4-0.6,2.9-0.9,4.4-1.1c1.7,0.4,3.4,0.5,5.1,0.4c1.2,0.3,2.4,0.7,3.5,1.3C120.3,105.6,123.4,109.3,124.6,113.8z M82.5,97.9
		c-0.1,0.6-0.3,1.3-0.5,1.8c-0.6,1.8-1.6,3.3-2.7,4.6c-1.6-0.9-3-2.2-4-3.8c0,0,0,0,0,0c-0.2-1.3-0.3-2.5-0.1-3.8
		c0.5-3.6,3-6.6,5-8.5c0.6,1.1,1.3,2.5,1.7,4C82.5,94,82.8,95.9,82.5,97.9z M89,102.2c0.6,0.4,1.3,0.8,1.8,1.2
		c-0.1,0.1-0.2,0.2-0.2,0.3c-0.9,0.6-1.9,1.1-3,1.5C88.1,104.2,88.6,103.2,89,102.2z M96.9,126.3c0.5-3.5,3-6.6,5-8.5
		c1.3,2.5,2.8,6.1,2.2,9.6c0,0.2-0.1,0.3-0.1,0.5c-0.7,3.3-3,6.2-4.9,8c-1-1.8-2-4.1-2.3-6.6C96.8,128.4,96.8,127.4,96.9,126.3z
		 M100.1,153.8l0.6,1.2h-0.7L100.1,153.8z M90,68.3c5.4-2.2,11.6-0.8,15.6,3.5c0.9,0.9,2.2,1.3,3.4,1c5.2-1.2,10.5,1.7,12.5,6.8
		c1.2,3.2,1,6.7-0.7,9.7c-1.7,2.9-4.5,4.9-7.8,5.4c-0.1,0-0.3,0-0.4-0.1c0.8-3.6,2.4-7,4.9-9.8c0.6-0.7,1-1.7,0.9-2.7
		c0-1-0.5-1.9-1.2-2.6c-0.7-0.7-1.7-1-2.6-1c-1,0.1-1.9,0.5-2.5,1.2c-3.4,3.9-5.7,8.7-6.7,13.8c-0.6,0.1-1.1,0.3-1.6,0.6l-5.1-13.4
		c-0.7-1.9-2.8-2.9-4.7-2.1c-1.9,0.8-2.8,2.9-2,4.8L97,96.9c-0.6,0.1-1.1,0.3-1.6,0.7c-1.7-1.3-3.6-2.4-5.6-3.3
		c-0.8-7.5-5.6-13.6-5.9-13.9l-2.1-2.5l-0.6,0.4C82.5,73.8,85.7,70.1,90,68.3z M77.9,126.3l1.9-12.2c0.4-0.3,0.9-0.7,1.5-1.2
		c1.6,0.3,3.3,0.3,4.9,0.2c-1.2,5.5-0.6,11.2,1.8,16.2l2.2,4.6c1.1,3.8,2.9,6.9,4.1,8.6l-0.8,5.4L77.9,126.3z M60.8,150.1
		c-3.5-0.6-6.6-3-8.5-5c2.5-1.3,6.1-2.8,9.6-2.2c3.5,0.5,6.6,3,8.5,5C68,149.2,64.3,150.7,60.8,150.1z M77,152.4l12.3,1.9l0.4,0.6
		H72.7C74.6,154.1,76.1,153.1,77,152.4z M276.1,221.8H73.6v-14.9h54.2h1.5h146.8V221.8z M276.1,199.5H131.4h-9.1H73.6v-14.9h1.3
		h19.3h17.3h10.1h154.6V199.5z M276.1,177.2H122.7h-7.4h-0.1H91.8h-15h-3.2v-10.5v-4.4h21.6h9.1h7.4h7.6h4.2h8.3h144.2V177.2z"/>
	<path class="st0" d="M227.6,91.6c1.9,0.7,4-0.3,4.6-2.3c1-3,3.8-5,6.8-5c3.1,0,5.8,2,6.8,5c0.7,1.9,2.7,2.9,4.6,2.3
		c1.9-0.7,2.9-2.8,2.2-4.7c-2.1-5.9-7.5-9.9-13.6-9.9c-6.1,0-11.6,4-13.6,9.9C224.7,88.8,225.7,90.9,227.6,91.6z"/>
	<path class="st0" d="M221,117.8c2,0,3.6-1.7,3.6-3.7c0-2-1.6-3.7-3.6-3.7c-2,0-3.6-1.7-3.6-3.7s1.6-3.7,3.6-3.7
		c2,0,3.6-1.7,3.6-3.7c0-2-1.6-3.7-3.6-3.7c-6,0-10.8,5-10.8,11.1S215,117.8,221,117.8z"/>
	<path class="st0" d="M91.7,166.1h-3.6h-3.6c-2,0-3.6,1.7-3.6,3.7c0,1,0.4,1.9,1,2.5c0.7,0.7,1.6,1.2,2.6,1.2h2.4h4.8
		c1.8,0,3.3-1.3,3.6-3.1c0-0.2,0-0.4,0-0.6C95.3,167.8,93.7,166.1,91.7,166.1z"/>
	<path class="st0" d="M258,173.5h7.2c2,0,3.6-1.7,3.6-3.7s-1.6-3.7-3.6-3.7H258c-2,0-3.6,1.7-3.6,3.7S256,173.5,258,173.5z"/>
	<path class="st0" d="M171.2,173.5h7.2c2,0,3.6-1.7,3.6-3.7s-1.6-3.7-3.6-3.7h-7.2c-2,0-3.6,1.7-3.6,3.7S169.2,173.5,171.2,173.5z"
		/>
	<path class="st0" d="M151.6,147.5c1.5,0,2.8-0.9,3.3-2.3c0.6-1.4,0.3-3-0.8-4c-1.1-1.1-1.3-2.8-0.6-4.1l1.3-2.7
		c0.9-1.8,0.2-4-1.6-5c-1.8-0.9-3.9-0.2-4.8,1.6l-1.3,2.7c-2.1,4.2-1.3,9.3,2,12.7C149.7,147.1,150.7,147.5,151.6,147.5z"/>
</g>
</svg>
