<?xml version="1.0" encoding="utf-8"?>
<!-- Generator: Adobe Illustrator 22.1.0, SVG Export Plug-In . SVG Version: 6.00 Build 0)  -->
<svg version="1.1" id="Warstwa_1" xmlns="http://www.w3.org/2000/svg" xmlns:xlink="http://www.w3.org/1999/xlink" x="0px" y="0px"
	 viewBox="0 0 329 239" style="enable-background:new 0 0 329 239;" xml:space="preserve">
<style type="text/css">
	.st0{fill:#FFFFFF;}
</style>
<g>
	<path class="st0" d="M143.7,101.3c-1.8-3.6-6.6-4.5-9.6-1.8c-3.7,3.3-6.4,7.1-8.4,10.3c-2.8,4.6-5,9.7-6.4,14.7
		c-0.7,2.6,1,5.3,3.7,5.7l3,0.5c2.3,0.4,4.6-1,5.2-3.3c2.1-7.4,6.4-14.6,11-18.8C144.4,106.8,144.9,103.8,143.7,101.3L143.7,101.3z
		 M140.6,95.1"/>
	<path class="st0" d="M231.9,89.8c-7.2-8.7-16.1-14.9-25.7-18.2c-1-0.4-1.4-1.7-0.6-2.5c2.5-2.5,4.7-5.4,6.6-8.6
		c6.4-10.8,8.1-22.9,9-29.4c0.1-0.7,0.2-1.4,0.3-1.9l1.1-7.1c0.2-1.1-0.8-2-1.9-1.7l-6.9,2c-0.5,0.2-1.2,0.3-1.9,0.5
		c-6.4,1.7-18.2,4.9-28.1,12.5c-5.2,4-9.2,8.7-12,14.1c-0.5,1-1.8,1.1-2.5,0.2c-2.5-3.2-5.1-5.7-7.5-7.6c-4.3-3.5-10.7-1.8-12.8,3.3
		l-1,2.3l0,0c0.6,0.2,12.2,5.4,17.8,20.7c0.4,1.1-0.6,2.3-1.8,2c-4-1-8.1-1.5-12.3-1.5c-16.1,0-31.2,7.5-42.5,21.1
		c-11,13.3-17.1,30.8-17.1,49.5c0,18.6,6.1,36.2,17.1,49.5c11.3,13.6,26.4,21.1,42.5,21.1c6.5,0,12.8-1.2,18.8-3.6
		c6,2.4,12.4,3.6,18.8,3.6c16.1,0,31.2-7.5,42.5-21.1c11-13.3,17.1-30.8,17.1-49.5C249,120.6,242.9,103.1,231.9,89.8L231.9,89.8z
		 M191.2,45c4.4-3.4,9.5-5.7,14.1-7.4c1.1-0.4,2.3,0.6,2,1.8c-1.1,4.8-2.8,10.1-5.7,14.9c-4.7,8-11.4,12.6-20.3,14.2
		c-0.9,0.2-1.8-0.6-1.7-1.5C180,57.8,183.8,50.6,191.2,45L191.2,45z M189.4,197.5c-1.3,0-2.5-0.1-3.8-0.2c0.3-0.3,0.7-0.6,1-0.9
		c8.2-7,14.7-16.2,19-26.9c1.3-3.3-0.5-7.1-3.9-8.1h0c-3.1-0.9-6.3,0.7-7.5,3.6c-3.6,8.8-8.9,16.4-15.5,22.1
		c-7.9,6.8-17.3,10.4-26.9,10.4c-26.1,0-47.4-26.1-47.4-58.3c0-32.1,21.2-58.3,47.4-58.3c10.3,0,20.2,4.1,28.4,11.6
		c2.3,2.1,5.8,2.2,8.2,0.1l0,0c2.7-2.4,2.8-6.6,0.2-9.1c0,0-0.1-0.1-0.1-0.1c-1-0.9-0.4-2.6,1-2.6l0,0c26.1,0,47.4,26.1,47.4,58.3
		C236.7,171.4,215.5,197.5,189.4,197.5L189.4,197.5z M189.4,197.5"/>
</g>
</svg>
