<?xml version="1.0" encoding="utf-8"?>
<!-- Generator: Adobe Illustrator 22.1.0, SVG Export Plug-In . SVG Version: 6.00 Build 0)  -->
<svg version="1.1" id="Warstwa_1" xmlns="http://www.w3.org/2000/svg" xmlns:xlink="http://www.w3.org/1999/xlink" x="0px" y="0px"
	 viewBox="0 0 329 239" style="enable-background:new 0 0 329 239;" xml:space="preserve">
<style type="text/css">
	.st0{fill:#FFFFFF;}
</style>
<path class="st0" d="M162.8,64.1h-2.5V56c0-2.2-1.8-4-4-4h-43.5c-2.2,0-4,1.8-4,4v8.1h-2.5c-2.2,0-4,1.8-4,4v103.7c0,2.2,1.8,4,4,4
	h2.5v8.1c0,2.2,1.8,4,4,4h43.5c2.2,0,4-1.8,4-4v-8.1h2.5c2.2,0,4-1.8,4-4V68.2C166.8,65.9,165,64.1,162.8,64.1L162.8,64.1z
	 M110.3,167.8v-16.4l36,16.4H110.3z M110.3,142.5v-10.2l48.5,22.1v10.2L110.3,142.5z M110.3,123.5v-10.2l48.5,22.1v10.2L110.3,123.5
	z M110.3,104.5V94.4l48.5,22.1v10.2L110.3,104.5z M110.3,85.5V75.3l48.5,22.1v10.2L110.3,85.5z M122.8,72.2h36v16.4L122.8,72.2z
	 M116.8,60.1h35.4v4.1h-35.4V60.1z M152.2,179.9h-35.4v-4.1h35.4V179.9z M152.2,179.9"/>
<path class="st0" d="M226,74.9c0.7-2.8,0.8-5.7,0-8.1c-0.9-3-2.8-5-5.3-5.7c-2.5-0.7-5.2,0.2-7.4,2.4c-1.8,1.8-3.2,4.3-4,7.1
	c-1.2,4.6,0.9,10.5,2,13l-21.7,83.1c-0.5,1.8,0.6,3.6,2.4,4.1c1.8,0.5,3.6-0.6,4.1-2.4l21.7-83.1C220,83.6,224.8,79.5,226,74.9
	L226,74.9z M219,67.5c0.4,0.3,1.3,2.4,0.5,5.7c-0.4,1.4-1.7,3-3.1,4.5c-0.6-1.9-0.9-4-0.6-5.4C216.6,69,218.5,67.6,219,67.5
	L219,67.5z M219,67.5"/>
</svg>
