<?xml version="1.0" encoding="utf-8"?>
<!-- Generator: Adobe Illustrator 22.1.0, SVG Export Plug-In . SVG Version: 6.00 Build 0)  -->
<svg version="1.1" id="Warstwa_1" xmlns="http://www.w3.org/2000/svg" xmlns:xlink="http://www.w3.org/1999/xlink" x="0px" y="0px"
	 viewBox="0 0 329 239" style="enable-background:new 0 0 329 239;" xml:space="preserve">
<style type="text/css">
	.st0{fill:#FFFFFF;}
</style>
<path class="st0" d="M215.2,107.1l14.1,14.1c2,2,5.1,1.9,9-0.3c2.7-1.5,5.7-3.9,8.7-6.8c2.9-2.9,12-12.8,7.2-17.7l-66.9-67
	c-2-2-5.1-1.9-9,0.3c-2.5,1.4-5.4,3.7-8.2,6.4V37l-0.9,0c-2.7,2.8-5,5.7-6.4,8.2c-2.2,4-2.3,7-0.3,9l14.1,14.1l-0.6,1
	c-2,3.6-2.6,8-1.7,12.9c0.4,2.2,1.2,4.5,2.2,6.7l0.4,1l-21.5,21.5l-0.8-0.2c-0.9-0.2-1.9,0.1-2.5,0.7L128.2,136l-54.1,54.1
	c-2.6,2.6-4,6-4,9.6s1.4,7,4,9.6c2.6,2.6,6,4,9.6,4c3.6,0,7-1.4,9.6-4l66-66l0.2-0.2l11.8-11.8c0.5-0.5,0.8-1.2,0.8-1.9
	c0-0.2,0-0.4-0.1-0.6l-0.2-0.8l21.4-21.4l1,0.5c2.4,1.1,4.8,1.9,7.2,2.4c4.9,0.9,9.4,0.4,12.9-1.7L215.2,107.1z M176.6,37.5
	c2.2-1.9,4.5-3.3,6-3.8l0.9-0.3l0.7,0.7l66.1,66.1L250,101c-0.5,1.5-2,3.8-3.8,6l-1.1,1.3l-69.7-69.8L176.6,37.5z M166.3,50.5
	l0.3-0.9c0.5-1.5,2-3.8,3.8-6l1.1-1.3l69.8,69.8l-1.3,1.1c-2.2,1.9-4.5,3.3-6,3.8l-0.9,0.3L166.3,50.5z M89.4,205.4
	c-1.6,1.6-3.7,2.4-5.7,2.4c-2.1,0-4.2-0.8-5.7-2.4c-1.5-1.5-2.4-3.6-2.4-5.7s0.8-4.2,2.4-5.7l40.3-40.3l11.5,11.5L89.4,205.4z
	 M133.6,161.2l-11.5-11.5l8.1-8.1l11.5,11.5L133.6,161.2z M145.5,149.3L134,137.8l8.1-8.1l11.5,11.5L145.5,149.3z M157.4,137.4
	l-11.5-11.5l8.1-8.1l11.5,11.5L157.4,137.4z M167.9,124l-8.7-8.7l20.5-20.5l1,1.3c1,1.2,2,2.4,3.1,3.5c1,1,2.1,2,3.2,2.8l1.3,1
	L167.9,124z M208.9,104c-1.1,0.3-2.2,0.4-3.2,0.4c-1.3,0-2.5-0.2-3.4-0.3c-2.7-0.5-5.3-1.5-8-3.1l-0.1-0.1c-0.1-0.1-0.2-0.1-0.3-0.2
	l-0.1-0.1c-2.2-1.3-4.2-2.9-6.1-4.8c-6.4-6.4-9.7-14.9-8.2-21.1l0.6-2.6l31.2,31.2L208.9,104z"/>
</svg>
