<?xml version="1.0" encoding="utf-8"?>
<!-- Generator: Adobe Illustrator 22.1.0, SVG Export Plug-In . SVG Version: 6.00 Build 0)  -->
<svg version="1.1" id="Warstwa_1" xmlns="http://www.w3.org/2000/svg" xmlns:xlink="http://www.w3.org/1999/xlink" x="0px" y="0px"
	 viewBox="0 0 329 239" style="enable-background:new 0 0 329 239;" xml:space="preserve">
<style type="text/css">
	.st0{fill:#FFFFFF;}
</style>
<path class="st0" d="M185.7,134.8C185.6,134.8,185.6,134.8,185.7,134.8c-2.5,0-4.5,2-4.6,4.4l0,0.2c0,2.5,2,4.5,4.4,4.5c0,0,0,0,0,0
	c2.5,0,4.5-2,4.5-4.4l0-0.1C190.1,136.9,188.1,134.8,185.7,134.8L185.7,134.8z M185.7,134.8"/>
<path class="st0" d="M188.1,121c-0.5-2-1-4-1.6-6c-5.2-16.7-13.8-31.8-25.4-44.9c-1.6-1.9-4.5-2-6.3-0.4c-1.9,1.6-2,4.5-0.4,6.3
	c10.7,12.2,18.7,26.2,23.5,41.7c0.5,1.7,1,3.5,1.4,5.3c0.5,2.1,2.3,3.5,4.4,3.5c0.3,0,0.7,0,1-0.1
	C187.2,125.8,188.7,123.4,188.1,121L188.1,121z M188.1,121"/>
<path class="st0" d="M172,162.7h-2.5c-2.5,0-4.5,2-4.5,4.5s2,4.5,4.5,4.5h2.5c2.5,0,4.5-2,4.5-4.5S174.5,162.7,172,162.7L172,162.7z
	 M172,162.7"/>
<path class="st0" d="M137.8,165.1h-2.5c-2.5,0-4.5,2-4.5,4.5c0,2.5,2,4.5,4.5,4.5h2.5c2.5,0,4.5-2,4.5-4.5
	C142.3,167.1,140.3,165.1,137.8,165.1L137.8,165.1z M137.8,165.1"/>
<path class="st0" d="M130.2,184.1h-2.5c-2.5,0-4.5,2-4.5,4.5c0,2.5,2,4.5,4.5,4.5h2.5c2.5,0,4.5-2,4.5-4.5
	C134.7,186.1,132.7,184.1,130.2,184.1L130.2,184.1z M130.2,184.1"/>
<path class="st0" d="M105.8,165.1h-2.5c-2.5,0-4.5,2-4.5,4.5c0,2.5,2,4.5,4.5,4.5h2.5c2.5,0,4.5-2,4.5-4.5
	C110.3,167.1,108.3,165.1,105.8,165.1L105.8,165.1z M105.8,165.1"/>
<path class="st0" d="M159.1,181.1h-2.5c-2.5,0-4.5,2-4.5,4.5c0,2.5,2,4.5,4.5,4.5h2.5c2.5,0,4.5-2,4.5-4.5
	C163.5,183.1,161.5,181.1,159.1,181.1L159.1,181.1z M159.1,181.1"/>
<path class="st0" d="M269.9,68.3c-6.8-20.9-26.1-34.9-48.1-34.9c-17.3,0-33.2,8.7-42.6,23.3l-3,4.6c-0.7-0.8-1.4-1.7-2.2-2.5
	l-13-14.7c-10.9-12.4-26-20.2-42.4-22c-16.4-1.8-32.8,2.6-46.2,12.3c-27.3,19.9-35.2,57-18.4,86.4l3.1,5.3
	c8.6,14.9,15.1,30.9,19.5,47.6c6.3,23.8,26,41.3,50.4,44.7c3.1,0.4,6.2,0.6,9.4,0.6c10.6,0,21-2.5,30.5-7.3
	c4.8-2.4,9.2-5.3,13.2-8.7l11.2,4.4c7.2,2.8,14.6,4.2,22.1,4.2c5.6,0,11.2-0.8,16.7-2.3c12.9-3.7,24-11.3,32.1-22
	c7.9-10.5,12.3-23.6,12.3-36.7V97.1C274.4,87.3,272.9,77.6,269.9,68.3L269.9,68.3z M136.2,210.1c-2.6,0-5.3-0.2-8-0.5
	c-20.8-2.9-37.6-17.8-42.9-38.1c-4.6-17.4-11.4-34.1-20.4-49.8l-3.1-5.3C47.3,91.1,54.1,59,77.8,41.7c10.2-7.4,22-11.1,33.8-11.1
	c15.9,0,31.5,6.6,42.8,19.4l13,14.7c12.4,14,21.5,30.1,27,47.9c6.9,22,4.6,46.3-6.4,66.7C177.7,198.4,157.5,210.1,136.2,210.1
	L136.2,210.1z M265.5,150.6c0,11.2-3.7,22.4-10.5,31.3c-14,18.5-38.9,25.6-60.5,17.2l-7.5-2.9c3.4-3.8,6.3-8.1,8.8-12.6
	c6.1-11.2,9.8-23.4,11-36.1c1.2-12.7-0.1-25.3-3.9-37.5C198.2,95,191.2,81.2,182,68.7l4.7-7.3c7.7-12,20.8-19.2,35.1-19.2
	c18.1,0,34,11.5,39.6,28.7c2.7,8.4,4.1,17.2,4.1,26V150.6z M265.5,150.6"/>
<path class="st0" d="M219.7,162.7h-2.5c-2.5,0-4.5,2-4.5,4.5s2,4.5,4.5,4.5h2.5c2.5,0,4.5-2,4.5-4.5S222.1,162.7,219.7,162.7
	L219.7,162.7z M219.7,162.7"/>
<path class="st0" d="M212,181.7h-2.5c-2.5,0-4.5,2-4.5,4.5c0,2.5,2,4.5,4.5,4.5h2.5c2.5,0,4.5-2,4.5-4.5
	C216.5,183.7,214.5,181.7,212,181.7L212,181.7z M212,181.7"/>
<path class="st0" d="M240.9,178.7h-2.5c-2.5,0-4.5,2-4.5,4.5c0,2.5,2,4.5,4.5,4.5h2.5c2.5,0,4.5-2,4.5-4.5
	C245.4,180.7,243.4,178.7,240.9,178.7L240.9,178.7z M240.9,178.7"/>
<path class="st0" d="M221.8,51.3c-2.5,0-4.5,2-4.5,4.5c0,2.5,2,4.5,4.5,4.5h0c2.5,0,4.5-2,4.5-4.5C226.3,53.3,224.2,51.3,221.8,51.3
	L221.8,51.3z M221.8,51.3"/>
<path class="st0" d="M252.8,73.8c-2-6.2-5.8-11.7-11-15.7c-2-1.5-4.8-1.2-6.3,0.8c-1.5,2-1.2,4.8,0.8,6.3c3.8,2.9,6.5,6.9,8,11.4
	c2.2,6.6,3.3,13.5,3.3,20.5v21c0,2.5,2,4.5,4.5,4.5c2.5,0,4.5-2,4.5-4.5v-21C256.5,89.2,255.3,81.4,252.8,73.8L252.8,73.8z
	 M252.8,73.8"/>
</svg>
