<?xml version="1.0" encoding="utf-8"?>
<!-- Generator: Adobe Illustrator 22.1.0, SVG Export Plug-In . SVG Version: 6.00 Build 0)  -->
<svg version="1.1" id="Warstwa_1" xmlns="http://www.w3.org/2000/svg" xmlns:xlink="http://www.w3.org/1999/xlink" x="0px" y="0px"
	 viewBox="0 0 329 239" style="enable-background:new 0 0 329 239;" xml:space="preserve">
<style type="text/css">
	.st0{fill:#FFFFFF;}
</style>
<path class="st0" d="M297.6,132.9c-1.7-2.9-4.3-5.1-7.4-6.4L258,59.8c-3.6-7.5-9.2-12.9-16.5-16.2c-5.4-2.5-11.7-3.6-19.2-3.6
	l-26.8,0.1c-3.6,0-7.1,1.2-9.9,3.5c-3.9,3.4-5.8,8.3-5.1,13.5c0.3,2.5,1.4,5,2.9,7c2.9,3.7,7.2,5.8,11.8,5.8h0.1l27.1-0.1
	c3.1,0,5.3,0.3,6.7,0.9c0.5,0.2,1.2,0.7,1.9,2.1l22.9,47.3c-5.2-0.4-10.4-0.6-15.5-0.6c-8.1,0-16.5,0.5-24.9,1.6
	c-8.3,1-16.6,2.5-24.5,4.5c-4.1,1-7.7,3.7-9.8,7.2c-2,3.4-2.5,7.4-1.4,11.2c0.3,0.9,0.6,1.8,1,2.6c-2.2-0.4-4.5-0.5-7.1-0.5
	c-2.5,0-4.9,0.2-7.1,0.5c0.4-0.8,0.8-1.7,1-2.6c1.1-3.8,0.6-7.7-1.4-11.2c-2.1-3.6-5.6-6.2-9.8-7.2c-7.9-2-16.2-3.5-24.5-4.5
	c-8.4-1-16.8-1.6-24.9-1.6c-5.1,0-10.3,0.2-15.5,0.6l22.9-47.3c0.7-1.4,1.4-1.9,1.9-2.1c1.4-0.6,3.7-0.9,6.7-0.9l27.1,0.1h0.1
	c8.2,0,14.9-6.6,14.9-14.8c0-8.2-6.6-15-14.8-15L121.5,40c-7.5,0-13.8,1.1-19.2,3.6c-7.3,3.3-12.8,8.7-16.4,16
	c-1.1,2.3-0.5,5.1,1.6,6.5c2.6,1.7,6,0.7,7.3-2c2.6-5.4,6.4-9.1,11.6-11.5c4.1-1.9,9-2.7,15.1-2.7l27,0.1c1.1,0,2.3,0.3,3.2,1
	c1.7,1.3,2.3,3.5,1.6,5.6c-0.7,2-2.6,3.2-4.7,3.2h0l-27.1-0.1c-4.7,0-8.1,0.6-10.9,1.8c-2.9,1.3-5.2,3.6-6.7,6.8l-25.6,52.9
	c-4.1,0.5-8.1,1.2-12,2l9.1-18.8c1.2-2.5,0.2-5.5-2.3-6.7c-2.5-1.2-5.5-0.2-6.7,2.3l-12.7,26.2c-3.1,1.3-5.7,3.6-7.4,6.4
	c-2,3.4-2.5,7.4-1.4,11.2c1.7,5.9,6.9,10,12.9,10.8c0,12.1,0.1,24.4,3.6,34.5c4.6,13.1,14.2,19.9,28.6,20.2c1.3,0,2.7,0,4,0
	c16.4,0,32.8-2,44.3-13.3c6.2-6.1,10.4-14.2,12.7-24.6c3.9-13.7,12.8-15.6,21.1-15.6c8.3,0,17.2,1.9,21.1,15.6
	c2.3,10.4,6.5,18.5,12.7,24.6c11.5,11.3,27.9,13.3,44.3,13.3c1.3,0,2.7,0,4,0c14.4-0.2,24-7,28.6-20.2c3.5-10.1,3.6-22.5,3.6-34.5
	c6-0.8,11.2-5,12.9-10.8C300.1,140.3,299.6,136.3,297.6,132.9L297.6,132.9z M54.3,141.3c-0.4-1.5,0-2.7,0.4-3.4
	c0.7-1.3,2-2.2,3.5-2.6c7.5-1.9,15.4-3.3,23.3-4.3c8-1,16-1.5,23.7-1.5c7.7,0,15.7,0.5,23.7,1.5c7.9,1,15.8,2.4,23.3,4.3
	c1.5,0.4,2.8,1.3,3.5,2.6c0.4,0.8,0.9,2,0.4,3.4c-0.8,2.7-4,4.3-7.1,3.6c-7.2-1.8-14.6-3.2-21.7-4.1c-7.1-0.9-14.6-1.3-22.1-1.3
	c-7.6,0-15,0.4-22.1,1.3c-7.2,0.9-14.5,2.2-21.7,4.1C58.4,145.6,55.1,144,54.3,141.3L54.3,141.3z M131.1,189.1
	c-9.3,9.1-23.2,10.8-41.2,10.4c-20.8-0.4-22.4-18.4-22.4-45.9c5.6-1.3,11.2-2.3,16.8-2.9c6.7-0.8,13.8-1.2,20.9-1.2
	c7.1,0,14.2,0.4,20.9,1.2c5.5,0.7,11.1,1.7,16.7,2.9C142.5,166,140.4,180.1,131.1,189.1L131.1,189.1z M233.3,61.7
	c-2.8-1.3-6.3-1.8-10.9-1.8L195.3,60h0c-2.1,0-4-1.3-4.7-3.2c-0.7-2.1-0.1-4.3,1.6-5.6c0.9-0.7,2-1,3.2-1l27-0.1
	c6.1,0,11,0.9,15.1,2.7c5.2,2.4,9,6.1,11.6,11.5l28.7,59.2c-4-0.8-8-1.4-12-2l-25.6-52.9C238.5,65.3,236.2,63,233.3,61.7L233.3,61.7
	z M289.4,141.3c-0.8,2.7-4,4.3-7.1,3.6c-6.9-1.7-13.8-3-20.6-3.9c-2.5-0.3-5,1.1-5.6,3.6c-0.8,3,1.2,5.9,4.2,6.3
	c5.2,0.7,10.6,1.6,15.9,2.8c0.1,27.5-1.5,45.6-22.4,45.9c-18,0.3-31.9-1.3-41.2-10.4c-9.2-9.1-11.4-23.1-11.8-35.5
	c5.2-1.2,10.5-2.1,15.7-2.8c2.6-0.3,4.6-2.5,4.5-5.1c-0.1-3-2.7-5.2-5.6-4.8c-6.9,0.9-13.9,2.2-20.8,3.9c-3.1,0.8-6.3-0.9-7.1-3.6
	c-0.4-1.5,0-2.7,0.4-3.4c0.7-1.3,2-2.2,3.5-2.6c7.5-1.9,15.4-3.3,23.3-4.3c8-1,16-1.5,23.7-1.5c7.7,0,15.7,0.5,23.7,1.5
	c7.9,1,15.8,2.4,23.3,4.3c1.5,0.4,2.8,1.3,3.5,2.6C289.4,138.6,289.9,139.8,289.4,141.3L289.4,141.3z M289.4,141.3"/>
<path class="st0" d="M77.7,86.4c0.9,0.6,1.8,0.8,2.7,0.8c1.8,0,3.6-1,4.5-2.8v0c0.9-1.9,0.7-4.2-0.8-5.6c-2.8-2.8-7.3-1.6-8.4,1.9
	C75,82.8,75.9,85.2,77.7,86.4L77.7,86.4z M77.7,86.4"/>
<path class="st0" d="M238.5,139.5L238.5,139.5c-2.1,0-4,1.3-4.7,3.2c-1.2,3.6,1.5,6.9,4.9,6.7c2.6-0.1,4.7-2.3,4.8-4.8
	C243.5,141.8,241.3,139.5,238.5,139.5L238.5,139.5z M238.5,139.5"/>
</svg>
