<?xml version="1.0" encoding="utf-8"?>
<!-- Generator: Adobe Illustrator 24.0.2, SVG Export Plug-In . SVG Version: 6.00 Build 0)  -->
<svg version="1.1" id="Warstwa_1" xmlns="http://www.w3.org/2000/svg" xmlns:xlink="http://www.w3.org/1999/xlink" x="0px" y="0px"
	 viewBox="0 0 329 239" style="enable-background:new 0 0 329 239;" xml:space="preserve">
<style type="text/css">
	.st0{fill:#FFFFFF;}
</style>
<path class="st0" d="M260.1,117.2c0-0.9-0.3-1.8-0.9-2.5c-0.7-0.7-1.5-1.1-2.5-1.1h-15.8V91.5c0-12.7-10.3-23-23-23h-9.4V33.2
	c0-9.1-7.4-16.5-16.5-16.5h-90.5c-9.1,0-16.5,7.4-16.5,16.5v48.1h-9.3c-9.1,0-16.5,7.4-16.5,16.5c0,5.8,3,11.1,7.9,14.1l2.1,1.3
	l-1.3,2.1c-1.5,2.7-2.3,5.6-2.3,8.4c0,5.8,3,11.1,7.9,14.1l2.1,1.3l-1.3,2.1c-1.5,2.7-2.3,5.6-2.3,8.4c0,5.8,3,11.1,7.9,14.1
	l2.1,1.3l-1.3,2.1c-1.5,2.6-2.3,5.6-2.3,8.4c0,4.8,2.1,9.3,5.7,12.4l0.8,0.7v12.7c0,9.1,7.4,16.5,16.5,16.5h90.5
	c4.3,0,8.6-1.7,11.6-4.8c3.2-3.2,4.9-7.3,4.9-11.6V192h9.4c10.7,0,19.8-7.2,22.3-17.6l0.5-1.8h15.9c2,0,3.6-1.7,3.6-3.6V117.2z
	 M118,23.9h57.5v9.4c0,5.2-4.2,9.4-9.4,9.4h-38.8c-5.2,0-9.4-4.2-9.4-9.4V23.9z M66.3,97.9c0-5.2,4.2-9.4,9.4-9.4H85v18.7h-9.4
	C70.5,107.2,66.3,103,66.3,97.9z M72.8,123.7c0-5.2,4.2-9.4,9.4-9.4h19.4c5.2,0,9.4,4.2,9.4,9.4s-4.2,9.4-9.4,9.4H82.1
	C77,133.1,72.8,128.9,72.8,123.7z M82,156.2c-1.8-1.7-2.7-4-2.7-6.6c0-5.2,4.2-9.4,9.4-9.4h12.9c5.2,0,9.4,4.2,9.4,9.4
	c0,5.2-4.2,9.4-9.4,9.4h-13C86.1,159,83.8,158,82,156.2z M85.6,175.5c0-5.2,4.2-9.4,9.4-9.4c5.2,0,9.4,4.2,9.4,9.4s-4.2,9.4-9.4,9.4
	C89.8,184.8,85.6,180.6,85.6,175.5z M201.3,201.4c0,5.2-4.2,9.4-9.3,9.4h-90.5c-5.2,0-9.4-4.2-9.4-9.4V192H95
	c9.1,0,16.5-7.4,16.5-16.5c0-3-0.8-5.9-2.3-8.4l-1.3-2.1l2.1-1.3c2.4-1.5,7.9-5.9,7.9-14.1c0-4.2-1.6-8.2-4.4-11.2l-1.6-1.6l1.7-1.7
	c2.8-3,4.4-7,4.4-11.2c0-9.1-7.4-16.5-16.5-16.5H92V33.2c0-5.2,4.2-9.4,9.4-9.4h9.4v9.4c0,9.1,7.4,16.5,16.5,16.5H166
	c9.1,0,16.5-7.4,16.5-16.5v-9.4h9.4c5.2,0,9.4,4.2,9.4,9.4v35.2H166c-2,0-3.6,1.7-3.6,3.6c0,19.8,16.1,35.9,35.9,35.9h2.9v57.9
	h-21.6l-0.1-0.8l-3.9-29.4c-0.1-0.7-0.5-1.4-1.1-1.8c-0.7-0.5-1.4-0.6-2.1-0.4l-25.1,6l-0.1-1c-1.5-11.1-3.5-26.7-3.6-28.3
	c0-1.5-1.2-2.7-2.7-2.7c-1.5,0-2.7,1.2-2.7,2.7c0,1.1,1.8,14.5,3.2,25.2l1,7.8c0.1,0.7,0.5,1.4,1.1,1.8c0.7,0.5,1.4,0.6,2.1,0.4
	l25.1-6l0.1,0.4l3.9,29.1c0.2,1.3,1.3,2.3,2.7,2.3h24V201.4z M252.9,164.9h-0.4v0.5h-15.3c-2,0-3.6,1.7-3.6,3.6
	c0,8.7-7.1,15.8-15.8,15.8h-9.4v-80.6c0-2-1.7-3.6-3.6-3.6h-6.5c-13.4,0-24.9-9.1-28-22.1l-0.7-3h48c8.7,0,15.8,7.1,15.8,15.8v25.9
	c0,2,1.7,3.6,3.6,3.6h15.8V164.9z"/>
</svg>
