<?xml version="1.0" encoding="utf-8"?>
<!-- Generator: Adobe Illustrator 22.1.0, SVG Export Plug-In . SVG Version: 6.00 Build 0)  -->
<svg version="1.1" id="Warstwa_1" xmlns="http://www.w3.org/2000/svg" xmlns:xlink="http://www.w3.org/1999/xlink" x="0px" y="0px"
	 viewBox="0 0 329 239" style="enable-background:new 0 0 329 239;" xml:space="preserve">
<style type="text/css">
	.st0{fill:#FFFFFF;}
</style>
<g>
	<path class="st0" d="M163.2,133.5c20.8,0,41.7-3.9,41.7-12.6c0-6.3-10.2-8.8-13.5-9.6c-7.6-1.9-17.6-2.9-28.2-2.9
		c-20.8,0-41.7,3.9-41.7,12.6S142.4,133.5,163.2,133.5z M129.7,119.1c7.6-3.7,22.8-5.1,33.5-5.1c10.7,0,25.9,1.3,33.5,5.1l3.6,1.8
		l-3.6,1.8c-7.6,3.7-22.8,5.1-33.5,5.1s-25.9-1.3-33.5-5.1l-3.6-1.8L129.7,119.1z"/>
	<path class="st0" d="M212.7,40h-97.2c-6.9,0-12.6,5.6-12.6,12.6v136.7c0,6.9,5.6,12.6,12.6,12.6h97.2c6.9,0,12.6-5.6,12.6-12.6
		V52.6C225.3,45.6,219.7,40,212.7,40z M108.7,76.9c0-6.5,5.3-11.7,11.7-11.7s11.7,5.3,11.7,11.7v11.7h-23.4V76.9z M108.7,153.2h23.4
		v11.7c0,6.5-5.3,11.7-11.7,11.7s-11.7-5.3-11.7-11.7V153.2z M219.6,189.2c0,3.8-3.1,6.9-6.9,6.9h-97.2c-3.8,0-6.9-3.1-6.9-6.9
		v-10.9l3,1.7c2.6,1.5,5.7,2.3,8.7,2.3c5,0,9.8-2.2,13.1-5.9l1.5-1.7l1.5,1.7c3.3,3.8,8.1,5.9,13.1,5.9c5,0,9.8-2.2,13.1-5.9
		l1.5-1.7l1.5,1.7c3.3,3.8,8.1,5.9,13.1,5.9c5,0,9.8-2.2,13.1-5.9l1.5-1.7l1.5,1.7c3.3,3.8,8.1,5.9,13.1,5.9c3.1,0,6.1-0.8,8.7-2.3
		l3-1.7V189.2z M137.9,164.9v-11.7h23.4v11.7c0,6.5-5.3,11.7-11.7,11.7S137.9,171.4,137.9,164.9z M167,164.9v-11.7h23.4v11.7
		c0,6.5-5.3,11.7-11.7,11.7S167,171.4,167,164.9z M219.6,164.9c0,6.5-5.3,11.7-11.7,11.7s-11.7-5.3-11.7-11.7v-11.7h23.4V164.9z
		 M219.6,147.5H108.7V94.3h110.9V147.5z M137.9,88.6V76.9c0-6.5,5.3-11.7,11.7-11.7s11.7,5.3,11.7,11.7v11.7H137.9z M167,88.6V76.9
		c0-6.5,5.3-11.7,11.7-11.7s11.7,5.3,11.7,11.7v11.7H167z M219.6,88.6h-23.4V76.9c0-6.5,5.3-11.7,11.7-11.7s11.7,5.3,11.7,11.7V88.6
		z M219.6,63.5l-3-1.7c-2.6-1.5-5.7-2.3-8.7-2.3c-5,0-9.8,2.2-13.1,5.9l-1.5,1.7l-1.5-1.7c-3.3-3.8-8.1-5.9-13.1-5.9
		c-5,0-9.8,2.2-13.1,5.9l-1.5,1.7l-1.5-1.7c-3.3-3.8-8.1-5.9-13.1-5.9c-5,0-9.8,2.2-13.1,5.9L135,67l-1.5-1.7
		c-3.3-3.8-8.1-5.9-13.1-5.9c-3.1,0-6.1,0.8-8.7,2.3l-3,1.7V52.6c0-3.8,3.1-6.9,6.9-6.9h97.2c3.8,0,6.9,3.1,6.9,6.9V63.5z"/>
</g>
</svg>
