<?xml version="1.0" encoding="utf-8"?>
<!-- Generator: Adobe Illustrator 22.1.0, SVG Export Plug-In . SVG Version: 6.00 Build 0)  -->
<svg version="1.1" id="Warstwa_1" xmlns="http://www.w3.org/2000/svg" xmlns:xlink="http://www.w3.org/1999/xlink" x="0px" y="0px"
	 viewBox="0 0 329 239" style="enable-background:new 0 0 329 239;" xml:space="preserve">
<style type="text/css">
	.st0{fill:#FFFFFF;}
</style>
<path class="st0" d="M250.6,80.3l-0.2-0.1H78.3l-0.1,0.1c-1.4,0.5-2.4,2-2.4,3.6c0,2.1,1.7,3.8,3.8,3.8h11.5l0.1,0.3l16.7,88.8
	c0.2,8.5,6.9,15.4,15,15.4h85.9c8.1,0,14.8-6.9,15-15.3l16.8-89.2h8.7c2.1,0,3.8-1.7,3.8-3.8C253.1,82.2,252.1,80.8,250.6,80.3z
	 M210,87.6l-0.4,0.6c-3.9,5.6-10.1,8.9-17.1,8.9c-6.9,0-13.2-3.2-17.2-8.9l-0.4-0.6H210z M220.3,155.3h-16.1
	c-2.2,0.1-3.8,1.7-3.8,3.8c0,2.1,1.7,3.8,3.8,3.8h14.7l-1.4,7.1c-1.1,5.8-1.1,5.9-1.1,6.2c0,4.5-3.4,8.2-7.5,8.2h-85.9
	c-4.1,0-7.5-3.7-7.5-8.2c0-0.3,0-0.4-1.1-6.1L113,163h76.5c2.1,0,3.8-1.7,3.8-3.8s-1.7-3.8-3.8-3.8h-77.8l-6.9-36.8h122.5
	L220.3,155.3z M228.5,111H103.1l-4.4-23.4h67.6l0.1,0.2c4.6,10.3,14.6,16.8,26.1,16.8c11.3,0,21.3-6.4,26.1-16.8l0.1-0.2h14.3
	L228.5,111z"/>
</svg>
