<?xml version="1.0" encoding="utf-8"?>
<!-- Generator: Adobe Illustrator 22.1.0, SVG Export Plug-In . SVG Version: 6.00 Build 0)  -->
<svg version="1.1" id="Warstwa_1" xmlns="http://www.w3.org/2000/svg" xmlns:xlink="http://www.w3.org/1999/xlink" x="0px" y="0px"
	 viewBox="0 0 329 239" style="enable-background:new 0 0 329 239;" xml:space="preserve">
<style type="text/css">
	.st0{fill:#FFFFFF;}
</style>
<g>
	<path class="st0" d="M249.3,216.1h-43.9c-2.8,0-5.1-2.3-5.1-5.1c0-2.8,2.3-5.1,5.1-5.1h43.9c2.6,0,4.7-1.8,4.7-3.9v-32.3h-43.8
		c-2.8,0-5.1-2.3-5.1-5.1c0-2.8,2.3-5.1,5.1-5.1H254V148c-8,3.6-18.9,3.4-25.4-2.9c-2-2-2-5.3,0-7.3c2-2,5.3-2,7.3,0
		c3.3,3.3,11.4,3.1,16.1-0.4c0,0,0,0,0,0c0.6-0.5,1.3-0.9,2-1.3v-9c-8,3.6-18.9,3.4-25.4-2.9c-2-2-2-5.3,0-7.3c2-2,5.3-2,7.3,0
		c3.3,3.3,11.4,3.1,16.1-0.4c0,0,0,0,0,0c0.6-0.5,1.3-0.9,2-1.3v-12h-43.8c-2.8,0-5.1-2.3-5.1-5.1c0-2.8,2.3-5.1,5.1-5.1H252
		L240.3,76c-0.2-0.2-1.2-0.7-2.7-0.7h-32.2c-2.8,0-5.1-2.3-5.1-5.1V50.8c0-4.3,3.5-7.7,7.7-7.7h26.6c4.3,0,7.7,3.5,7.7,7.7v14.9
		c2.7,0.8,5,2.3,6.4,4.4l14.7,21c0.3,0.4,0.6,0.9,0.7,1.5c0.2,0.5,0.2,1.1,0.2,1.6v17.5c2.7-0.3,5.5-0.2,8.1,0.3
		c2.8,0.6,4.6,3.3,4,6.1c-0.6,2.8-3.3,4.6-6.1,4c-1.9-0.4-3.9-0.4-5.9,0v10.6c2.7-0.3,5.5-0.2,8.1,0.3c2.8,0.6,4.6,3.3,4,6.1
		c-0.6,2.8-3.3,4.6-6.1,4c-1.9-0.4-3.9-0.4-5.9,0v21.2c0,0,0,0.1,0,0.1c0,0,0,0.1,0,0.1v37.4C264.3,209.8,257.6,216.1,249.3,216.1
		L249.3,216.1z M215.7,65H232V53.4h-21.4V65H215.7z M182.4,216.1h-67.8c-8.5,0-15.4-6.9-15.4-15.4V79.2c0-1.1,0.3-2.1,0.9-2.9
		c0.1-0.1,0.1-0.3,0.2-0.4l16.2-28.3c1.7-3,4.8-5.2,8.4-6.1V23.1c0-4.3,3.5-7.7,7.7-7.7h31.8c4.3,0,7.7,3.5,7.7,7.7v18.3
		c3.6,0.9,6.6,3.1,8.4,6.1l16.2,28.3c0.1,0.1,0.1,0.3,0.2,0.4c0.6,0.8,0.9,1.9,0.9,2.9v121.5C197.8,209.2,190.9,216.1,182.4,216.1
		L182.4,216.1z M109.5,161.9v38.8c0,2.8,2.3,5.1,5.1,5.1h67.8c2.8,0,5.1-2.3,5.1-5.1v-38.8H109.5z M109.5,151.6h78.1V84.4h-78.1
		V151.6z M113.2,74.1h70.6l-12.2-21.4c-0.4-0.7-1.7-1.4-3.4-1.4h-39.3c-1.7,0-3,0.7-3.4,1.4L113.2,74.1z M135.2,40.9h26.7V25.7
		h-26.7V40.9z M143.1,109.4c0,3.8-3.3,6.9-7.5,6.9c-4.1,0-7.5-3.1-7.5-6.9c0-3.8,3.3-6.9,7.5-6.9
		C139.8,102.6,143.1,105.6,143.1,109.4L143.1,109.4z M161.4,102.6c-4.1,0-7.5,3.1-7.5,6.9c0,3.8,3.3,6.9,7.5,6.9s7.5-3.1,7.5-6.9
		C168.8,105.6,165.5,102.6,161.4,102.6L161.4,102.6z M148.5,122.8c-4.1,0-7.5,3.1-7.5,6.9c0,3.8,3.3,6.9,7.5,6.9
		c4.1,0,7.5-3.1,7.5-6.9C155.9,125.9,152.6,122.8,148.5,122.8L148.5,122.8z M148.5,122.8"/>
</g>
</svg>
