<?xml version="1.0" encoding="utf-8"?>
<!-- Generator: Adobe Illustrator 22.1.0, SVG Export Plug-In . SVG Version: 6.00 Build 0)  -->
<svg version="1.1" id="Warstwa_1" xmlns="http://www.w3.org/2000/svg" xmlns:xlink="http://www.w3.org/1999/xlink" x="0px" y="0px"
	 viewBox="0 0 329 239" style="enable-background:new 0 0 329 239;" xml:space="preserve">
<style type="text/css">
	.st0{fill:#FFFFFF;}
</style>
<path class="st0" d="M76.2,90.4l2.4-2.2l93.9,99.8c0.6,0.6,1.4,1,2.3,1l21.7,0.7l8,8.5c1.2,1.3,3.3,1.4,4.6,0.1l2.4-2.2l6.7,7.1
	c1.2,1.3,3.3,1.4,4.6,0.1L237,190c1.3-1.2,1.4-3.3,0.1-4.6l-6.7-7.1l2.4-2.2c1.3-1.2,1.4-3.3,0.1-4.6l-8-8.5l0.7-21.7
	c0-0.9-0.3-1.7-0.9-2.3L130.8,39l2.4-2.2c1.3-1.2,1.4-3.3,0.1-4.6l-8.9-9.5c-1.2-1.3-3.3-1.4-4.6-0.1L62.7,76.2
	c-1.3,1.2-1.4,3.3-0.1,4.6l8.9,9.5C72.8,91.6,74.8,91.7,76.2,90.4L76.2,90.4z M211.1,133.8l-42.8,40.3L96.7,98l42.8-40.3
	L211.1,133.8z M230.2,187.5l-9.5,8.9l-4.5-4.8l9.5-8.9L230.2,187.5z M207,191.4l-4.5-4.8l19-17.9l4.5,4.8L207,191.4z M218.5,162.7
	l-21.8,20.5l-20.4-0.6l-3.5-3.8l42.8-40.3l3.5,3.8L218.5,162.7z M135,53L92.2,93.2l-8.9-9.5l42.8-40.3L135,53z M69.6,78.7l52.3-49.2
	l4.5,4.8L74.1,83.4L69.6,78.7z M69.6,78.7"/>
<path class="st0" d="M180.7,144.4c9.3-8.8,4.9-28.2-10.2-44.2c-15-16-34.1-21.7-43.5-12.9s-4.9,28.2,10.2,44.2
	S171.4,153.2,180.7,144.4L180.7,144.4z M131.5,92.1c6.4-6.1,22.1-0.3,34.2,12.6s16.9,28.9,10.5,35s-22.1,0.3-34.2-12.6
	C129.9,114.2,125.1,98.2,131.5,92.1L131.5,92.1z M131.5,92.1"/>
</svg>
