<?xml version="1.0" encoding="utf-8"?>
<!-- Generator: Adobe Illustrator 24.0.2, SVG Export Plug-In . SVG Version: 6.00 Build 0)  -->
<svg version="1.1" id="Warstwa_1" xmlns="http://www.w3.org/2000/svg" xmlns:xlink="http://www.w3.org/1999/xlink" x="0px" y="0px"
	 viewBox="0 0 329 239" style="enable-background:new 0 0 329 239;" xml:space="preserve">
<style type="text/css">
	.st0{fill:#FFFFFF;}
</style>
<g>
	<path class="st0" d="M316.6,160h-6.4l-12.7-35.1c-0.6-1.7-2.2-2.8-4-2.8h-68.6v-9.8c0.1,0,0.2,0.1,0.4,0.1c0.4,0.1,0.8,0.2,1.2,0.2
		c1.9,0,3.6-1.2,4.1-3c0-0.1,0.1-0.3,0.2-0.5c0.4-1,1-2.6,0.8-4.7h7.3c1.5,0,2.9-0.7,3.8-1.9c0.2-0.3,0.4-0.6,0.5-0.9
		c0.2,0.6,0.5,1.3,0.8,2c0.6,1.3,0.5,1.6,0.1,2.6c-0.1,0.3-0.3,0.7-0.4,1.1c-0.7,2.2,0.6,4.5,2.9,5.2c0.4,0.1,0.8,0.2,1.2,0.2
		c1.9,0,3.6-1.2,4.1-3c0-0.1,0.1-0.3,0.2-0.5c0.6-1.6,1.8-4.7-0.4-9.1c-0.7-1.5-0.6-1.9,0-3.1c1-2.1,0-4.6-2.1-5.5
		c-2.1-1-4.7,0-5.7,2.1c-0.4,0.8-0.9,2-1.2,3.5l-18.1-53.9c-0.5-1.5-1.8-2.7-3.5-3.1l-88.6-18.5l0,0c-0.3-0.1-0.6-0.1-1-0.1h0
		c-0.1,0-0.3,0-0.4,0c-0.2,0-0.4,0-0.6,0.1L42,39.9c-1.6,0.3-2.9,1.5-3.5,3.1L19.9,98.4c-0.5,1.4-0.2,3,0.6,4.2
		c0.9,1.2,2.3,1.9,3.8,1.9h13.9V183c0,2.2,1.5,4.1,3.7,4.5l88.6,18.5c0.3,0.1,0.6,0.1,1,0.1h0.2c0.3,0,0.6,0,1-0.1l55.1-11.5
		l10.5,29.3c0.6,1.7,2.2,2.8,4,2.8h91.3c1.8,0,3.4-1.1,4-2.8l12.7-35.4h6.4c2.4,0,4.3-1.9,4.3-4.2v-20.1
		C320.9,161.9,319,160,316.6,160z M290.5,130.5l10.7,29.5h-76.2h-9.3h-21l10.7-29.5h10.3h9.3H290.5z M216.7,48.4l15.8,46.8h-1.7
		c0-1.6-0.9-3.2-2.5-3.9c-2.2-1-4.7,0-5.7,2.1c-0.2,0.5-0.5,1.1-0.8,1.9h-54.5l-27.8-62.9L216.7,48.4z M46.6,48.4l77.1-16.1
		L95.9,95.2H30.8L46.6,48.4z M126.8,195.8l-79.3-16.5v-74.8H99c1.9,0,3.5-1.1,4.3-2.8l23.6-53.5V195.8z M136.4,195.8V48.1l23.6,53.6
		c0.8,1.7,2.4,2.8,4.3,2.8h51.3v17.7h-13.3c-1.8,0-3.4,1.1-4,2.8L185.5,160h-6.4c-2.4,0-4.3,1.9-4.3,4.2v20.1c0,1.3,0.6,2.4,1.5,3.2
		L136.4,195.8z M290.5,218.2h-85.2l-9.1-25.5l-1.6-4.3h22.3h8.5v13.6c0,2.3,1.9,4.2,4.3,4.2h36.5c2.4,0,4.3-1.9,4.3-4.2v-13.6h30.8
		L290.5,218.2z M233.9,197.9v-9.5h28v9.5H233.9z M312.3,180.1h-87.4h-13.3h-28.2v-11.7h32.2h9.3h87.4V180.1z"/>
	<path class="st0" d="M265.6,106.2c-0.1,0.3-0.3,0.7-0.4,1.1c-0.7,2.2,0.7,4.5,2.9,5.2c0.4,0.1,0.8,0.2,1.2,0.2c1.9,0,3.6-1.2,4.1-3
		c0-0.1,0.1-0.3,0.2-0.5c0.6-1.6,1.8-4.7-0.4-9.1c-0.7-1.5-0.5-1.9,0-3.1c1-2.1,0-4.6-2.1-5.5c-2.1-1-4.7,0-5.7,2.1
		c-0.8,1.8-2.4,5.2,0,10.2C266.1,104.9,266,105.2,265.6,106.2z"/>
</g>
</svg>
