<?xml version="1.0" encoding="utf-8"?>
<!-- Generator: Adobe Illustrator 22.1.0, SVG Export Plug-In . SVG Version: 6.00 Build 0)  -->
<svg version="1.1" id="Warstwa_1" xmlns="http://www.w3.org/2000/svg" xmlns:xlink="http://www.w3.org/1999/xlink" x="0px" y="0px"
	 viewBox="0 0 329 239" style="enable-background:new 0 0 329 239;" xml:space="preserve">
<style type="text/css">
	.st0{fill:#FFFFFF;}
</style>
<g>
	<path class="st0" d="M118.3,168.8c-1.4-0.5-2.9,0.2-3.4,1.6l-1.5,4.1c-0.5,1.4,0.2,2.9,1.6,3.4c0.3,0.1,0.6,0.2,0.9,0.2
		c1.1,0,2.1-0.7,2.5-1.8l1.5-4.1C120.4,170.8,119.7,169.3,118.3,168.8L118.3,168.8z M118.3,168.8"/>
	<path class="st0" d="M122.3,153.9c-1.4-0.4-2.9,0.5-3.3,1.9l-1.1,4.3c-0.4,1.4,0.5,2.9,1.9,3.3c0.2,0.1,0.4,0.1,0.7,0.1
		c1.2,0,2.3-0.8,2.6-2l1.1-4.3C124.6,155.7,123.7,154.3,122.3,153.9L122.3,153.9z M122.3,153.9"/>
	<path class="st0" d="M124.8,138.7c-1.5-0.2-2.8,0.8-3,2.3l-0.6,4.4c-0.2,1.5,0.8,2.8,2.3,3c0.1,0,0.3,0,0.4,0c1.3,0,2.5-1,2.6-2.3
		l0.6-4.4C127.3,140.3,126.3,138.9,124.8,138.7L124.8,138.7z M124.8,138.7"/>
	<path class="st0" d="M125.8,123.4c-1.5-0.1-2.7,1.1-2.8,2.5l-0.2,4.4c-0.1,1.5,1.1,2.7,2.5,2.8c0,0,0.1,0,0.1,0
		c1.4,0,2.6-1.1,2.7-2.6l0.2-4.4C128.5,124.7,127.3,123.4,125.8,123.4L125.8,123.4z M125.8,123.4"/>
	<path class="st0" d="M125.3,108c-1.5,0.1-2.6,1.4-2.5,2.8c0.1,1.4,0.2,2.9,0.2,4.3c0.1,1.4,1.2,2.6,2.7,2.6c0,0,0.1,0,0.1,0
		c1.5-0.1,2.6-1.3,2.6-2.8c-0.1-1.5-0.1-3-0.2-4.5C128.1,109,126.8,107.9,125.3,108L125.3,108z M125.3,108"/>
	<path class="st0" d="M123.4,92.7c-1.5,0.2-2.5,1.6-2.3,3l0.6,4.4c0.2,1.3,1.3,2.3,2.6,2.3c0.1,0,0.3,0,0.4,0c1.5-0.2,2.5-1.6,2.3-3
		l-0.6-4.4C126.2,93.5,124.8,92.5,123.4,92.7L123.4,92.7z M123.4,92.7"/>
	<path class="st0" d="M118,80.9l1.1,4.3c0.3,1.2,1.4,2,2.6,2c0.2,0,0.4,0,0.7-0.1c1.4-0.4,2.3-1.8,1.9-3.3l-1.1-4.3
		c-0.4-1.4-1.8-2.3-3.3-1.9C118.5,78,117.6,79.5,118,80.9L118,80.9z M118,80.9"/>
	<path class="st0" d="M114.8,70.6c0.4,1.1,1.4,1.8,2.5,1.8c0.3,0,0.6,0,0.9-0.1c1.4-0.5,2.1-2,1.7-3.4c-0.5-1.4-1-2.8-1.5-4.2
		c-0.5-1.4-2.1-2.1-3.5-1.6c-1.4,0.5-2.1,2.1-1.6,3.5C113.9,67.9,114.4,69.3,114.8,70.6L114.8,70.6z M114.8,70.6"/>
	<path class="st0" d="M214.2,170.4c-0.5-1.4-2-2.1-3.4-1.6c-1.4,0.5-2.1,2-1.6,3.4l1.5,4.1c0.4,1.1,1.4,1.8,2.5,1.8
		c0.3,0,0.6-0.1,0.9-0.2c1.4-0.5,2.1-2,1.6-3.4L214.2,170.4z M214.2,170.4"/>
	<path class="st0" d="M211,160.1l-1.1-4.3c-0.4-1.4-1.8-2.3-3.3-2c-1.4,0.4-2.3,1.8-1.9,3.3l1.1,4.3c0.3,1.2,1.4,2,2.6,2
		c0.2,0,0.4,0,0.7-0.1C210.5,163,211.4,161.6,211,160.1L211,160.1z M211,160.1"/>
	<path class="st0" d="M205.6,148.4c1.5-0.2,2.5-1.6,2.3-3l-0.6-4.4c-0.2-1.5-1.6-2.5-3-2.3c-1.5,0.2-2.5,1.6-2.3,3l0.6,4.4
		c0.2,1.3,1.3,2.3,2.6,2.3C205.4,148.4,205.5,148.4,205.6,148.4L205.6,148.4z M205.6,148.4"/>
	<path class="st0" d="M203.6,133.1c1.5-0.1,2.6-1.3,2.5-2.8l-0.2-4.4c-0.1-1.5-1.3-2.6-2.8-2.5c-1.5,0.1-2.6,1.3-2.5,2.8l0.2,4.4
		c0.1,1.4,1.3,2.6,2.7,2.6C203.6,133.1,203.6,133.1,203.6,133.1L203.6,133.1z M203.6,133.1"/>
	<path class="st0" d="M203.2,117.7C203.2,117.7,203.3,117.7,203.2,117.7c1.5,0,2.7-1.1,2.8-2.6c0.1-1.4,0.1-2.9,0.2-4.3
		c0.1-1.5-1-2.8-2.5-2.8c-1.5-0.1-2.8,1-2.8,2.5c-0.1,1.5-0.2,3-0.2,4.5C200.6,116.4,201.7,117.7,203.2,117.7L203.2,117.7z
		 M203.2,117.7"/>
	<path class="st0" d="M204.2,102.3c0.1,0,0.3,0,0.4,0c1.3,0,2.5-1,2.6-2.3l0.6-4.4c0.2-1.5-0.8-2.8-2.3-3c-1.5-0.2-2.8,0.8-3,2.3
		l-0.6,4.4C201.7,100.8,202.7,102.1,204.2,102.3L204.2,102.3z M204.2,102.3"/>
	<path class="st0" d="M206.7,87.1c0.2,0.1,0.4,0.1,0.7,0.1c1.2,0,2.3-0.8,2.6-2l1.1-4.3c0.4-1.4-0.5-2.9-1.9-3.3
		c-1.4-0.4-2.9,0.5-3.3,1.9l-1.1,4.3C204.4,85.3,205.3,86.8,206.7,87.1L206.7,87.1z M206.7,87.1"/>
	<path class="st0" d="M214.1,63.1c-1.4-0.5-2.9,0.2-3.5,1.6c-0.5,1.4-1,2.8-1.5,4.2c-0.5,1.4,0.3,2.9,1.7,3.4
		c0.3,0.1,0.6,0.1,0.9,0.1c1.1,0,2.2-0.7,2.5-1.8c0.5-1.4,1-2.7,1.5-4.1C216.2,65.2,215.5,63.6,214.1,63.1L214.1,63.1z M214.1,63.1"
		/>
	<path class="st0" d="M220.9,52.9V39.2c0-1.5-1.2-2.7-2.7-2.7H110.7c-1.5,0-2.7,1.2-2.7,2.7v13.7C98.2,73.9,93,97.2,93,120.5
		s5.2,46.7,15.1,67.6v13.7c0,1.5,1.2,2.7,2.7,2.7h107.5c1.5,0,2.7-1.2,2.7-2.7v-13.7c9.9-21,15.1-44.3,15.1-67.6
		S230.8,73.9,220.9,52.9L220.9,52.9z M217.4,182.9c-0.4,0-0.8,0.1-1.2,0.2c-1.3,0.6-1.9,2.2-1.3,3.6l0.7,1.4v11H113.4v-8.9h94.1
		c1.5,0,2.7-1.2,2.7-2.7c0-1.5-1.2-2.7-2.7-2.7h-95.1c-18.6-40.4-18.9-86.2-0.9-126.8c0,0,0.1,0,0.1,0c0.4,0,0.8-0.1,1.1-0.3
		c1.3-0.6,1.9-2.2,1.3-3.6l-0.7-1.4v-11h102.2v8.9h-94.1c-1.5,0-2.7,1.2-2.7,2.7s1.2,2.7,2.7,2.7h95.1
		C235.2,96.5,235.5,142.4,217.4,182.9L217.4,182.9z M217.4,182.9"/>
	<path class="st0" d="M175.9,181.6c-0.8,0-1.5,0-2.1-0.1c-1.5-0.2-3.1-0.3-4.9-0.4c-5.3-0.3-11.9-0.8-17.9-4.8
		c-1.9-1.2-3.2-2.3-4.3-3.2c-3-2.4-3.9-3.1-10.8-3.1c-10.2,0-10.4,0-20.8-2.5l-2.7-0.7c-13.5-3.2-11.4-15.5-9.6-26.2
		c0.4-2.5,0.9-5.1,1.2-7.8c1.7-13.7,6.5-28.9,29.8-38.3c20.2-8.1,48.5,3.1,63.5,10.5c10.9,5.4,24.3,27.5,23.5,43.6
		c-1,20.9-9.7,26.8-16.9,28.1C201.2,177.3,184,181.6,175.9,181.6z M149.7,98.3c-4.8,0-9.4,0.7-13.5,2.3
		c-18.9,7.6-23.9,18.6-25.6,32.9c-0.3,2.8-0.8,5.5-1.2,8.1c-2.1,12.5-2.2,17,4.6,18.6l2.7,0.7c9.7,2.3,9.7,2.3,19.2,2.3
		c8.9,0,11.1,1.5,15,4.5c1,0.8,2.2,1.8,3.9,2.9c4.6,3.1,9.7,3.4,14.7,3.7c1.9,0.1,3.7,0.2,5.4,0.5c4.1,0.6,19.1-2.6,27.6-4.7
		l0.3-0.1c8.7-1.5,11-12.7,11.4-21.8c0.6-13.4-11-33-19.8-37.3C185.5,106.6,166.4,98.3,149.7,98.3z"/>
</g>
</svg>
