<?xml version="1.0" encoding="utf-8"?>
<!-- Generator: Adobe Illustrator 22.1.0, SVG Export Plug-In . SVG Version: 6.00 Build 0)  -->
<svg version="1.1" id="Warstwa_1" xmlns="http://www.w3.org/2000/svg" xmlns:xlink="http://www.w3.org/1999/xlink" x="0px" y="0px"
	 viewBox="0 0 329 239" style="enable-background:new 0 0 329 239;" xml:space="preserve">
<style type="text/css">
	.st0{fill:#FFFFFF;}
</style>
<g>
	<path class="st0" d="M156.6,131.5v-16c0-0.3,0-0.5-0.1-0.8c0.1-0.2,0.1-0.5,0.1-0.7c0-3.8-6.1-5.1-10.3-5.6V55.5h0
		c1,0,1.7-0.8,1.7-1.7s-0.8-1.7-1.7-1.7l0-1.7h1.5c1,0,1.7-0.8,1.7-1.7s-0.8-1.7-1.7-1.7h-1.5v-1.7h4.6c1,0,1.7-0.8,1.7-1.7
		s-0.8-1.7-1.7-1.7h-4.6V40h6c1,0,1.7-0.8,1.7-1.7s-0.8-1.7-1.7-1.7h-6v-1.7h4.6c1,0,1.7-0.8,1.7-1.7s-0.8-1.7-1.7-1.7h-4.6v-1.7
		h1.9c1,0,1.7-0.8,1.7-1.7c0-1-0.8-1.7-1.7-1.7h-1.9c-0.1-2.4-2.1-4.3-4.6-4.3c-2.4,0-4.5,1.9-4.6,4.3h-1.9c-1,0-1.7,0.8-1.7,1.7
		c0,1,0.8,1.7,1.7,1.7h1.9v1.7h-4.6c-1,0-1.7,0.8-1.7,1.7s0.8,1.7,1.7,1.7h4.6v1.7h-6c-1,0-1.7,0.8-1.7,1.7s0.8,1.7,1.7,1.7h6v1.7
		h-4.6c-1,0-1.7,0.8-1.7,1.7s0.8,1.7,1.7,1.7h4.6v1.7h-1.5c-1,0-1.7,0.8-1.7,1.7s0.8,1.7,1.7,1.7h1.5V52h0c-1,0-1.7,0.8-1.7,1.7
		s0.8,1.7,1.7,1.7h0v52.9c-4.2,0.4-10.3,1.7-10.3,5.6c0,0.2,0,0.5,0.1,0.7c0,0.2-0.1,0.5-0.1,0.8v16c-2.3,1.3-3.5,2.9-3.5,4.8
		c0,0.2,0,0.3,0,0.5l0,0l0,0c0,0.2,0,0.3,0,0.5v72.4c0,5.4,9.5,7.8,18.4,7.8c8.9,0,18.4-2.4,18.4-7.8v-72.5c0-0.2,0-0.3,0-0.5l0,0
		c0-0.2,0.1-0.3,0.1-0.5C160.1,134.4,159,132.8,156.6,131.5z M152.4,132.5c-0.7,0.6-4.2,2-10.7,2c-6.4,0-9.9-1.3-10.7-1.9v-14.2
		c3.1,1.1,7.4,1.5,10.7,1.5c3.3,0,7.6-0.4,10.7-1.5L152.4,132.5z M143.6,112.5c4.3,0.2,7,1,8.3,1.5c-1.3,0.7-4.7,1.6-10.2,1.6
		c-5.6,0-8.8-1-10.2-1.6c1.2-0.6,3.9-1.4,8.2-1.6l0.8,0l0-4.1c0-0.1,0-0.1,0-0.2l0-52.7h2.3v56.9L143.6,112.5z M155.9,136.3
		c0,0.9-4.9,3.6-14.2,3.6c-9.3,0-14.2-2.7-14.2-3.6c0,0,0-0.3,0.7-0.7c3.3,2.9,11.8,3.1,13.6,3.1c1.7,0,10.2-0.2,13.5-3.1
		C155.8,136,155.9,136.2,155.9,136.3z M155.9,141.5v68.3c0,0.9-4.9,3.6-14.2,3.6c-9.3,0-14.2-2.7-14.2-3.6v-68.3
		c3.4,1.6,8.5,2.6,14.2,2.6C147.4,144.1,152.6,143.2,155.9,141.5z M140.6,52v-1.7h2.3V52H140.6z M140.6,46.9v-1.7h2.3v1.7H140.6z
		 M140.6,41.7V40h2.3v1.7H140.6z M140.6,36.6v-1.7h2.3v1.7H140.6z M140.6,31.4v-1.7h2.3v1.7H140.6z M140.6,26.3
		c0.1-0.5,0.6-0.9,1.1-0.9s1,0.4,1.1,0.9H140.6z"/>
	<path class="st0" d="M206.3,137.9L206.3,137.9c0.1-0.4,0.2-0.8,0.2-1.1c0-1.9-1.2-3.5-3.5-4.8c1.4-1,2.1-2.2,2.1-3.5
		c0-1-0.8-1.7-1.7-1.7c-0.1,0-0.2,0-0.3,0v-1.1c0-0.4,0-0.8-0.1-1.2c0,0,0,0,0,0c0.1-0.2,0.1-0.5,0.1-0.8c0-4.7-7.5-7.2-14.9-7.2
		c-7.4,0-14.9,2.5-14.9,7.2c0,0.3,0.1,0.6,0.1,0.8c0,0,0,0,0,0c-0.1,0.5-0.1,0.8-0.1,1.2v1.1c-0.9,0.1-1.5,0.8-1.5,1.7
		c0,1.1,0.5,2.1,1.5,3.1v0.4c-2.3,1.3-3.5,2.9-3.5,4.8c0,0.4,0.1,0.7,0.2,1.1l0,0.1c-0.1,0.3-0.2,0.7-0.2,1.1v72.4
		c0,5.4,9.5,7.8,18.4,7.8c8.9,0,18.4-2.4,18.4-7.8V139C206.4,138.6,206.3,138.2,206.3,137.9z M177.3,123.6c0-0.6,3.3-3,10.7-3
		s10.7,2.4,10.7,3c0,0.6-3.3,3-10.7,3S177.3,124.2,177.3,123.6z M198.7,128.8v1.5c-1.7,0.7-5.1,1.6-10.4,1.6c-5.9,0-9.4-1.1-11-1.8
		v-1.3c2.7,1.3,6.6,2.1,10.7,2.1S196,130.1,198.7,128.8z M178.1,134c2.9,0.8,6.4,1.3,10.1,1.3c3.3,0,6.5-0.4,9.2-1
		c-1.6,0.9-4.7,1.9-9.4,1.9C182.8,136.2,179.6,135,178.1,134z M174.4,137.5c0.2-0.2,0.4-0.4,0.6-0.5c2.3,1.9,6.4,3.1,11.1,3.4
		C180.2,140.1,176,138.7,174.4,137.5z M189.7,140.3c4.7-0.2,9-1.5,11.2-3.4c0.2,0.2,0.5,0.3,0.6,0.5
		C200,138.6,196,140.1,189.7,140.3z M202.2,142v69.5c0,0.9-4.9,3.6-14.2,3.6s-14.2-2.7-14.2-3.6V142c3.4,1.6,8.5,2.6,14.2,2.6
		C193.7,144.6,198.8,143.6,202.2,142z"/>
</g>
</svg>
