<?xml version="1.0" encoding="utf-8"?>
<!-- Generator: Adobe Illustrator 22.1.0, SVG Export Plug-In . SVG Version: 6.00 Build 0)  -->
<svg version="1.1" id="Warstwa_1" xmlns="http://www.w3.org/2000/svg" xmlns:xlink="http://www.w3.org/1999/xlink" x="0px" y="0px"
	 viewBox="0 0 329 239" style="enable-background:new 0 0 329 239;" xml:space="preserve">
<style type="text/css">
	.st0{fill:#FFFFFF;}
</style>
<g>
	<path class="st0" d="M230.3,46.4L218.8,38c-0.5-0.3-1-0.5-1.6-0.5H111.7c-0.6,0-1.2,0.2-1.7,0.6l-10.9,8.3
		c-0.7,0.5-1.1,1.3-1.1,2.2v136.2c0,10.7,8.7,19.5,19.5,19.5H212c10.7,0,19.5-8.7,19.5-19.5V48.6C231.5,47.7,231,46.9,230.3,46.4z
		 M225.9,179.3h-8.3v5.6h8.3c0,7.7-6.2,13.9-13.9,13.9h-94.5c-7.7,0-13.9-6.2-13.9-13.9h8.3v-5.6h-8.3V63.7L115,75.1
		c2.6,2.6,6.1,4.1,9.8,4.1h79.8c3.7,0,7.2-1.5,9.8-4.1l11.5-11.5V179.3z M225.9,55.8l-15.4,15.4c-1.6,1.6-3.7,2.4-5.9,2.4h-79.8
		c-2.2,0-4.3-0.9-5.9-2.4l-15.4-15.4V50l9-6.9h103.7l9.6,7V55.8z"/>
	<rect x="156.4" y="65.3" class="st0" width="16.7" height="5.6"/>
</g>
</svg>
