<?xml version="1.0" encoding="utf-8"?>
<!-- Generator: Adobe Illustrator 22.1.0, SVG Export Plug-In . SVG Version: 6.00 Build 0)  -->
<svg version="1.1" id="Warstwa_1" xmlns="http://www.w3.org/2000/svg" xmlns:xlink="http://www.w3.org/1999/xlink" x="0px" y="0px"
	 viewBox="0 0 329 239" style="enable-background:new 0 0 329 239;" xml:space="preserve">
<style type="text/css">
	.st0{fill:#FFFFFF;}
</style>
<g>
	<path class="st0" d="M250.7,143.2c-3.2-18.1-16.9-33.9-34.9-40.3c0,0-0.6-0.2-0.6-0.2c-15.1-5.2-26.7-16.8-32.2-32.5
		c-6.3-17.8-22.2-31.5-40.3-34.9c-17.4-3.2-51.9,1.9-57.2,7.3c-5.3,5.3-10.5,39.8-7.3,57.2c3.4,18.1,17,33.9,35.5,40.5
		c15.1,5.2,26.7,16.8,32.2,32.5c6.4,18.1,21.9,31.4,40.3,34.9c3.9,0.7,8.4,1,13.2,1c18.1,0,40.1-4.5,44-8.3
		C248.7,195.1,253.9,160.7,250.7,143.2z M187.6,200.5c-15.6-2.9-29.3-14.7-34.9-30.7c-5.9-17.2-19.2-30.5-37-36.6
		c-15.4-5.5-27.3-19.1-30.2-34.7c-2.8-15.3,1.5-40.3,4.2-48.3c4.3,1.7,11,2.8,21.2,4.3c5.1,0.8,10.6,1.6,16.1,2.6
		c15.6,2.9,29.2,14.7,34.9,30.7c5.9,17.2,19.2,30.5,37,36.6c15.5,5.5,27.4,19.1,30.2,34.7c1,5.8,1.5,10.1,1.9,13.8
		c0.8,7.2,1.4,12.7,5.4,23.3C228.5,198.9,203,203.4,187.6,200.5z M240.9,187.1c-1.7-5.8-2.2-9.8-2.7-15c-0.4-3.9-0.9-8.2-2-14.3
		c-3.2-18.1-16.9-33.9-35.5-40.5c-15.1-5.2-26.7-16.8-32.1-32.5c-6.3-17.8-22.1-31.5-40.3-34.9c-5.6-1-11.2-1.9-16.3-2.7
		c-4.2-0.6-8.9-1.3-12.8-2.1c7.9-1.8,19.8-3.6,30.6-3.6c4.2,0,8.3,0.3,11.8,0.9c15.6,2.9,29.2,14.7,34.9,30.7
		c5.9,17.2,19.2,30.5,36.4,36.4l0.6,0.2l0,0c15.5,5.5,27.4,19.1,30.2,34.7C245.8,157.1,243.3,176.2,240.9,187.1z"/>
	<path class="st0" d="M191,179.8c-6.3-2-11-6.6-12.1-11.8c-0.4-2-2.4-3.2-4.3-2.8c-2,0.4-3.2,2.3-2.8,4.3c1.6,7.8,8.1,14.5,17,17.3
		c0.4,0.1,0.7,0.2,1.1,0.2c1.5,0,3-1,3.5-2.5C194,182.4,192.9,180.4,191,179.8z"/>
	<path class="st0" d="M182.7,150.6c1.5,0,3-1,3.5-2.5c0.6-1.9-0.5-4-2.4-4.6c-6.3-2-11-6.6-12.1-11.8c-0.4-2-2.4-3.2-4.3-2.8
		c-2,0.4-3.2,2.3-2.8,4.3c1.6,7.8,8.1,14.5,17,17.3C181.9,150.5,182.3,150.6,182.7,150.6z"/>
	<path class="st0" d="M140.2,114.4c-6.3-2-11-6.6-12.1-11.8c-0.4-2-2.3-3.2-4.3-2.8c-2,0.4-3.2,2.3-2.8,4.3
		c1.6,7.8,8.1,14.5,17,17.3c0.4,0.1,0.7,0.2,1.1,0.2c1.5,0,3-1,3.5-2.5C143.1,117.1,142.1,115,140.2,114.4z"/>
	<path class="st0" d="M132.9,70.8c-1.9-0.6-4,0.5-4.6,2.4c-0.6,1.9,0.5,4,2.4,4.6c6.3,2,11,6.6,12.1,11.8c0.4,1.7,1.9,2.9,3.6,2.9
		c0.2,0,0.5,0,0.7-0.1c2-0.4,3.2-2.3,2.8-4.3C148.3,80.2,141.8,73.6,132.9,70.8z"/>
	<path class="st0" d="M212.8,158c-1.9-0.6-4,0.5-4.6,2.4c-0.6,1.9,0.5,4,2.4,4.6c2.5,0.8,4.4,2.6,4.8,4.5c0.4,1.7,1.9,2.9,3.6,2.9
		c0.2,0,0.5,0,0.7-0.1c2-0.4,3.2-2.3,2.8-4.3C221.6,163.4,217.9,159.6,212.8,158z"/>
	<path class="st0" d="M103.8,85.3c-2.5-0.8-4.4-2.6-4.8-4.5c-0.4-2-2.3-3.2-4.3-2.8c-2,0.4-3.2,2.3-2.8,4.3c1,4.6,4.7,8.4,9.7,10
		c0.4,0.1,0.7,0.2,1.1,0.2c1.5,0,3-1,3.5-2.5C106.8,88,105.8,85.9,103.8,85.3z"/>
</g>
</svg>
