<?xml version="1.0" encoding="utf-8"?>
<!-- Generator: Adobe Illustrator 24.0.2, SVG Export Plug-In . SVG Version: 6.00 Build 0)  -->
<svg version="1.1" id="Warstwa_1" xmlns="http://www.w3.org/2000/svg" xmlns:xlink="http://www.w3.org/1999/xlink" x="0px" y="0px"
	 viewBox="0 0 329 239" style="enable-background:new 0 0 329 239;" xml:space="preserve">
<style type="text/css">
	.st0{fill:#FFFFFF;}
</style>
<g>
	<path class="st0" d="M164.9,132.5c-53.4,0-84.2-24.4-84.2-32.2c0-2.7-2.2-5-5-5s-5,2.2-5,5c0,17,39.5,42.1,94.1,42.1
		c2.7,0,5-2.2,5-5C169.9,134.7,167.7,132.5,164.9,132.5z"/>
	<path class="st0" d="M182,44c-0.2,0-3.4-0.3-5.2-0.5c-3.6-6-7-11-8.3-12.9c-1.9-2.7-6.3-2.7-8.2,0c-1.4,2-4.8,7.1-8.6,13.4
		c-1.4-0.1-3.3-0.1-5.9,0.1C90.8,48.7,51,72.1,51,100.3c0,2.4,0.3,4.8,0.9,7.2v47.1h0.3c2,15.2,13.8,29.2,33.7,39.7
		c21.1,11.1,49,17.3,78.6,17.3s57.5-6.1,78.6-17.3c19.9-10.5,31.7-24.5,33.7-39.7h0.3v-43.8c1.2-3.4,1.8-6.9,1.8-10.4
		C278.9,71.8,238.1,48.1,182,44z M154,60.6c1.4-2.9,3.1-6,4.9-9.1c1.8-3.1,3.7-6.2,5.5-9.1c1.7,2.6,3.4,5.5,5.1,8.3
		c0.1,0.2,0.2,0.4,0.3,0.6c0.1,0.2,0.2,0.3,0.3,0.5c1.8,3.1,3.5,6.2,4.9,9.1c2.5,5.2,4.2,9.6,4.2,12.2c0,8.2-6.7,14.9-14.9,14.9
		c-8.2,0-14.9-6.7-14.9-14.9C149.6,70.5,151.4,65.9,154,60.6z M268.3,149.9c0,13.6-10.4,26.6-29.4,36.6
		c-19.8,10.5-46.3,16.3-74.5,16.3c-28.2,0-54.7-5.8-74.5-16.3c-18.9-10-29.4-23-29.4-36.6v-25.5c18,21.8,59.1,37.8,104.3,37.8
		c44.4,0,84.9-15.5,103.4-36.7V149.9z M268.8,103.2h-0.5v2.5c-5.8,23-48.1,46.7-103.4,46.7c-59.6,0-104.1-27.5-104.1-52
		c0-22.4,36.3-42,85-46.2c0.1,0.1,0.1,0.2,0.2,0.2c-3.6,7-6.4,14-6.4,18.8c0,12,8.5,22,19.8,24.3v7.2c1.6,0.4,3.3,0.6,5,0.6
		s3.3-0.2,5-0.6v-7.2c11.3-2.3,19.8-12.3,19.8-24.3c0-4.6-2.6-11.3-6-18.1c0.3-0.3,0.5-0.6,0.8-0.9c48.6,4.2,85,23.8,85,46.2
		C269,101.2,268.9,102.2,268.8,103.2z"/>
</g>
</svg>
