<?xml version="1.0" encoding="utf-8"?>
<!-- Generator: Adobe Illustrator 22.1.0, SVG Export Plug-In . SVG Version: 6.00 Build 0)  -->
<svg version="1.1" id="Warstwa_1" xmlns="http://www.w3.org/2000/svg" xmlns:xlink="http://www.w3.org/1999/xlink" x="0px" y="0px"
	 viewBox="0 0 329 239" style="enable-background:new 0 0 329 239;" xml:space="preserve">
<style type="text/css">
	.st0{fill:#FFFFFF;}
</style>
<path class="st0" d="M254.1,28.4c-11.8-11.8-31-11.8-42.7,0L90.3,149.5c-0.1,0.1-0.1,0.1-0.1,0.2c-0.1,0.1-0.1,0.2-0.2,0.2
	c-0.2,0.3-0.3,0.5-0.4,0.8c0,0.1-0.1,0.2-0.1,0.3c0,0,0,0.1,0,0.1l-11.9,49.9c-0.1,0.2-0.1,0.5-0.1,0.7c0,0,0,0.1,0,0.1
	c0,0.4,0.1,0.8,0.2,1.1c0,0.1,0.1,0.2,0.1,0.2c0.2,0.4,0.4,0.7,0.7,1c0.3,0.3,0.7,0.6,1.1,0.7c0.4,0.2,0.8,0.2,1.3,0.2
	c0.2,0,0.5,0,0.8-0.1l49.9-11.9c0.1,0,0.2-0.1,0.3-0.1c0.1-0.1,0.2-0.1,0.3-0.1c0.2-0.1,0.5-0.2,0.7-0.4c0.1-0.1,0.2-0.1,0.2-0.2
	c0,0,0.1,0,0.1-0.1L254.1,71.1C265.9,59.3,265.9,40.1,254.1,28.4L254.1,28.4z M249.3,33.1c8.4,8.4,9.1,21.5,2.2,30.7l-32.9-32.9
	C227.9,24,241,24.8,249.3,33.1L249.3,33.1z M232.7,83l-33.2-33.2l4.7-4.7l33.2,33.2L232.7,83z M94.1,188.4c-1.3-1.3-3.4-1.3-4.8,0
	l-2.5,2.6l8.6-36l14.8-1.6l-1.9,17.2c0,0.1,0,0.2,0,0.4c0,0.1,0,0.2,0,0.4c0,0.1,0.1,0.2,0.1,0.3c0.1,0.2,0.1,0.4,0.2,0.6
	c0.1,0.2,0.2,0.4,0.3,0.6c0.1,0.2,0.2,0.3,0.3,0.4c0.2,0.2,0.3,0.3,0.5,0.4c0.2,0.1,0.3,0.2,0.5,0.3c0.2,0.1,0.5,0.2,0.7,0.2
	c0.1,0,0.2,0.1,0.4,0.1c0.1,0,0.2,0,0.4,0h0c0.1,0,0.2,0,0.4,0l17.2-1.9l-1.6,14.8l-36,8.6l2.6-2.5
	C95.4,191.8,95.4,189.7,94.1,188.4L94.1,188.4z M136.2,170l75.2-75.1c1.3-1.3,1.3-3.4,0-4.8s-3.4-1.3-4.8,0l-75.1,75.2l-16,1.8
	l1.8-16l75.2-75.1c1.3-1.3,1.3-3.4,0-4.8c-1.3-1.3-3.4-1.3-4.8,0l-75.2,75.2l-10.7,1.2l93-93L228,87.7l-93,93L136.2,170z
	 M242.2,73.5L209,40.2l4.8-4.8L247,68.7L242.2,73.5z M242.2,73.5"/>
</svg>
