<?xml version="1.0" encoding="utf-8"?>
<!-- Generator: Adobe Illustrator 22.1.0, SVG Export Plug-In . SVG Version: 6.00 Build 0)  -->
<svg version="1.1" id="Warstwa_1" xmlns="http://www.w3.org/2000/svg" xmlns:xlink="http://www.w3.org/1999/xlink" x="0px" y="0px"
	 viewBox="0 0 329 239" style="enable-background:new 0 0 329 239;" xml:space="preserve">
<style type="text/css">
	.st0{fill:#FFFFFF;}
</style>
<g>
	<path class="st0" d="M124.8,147.2c4.9,1.8,10.5-0.3,13.1-4.8c2.2-4,4.9-10.5,5.3-19.3h11.4c-0.5,7.6-2.7,13.2-4.6,16.6
		c-0.7,1.3-0.3,3,1.1,3.7c1.3,0.7,3,0.3,3.7-1.1c2.2-4,4.9-10.5,5.3-19.3h13.7c-0.4,5.2-2,9-3.3,11.4c-0.7,1.3-0.3,3,1.1,3.7
		c1.3,0.7,3,0.3,3.7-1.1c1.7-3,3.6-7.7,4-14.1H193c-0.4,2.8-1.2,4.9-2,6.2c-0.7,1.3-0.3,3,1.1,3.7c1.3,0.7,3,0.3,3.7-1.1
		c1.1-1.9,2.3-4.9,2.7-8.9h5.9c5.4,11.7,12,17.7,16.7,20.8c4,2.6,8.4,1,11.4-2.2c3.1-3.2,3.1-8.3,0-11.6c-1.1-1.1-1.1-2.9,0-4
		c3.1-3.2,3.1-8.3,0-11.6c-1.1-1.1-1.1-2.9,0-4c3.1-3.2,3.1-8.3,0-11.6c-3-3.2-7.5-4.7-11.4-2.2c-4.7,3-11.4,9.1-16.7,20.8h-5.9
		c-0.4-4-1.7-7-2.7-8.9c-0.7-1.3-2.4-1.8-3.7-1.1c-1.3,0.7-1.8,2.4-1.1,3.7c0.8,1.4,1.6,3.4,2,6.2h-13.7c-0.4-6.4-2.4-11.1-4-14.1
		c-0.7-1.3-2.4-1.8-3.7-1.1c-1.3,0.7-1.8,2.4-1.1,3.7c1.3,2.4,2.9,6.2,3.3,11.4h-13.7c-0.5-8.8-3.1-15.3-5.3-19.3
		c-0.7-1.3-2.4-1.8-3.7-1.1c-1.3,0.7-1.8,2.4-1.1,3.7c1.9,3.4,4.2,9,4.6,16.6h-11.4c-0.5-8.8-3.1-15.3-5.3-19.3
		c-2.5-4.5-8.2-6.6-13.1-4.8c-7.6,2.8-18.3,8.7-26.5,21c-2.3,3.6-2.3,8.1,0,11.7C106.4,138.5,117.2,144.4,124.8,147.2L124.8,147.2z
		 M224.1,101.4c2.8-1.8,6.9,2.7,4.5,5.3c-3.1,3.2-3.1,8.3,0,11.6c1.1,1.1,1.1,2.9,0,4c-3.1,3.2-3.1,8.3,0,11.6
		c2.4,2.6-1.6,7.1-4.5,5.3c-4.2-2.7-10.1-8.1-14.9-18.9C214.1,109.5,220,104.1,224.1,101.4L224.1,101.4z M102.9,117.5
		c7.3-11.1,16.9-16.4,23.7-18.9c2.4-0.9,5.2,0.1,6.4,2.3c2.1,3.8,4.7,10.3,4.7,19.4c0,9-2.6,15.5-4.7,19.4c-1.2,2.2-4,3.2-6.4,2.3
		c-6.8-2.5-16.5-7.8-23.7-18.9C101.8,121.4,101.8,119.2,102.9,117.5L102.9,117.5z"/>
	<path class="st0" d="M115.8,123.7c1,1,2.8,1.1,3.9,0l2.1-2.1l2.1,2.1c1.1,1.1,2.8,1.1,3.9,0c1.1-1.1,1.1-2.8,0-3.9l-2.1-2.1
		l2.1-2.1c1.1-1.1,1.1-2.8,0-3.9c-1.1-1.1-2.8-1.1-3.9,0l-2.1,2.1l-2.1-2.1c-1.1-1.1-2.8-1.1-3.9,0s-1.1,2.8,0,3.9l2.1,2.1l-2.1,2.1
		C114.7,120.9,114.7,122.6,115.8,123.7L115.8,123.7z"/>
	<path class="st0" d="M70.5,169.8c0,7.9,6.5,14.4,14.4,14.4h159.2c7.9,0,14.4-6.5,14.4-14.4c0-7-5-12.8-11.6-14.1V84.9
		c6.6-1.3,11.6-7.1,11.6-14.1c0-7.9-6.5-14.4-14.4-14.4H118.6c-1.5,0-2.8,1.2-2.8,2.8c0,1.5,1.2,2.8,2.8,2.8h125.5
		c4.9,0,8.9,4,8.9,8.9s-4,8.9-8.9,8.9H84.9c-4.9,0-8.9-4-8.9-8.9s4-8.9,8.9-8.9h22.7c1.5,0,2.8-1.2,2.8-2.8c0-1.5-1.2-2.8-2.8-2.8
		H84.9c-7.9,0-14.4,6.5-14.4,14.4c0,7,5,12.8,11.6,14.1v70.8C75.5,157,70.5,162.8,70.5,169.8L70.5,169.8z M241.4,85.2v70.3h-25.8
		c-1.5,0-2.8,1.2-2.8,2.8c0,1.5,1.2,2.8,2.8,2.8h28.6c4.9,0,8.9,4,8.9,8.9s-4,8.9-8.9,8.9H84.9c-4.9,0-8.9-4-8.9-8.9s4-8.9,8.9-8.9
		h119.7c1.5,0,2.8-1.2,2.8-2.8c0-1.5-1.2-2.8-2.8-2.8h-117V85.2H241.4z"/>
</g>
</svg>
