<?xml version="1.0" encoding="utf-8"?>
<!-- Generator: Adobe Illustrator 22.1.0, SVG Export Plug-In . SVG Version: 6.00 Build 0)  -->
<svg version="1.1" id="Warstwa_1" xmlns="http://www.w3.org/2000/svg" xmlns:xlink="http://www.w3.org/1999/xlink" x="0px" y="0px"
	 viewBox="0 0 329 239" style="enable-background:new 0 0 329 239;" xml:space="preserve">
<style type="text/css">
	.st0{fill:#FFFFFF;}
</style>
<g>
	<path class="st0" d="M69.3,117.1H144c0.7,0,1.2,0.6,1.2,1.2v5.5c0,0.7-0.6,1.2-1.2,1.2H69.3c-0.7,0-1.2-0.6-1.2-1.2v-5.5
		C68.1,117.7,68.6,117.1,69.3,117.1z"/>
	<path class="st0" d="M151.9,117.1h5.5c0.7,0,1.2,0.6,1.2,1.2v5.5c0,0.7-0.6,1.2-1.2,1.2h-5.5c-0.7,0-1.2-0.6-1.2-1.2v-5.5
		C150.6,117.7,151.2,117.1,151.9,117.1z"/>
	<path class="st0" d="M165.2,117.1h5.5c0.7,0,1.2,0.6,1.2,1.2v5.5c0,0.7-0.6,1.2-1.2,1.2h-5.5c-0.7,0-1.2-0.6-1.2-1.2v-5.5
		C164,117.7,164.5,117.1,165.2,117.1z"/>
	<path class="st0" d="M274.5,42.3L274.5,42.3c0-0.7-0.6-1.2-1.2-1.2H90.9c-0.7,0-1.2,0.6-1.2,1.2v5.5c0,0.7,0.6,1.2,1.2,1.2h174.3
		c0.7,0,1.2,0.6,1.2,1.2v48.3c0,0.7-0.6,1.2-1.2,1.2H63.8c-0.7,0-1.2-0.6-1.2-1.2V50.4c0-0.7,0.6-1.2,1.2-1.2h16.6
		c0.7,0,1.2-0.6,1.2-1.2v-5.5c0-0.7-0.6-1.2-1.2-1.2H55.8c-0.7,0-1.2,0.6-1.2,1.2v0c0,0.7-0.6,1.2-1.2,1.2H29
		c-0.7,0-1.2,0.6-1.2,1.2v59.3c0,0.7,0.6,1.2,1.2,1.2h24.3c0.7,0,1.2,0.6,1.2,1.2v42.2c0,0.3,0.1,0.6,0.4,0.9l16.6,16.6
		c0.2,0.2,0.5,0.4,0.9,0.4h100.3c0.3,0,0.6,0.1,0.9,0.4l2.1,2.1c0.2,0.2,0.4,0.5,0.4,0.9v10.9c0,0.3,0.1,0.6,0.4,0.9l10.2,10.2
		c0.2,0.2,0.5,0.4,0.9,0.4h16.9c0.3,0,0.6-0.1,0.9-0.4l10.2-10.2c0.2-0.2,0.4-0.5,0.4-0.9v-7.8c0-0.3,0.1-0.6,0.4-0.9l5.2-5.2
		c0.2-0.2,0.5-0.4,0.9-0.4h2.9c0.3,0,0.6,0.1,0.9,0.4l1.7,1.7c0.2,0.2,0.4,0.5,0.4,0.9v4.7c0,0.7,0.6,1.2,1.2,1.2h5.5
		c0.7,0,1.2-0.6,1.2-1.2v-8.1c0-0.3-0.1-0.6-0.4-0.9l-6.4-6.4c-0.2-0.2-0.5-0.4-0.9-0.4h-9.5c-0.3,0-0.6,0.1-0.9,0.4l-9.9,9.9
		c-0.2,0.2-0.4,0.5-0.4,0.9v7.8c0,0.3-0.1,0.6-0.4,0.9l-5.5,5.5c-0.2,0.2-0.5,0.4-0.9,0.4h-10.3c-0.3,0-0.6-0.1-0.9-0.4l-5.5-5.5
		c-0.2-0.2-0.4-0.5-0.4-0.9v-10.9c0-0.3-0.1-0.6-0.4-0.9l-6.8-6.8c-0.2-0.2-0.5-0.4-0.9-0.4H75.7c-0.3,0-0.6-0.1-0.9-0.4l-11.9-11.9
		c-0.2-0.2-0.4-0.5-0.4-0.9v-36.4c0-0.7,0.6-1.2,1.2-1.2h201.4c0.7,0,1.2,0.6,1.2,1.2v76.6c0,0.3-0.1,0.6-0.4,0.9l-5.5,5.5
		c-0.2,0.2-0.5,0.4-0.9,0.4h-17c-0.3,0-0.6-0.1-0.9-0.4l-5.5-5.5c-0.2-0.2-0.4-0.5-0.4-0.9v-0.9c0-0.7-0.6-1.2-1.2-1.2h-5.5
		c-0.7,0-1.2,0.6-1.2,1.2v4.2c0,0.3,0.1,0.6,0.4,0.9l10.2,10.2c0.2,0.2,0.5,0.4,0.9,0.4h23.7c0.3,0,0.6-0.1,0.9-0.4l10.2-10.2
		c0.2-0.2,0.4-0.5,0.4-0.9v-82.4c0-0.7,0.6-1.2,1.2-1.2H300c0.7,0,1.2-0.6,1.2-1.2V44.8c0-0.7-0.6-1.2-1.2-1.2h-24.3
		C275,43.6,274.5,43,274.5,42.3z M53.3,97.4H37c-0.7,0-1.2-0.6-1.2-1.2V52.8c0-0.7,0.6-1.2,1.2-1.2h1.8c0.7,0,1.2,0.6,1.2,1.2V68
		c0,0.7,0.6,1.2,1.2,1.2h5.5c0.7,0,1.2-0.6,1.2-1.2V52.8c0-0.7,0.6-1.2,1.2-1.2h4c0.7,0,1.2,0.6,1.2,1.2v43.3
		C54.5,96.8,54,97.4,53.3,97.4z M292,97.4h-1.7c-0.7,0-1.2-0.6-1.2-1.2V85.2c0-0.7-0.6-1.2-1.2-1.2h-5.5c-0.7,0-1.2,0.6-1.2,1.2
		v10.9c0,0.7-0.6,1.2-1.2,1.2h-4.1c-0.7,0-1.2-0.6-1.2-1.2V52.8c0-0.7,0.6-1.2,1.2-1.2H292c0.7,0,1.2,0.6,1.2,1.2v43.3
		C293.3,96.8,292.7,97.4,292,97.4z M293.3,97.4"/>
</g>
</svg>
