<?xml version="1.0" encoding="utf-8"?>
<!-- Generator: Adobe Illustrator 22.1.0, SVG Export Plug-In . SVG Version: 6.00 Build 0)  -->
<svg version="1.1" id="Warstwa_1" xmlns="http://www.w3.org/2000/svg" xmlns:xlink="http://www.w3.org/1999/xlink" x="0px" y="0px"
	 viewBox="0 0 329 239" style="enable-background:new 0 0 329 239;" xml:space="preserve">
<style type="text/css">
	.st0{fill:#FFFFFF;}
</style>
<g>
	<path class="st0" d="M293,50.3c-6.3,0-230.3,0-250.8,0c-5.6,0-10.2,4.6-10.2,10.2v121c0,5.6,4.6,10.2,10.2,10.2h14.4
		c2.2,0,3.9-1.8,3.9-3.9c0-2.2-1.8-3.9-3.9-3.9H42.2c-1.3,0-2.4-1.1-2.4-2.4v-30.8h44.8c1.2,0,2.4,0.6,3.1,1.5
		c21.7,29.6,66,29.7,87.8,0c0.7-1,1.9-1.5,3.1-1.5h43.4v30.8c0,1.3-1.1,2.4-2.4,2.4c-5.6,0-146.5,0-149,0c-2.2,0-3.9,1.8-3.9,3.9
		c0,2.2,1.8,3.9,3.9,3.9c10.6,0,210.7,0,222.3,0c2.2,0,3.9-1.8,3.9-3.9V54.2C297,52,295.2,50.2,293,50.3L293,50.3z M283.9,58.2
		l-24.3,25.5l-24.3-25.5H283.9z M222.1,91.3h-16.2c-2.2,0-3.9,1.8-3.9,3.9c0,2.2,1.8,3.9,3.9,3.9h16.2v43.7h-43.4
		c-3.7,0-7.3,1.8-9.4,4.7c-18.6,25.4-56.5,25.4-75.1,0c-2.2-3-5.7-4.7-9.4-4.7H39.9V99.1h43.6c3.9,0,7.5-1.9,9.7-5.1
		c18.5-27.4,58.7-27.4,77.2,0c2.2,3.2,5.8,5.1,9.7,5.1h11.8c2.2,0,3.9-1.8,3.9-3.9c0-2.2-1.8-3.9-3.9-3.9H180
		c-1.3,0-2.5-0.6-3.2-1.6c-21.6-31.9-68.6-32-90.2,0c-0.7,1-1.9,1.6-3.2,1.6H39.9V60.5c0-1.3,1.1-2.4,2.4-2.4
		c10.4,0,167.3,0,177.5,0c1.3,0,2.4,1.1,2.4,2.4V91.3z M289.1,183.8h-25.7V126c0-2.2-1.8-3.9-3.9-3.9c-2.2,0-3.9,1.8-3.9,3.9v57.9
		h-25.9c0.4-1.7,0.3-112.2,0.3-119.8l25.7,26.9v20.9c0,2.2,1.8,3.9,3.9,3.9c2.2,0,3.9-1.8,3.9-3.9V91c0,0,0-0.1,0-0.1L289.1,64
		V183.8z M289.1,183.8"/>
</g>
</svg>
