<?xml version="1.0" encoding="utf-8"?>
<!-- Generator: Adobe Illustrator 22.1.0, SVG Export Plug-In . SVG Version: 6.00 Build 0)  -->
<svg version="1.1" id="Warstwa_1" xmlns="http://www.w3.org/2000/svg" xmlns:xlink="http://www.w3.org/1999/xlink" x="0px" y="0px"
	 viewBox="0 0 329 239" style="enable-background:new 0 0 329 239;" xml:space="preserve">
<style type="text/css">
	.st0{fill:#FFFFFF;}
</style>
<g>
	<path class="st0" d="M223,44.4l-6.2,0.9l1-5.1H117.2l-1.2,4.6c-1.3-0.5-2.8-1.1-4.3-1.7l-2.2-0.9L85,81.6l2.9,8.9
		c-0.7-0.4-1.5-0.8-2.2-1.2l-4.1-2.1v42.3c0,2.5,0.9,4.9,2.4,6.8c3.5,4.3,6.6,8.1,8.8,10.8l0.8,0.9l1.2,0.1c2.6,0.2,5.3,0.4,7.8,0.5
		l-8,3.2l-12.4,35.4c-0.4,1.1-0.6,2.3-0.6,3.6v6.7c0,5.9,4.8,10.7,10.7,10.7h59.5c0.8,0,1.7-0.1,2.5-0.3
		c18.1-4.3,34.8-8.4,41.9-10.1l1.6-0.4l0.5-1.6c0.3-0.9,0.5-1.9,0.8-2.8l1.4,4.9l20.8,9.4c1.4,0.6,2.9,0.9,4.4,0.9h13.1
		c5.9,0,10.7-4.8,10.7-10.8v-20.5c0-1.4-0.3-2.8-0.9-4.3l-14.3-30c0-0.2-0.1-0.3-0.1-0.5l-0.3-1.2l-8.1-3.9l8-1l0.7-1.4
		c0.2-0.5,0.4-0.8,0.7-1.1l12-14.6c1.6-1.9,2.4-4.3,2.4-6.8V87L223,44.4z M210.9,45.8l-1.2,6.1l10.5-1.5L241.8,85h-56.6V45.8H210.9z
		 M165.6,45.8h14V85h-28V45.8H165.6z M151.6,90.6h2.8c0,1.5,1.3,2.8,2.8,2.8c1.5,0,2.8-1.3,2.8-2.8h11.2c0,1.5,1.3,2.8,2.8,2.8
		c1.5,0,2.8-1.3,2.8-2.8h2.8v43.6l-2.8-2.8l-11.2,11.2l-11.2-11.2l-2.8,2.8V90.6z M111.8,49.2c2.8,1.1,5.1,2,5.1,2l3,1.2l1.6-6.6
		H146V85H92l-0.9-2.7L111.8,49.2z M242.8,115.3l-12,14.6c-0.2,0.3-0.5,0.6-0.6,0.9l-24.1,3l23.1,11c0,0.1,0,0.1,0.1,0.2l14.3,29.9
		c0.3,0.6,0.4,1.3,0.4,2v20.5c0,2.8-2.3,5.2-5.1,5.2h-13.1c-0.7,0-1.4-0.2-2.1-0.5l-18.5-8.3l-5.9-20.8l-2.8,9.1
		c0,0-1.6,5.4-3.1,10.5c-7.8,1.9-23.4,5.7-40.3,9.7c-0.4,0.1-0.8,0.1-1.2,0.1H92.3c-0.4,0-0.7,0-1.1-0.1l6.3-6.3
		c1.1-1.1,1.1-2.9,0-4c-1.1-1.1-2.9-1.1-4,0l-6.3,6.3c-0.1-0.4-0.1-0.7-0.1-1.1v-6.7c0-0.6,0.1-1.1,0.3-1.7l11.5-33l28.9-11.5
		l-12.5-0.7c0,0-9.5-0.6-18.9-1.2c-2.2-2.6-5-6.1-8.1-9.9c-0.8-0.9-1.2-2.1-1.2-3.3v-33c2.5,1.3,4.3,2.3,4.3,2.3l6.2,3.4l-3.8-11.4
		H146v57.2l8.4-8.4l11.2,11.2l11.2-11.2l8.4,8.4V90.6H244V112C244,113.2,243.6,114.4,242.8,115.3L242.8,115.3z M242.8,115.3"/>
	<path class="st0" d="M168.4,48.6c0,1.5-1.3,2.8-2.8,2.8c-1.5,0-2.8-1.3-2.8-2.8c0-1.5,1.3-2.8,2.8-2.8
		C167.1,45.8,168.4,47.1,168.4,48.6L168.4,48.6z M168.4,48.6"/>
	<path class="st0" d="M160,57c0,1.5-1.3,2.8-2.8,2.8c-1.5,0-2.8-1.3-2.8-2.8c0-1.5,1.3-2.8,2.8-2.8C158.7,54.2,160,55.5,160,57
		L160,57z M160,57"/>
	<path class="st0" d="M160,73.8c0,1.5-1.3,2.8-2.8,2.8c-1.5,0-2.8-1.3-2.8-2.8c0-1.5,1.3-2.8,2.8-2.8C158.7,71,160,72.3,160,73.8
		L160,73.8z M160,73.8"/>
	<path class="st0" d="M168.4,65.4c0,1.5-1.3,2.8-2.8,2.8c-1.5,0-2.8-1.3-2.8-2.8c0-1.5,1.3-2.8,2.8-2.8
		C167.1,62.6,168.4,63.9,168.4,65.4L168.4,65.4z M168.4,65.4"/>
	<path class="st0" d="M176.8,57c0,1.5-1.3,2.8-2.8,2.8c-1.5,0-2.8-1.3-2.8-2.8c0-1.5,1.3-2.8,2.8-2.8
		C175.5,54.2,176.8,55.5,176.8,57L176.8,57z M176.8,57"/>
	<path class="st0" d="M176.8,73.8c0,1.5-1.3,2.8-2.8,2.8c-1.5,0-2.8-1.3-2.8-2.8c0-1.5,1.3-2.8,2.8-2.8
		C175.5,71,176.8,72.3,176.8,73.8L176.8,73.8z M176.8,73.8"/>
	<path class="st0" d="M168.4,82.2c0,1.5-1.3,2.8-2.8,2.8c-1.5,0-2.8-1.3-2.8-2.8c0-1.5,1.3-2.8,2.8-2.8
		C167.1,79.4,168.4,80.7,168.4,82.2L168.4,82.2z M168.4,82.2"/>
	<path class="st0" d="M160,107.4c0,1.5-1.3,2.8-2.8,2.8c-1.5,0-2.8-1.3-2.8-2.8c0-1.5,1.3-2.8,2.8-2.8
		C158.7,104.6,160,105.9,160,107.4L160,107.4z M160,107.4"/>
	<path class="st0" d="M168.4,99c0,1.5-1.3,2.8-2.8,2.8c-1.5,0-2.8-1.3-2.8-2.8c0-1.5,1.3-2.8,2.8-2.8
		C167.1,96.2,168.4,97.5,168.4,99L168.4,99z M168.4,99"/>
	<path class="st0" d="M176.8,107.4c0,1.5-1.3,2.8-2.8,2.8c-1.5,0-2.8-1.3-2.8-2.8c0-1.5,1.3-2.8,2.8-2.8
		C175.5,104.6,176.8,105.9,176.8,107.4L176.8,107.4z M176.8,107.4"/>
	<path class="st0" d="M168.4,115.8c0,1.5-1.3,2.8-2.8,2.8c-1.5,0-2.8-1.3-2.8-2.8c0-1.5,1.3-2.8,2.8-2.8
		C167.1,113,168.4,114.3,168.4,115.8L168.4,115.8z M168.4,115.8"/>
	<path class="st0" d="M160,124.2c0,1.5-1.3,2.8-2.8,2.8c-1.5,0-2.8-1.3-2.8-2.8c0-1.5,1.3-2.8,2.8-2.8
		C158.7,121.4,160,122.7,160,124.2L160,124.2z M160,124.2"/>
	<path class="st0" d="M168.4,132.6c0,1.5-1.3,2.8-2.8,2.8c-1.5,0-2.8-1.3-2.8-2.8c0-1.5,1.3-2.8,2.8-2.8
		C167.1,129.8,168.4,131.1,168.4,132.6L168.4,132.6z M168.4,132.6"/>
	<path class="st0" d="M176.8,124.2c0,1.5-1.3,2.8-2.8,2.8c-1.5,0-2.8-1.3-2.8-2.8c0-1.5,1.3-2.8,2.8-2.8
		C175.5,121.4,176.8,122.7,176.8,124.2L176.8,124.2z M176.8,124.2"/>
</g>
</svg>
