<?xml version="1.0" encoding="utf-8"?>
<!-- Generator: Adobe Illustrator 22.1.0, SVG Export Plug-In . SVG Version: 6.00 Build 0)  -->
<svg version="1.1" id="Warstwa_1" xmlns="http://www.w3.org/2000/svg" xmlns:xlink="http://www.w3.org/1999/xlink" x="0px" y="0px"
	 viewBox="0 0 329 239" style="enable-background:new 0 0 329 239;" xml:space="preserve">
<style type="text/css">
	.st0{fill:#FFFFFF;}
</style>
<path class="st0" d="M171.5,28.2c-1.4-0.2-2.8-0.3-4.2-0.3v-7c0-3.8-5.7-3.8-5.7,0v7c-1.4,0.1-2.8,0.2-4.2,0.3
	c-57.2,6.9-76,54.7-74.7,85.3c0.1,2.5,3.3,3.7,5,1.8c4.9-5.5,14.4-8.6,22-7.3c3.2,0.6,7.4,2.1,9.1,6.5l0,0c0.1,0.2,0.2,0.4,0.3,0.6
	c0,0,0.1,0.1,0.1,0.1c0.1,0.1,0.2,0.3,0.3,0.4c0.1,0,0.1,0.1,0.2,0.1c0.1,0.1,0.3,0.2,0.4,0.3c0.1,0,0.1,0.1,0.1,0.1
	c0.2,0.1,0.4,0.2,0.6,0.2h0.1c0.1,0,0.3,0,0.5,0h0.1c0.1,0,0.1,0,0.2,0c0.1,0,0.3,0,0.4-0.1c0.1,0,0.1,0,0.2-0.1
	c0.1-0.1,0.3-0.1,0.4-0.2c0.1,0,0.1-0.1,0.2-0.1c0.2-0.1,0.3-0.3,0.5-0.4h0c5.2-5.5,14.9-8,23.1-6.1c7.2,1.6,13,7.1,15,14.3v43.3h-2
	c-1.6,0-2.8,1.3-2.8,2.8v17.3c0,2.1-0.8,4.1-2.3,5.6c-1.5,1.5-3.5,2.3-5.6,2.3s-4.1-0.8-5.6-2.3c-1.5-1.5-2.3-3.5-2.3-5.6v-7.5
	c0-1.6-1.3-2.8-2.8-2.8h-9.7c-1.6,0-2.8,1.3-2.8,2.8v7.5c0,12.9,10.5,23.4,23.4,23.4s23.4-10.5,23.4-23.4v-17.3
	c0-1.6-1.3-2.8-2.8-2.8h-2v-43.2c1.9-7.2,7.7-12.7,15-14.3c8.2-1.9,17.9,0.6,23.1,6.1l0,0c0.1,0.2,0.3,0.3,0.5,0.4
	c0.1,0,0.1,0.1,0.2,0.1c0.1,0.1,0.3,0.1,0.4,0.2c0.1,0,0.2,0.1,0.2,0.1c0.1,0,0.3,0.1,0.4,0.1c0.1,0,0.2,0,0.2,0c0,0,0,0,0.1,0h0.1
	c0.2,0,0.3,0,0.5,0h0.1c0.2,0,0.4-0.1,0.6-0.2c0,0,0.1,0,0.1-0.1c0.1-0.1,0.3-0.2,0.4-0.3c0.1,0,0.1-0.1,0.1-0.1
	c0.1-0.1,0.3-0.2,0.4-0.4c0,0,0.1-0.1,0.1-0.1c0.1-0.2,0.2-0.4,0.3-0.6l0,0c1.8-4.3,5.9-5.9,9.1-6.5c7.7-1.3,17.1,1.8,22,7.3
	c1.7,1.9,4.8,0.8,5-1.8C247.5,82.9,228.7,35.1,171.5,28.2L171.5,28.2z M166.5,186.8c0,9.8-7.9,17.7-17.7,17.7
	c-9.8,0-17.7-7.9-17.7-17.7v-4.6h4.1v4.6c0,7.5,6.1,13.6,13.6,13.6c7.5,0,13.6-6.1,13.6-13.6v-14.4h4.1V186.8z M110.8,102.3
	c-7.8-1.1-15.7,0.6-22.3,4.9c1.3-27.6,19.1-65.5,66.1-72.9c-21.4,17.7-34.3,43.5-35.7,71.2C116.4,103.9,113.7,102.8,110.8,102.3
	L110.8,102.3z M148,103.7c-2.3-0.5-4.7-0.8-7-0.8c-5.8,0-11.5,1.5-16.5,4.5c1-28.2,14.7-54.5,37.2-71.4v75.9
	C158.1,107.7,153.3,104.9,148,103.7L148,103.7z M181,103.7c-5.3,1.2-10.1,4.1-13.7,8.2V36c22.6,17,36.3,43.2,37.2,71.4
	C197.5,103.2,189,101.8,181,103.7L181,103.7z M218.2,102.3c-2.9,0.5-5.7,1.6-8.1,3.2c-1.4-27.7-14.4-53.6-35.7-71.2
	c47.1,7.4,64.8,45.3,66.1,72.9C233.9,102.9,226,101.2,218.2,102.3L218.2,102.3z M218.2,102.3"/>
</svg>
