<?xml version="1.0" encoding="utf-8"?>
<!-- Generator: Adobe Illustrator 22.1.0, SVG Export Plug-In . SVG Version: 6.00 Build 0)  -->
<svg version="1.1" id="Warstwa_1" xmlns="http://www.w3.org/2000/svg" xmlns:xlink="http://www.w3.org/1999/xlink" x="0px" y="0px"
	 viewBox="0 0 329 239" style="enable-background:new 0 0 329 239;" xml:space="preserve">
<style type="text/css">
	.st0{fill:#FFFFFF;}
</style>
<path class="st0" d="M189.3,72.1V59.8c0-2.5-2-4.6-4.6-4.6h-4.4l-5.2-37.3c-0.3-2.3-2.2-3.9-4.5-3.9h-10.2c-2.3,0-4.2,1.7-4.5,3.9
	l-5.2,37.3h-4.4c-2.5,0-4.6,2-4.6,4.6v12.3c-5.7,2.6-9.7,8.4-9.7,15.1v121.3c0,9.1,7.4,16.5,16.5,16.5h34c9.1,0,16.5-7.4,16.5-16.5
	V87.2C199,80.5,195,74.7,189.3,72.1L189.3,72.1z M150.8,64.4h3.6v6.3h-3.6V64.4z M163.5,64.4h3.9v6.3h-3.9V64.4z M176.6,64.4h3.6
	v6.3h-3.6V64.4z M164.4,23.1h2.2l4.5,32.1h-11.2L164.4,23.1z M182.5,215.9h-34c-4.1,0-7.4-3.3-7.4-7.4V87.2c0-4.1,3.3-7.4,7.4-7.4
	h34c4.1,0,7.4,3.3,7.4,7.4v35.2h-33.7c-2.5,0-4.6,2-4.6,4.6v41.8c0,2.5,2,4.6,4.6,4.6h33.7v35.2
	C189.8,212.6,186.5,215.9,182.5,215.9L182.5,215.9z M189.8,164.2h-29.2v-32.7h29.2V164.2z M189.8,164.2"/>
</svg>
