<?xml version="1.0" encoding="utf-8"?>
<!-- Generator: Adobe Illustrator 22.1.0, SVG Export Plug-In . SVG Version: 6.00 Build 0)  -->
<svg version="1.1" id="Warstwa_1" xmlns="http://www.w3.org/2000/svg" xmlns:xlink="http://www.w3.org/1999/xlink" x="0px" y="0px"
	 viewBox="0 0 329 239" style="enable-background:new 0 0 329 239;" xml:space="preserve">
<style type="text/css">
	.st0{fill:#FFFFFF;}
</style>
<path class="st0" d="M127.7,140.4c-1-1.9-3.2-2.7-5.1-1.7c-1.9,1-2.7,3.2-1.7,5.1l6.9,13.9c0.7,1.3,2,2.1,3.4,2.1
	c0.6,0,1.1-0.1,1.7-0.4c1.9-1,2.7-3.2,1.7-5.1L127.7,140.4z"/>
<path class="st0" d="M162.3,140.4c-1-1.9-3.2-2.7-5.1-1.7c-1.9,1-2.7,3.2-1.7,5.1l6.9,13.9c0.7,1.3,2,2.1,3.4,2.1
	c0.6,0,1.1-0.1,1.7-0.4c1.9-1,2.7-3.2,1.7-5.1L162.3,140.4z"/>
<path class="st0" d="M196.9,140.4c-1-1.9-3.2-2.7-5.1-1.7c-1.9,1-2.7,3.2-1.7,5.1l6.9,13.9c0.7,1.3,2,2.1,3.4,2.1
	c0.6,0,1.2-0.1,1.7-0.4c1.9-1,2.7-3.2,1.7-5.1L196.9,140.4z"/>
<path class="st0" d="M118.7,97.1c0.5,0.3,1.1,0.4,1.7,0.4c1.4,0,2.8-0.7,3.4-2.1l3.4-6.9c2.7-5.4,2.7-11.9,0-17.2
	c-1.6-3.3-1.6-7.2,0-10.4l3.4-6.9c1-1.9,0.1-4.2-1.7-5.1c-1.9-1-4.2-0.1-5.1,1.7l-3.4,6.9c-2.7,5.4-2.7,11.9,0,17.2
	c1.6,3.3,1.6,7.2,0,10.4L117,92C116.1,93.9,116.9,96.2,118.7,97.1L118.7,97.1z"/>
<path class="st0" d="M194.8,97.1c0.5,0.3,1.1,0.4,1.7,0.4c1.4,0,2.8-0.7,3.4-2.1l3.4-6.9c2.7-5.4,2.7-11.9,0-17.2
	c-1.6-3.3-1.6-7.2,0-10.4l3.4-6.9c1-1.9,0.1-4.2-1.7-5.1c-1.9-1-4.2-0.1-5.1,1.7l-3.4,6.9c-2.7,5.4-2.7,11.9,0,17.2
	c1.6,3.3,1.6,7.2,0,10.4l-3.4,6.9C192.2,93.9,193,96.2,194.8,97.1L194.8,97.1z"/>
<path class="st0" d="M160.6,100.7c0.4,0.1,1,0.3,1.4,0.3c1.5,0,3-0.9,3.6-2.4L169,90c2.6-6.5,2.6-13.6,0-20.1
	c-1.9-4.7-1.9-9.8,0-14.5l3.4-8.6c0.8-1.9-0.1-4.2-2.2-5c-1.9-0.7-4.2,0.1-5,2.2l-3.4,8.6c-2.6,6.5-2.6,13.6,0,20.1
	c1.9,4.7,1.9,9.8,0,14.5l-3.4,8.6C157.6,97.7,158.6,99.9,160.6,100.7L160.6,100.7z"/>
<path class="st0" d="M279.3,124.5l-11.9,1l2.1-10.2c0.4-2.1-0.9-4.1-3-4.5c-2.1-0.4-4.1,0.9-4.5,3l-1.6,7.8
	c-1.3-1.3-2.8-2.4-4.3-3.4c-6.6-4.2-14.3-5.4-21.8-3.5c-48.4,12.4-94.6,12.8-137.3,1.1c-7.6-2.1-15.7-0.9-22.4,3.3
	c-2.6,1.6-4.9,3.7-6.9,6.1l-6-11.2c-1-1.9-3.3-2.5-5.1-1.6c-1.9,1-2.5,3.3-1.6,5.1l4.9,9.2l-11.6,2.5c-2.1,0.4-3.4,2.5-2.9,4.5
	c0.4,1.8,1.9,3.1,3.7,3.1c0.3,0,0.5,0,0.8-0.1l13-2.8c-0.4,1.3-0.8,2.5-1,3.8c-2.7,14.2,6,28.4,19.7,32.3
	c26.4,7.4,53.5,11.1,81.2,11.1c28,0,56.7-3.8,85.6-11.4c14.2-3.7,23.2-18.1,20.4-32.6c-0.2-1.3-0.6-2.5-1-3.8l12.1-1
	c2.1-0.1,3.7-2,3.5-4.1C283.2,125.9,281.3,124.4,279.3,124.5L279.3,124.5z M246.5,162.2c-56.2,14.8-111,14.9-162.8,0.3
	c-10-2.8-16.2-13.1-14.2-23.5c1-5.7,4.4-10.5,9.2-13.6c3.4-2.1,7-3.1,10.8-3.1c1.9,0,3.7,0.2,5.5,0.7c44,12.1,91.5,11.7,141.2-1
	c5.4-1.4,11-0.5,15.8,2.5c4.8,3.1,8.3,8.1,9.3,13.8C263.3,149,256.9,159.4,246.5,162.2L246.5,162.2z"/>
</svg>
