<?xml version="1.0" encoding="utf-8"?>
<!-- Generator: Adobe Illustrator 22.1.0, SVG Export Plug-In . SVG Version: 6.00 Build 0)  -->
<svg version="1.1" id="Warstwa_1" xmlns="http://www.w3.org/2000/svg" xmlns:xlink="http://www.w3.org/1999/xlink" x="0px" y="0px"
	 viewBox="0 0 329 239" style="enable-background:new 0 0 329 239;" xml:space="preserve">
<style type="text/css">
	.st0{fill:#FFFFFF;}
</style>
<path class="st0" d="M242.3,210c0.9,0,1.6-0.3,2.2-0.9l21.7-21.7c1.2-1.2,1.2-3.1,0-4.4L205,121.8c-3.5-3.5-8.1-5.4-13-5.4
	c-3.1,0-6.3,0.8-9.1,2.3l-1.6,1.1l-9.1-9.1l3.1-1.5c16.6-8.5,27-25.5,27-44.2c0-8.2-6.7-14.9-14.9-14.9H84.6c-1.7,0-3.1,1.4-3.1,3.1
	v58.4c0,1.7,1.4,3.1,3.1,3.1h60.2l-9,18.1c-2.1,4.2-1.9,9.1,0.6,13c2.4,4,6.7,6.4,11.4,6.4s9-2.4,11.4-6.3c2.5-4,2.7-8.9,0.6-13.1
	l-9-18.1h4c3-0.1,6.1-0.5,9.4-1.3l1.4-0.5l11.3,11.3l-1.1,1.6c-1.5,2.7-2.3,5.8-2.3,9.1c0,5,1.9,9.6,5.4,13l61.1,61.3h0
	C240.7,209.7,241.4,210,242.3,210z M136,58.3h1.9v-2h42.4l-4.5,9.3c-2.2,4.7-7.1,7.7-12.3,7.7H136V58.3z M154.3,135.5
	c1.1,2.3,1,4.7-0.3,7l-0.1,0.2c-1.6,2.2-3.6,3.3-6.1,3.3c-2.6,0-4.8-1.2-6.2-3.4c-1-1.5-1.8-4.2-0.3-7.1l6.5-13L154.3,135.5z
	 M152.6,108.6H87.7V56.3h42.1v20.1c0,1.7,1.4,3.1,3.1,3.1h30.6c7.6,0,14.6-4.4,17.9-11.3l5.9-12.3l1.9,0.5c4,0.8,7,4.4,7,8.6
	C196.1,89.1,176.5,108.6,152.6,108.6z M183.2,143.6c-4.7-4.8-4.7-12.5,0-17.3l0.1-0.1c2.2-2.2,5.3-3.5,8.6-3.5
	c3.2,0,6.3,1.3,8.6,3.6l59,59l-17.3,17.3L183.2,143.6z"/>
</svg>
