<?xml version="1.0" encoding="utf-8"?>
<!-- Generator: Adobe Illustrator 22.1.0, SVG Export Plug-In . SVG Version: 6.00 Build 0)  -->
<svg version="1.1" id="Warstwa_1" xmlns="http://www.w3.org/2000/svg" xmlns:xlink="http://www.w3.org/1999/xlink" x="0px" y="0px"
	 viewBox="0 0 329 239" style="enable-background:new 0 0 329 239;" xml:space="preserve">
<style type="text/css">
	.st0{fill:#FFFFFF;}
</style>
<path class="st0" d="M260.4,186.9H252c2.6-2.8,4.2-6.5,4.2-10.6v-57.7c0-3.9-2.6-7.2-6.2-8.3V67c0-1.4-1.1-2.5-2.4-2.5h-2.7V32
	c0-2.9-1.4-5.5-3.9-7.2c-2.6-1.7-5.8-2.1-8.7-1l-8.6,3.4c-5.3,2-8.7,6.9-8.7,12.4v25h-2.7c-1.4,0-2.5,1.1-2.5,2.5v43.2
	c-3.6,1.1-6.2,4.4-6.2,8.3v57.7c0,4.1,1.6,7.8,4.2,10.6h-25c9.9-12.8,9.2-26.5,9.2-27v-52.4c0-1.4-1.1-2.5-2.5-2.5h-13.3V73.5h5.7
	c1.4,0,2.5-1.1,2.5-2.5c0-1.4-1.1-2.5-2.5-2.5h-5.7v-5.4h9.4c1.4,0,2.5-1.1,2.5-2.5c0-1.4-1.1-2.5-2.5-2.5h-9.4V53h9.4
	c1.4,0,2.5-1.1,2.5-2.5c0-1.4-1.1-2.5-2.5-2.5h-9.4v-5.4h9.4c1.4,0,2.5-1.1,2.5-2.5c0-1.4-1.1-2.4-2.5-2.4h-9.4v-5.4h5.7
	c1.4,0,2.5-1.1,2.5-2.4c0-1.4-1.1-2.5-2.5-2.5h-5.7v-2c0-1.4-1.1-2.5-2.4-2.5c-1.4,0-2.5,1.1-2.5,2.5v2h-5.7c-1.4,0-2.5,1.1-2.5,2.5
	c0,1.4,1.1,2.4,2.5,2.4h5.7v5.4H162c-1.4,0-2.5,1.1-2.5,2.4c0,1.4,1.1,2.5,2.5,2.5h9.4v5.4H162c-1.4,0-2.5,1.1-2.5,2.5
	c0,1.4,1.1,2.5,2.5,2.5h9.4v5.4H162c-1.4,0-2.5,1.1-2.5,2.5c0,1.4,1.1,2.5,2.5,2.5h9.4v5.4h-5.7c-1.4,0-2.5,1.1-2.5,2.5
	c0,1.4,1.1,2.5,2.5,2.5h5.7V105h-13.3c-1.4,0-2.5,1.1-2.5,2.5l0,52.2c0,0.6-0.8,14.4,9.2,27.2h-22.3c2.1-2.6,3.2-5.8,3-9.1
	l-4.2-64.7c-0.4-6.5-5.8-11.6-12.3-11.6h-2.1V59.4c0-4.6-3.8-8.4-8.4-8.4h-17.9c-4.6,0-8.4,3.8-8.4,8.4v41.9h-2.1
	c-6.5,0-12,5.1-12.3,11.6l-4.2,64.8c-0.2,3.4,0.9,6.6,3,9.1h-7.2c-1.4,0-2.5,1.1-2.5,2.4v27.5c0,1.4,1.1,2.5,2.5,2.5h191.2
	c1.4,0,2.5-1.1,2.5-2.5v-27.5C262.9,188,261.8,186.9,260.4,186.9L260.4,186.9z M219.9,39.6c0-3.4,2.2-6.5,5.6-7.8l8.6-3.4
	c1.4-0.5,2.9-0.4,4.2,0.5c1.1,0.8,1.7,1.9,1.7,3.2v32.5h-20.1V39.6z M245.1,69.4v40.4h-30.4V69.4H245.1z M208.5,176.2v-57.7
	c0-2.1,1.7-3.8,3.8-3.8h35.2c2.1,0,3.8,1.7,3.8,3.8v57.7c0,5.8-4.8,10.6-10.6,10.6h-21.6C213.3,186.9,208.5,182.1,208.5,176.2
	L208.5,176.2z M160.6,159.8v-49.9h26.6l0,50.1c0,0.1,0.8,14.8-10.7,26.9h-5.2C159.8,174.8,160.6,160.1,160.6,159.8L160.6,159.8z
	 M136.3,113.3l0.6,8.7h-25v-15.8h17C132.8,106.3,136.1,109.3,136.3,113.3L136.3,113.3z M97.1,59.4c0-1.9,1.6-3.5,3.5-3.5h17.9
	c1.9,0,3.5,1.6,3.5,3.5v41.9H97.1V59.4z M90.1,106.3H107V122H82l0.6-8.8C82.8,109.3,86.1,106.3,90.1,106.3L90.1,106.3z M80.6,184.2
	c-1.6-1.7-2.4-3.9-2.3-6.2l3.3-51.1H107v14.9c-4.6,2.2-9.6,10.1-9.6,18.2c0,7.1,5.4,12.9,12,12.9s12-5.8,12-12.9
	c0-7.9-5-15.9-9.6-18.2v-14.9h25.3l3.3,51.1c0.1,2.3-0.7,4.5-2.3,6.2c-1.6,1.7-3.8,2.6-6.1,2.6H86.7
	C84.4,186.9,82.2,185.9,80.6,184.2L80.6,184.2z M109.4,146c1.8,0.2,7.2,6.7,7.2,13.9c0,4.4-3.2,8-7.1,8c-3.9,0-7.1-3.6-7.1-8
	C102.3,152.4,107.8,146.2,109.4,146L109.4,146z M258,214.3H71.7v-22.6H258V214.3z M258,214.3"/>
</svg>
