<?xml version="1.0" encoding="utf-8"?>
<!-- Generator: Adobe Illustrator 22.1.0, SVG Export Plug-In . SVG Version: 6.00 Build 0)  -->
<svg version="1.1" id="Warstwa_1" xmlns="http://www.w3.org/2000/svg" xmlns:xlink="http://www.w3.org/1999/xlink" x="0px" y="0px"
	 viewBox="0 0 329 239" style="enable-background:new 0 0 329 239;" xml:space="preserve">
<style type="text/css">
	.st0{fill:#FFFFFF;}
</style>
<path class="st0" d="M226.2,123.3c-1.9,0-3.4,1.5-3.4,3.4v37.4c0,1.9,1.5,3.4,3.4,3.4c1.9,0,3.4-1.5,3.4-3.4v-37.4
	C229.6,124.8,228.1,123.3,226.2,123.3L226.2,123.3z M226.2,123.3"/>
<path class="st0" d="M226.2,174.3c-1.9,0-3.4,1.5-3.4,3.4v6.8c0,1.9,1.5,3.4,3.4,3.4c1.9,0,3.4-1.5,3.4-3.4v-6.8
	C229.6,175.8,228.1,174.3,226.2,174.3L226.2,174.3z M226.2,174.3"/>
<path class="st0" d="M224.9,195c-0.4,0.2-0.8,0.4-1.1,0.7c-1.3,1.3-1.3,3.5,0,4.8c0.3,0.3,0.7,0.5,1.1,0.7c0.4,0.2,0.8,0.3,1.3,0.3
	c1.4,0,2.6-0.8,3.2-2.1c0.5-1.3,0.2-2.7-0.7-3.7C227.6,194.7,226.2,194.4,224.9,195L224.9,195z M224.9,195"/>
<path class="st0" d="M202.4,106.3c26.4,0,27.2-12.2,27.2-13.6c0-1.9-1.5-3.4-3.4-3.5c-0.9,0-1.8,0.3-2.4,0.9c-0.6,0.6-1,1.5-1,2.4
	c0,0.1-1,7-20.4,7c-17.3,0-20.5-7.6-20.6-7.9c-0.6-1.8-2.5-2.7-4.3-2.2c-1.8,0.6-2.7,2.5-2.2,4.3
	C175.5,94.3,179.8,106.3,202.4,106.3L202.4,106.3z M202.4,106.3"/>
<path class="st0" d="M107.2,140.3c1.9,0,3.4-1.5,3.4-3.4V82.5c0-1.9-1.5-3.4-3.4-3.4c-1.9,0-3.4,1.5-3.4,3.4v54.4
	C103.8,138.8,105.3,140.3,107.2,140.3L107.2,140.3z M107.2,140.3"/>
<path class="st0" d="M127.6,181.1c1.9,0,3.4-1.5,3.4-3.4v-71.4c0-1.9-1.5-3.4-3.4-3.4s-3.4,1.5-3.4,3.4v71.4
	C124.2,179.6,125.7,181.1,127.6,181.1L127.6,181.1z M127.6,181.1"/>
<path class="st0" d="M148,140.3c1.9,0,3.4-1.5,3.4-3.4v-17c0-1.9-1.5-3.4-3.4-3.4c-1.9,0-3.4,1.5-3.4,3.4v17
	C144.6,138.8,146.1,140.3,148,140.3L148,140.3z M148,140.3"/>
<path class="st0" d="M67.3,83.9l19.5,13.9v96.8c0,15.2,17.9,27.2,40.8,27.2c17,0,31.2-6.6,37.4-16.2c6.2,9.6,20.4,16.2,37.4,16.2
	c22.9,0,40.8-11.9,40.8-27.2v-25.4l19.5-13.9c2.7-1.9,4.3-5,4.3-8.3v-6.7c0.2-4.3-2-8.3-5.7-10.4c-3.2-1.6-7-1.3-9.9,0.9l-0.1,0
	l-8.2,6.1V92.7c0-15.3-17.9-27.2-40.8-27.2c-14.4,0-26.7,4.7-34,12V45.1c0-15.2-17.9-27.2-40.8-27.2c-22.9,0-40.8,11.9-40.8,27.2
	v20.4l-8.2-6.2c-2.9-2.1-6.7-2.5-9.9-0.9c-3.7,2.1-5.9,6.2-5.7,10.4v6.7C63,78.9,64.6,82,67.3,83.9L67.3,83.9z M238.3,146.8
	c1.2,0.6,2.5,0.4,3.6-0.3l13.6-10.2c0.8-0.6,1.9-0.8,2.8-0.3c1.4,1,2.2,2.7,2,4.4v6.7c0,1.1-0.5,2.1-1.4,2.8l-21,15
	c-0.9,0.6-1.4,1.7-1.4,2.8v27.2c0,11.1-15.6,20.4-34,20.4c-2.3,0-4.5-0.1-6.8-0.4v-40.4c0-1.9-1.5-3.4-3.4-3.4
	c-1.9,0-3.4,1.5-3.4,3.4v39c-11.9-3.2-20.4-10.5-20.4-18.6v-86.8c5.7,5.3,12.8,8.9,20.4,10.5v42.3c0,1.9,1.5,3.4,3.4,3.4
	c1.9,0,3.4-1.5,3.4-3.4v-41.2c2.3,0.3,4.5,0.4,6.8,0.4c14.4,0,26.7-4.7,34-12v35.8C236.4,145,237.1,146.2,238.3,146.8L238.3,146.8z
	 M202.4,72.3c18.4,0,34,9.3,34,20.4c0,11.1-15.6,20.4-34,20.4c-18.4,0-34-9.3-34-20.4C168.4,81.7,184,72.3,202.4,72.3L202.4,72.3z
	 M127.6,24.7c18.4,0,34,9.3,34,20.4c0,11.1-15.6,20.4-34,20.4c-18.4,0-34-9.3-34-20.4C93.6,34.1,109.2,24.7,127.6,24.7L127.6,24.7z
	 M69.8,68.9c-0.2-1.7,0.6-3.4,2-4.4c0.3-0.2,0.7-0.3,1.1-0.3c0.6,0,1.2,0.2,1.7,0.6L88.2,75c1,0.8,2.4,0.9,3.6,0.3
	c1.2-0.6,1.9-1.8,1.9-3v-12c7.2,7.3,19.6,12,34,12c14.4,0,26.7-4.7,34-12v134.4c0,5.6-3.9,10.7-10.2,14.4v-51.8
	c0-1.9-1.5-3.4-3.4-3.4c-1.9,0-3.4,1.5-3.4,3.4v54.4c0,0.2,0.1,0.3,0.1,0.5c-11.1,3.9-23.1,3.9-34.2,0c0-0.2,0.1-0.3,0.1-0.5v-37.4
	c0-1.9-1.5-3.4-3.4-3.4c-1.9,0-3.4,1.5-3.4,3.4v34.8c-6.3-3.7-10.2-8.8-10.2-14.4V96.1c0-1.1-0.5-2.1-1.4-2.8l-20.9-15
	c-0.9-0.6-1.4-1.7-1.4-2.8V68.9z M69.8,68.9"/>
<path class="st0" d="M194.2,88.7c2.5-1.6,5.3-2.6,8.3-2.7c2.8-0.4,5.6,0.4,7.7,2.4c1.3,1.3,3.5,1.3,4.8,0c1.3-1.3,1.3-3.4,0-4.8
	c-3.4-3.3-8-4.9-12.7-4.4c-4.3,0.2-8.5,1.6-12.1,4.1c-1.5,1.1-1.8,3.2-0.7,4.8C190.6,89.5,192.7,89.8,194.2,88.7L194.2,88.7z
	 M194.2,88.7"/>
<path class="st0" d="M127.6,58.7c26.4,0,27.2-12.2,27.2-13.6c0-1.9-1.5-3.4-3.4-3.5c-0.9,0-1.8,0.3-2.4,0.9c-0.6,0.6-1,1.5-1,2.4
	c0,0.1-1,7-20.4,7c-17.3,0-20.5-7.6-20.6-7.9c-0.6-1.8-2.5-2.7-4.3-2.2c-1.8,0.6-2.7,2.5-2.2,4.3C100.8,46.7,105,58.7,127.6,58.7
	L127.6,58.7z M127.6,58.7"/>
<path class="st0" d="M126.3,45.1c0.5,0,1,0,1.4,0c4.3-0.2,8.5-1.6,12.1-4.1c1.5-1.1,1.8-3.2,0.7-4.8c-1.1-1.5-3.2-1.8-4.8-0.7
	c-2.5,1.6-5.3,2.6-8.3,2.8c-2.8,0.4-5.6-0.4-7.7-2.4c-0.9-0.9-2.1-1.2-3.3-0.9c-1.2,0.3-2.1,1.2-2.4,2.4c-0.3,1.2,0,2.5,0.9,3.3
	C118,43.7,122.1,45.3,126.3,45.1L126.3,45.1z M126.3,45.1"/>
</svg>
