<?xml version="1.0" encoding="utf-8"?>
<!-- Generator: Adobe Illustrator 22.1.0, SVG Export Plug-In . SVG Version: 6.00 Build 0)  -->
<svg version="1.1" id="Warstwa_1" xmlns="http://www.w3.org/2000/svg" xmlns:xlink="http://www.w3.org/1999/xlink" x="0px" y="0px"
	 viewBox="0 0 329 239" style="enable-background:new 0 0 329 239;" xml:space="preserve">
<style type="text/css">
	.st0{fill:#FFFFFF;}
</style>
<g>
	<path class="st0" d="M163,163.7c-1.5,1.5-6.7,6.8-10.6,12.8h9.5c1.2-1.5,2.5-3.1,3.7-4.4c1.2,1.4,2.5,2.9,3.7,4.4h9.5
		c-3.9-5.9-9-11.3-10.6-12.8C166.9,162.2,164.5,162.2,163,163.7L163,163.7z M163,163.7"/>
	<path class="st0" d="M260.5,86.4c2.1,0,3.9-1.7,3.9-3.9v-28c0-2.1-1.7-3.9-3.9-3.9h-35.4l-8.3-18.9c-0.6-1.4-2-2.3-3.5-2.3h-95.1
		c-1.5,0-2.9,0.9-3.5,2.3l-8.3,18.9H71c-2.1,0-3.9,1.7-3.9,3.9v28c0,2.1,1.7,3.9,3.9,3.9h6.5v90H71c-2.1,0-3.9,1.7-3.9,3.9v21.8
		c0,2.1,1.7,3.9,3.9,3.9h189.5c2.1,0,3.9-1.7,3.9-3.9v-21.8c0-2.1-1.7-3.9-3.9-3.9h-6.5v-90H260.5z M120.7,37.3h90l5.9,13.5H114.8
		L120.7,37.3z M121.5,198.2H74.8v-14.1h46.7V198.2z M229.5,145.6v-23.1h16.7v23.1H229.5z M246.2,153.3v23.1h-16.7v-23.1H246.2z
		 M229.5,114.8v-13.1c0-2.1-1.7-3.9-3.9-3.9H105.8c-2.1,0-3.9,1.7-3.9,3.9v13.1H85.2V86.4h161v28.4H229.5z M101.9,122.5v23.1H85.2
		v-23.1H101.9z M101.9,153.3v23.1H85.2v-23.1H101.9z M202.2,180.3v17.9h-14.7c5.7-4.6,9.9-11.1,11.7-18.6c0.3-1.1,0.5-2.2,0.7-3.2
		H192c-0.1,0.4-0.2,0.9-0.3,1.4c-1.3,5.6-4.4,10.5-8.5,14c0.3-1.2,0.4-2.5,0.4-3.7c0-3.5-2-7.7-4.6-11.7h-9.5
		c3.5,4.4,6.4,9.1,6.4,11.7c0,5.6-4.5,10.1-10.1,10.1c-0.1,0-0.1,0-0.2,0c-5.5-0.1-10-4.6-10-10.1c0-2.6,2.9-7.2,6.4-11.7h-9.5
		c-2.6,3.9-4.6,8.1-4.6,11.7c0,1.3,0.1,2.5,0.4,3.7c-4.1-3.6-7.1-8.4-8.5-14c-0.1-0.5-0.2-0.9-0.3-1.3h-7.9c0.2,1,0.4,2,0.7,3.1
		c1.8,7.6,6,14.1,11.7,18.7h-14.8v-17.9c0-2.1-1.7-3.9-3.9-3.9h-15.7h15.7h-15.7v-70.8h112.1v70.8h-21.9h6.2
		C203.9,176.4,202.2,178.2,202.2,180.3L202.2,180.3z M256.6,184.1v14.1h-46.7v-14.1H256.6z M74.8,78.7v-6.3h149.9
		c2.1,0,3.9-1.7,3.9-3.9c0-2.1-1.7-3.9-3.9-3.9H74.8v-6.3h181.8v20.3H74.8z M74.8,78.7"/>
	<path class="st0" d="M200.6,169.7c0-10.5-4.7-22.3-9.2-29.9l-4.1-7c-0.7-1.2-1.9-1.9-3.3-1.9c-1.3,0-2.6,0.7-3.3,1.8l-4.6,7.4
		l-9.8-20.7c-0.6-1.3-2-2.2-3.5-2.2h-0.1c-1.2,0-2.3,0.5-3,1.4l-19.2,24.1c-6.3,7.7-9.8,17.4-9.8,27.3c0,1.6,0.3,3.7,0.8,6.4h7.9
		c-0.8-3.6-1-5.4-1-6.4c0-8.2,2.9-16.2,8-22.5c0,0,0,0,0,0l15.4-19.4l10.2,21.6c0.6,1.3,1.8,2.1,3.3,2.2c1.4,0.1,2.7-0.6,3.5-1.8
		l5-8l0.9,1.5c3.9,6.7,8.1,17.1,8.1,26.1v0.6c0,0.9-0.2,2.7-0.9,6.1h7.9c0.5-2.5,0.7-4.5,0.7-6.1V169.7z M200.6,169.7"/>
	<path class="st0" d="M243.5,67.9c-0.1-0.2-0.1-0.5-0.2-0.7c-0.1-0.2-0.2-0.5-0.4-0.7c-0.1-0.2-0.3-0.4-0.5-0.6
		c-0.2-0.2-0.4-0.3-0.6-0.5c-0.2-0.1-0.4-0.3-0.7-0.4c-0.2-0.1-0.5-0.2-0.7-0.2c-0.5-0.1-1-0.1-1.5,0c-0.2,0.1-0.5,0.1-0.7,0.2
		c-0.2,0.1-0.5,0.2-0.7,0.4c-0.2,0.1-0.4,0.3-0.6,0.5c-0.7,0.7-1.1,1.7-1.1,2.7c0,0.3,0,0.5,0.1,0.8c0,0.2,0.1,0.5,0.2,0.7
		c0.1,0.2,0.2,0.5,0.4,0.7c0.1,0.2,0.3,0.4,0.5,0.6c0.2,0.2,0.4,0.3,0.6,0.5c0.2,0.1,0.4,0.3,0.7,0.4c0.2,0.1,0.5,0.2,0.7,0.2
		c0.3,0.1,0.5,0.1,0.8,0.1c1,0,2-0.4,2.7-1.1c0.2-0.2,0.3-0.4,0.5-0.6c0.1-0.2,0.3-0.4,0.4-0.7c0.1-0.2,0.2-0.5,0.2-0.7
		c0-0.2,0.1-0.5,0.1-0.8C243.6,68.4,243.6,68.1,243.5,67.9L243.5,67.9z M243.5,67.9"/>
</g>
</svg>
