<?xml version="1.0" encoding="utf-8"?>
<!-- Generator: Adobe Illustrator 22.1.0, SVG Export Plug-In . SVG Version: 6.00 Build 0)  -->
<svg version="1.1" id="Warstwa_1" xmlns="http://www.w3.org/2000/svg" xmlns:xlink="http://www.w3.org/1999/xlink" x="0px" y="0px"
	 viewBox="0 0 329 239" style="enable-background:new 0 0 329 239;" xml:space="preserve">
<style type="text/css">
	.st0{fill:#FFFFFF;}
</style>
<path class="st0" d="M137.7,157.4c-2.1-0.4-4.1-0.8-6.2-1.2l-1,5.3c2.2,0.5,4.1,0.8,6.4,1.2L137.7,157.4z"/>
<path class="st0" d="M125.3,160.3l1.3-5.2c-8-2-15.3-4.5-21.8-7.6c-1.4-0.7-2.7-1.3-4-2l-2.9,4.6c1.5,0.8,3,1.6,4.6,2.3
	C109.3,155.6,116.9,158.3,125.3,160.3z"/>
<path class="st0" d="M255.7,89.5l0-0.3l-0.1-0.3c-0.3-1.2-0.6-2.3-1.2-3.5c0-0.6,0.1-1.1,0.1-1.7c0-11.7-9.7-22.5-27.3-30.5
	c-16.9-7.6-39.4-11.8-63.3-11.8c-23.8,0-46.3,4.2-63.3,11.8C83.1,61.2,73.4,72,73.4,83.7c0,4.3,1.3,8.4,3.8,12.3
	c-2.5,3.9-3.8,8.1-3.8,12.3c0,4.3,1.3,8.4,3.8,12.3c-2.5,3.9-3.8,8.1-3.8,12.3c0,4.3,1.3,8.4,3.8,12.3c-2.5,3.9-3.8,8.1-3.8,12.3
	c0,11.7,9.7,22.5,27.3,30.5c16.9,7.6,39.4,11.8,63.3,11.8c23.9,0,46.3-4.2,63.3-11.8c16.1-7.2,25.5-16.9,27.1-27.4
	c1-1.5,1.7-3.2,1.7-5.2L255.7,89.5z M102.9,58.2c16.3-7.3,37.9-11.4,61-11.4s44.8,4,61,11.4c11.8,5.3,19.7,12,22.8,19.1
	c-2.3-1.8-5-3.5-8.1-4.9c-8.6-4-19.6-6.2-31-6.2c-10.1,0-19.3,1.6-26.9,4.5c0-0.1,0-0.3,0-0.4c0-9.8-8-17.7-17.7-17.7
	c-9.8,0-17.7,8-17.7,17.7c0,9.1,6.9,16.6,15.7,17.6c-0.4,1.4-0.6,2.8-0.6,4.3c0,2,0.4,4,1.2,6c-6.3,2.2-10.7,5.7-12.7,9.8
	c-7.8,1.7-12.9,5.8-13.4,10.8c-12.5-1.9-23.9-5-33.4-9.3C87.6,102.3,78.8,93,78.8,83.7S87.6,65.1,102.9,58.2z M176.3,70.2
	c0,6.8-5.5,12.3-12.3,12.3c-6.8,0-12.3-5.5-12.3-12.3c0-6.8,5.5-12.3,12.3-12.3C170.8,57.8,176.3,63.4,176.3,70.2z M80.8,100.7
	c4.6,5,11.3,9.6,19.9,13.5c10.6,4.8,23.3,8.2,37.2,10.1c1.2,1.7,3,3.2,5.4,4.4c3.3,1.7,7.4,2.8,11.8,3.1v13.3
	c-19.7-0.9-38-4.8-52.2-11.2c-15.3-6.9-24.1-16.2-24.1-25.5C78.8,105.8,79.5,103.3,80.8,100.7z M80.8,125.4
	c4.6,5,11.3,9.6,19.9,13.5c14.9,6.7,34,10.8,54.6,11.7c0.9,3.9,4.4,6.8,8.6,6.8s7.7-2.9,8.6-6.8c5.9-0.3,11.7-0.8,17.2-1.5v19.2
	c-8.3,1.2-17,1.8-25.9,1.8c-23.1,0-44.8-4-61-11.4c-15.3-6.9-24.1-16.2-24.1-25.5C78.8,130.5,79.5,128,80.8,125.4z M172.8,145.1v-16
	c5.7,0.6,11.6,0.4,17-0.7v15.2C184.4,144.3,178.7,144.9,172.8,145.1z M225,183.3c-16.3,7.3-37.9,11.4-61,11.4s-44.8-4-61-11.4
	c-15.3-6.9-24.1-16.2-24.1-25.5c0-2.6,0.7-5.2,2-7.7c4.6,5,11.3,9.6,19.9,13.5c16.9,7.6,39.4,11.8,63.3,11.8
	c8.9,0,17.6-0.6,25.9-1.7v5.2c0,4.9,4,8.9,8.9,8.9c4.9,0,8.9-4,8.9-8.9v-8.6c7.1-1.8,13.7-4,19.6-6.7c4.2-1.9,7.9-3.9,11.2-6.1
	c0.8,4.1,4.4,7.1,8.7,7.1c0.2,0,0.3,0,0.5,0C244.5,171.5,236.6,178.1,225,183.3z M227.2,138.9c4.1-1.9,7.8-3.9,11-6v18
	c-3.6,2.8-8,5.4-13.2,7.7c-5.3,2.4-11.1,4.4-17.4,6.1v-19.1C214.7,143.8,221.3,141.6,227.2,138.9z M207.6,140v-19.1
	c2.7-0.7,5.2-1.4,7.7-2.2c6.7-0.9,15.5-2.6,22.9-6v13.5c-3.6,2.8-8,5.4-13.2,7.7C219.7,136.3,213.9,138.4,207.6,140z M247.1,159.2
	c-1.9,0-3.5-1.6-3.5-3.5v-52.5l-4.1,2.6c-9.5,5.9-24.9,7.6-31.5,8.3c-3.9,0.4-4.6,0.5-5.4,1.6l-0.5,0.7v62.4c0,1.9-1.6,3.5-3.5,3.5
	c-1.9,0-3.5-1.6-3.5-3.5v-57.6l-3.5,1c-3.9,1.1-8.3,1.7-12.8,1.7c-2.5,0-5-0.2-7.4-0.6l-0.9-0.1l-0.8,0.4c-0.3,0.1-0.6,0.3-0.9,0.5
	l-1.6,0.7v23.5c0,1.9-1.6,3.5-3.5,3.5c-1.9,0-3.5-1.6-3.5-3.5v-22h-2.7l-0.1,0c-9.2,0-16-3.7-16-7c0-2.3,3.7-5.4,10.5-6.6l1.6-0.3
	l0.5-1.6c1.1-3.5,5.9-6.9,12.7-8.7l3.6-1l-2.1-3.1c-1.3-2-2-4-2-6.1c0-1.6,0.4-3.1,1.1-4.6c5.7-1.2,10.3-5.2,12.5-10.4
	c7.5-3.4,17.5-5.5,28.3-5.5c21,0,39.2,8,41.7,18.3l0.3,65.9C250.6,157.6,249,159.2,247.1,159.2z"/>
</svg>
