<?xml version="1.0" encoding="utf-8"?>
<!-- Generator: Adobe Illustrator 22.1.0, SVG Export Plug-In . SVG Version: 6.00 Build 0)  -->
<svg version="1.1" id="Warstwa_1" xmlns="http://www.w3.org/2000/svg" xmlns:xlink="http://www.w3.org/1999/xlink" x="0px" y="0px"
	 viewBox="0 0 329 239" style="enable-background:new 0 0 329 239;" xml:space="preserve">
<style type="text/css">
	.st0{fill:#FFFFFF;}
</style>
<g>
	<path class="st0" d="M237.1,33.8H122.8c-1.8,0-3.3,1.4-3.4,3.3c-0.7,19.1-16.2,34-35.3,34c-0.8,0-1.7,0-2.6-0.1
		c-0.9-0.1-1.9,0.3-2.5,0.9c-0.7,0.6-1.1,1.5-1.1,2.5v118.5c0,7.7,6.2,13.9,13.9,13.9h66.8c1.9,0,3.4-1.5,3.4-3.4v-73.6l19.3,58.9
		c0,0,0,0.1,0,0.1c0.3,0.7,6.5,18,20.3,18h35.4c7.7,0,13.9-6.2,13.9-13.9V47.7C251,40,244.8,33.8,237.1,33.8L237.1,33.8z
		 M244.2,192.9c0,3.9-3.2,7.1-7.1,7.1h-12.7v-10.7c0-1.9-1.5-3.4-3.4-3.4c-1.9,0-3.4,1.5-3.4,3.4v10.7h-16c-8.8,0-13.7-12.8-14-13.4
		l-25.8-79c-0.5-1.6-2.1-2.5-3.7-2.3c-1.6,0.3-2.8,1.7-2.8,3.3v91.4H91.9c-3.9,0-7.1-3.2-7.1-7.1V77.9c10.8-0.1,20.9-4.3,28.7-11.8
		c7.1-6.8,11.5-15.8,12.6-25.5h91.7v10.3c0,1.9,1.5,3.4,3.4,3.4c1.9,0,3.4-1.5,3.4-3.4V40.6h12.7c3.9,0,7.1,3.2,7.1,7.1V192.9z
		 M244.2,192.9"/>
	<path class="st0" d="M221,61.3c-1.9,0-3.4,1.5-3.4,3.4c0,1.9,1.5,3.4,3.4,3.4c1.9,0,3.4-1.5,3.4-3.4
		C224.4,62.8,222.9,61.3,221,61.3L221,61.3z M221,61.3"/>
	<path class="st0" d="M221,172.1c-1.9,0-3.4,1.5-3.4,3.4c0,1.9,1.5,3.4,3.4,3.4c1.9,0,3.4-1.5,3.4-3.4
		C224.4,173.6,222.9,172.1,221,172.1L221,172.1z M221,172.1"/>
	<path class="st0" d="M221,130.6c-1.9,0-3.4,1.5-3.4,3.4v27.7c0,1.9,1.5,3.4,3.4,3.4c1.9,0,3.4-1.5,3.4-3.4v-27.7
		C224.4,132.1,222.9,130.6,221,130.6L221,130.6z M221,130.6"/>
	<path class="st0" d="M221,75.2c-1.9,0-3.4,1.5-3.4,3.4v27.7c0,1.9,1.5,3.4,3.4,3.4c1.9,0,3.4-1.5,3.4-3.4V78.5
		C224.4,76.7,222.9,75.2,221,75.2L221,75.2z M221,75.2"/>
	<path class="st0" d="M221,116.7c-1.9,0-3.4,1.5-3.4,3.4c0,1.9,1.5,3.4,3.4,3.4c1.9,0,3.4-1.5,3.4-3.4
		C224.4,118.2,222.9,116.7,221,116.7L221,116.7z M221,116.7"/>
</g>
</svg>
