<?xml version="1.0" encoding="utf-8"?>
<!-- Generator: Adobe Illustrator 22.1.0, SVG Export Plug-In . SVG Version: 6.00 Build 0)  -->
<svg version="1.1" id="Warstwa_1" xmlns="http://www.w3.org/2000/svg" xmlns:xlink="http://www.w3.org/1999/xlink" x="0px" y="0px"
	 viewBox="0 0 329 239" style="enable-background:new 0 0 329 239;" xml:space="preserve">
<style type="text/css">
	.st0{fill:#FFFFFF;}
</style>
<g>
	<g>
		<g>
			<path class="st0" d="M125.3,9H83.1v16.1L55,53.3v65.6l7,14.1v40.5l-7,14.1V213c0,7.8,6.3,14.1,14.1,14.1h70.3
				c7.8,0,14.1-6.3,14.1-14.1v-25.4l-7-14.1V133l7-14.1V53.3l-28.1-28.1L125.3,9L125.3,9z M90.2,16h28.1v7H90.2V16z M146.4,56.2v5.6
				h-7v7h7v14.1h-7v7h7V104h-7v7h7v6.2l-7,14.1v43.9l7,14.1v23.8c0,3.9-3.2,7-7,7H69.1c-3.9,0-7-3.2-7-7v-23.8l7-14.1v-43.9l-7-14.1
				V111h70.3v-7H62V89.9h70.3v-7H62V68.8h70.3v-7H62v-5.6l26.1-26.1h32.2L146.4,56.2z"/>
			<path class="st0" d="M244.9,99V82.8h-42.2V99l-28.1,28.1v85.8c0,7.8,6.3,14.1,14.1,14.1H259c7.8,0,14.1-6.3,14.1-14.1v-85.8
				L244.9,99z M209.7,89.9h28.1v7h-28.1V89.9z M266,135.6h-7v7h7v14.1h-7v7h7v14.1h-7v7h7v14.1h-7v7h7v7c0,3.9-3.2,7-7,7h-70.3
				c-3.9,0-7-3.2-7-7v-7H252v-7h-70.3v-14.1H252v-7h-70.3v-14.1H252v-7h-70.3v-14.1H252v-7h-70.3V130l26.1-26.1H240l26,26.1V135.6z"
				/>
			<path class="st0" d="M104.2,126.2l-19.7,26.3c-3.2,4.2-4.9,9.5-4.9,14.8c0,13.6,11,24.6,24.6,24.6s24.6-11,24.6-24.6
				c0-5.3-1.8-10.5-4.9-14.8L104.2,126.2z M104.2,184.8c-9.7,0-17.6-7.9-17.6-17.6c0-3.8,1.2-7.5,3.5-10.5l14.1-18.8l14.1,18.8
				c2.3,3,3.5,6.8,3.5,10.5C121.8,176.9,113.9,184.8,104.2,184.8z"/>
		</g>
	</g>
</g>
</svg>
