<?xml version="1.0" encoding="utf-8"?>
<!-- Generator: Adobe Illustrator 22.1.0, SVG Export Plug-In . SVG Version: 6.00 Build 0)  -->
<svg version="1.1" id="Warstwa_1" xmlns="http://www.w3.org/2000/svg" xmlns:xlink="http://www.w3.org/1999/xlink" x="0px" y="0px"
	 viewBox="0 0 329 239" style="enable-background:new 0 0 329 239;" xml:space="preserve">
<style type="text/css">
	.st0{fill:#FFFFFF;}
</style>
<path id="XMLID_843_" class="st0" d="M286.6,137.8c0-6.5-3.9-12.2-9.5-14.7V52.4c0-18.4-15-33.4-33.4-33.4H86.2
	c-18.4,0-33.4,15-33.4,33.4v70.7c-5.6,2.5-9.5,8.2-9.5,14.7s3.9,12.2,9.5,14.7v22.9c0,1.3,0.5,2.5,1.4,3.4L85,209.6
	c0.9,0.9,2.1,1.4,3.4,1.4h18c1.3,0,2.5-0.5,3.4-1.4l17.6-17.6h8.1l17.6,17.6c0.9,0.9,2.1,1.4,3.4,1.4h17.1c1.3,0,2.5-0.5,3.4-1.4
	l17.6-17.6h8.1l17.6,17.6c0.9,0.9,2.1,1.4,3.4,1.4h17.9c1.3,0,2.5-0.5,3.4-1.4l30.8-30.8c0.9-0.9,1.4-2.1,1.4-3.4v-22.9
	C282.7,150,286.6,144.3,286.6,137.8L286.6,137.8z M135.4,121.7c-1-4.2-1.5-8.5-1.5-12.8c0-20.1,10.9-35.1,26.5-37.5c0,0,0,0,0.1,0
	c1.5-0.2,3-0.4,4.5-0.4s3,0.1,4.5,0.3h0.1c15.6,2.5,26.5,17.5,26.5,37.5c0,4.3-0.5,8.6-1.5,12.8L135.4,121.7L135.4,121.7z
	 M63.8,121.7c-1-4.2-1.5-8.5-1.5-12.8c0-22,13.1-37.9,31-37.9c0.6,0,1.1,0,1.7,0h0.1c17.1,1,29.2,16.6,29.2,37.8
	c0,4.3-0.5,8.6-1.5,12.8L63.8,121.7L63.8,121.7z M103.2,62.8c6-8,14.8-12.7,24.4-12.7c10,0,19,4.9,25,13.5
	c-6.3,2.2-11.9,6-16.5,11.4c-2.8,3.2-5.1,6.9-6.9,10.9c-1.8-4-4.1-7.7-6.9-10.9C117.1,68.9,110.5,64.7,103.2,62.8z M177.4,63.6
	c6-8.5,15-13.5,25-13.5c9.7,0,18.4,4.6,24.4,12.7c-7.3,2-13.9,6.1-19.1,12.2c-2.8,3.2-5.1,6.9-6.9,10.9c-1.8-4-4.1-7.7-6.9-10.9
	C189.3,69.6,183.6,65.7,177.4,63.6z M207,121.7c-1-4.2-1.5-8.5-1.5-12.8c0-21.2,12.2-36.8,29.3-37.8h0.1c0.6,0,1.1,0,1.7,0
	c18,0,31,15.9,31,37.9c0,4.3-0.5,8.6-1.5,12.8L207,121.7L207,121.7z M62.4,52.4c0-13.2,10.7-23.9,23.9-23.9h157.5
	c13.2,0,23.9,10.7,23.9,23.9v25.2c-0.7-0.9-1.4-1.8-2.1-2.7c-7.3-8.5-17.3-13.2-28.2-13.4c-7.6-13.1-20.5-20.9-34.9-20.9
	c-14.5,0-27.4,7.8-35,21c-0.8,0-1.6-0.1-2.4-0.1c-0.8,0-1.6,0-2.4,0.1c-7.6-13.2-20.5-21-35-21s-27.3,7.8-34.9,20.9
	c-10.9,0.2-20.8,5-28.2,13.4c-0.8,0.9-1.5,1.8-2.1,2.7L62.4,52.4L62.4,52.4z M270.5,144.5h-84c-2.6,0-4.8,2.1-4.8,4.8
	c0,2.6,2.1,4.8,4.8,4.8h81.2v19.5l-28.1,28.1h-14L208,183.9c-0.9-0.9-2.1-1.4-3.4-1.4h-12c-1.3,0-2.5,0.5-3.4,1.4l-17.6,17.6h-13.2
	l-17.6-17.6c-0.9-0.9-2.1-1.4-3.4-1.4h-12c-1.3,0-2.5,0.5-3.4,1.4l-17.6,17.6h-14l-28.1-28.1V154h81.3c2.6,0,4.8-2.1,4.8-4.8
	c0-2.6-2.1-4.8-4.8-4.8H59.5c-3.7,0-6.7-3-6.7-6.7s3-6.7,6.7-6.7h0.6l0,0h66.5l0,0l0,0h5c0,0,0,0,0.1,0l0,0h66.5l0,0h4.9
	c0,0,0,0,0.1,0l0,0h66.5l0,0h0.6c3.7,0,6.7,3,6.7,6.7S274.1,144.5,270.5,144.5L270.5,144.5z"/>
<path id="XMLID_968_" class="st0" d="M165,144.5c-1.3,0-2.5,0.5-3.4,1.4s-1.4,2.1-1.4,3.4s0.5,2.5,1.4,3.4s2.1,1.4,3.4,1.4
	c1.2,0,2.5-0.5,3.4-1.4s1.4-2.1,1.4-3.4s-0.5-2.5-1.4-3.4S166.3,144.5,165,144.5z"/>
</svg>
