<?xml version="1.0" encoding="utf-8"?>
<!-- Generator: Adobe Illustrator 22.1.0, SVG Export Plug-In . SVG Version: 6.00 Build 0)  -->
<svg version="1.1" id="Warstwa_1" xmlns="http://www.w3.org/2000/svg" xmlns:xlink="http://www.w3.org/1999/xlink" x="0px" y="0px"
	 viewBox="0 0 329 239" style="enable-background:new 0 0 329 239;" xml:space="preserve">
<style type="text/css">
	.st0{fill:#FFFFFF;}
</style>
<g>
	<path class="st0" d="M178.2,25h-4.4v30.2C136.1,33.6,88.2,39.4,56.9,70.2l-3.1,3l12.4,12.3l107.5,105.9v24.2h4.4
		c53.4,0,96.8-42.8,96.8-95.3C275,67.7,231.6,25,178.2,25L178.2,25z M129.7,127.1V68.5c15.2,0.9,30,6.6,42.1,17.1L129.7,127.1z
		 M173.8,96v37.2H136L173.8,96z M121,127.1L78.8,85.6c12.1-10.5,27-16.2,42.2-17.1V127.1z M136,141.9h37.8v37.2L136,141.9z
		 M182.6,130.8l42.2,41.5c-11.4,9.9-26.1,16.3-42.2,17.2V130.8z M230.9,166.1l-42.1-41.5h59.6C247.4,140.5,241,154.9,230.9,166.1
		L230.9,166.1z M188.8,116l42.1-41.5c10.1,11.2,16.5,25.6,17.5,41.5H188.8z M182.6,109.8V51.1c16.1,1,30.8,7.3,42.2,17.2
		L182.6,109.8z M173.8,65.3v10.6c-29.9-22.8-72.6-21.6-101.2,3.6l-6.3-6.2C96,46.8,140.2,43.4,173.8,65.3L173.8,65.3z M182.6,206.8
		v-8.8c41.6-2.3,74.8-36.2,74.8-77.8c0-41.6-33.2-75.5-74.8-77.8v-8.8c46.5,2.3,83.6,40.2,83.6,86.6
		C266.2,166.6,229.1,204.6,182.6,206.8L182.6,206.8z M182.6,206.8"/>
</g>
</svg>
