<?xml version="1.0" encoding="utf-8"?>
<!-- Generator: Adobe Illustrator 22.1.0, SVG Export Plug-In . SVG Version: 6.00 Build 0)  -->
<svg version="1.1" id="Warstwa_1" xmlns="http://www.w3.org/2000/svg" xmlns:xlink="http://www.w3.org/1999/xlink" x="0px" y="0px"
	 viewBox="0 0 329 239" style="enable-background:new 0 0 329 239;" xml:space="preserve">
<style type="text/css">
	.st0{fill:#FFFFFF;}
</style>
<g>
	<path class="st0" d="M262.6,206V68.7c0-18.1-11.7-33.9-28.7-39.3v-6.8c0-6.9-5.6-12.6-12.6-12.6s-12.6,5.6-12.6,12.6v6.8
		c-17,5.4-28.7,21.2-28.7,39.3v14.6c0,1.8,1.4,3.2,3.2,3.2c1.8,0,3.2-1.4,3.2-3.2V68.7c0-16,10.8-29.9,26.3-33.8
		c1.4-0.4,2.4-1.6,2.4-3.1v-9.2c0-3.4,2.8-6.1,6.1-6.1c3.4,0,6.1,2.8,6.1,6.1v9.2c0,1.5,1,2.8,2.4,3.1c15.5,3.9,26.3,17.8,26.3,33.8
		v137.2h-69.7V96.2c0-1.8-1.4-3.2-3.2-3.2c-1.8,0-3.2,1.4-3.2,3.2V206c-6.3,0.1-11.4,5.2-11.4,11.5c0,6.4,5.2,11.5,11.5,11.5h82.3
		c6.4,0,11.5-5.2,11.5-11.5C274,211.2,268.9,206,262.6,206L262.6,206z M262.5,222.6h-82.3c-2.8,0-5.1-2.3-5.1-5.1
		c0-2.8,2.3-5.1,5.1-5.1h82.3c2.8,0,5.1,2.3,5.1,5.1C267.6,220.3,265.3,222.6,262.5,222.6L262.5,222.6z M262.5,222.6"/>
	<path class="st0" d="M166.2,46.6c-1-0.6-2.3-0.5-3.2,0.1l-11.6,7l-11.6-7c-1-0.6-2.3-0.6-3.3,0l-11.6,7l-11.6-7
		c-1-0.6-2.3-0.6-3.3,0l-11.6,7l-11.6-7c-1-0.6-2.3-0.6-3.3,0l-11.6,7l-11.6-7C59.2,46,58,46,57,46.6c-1,0.6-1.6,1.6-1.6,2.8v38.7
		c0,1.8,1.4,3.2,3.2,3.2c1.8,0,3.2-1.4,3.2-3.2V69.6h99.6v99.6H61.8V101c0-1.8-1.4-3.2-3.2-3.2c-1.8,0-3.2,1.4-3.2,3.2v88.4
		c0,1.2,0.6,2.2,1.6,2.8c1,0.6,2.3,0.6,3.2-0.1l11.6-7l11.6,7c1,0.6,2.3,0.6,3.3,0l11.6-7l11.6,7c0.5,0.3,1.1,0.5,1.7,0.5
		c0.6,0,1.2-0.2,1.7-0.5l11.6-7l11.6,7c1,0.6,2.3,0.6,3.3,0l11.6-7l11.6,7c1,0.6,2.2,0.6,3.2,0.1c1-0.6,1.6-1.6,1.6-2.8v-140
		C167.8,48.2,167.2,47.2,166.2,46.6L166.2,46.6z M61.8,63.2v-8l8.4,5.1c1,0.6,2.3,0.6,3.3,0l11.6-7l11.6,7c1,0.6,2.3,0.6,3.3,0
		l11.6-7l11.6,7c1,0.6,2.3,0.6,3.3,0l11.6-7l11.6,7c1,0.6,2.3,0.6,3.3,0l8.4-5.1v8H61.8z M161.4,183.7l-8.4-5.1
		c-1-0.6-2.3-0.6-3.3,0l-11.6,7l-11.6-7c-0.5-0.3-1.1-0.5-1.7-0.5c-0.6,0-1.2,0.2-1.7,0.5l-11.6,7l-11.6-7c-1-0.6-2.3-0.6-3.3,0
		l-11.6,7l-11.6-7c-1-0.6-2.3-0.6-3.3,0l-8.4,5.1v-8h99.6V183.7z M161.4,183.7"/>
	<path class="st0" d="M154.4,119.4c0-23.6-19.2-42.8-42.8-42.8c-23.6,0-42.8,19.2-42.8,42.8c0,23.6,19.2,42.8,42.8,42.8
		C135.2,162.2,154.4,143,154.4,119.4L154.4,119.4z M75.2,119.4c0-20.1,16.3-36.4,36.4-36.4c20.1,0,36.4,16.3,36.4,36.4
		c0,20.1-16.3,36.4-36.4,36.4C91.5,155.8,75.2,139.5,75.2,119.4L75.2,119.4z M75.2,119.4"/>
	<path class="st0" d="M126.6,145.1c1.5-0.9,2.1-2.9,1.2-4.4c-0.9-1.5-2.9-2-4.4-1.2c-3.6,2.1-7.6,3.2-11.8,3.2
		c-12.9,0-23.4-10.5-23.4-23.4S98.7,96,111.6,96c12.9,0,23.4,10.5,23.4,23.4c0,4.2-1.1,8.3-3.2,11.8c-0.9,1.5-0.4,3.5,1.1,4.4
		c1.5,0.9,3.5,0.4,4.4-1.1c2.7-4.6,4.1-9.8,4.1-15.1c0-16.4-13.4-29.8-29.8-29.8c-16.4,0-29.8,13.4-29.8,29.8
		c0,16.4,13.4,29.8,29.8,29.8C116.8,149.2,122,147.8,126.6,145.1L126.6,145.1z M126.6,145.1"/>
</g>
</svg>
