<?xml version="1.0" encoding="utf-8"?>
<!-- Generator: Adobe Illustrator 22.1.0, SVG Export Plug-In . SVG Version: 6.00 Build 0)  -->
<svg version="1.1" id="Warstwa_1" xmlns="http://www.w3.org/2000/svg" xmlns:xlink="http://www.w3.org/1999/xlink" x="0px" y="0px"
	 viewBox="0 0 329 239" style="enable-background:new 0 0 329 239;" xml:space="preserve">
<style type="text/css">
	.st0{fill:#FFFFFF;}
</style>
<g>
	<path class="st0" d="M216.9,82.1c-7.8-18.6-16.2-33.6-25-44.5c-11-13.5-22.5-20.4-34.2-20.4c-11.6,0-23.1,6.6-34.1,19.5
		c-9,10.6-17.4,25.1-25.1,43.2c-13.4,31.5-22.8,70.5-22.8,94.9c0,11.8,9.1,22.6,25.7,30.3c15.1,7,35.1,10.9,56.3,10.9
		s41.1-3.9,56.3-10.9c16.6-7.7,25.7-18.4,25.7-30.3C239.6,152.7,230,113.7,216.9,82.1L216.9,82.1z M219.4,125.6
		c-13.9,10.6-29.3,19-45.8,24.9c-18.3,6.5-37.5,9.8-57,9.8c-9.4,0-18.8-0.8-28-2.3c1.9-14.4,5.8-31.3,11.1-47.9
		c19-0.4,37.8-3.8,55.9-9.9c16.7-5.7,32.2-13.5,46.2-23.4c1.4,3.1,2.9,6.3,4.3,9.7C211.5,99.6,216,113,219.4,125.6L219.4,125.6z
		 M157.7,28.9c12.4,0,26.1,13.4,38.9,37.3c-13.4,9.7-28.4,17.4-44.7,22.9c-15.6,5.3-31.7,8.3-48.1,9.1c1.7-4.7,3.6-9.4,5.5-13.9
		C124.3,49.1,141.9,28.9,157.7,28.9L157.7,28.9z M209,194.4c-13.6,6.3-31.8,9.8-51.3,9.8s-37.7-3.5-51.3-9.8
		c-12-5.6-18.9-12.7-18.9-19.7c0-1.6,0-3.3,0.1-5c9.6,1.5,19.3,2.3,29,2.3c20.9,0,41.4-3.5,61-10.5c16.1-5.7,31.1-13.7,45-23.6
		c3.5,15.2,5.4,28.4,5.4,36.8C227.9,181.6,221,188.8,209,194.4L209,194.4z"/>
</g>
</svg>
