<?xml version="1.0" encoding="utf-8"?>
<!-- Generator: Adobe Illustrator 22.1.0, SVG Export Plug-In . SVG Version: 6.00 Build 0)  -->
<svg version="1.1" id="Warstwa_1" xmlns="http://www.w3.org/2000/svg" xmlns:xlink="http://www.w3.org/1999/xlink" x="0px" y="0px"
	 viewBox="0 0 329 239" style="enable-background:new 0 0 329 239;" xml:space="preserve">
<style type="text/css">
	.st0{fill:#FFFFFF;}
</style>
<path class="st0" d="M170.5,182.7H84c-4.6,0-8.8-2.3-11.4-6c-2.6-3.8-3.1-8.6-1.4-12.8l0.1-0.1l54-121.2c2.5-6.2,8.4-10.2,15.1-10.2
	h81c5.4,0,10.5,2.7,13.5,7.1c3,4.5,3.7,10.2,1.7,15.2l-0.1,0.1l-53.3,119.3C181.2,179.3,176.2,182.7,170.5,182.7z M77.1,166.2
	c-0.9,2.3-0.6,4.8,0.8,6.8c1.4,2.1,3.6,3.2,6.1,3.2h86.5c3,0,5.7-1.8,6.8-4.6l0.1-0.1l53.3-119.3c1.2-3.1,0.8-6.4-1-9.2
	c-1.9-2.8-4.9-4.3-8.2-4.3h-81c-4.1,0-7.7,2.5-9.2,6.3l-0.1,0.1L77.1,166.2z"/>
<path class="st0" d="M164.2,198.5c-19.9,0-52.8-1.2-68.3-1.8c-5.2-0.2-9.8-3.5-11.8-8.3l-3.1-7.7l5.9-2.4L90,186
	c1,2.5,3.4,4.2,6.1,4.3c15.2,0.6,65.8,2.5,80,1.6c10.8-0.7,15-11.9,15.4-13.2c0.1-0.2,0.1-0.4,0.2-0.6l34.1-85.2
	c0.2-0.6,0.4-1.3,0.5-1.9c1.6-17.1,1.6-26.7,1.1-28.5c0,0.1,0.1,0.1,0.1,0.2l5.6-3.1c0.6,1.1,2.2,3.9-0.4,32
	c-0.1,1.3-0.4,2.5-0.9,3.7l-34.1,85.2c0,0.1-0.1,0.2-0.1,0.3c-0.6,1.7-6.1,16.5-21,17.5C173.6,198.4,169.3,198.5,164.2,198.5z"/>
</svg>
