<?xml version="1.0" encoding="utf-8"?>
<!-- Generator: Adobe Illustrator 22.1.0, SVG Export Plug-In . SVG Version: 6.00 Build 0)  -->
<svg version="1.1" id="Warstwa_1" xmlns="http://www.w3.org/2000/svg" xmlns:xlink="http://www.w3.org/1999/xlink" x="0px" y="0px"
	 viewBox="0 0 329 239" style="enable-background:new 0 0 329 239;" xml:space="preserve">
<style type="text/css">
	.st0{fill:#FFFFFF;}
</style>
<path class="st0" d="M251.9,146.8c-0.1-11.2-9.2-20.4-20.4-20.4h-14l0.7-15.3c0.1-0.9-0.3-1.9-0.9-2.5c-0.7-0.7-1.6-1.1-2.6-1.1
	H94.4c-1,0-1.9,0.4-2.6,1.1c-0.6,0.7-1,1.6-0.9,2.5l2.4,51c0.6,11.5,7.5,21.6,18,26.3l8.7,3.8H87.2c-1.9,0-3.5,1.6-3.5,3.5
	s1.6,3.5,3.5,3.5h135.6c1.9,0,3.5-1.6,3.5-3.5s-1.6-3.5-3.5-3.5h-33.5l8.6-3.8c8.4-3.7,14.6-10.9,17-19.8l0.4-1.5h16.3
	C242.8,167.1,251.9,158,251.9,146.8z M208.8,161.7c-0.5,12.5-10.8,22.3-23.3,22.3h-61.9c-12.5,0-22.7-9.8-23.4-22.3l-2.3-47.3h113.2
	L208.8,161.7z M215.9,160.2l1.3-26.8h14.3c7.4,0,13.4,6,13.4,13.4s-6,13.4-13.4,13.4H215.9z"/>
<path class="st0" d="M146.1,42.6c-1.1,6.4-5.3,11.2-9.8,16.2l-1.8,2.1c-4.2,4.7-6.1,11.6-5,18.4c1,6.7,4.7,12.4,10,15.5
	c0.7,0.4,1.2,0.5,1.8,0.5c1.2,0,2.4-0.7,3-1.7c0.5-0.8,0.6-1.8,0.4-2.7c-0.2-0.9-0.8-1.6-1.5-2.1c-3.5-2.1-6-5.9-6.8-10.5
	c-0.8-4.7,0.4-9.3,3.2-12.6c0.1-0.2,0.3-0.4,0.4-0.5l1.6-1.9c4.9-5.6,9.9-11.3,11.3-19.6c0.2-0.9-0.1-1.8-0.6-2.6
	c-0.5-0.8-1.3-1.2-2.3-1.4C148.1,39.4,146.4,40.7,146.1,42.6z"/>
<path class="st0" d="M165.8,94.6c0.7,0.6,1.5,0.7,2.1,0.7c0.8,0,1.9-0.2,2.8-1.4c1.2-1.6,0.9-3.7-0.6-4.9c-2.7-2.2-4.9-5.1-6.1-8.1
	c-2.4-6.3-0.2-12.6,7.2-20.4c4.6-4.9,7.5-10.6,8.5-16.6c0.3-1.9-1-3.7-2.9-4c-0.2,0-0.4,0-0.5,0c-1.6,0-3.2,1.2-3.5,2.9
	c-0.8,4.6-3,9-6.7,13l-0.2,0.2c-3.7,4-13.6,14.7-8.6,27.6v0C159.1,87.8,162.1,91.8,165.8,94.6z"/>
</svg>
