<?xml version="1.0" encoding="utf-8"?>
<!-- Generator: Adobe Illustrator 22.1.0, SVG Export Plug-In . SVG Version: 6.00 Build 0)  -->
<svg version="1.1" id="Warstwa_1" xmlns="http://www.w3.org/2000/svg" xmlns:xlink="http://www.w3.org/1999/xlink" x="0px" y="0px"
	 viewBox="0 0 400 400" style="enable-background:new 0 0 400 400;" xml:space="preserve">
<style type="text/css">
	.st0{fill:#FFFFFF;}
</style>
<g>
	<path class="st0" d="M202.3,330.1h16.4c4.6,0,8.3-3.7,8.3-8.3c0-4.6-3.7-8.3-8.3-8.3h-16.4c-4.6,0-8.3,3.7-8.3,8.3
		C194.1,326.4,197.8,330.1,202.3,330.1z"/>
	<path class="st0" d="M279,330.1h16.4c4.6,0,8.3-3.7,8.3-8.3c0-4.6-3.7-8.3-8.3-8.3H279c-4.6,0-8.3,3.7-8.3,8.3
		C270.8,326.4,274.5,330.1,279,330.1z"/>
	<path class="st0" d="M240.7,330.1h16.4c4.6,0,8.3-3.7,8.3-8.3c0-4.6-3.7-8.3-8.3-8.3h-16.4c-4.6,0-8.3,3.7-8.3,8.3
		C232.4,326.4,236.1,330.1,240.7,330.1z"/>
	<path class="st0" d="M317.4,330.1h16.4c4.6,0,8.3-3.7,8.3-8.3c0-4.6-3.7-8.3-8.3-8.3h-16.4c-4.6,0-8.3,3.7-8.3,8.3
		C309.1,326.4,312.8,330.1,317.4,330.1z"/>
	<path class="st0" d="M125.6,330.1h16.4c4.6,0,8.3-3.7,8.3-8.3c0-4.6-3.7-8.3-8.3-8.3h-16.4c-4.6,0-8.3,3.7-8.3,8.3
		C117.4,326.4,121.1,330.1,125.6,330.1z"/>
	<path class="st0" d="M164,330.1h16.4c4.6,0,8.3-3.7,8.3-8.3c0-4.6-3.7-8.3-8.3-8.3H164c-4.6,0-8.3,3.7-8.3,8.3
		C155.7,326.4,159.4,330.1,164,330.1z"/>
	<path class="st0" d="M87.3,330.1h16.4c4.6,0,8.3-3.7,8.3-8.3c0-4.6-3.7-8.3-8.3-8.3H87.3c-4.6,0-8.3,3.7-8.3,8.3
		C79,326.4,82.7,330.1,87.3,330.1z"/>
	<path class="st0" d="M363.7,103.1c4.6,0,8.3-3.7,8.3-8.3V52.6c0-10.4-8.5-18.8-18.8-18.8H68c-10.4,0-18.8,8.5-18.8,18.8v42.2
		c0,4.6,3.7,8.3,8.3,8.3h7.7l25.8,96.6l-41,92.4l-0.3,0.6v0.2c-0.2,0.6-0.3,1.2-0.4,1.9c0,0.2-0.1,0.4-0.1,0.7v47.5
		c0,7.5,6.1,13.6,13.6,13.6h295.6c7.5,0,13.6-6.1,13.6-13.6v-47.5c0-0.3,0-0.5-0.1-0.7c0-0.7-0.2-1.3-0.4-1.9v-0.2l-41.3-92.9
		l25.8-96.6H363.7z M355.4,313.5c-4.4,0.2-7.9,3.8-7.9,8.3c0,4.4,3.5,8.1,7.9,8.3v9.8H65.7v-9.8c4.4-0.2,7.9-3.8,7.9-8.3
		c0-4.4-3.5-8.1-7.9-8.3v-9.8h289.6V313.5z M218.8,227.9v-18.3c12.4,0.3,24.8,1.7,37,4.1L218.8,227.9z M309.9,279.3
		c-2.2,3.1-5.2,5.8-8.1,7.9h-5C301.5,284.9,305.8,282.3,309.9,279.3z M250,233.7l32.4-12.4c11.2,4.4,19.9,9.7,25.1,15.3L250,233.7z
		 M312,253.3c-3.2,7.7-13.6,15.6-28.6,21.7l-40.9-25.1L312,253.3z M324.7,287.1c3.1-5,4.9-10.7,5-16.7v-22.2c0-0.7-0.1-1.3-0.2-1.9
		c0-0.1,0-0.3-0.1-0.4l0-0.1l0-0.2c0-0.5-0.1-1-0.2-1.5c-2-13.9-14.1-26.3-34.3-35.5H316l34.9,78.5L324.7,287.1z M262.3,281.5
		c-14.2,3.3-28.8,5.1-43.4,5.5v-32.2L262.3,281.5z M202.3,209.6v18.3l-37-14.2C177.5,211.3,189.9,209.9,202.3,209.6z M202.3,254.8
		V287c-14.6-0.4-29.2-2.2-43.4-5.5L202.3,254.8z M124.2,287.1h-5c-2.8-2.1-5.9-4.8-8.1-7.8C115.3,282.3,119.7,284.9,124.2,287.1z
		 M137.8,275c-15.1-6.1-25.4-13.9-28.6-21.7l69.5-3.5L137.8,275z M113.6,236.5c5.2-5.6,13.9-10.9,25.1-15.3l32.4,12.4L113.6,236.5z
		 M126.1,208.7c-20.2,9.3-32.3,21.7-34.3,35.5c-0.1,0.5-0.2,1-0.2,1.5l0,0.1c0,0.1,0,0.1,0,0.2c0,0.1,0,0.3-0.1,0.4
		c-0.1,0.6-0.2,1.2-0.2,1.9l0,22.3c0.2,5.9,1.9,11.6,5,16.6H70.2l34.9-78.5H126.1z M315.1,192.1h-209l-23.7-89h256.5L315.1,192.1z
		 M242.2,60.1h-63.4c-10.4,0-18.8,8.5-18.8,18.8v7.6H65.7v-34c0-1.3,1-2.3,2.3-2.3h285.1c1.3,0,2.3,1,2.3,2.3v34h-94.3v-7.6
		C261.1,68.6,252.6,60.1,242.2,60.1z M176.6,78.9c0-1.3,1-2.3,2.3-2.3h63.4c1.3,0,2.3,1,2.3,2.3v7.6h-67.9V78.9z"/>
</g>
</svg>
