<?xml version="1.0" encoding="utf-8"?>
<!-- Generator: Adobe Illustrator 22.1.0, SVG Export Plug-In . SVG Version: 6.00 Build 0)  -->
<svg version="1.1" id="Warstwa_1" xmlns="http://www.w3.org/2000/svg" xmlns:xlink="http://www.w3.org/1999/xlink" x="0px" y="0px"
	 viewBox="0 0 329 239" style="enable-background:new 0 0 329 239;" xml:space="preserve">
<style type="text/css">
	.st0{fill:#FFFFFF;}
</style>
<path class="st0" d="M243.3,67.1c-37.1-15.5-73.1-18.6-88.9-8l0-0.6l-1.6,0.9c-1.3,0.8-2.7,2.6-4.2,5.5c-0.6,0.9-1,1.7-1.3,2.5
	c-0.1,0.2-0.2,0.4-0.2,0.6c-1.3,2.9-2.5,5.8-3.4,8c-0.3,0.7-0.5,1.3-0.7,1.8c-3.9,9.4,0.8,21.5,13.4,34.2c-15-4.5-32.8-6.8-51.8-6.8
	c-40.2,0-74.6,10.9-85.1,26.8l-0.2-0.5l-1.1,1.5c-0.9,1.2-1.4,3.3-1.8,6.4c-0.2,1.1-0.3,2.1-0.3,3.2c0,0.2,0,0.5,0,0.7
	c-0.1,3.2-0.1,6.3,0,8.7c0,0.8,0,1.5,0,2c0,20.9,38.9,37.2,88.5,37.2c49.6,0,88.5-16.3,88.5-37.2c0-0.9,0.1-2.1,0.2-3.4
	c0.3-3.6,0.6-8.1-0.5-11.1c-0.1-0.5-0.2-1-0.4-1.5c5.7,3,11.8,5.9,18,8.5c22,9.2,44,14.2,61.8,14.3c0.1,0,0.1,0,0.2,0
	c18,0,30.1-5.2,34-14.6c0.3-0.8,0.9-1.9,1.5-3.1c1.6-3.2,3.7-7.2,3.8-10.5C315.6,113,286.3,85,243.3,67.1z M166.9,97.2
	c-10.5-10.4-15.3-20.4-12.6-26.8c2.6-6.3,12.7-9.9,27-9.9c0.3,0,0.6,0,0.9,0c16.6,0.2,37.3,5,58.1,13.7
	c20.8,8.7,38.8,19.9,50.7,31.6c10.5,10.4,15.3,20.4,12.6,26.8c-2.6,6.3-12.7,9.9-27,9.9c-0.3,0-0.6,0-0.9,0
	c-16.6-0.2-37.3-5-58.1-13.7C196.8,120.1,178.8,108.9,166.9,97.2z M295.3,147.6c-11.5,8.3-43.5,7.6-82.1-8.4
	c-38.5-16-61.5-38.2-63.8-52.2c8.9,17,33.7,35.8,65.2,48.9C246.2,148.9,277,153.3,295.3,147.6z M163.4,162.4
	c-15.4,6.2-36.4,9.7-58.9,9.7s-43.5-3.4-58.9-9.7c-13.7-5.6-21.9-13-21.9-19.9s8.2-14.3,21.9-19.9c15.4-6.2,36.4-9.7,58.9-9.7
	s43.5,3.4,58.9,9.7c13.7,5.6,21.9,13,21.9,19.9S177.1,156.8,163.4,162.4z M104.5,179.7c34.1,0,64.2-7.8,79-20.1
	c-7.5,12.1-37.2,23.7-79,23.7c-41.7,0-71.5-11.6-79-23.7C40.3,171.9,70.4,179.7,104.5,179.7z"/>
</svg>
