<?xml version="1.0" encoding="utf-8"?>
<!-- Generator: Adobe Illustrator 22.1.0, SVG Export Plug-In . SVG Version: 6.00 Build 0)  -->
<svg version="1.1" id="Warstwa_1" xmlns="http://www.w3.org/2000/svg" xmlns:xlink="http://www.w3.org/1999/xlink" x="0px" y="0px"
	 viewBox="0 0 329 239" style="enable-background:new 0 0 329 239;" xml:space="preserve">
<style type="text/css">
	.st0{fill:#FFFFFF;}
</style>
<path class="st0" d="M216.3,48.9c-0.1-0.9-0.4-1.7-1-2.4l-14.1-17.6c-0.9-1.1-2.1-1.7-3.5-1.7h-66.5c-1.4,0-2.6,0.6-3.5,1.7
	l-14.1,17.7c-0.6,0.8-1,1.8-1,2.8v140.4c0,1,0.4,2,1,2.8l14.1,17.6c0.9,1.1,2.1,1.7,3.5,1.7h66.5c1.4,0,2.6-0.6,3.5-1.7l14.1-17.7
	c0.6-0.8,1-1.8,1-2.8V49.3L216.3,48.9z M202.6,194.2l-7,8.7h-62.2l-7-8.7H202.6z M126.4,44.8l7-8.7h62.2l7,8.7H126.4z M190.5,103.4
	c5.5-1.3,11.2-2,16.8-2.3v31.3c-5.9,0.3-11.7,1-17.4,2.2C193.2,124.5,193.4,113.7,190.5,103.4z M151.1,96.3c1.7-2.7,6.4-9,13.4-9
	c7.5,0,12.3,7,14,10c3.9,7.2,5.6,15.3,5,23.5l0,0.1c-0.3,6.9-2.3,13.6-5.8,19.4c-1.7,2.6-6.3,8.7-13.2,8.7c-4.9,0-9.1-3.2-11.9-6.9
	l4.2,1l-5.5-3c-0.2-0.3-0.3-0.6-0.5-0.9c-3.5-6.4-5.3-13.7-5.2-21.1C145.3,110.4,147.3,102.8,151.1,96.3z M121.6,101.1
	c5.7,0.3,11.3,1,16.8,2.3c-2.8,10.2-2.6,21.1,0.6,31.2c-5.7-1.2-11.6-2-17.4-2.2V101.1z M164.5,78.3c-9.1,0-17.5,6.2-22.8,16.7
	c-6.6-1.5-13.3-2.5-20.1-2.8V53.8h85.8v38.4c-6.8,0.2-13.5,1.2-20.1,2.8C182,84.5,173.6,78.3,164.5,78.3z M164.5,157.8
	c7.9,0,15.4-4.7,20.7-13c1.3-0.3,2.7-0.6,4-0.9c2.2-0.5,4.6-1.1,6.8-1.5c3.8-0.6,7.6-1,11.4-1.2v43.9h-85.8v-43.9
	c6.1,0.2,12.2,1.1,18.2,2.6c1.3,0.3,2.6,0.6,4,0.9C149.1,153.1,156.6,157.8,164.5,157.8z"/>
</svg>
