<?xml version="1.0" encoding="utf-8"?>
<!-- Generator: Adobe Illustrator 24.0.2, SVG Export Plug-In . SVG Version: 6.00 Build 0)  -->
<svg version="1.1" id="Warstwa_1" xmlns="http://www.w3.org/2000/svg" xmlns:xlink="http://www.w3.org/1999/xlink" x="0px" y="0px"
	 viewBox="0 0 329 239" style="enable-background:new 0 0 329 239;" xml:space="preserve">
<style type="text/css">
	.st0{fill:#FFFFFF;}
</style>
<path class="st0" d="M163,104c-1.6-26.4-23.5-47-49.9-47c-26.4,0-48.4,20.7-49.9,47l-0.1,1.4v104.4h100V104.7L163,104z M154.6,201.3
	H71.5v-87.5h14.4v25.9c0,8.3,6.8,15.1,15.1,15.1h0.3c8.3,0,15.1-6.8,15.1-15.1v-25.9h15.7v22.5c0,2.3,1.9,4.2,4.2,4.2
	c2.3,0,4.2-1.9,4.2-4.2v-22.5h14V201.3z M94.4,139.7v-25.9h13.6v25.9c0,3.7-3,6.6-6.7,6.6H101C97.3,146.4,94.4,143.4,94.4,139.7z
	 M71.5,105.4l0.1-1.6c1.6-21.5,19.8-38.4,41.4-38.4c21.6,0,39.8,16.8,41.4,38.4l0.1,1.6H71.5z"/>
<path class="st0" d="M254.6,29H177v71.8c0,7.6,6.1,13.7,13.7,13.7h9V144c0,10-2.3,20-7,29.7c-1.7,3.5-2.5,7.3-2.4,11.2
	c0.1,6.8,2.9,13.2,7.9,18c5,4.8,11.5,7.3,18.3,7.1c6.6-0.2,12.8-3,17.4-7.7c4.6-4.8,7.2-11.1,7.2-17.7c0-3.7-0.8-7.2-2.3-10.6
	c-4.7-10.3-7.1-20.8-7.1-31.1v-28.4h9c7.6,0,13.7-6.1,13.7-13.7V29z M232.8,184.6c0,9.2-7.2,16.6-16.4,16.9c-0.2,0-0.4,0-0.5,0
	c-4.3,0-8.4-1.7-11.7-4.8c-3.4-3.2-5.2-7.5-5.3-12c0-2.6,0.5-5.1,1.6-7.5c5.2-10.9,7.8-22.1,7.8-33.4v-29.5h15.1v28.4
	c0,11.6,2.6,23.3,7.9,34.7C232.2,179.7,232.8,182.1,232.8,184.6z M240.9,106h-50.2c-2.9,0-5.2-2.3-5.2-5.2V91h60.6l0,9.8
	C246.1,103.7,243.8,106,240.9,106z M246.1,82.6h-60.6V37.5h38v18.4h8.5V37.5h14.2V82.6z"/>
<path class="st0" d="M215.8,179.6c-1.1,0-2.3,0.5-3.1,1.4c-0.8,0.8-1.2,1.8-1.1,2.8c0.1,2.5,1.9,4.3,4.2,4.3c1.1,0,2.3-0.5,3.1-1.4
	c0.8-0.8,1.2-1.8,1.1-2.8C219.9,181.4,218.1,179.6,215.8,179.6z"/>
</svg>
