<?xml version="1.0" encoding="utf-8"?>
<!-- Generator: Adobe Illustrator 22.1.0, SVG Export Plug-In . SVG Version: 6.00 Build 0)  -->
<svg version="1.1" id="Warstwa_1" xmlns="http://www.w3.org/2000/svg" xmlns:xlink="http://www.w3.org/1999/xlink" x="0px" y="0px"
	 viewBox="0 0 329 239" style="enable-background:new 0 0 329 239;" xml:space="preserve">
<style type="text/css">
	.st0{fill:#FFFFFF;}
</style>
<g>
	<path class="st0" d="M228.1,166.3c-1.6-0.7-3.4-0.1-4.1,1.5c-1,2.1-2.1,4.1-3.2,6.1c-0.9,1.5-0.4,3.4,1,4.3
		c0.5,0.3,1.1,0.5,1.6,0.5c1.1,0,2.1-0.5,2.7-1.5c1.3-2.1,2.5-4.4,3.6-6.7C230.3,168.8,229.7,167,228.1,166.3L228.1,166.3z
		 M228.1,166.3"/>
	<path class="st0" d="M233,142.1c-1.7-0.1-3.2,1.2-3.3,2.9c-0.3,5.2-1.2,10.4-2.8,15.4c-0.5,1.6,0.4,3.4,2,3.9
		c0.3,0.1,0.6,0.1,0.9,0.1c1.3,0,2.5-0.8,3-2.2c1.7-5.5,2.8-11.2,3.1-16.9C236,143.7,234.7,142.2,233,142.1L233,142.1z M233,142.1"
		/>
	<path class="st0" d="M241.4,203.4h-26.9c18.6-14.5,30.6-36.8,30.6-61.9c0-4.7-3.9-8.5-8.7-8.5h-0.9c-0.4-6-4-11.2-9.3-13.6
		c0.1-0.9,0.2-1.7,0.2-2.6c0-8.9-7.2-16.1-16.1-16.1c-1,0-1.9,0.1-2.8,0.3c-1.6-5.7-6.3-10.2-12.1-11.4c0.4-1.1,0.6-2.3,0.7-3.5
		c0.3-2.6-0.8-5.3-3-6.9c-3.5-2.7-7.8-4.1-12.1-4.1c-2.6,0-5.1,0.5-7.4,1.5c-4,1.7-7.2,4.6-9.3,8.2c-2.2-3.1-5.2-5.5-8.8-7
		c-2.3-0.9-4.8-1.4-7.4-1.4c-4.4,0-8.8,1.5-12.2,4.2c-2.1,1.6-3.2,4.3-2.9,6.9c0.1,0.8,0.3,1.5,0.4,2.3c-5.7,1.3-10.3,5.7-11.9,11.3
		c-0.9-0.2-1.9-0.2-2.8-0.2c-8.9,0-16.1,7.2-16.1,16.1c0,0.9,0.1,1.7,0.2,2.6c-5.3,2.4-9,7.6-9.3,13.6h-0.9c-4.8,0-8.7,3.8-8.7,8.5
		c0,25,12,47.4,30.6,61.9H87.7c-4.8,0-8.7,3.9-8.7,8.6v2.2c0,4.7,3.9,8.6,8.7,8.6h153.7c4.8,0,8.7-3.9,8.7-8.6V212
		C250.1,207.3,246.2,203.4,241.4,203.4L241.4,203.4z M176,82.3c1.6-0.7,3.3-1,5-1c3,0,5.9,1,8.3,2.8c0.4,0.3,0.6,0.8,0.6,1.3
		c-0.5,4.7-3.6,8.8-7.9,10.6c-1.6,0.7-3.3,1-5,1c-2,0-3.9-0.4-5.7-1.3l8.7-3.6c1.6-0.7,2.4-2.5,1.7-4.1c-0.7-1.6-2.5-2.3-4.1-1.7
		l-8.9,3.7C169.9,86.5,172.5,83.7,176,82.3L176,82.3z M139.7,85.4c2.4-1.8,5.4-2.9,8.4-2.9c1.7,0,3.5,0.3,5.1,1
		c3.5,1.4,6.2,4.2,7.5,7.5l-9-3.6c-1.6-0.6-3.4,0.1-4.1,1.7c-0.6,1.6,0.1,3.4,1.7,4.1l8.8,3.5c-1.8,0.8-3.7,1.2-5.7,1.2
		c-1.7,0-3.5-0.3-5.1-1c-4.5-1.8-7.6-5.8-8.2-10.5C139.1,86.1,139.3,85.7,139.7,85.4L139.7,85.4z M243.9,214.2
		c0,1.3-1.1,2.4-2.4,2.4H87.7c-1.3,0-2.4-1.1-2.4-2.4V212c0-1.3,1.1-2.4,2.4-2.4h80.6c1.7,0,3.1-1.4,3.1-3.1s-1.4-3.1-3.1-3.1h-42.7
		c-11.3-6.8-20.6-16.5-26.8-28h20.4c1.7,0,3.1-1.4,3.1-3.1c0-1.7-1.4-3.1-3.1-3.1H96.4c-0.2,0-0.4,0-0.6,0.1
		c-1.7-3.9-3-8.1-3.9-12.3h43.4c1.7,0,3.1-1.4,3.1-3.1s-1.4-3.1-3.1-3.1H90.8c-0.4-3-0.6-6-0.6-9.1c0-1.3,1.1-2.3,2.4-2.3h100.6
		c1.7,0,3.1-1.4,3.1-3.1s-1.4-3.1-3.1-3.1H99.8c0.4-4.1,3.4-7.6,7.5-8.6c3.9-0.9,1.6-5.1,1.6-7.6c0-5.4,4.4-9.8,9.8-9.8
		c1.4,0,2.8,0.3,4.1,0.9c1,0.4,2.1,0.4,3-0.2c0.9-0.6,1.4-1.5,1.5-2.6c0.1-5,4-9.1,8.8-9.6c2.2,3.2,5.3,5.8,9.1,7.3
		c2.3,0.9,4.8,1.4,7.4,1.4c4.4,0,8.8-1.5,12.2-4.2c0.2-0.2,0.5-0.4,0.7-0.6c3.4,2.4,7.4,3.7,11.5,3.7c2.6,0,5.1-0.5,7.4-1.5
		c3.2-1.3,6-3.5,8-6.2c5.2,0.2,9.4,4.4,9.5,9.6c0,1,0.6,2,1.5,2.6c0.9,0.6,2,0.6,3,0.2c1.3-0.6,2.7-0.9,4.1-0.9
		c5.4,0,9.8,4.4,9.8,9.8c0,2.5-2.3,6.7,1.6,7.6c4.1,1,7.1,4.4,7.5,8.6H209c-1.7,0-3.1,1.4-3.1,3.1s1.4,3.1,3.1,3.1h27.4
		c1.3,0,2.4,1,2.4,2.3c0,26.1-14.2,49.1-35.4,61.9h-21.1c-1.7,0-3.1,1.4-3.1,3.1c0,1.7,1.4,3.1,3.1,3.1h59c1.3,0,2.4,1.1,2.4,2.4
		L243.9,214.2L243.9,214.2z M243.9,214.2"/>
	<path class="st0" d="M220.4,62.9c-6.7-2.2-8-3.6-10.3-10.2c-0.4-1.3-1.6-2.1-3-2.1c-1.3,0-2.5,0.8-3,2.1c-2.3,6.6-3.6,8-10.3,10.2
		c-1.3,0.4-2.1,1.6-2.1,3c0,1.3,0.9,2.5,2.1,3c6.7,2.2,8,3.6,10.3,10.2c0.4,1.3,1.6,2.1,3,2.1c1.3,0,2.5-0.9,3-2.1
		c2.3-6.6,3.6-8,10.3-10.2c1.3-0.4,2.1-1.6,2.1-3C222.6,64.5,221.7,63.3,220.4,62.9L220.4,62.9z M207.2,70.4
		c-1.2-1.9-2.6-3.3-4.6-4.5c1.9-1.2,3.3-2.6,4.6-4.5c1.2,1.9,2.6,3.3,4.6,4.5C209.8,67,208.4,68.5,207.2,70.4L207.2,70.4z
		 M207.2,70.4"/>
	<path class="st0" d="M175.3,31.3c-6.7-2.2-8-3.6-10.3-10.2c-0.4-1.3-1.6-2.1-3-2.1c-1.3,0-2.5,0.9-3,2.1c-2.3,6.6-3.6,8-10.3,10.2
		c-1.3,0.4-2.1,1.6-2.1,3c0,1.3,0.9,2.5,2.1,3c6.7,2.2,8,3.6,10.3,10.2c0.4,1.3,1.6,2.1,3,2.1c1.3,0,2.5-0.8,3-2.1
		c2.2-6.6,3.6-8,10.3-10.2c1.3-0.4,2.1-1.6,2.1-3C177.5,32.9,176.6,31.7,175.3,31.3L175.3,31.3z M162.1,38.8
		c-1.2-1.9-2.6-3.3-4.6-4.5c1.9-1.2,3.3-2.6,4.6-4.5c1.2,1.9,2.6,3.3,4.6,4.5C164.7,35.5,163.3,36.9,162.1,38.8L162.1,38.8z
		 M162.1,38.8"/>
	<path class="st0" d="M136.4,62.6c-8.4-2.8-10.2-4.6-13-13c-0.4-1.3-1.6-2.1-3-2.1c-1.3,0-2.5,0.8-3,2.1c-2.8,8.3-4.7,10.1-13,13
		c-1.3,0.4-2.1,1.6-2.1,3c0,1.3,0.9,2.5,2.1,3c8.4,2.8,10.2,4.6,13,13c0.4,1.3,1.6,2.1,3,2.1c1.3,0,2.5-0.8,3-2.1
		c2.8-8.3,4.7-10.1,13-13c1.3-0.4,2.1-1.6,2.1-3C138.5,64.2,137.7,63,136.4,62.6L136.4,62.6z M120.4,72.5c-1.8-3.1-3.9-5.2-7-7
		c3.1-1.7,5.2-3.9,7-7c1.8,3.1,3.9,5.2,7,7C124.3,67.3,122.2,69.4,120.4,72.5L120.4,72.5z M120.4,72.5"/>
	<path class="st0" d="M174.3,110.2h-3.4c-1.8,0-3.2,1.4-3.2,3.2c0,1.8,1.4,3.2,3.2,3.2h3.4c1.8,0,3.2-1.4,3.2-3.2
		C177.5,111.6,176.1,110.2,174.3,110.2L174.3,110.2z M174.3,110.2"/>
	<path class="st0" d="M123.9,120.4h-3.4c-1.8,0-3.2,1.4-3.2,3.2c0,1.8,1.4,3.2,3.2,3.2h3.4c1.8,0,3.2-1.4,3.2-3.2
		C127.1,121.8,125.7,120.4,123.9,120.4L123.9,120.4z M123.9,120.4"/>
	<path class="st0" d="M141.1,114.5c0,2.1-1.7,3.8-3.8,3.8c-2.1,0-3.8-1.7-3.8-3.8c0-2.1,1.7-3.8,3.8-3.8
		C139.4,110.6,141.1,112.3,141.1,114.5L141.1,114.5z M141.1,114.5"/>
	<path class="st0" d="M191.8,123.8c0,2.1-1.7,3.8-3.8,3.8c-2.1,0-3.8-1.7-3.8-3.8c0-2.1,1.7-3.8,3.8-3.8
		C190.1,120,191.8,121.7,191.8,123.8L191.8,123.8z M191.8,123.8"/>
	<path class="st0" d="M158.7,121.4l-2.6-2.6c-0.7-0.7-1.9-0.7-2.6,0l-2.6,2.6c-0.7,0.7-0.7,1.8,0,2.6l2.6,2.6c0.7,0.7,1.9,0.7,2.6,0
		l2.6-2.6C159.4,123.2,159.4,122.1,158.7,121.4L158.7,121.4z M158.7,121.4"/>
	<path class="st0" d="M209.7,114.9l-2.6-2.6c-0.7-0.7-1.9-0.7-2.6,0l-2.6,2.6c-0.7,0.7-0.7,1.8,0,2.6l2.6,2.6c0.7,0.7,1.9,0.7,2.6,0
		l2.6-2.6C210.4,116.7,210.4,115.6,209.7,114.9L209.7,114.9z M209.7,114.9"/>
</g>
</svg>
