<?xml version="1.0" encoding="utf-8"?>
<!-- Generator: Adobe Illustrator 22.1.0, SVG Export Plug-In . SVG Version: 6.00 Build 0)  -->
<svg version="1.1" id="Warstwa_1" xmlns="http://www.w3.org/2000/svg" xmlns:xlink="http://www.w3.org/1999/xlink" x="0px" y="0px"
	 viewBox="0 0 329 239" style="enable-background:new 0 0 329 239;" xml:space="preserve">
<style type="text/css">
	.st0{fill:#FFFFFF;}
</style>
<g>
	<path class="st0" d="M253.9,50.9h-56.6v-20c0-5.5-4.5-10-10-10H74.1c-5.5,0-10,4.5-10,10v149.8c0,5.5,4.5,10,10,10h56.6v20
		c0,5.5,4.5,10,10,10h56.6c1.8,0,3.3-1.5,3.3-3.3c0-33,26.9-59.9,59.9-59.9c1.8,0,3.3-1.5,3.3-3.3V60.9
		C263.9,55.4,259.4,50.9,253.9,50.9z M130.7,60.9v123.2H74.1c-1.8,0-3.3-1.5-3.3-3.3V30.9c0-1.8,1.5-3.3,3.3-3.3h113.2
		c1.8,0,3.3,1.5,3.3,3.3v20h-49.9C135.2,50.9,130.7,55.4,130.7,60.9z M257.2,150.9c-34,1.7-61.4,29.1-63.1,63.1h-53.4
		c-1.8,0-3.3-1.5-3.3-3.3V60.9c0-1.8,1.5-3.3,3.3-3.3h113.2c1.8,0,3.3,1.5,3.3,3.3V150.9z"/>
	<path class="st0" d="M184,200.7h-5c-1.8,0-3.3,1.5-3.3,3.3c0,1.8,1.5,3.3,3.3,3.3h5c1.8,0,3.3-1.5,3.3-3.3
		C187.3,202.2,185.8,200.7,184,200.7z"/>
	<path class="st0" d="M168.7,200.7h-6.1c-1.8,0-3.3,1.5-3.3,3.3c0,1.8,1.5,3.3,3.3,3.3h6.1c1.8,0,3.3-1.5,3.3-3.3
		C172.1,202.2,170.6,200.7,168.7,200.7z"/>
	<path class="st0" d="M152.4,200.7h-1.7V199c0-1.8-1.5-3.3-3.3-3.3c-1.8,0-3.3,1.5-3.3,3.3v5c0,1.8,1.5,3.3,3.3,3.3h5
		c1.8,0,3.3-1.5,3.3-3.3C155.7,202.2,154.2,200.7,152.4,200.7z"/>
	<path class="st0" d="M147.4,103.2c1.8,0,3.3-1.5,3.3-3.3V89.6c0-1.8-1.5-3.3-3.3-3.3c-1.8,0-3.3,1.5-3.3,3.3v10.3
		C144,101.7,145.5,103.2,147.4,103.2z"/>
	<path class="st0" d="M147.4,157.9c1.8,0,3.3-1.5,3.3-3.3v-10.3c0-1.8-1.5-3.3-3.3-3.3c-1.8,0-3.3,1.5-3.3,3.3v10.3
		C144,156.4,145.5,157.9,147.4,157.9z"/>
	<path class="st0" d="M147.4,185.3c1.8,0,3.3-1.5,3.3-3.3v-10.3c0-1.8-1.5-3.3-3.3-3.3c-1.8,0-3.3,1.5-3.3,3.3v10.3
		C144,183.8,145.5,185.3,147.4,185.3z"/>
	<path class="st0" d="M147.4,130.6c1.8,0,3.3-1.5,3.3-3.3V117c0-1.8-1.5-3.3-3.3-3.3c-1.8,0-3.3,1.5-3.3,3.3v10.3
		C144,129.1,145.5,130.6,147.4,130.6z"/>
	<path class="st0" d="M152.4,64.2h-5c-1.8,0-3.3,1.5-3.3,3.3v5c0,1.8,1.5,3.3,3.3,3.3c1.8,0,3.3-1.5,3.3-3.3v-1.7h1.7
		c1.8,0,3.3-1.5,3.3-3.3C155.7,65.7,154.2,64.2,152.4,64.2z"/>
	<path class="st0" d="M226.7,64.2h-9.3c-1.8,0-3.3,1.5-3.3,3.3c0,1.8,1.5,3.3,3.3,3.3h9.3c1.8,0,3.3-1.5,3.3-3.3
		C230.1,65.7,228.6,64.2,226.7,64.2z"/>
	<path class="st0" d="M201.9,64.2h-9.3c-1.8,0-3.3,1.5-3.3,3.3c0,1.8,1.5,3.3,3.3,3.3h9.3c1.8,0,3.3-1.5,3.3-3.3
		C205.3,65.7,203.8,64.2,201.9,64.2z"/>
	<path class="st0" d="M167.8,70.9h9.3c1.8,0,3.3-1.5,3.3-3.3c0-1.8-1.5-3.3-3.3-3.3h-9.3c-1.8,0-3.3,1.5-3.3,3.3
		C164.5,69.4,166,70.9,167.8,70.9z"/>
	<path class="st0" d="M247.2,64.2h-5c-1.8,0-3.3,1.5-3.3,3.3c0,1.8,1.5,3.3,3.3,3.3h1.7v1.7c0,1.8,1.5,3.3,3.3,3.3
		c1.8,0,3.3-1.5,3.3-3.3v-5C250.5,65.7,249.1,64.2,247.2,64.2z"/>
	<path class="st0" d="M247.2,84.3c-1.8,0-3.3,1.5-3.3,3.3v9c0,1.8,1.5,3.3,3.3,3.3c1.8,0,3.3-1.5,3.3-3.3v-9
		C250.5,85.8,249.1,84.3,247.2,84.3z"/>
	<path class="st0" d="M247.2,108.4c-1.8,0-3.3,1.5-3.3,3.3v9c0,1.8,1.5,3.3,3.3,3.3c1.8,0,3.3-1.5,3.3-3.3v-9
		C250.5,109.9,249.1,108.4,247.2,108.4z"/>
	<path class="st0" d="M247.2,132.5c-1.8,0-3.3,1.5-3.3,3.3v5c0,1.8,1.5,3.3,3.3,3.3c1.8,0,3.3-1.5,3.3-3.3v-5
		C250.5,134,249.1,132.5,247.2,132.5z"/>
</g>
</svg>
