<?xml version="1.0" encoding="utf-8"?>
<!-- Generator: Adobe Illustrator 22.1.0, SVG Export Plug-In . SVG Version: 6.00 Build 0)  -->
<svg version="1.1" id="Warstwa_1" xmlns="http://www.w3.org/2000/svg" xmlns:xlink="http://www.w3.org/1999/xlink" x="0px" y="0px"
	 viewBox="0 0 329 239" style="enable-background:new 0 0 329 239;" xml:space="preserve">
<style type="text/css">
	.st0{fill:#FFFFFF;}
</style>
<g>
	<path class="st0" d="M184,54.8c-1,1-1.6,2.4-1.6,3.8c0,1.4,0.6,2.8,1.6,3.8c1,1,2.4,1.6,3.8,1.6c1.4,0,2.8-0.6,3.8-1.6
		c1-1,1.6-2.4,1.6-3.8c0-1.4-0.6-2.8-1.6-3.8C189.5,52.8,186,52.8,184,54.8L184,54.8z M184,54.8"/>
	<path class="st0" d="M177.6,58.6c0-2.9-2.4-5.3-5.3-5.3c-2.9,0-5.3,2.4-5.3,5.3c0,2.9,2.4,5.3,5.3,5.3
		C175.2,63.9,177.6,61.5,177.6,58.6L177.6,58.6z M177.6,58.6"/>
	<path class="st0" d="M162.1,58.6c0-2.9-2.4-5.3-5.3-5.3c-2.9,0-5.3,2.4-5.3,5.3c0,2.9,2.4,5.3,5.3,5.3
		C159.7,63.9,162.1,61.5,162.1,58.6L162.1,58.6z M162.1,58.6"/>
	<path class="st0" d="M145,62.3c1-1,1.6-2.4,1.6-3.8c0-1.4-0.6-2.8-1.6-3.8c-2-2-5.6-2-7.5,0c-1,1-1.6,2.4-1.6,3.8
		c0,1.4,0.6,2.8,1.6,3.8c1,1,2.4,1.6,3.8,1.6C142.7,63.9,144,63.3,145,62.3L145,62.3z M145,62.3"/>
	<path class="st0" d="M230.1,59.1c6-4.7,9.8-12.1,9.8-20.3c0-3.1-2.5-5.6-5.6-5.6c-3.1,0-5.6,2.5-5.6,5.6c0,8.1-6.6,14.7-14.7,14.7
		c-3.1,0-5.6,2.5-5.6,5.6s2.5,5.6,5.6,5.6c8.1,0,14.7,6.6,14.7,14.7v116.4H100.1V79.3c0-8.1,6.6-14.7,14.7-14.7
		c3.1,0,5.6-2.5,5.6-5.6c0-3.1-2.5-5.6-5.6-5.6c-6.1,0-11.4-3.8-13.6-9.2H221c3.1,0,5.6-2.5,5.6-5.6c0-3.1-2.5-5.6-5.6-5.6H94.6
		c-3.1,0-5.6,2.5-5.6,5.6c0,8.2,3.8,15.5,9.8,20.3c-6,4.7-9.8,12.1-9.8,20.3v122c0,3.1,2.5,5.6,5.6,5.6h139.8c3.1,0,5.6-2.5,5.6-5.6
		v-122C240,71.1,236.1,63.8,230.1,59.1L230.1,59.1z M230.1,59.1"/>
	<path class="st0" d="M213.8,90.1c-1-2.4-3.5-3.8-6-3.2c-12.6,2.6-20.3,5.8-24,7.6c-11.9-4.1-25.7-4.1-37.7,0
		c-3.6-1.8-11.4-5-24-7.6c-2.5-0.5-5.1,0.9-6,3.2c-2.8,7.1-1.9,18.8,3,26.3c-2.9,5.5-4.4,11.4-4.4,17.4c0,23.4,22.5,42.5,50.3,42.5
		c27.7,0,50.3-19.1,50.3-42.5c0-6-1.5-12-4.4-17.4C215.7,108.9,216.6,97.2,213.8,90.1L213.8,90.1z M199.9,118.9
		c3.1,4.6,4.7,9.7,4.7,15c0,17.6-17.8,31.9-39.6,31.9c-21.8,0-39.6-14.3-39.6-31.9c0-5.3,1.6-10.3,4.7-15c1.4-2.2,1.1-5-0.8-6.8
		c-2.8-2.7-4.3-8.8-4-13.6c12.1,3,17.7,6.3,17.7,6.3c1.4,0.9,3.2,1,4.7,0.4c10.8-4.3,23.8-4.3,34.6,0c1.5,0.6,3.3,0.4,4.7-0.4
		c0.1,0,5.7-3.4,17.7-6.3c0.2,4.9-1.2,10.9-4,13.6C198.8,113.9,198.4,116.8,199.9,118.9L199.9,118.9z M199.9,118.9"/>
	<path class="st0" d="M193,129.4c0,4.2-3.4,7.5-7.5,7.5c-4.2,0-7.5-3.4-7.5-7.5c0-4.2,3.4-7.5,7.5-7.5
		C189.6,121.9,193,125.3,193,129.4L193,129.4z M193,129.4"/>
	<path class="st0" d="M151,129.4c0,4.2-3.4,7.5-7.5,7.5c-4.2,0-7.5-3.4-7.5-7.5c0-4.2,3.4-7.5,7.5-7.5
		C147.7,121.9,151,125.3,151,129.4L151,129.4z M151,129.4"/>
</g>
</svg>
