<?xml version="1.0" encoding="utf-8"?>
<!-- Generator: Adobe Illustrator 22.1.0, SVG Export Plug-In . SVG Version: 6.00 Build 0)  -->
<svg version="1.1" id="Warstwa_1" xmlns="http://www.w3.org/2000/svg" xmlns:xlink="http://www.w3.org/1999/xlink" x="0px" y="0px"
	 viewBox="0 0 400 400" style="enable-background:new 0 0 400 400;" xml:space="preserve">
<style type="text/css">
	.st0{fill:#FFFFFF;}
</style>
<path class="st0" d="M215.6,185.3l-0.9,15c-0.3,3.9,2.8,7.3,6.7,7.6c4,0.2,7.4-2.7,7.6-6.7l0.9-15c0.2-3.9-2.8-7.3-6.7-7.6
	C219.2,178.4,215.8,181.4,215.6,185.3"/>
<path class="st0" d="M184.7,183.4c0.2-3.9-2.8-7.3-6.7-7.6c-4-0.2-7.4,2.7-7.6,6.7l-0.9,15c-0.2,3.9,2.8,7.3,6.7,7.6
	c4,0.2,7.4-2.7,7.6-6.7L184.7,183.4z"/>
<path class="st0" d="M279.2,36.2l-137.9-8.6C118,26.3,97.9,43.9,96.4,67L82.1,295.4v0v0l-1.6,25.9c-0.3,5.3,3.7,9.8,9,10.1l3.6,0.2
	c-0.9,1.3-1.4,2.9-1.5,4.6c-0.3,5.3,3.7,9.8,9,10.1l4.1,0.3c0.2,0,0.4,0,0.6,0c5,0,9.3-3.9,9.6-9c0.1-1.7-0.2-3.3-0.9-4.8L292.5,344
	c0.2,0,0.4,0,0.6,0c5,0,9.3-3.9,9.6-9l1.6-25.9v0v0l14.3-228.4C320.2,57.7,302.4,37.7,279.2,36.2 M285.8,298.5l-82.3-5.1l13-207
	l82.3,5.1L285.8,298.5z M114.9,80.1l82.3,5.1l-13,207l-82.3-5.1L114.9,80.1z M140,46.8L278,55.4c10.1,0.6,18.3,7.7,20.8,17L117.3,61
	C120.9,52.2,129.9,46.2,140,46.8 M100.3,312.9l0.4-6.8l183.9,11.4l-0.4,6.7L100.3,312.9z"/>
</svg>
