<?xml version="1.0" encoding="utf-8"?>
<!-- Generator: Adobe Illustrator 22.1.0, SVG Export Plug-In . SVG Version: 6.00 Build 0)  -->
<svg version="1.1" id="Warstwa_1" xmlns="http://www.w3.org/2000/svg" xmlns:xlink="http://www.w3.org/1999/xlink" x="0px" y="0px"
	 viewBox="0 0 329 239" style="enable-background:new 0 0 329 239;" xml:space="preserve">
<style type="text/css">
	.st0{fill:#FFFFFF;}
</style>
<g>
	<path class="st0" d="M214.5,34.8H103v154.4h11.4V206l11.4-7.6l11.5,7.6v-16.8h77.2c6.3,0,11.4-5.1,11.4-11.4V46.2
		C226,39.9,220.8,34.8,214.5,34.8L214.5,34.8z M108.7,40.5h80.1v42.9h-80.1V40.5z M171.6,132c-1.6,0-2.9,1.3-2.9,2.8l0,0h-11.4v0
		c0-1.6-1.3-2.9-2.9-2.9c-1.6,0-2.9,1.3-2.9,2.8l0,0h-11.5v0c0-1.6-1.3-2.9-2.9-2.9c-1.6,0-2.8,1.3-2.8,2.8v0H123v0
		c0-1.6-1.3-2.9-2.8-2.9c-1.6,0-2.9,1.3-2.9,2.8v0h-8.6V89.2h2.7c-1.5,0.1-2.7,1.3-2.7,2.8c0,1.6,1.3,2.9,2.9,2.9
		c1.6,0,2.9-1.3,2.9-2.9c0-1.5-1.2-2.8-2.7-2.8h16.9c-1.5,0.1-2.7,1.3-2.7,2.8c0,1.6,1.3,2.9,2.9,2.9c1.6,0,2.9-1.3,2.9-2.9
		c0-1.5-1.2-2.8-2.7-2.8h16.9c-1.5,0.1-2.7,1.3-2.7,2.8c0,1.6,1.3,2.9,2.9,2.9c1.6,0,2.9-1.3,2.9-2.9c0-1.5-1.2-2.8-2.7-2.8h16.9
		c-1.5,0.1-2.7,1.3-2.7,2.8c0,1.6,1.3,2.9,2.9,2.9c1.6,0,2.8-1.3,2.8-2.9c0-1.5-1.2-2.8-2.7-2.8h16.9c-1.5,0.1-2.7,1.3-2.7,2.8
		c0,1.6,1.3,2.9,2.8,2.9c1.6,0,2.9-1.3,2.9-2.9c0-1.5-1.2-2.8-2.7-2.8h8.4v8.5c-1.6,0-2.9,1.3-2.9,2.9c0,1.6,1.3,2.9,2.9,2.9v11.4
		c-1.6,0-2.9,1.3-2.9,2.9s1.3,2.8,2.9,2.8V132c-1.6,0-2.9,1.3-2.9,2.8v0h-11.4l0,0C174.5,133.3,173.2,132,171.6,132L171.6,132z
		 M131.6,195.3l-5.7-3.8l-5.7,3.8v-6.1h11.4V195.3z M137.3,183.5h-28.6v-42.9h80.1v42.9H137.3z M194.5,183.5v-143h8.6v143H194.5z
		 M214.5,94.9c1.6,0,2.9-1.3,2.9-2.9c0-1.5-1.2-2.8-2.7-2.8h5.6v45.7h-11.4V89.2h5.6c-1.5,0.1-2.7,1.3-2.7,2.8
		C211.7,93.6,212.9,94.9,214.5,94.9L214.5,94.9z M220.3,177.8c0,3.1-2.6,5.7-5.7,5.7h-5.7v-42.9h11.4V177.8z M208.8,83.4V40.5h5.7
		c3.1,0,5.7,2.6,5.7,5.7v37.2H208.8z M208.8,83.4"/>
	<path class="st0" d="M123,100.6c0,1.6-1.3,2.9-2.8,2.9c-1.6,0-2.9-1.3-2.9-2.9c0-1.6,1.3-2.9,2.9-2.9C121.7,97.7,123,99,123,100.6
		L123,100.6z M123,100.6"/>
	<path class="st0" d="M140.2,100.6c0,1.6-1.3,2.9-2.9,2.9c-1.6,0-2.8-1.3-2.8-2.9c0-1.6,1.3-2.9,2.8-2.9
		C138.9,97.7,140.2,99,140.2,100.6L140.2,100.6z M140.2,100.6"/>
	<path class="st0" d="M157.3,100.6c0,1.6-1.3,2.9-2.9,2.9c-1.6,0-2.9-1.3-2.9-2.9c0-1.6,1.3-2.9,2.9-2.9
		C156,97.7,157.3,99,157.3,100.6L157.3,100.6z M157.3,100.6"/>
	<path class="st0" d="M174.5,100.6c0,1.6-1.3,2.9-2.9,2.9c-1.6,0-2.9-1.3-2.9-2.9c0-1.6,1.3-2.9,2.9-2.9
		C173.2,97.7,174.5,99,174.5,100.6L174.5,100.6z M174.5,100.6"/>
	<path class="st0" d="M114.4,109.2c0,1.6-1.3,2.9-2.9,2.9c-1.6,0-2.9-1.3-2.9-2.9c0-1.6,1.3-2.9,2.9-2.9
		C113.2,106.3,114.4,107.6,114.4,109.2L114.4,109.2z M114.4,109.2"/>
	<path class="st0" d="M131.6,109.2c0,1.6-1.3,2.9-2.9,2.9c-1.6,0-2.9-1.3-2.9-2.9c0-1.6,1.3-2.9,2.9-2.9
		C130.3,106.3,131.6,107.6,131.6,109.2L131.6,109.2z M131.6,109.2"/>
	<path class="st0" d="M114.4,126.3c0,1.6-1.3,2.9-2.9,2.9c-1.6,0-2.9-1.3-2.9-2.9c0-1.6,1.3-2.9,2.9-2.9
		C113.2,123.5,114.4,124.7,114.4,126.3L114.4,126.3z M114.4,126.3"/>
	<path class="st0" d="M131.6,126.3c0,1.6-1.3,2.9-2.9,2.9c-1.6,0-2.9-1.3-2.9-2.9c0-1.6,1.3-2.9,2.9-2.9
		C130.3,123.5,131.6,124.7,131.6,126.3L131.6,126.3z M131.6,126.3"/>
	<path class="st0" d="M123,117.7c0,1.6-1.3,2.8-2.8,2.8c-1.6,0-2.9-1.3-2.9-2.8c0-1.6,1.3-2.9,2.9-2.9
		C121.7,114.9,123,116.1,123,117.7L123,117.7z M123,117.7"/>
	<path class="st0" d="M140.2,117.7c0,1.6-1.3,2.8-2.9,2.8c-1.6,0-2.8-1.3-2.8-2.8c0-1.6,1.3-2.9,2.8-2.9
		C138.9,114.9,140.2,116.1,140.2,117.7L140.2,117.7z M140.2,117.7"/>
	<path class="st0" d="M148.8,109.2c0,1.6-1.3,2.9-2.9,2.9c-1.6,0-2.9-1.3-2.9-2.9c0-1.6,1.3-2.9,2.9-2.9
		C147.5,106.3,148.8,107.6,148.8,109.2L148.8,109.2z M148.8,109.2"/>
	<path class="st0" d="M165.9,109.2c0,1.6-1.3,2.9-2.8,2.9c-1.6,0-2.9-1.3-2.9-2.9c0-1.6,1.3-2.9,2.9-2.9
		C164.6,106.3,165.9,107.6,165.9,109.2L165.9,109.2z M165.9,109.2"/>
	<path class="st0" d="M148.8,126.3c0,1.6-1.3,2.9-2.9,2.9c-1.6,0-2.9-1.3-2.9-2.9c0-1.6,1.3-2.9,2.9-2.9
		C147.5,123.5,148.8,124.7,148.8,126.3L148.8,126.3z M148.8,126.3"/>
	<path class="st0" d="M165.9,126.3c0,1.6-1.3,2.9-2.8,2.9c-1.6,0-2.9-1.3-2.9-2.9c0-1.6,1.3-2.9,2.9-2.9
		C164.6,123.5,165.9,124.7,165.9,126.3L165.9,126.3z M165.9,126.3"/>
	<path class="st0" d="M157.3,117.7c0,1.6-1.3,2.8-2.9,2.8c-1.6,0-2.9-1.3-2.9-2.8c0-1.6,1.3-2.9,2.9-2.9
		C156,114.9,157.3,116.1,157.3,117.7L157.3,117.7z M157.3,117.7"/>
	<path class="st0" d="M174.5,117.7c0,1.6-1.3,2.8-2.9,2.8c-1.6,0-2.9-1.3-2.9-2.8c0-1.6,1.3-2.9,2.9-2.9
		C173.2,114.9,174.5,116.1,174.5,117.7L174.5,117.7z M174.5,117.7"/>
	<path class="st0" d="M183.1,109.2c0,1.6-1.3,2.9-2.9,2.9c-1.6,0-2.8-1.3-2.8-2.9c0-1.6,1.3-2.9,2.8-2.9
		C181.8,106.3,183.1,107.6,183.1,109.2L183.1,109.2z M183.1,109.2"/>
	<path class="st0" d="M183.1,126.3c0,1.6-1.3,2.9-2.9,2.9c-1.6,0-2.8-1.3-2.8-2.9c0-1.6,1.3-2.9,2.8-2.9
		C181.8,123.5,183.1,124.7,183.1,126.3L183.1,126.3z M183.1,126.3"/>
	<path class="st0" d="M217.4,109.2c0,1.6-1.3,2.9-2.9,2.9c-1.6,0-2.9-1.3-2.9-2.9c0-1.6,1.3-2.9,2.9-2.9
		C216.1,106.3,217.4,107.6,217.4,109.2L217.4,109.2z M217.4,109.2"/>
	<path class="st0" d="M217.4,126.3c0,1.6-1.3,2.9-2.9,2.9c-1.6,0-2.9-1.3-2.9-2.9c0-1.6,1.3-2.9,2.9-2.9
		C216.1,123.5,217.4,124.7,217.4,126.3L217.4,126.3z M217.4,126.3"/>
</g>
</svg>
