<?xml version="1.0" encoding="utf-8"?>
<!-- Generator: Adobe Illustrator 22.1.0, SVG Export Plug-In . SVG Version: 6.00 Build 0)  -->
<svg version="1.1" id="Warstwa_1" xmlns="http://www.w3.org/2000/svg" xmlns:xlink="http://www.w3.org/1999/xlink" x="0px" y="0px"
	 viewBox="0 0 329 239" style="enable-background:new 0 0 329 239;" xml:space="preserve">
<style type="text/css">
	.st0{fill:#FFFFFF;}
</style>
<g>
	<path class="st0" d="M262.4,111.8L262.4,111.8c-0.1,0-0.2,0-0.2-0.1l-18.5-2.4V73.1c0,0,0-0.1,0-0.1c0-0.1,0-0.1,0-0.1v-0.1
		c0-0.1,0-0.2-0.1-0.3c0-0.4-0.1-0.8-0.1-1.1c0-0.1-0.1-0.2-0.1-0.3c-0.1-0.4-0.2-0.8-0.4-1.2c0,0,0-0.1,0-0.1
		C237.3,55.4,194.3,46,153.8,46C110.4,46,64,56.8,64,73c0,0.1,0,0.1,0,0.2l0,63.1c0,15,41.3,28.1,88.4,28.1l1.8,0
		c1.9,0,3.4-1.6,3.4-3.5v-23.3c3.7,1.2,9.2,3.1,13.9,4.6v28.7c0,0.8,0.3,1.6,0.8,2.2l17.3,20.8c0,0,0.1,0,0.1,0.1
		c0,0,0.1,0.1,0.1,0.1c0.2,0.2,0.4,0.3,0.7,0.5c0.1,0.1,0.2,0.2,0.4,0.3c0.4,0.2,0.9,0.3,1.4,0.3h0c28.2-0.1,54.6-3.4,70.6-8.8
		c1.4-0.5,2.4-1.8,2.4-3.3v-67.9C265.4,113.5,264.1,112.1,262.4,111.8L262.4,111.8z M194.1,120.4l-9.4-10.9l38.4,4.2h0l7.8,1l12,1.6
		C229.1,118.7,212,120.2,194.1,120.4L194.1,120.4z M236.7,108.4l-9.6-1.3V93.9c3.7-1.5,7-3.9,9.6-6.8V108.4z M147.8,94.5
		C100,93.7,71.1,79.5,70.9,73V73c0.2-7,34.5-20,82.9-20c38.9,0,68.7,8.4,79,15.3c0.1,0.1,0.3,0.2,0.4,0.2c0.1,0.1,0.2,0.2,0.3,0.3
		c1.7,1.3,2.8,2.5,3.1,3.5c0,0.1,0,0.2,0.1,0.3c0,0.1,0,0.2,0,0.3V73c-0.1,2.6-4.4,11.4-12.2,14.5l-85.2-17.8l-0.7-0.2
		c-0.1,0-0.2,0-0.3,0c-1.1-0.2-2.2,0.3-3,1.1c-0.1,0.1-0.3,0.2-0.4,0.4c-0.4,0.6-0.6,1.3-0.6,1.9c0,0.7,0.2,1.3,0.6,1.9L147.8,94.5z
		 M150.7,157.4c-49.7-0.3-79.8-14.8-79.8-21.2V83.5c13.6,10.1,45.4,17.8,79.8,18V157.4z M157.7,130.4V98c0,0,0-0.1,0-0.1
		c0-0.1-0.1-0.2-0.1-0.4c0-0.2-0.1-0.4-0.1-0.6c0-0.2-0.1-0.3-0.2-0.4c-0.1-0.1-0.1-0.3-0.2-0.4l-11.8-18l74.8,15.8v12.3l-44.5-5.8
		c-0.1,0-0.1,0-0.2,0h0c-0.1,0-0.2,0-0.3,0c-0.2,0-0.3,0-0.5,0c-0.2,0-0.4,0.1-0.6,0.1c-0.1,0-0.2,0-0.3,0.1c-0.1,0-0.1,0.1-0.2,0.1
		c-0.2,0.1-0.3,0.2-0.5,0.3c-0.2,0.1-0.3,0.2-0.4,0.3c-0.1,0.1-0.2,0.2-0.4,0.4c-0.1,0.1-0.2,0.3-0.3,0.4c0,0.1-0.1,0.1-0.1,0.2
		c-0.1,0.1-0.1,0.2-0.1,0.3c-0.1,0.2-0.1,0.3-0.2,0.5c0,0.2-0.1,0.4-0.1,0.5c0,0.1,0,0.2,0,0.3v31
		C164.8,132.6,160.5,131.2,157.7,130.4L157.7,130.4z M178.5,139.7v-26.5l10.4,12v57l-10.4-12.5V139.7z M195.8,188.2v-60.9
		c24.4-0.4,47.2-3.1,62.6-7.5v60.7C243.6,185.1,220.6,187.9,195.8,188.2L195.8,188.2z M195.8,188.2"/>
</g>
<g>
	<line class="st0" x1="140" y1="74" x2="232" y2="65"/>
	<path class="st0" d="M140,78c-2,0-3.8-1.5-4-3.6c-0.2-2.2,1.4-4.2,3.6-4.4l92-9c2.2-0.2,4.2,1.4,4.4,3.6c0.2,2.2-1.4,4.2-3.6,4.4
		l-92,9C140.3,78,140.1,78,140,78z"/>
</g>
<path class="st0" d="M143,76c-0.9,0-1.8-0.3-2.5-0.9l-24-19c-1.7-1.4-2-3.9-0.7-5.6c1.4-1.7,3.9-2,5.6-0.7l21.3,16.9
	c19.5-17.7,19.9-17.7,21.6-17.8c2.2-0.2,4.1,1.5,4.3,3.7c0.1,1.6-0.7,3.1-2.1,3.8c-2,1.5-13.3,11.6-20.9,18.5
	C144.9,75.7,144,76,143,76z M165,56.9C165,56.9,165,56.9,165,56.9C165,56.9,165,56.9,165,56.9z"/>
<path class="st0" d="M95,158c-1,0-2-0.4-2.8-1.2c-1.5-1.5-2.4-2.4-1.9-35.6C90.5,105.6,91,90,91,89.9c0.1-1.6,1-3,2.5-3.6l23.3-9.6
	l-43.9-3.2c-2.2-0.2-3.9-2.1-3.7-4.3c0.2-2.2,2.1-3.8,4.3-3.7l60.8,4.5c1.9,0.1,3.4,1.5,3.7,3.4c0.3,1.8-0.7,3.6-2.4,4.3l-36.6,15
	c-0.7,23-1.2,54.8-0.3,59.5c0.7,1.5,0.5,3.3-0.8,4.6C97,157.6,96,158,95,158z M97.8,151.2C97.8,151.2,97.8,151.2,97.8,151.2
	C97.8,151.2,97.8,151.2,97.8,151.2z M97.8,151.2C97.8,151.2,97.8,151.2,97.8,151.2C97.8,151.2,97.8,151.2,97.8,151.2z"/>
</svg>
