<?xml version="1.0" encoding="utf-8"?>
<!-- Generator: Adobe Illustrator 22.1.0, SVG Export Plug-In . SVG Version: 6.00 Build 0)  -->
<svg version="1.1" id="Warstwa_1" xmlns="http://www.w3.org/2000/svg" xmlns:xlink="http://www.w3.org/1999/xlink" x="0px" y="0px"
	 viewBox="0 0 400 400" style="enable-background:new 0 0 400 400;" xml:space="preserve">
<style type="text/css">
	.st0{fill:#FFFFFF;}
</style>
<path class="st0" d="M310,259.6c-12.3-49.9-39.4-99.2-80.8-146.6L255,68.5c1.5-2.7,1.5-5.9,0-8.6c-1.5-2.7-4.4-4.3-7.5-4.3h-6.8
	c-3.5,0-6.6,2.1-8,5.3c-1.8,4.2-5.9,6.9-10.5,6.9c-4.6,0-8.7-2.7-10.5-6.9c-1.4-3.2-4.5-5.3-8-5.3h-6.8c-3.5,0-6.6,2.1-8,5.3
	c-1.8,4.2-5.9,6.9-10.5,6.9c-4.6,0-8.7-2.7-10.5-6.9c-1.4-3.2-4.5-5.3-8-5.3h-7.5c-3.1,0-6,1.6-7.5,4.3c-1.5,2.7-1.5,5.9,0,8.6
	l25.9,44.5c-40.9,47.9-68.8,99-80.9,148c-4,16.4-6.5,33.7,2.3,49.7c18,32.5,67.7,33.2,105,33.2h2.6c37.6,0,89,0,107.6-33.1
	C316.8,294.6,314.2,276.6,310,259.6 M178.6,85c8.6,0,16.5-3.8,21.8-10c5.4,6.3,13.3,10,21.8,10c1.1,0,2.2-0.1,3.3-0.2l-12.1,20.8
	l-25.1,2.8l-13.8-23.7C175.9,84.9,177.2,85,178.6,85 M292.6,302.4c-13.6,24.3-59.2,24.3-92.5,24.3c-33.3,0-79,0-92.4-24.3
	c-5.6-10.2-4.3-22.3-0.7-37.3c9.9-40.2,31.2-82,62.1-122.3c-7.8,16.5-14.2,38.5-9.9,62.1c0.8,4.2,4.4,7.1,8.5,7.1c0.5,0,1,0,1.6-0.1
	c4.7-0.8,7.8-5.3,7-10c-6.6-36.2,18.9-70.1,23.6-75.9c5.8,7.9,38.8,55.5,28.8,108.3c-0.9,4.7,2.2,9.2,6.9,10
	c0.5,0.1,1.1,0.1,1.6,0.1c4.1,0,7.7-2.9,8.5-7c7.6-40.2-6.1-76.8-18.1-99.5c32.8,40.8,55.4,83.9,65.6,125.7
	C297,279.4,298.4,292,292.6,302.4"/>
</svg>
