<?xml version="1.0" encoding="utf-8"?>
<!-- Generator: Adobe Illustrator 22.1.0, SVG Export Plug-In . SVG Version: 6.00 Build 0)  -->
<svg version="1.1" id="Warstwa_1" xmlns="http://www.w3.org/2000/svg" xmlns:xlink="http://www.w3.org/1999/xlink" x="0px" y="0px"
	 viewBox="0 0 329 239" style="enable-background:new 0 0 329 239;" xml:space="preserve">
<style type="text/css">
	.st0{fill:#FFFFFF;}
</style>
<path class="st0" d="M233.3,57.2l-0.4-0.2c-10.4-6-23.4-5.4-33.1,1.5l-0.4,0.3c-10,7.1-17.4,17.5-21,29.1l-2.5,8.4
	c-2.8,9.2-8.7,17.4-16.6,22.9l-5.5,3.8c-1.6-6.9-1.6-14.2,0-21.1l2.2-9.2c3-12.7,1.6-26.3-3.8-38.1c0,0,0,0,0,0
	C146.7,42.7,134.7,35,121.6,35c-13.1,0-25.1,7.7-30.5,19.6c-5.4,11.9-6.8,25.4-3.8,38.1l2.2,9.2c2.4,10.2,1.3,21-3.1,30.4l-1.7,3.7
	c-4.3,9.2-6.6,19.5-6.6,29.6c0,8.1,2.9,15.9,8.1,22.1l2.4,2.9c5.8,6.8,13.4,11.6,22,13.9c3.6,1,7.4,1.4,11.1,1.4
	c3.7,0,7.5-0.5,11.1-1.4c7-1.9,13.4-5.4,18.6-10.3c3.3,2.1,6.9,3.7,10.7,4.8l2.2,0.6c3.2,0.9,6.5,1.3,9.8,1.3
	c4.2,0,8.4-0.7,12.4-2.2c9.9-3.6,18.3-10.5,23.6-19.7c3.2-5.6,5.2-11.9,5.8-18.4l0.7-8.4c0.8-9.6,5-18.8,11.6-25.8l6-6.4
	c8.3-8.9,13.6-20.5,14.7-32.6c0,0,0,0,0,0C250,75.2,243.9,63.4,233.3,57.2z M165.3,165.7c0-7.6-1.3-15.3-3.7-22.5
	c9.5-12.7,18.4-9.9,25.1-6c8.3,4.8,14,15.5,6.9,27.9c-6.8,11.8-22,18.4-30.7,13.4c0,0,0,0-0.1,0
	C164.4,174.4,165.3,170.1,165.3,165.7z M90.6,138.9l1.7-3.7c5-10.8,6.3-23.2,3.6-34.8L94,92.1c1.9,0.9,4.4,1.8,7.4,2.5l1.1,4.7
	c3.1,13.2,1.6,27.2-4,39.5l-1.7,3.8c-3,6.5-4.8,13.7-5.2,20.9c-2.1-1.5-4.1-3.3-6-5.2c-0.1-0.1-0.2-0.2-0.3-0.3
	C86,151.4,87.8,144.9,90.6,138.9z M131,198.1L131,198.1c-6.2,1.6-12.7,1.6-18.8,0c-7.3-1.9-13.7-6-18.6-11.7l-2.4-2.9
	c-4-4.7-6.3-10.7-6.5-16.9c2.3,1.9,4.7,3.7,7.3,5.2c0.8,3.1,2.2,6,4.3,8.5c0.7,0.8,1.6,1.2,2.6,1.2c0.8,0,1.5-0.3,2.1-0.8
	c1.2-1,1.5-2.8,0.8-4.2c6.3,2.3,13.1,3.6,20,3.6c2.2,0,4.3-0.1,6.5-0.4c1.8-0.2,3.2-1.9,2.9-3.7c-0.2-1.8-1.9-3.2-3.7-2.9
	c-10.3,1.2-20.5-0.8-29.5-5.5c0-0.3,0-0.5,0-0.8c0-7.3,1.6-14.8,4.7-21.4l1.7-3.8c6.3-13.6,7.9-29.2,4.5-43.8l-0.5-2
	c1.5,0.1,3,0.2,4.6,0.2c1.4,0,2.8-0.1,4.3-0.2c0.4,4.3,1.2,9,2.3,14c2.8,12.7,1.3,18.1-0.7,25.4c-1.8,6.4-4,14.3-4,28.9
	c0,1.8,1.5,3.3,3.3,3.3s3.3-1.5,3.3-3.3c0-13.7,2-20.8,3.7-27.1c2.1-7.6,3.9-14.2,0.8-28.6c-1.1-4.8-1.7-9.3-2.2-13.5
	c3.3-0.6,6.7-1.6,10.3-2.9c1.7-0.6,2.6-2.5,2-4.3c-0.6-1.7-2.5-2.6-4.3-2c-2.9,1-5.7,1.8-8.5,2.4c-0.5-14.7,2.5-23.1,2.5-23.2
	c0.6-1.7-0.2-3.6-1.9-4.3c-1.7-0.7-3.7,0.2-4.3,1.9c-0.2,0.5-3.7,10-3,26.6c-3.4,0.3-6.8,0.2-10.1-0.3l-0.1-0.4
	c-2-8.5-1.1-17.6,2.5-25.5c0.8-1.7,0-3.7-1.7-4.4c-1.7-0.8-3.7,0-4.4,1.7c-3.8,8.4-5,17.9-3.5,26.9c-4.4-1.5-6.8-3.2-6.9-3.2
	c-0.1-0.1-0.1-0.1-0.2-0.1c-0.8-9,0.8-18.1,4.6-26.4c4.4-9.5,14-15.7,24.5-15.7c10.5,0,20.1,6.2,24.5,15.7c0,0,0,0,0,0
	c1.2,2.7,2.3,5.6,3,8.5c-1.2,1.1-6.5,5-18.7,3.6c-1.8-0.2-3.5,1.1-3.7,2.9c-0.2,1.8,1.1,3.5,2.9,3.7c2,0.2,3.9,0.3,5.6,0.3
	c7.2,0,12.1-1.8,15.2-3.5c0.7,6.1,0.4,12.3-1,18.2l-2.2,9.2c-2.2,9.6-1.8,19.7,1.3,29.1c0,0.1,0.1,0.2,0.1,0.4
	c0.6,1.8,1.3,3.6,2.1,5.3l1.7,3.7c2.8,6.1,4.7,12.7,5.5,19.3c0,0,0,0,0,0c-2.7,2.7-5.7,5.1-9,7.2c-1.6,1-2,3-1,4.6
	c0.6,1,1.7,1.6,2.8,1.6c0.6,0,1.2-0.2,1.8-0.5c2-1.3,4-2.7,5.8-4.2c-0.2,6.1-2.5,12-6.5,16.6l-2.5,2.9
	C144.8,192.1,138.3,196.2,131,198.1z M242.2,86.8C242.2,86.8,242.2,86.8,242.2,86.8c-1,10.7-5.6,20.9-12.9,28.7l-6,6.4
	c-7.6,8.1-12.4,18.7-13.3,29.8l-0.7,8.4c-0.5,5.5-2.2,10.9-4.9,15.6c-4.5,7.8-11.6,13.7-20.1,16.7c-5.9,2.1-12.1,2.3-18.1,0.7
	l-2.2-0.6c-2.8-0.8-5.4-1.9-7.9-3.3l1.2-1.4c0.9-1.1,1.8-2.2,2.5-3.4c2.9,1.7,6.4,2.5,10,2.5c3.7,0,7.7-0.8,11.6-2.5
	c7.4-3.2,14-9,18-15.9c4-7,5.1-14.3,3.1-21.3c-1.9-6.5-6.3-12.1-12.4-15.6c-11.9-6.9-22.4-5.3-31.3,4.7c0,0,0,0,0,0l-1.7-3.7
	c-0.4-0.9-0.8-1.7-1.1-2.6c0.1-0.1,0.2-0.2,0.3-0.2l6.9-4.9c9.1-6.4,15.9-15.8,19.1-26.5l2.5-8.4c3.1-10.3,9.7-19.4,18.5-25.6
	l0.4-0.3c7.6-5.4,17.8-5.9,25.9-1.2l0.4,0.2C238.3,67.8,243.1,77.2,242.2,86.8z"/>
<path class="st0" d="M230.4,100c-1.6-0.9-3.6-0.4-4.6,1.2l-0.1,0.2c-0.9,1.6-0.4,3.6,1.2,4.6c0.5,0.3,1.1,0.5,1.7,0.5
	c1.1,0,2.3-0.6,2.9-1.6l0.2-0.3C232.5,103,232,100.9,230.4,100z"/>
<path class="st0" d="M226,69.7c-10.6-6.1-25.4-0.5-33,12.6c-3.6,6.2-5,13.2-4.1,19.6c1,6.8,4.4,12.1,9.7,15.2
	c2.9,1.7,6.1,2.5,9.5,2.5c3.5,0,7.1-0.9,10.6-2.7c1.6-0.8,2.3-2.8,1.5-4.5c-0.8-1.6-2.8-2.3-4.5-1.5c-4.9,2.5-9.9,2.6-13.8,0.3
	c-3.5-2-5.7-5.7-6.4-10.4c-0.7-5,0.5-10.4,3.3-15.3c5.7-9.9,16.4-14.4,23.8-10.1c4.2,2.4,6.7,7.5,6.6,13.5c0,1.8,1.5,3.4,3.3,3.4
	c1.8,0,3.4-1.5,3.4-3.3C236.1,80.7,232.4,73.4,226,69.7z"/>
<path class="st0" d="M139.2,170.3l-0.2,0.1c-1.7,0.6-2.6,2.5-2,4.3c0.5,1.4,1.8,2.2,3.1,2.2c0.4,0,0.7-0.1,1.1-0.2l0.3-0.1
	c1.7-0.6,2.6-2.5,2-4.3C142.8,170.6,140.9,169.7,139.2,170.3z"/>
</svg>
