<?xml version="1.0" encoding="utf-8"?>
<!-- Generator: Adobe Illustrator 22.1.0, SVG Export Plug-In . SVG Version: 6.00 Build 0)  -->
<svg version="1.1" id="Warstwa_1" xmlns="http://www.w3.org/2000/svg" xmlns:xlink="http://www.w3.org/1999/xlink" x="0px" y="0px"
	 viewBox="0 0 329 239" style="enable-background:new 0 0 329 239;" xml:space="preserve">
<style type="text/css">
	.st0{fill:#FFFFFF;}
</style>
<path class="st0" d="M227.7,126.5c-0.1-3-0.1-5.1-0.1-6.2c0-8.9-2.3-59.9-2.5-65.7c-0.2-4.1-0.3-7.6-2.8-9.8
	c-1.8-1.6-4.4-2.2-8.5-1.9c-6.8,0.4-18.9,2-29.5,3.4c-3.5,0.5-7,0.9-9.9,1.3c0,0-0.1,0-0.1,0c-4.3,0.5-7.6,0.9-8.7,0.9h-1.3
	c-2,0-10.1-1-18.8-2.2c-10.6-1.4-22.6-2.9-29.4-3.4c-3.2-0.2-6.4-0.1-8.6,1.9c-2.1,1.9-2.6,4.7-2.8,8.4c-0.1,2.4-2.6,57.8-2.6,67.1
	c0,1.1,0,3.2-0.1,6.2c-0.3,14.9-0.8,46,1.2,59.7c1.2,8.2,4.5,11.6,11.6,11.6c0.6,0,1.2,0,1.9-0.1c5.3-0.4,13.6-1.4,21.8-2.4
	c0,0,0,0,0,0c2.4-0.3,4.7-0.6,7-0.9c8.6-1.1,16.8-2.2,18.8-2.2h1.3c2,0,10.1,1,18.8,2.2c10,1.3,21.3,2.7,28.3,3.3
	c9,0.7,12.8-2.4,14.1-11.5C228.5,172.5,228,141.4,227.7,126.5L227.7,126.5z M221.4,185.4c-0.9,6.4-2.3,7.5-8.5,7
	c-6.8-0.5-18.1-2-28-3.2c-10.6-1.4-17.2-2.2-19.4-2.2h-1.3c-0.5,0-1.3,0-2.3,0.1c2-0.8,3.7-1.6,5.3-2.3c3.2-1.4,6.5-2.8,7.4-2.9
	c1.4,0,2.6-1.2,2.6-2.6c0-1.4-1.2-2.6-2.6-2.6c-1.6,0-3.9,1-9.4,3.3c-6.6,2.8-16.5,7.1-27.7,10.1c-8.1,1-16.1,2-21.3,2.4
	c-5.6,0.4-7-0.9-7.9-7c-1.9-13.2-1.3-45.2-1.1-58.9c0.1-3,0.1-5.2,0.1-6.3c0-9.2,2.5-64.5,2.6-66.9c0.1-1.7,0.3-4.1,1.1-4.8
	c0.5-0.4,1.5-0.6,3.1-0.6c0.5,0,1.1,0,1.7,0.1c6.7,0.4,18.6,2,29.1,3.3c5.2,0.7,9.4,1.2,12.7,1.6c-4.7,1.8-8.7,3.6-12,5.1
	c-3,1.4-6.2,2.7-7.1,2.9c-1.4,0-2.6,1.2-2.6,2.6c0,1.4,1.2,2.6,2.6,2.6c1.6,0,3.8-1,9.1-3.3c6.5-2.9,16.2-7.2,27.5-10.2
	c2.8-0.3,6-0.8,9.8-1.3c10.6-1.4,22.6-2.9,29.2-3.3c3.1-0.2,4.3,0.2,4.7,0.6c0.8,0.8,1,3.5,1.1,6.1c0.9,21,2.5,58.3,2.5,65.5
	c0,1.1,0,3.3,0.1,6.3C222.7,140.2,223.3,172.2,221.4,185.4L221.4,185.4z M199.8,126.5"/>
</svg>
