<?xml version="1.0" encoding="utf-8"?>
<!-- Generator: Adobe Illustrator 22.1.0, SVG Export Plug-In . SVG Version: 6.00 Build 0)  -->
<svg version="1.1" id="Warstwa_1" xmlns="http://www.w3.org/2000/svg" xmlns:xlink="http://www.w3.org/1999/xlink" x="0px" y="0px"
	 viewBox="0 0 329 239" style="enable-background:new 0 0 329 239;" xml:space="preserve">
<style type="text/css">
	.st0{fill:#FFFFFF;}
</style>
<path class="st0" d="M266.3,63.7c-9.3-8.9-21.9-14-34.6-14c-8.6,0-17.2,2.3-24.8,6.7l-17.6,10.2c-1.7-3.9-5.6-6.6-10-6.6h-0.4
	c-2.7,0-5.2,1-7.1,2.6c-1.9-1.6-4.4-2.6-7.1-2.6h-0.4c-2.7,0-5.2,1-7.1,2.6c-1.9-1.6-4.4-2.6-7.1-2.6h-0.4c-4.5,0-8.3,2.7-10,6.6
	l-17.6-10.2c-15.6-9-34.1-9-49.7,0c-15.6,9-24.9,25.1-24.9,43c0,13.7,5.4,26.4,15.2,35.8c9.3,8.9,21.9,14,34.6,14
	c8.6,0,17.2-2.3,24.8-6.7l17.6-10.2c1.7,3.9,5.6,6.6,10,6.6h0.4c2.7,0,5.2-1,7.1-2.6c1.9,1.6,4.4,2.6,7.1,2.6h0.4
	c1.1,0,2.2-0.2,3.2-0.5v39.9c0,6,4.9,11,11,11h0.4c6,0,11-4.9,11-11v-45.4l16.7,9.6c7.8,4.5,16.3,6.7,24.9,6.7
	c8.5,0,17.1-2.2,24.9-6.7c15.6-9,24.9-25.1,24.9-43C281.5,85.8,276.1,73.1,266.3,63.7L266.3,63.7z M190.2,97.2l32.2,18.5
	c3,1.7,6.1,2.6,9.3,2.6h0c4.7,0,9.7-2,13.2-5.4c3.7-3.5,5.6-8.2,5.6-13.4c0-12.9-11.2-18.8-18.8-18.8c-3.3,0-6.3,0.8-9.3,2.6L202,95
	l-7.7-4.4l24.3-14c4.2-2.4,8.6-3.6,13.2-3.6c12.8,0,26.5,10.1,26.5,26.5c0,7.3-2.8,14-8,19c-5,4.8-11.7,7.5-18.5,7.5
	c-4.6,0-9-1.2-13.2-3.6l-28.3-16.4V97.2z M209.8,99.5l16.5-9.5c1.8-1.1,3.5-1.5,5.4-1.5c3.5,0,11.1,2.8,11.1,11.1
	c0,3.1-1.1,5.8-3.2,7.8c-2.1,2-5.1,3.2-7.8,3.2h0c-1.9,0-3.6-0.5-5.4-1.5L209.8,99.5z M127,95l-20.4-11.8c-3-1.7-6.1-2.6-9.3-2.6
	c-7.6,0-18.8,6-18.8,18.8c0,12.8,11.2,18.8,18.8,18.8c3.3,0,6.3-0.8,9.3-2.6l32.2-18.6v8.9l-28.3,16.4c-4.2,2.4-8.6,3.6-13.2,3.6
	c-12.8,0-26.5-10.1-26.5-26.5C70.7,83.1,84.5,73,97.3,73c4.6,0,9,1.2,13.2,3.6l24.2,14L127,95z M102.7,109c-1.8,1.1-3.5,1.5-5.4,1.5
	c-3.5,0-11.1-2.8-11.1-11.1c0-8.3,7.6-11.1,11.1-11.1c1.9,0,3.6,0.5,5.4,1.5l16.5,9.5L102.7,109z M118.2,135.8
	c-6.5,3.8-13.6,5.7-20.9,5.7c-10.7,0-21.4-4.3-29.2-11.8c-8.2-7.9-12.8-18.6-12.8-30.2c0-15.2,7.8-28.7,21-36.3
	c13.1-7.6,28.8-7.6,41.9,0l20.6,11.9V84l-24.4-14.1c-5.4-3.1-11.1-4.7-17-4.7C80.8,65.2,63,78.3,63,99.5c0,21.2,17.8,34.3,34.3,34.3
	c6,0,11.7-1.6,17-4.7l24.4-14.1v8.9L118.2,135.8z M150.1,131.1h-0.4c-1.8,0-3.2-1.4-3.2-3.2V71.1c0-1.8,1.4-3.2,3.2-3.2h0.4
	c1.8,0,3.2,1.4,3.2,3.2v56.9C153.3,129.7,151.9,131.1,150.1,131.1L150.1,131.1z M164.7,131.1h-0.4c-1.8,0-3.2-1.4-3.2-3.2V71.1
	c0-1.8,1.4-3.2,3.2-3.2h0.4c1.8,0,3.2,1.4,3.2,3.2v56.9C167.9,129.7,166.5,131.1,164.7,131.1L164.7,131.1z M182.5,178.3
	c0,1.8-1.4,3.2-3.2,3.2h-0.4c-1.8,0-3.2-1.4-3.2-3.2V71.1c0-1.8,1.4-3.2,3.2-3.2h0.4c1.8,0,3.2,1.4,3.2,3.2V178.3z M252.8,135.8
	c-13.1,7.6-28.8,7.6-41.9,0l-20.6-11.9V115l24.4,14.1c5.4,3.1,11.1,4.7,17.1,4.7c8.8,0,17.5-3.5,23.9-9.7
	c6.7-6.4,10.4-15.2,10.4-24.6c0-21.2-17.8-34.3-34.3-34.3c-6,0-11.7,1.6-17.1,4.7L190.2,84v-8.9l20.6-11.9
	c6.5-3.8,13.6-5.7,20.9-5.7c10.7,0,21.4,4.3,29.2,11.8c8.2,7.9,12.8,18.6,12.8,30.2C273.7,114.7,265.9,128.2,252.8,135.8
	L252.8,135.8z M252.8,135.8"/>
</svg>
