<?xml version="1.0" encoding="utf-8"?>
<!-- Generator: Adobe Illustrator 22.1.0, SVG Export Plug-In . SVG Version: 6.00 Build 0)  -->
<svg version="1.1" id="Warstwa_1" xmlns="http://www.w3.org/2000/svg" xmlns:xlink="http://www.w3.org/1999/xlink" x="0px" y="0px"
	 viewBox="0 0 329 239" style="enable-background:new 0 0 329 239;" xml:space="preserve">
<style type="text/css">
	.st0{fill:#FFFFFF;}
</style>
<g>
	<path class="st0" d="M270,91.9H59c-1.8,0-3.3-1.5-3.3-3.3V65.9c0-1.8,1.5-3.3,3.3-3.3h211c1.8,0,3.3,1.5,3.3,3.3v22.6
		C273.3,90.4,271.9,91.9,270,91.9L270,91.9z M62.3,85.3h204.5v-16H62.3V85.3z"/>
	<path class="st0" d="M76.3,202h-9.7c-1,0-1.9-0.4-2.5-1.2c-0.7-0.8-0.9-1.8-0.7-2.7L82.8,88c0.3-1.6,1.6-2.7,3.2-2.7h22.6
		c1,0,2,0.5,2.6,1.3s0.8,1.9,0.5,2.9L79.5,199.6C79.1,201,77.8,202,76.3,202L76.3,202z M70.6,195.4h3.3l30.4-103.5H88.8L70.6,195.4z
		"/>
	<path class="st0" d="M256.6,202H247c-1.4,0-2.7-1-3.2-2.4L211.5,89.5c-0.3-1-0.1-2.1,0.5-2.9s1.6-1.3,2.6-1.3h22.6
		c1.6,0,3,1.1,3.2,2.7l19.4,110.1c0.2,1-0.1,1.9-0.7,2.7C258.6,201.6,257.6,202,256.6,202L256.6,202z M249.4,195.4h3.3L234.5,91.9
		h-15.4L249.4,195.4z"/>
	<path class="st0" d="M221,113.5H102.3c-1.8,0-3.3-1.5-3.3-3.3s1.5-3.3,3.3-3.3H221c1.8,0,3.3,1.5,3.3,3.3S222.8,113.5,221,113.5
		L221,113.5z"/>
</g>
</svg>
