<?xml version="1.0" encoding="utf-8"?>
<!-- Generator: Adobe Illustrator 22.1.0, SVG Export Plug-In . SVG Version: 6.00 Build 0)  -->
<svg version="1.1" id="Warstwa_1" xmlns="http://www.w3.org/2000/svg" xmlns:xlink="http://www.w3.org/1999/xlink" x="0px" y="0px"
	 viewBox="0 0 400 400" style="enable-background:new 0 0 400 400;" xml:space="preserve">
<style type="text/css">
	.st0{fill:#FFFFFF;}
</style>
<path class="st0" d="M299.3,282.3c0-0.1,0-0.2,0-0.3c0-0.2,0.1-0.5,0.1-0.7c0-0.1,0-0.2,0-0.3c0-0.2,0-0.3,0-0.5c0-0.1,0-0.2,0-0.3
	c0-0.1,0-0.3,0-0.4c0-0.1,0-0.2-0.1-0.3c0-0.1-0.1-0.3-0.1-0.4c0-0.1-0.1-0.2-0.1-0.3c0-0.1-0.1-0.3-0.1-0.4c0-0.1-0.1-0.2-0.1-0.3
	c-0.1-0.1-0.1-0.3-0.2-0.4c0-0.1-0.1-0.2-0.1-0.3c-0.1-0.1-0.1-0.2-0.2-0.4c-0.1-0.1-0.1-0.2-0.2-0.3c-0.1-0.1-0.2-0.2-0.2-0.4
	c-0.1-0.1-0.1-0.2-0.2-0.3c-0.1-0.1-0.2-0.2-0.3-0.3c-0.1-0.1-0.1-0.2-0.2-0.3c-0.1-0.1-0.2-0.2-0.3-0.3c-0.1-0.1-0.2-0.2-0.3-0.2
	c-0.1-0.1-0.2-0.2-0.3-0.2c-0.2-0.2-0.4-0.3-0.7-0.5c-0.1-0.1-0.2-0.1-0.3-0.2c-0.1-0.1-0.2-0.1-0.4-0.2c-0.1-0.1-0.2-0.1-0.3-0.2
	l-0.1,0c0,0,0,0,0,0c-2.3-1.1-5.1-2.3-8.2-3.4c-35.5-17.1-38.9-56.2-38.6-73c0.4-25.7,6.2-45.2,31-58.8c7.1-1.9,12.7-4.9,16.7-7.5
	c0,0,0,0,0,0c0.1,0,0.2-0.1,0.2-0.1c0.1,0,0.1-0.1,0.2-0.1c0.1-0.1,0.2-0.1,0.3-0.2c0.1-0.1,0.2-0.2,0.3-0.2
	c0.1-0.1,0.2-0.2,0.3-0.2c0.2-0.2,0.3-0.3,0.5-0.5c0.1-0.1,0.1-0.1,0.1-0.2c0.1-0.1,0.2-0.3,0.3-0.4c0.1-0.1,0.1-0.1,0.1-0.2
	c0.1-0.1,0.2-0.3,0.3-0.4c0-0.1,0.1-0.2,0.1-0.2c0.1-0.1,0.1-0.3,0.2-0.4c0-0.1,0.1-0.2,0.1-0.3c0.1-0.1,0.1-0.3,0.2-0.4
	c0-0.1,0.1-0.2,0.1-0.3c0-0.1,0.1-0.3,0.1-0.4c0-0.1,0.1-0.2,0.1-0.3c0-0.2,0.1-0.4,0.1-0.6c0-0.1,0-0.2,0-0.3c0-0.2,0-0.3,0-0.5
	c0-0.1,0-0.2,0-0.3c0-0.1,0-0.3,0-0.4c0-0.1,0-0.2,0-0.3c0-0.1,0-0.3,0-0.4c0-0.1,0-0.2,0-0.3c0-0.2-0.1-0.3-0.1-0.5
	c0-0.1,0-0.2-0.1-0.3c-0.1-0.2-0.1-0.4-0.2-0.6c0,0,0-0.1,0-0.1c0,0,0,0,0,0c0,0,0,0,0,0c-3.5-9.4-10.7-23-25.3-34.9
	C255,71.2,234.1,67,223.3,65.8c-1.5-0.2-2.9,0.1-4.3,0.7c-3.2,1.4-7.6,3-13,4c2.2-4.1,5.9-9,10.7-11.1c4.6-2,10.1-1.5,16.5,1.6
	c4.1,1.9,8.9,0.3,10.9-3.8c2-4,0.3-8.9-3.8-10.8c-10.9-5.2-21.1-5.8-30.2-1.8c-14.7,6.4-20.9,22.9-22.1,26.4
	c-6.5-0.9-11.8-2.8-15.5-4.4c-1.5-0.7-3.2-0.9-4.9-0.6c-11.1,2.1-32.3,8.1-49.3,25.4c-8.5,8.7-14.7,18.9-18.4,30.3
	c0,0.1,0,0.2-0.1,0.3c0,0.1-0.1,0.2-0.1,0.3c0,0.1-0.1,0.3-0.1,0.4c0,0.1,0,0.2-0.1,0.3c0,0.1,0,0.3,0,0.4c0,0.1,0,0.2,0,0.3
	c0,0.2,0,0.4,0,0.6c0,0.1,0,0.3,0,0.4c0,0.2,0,0.4,0.1,0.5c0,0.1,0,0.2,0.1,0.3c0,0.1,0.1,0.3,0.1,0.4c0,0.1,0.1,0.2,0.1,0.3
	c0,0.1,0.1,0.3,0.1,0.4c0,0.1,0.1,0.2,0.1,0.3c0.1,0.1,0.1,0.3,0.2,0.4c0,0.1,0.1,0.2,0.1,0.3c0.1,0.1,0.1,0.3,0.2,0.4
	c0,0.1,0.1,0.2,0.2,0.3c0.1,0.1,0.2,0.2,0.2,0.4c0.1,0.1,0.1,0.2,0.2,0.3c0.1,0.1,0.2,0.2,0.3,0.3c0.1,0.1,0.1,0.2,0.2,0.2
	c0.1,0.1,0.2,0.2,0.3,0.3c0.1,0.1,0.2,0.2,0.2,0.2c0.1,0.1,0.2,0.2,0.3,0.3c0.1,0.1,0.2,0.1,0.3,0.2c0.1,0.1,0.3,0.2,0.4,0.3
	c0.1,0.1,0.2,0.1,0.3,0.2c0.2,0.1,0.4,0.2,0.6,0.3c0,0,0,0,0,0l0,0c2.5,1.2,5.5,2.5,9.1,3.7c30.6,13.7,37.4,34.2,37.9,62.2
	c0.3,15.9-2.8,51.6-32.9,69.9c-6.3,2-11.3,4.7-15,7.1c-0.1,0-0.1,0.1-0.2,0.1c-0.1,0.1-0.2,0.1-0.3,0.2c-0.1,0.1-0.2,0.2-0.3,0.2
	c-0.1,0.1-0.2,0.2-0.3,0.2c-0.1,0.1-0.2,0.2-0.3,0.3c-0.1,0.1-0.1,0.1-0.2,0.2c-0.2,0.2-0.3,0.4-0.5,0.6c0,0-0.1,0.1-0.1,0.1
	c-0.1,0.1-0.2,0.3-0.3,0.5c0,0.1-0.1,0.1-0.1,0.2c-0.1,0.1-0.2,0.3-0.2,0.4c0,0.1-0.1,0.2-0.1,0.3c-0.1,0.1-0.1,0.3-0.2,0.4
	c0,0.1-0.1,0.2-0.1,0.3c0,0.1-0.1,0.3-0.1,0.4c0,0.1-0.1,0.2-0.1,0.3c0,0.1-0.1,0.3-0.1,0.4c0,0.1,0,0.2-0.1,0.3
	c0,0.2-0.1,0.5-0.1,0.7c0,0.1,0,0.2,0,0.3c0,0.1,0,0.3,0,0.4c0,0.1,0,0.2,0,0.3c0,0.1,0,0.3,0,0.4c0,0.1,0,0.2,0,0.3
	c0,0.1,0,0.3,0.1,0.5c0,0.1,0,0.2,0.1,0.3c0,0.2,0.1,0.3,0.1,0.5c0,0.1,0,0.1,0,0.2c0,0,0,0,0,0c0,0,0,0.1,0,0.1
	c3.5,9.4,10.7,23,25.3,34.9c18.6,15.1,39.5,19.3,50.3,20.5c1.5,0.2,2.9-0.1,4.3-0.7c4.9-2.2,12.9-4.9,22.8-5c0.1,0,0.2,0,0.3,0
	c10.1,0,18.2,2.7,23.2,5c1.1,0.5,2.2,0.7,3.4,0.7c0.5,0,1,0,1.5-0.1c11.1-2.1,32.3-8.1,49.3-25.4c8.5-8.7,14.6-18.8,18.3-30.1
	c0,0,0,0,0,0v0c0-0.1,0-0.1,0.1-0.2c0-0.1,0.1-0.2,0.1-0.3c0-0.1,0.1-0.2,0.1-0.3C299.2,282.6,299.2,282.5,299.3,282.3 M130.2,102.6
	c12.7-13,28.5-18.2,38.1-20.3c8.7,3.6,18.3,5.4,27.9,5.3c9.4-0.1,18.8-1.9,27.4-5.5c9.4,1.3,25.4,5.1,39.6,16.7
	c8.4,6.8,13.7,14.3,17.1,20.8c-2.6,1.1-5,2.3-7.3,3.5c-2.5,0.6-5.1,1-8.1,1.2c-13,0.6-22.6-4.7-26.2-7c-2.5-1.7-5.7-1.8-8.4-0.4
	c-5.7,3-15,6.8-26.8,7.4c-15.6,0.8-27.7-4.3-33.5-7.4c-1.2-0.6-2.5-1-3.9-1c-1.2,0-2.5,0.3-3.6,0.8c-5.4,2.6-14.1,5.8-25.2,5.9
	c-7.1,0-13.2-1.2-18.1-2.7c-0.3-0.1-0.6-0.2-0.9-0.4C121.3,113.3,125.3,107.6,130.2,102.6 M167.6,197c-0.3-20-3.7-41.5-20.7-58.8
	c7.7-1,14.2-3.1,19.2-5.2c8.3,3.8,19.9,7.6,34.2,7.6c1.4,0,2.7,0,4.2-0.1c10.2-0.5,20.3-3,29.5-7.2c4.2,2.3,10,4.7,17.1,6.1
	c-16.1,17.1-19.3,38-19.6,57.6c-0.2,13.6,1.6,33.8,11.6,52.8c3.3,6.2,7.2,11.8,11.6,16.7c-8.8,0.9-16.2,3.1-21.7,5.5
	c-9-4.2-22.2-8.3-38.4-7.5c-10.2,0.5-20.3,3-29.5,7.2c-4.7-2.5-11.4-5.3-19.5-6.6c3.9-4.6,7.4-9.7,10.4-15.4
	C166,230.8,167.8,210.6,167.6,197 M268.9,302.4c-12.7,13-28.5,18.2-38.1,20.3c-8.7-3.6-18.3-5.4-27.9-5.3
	c-9.4,0.1-18.8,1.9-27.4,5.5c-9.4-1.3-25.4-5.1-39.6-16.7c-8.4-6.8-13.7-14.3-17.1-20.8c2.1-1,4.2-2,6.2-3.1
	c2.8-0.7,5.8-1.3,9.2-1.5c13-0.6,22.6,4.7,26.2,7c2.5,1.6,5.7,1.8,8.4,0.4c5.7-3,15-6.8,26.8-7.4c15.6-0.8,27.7,4.3,33.5,7.4
	c2.3,1.2,5.1,1.3,7.5,0.1c5.4-2.6,14.1-5.8,25.2-5.9h0.3c7.2,0,13.4,1.3,18.3,2.9c0.1,0.1,0.2,0.1,0.3,0.2
	C277.8,291.7,273.9,297.4,268.9,302.4"/>
<path class="st0" d="M184.1,210.9c4.5,0,8.2-3.6,8.2-8.1v-16.5c0-4.5-3.7-8.1-8.2-8.1c-4.5,0-8.2,3.6-8.2,8.1v16.5
	C176,207.3,179.6,210.9,184.1,210.9"/>
<path class="st0" d="M212.7,210.9c4.5,0,8.2-3.6,8.2-8.1v-16.5c0-4.5-3.7-8.1-8.2-8.1c-4.5,0-8.2,3.6-8.2,8.1v16.5
	C204.5,207.3,208.2,210.9,212.7,210.9"/>
</svg>
