<?xml version="1.0" encoding="utf-8"?>
<!-- Generator: Adobe Illustrator 22.1.0, SVG Export Plug-In . SVG Version: 6.00 Build 0)  -->
<svg version="1.1" id="Warstwa_1" xmlns="http://www.w3.org/2000/svg" xmlns:xlink="http://www.w3.org/1999/xlink" x="0px" y="0px"
	 viewBox="0 0 329 239" style="enable-background:new 0 0 329 239;" xml:space="preserve">
<style type="text/css">
	.st0{fill:#FFFFFF;}
</style>
<g>
	<path class="st0" d="M225.8,33L206,22c-8.5-4.7-19.2-1.7-23.9,6.8L95.4,184.1c-4.7,8.5-1.7,19.2,6.8,23.9l19.8,11
		c8.5,4.7,19.2,1.7,23.9-6.8l86.7-155.3C237.3,48.4,234.3,37.7,225.8,33z M141.8,210c-3.5,6.2-11.3,8.4-17.5,5l-19.8-11
		c-6.2-3.5-8.4-11.3-5-17.5L186.2,31c3.5-6.2,11.3-8.4,17.5-5l19.8,11c6.2,3.5,8.4,11.3,5,17.5L141.8,210z"/>
	<path class="st0" d="M217.1,48.2c1.2-4.7-0.8-9.7-5.2-12.1s-9.7-1.5-13,2c-4.6-2.2-10.2-0.4-12.7,4.1c-2.6,4.7-0.9,10.6,3.8,13.3
		l17,9.5c4.7,2.6,10.6,0.9,13.3-3.8C222.8,56.6,221.3,50.9,217.1,48.2z M209.3,60.7l-17-9.5c-2.4-1.4-3.3-4.4-1.9-6.9
		c1.4-2.4,4.4-3.3,6.9-1.9l3.2,1.8l1.2-1.9c1.7-2.8,5.3-3.7,8.1-2.1c2.8,1.6,3.9,5.1,2.4,8l-1,2l3.2,1.8c2.4,1.4,3.3,4.4,1.9,6.9
		C214.8,61.2,211.7,62.1,209.3,60.7z"/>
	<path class="st0" d="M195,73.9l-11.7-6.6c-4.2-2.3-9.5-0.8-11.9,3.4L158.9,93c-2.3,4.2-0.8,9.5,3.4,11.9c1.9,1.1,2.6,3.5,1.6,5.5
		l-42.3,75.7c-2.3,4.2-0.8,9.5,3.4,11.9l0.6,0.3c4.2,2.3,9.5,0.8,11.9-3.4l60.9-109.2C200.7,81.6,199.2,76.3,195,73.9z M133.3,192.7
		c-1.1,1.9-3.5,2.6-5.5,1.6l-0.6-0.3c-1.9-1.1-2.6-3.5-1.6-5.5l42.3-75.7c2.3-4.2,0.8-9.5-3.4-11.9c-1.9-1.1-2.6-3.5-1.6-5.5
		L175.5,73c1.1-1.9,3.5-2.6,5.5-1.6l11.7,6.6c1.9,1.1,2.6,3.5,1.6,5.5L133.3,192.7z"/>
</g>
</svg>
