<?xml version="1.0" encoding="utf-8"?>
<!-- Generator: Adobe Illustrator 22.1.0, SVG Export Plug-In . SVG Version: 6.00 Build 0)  -->
<svg version="1.1" id="Warstwa_1" xmlns="http://www.w3.org/2000/svg" xmlns:xlink="http://www.w3.org/1999/xlink" x="0px" y="0px"
	 viewBox="0 0 329 239" style="enable-background:new 0 0 329 239;" xml:space="preserve">
<style type="text/css">
	.st0{fill:#FFFFFF;}
</style>
<g>
	<path class="st0" d="M196.8,59.8c-2,2-3.1,4.7-3.1,7.5c0,5.8,4.7,10.6,10.6,10.6c5.8,0,10.6-4.7,10.6-10.5
		c0-5.8-4.6-10.6-10.5-10.7C201.5,56.7,198.8,57.8,196.8,59.8z M208.9,67.3c0,2.5-2,4.5-4.5,4.5c-2.5,0-4.5-2-4.5-4.5
		c0-2.5,2-4.5,4.5-4.5C206.8,62.8,208.9,64.8,208.9,67.3z"/>
	<path class="st0" d="M252.7,127.9h-9.4c0.9-1.1,1.6-2.3,2.2-3.7c0.5-1.3,1-2.7,1.4-4.1c1.2-3.8,2-7.6,2.4-11.5
		c0.4-3.7-1.5-7.3-4.8-9.1c-0.1-4.6-3.1-8.7-7.6-10l0,0c-1.3-0.5-2.8,0.2-3.2,1.6l-0.3,1.2c-0.4,1.3,0.4,2.7,1.6,3.1l0.1,0
		c1.5,0.5,2.7,1.7,3.2,3.2c-4.2,0.6-7.4,4-7.9,8.1c-0.3,2.7-0.8,5.3-1.6,7.9c-1.3,4.3-3.2,8.4-5.7,12.1c-0.3,0.4-0.4,0.8-0.5,1.2
		h-3.6c-0.8-4.3-2.9-8.3-6.1-11.4l40.6-71.9c1.1-2.1,1.4-4.5,0.7-6.8c-0.7-2.3-2.2-4.2-4.3-5.3c-2.1-1.1-4.6-1.3-6.9-0.6
		c-2.3,0.8-4.2,2.4-5.2,4.6L202,110.8c-5.8-1.1-11.7,0.2-16.4,3.7c0-0.4-0.2-0.8-0.4-1.1c-2.3-6-6.9-10.9-12.7-13.5
		c-0.8-0.3-1.5-0.6-2.3-0.9c1.8-1.8,3.2-3.8,4.4-6.1c0.9,1.4,2,2.7,3.2,3.9c3.9,3.6,9.1,5.6,14.4,5.5c2.1,0,4.1-0.3,6.1-0.9
		c1-0.3,1.8-1.2,2.1-2.2c1.6-7.2-0.6-14.7-5.9-19.8c-5.3-5.1-12.8-7.2-19.9-5.4c-0.6-1.1-1.2-2.2-1.9-3.2c0.6-2.3,0.7-4.6,0.3-7
		c1.4,0.3,2.8,0.4,4.1,0.4c6.7,0,13-3.2,16.9-8.5c4-5.4,5.2-12.3,3.3-18.7c-0.3-1.1-1-1.9-2.1-2.2c-6.3-1.4-12.9,0.1-18,4.2
		c-5,4.1-7.9,10.2-7.9,16.7c-0.6-0.7-1.3-1.4-2-1.9c3.1-7.7,0-16.5-7.3-20.6c-7.2-4.1-16.4-2.2-21.4,4.5c-0.4,0.6-0.8,1.2-1.2,1.8
		c-6.9-2.7-14.8-0.5-19.3,5.4c-1.7,2.3-2.7,4.9-3,7.7c-1.1-0.2-2.3-0.3-3.4-0.3c-9.2,0-16.6,7.5-16.6,16.6c0,0.7,0.1,1.5,0.2,2.2
		c-5.8,1.6-10.3,6.3-11.7,12.2c-1.4,5.9,0.6,12.1,5.2,16.1c-1.7,2.6-2.5,5.7-2.5,8.8c0,7.7,5.3,14.4,12.9,16.2
		c-0.4,1.1-0.6,2.3-0.8,3.5H77.2c-1.7,0-3,1.4-3,3c0,45.1,40.7,81.7,90.8,81.7c50.1,0,90.8-36.7,90.8-81.7
		C255.8,129.2,254.4,127.9,252.7,127.9z M177.1,79.7c8.2-1.5,16,3.9,17.5,12.1l-6.9-6.3l-4.1,4.4l6.9,6.4c-4-0.4-7.7-2.4-10.3-5.5
		C177.8,87.7,176.6,83.7,177.1,79.7z M179.3,45.2c3.2-3.5,7.9-5.2,12.6-4.8c1.4,8.1-4,15.9-12.1,17.4l4.4-4.7
		c1.1-1.2,1.1-3.1-0.1-4.2l0,0c-1.2-1.1-3.1-1.1-4.2,0.1l-4.4,4.7C175.7,50.6,177.1,47.6,179.3,45.2z M234.6,116.4
		c0.9-3,1.5-6,1.9-9.1c0.1-1.6,1.4-2.9,3-3h0.5c0.9-0.1,1.9,0.3,2.5,1.1c0.6,0.7,0.9,1.6,0.8,2.6c-0.4,3.5-1.1,7-2.2,10.4
		c-0.4,1.2-0.8,2.5-1.2,3.7c-0.9,2.4-2.9,4.2-5.3,5c-1.5,0.5-3.2,0.5-4.7,0C231.8,123.6,233.4,120.1,234.6,116.4z M243.2,39
		c0.3-0.7,0.9-1.2,1.7-1.5c0.7-0.2,1.5-0.2,2.2,0.2c0.7,0.3,1.2,1,1.4,1.7c0.2,0.7,0.1,1.5-0.2,2.2l-40.3,71.2L243.2,39z
		 M186.9,121.6c4.6-5.1,12-6.6,18.2-3.5c3.8,2,6.6,5.5,7.6,9.7h-26.5C186.7,125.8,186.9,123.7,186.9,121.6z M180.3,118.5
		c0.6,2.7,0.5,5.5-0.2,8.1l-9.7-4.4L180.3,118.5z M172.6,106.9c2.3,1.5,4.2,3.5,5.5,5.9l-9.9,3.8L172.6,106.9z M169.1,75.9
		c1.5,2.7,2.1,5.8,1.7,8.8v-0.1c-0.7,5-3.4,9.4-7.5,12.3l-1,0.8c-5.9,0.1-11.6,2.3-16,6.3c-2.6-0.2-5.1-1.3-7.1-3l7.1-6.1
		c1.8,1.3,3.9,2.1,6.1,2.2h1.1c6.3,0,11.6-4.8,12.1-11.1c0.2-2.1-0.2-4.3-1.2-6.2L169.1,75.9z M143.8,117l24.2,10.9h-21.2
		c0-0.5,0-1,0-1.5C146.8,123,145.7,119.8,143.8,117z M147.4,112c1.5-2.2,3.5-4.1,5.8-5.4v-0.1l3.8,9.7L147.4,112z M158.9,104.3
		c2.7-0.6,5.5-0.5,8.2,0.2l-4.4,9.7L158.9,104.3z M151.1,90.8l8.1-6.7c0.1,0.5,0.1,1,0,1.5c-0.1,1.6-0.9,3.1-2.1,4.1
		c-1.2,1-2.8,1.5-4.4,1.4C152.1,91.1,151.6,91,151.1,90.8z M123,48.5c3.4-4.4,9.6-5.4,14.3-2.3c0.8,0.5,1.8,0.7,2.7,0.4
		c0.9-0.3,1.6-1,1.9-1.9c0.4-1.2,0.9-2.3,1.6-3.3c3.4-4.5,9.7-5.5,14.4-2.3c4.6,3.2,6,9.4,3,14.2c-0.4,0.7-0.6,1.6-0.4,2.4
		c0.2,0.8,0.7,1.5,1.5,1.9l1.2,0.7c3.6,2.8,5,7.5,3.6,11.8L142,90.6c-0.2-0.3-0.5-0.6-0.8-0.8c1.7-2.7,2.6-5.7,2.5-8.9
		c0-2.6-0.7-5.2-1.9-7.6l6.2-12.1c0.8-1.5,0.2-3.3-1.3-4.1c-1.5-0.8-3.3-0.2-4.1,1.3l-5,9.7c-2.8-2.3-6.3-3.7-10-3.8
		c-1.1-3.8-3.6-7.1-6.9-9.3C120.8,52.7,121.5,50.4,123,48.5z M93.3,112.2c-1.6-3.9-0.8-8.3,2.1-11.4c0.6-0.7,0.9-1.6,0.8-2.5
		c-0.1-0.9-0.7-1.7-1.5-2.2c-4.1-2.3-6.2-7-5.2-11.6c1.1-4.6,5-7.9,9.7-8.1c0.9-0.1,1.8-0.6,2.3-1.4c0.5-0.8,0.6-1.8,0.3-2.7
		c-0.4-1.2-0.7-2.4-0.7-3.6c0-5.9,4.7-10.6,10.6-10.6c1.6,0,3.3,0.4,4.7,1.1c3.2,1.6,5.3,4.8,5.7,8.3c0,0.4,0.2,0.9,0.4,1.3
		c0.7,1.2,1.9,1.7,3.1,1.5c0.5-0.1,0.9-0.1,1.4-0.1c3.5,0,6.8,1.8,8.8,4.7c1.2,1.8,1.8,3.8,1.8,5.9c0,2.8-1.1,5.4-3,7.4
		c-0.6,0.7-0.9,1.6-0.8,2.5c0.1,0.9,0.7,1.7,1.5,2.2c0.7,0.4,1.4,0.9,2,1.5l-4.6,3.9c-0.6,0.5-1,1.3-1.1,2.1
		c-0.1,0.8,0.2,1.6,0.7,2.2c1.8,2.2,4,4,6.4,5.4c-1,1.5-2.4,2.7-3.9,3.5c-1,0.5-1.6,1.5-1.7,2.7c0,1.1,0.6,2.2,1.6,2.7
		c0.8,0.4,1.5,0.8,2.1,1.4c2.4,2,3.8,4.9,3.8,8c0,0.5,0,1,0,1.5h-15.5l-8.2-45.9c-0.3-1.7-1.9-2.8-3.6-2.5c-1.7,0.3-2.8,1.9-2.5,3.6
		l8.1,44.9h-14.7c0.2-1.6,0.8-3.1,1.7-4.4c0.7-0.9,0.8-2.2,0.2-3.2c-0.6-1-1.8-1.6-3-1.5h-0.5C98.6,118.7,94.9,116.1,93.3,112.2z
		 M165,206.6c-45.6,0-82.9-32.3-84.7-72.6h169.5C247.9,174.2,210.6,206.6,165,206.6z"/>
	<path class="st0" d="M188.6,194.4v-0.2c0.5,1.7,2.3,2.6,3.9,2.1c9.9-3.3,19.1-8.4,27.1-15.2c1.3-1.1,1.4-3,0.2-4.3l-0.1-0.1
		c-1.1-1.2-2.9-1.3-4.1-0.2c-7.4,6.3-15.9,11-25.1,14c-1.5,0.5-2.4,2.2-2,3.7L188.6,194.4z"/>
	<path class="st0" d="M215.6,55.1c0.5,1.6,2.1,2.5,3.8,2.1c1.6-0.5,2.5-2.1,2.1-3.8l-0.6-2c-0.5-1.6-2.1-2.5-3.8-2.1l-1.2,0.3
		c-1,0.3-1.5,1.3-1.2,2.2L215.6,55.1z"/>
	<path class="st0" d="M204.3,43.2c1.1,1.2,3.1,1.3,4.3,0.1l1.8-1.7c1.2-1.1,1.3-3.1,0.1-4.3l0,0c-1.1-1.2-3.1-1.3-4.3-0.1l-1.8,1.7
		C203.2,40.1,203.2,42,204.3,43.2L204.3,43.2z"/>
</g>
</svg>
