<?xml version="1.0" encoding="utf-8"?>
<!-- Generator: Adobe Illustrator 22.1.0, SVG Export Plug-In . SVG Version: 6.00 Build 0)  -->
<svg version="1.1" id="Warstwa_1" xmlns="http://www.w3.org/2000/svg" xmlns:xlink="http://www.w3.org/1999/xlink" x="0px" y="0px"
	 viewBox="0 0 329 239" style="enable-background:new 0 0 329 239;" xml:space="preserve">
<style type="text/css">
	.st0{fill:#FFFFFF;}
</style>
<g>
	<path class="st0" d="M273.5,96.2c0,0,0.2,0,0.2,0C273.6,96.2,273.6,96.2,273.5,96.2z"/>
	<path class="st0" d="M274.9,138.9c5.9-1.7,10.3-7.1,10.3-13.6v-4c0.7-0.6,0.4-7.7,0.3-7.6c-0.4-2.3-1.3-4.5-2.7-6.3
		c-1.3-3.5-2.3-3.5-8.3-6.5c-0.4-0.2-6-28.9-6-28.9c0,0,0-0.1,0-0.1c-1.6-6.3-7.2-10.7-13.7-10.7H75c-6.5,0-12.2,4.4-13.7,10.7
		c0,0,0,0.1,0,0.1l-6.9,30.3C48.3,104,44,109.5,44,115.9v9.4c0,6.4,4.3,11.9,10.3,13.6l6.9,30.3c0,0,0,0.1,0,0.1
		c1.6,6.3,7.2,10.7,13.7,10.7h179.7c6.5,0,12.2-4.4,13.7-10.7c0,0,0-0.1,0-0.1L274.9,138.9z M70.3,74.3c0.5-2.1,2.4-3.5,4.6-3.5
		h179.3c2.2,0,4,1.5,4.6,3.5l5.7,25c-0.1,0.9-0.3,1.8-0.4,2.6h-30.9c0.2-0.2,0.4-0.4,0.5-0.7c1.4-2.1,1.3-4.8,1-6.7
		c-0.3-2.3-1.2-4.8-2.4-7c-2.9-5.3-7.3-8.2-12-8c-3.5,0.1-6.5,2.2-8,5.4c-1.7,3.9-0.8,8.4,2.3,12.2c1.6,1.9,3.4,3.5,5.4,4.7H196
		c-2,0-3.8,1.3-4.5,3.2l-2.1,6.2h-49.7l-2.1-6.2c-0.6-1.9-2.4-3.2-4.5-3.2H64L70.3,74.3z M228.8,97.9c-0.1,0.1-0.3,0.4-1.1,0.5
		c-2.4,0.1-6.1-2-8.6-5c-1.7-2-2.2-4.3-1.5-6c0.5-1.2,1.5-1.9,2.8-1.9l0.2,0c3.3,0,5.6,3.5,6.5,5C229,93.5,229.4,97,228.8,97.9z
		 M58.1,130.1c-2.6,0-4.7-2.1-4.7-4.7v-9.4c0-2.6,2.1-4.7,4.7-4.7h71.7l2.1,6.2c0.6,1.9,2.4,3.2,4.5,3.2h56.5c2,0,3.8-1.3,4.5-3.2
		l2.1-6.2h44.4c-1.4,4.6,1.5,7.9,3.1,9.8c0.3,0.4,0.6,0.7,0.9,1c0.9,1.2,0.1,2.8-0.8,3.5c-2.1,1.6-4.1-0.5-4.9-1.5
		c-4.9-6.2-10.7-9.1-15.4-7.7c-3.4,1-5.7,4-6.2,8.3c-0.3,2.3,0.2,4.1,1.1,5.5H58.1z M239.9,130.1H231c-3.8-1.9-5-2.9-4.7-4.8
		c0.1-1.1,0.6-2.9,2-3.3c0.2-0.1,0.5-0.1,0.8-0.1c2.3,0,5.6,2.3,8.4,5.8C238.2,128.7,239.1,129.5,239.9,130.1z M74.9,170.6
		c-2.2,0-4-1.4-4.6-3.5L64,139.5H235c0.1,0.1,0.2,0.2,0.2,0.4c0.3,0.7-0.2,1.6-2,4.1c-2.4,3.3-6.1,8.4-4.3,15.9
		c1.1,4.9,3.8,8.6,7.7,10.8H74.9z M258.8,167c-0.5,2.1-2.4,3.5-4.6,3.5h-0.8c2.4-1.2,4.4-3,5.7-5L258.8,167z M262.2,152.3
		c-2.8,1.9-5.4,5.1-7.7,9.6c-1.6,3.2-6.5,5.3-11.1,4.7c-4.5-0.6-7.6-3.4-8.7-8.1c-1.1-4.9,1.2-8.1,3.4-11.1c1.6-2.2,3.5-4.9,3.2-7.9
		h23.9L262.2,152.3z M271,130.1h-20.3c1.6-1.3,2.8-3.2,3.2-5.1c0.5-2.3,0-4.6-1.4-6.5c-0.4-0.5-0.8-0.9-1.2-1.4
		c-1.8-2-2.3-2.9-1.9-4.2c0.3-0.8,0.7-1.3,1.2-1.6h3.4c0.4,0.1,0.8,0.3,1.2,0.5c3.4,1.7,6.5,1.8,9.1,0.4c0.5-0.2,0.9-0.5,1.3-0.9
		h5.5c0,0,0,0,0,0c0,0,0,0,0,0c0.4,0,0.8,0.1,1.2,0.2c-0.9,1.8-1.4,3.9-1.1,6.1c0.3,1.9,1.5,3.6,3.2,4.8c0.4,0.3,0.8,0.5,1.3,0.7
		v2.4C275.7,128,273.6,130.1,271,130.1z"/>
	<path class="st0" d="M247.9,97.2c1.4,0.6,2.7,0.9,3.9,0.9c1.4,0,2.6-0.4,3.6-1.2c1.7-1.3,2.5-3.6,2.1-6c-0.2-1.4-2-5.9-5.5-7.7
		c-1.8-0.9-3.7-0.9-5.5,0c-2.6,1.4-4.2,3.9-4.1,6.7C242.6,93,244.6,95.8,247.9,97.2z M248.6,87.2l0.7,1.3c0,0,0,0,0.1,0
		c1.1,0.5,2.2,2.8,2.3,3.4c0,0.1,0,0.2,0,0.3c-0.3,0-0.8-0.1-1.5-0.4c-1.1-0.5-1.9-1.3-1.9-2c0-0.6,0.5-1,0.9-1.2L248.6,87.2z"/>
</g>
</svg>
