<?xml version="1.0" encoding="utf-8"?>
<!-- Generator: Adobe Illustrator 22.1.0, SVG Export Plug-In . SVG Version: 6.00 Build 0)  -->
<svg version="1.1" id="Warstwa_1" xmlns="http://www.w3.org/2000/svg" xmlns:xlink="http://www.w3.org/1999/xlink" x="0px" y="0px"
	 viewBox="0 0 400 400" style="enable-background:new 0 0 400 400;" xml:space="preserve">
<style type="text/css">
	.st0{fill:#FFFFFF;}
</style>
<path class="st0" d="M310.8,111.4L310.8,111.4c0-0.1-0.1-0.1-0.1-0.2c0-0.3,0-0.5,0-0.8c0-1.6,0-6.2-10.2-20.6
	c6.6-5.4,10.2-13,10.2-21.5c0-16.4-13-28.8-30.2-28.8h-155c-17.2,0-30.2,12.4-30.2,28.9c0,8.2,3.4,15.6,9.6,21
	c-1,1.1-1.9,2.3-2.9,3.4c-8.2,9.9-9.9,14.3-9.9,17.7c0,1.6,0.2,3.2,0.7,4.7c-4.3,7.1-6.5,15.2-6.5,23.5v157.7
	c0,25,20.4,45.4,45.4,45.4h142.7c25,0,45.4-20.4,45.4-45.4V138.7C319.9,128.8,316.7,119.3,310.8,111.4z M222.3,110.5
	c0,1.2-1,2.1-2.1,2.1s-2.1-1-2.1-2.1c0-7.1-4.5-13.1-10.7-15.4h25.8C226.8,97.4,222.3,103.4,222.3,110.5z M185.3,110.5
	c0,1.2-1,2.1-2.1,2.1c-1.2,0-2.1-1-2.1-2.1c0-7.1-4.5-13.1-10.7-15.4H196C189.8,97.4,185.3,103.4,185.3,110.5z M148.2,110.5
	c0,1.2-1,2.1-2.1,2.1c-1.2,0-2.1-1-2.1-2.1c0-7.1-4.5-13.1-10.7-15.4H159C152.7,97.4,148.2,103.4,148.2,110.5z M287.1,81.5
	c-3,1.4-4.7,4.8-4,8c0.3,1.4,1,2.6,2,3.6c6.3,8.3,10.7,15.8,11.3,17.7c0,0.2-0.1,0.4-0.1,0.6c-0.3,0.8-1.1,1.3-2,1.3
	c-1.2,0-2.1-1-2.1-2.1c0-9-7.4-16.4-16.4-16.4c-9,0-16.4,7.4-16.4,16.4c0,1.2-1,2.1-2.1,2.1c-1.2,0-2.1-1-2.1-2.1
	c0-7.1-4.5-13.1-10.7-15.4h21.8c3.9,0,7.1-3.2,7.1-7.1s-3.2-7.1-7.1-7.1H117.1c-1.6,0-7.5-5.4-7.5-12.4c0-8.3,6.8-14.6,15.9-14.6
	h155c9.1,0,15.9,6.3,15.9,14.6C296.4,74.3,293.3,78.7,287.1,81.5z M121.9,95.1c-6.4,2.3-11.1,8.4-11.1,15.4c0,1.2-1,2.1-2.1,2.1
	c-0.9,0-1.6-0.5-2-1.3c0-0.1-0.1-0.2-0.1-0.4c0.9-2,5.4-8.2,12.4-15.9H121.9z M125.1,110.5c0-1,1.2-2.1,2.5-2.1c1.2,0,2.1,1,2.1,2.1
	c0,9,7.4,16.4,16.4,16.4c9,0,16.4-7.3,16.4-16.4c0-1.2,1-2.1,2.1-2.1c1.2,0,2.1,1,2.1,2.1c0,9,7.4,16.4,16.4,16.4
	c9,0,16.4-7.3,16.4-16.4c0-1.2,1-2.1,2.1-2.1c1.2,0,2.1,1,2.1,2.1c0,9,7.4,16.4,16.4,16.4c9,0,16.4-7.3,16.4-16.4
	c0-1.2,1-2.1,2.1-2.1c1.2,0,2.1,1,2.1,2.1c0,9,7.4,16.4,16.4,16.4c9,0,16.4-7.3,16.4-16.4c0-1.2,1-2.1,2.1-2.1c1.2,0,2.1,1,2.1,2.1
	c0,9,7.3,16.4,16.4,16.4c2.8,0,5.6-0.7,8.1-2.1c2.2,4.3,3.3,9.1,3.3,13.9v157.7c0,17.1-14,31.1-31.1,31.1H131.8
	c-17.2,0-31.1-14-31.1-31.1V138.7c0-4.4,0.9-8.7,2.7-12.7c1.7,0.6,3.5,0.9,5.3,0.9C117.7,126.9,125.1,119.5,125.1,110.5z"/>
</svg>
