<?xml version="1.0" encoding="utf-8"?>
<!-- Generator: Adobe Illustrator 22.1.0, SVG Export Plug-In . SVG Version: 6.00 Build 0)  -->
<svg version="1.1" id="Warstwa_1" xmlns="http://www.w3.org/2000/svg" xmlns:xlink="http://www.w3.org/1999/xlink" x="0px" y="0px"
	 viewBox="0 0 329 239" style="enable-background:new 0 0 329 239;" xml:space="preserve">
<style type="text/css">
	.st0{fill:#FFFFFF;}
</style>
<g>
	<path class="st0" d="M244.8,67c-8.8-15.2-21.4-28-36.4-37.2c-0.8-0.8-5.5-2.8-11.1-5.1l-4.4,23.9l-0.8,1.1c0,0,0-0.1,0-0.1v0
		c-1.2-4.5-6.1-21.6-8.5-30.2c-3.7-1.4-6.3-2.3-6.4-2.3c-7.6-1.7-15.5-2.6-23.3-2.6c-57.9,0-105,47.1-105,105s47.1,105,105,105
		c57.9,0,105-47.1,105-105C258.9,101,254.1,82.9,244.8,67z M153.9,211.7c-50.9,0-92.2-41.4-92.2-92.2s41.4-92.2,92.2-92.2
		c6,0,12,0.6,17.9,1.7c1.2,5.6,3.7,15,5.4,21.2l-2.4,3.6c-0.1-0.1-0.1-0.3-0.2-0.4c-0.9-1.5-2.3-2.5-4-2.9
		c-13.9-3.3-28.4-2.4-41.8,2.6c-3.3,1.2-5,4.9-3.7,8.2c0.9,2.5,3.3,4.1,6,4.1c0.8,0,1.5-0.1,2.2-0.4c11-4.1,22.9-4.8,34.3-2.1
		c0.3,0.1,0.6,0.1,1,0.1l-2.1,3.1c-1,1.5-1.4,3.3-1.1,5.1l3,19.9l-20.2,30.5c-2.1,3.1-1.4,7.3,1.5,9.6c1.3,1,2.9,1.6,4.5,1.6
		c1.9,0,3.8-0.8,5.2-2.2L190.3,99c1.3-1.4,2-3.2,2-5.1V73.7l13.3-17.9c0.7-1,1.2-2.1,1.4-3.3l1.1-7.7c23.9,17.4,38,44.9,38,74.6
		C246.1,170.3,204.7,211.7,153.9,211.7z"/>
	<path class="st0" d="M165.6,178.7c-1.3-1.1-2.9-1.6-4.6-1.4c-0.1,0-0.1,0-0.2,0l0.1,1.6l-0.2-1.6c-4.6,0.5-9.2,0.5-13.7,0
		c-1.7-0.2-3.4,0.3-4.7,1.3c-1.3,1.1-2.2,2.6-2.4,4.3c-0.4,3.5,2.1,6.7,5.6,7.1c2.8,0.3,5.6,0.5,8.4,0.5c2.8,0,5.5-0.2,8.3-0.5
		c3.5-0.3,6.1-3.5,5.7-7C167.8,181.3,167,179.8,165.6,178.7z"/>
	<path class="st0" d="M208.3,73.7c-2.3-2.7-6.3-3.1-9-0.8l0,0c0,0,0,0,0,0l-0.1,0.1c-2.6,2.3-2.9,6.3-0.7,8.9
		c19.3,23,17.8,57.5-3.4,78.7c-2.5,2.5-2.5,6.6,0,9.1c1.2,1.3,2.9,1.9,4.5,1.9c1.6,0,3.3-0.6,4.5-1.9c12.7-12.6,20-29.4,20.8-47.2
		C225.7,104.8,219.8,87.4,208.3,73.7z"/>
	<path class="st0" d="M95.7,119.5L95.7,119.5c0-12.4,3.8-24.2,11.1-34.2c1-1.4,1.5-3.1,1.2-4.7c-0.2-1.7-1.1-3.2-2.5-4.2
		c-1.4-1-3.1-1.5-4.7-1.2c-1.7,0.2-3.2,1.1-4.2,2.5l-0.1,0.1c-20.6,28.4-17.6,67,7.1,91.9c1.2,1.2,2.8,1.9,4.5,1.9c0,0,0,0,0,0
		c1.7,0,3.3-0.7,4.5-1.9c1.2-1.2,1.9-2.8,1.9-4.5s-0.7-3.3-1.9-4.5C101.9,149.8,95.7,134.8,95.7,119.5z"/>
</g>
</svg>
