<?xml version="1.0" encoding="utf-8"?>
<!-- Generator: Adobe Illustrator 22.1.0, SVG Export Plug-In . SVG Version: 6.00 Build 0)  -->
<svg version="1.1" id="Warstwa_1" xmlns="http://www.w3.org/2000/svg" xmlns:xlink="http://www.w3.org/1999/xlink" x="0px" y="0px"
	 viewBox="0 0 329 239" style="enable-background:new 0 0 329 239;" xml:space="preserve">
<style type="text/css">
	.st0{fill:#FFFFFF;}
</style>
<path class="st0" d="M232.2,51.3c-16.4-16.4-38.1-25.4-61.2-25.4c-23.1,0-44.9,9-61.2,25.4c-16.4,16.3-25.4,38-25.4,61.2
	c0,23.1,9,44.9,25.4,61.2s38.1,25.4,61.2,25.4s44.9-9,61.2-25.4c16.4-16.3,25.4-38,25.4-61.2C257.6,89.4,248.6,67.6,232.2,51.3z
	 M244,143.3l-1.2,2.9l-3.4-6.4c-1-1.8-3.2-2.5-5.1-1.5c-0.9,0.5-1.5,1.3-1.8,2.2c-0.3,1-0.2,2,0.3,2.8l5.7,10.5l-0.5,0.7
	c-5.1,8.2-11.6,15.3-19.3,21l-2.5,1.8l0.2-7.1c0-1-0.3-2-1-2.7c-0.7-0.7-1.6-1.1-2.6-1.1c-1.1,0-2,0.3-2.7,1
	c-0.7,0.7-1.1,1.6-1.1,2.6l-0.3,11.9l-0.8,0.4c-8.4,4.5-17.6,7.4-27.2,8.6l-3.1,0.4l3.7-6.1c1.1-1.8,0.5-4.1-1.2-5.2
	c-1.7-1-4.1-0.5-5.1,1.2l-6.1,10.1l-0.9,0c-9.7-0.4-19-2.5-27.8-6.1l-2.9-1.2l6.4-3.4c1.8-1,2.5-3.2,1.5-5.1c-1-1.8-3.3-2.5-5-1.5
	l-10.5,5.7l-0.7-0.5c-8.1-5.1-15.2-11.6-21-19.3l-1.9-2.5l7.2,0.2c2,0,3.6-1.6,3.7-3.7c0-1-0.3-1.9-1-2.7c-0.7-0.7-1.6-1.1-2.6-1.1
	l-11.9-0.3l-0.4-0.8c-4.5-8.4-7.4-17.6-8.6-27.2l-0.4-3.1l6.1,3.7c0.6,0.4,1.3,0.6,1.9,0.6c1.3,0,2.5-0.7,3.2-1.8
	c1-1.7,0.5-4.1-1.2-5.1L92,110.3l0-0.9c0.4-9.7,2.5-19,6.1-27.8l1.2-2.9l3.4,6.4c0.6,1.2,1.9,1.9,3.3,1.9c0.6,0,1.3-0.2,1.8-0.4
	c1.7-1,2.4-3.3,1.5-5L103.6,71l0.5-0.7c5.1-8.1,11.6-15.2,19.3-21l2.5-1.9l-0.2,7.1c0,1,0.3,2,1,2.7c0.7,0.7,1.6,1.1,2.6,1.1
	c2.1,0,3.7-1.6,3.8-3.7l0.3-11.9l0.8-0.4c8.4-4.5,17.6-7.4,27.2-8.6l3.1-0.4l-3.7,6.1c-1.1,1.8-0.5,4.1,1.2,5.2
	c0.6,0.4,1.3,0.6,1.9,0.6c1.3,0,2.5-0.7,3.2-1.8l6.1-10.1l0.9,0c9.7,0.4,19,2.5,27.8,6.1l2.9,1.2l-6.4,3.4c-1.8,1-2.5,3.3-1.5,5
	c0.6,1.2,1.9,1.9,3.3,1.9c0.6,0,1.3-0.2,1.8-0.4l10.4-5.7l0.7,0.5c8.1,5.1,15.2,11.6,21,19.3l1.9,2.5L229,67c-1,0-2,0.3-2.7,1
	c-0.7,0.7-1.1,1.6-1.1,2.6c0,1.1,0.3,2,1,2.7c0.7,0.7,1.6,1.1,2.6,1.1l11.9,0.3l0.4,0.8c4.5,8.4,7.4,17.6,8.6,27.2l0.4,3.1l-6.1-3.7
	c-1.8-1.1-4.1-0.5-5.2,1.2c-1,1.7-0.5,4.1,1.2,5.1l10.1,6.1l0,0.9C249.7,125.1,247.6,134.5,244,143.3z"/>
<path class="st0" d="M171,51.7c-33.5,0-60.8,27.3-60.8,60.8s27.3,60.8,60.8,60.8c33.5,0,60.8-27.3,60.8-60.8S204.5,51.7,171,51.7z
	 M171,165c-28.9,0-52.5-23.6-52.5-52.5c0-28.9,23.6-52.5,52.5-52.5c28.9,0,52.5,23.6,52.5,52.5C223.5,141.4,199.9,165,171,165z"/>
</svg>
