<?xml version="1.0" encoding="utf-8"?>
<!-- Generator: Adobe Illustrator 22.1.0, SVG Export Plug-In . SVG Version: 6.00 Build 0)  -->
<svg version="1.1" id="Warstwa_1" xmlns="http://www.w3.org/2000/svg" xmlns:xlink="http://www.w3.org/1999/xlink" x="0px" y="0px"
	 viewBox="0 0 329 239" style="enable-background:new 0 0 329 239;" xml:space="preserve">
<style type="text/css">
	.st0{fill:#FFFFFF;}
</style>
<g>
	<path class="st0" d="M164,35.5c-52.9,0-96,24.4-96,54.4v60.8c0,30,43.1,54.4,96,54.4h76.8c0.5,0,0.9-0.1,1.3-0.3
		c0.1-0.1,0.2-0.1,0.3-0.2c0.3-0.2,0.6-0.4,0.8-0.6c0,0,0.1-0.1,0.1-0.1c0.1-0.1,0.1-0.2,0.2-0.4c0.1-0.2,0.2-0.4,0.3-0.6
		c0.1-0.2,0.1-0.4,0.1-0.6c0-0.1,0.1-0.3,0.1-0.4c0-0.1,0-0.1,0-0.2c0-0.2-0.1-0.4-0.1-0.6c0-0.2-0.1-0.4-0.2-0.5
		c-0.1-0.2-0.2-0.3-0.3-0.5c-0.1-0.2-0.3-0.3-0.4-0.5c0,0-0.1-0.1-0.1-0.1l-9.6-7.6l9.6-7.6c0.1-0.1,0.2-0.2,0.3-0.3
		c0.1-0.1,0.2-0.1,0.2-0.2c0.1-0.1,0.1-0.2,0.1-0.2c0.1-0.2,0.2-0.4,0.3-0.6c0.1-0.2,0.1-0.4,0.2-0.6c0.1-0.4,0.1-0.8,0-1.2V181
		c10.5-9,16.1-19.4,16.1-30.3c0-0.2,0-0.5,0-0.7c0-0.1,0-0.1,0-0.1V89.9C260,59.9,216.9,35.5,164,35.5L164,35.5z M74.4,150.7v-41.3
		c13.9,20.4,48.8,34.9,89.6,34.9h41.6v54.4H164C114.6,198.7,74.4,177.1,74.4,150.7L74.4,150.7z M226,194.3l5.6,4.4H212v-54.4h19.6
		l-5.6,4.4c-0.8,0.6-1.2,1.5-1.2,2.5c0,1,0.4,1.9,1.2,2.5l9.6,7.6L226,169c-0.8,0.6-1.2,1.5-1.2,2.5c0,1,0.4,1.9,1.2,2.5l9.6,7.6
		l-9.6,7.6c-0.8,0.6-1.2,1.5-1.2,2.5C224.8,192.7,225.2,193.6,226,194.3L226,194.3z M253.6,149.9c0,0.1,0,0.2,0,0.3
		c0,0.2,0,0.4,0,0.6c0,9.1-4.9,18-14.2,25.7l-6.2-4.9l9.6-7.6c0.1-0.1,0.2-0.2,0.3-0.3c0.1-0.1,0.2-0.1,0.2-0.2
		c0.1-0.1,0.1-0.2,0.1-0.2c0.2-0.4,0.4-0.7,0.5-1.1c0.1-0.4,0.1-0.8,0-1.2c0-0.2-0.1-0.4-0.2-0.6c-0.1-0.2-0.2-0.4-0.3-0.6
		c0-0.1-0.1-0.2-0.1-0.2c-0.1-0.1-0.2-0.2-0.3-0.2c-0.1-0.1-0.2-0.2-0.2-0.3l-9.6-7.6l9.6-7.6c0.1,0,0.1-0.1,0.1-0.1
		c0.2-0.2,0.3-0.3,0.4-0.5c0.1-0.2,0.2-0.3,0.3-0.5c0.1-0.2,0.1-0.4,0.2-0.5c0.1-0.2,0.1-0.4,0.1-0.6c0-0.1,0-0.1,0-0.2
		c0-0.1,0-0.3-0.1-0.4c0-0.2-0.1-0.4-0.1-0.6c-0.1-0.2-0.2-0.4-0.3-0.6c-0.1-0.1-0.1-0.2-0.2-0.4c0,0-0.1-0.1-0.1-0.1
		c-0.2-0.2-0.3-0.3-0.5-0.4c-0.2-0.1-0.3-0.2-0.5-0.3c-0.2-0.1-0.4-0.1-0.5-0.2c-0.2-0.1-0.4-0.1-0.7-0.1c-0.1,0-0.1-0.1-0.2-0.1
		h-31.7c20.2-6.1,36.2-16.3,44.5-28.5V149.9z M164,137.9c-49.4,0-89.6-21.5-89.6-48c0-26.5,40.2-48,89.6-48s89.6,21.5,89.6,48
		C253.6,116.3,213.4,137.9,164,137.9L164,137.9z M164,137.9"/>
	<path class="st0" d="M164,61.1c-30.5,0-54.4,12.7-54.4,28.8c0,6.7,4.1,12.7,11,17.5c0.1,0.1,0.3,0.2,0.4,0.3c9.9,6.7,25.3,11,43,11
		c17.7,0,33.2-4.3,43-11c0.2-0.1,0.4-0.3,0.6-0.4c6.8-4.8,10.8-10.8,10.8-17.3C218.4,73.7,194.5,61.1,164,61.1L164,61.1z
		 M131.3,106.1c21.6-4.4,43.8-4.4,65.3,0c-10.4,4.2-21.5,6.3-32.7,6.2C152.8,112.4,141.7,110.3,131.3,106.1L131.3,106.1z
		 M204.8,101.4c-13.3-3.5-27-5.2-40.8-5.2c-13.8-0.1-27.5,1.7-40.8,5.2c-4.1-2.5-6.7-6.8-7.2-11.6c0-12.1,22-22.4,48-22.4
		s48,10.3,48,22.4C211.6,94.6,208.9,98.9,204.8,101.4L204.8,101.4z M204.8,101.4"/>
</g>
</svg>
