<?xml version="1.0" encoding="utf-8"?>
<!-- Generator: Adobe Illustrator 22.1.0, SVG Export Plug-In . SVG Version: 6.00 Build 0)  -->
<svg version="1.1" id="Warstwa_1" xmlns="http://www.w3.org/2000/svg" xmlns:xlink="http://www.w3.org/1999/xlink" x="0px" y="0px"
	 viewBox="0 0 329 239" style="enable-background:new 0 0 329 239;" xml:space="preserve">
<style type="text/css">
	.st0{fill:#FFFFFF;}
</style>
<path class="st0" d="M204,134.3c-1.8-1.8-4.8-1.8-6.6,0l-4.7,4.7c-1.8,1.8-1.8,4.8,0,6.6c0.9,0.9,2.1,1.4,3.3,1.4
	c1.2,0,2.4-0.5,3.3-1.4l4.7-4.7C205.9,139.1,205.9,136.1,204,134.3L204,134.3z M204,134.3"/>
<path class="st0" d="M233.1,162.5c-1.8-1.8-4.8-1.8-6.6,0l-4.7,4.7c-1.8,1.8-1.8,4.8,0,6.6c0.9,0.9,2.1,1.4,3.3,1.4
	c1.2,0,2.4-0.5,3.3-1.4l4.7-4.7C235,167.3,235,164.4,233.1,162.5L233.1,162.5z M233.1,162.5"/>
<path class="st0" d="M207.3,160.9c-1.8-1.8-4.8-1.8-6.6,0l-4.7,4.7c-1.8,1.8-1.8,4.8,0,6.6c0.9,0.9,2.1,1.4,3.3,1.4
	c1.2,0,2.4-0.5,3.3-1.4l4.7-4.7C209.1,165.7,209.1,162.8,207.3,160.9L207.3,160.9z M207.3,160.9"/>
<path class="st0" d="M112.1,195.1c-6.7-3.7-13.3-10-19-18.1c-1.5-2.1-4.4-2.6-6.5-1.1s-2.6,4.4-1.1,6.5c6.6,9.3,14.2,16.6,22.2,20.9
	c0.7,0.4,1.5,0.6,2.3,0.6c1.7,0,3.3-0.9,4.1-2.4C115.2,199.2,114.4,196.4,112.1,195.1L112.1,195.1z M112.1,195.1"/>
<path class="st0" d="M86.6,166.3L86.6,166.3c-1.2-2.4-4.1-3.3-6.4-2.1c-2.3,1.2-3.2,4-2,6.3l0,0.1c0.8,1.6,2.5,2.5,4.2,2.5
	c0.7,0,1.5-0.2,2.1-0.5C86.9,171.5,87.8,168.6,86.6,166.3L86.6,166.3z M86.6,166.3"/>
<path class="st0" d="M80.1,133.6c-2.6,0-4.7,2.1-4.7,4.7v6.6c0,2.6,2.1,4.7,4.7,4.7c2.6,0,4.7-2.1,4.7-4.7v-6.6
	C84.8,135.7,82.7,133.6,80.1,133.6L80.1,133.6z M80.1,133.6"/>
<path class="st0" d="M120.7,134.2c-2.6,0-4.7,2.1-4.7,4.7v6.6c0,2.6,2.1,4.7,4.7,4.7c2.6,0,4.7-2.1,4.7-4.7v-6.6
	C125.4,136.3,123.3,134.2,120.7,134.2L120.7,134.2z M120.7,134.2"/>
<path class="st0" d="M161.2,133.6c-2.6,0-4.7,2.1-4.7,4.7v6.6c0,2.6,2.1,4.7,4.7,4.7c2.6,0,4.7-2.1,4.7-4.7v-6.6
	C165.9,135.7,163.8,133.6,161.2,133.6L161.2,133.6z M161.2,133.6"/>
<path class="st0" d="M101.3,150.1c-2.6,0-4.7,2.1-4.7,4.7v6.6c0,2.6,2.1,4.7,4.7,4.7c2.6,0,4.7-2.1,4.7-4.7v-6.6
	C106,152.2,103.9,150.1,101.3,150.1L101.3,150.1z M101.3,150.1"/>
<path class="st0" d="M141.9,150.7c-2.6,0-4.7,2.1-4.7,4.7v6.6c0,2.6,2.1,4.7,4.7,4.7c2.6,0,4.7-2.1,4.7-4.7v-6.6
	C146.5,152.8,144.4,150.7,141.9,150.7L141.9,150.7z M141.9,150.7"/>
<path class="st0" d="M120.7,169.2c-2.6,0-4.7,2.1-4.7,4.7v6.6c0,2.6,2.1,4.7,4.7,4.7c2.6,0,4.7-2.1,4.7-4.7v-6.6
	C125.4,171.3,123.3,169.2,120.7,169.2L120.7,169.2z M120.7,169.2"/>
<path class="st0" d="M270.7,90.4c1.8,1.8,4.8,1.8,6.6,0c1.8-1.8,1.8-4.8,0-6.6c-4-4-9.6-6-15.7-5.5c-4.3,0.3-8.5,1.9-12.2,4.5
	c-5.4-5-11.3-9.5-17.4-13c-0.1,0-0.1-0.1-0.2-0.1c-1.3-0.8-2.7-1.5-4.1-2.1c-23.3-10.9-47-8-65.6,7.8c-3.7-2.1-7.6-3.9-11.8-5.4
	c-6.4-2.4-15.3-3.9-24.9-4.3c1.9-15.8,13.3-27.9,27.1-27.9c2.6,0,4.7-2.1,4.7-4.7c0-2.6-2.1-4.7-4.7-4.7
	c-18.9,0-34.5,16.3-36.6,37.3c-7.3,0.3-14.6,1.3-21.4,3.1c0,0,0,0,0,0c-1.5,0.4-3,0.9-4.5,1.4c0,0,0,0,0,0
	C78,74.6,67.8,82,60.8,91.3c-7.6,10.1-11.5,22.3-11.5,36.2c0,5.2,0.6,10.9,1.7,16.8c0,0.1,0,0.2,0.1,0.3
	c3.6,18.8,12.4,38.1,24.1,52.9c13.5,17.1,29.7,26.5,45.6,26.5c12.5,0,24.7-5.5,36-16c7.2,2.7,15.2,3.9,23.5,3.9
	c22.4,0,47.2-8.8,65-20.5c0.1,0,0.1-0.1,0.2-0.1c5.3-3.5,10-7.3,13.9-11.2c9.9-9.9,15.8-21.3,17.5-34c1.6-11.7-0.6-24.2-6.2-36.1
	c-2.8-6.1-7.9-13.4-14.3-20.4c2-1.1,4.1-1.8,6.2-2C265.7,87.4,268.7,88.4,270.7,90.4L270.7,90.4z M97.4,77.8
	c7.1-2,15.1-2.8,22.8-2.9c0.2,0,0.3,0,0.5,0c0.2,0,0.3,0,0.5,0c8.8,0,17.3,1.2,23.5,3c0,0,0,0,0.1,0c8.5,3.2,14.2,8.5,17.1,16
	c-8.5-5.1-18.4-8-25.3-8c-2,0-3.7,1.2-4.4,3.1c-0.7,1.9-0.1,3.9,1.4,5.2c1.2,1,5.7,5.1,8.7,12.9c-5.9-5.1-11.5-8.9-19.7-12.1
	c-0.8-0.3-1.6-0.4-2.4-0.3c-7,1.1-13.8,6.8-20.1,12.6c3.3-9.2,7.7-13.8,7.8-13.8c1.4-1.4,1.7-3.4,1-5.2c-0.8-1.8-2.6-2.9-4.5-2.8
	c-0.7,0-12.3,0.7-22.9,4.1C87,82,96.2,78.3,97.4,77.8L97.4,77.8z M120.7,214.7c-27.8,0-53.6-37-60.4-71.6c0-0.1,0-0.2,0-0.3
	c-1.1-5.4-1.6-10.6-1.6-15.3c0-11.5,3.2-21.7,9.3-30c0,0.2-0.1,0.5-0.1,0.7c-0.3,1.9,0.6,3.7,2.2,4.7c1.6,1,3.7,0.9,5.2-0.3
	c4.6-3.4,12.8-5.5,19.6-6.6c-3,5.5-6.1,13.5-7.3,24.1c-0.2,1.8,0.7,3.6,2.2,4.6c1.6,0.9,3.6,0.9,5.1-0.2c2.5-1.7,5.3-4.3,8.5-7.4
	c5.1-4.9,12-11.4,17.2-12.9c10.1,4.2,15.3,9.3,25.4,19.1l0.8,0.7c0.9,0.9,2.1,1.3,3.3,1.3c0.6,0,1.3-0.1,1.9-0.4
	c1.8-0.8,2.8-2.6,2.8-4.5c-0.5-9.7-3.2-17.2-6.2-22.6c6.1,2.2,12.7,5.9,17.1,10.8c1.3,1.5,3.4,2,5.3,1.2c1.8-0.8,3-2.6,2.9-4.6
	c-0.2-3.3-0.6-6.4-1.3-9.4c6.8,8.6,10.4,19.3,10.4,31.5c0,5-0.6,10.4-1.8,16.2c0,0.1,0,0.2,0,0.2c-3.5,17-11.8,35-22.3,48.2
	C147,206.7,133.6,214.7,120.7,214.7L120.7,214.7z M252.6,173.4c-3.5,3.5-7.8,7-12.7,10.2c-0.1,0-0.1,0.1-0.2,0.1
	c-12.3,8.1-27.1,14.1-41.8,17c-12.9,2.5-24.6,2.4-34.2-0.2c0.7-0.9,1.5-1.7,2.2-2.6c11.6-14.6,20.4-33.7,24.2-52.4
	c0-0.1,0-0.2,0-0.3c1.3-6.3,1.9-12.2,1.9-17.8c0-14-3.9-26.2-11.7-36.4c-2.9-3.8-6.3-7.2-10.1-10.2c6.8-5.3,14.4-8.6,22.3-9.8
	c-0.2,0.1-0.4,0.3-0.5,0.4c-1.5,1.1-2.2,3.1-1.7,4.9c0.5,1.8,2,3.2,3.9,3.5c5.6,0.8,12.9,5.2,18.6,9.2c-6,1.8-13.9,5.3-22.2,11.9
	c-1.4,1.1-2.1,3-1.6,4.8c0.4,1.8,1.9,3.1,3.7,3.5c3,0.5,6.8,0.6,11.2,0.8c7.1,0.2,16.5,0.4,21.3,3c4.2,10.1,4.3,17.4,4.4,31.4l0,1.1
	c0,1.9,1.2,3.6,3,4.3c1.8,0.7,3.8,0.2,5.1-1.2c6.5-7.2,9.9-14.4,11.6-20.4c2.7,5.9,4.8,13.1,4.4,19.8c-0.1,2,1,3.8,2.9,4.6
	c0.6,0.2,1.2,0.4,1.8,0.4c1.3,0,2.6-0.5,3.5-1.5c2.2-2.4,4.1-5,5.7-7.5C266.3,154.6,261.3,164.8,252.6,173.4L252.6,173.4z
	 M260.8,111.5C260.8,111.5,260.8,111.5,260.8,111.5c3.8,8.3,4.1,16.1,0.8,23.5c-2.4-9.6-7.3-18.7-12.2-23.5
	c-1.4-1.4-3.5-1.8-5.3-0.9c-1.8,0.8-2.9,2.7-2.7,4.7c0.1,1.6,0.4,7.7-2.9,15.3c-0.5-7.8-1.8-14.4-5.4-22.5c-0.3-0.8-0.9-1.4-1.5-1.9
	c-5.7-4.2-14.6-5-23.1-5.3c8.8-4.1,15.2-4.3,15.3-4.3c1.9,0,3.7-1.2,4.4-3c0.7-1.8,0.2-3.9-1.2-5.2c-0.5-0.5-9.2-8.2-19.1-13.4
	c9.3-1.4,18.4,2.5,19.6,3c6.4,3.7,18.4,14.4,18.5,14.5C246,92.5,257.7,105.7,260.8,111.5L260.8,111.5z M260.8,111.5"/>
</svg>
