<?xml version="1.0" encoding="utf-8"?>
<!-- Generator: Adobe Illustrator 22.1.0, SVG Export Plug-In . SVG Version: 6.00 Build 0)  -->
<svg version="1.1" id="Warstwa_1" xmlns="http://www.w3.org/2000/svg" xmlns:xlink="http://www.w3.org/1999/xlink" x="0px" y="0px"
	 viewBox="0 0 329 239" style="enable-background:new 0 0 329 239;" xml:space="preserve">
<style type="text/css">
	.st0{fill:#FFFFFF;}
</style>
<path class="st0" d="M198.9,27c1.1,0,2.1-0.4,2.9-1.2c0.8-0.8,1.2-1.8,1.2-2.9s-0.4-2.1-1.2-2.9c-0.8-0.8-1.8-1.2-2.9-1.2
	c-1.1,0-2.1,0.4-2.9,1.2c-0.8,0.8-1.2,1.8-1.2,2.9s0.4,2.1,1.2,2.9C196.8,26.5,197.8,27,198.9,27z"/>
<path class="st0" d="M225.8,18.8h-8.3c-2.2,0-4.1,1.8-4.1,4.1s1.8,4.1,4.1,4.1h8.3c21.1,0,38.2,17.1,38.2,38.2v55.3
	c0,15.1-8.9,28.6-22.2,34.7c0.2-1.5,0.2-3.1,0.2-4.6v-18.5c0-2.2-1.8-4.1-4.1-4.1c-2.2,0-4.1,1.8-4.1,4.1v18.5
	c0,15.1-8.9,28.5-22.2,34.7c0.2-1.5,0.2-3.1,0.2-4.6v-55.3c0-25.6-20.8-46.4-46.4-46.4h-55.3c-1.6,0-3.1,0.1-4.6,0.2
	c4.7-10.2,13.7-17.8,24.4-20.8c0.4,0,0.7-0.1,1.1-0.3c3-0.7,6.1-1.1,9.2-1.1h55.3c21.1,0,38.2,17.1,38.2,38.2v7.1
	c0,2.2,1.8,4.1,4.1,4.1c2.2,0,4.1-1.8,4.1-4.1v-7.1c0-25.6-20.8-46.4-46.4-46.4h-55.3c-1.6,0-3.1,0.1-4.6,0.2
	C142,35.8,155.4,27,170.5,27h9.1c2.2,0,4.1-1.8,4.1-4.1s-1.8-4.1-4.1-4.1h-9.1c-20.3,0-38.1,13.2-44.2,32.3
	c-14.1,4.5-25.5,15.6-30.1,30.1c-18.7,6-32.3,23.5-32.3,44.2v55.3c0,25.6,20.8,46.4,46.4,46.4h55.3c20.7,0,38.2-13.6,44.2-32.3
	c14.5-4.6,25.6-16,30.1-30.1c19.1-6.1,32.3-23.9,32.3-44.2V65.2C272.2,39.6,251.4,18.8,225.8,18.8z M165.7,218.9h-55.3
	c-21.1,0-38.2-17.1-38.2-38.2v-55.3c0-17.5,11.8-32.3,27.9-36.8c0.4,0,0.7-0.1,1.1-0.3c3-0.7,6.1-1.1,9.3-1.1h55.3
	c21.1,0,38.2,17.1,38.2,38.2v55.3C203.9,201.7,186.7,218.9,165.7,218.9z"/>
<path class="st0" d="M238,113.6c-1.1,0-2.1,0.4-2.9,1.2s-1.2,1.8-1.2,2.9c0,1.1,0.4,2.1,1.2,2.9c0.8,0.8,1.8,1.2,2.9,1.2
	s2.1-0.4,2.9-1.2c0.8-0.8,1.2-1.8,1.2-2.9c0-1.1-0.4-2.1-1.2-2.9C240.2,114,239.1,113.6,238,113.6z"/>
<path class="st0" d="M96,111.7c-1.9-1.2-4.4-0.7-5.6,1.1c-0.9,1.3-1.7,2.7-2.3,4.2c-0.9,2.1,0.1,4.5,2.1,5.3
	c0.5,0.2,1.1,0.3,1.6,0.3c1.6,0,3.1-0.9,3.7-2.5c0.4-1,1-2,1.6-2.9C98.4,115.4,97.9,112.9,96,111.7z"/>
<path class="st0" d="M95.5,185.7c-0.9-2.1-3.3-3-5.3-2.2c-2.1,0.9-3,3.3-2.2,5.3c0.6,1.5,1.4,2.9,2.3,4.2c0.8,1.2,2.1,1.8,3.4,1.8
	c0.8,0,1.5-0.2,2.2-0.7c1.9-1.2,2.4-3.8,1.2-5.6C96.5,187.7,95.9,186.7,95.5,185.7z"/>
<path class="st0" d="M114.6,196.9h-2.1c-0.5,0-1.1,0-1.6-0.1c-2.2-0.2-4.2,1.5-4.4,3.7c-0.2,2.2,1.5,4.2,3.7,4.4
	c0.7,0.1,1.5,0.1,2.3,0.1h2.1c2.2,0,4.1-1.8,4.1-4.1C118.7,198.8,116.8,196.9,114.6,196.9z"/>
<path class="st0" d="M94.1,167.2v-4.1c0-2.2-1.8-4.1-4.1-4.1s-4.1,1.8-4.1,4.1v4.1c0,2.2,1.8,4.1,4.1,4.1
	C92.3,171.2,94.1,169.4,94.1,167.2z"/>
<path class="st0" d="M181,121.8c0.6,1.7,2.2,2.8,3.9,2.8c0.4,0,0.8-0.1,1.2-0.2c2.1-0.7,3.3-3,2.6-5.1c-0.5-1.5-1.1-3-1.9-4.4
	c-1.1-2-3.5-2.7-5.5-1.7c-2,1.1-2.7,3.5-1.7,5.5C180.3,119.7,180.7,120.8,181,121.8z"/>
<path class="st0" d="M90,146.8c2.2,0,4.1-1.8,4.1-4.1v-4.1c0-2.2-1.8-4.1-4.1-4.1s-4.1,1.8-4.1,4.1v4.1C86,145,87.8,146.8,90,146.8z
	"/>
<path class="st0" d="M114.8,101h-2.3c-0.7,0-1.4,0-2.1,0.1c-2.2,0.2-3.9,2.1-3.7,4.4c0.2,2.1,1.9,3.8,4,3.8c0.1,0,0.2,0,0.3,0
	c0.5,0,1-0.1,1.4-0.1h2.3c2.2,0,4.1-1.8,4.1-4.1S117,101,114.8,101z"/>
<path class="st0" d="M186,161.1c-2.2,0-4.1,1.8-4.1,4.1v4.1c0,2.2,1.8,4.1,4.1,4.1c2.2,0,4.1-1.8,4.1-4.1v-4.1
	C190.1,163,188.2,161.1,186,161.1z"/>
<path class="st0" d="M185.3,185.6c-2-1.1-4.4-0.3-5.5,1.7c-0.5,1-1.1,1.9-1.8,2.8c-1.4,1.8-1.1,4.3,0.6,5.7c0.7,0.6,1.6,0.9,2.5,0.9
	c1.2,0,2.4-0.5,3.2-1.5c1-1.3,1.9-2.6,2.6-4C188,189.1,187.2,186.6,185.3,185.6z"/>
<path class="st0" d="M186,136.7c-2.2,0-4.1,1.8-4.1,4.1v4.1c0,2.2,1.8,4.1,4.1,4.1c2.2,0,4.1-1.8,4.1-4.1v-4.1
	C190.1,138.6,188.2,136.7,186,136.7z"/>
<path class="st0" d="M163.4,196.9h-4.1c-2.2,0-4.1,1.8-4.1,4.1s1.8,4.1,4.1,4.1h4.1c2.2,0,4.1-1.8,4.1-4.1S165.6,196.9,163.4,196.9z
	"/>
<path class="st0" d="M168.1,101.4c-1.5-0.3-3-0.4-4.5-0.4h-4.1c-2.2,0-4.1,1.8-4.1,4.1s1.8,4.1,4.1,4.1h4.1c1.1,0,2.1,0.1,3.1,0.3
	c0.2,0,0.5,0.1,0.7,0.1c1.9,0,3.7-1.4,4-3.4C171.8,103.8,170.3,101.7,168.1,101.4z"/>
<path class="st0" d="M139.2,101h-4.1c-2.2,0-4.1,1.8-4.1,4.1s1.8,4.1,4.1,4.1h4.1c2.2,0,4.1-1.8,4.1-4.1S141.4,101,139.2,101z"/>
<path class="st0" d="M139,196.9h-4.1c-2.2,0-4.1,1.8-4.1,4.1s1.8,4.1,4.1,4.1h4.1c2.2,0,4.1-1.8,4.1-4.1S141.2,196.9,139,196.9z"/>
</svg>
