<?xml version="1.0" encoding="utf-8"?>
<!-- Generator: Adobe Illustrator 22.1.0, SVG Export Plug-In . SVG Version: 6.00 Build 0)  -->
<svg version="1.1" id="Warstwa_1" xmlns="http://www.w3.org/2000/svg" xmlns:xlink="http://www.w3.org/1999/xlink" x="0px" y="0px"
	 viewBox="0 0 329 239" style="enable-background:new 0 0 329 239;" xml:space="preserve">
<style type="text/css">
	.st0{fill:#FFFFFF;}
</style>
<path class="st0" d="M116.1,199.4h97.6c0.7,0,1.5-0.3,2.2-0.8l19.2-16.4c4.9-4.2,7.7-10.3,7.7-16.8c0-1.9-1.4-3.3-3.3-3.3
	s-3.3,1.4-3.3,3.3c0,4.5-2,8.8-5.4,11.9l-13.2,11.2v-35.2c0-22.5,4.9-42.9,9-56.1c0.1-0.5,0.3-1.1,0.5-1.7c0.2-0.5,0.3-1.1,0.5-1.6
	l3.6-13l2.3,13.2c1.9,10.9,2.8,20.4,2.8,28.3v12c0,1.9,1.5,3.3,3.3,3.3s3.3-1.5,3.3-3.3v-12c0-33.2-14.5-75.3-14.6-75.7
	c-0.4-1.1-1.2-1.9-2.3-2.2l-0.3-0.1c-0.4-0.2-0.9-0.3-1.4-0.3H113c-0.8,0-1.8,0.4-2.4,1c-9.2,9.6-15.4,20-19.7,32.9
	c-0.3,1-0.1,2.1,0.5,3c0.6,0.8,1.6,1.4,2.7,1.4H107l-1.8,4.2c-4.2,10-11.3,30.8-11.3,57.4v33.2C93.9,189.4,103.8,199.4,116.1,199.4z
	 M184.5,50.9h31.3l-3.2,4.7c-3.7,5.6-6.4,11.6-9.3,18.4l-0.8,1.8h-34.4l2.3-4.4c4.5-8.6,9.6-15.4,13.1-19.5L184.5,50.9z M158,50.8
	h17.7l-3.3,4.8c-6.8,9.6-15.3,24.9-17.3,42.6l-0.3,2.7h-18.5l0.4-3.4c1.9-14.3,7.2-25.7,11.2-32.7c2.7-4.7,5.8-9,9.2-12.9L158,50.8z
	 M98.6,75.7l2-4.2c3.2-7.2,7.4-13.6,13-19.7l0.9-1h34.7l-3.2,4.7c-4,5.8-7.3,11.9-9.8,18.3l-0.7,1.9H98.6z M100.5,143.9
	c0-29.1,9.2-51.5,13.1-59.8l0.8-1.7h18.7l-0.9,3.7c-1.4,5.6-2.4,11.7-2.8,18c-0.1,1.1,0.5,1.9,0.9,2.5c0.6,0.6,1.4,1,2.4,1h25.2
	c1.8,0,3.2-1.4,3.3-3.2c0.2-6.6,1.5-13.3,3.8-20l0.7-2.1h39.2c1.3,0,2.5-0.8,3-2c0.4-0.9,0.8-1.8,1.1-2.6c2.9-6.7,5.6-13,9.3-18.7
	l4.6-6.9l0.9,8.2c1.2,11.7,0,23.4-3.5,34.9c-3.5,11-9.3,33.2-9.3,58.1v39.5h-94.9c-8.6,0-15.6-7-15.6-15.6V143.9z"/>
<path class="st0" d="M111.2,183.5h89.5v-66.4h-89.5C111.2,117.1,111.2,183.5,111.2,183.5z M117.8,123.7h76.4V177h-76.4V123.7z"/>
</svg>
