<?xml version="1.0" encoding="utf-8"?>
<!-- Generator: Adobe Illustrator 22.1.0, SVG Export Plug-In . SVG Version: 6.00 Build 0)  -->
<svg version="1.1" id="Warstwa_1" xmlns="http://www.w3.org/2000/svg" xmlns:xlink="http://www.w3.org/1999/xlink" x="0px" y="0px"
	 viewBox="0 0 329 239" style="enable-background:new 0 0 329 239;" xml:space="preserve">
<style type="text/css">
	.st0{fill:#FFFFFF;}
</style>
<path class="st0" d="M242.4,74.2h-6.7l-0.3-0.2c-16-12-43.9-19.2-74.7-19.2c-0.1,0-0.3,0-0.4,0c-34.4,0-64.7,8.9-79.2,23.3
	c-5.5,5.5-8.3,11.5-8.3,17.7V158c0,23.1,38.7,41.2,88.1,41.2s88.1-18.1,88.1-41.2v-47.7l0.5-0.3c4.3-2.5,6.9-7,6.9-11.9V87.9
	C256.2,80.3,250,74.2,242.4,74.2z M160.8,62.4c20.6,0,40.3,3.4,55.4,9.7l5,2.1h-6.7c-3.1,0-6.1,1.1-8.5,3l-0.4,0.4l-0.6-0.2
	c-12.6-3.9-28.3-6.1-44.2-6.1c-20.3,0-40.1,3.6-54.4,9.8c-13.5,5.9-17.1,12-17.1,14.8c0,2.7,3.6,8.9,17.1,14.9
	c14,6.2,33.8,9.8,54.4,9.8c19,0,37.9-3.2,51.8-8.8l0.2-0.1h0.2c0.3,0,0.6,0,0.9,0.1c0.2,0,0.4,0,0.6,0h16.3l-3.1,2
	c-15.4,9.8-39.8,15.5-66.9,15.5c-21.8,0-42.2-3.7-57.6-10.5c-14.5-6.4-22.8-14.8-22.8-23C80.5,80,113.5,62.4,160.8,62.4z
	 M202.9,105.6l0.8,1.2l-1.4,0.4c-12.1,3.6-26.9,5.7-41.5,5.7c-19.4,0-38-3.3-51.2-9.1c-4.9-2.2-8.7-4.5-11.3-7L97.5,96l0.8-0.8
	c1.7-1.7,5.1-4.3,11.3-7c13-5.8,31.7-9.1,51.2-9.1c14.2,0,27.9,1.7,39.4,5l1,0.3l-0.2,1c-0.2,0.9-0.3,1.8-0.3,2.7v10.2
	C200.7,100.8,201.4,103.5,202.9,105.6z M241.1,158.1c0,15.9-33,33.5-80.3,33.5c-21.8,0-42.2-3.7-57.6-10.5
	c-14.5-6.4-22.8-14.8-22.8-23v-45l1.8,1.7c14.9,13.8,45,22.3,78.5,22.3c33.5,0,63.6-8.6,78.5-22.3l1.8-1.7V158.1z M248.4,98.1
	c0,3.3-2.8,6-6,6h-28c-3.3,0-6-2.8-6-6V87.9c0-3.3,2.8-6,6-6h28c3.3,0,6,2.8,6,6V98.1z"/>
<path class="st0" d="M169.9,180.9c14.9,0,26.1-7.4,26.1-17.2c0-9.8-11.2-17.2-26.1-17.2c-10.4,0-21.3,7.3-26.8,11.6l-0.7,0.6
	l-9.8-8.6l-5.1,5.9l8.9,7.7l-8.9,7.7l5.1,5.9l9.8-8.4l0.7,0.5C150.1,174.6,160.3,180.9,169.9,180.9z M149.7,162.5
	c5.5-3.9,13.5-8.6,20.2-8.6c11.3,0,18.3,4.9,18.3,9.5c0,4.6-7,9.5-18.3,9.5c-6.8,0-14.7-4.7-20.2-8.6l-1.2-0.9L149.7,162.5z"/>
<rect x="233.5" y="88.7" class="st0" width="7.8" height="8.6"/>
</svg>
