<?xml version="1.0" encoding="utf-8"?>
<!-- Generator: Adobe Illustrator 22.1.0, SVG Export Plug-In . SVG Version: 6.00 Build 0)  -->
<svg version="1.1" id="Warstwa_1" xmlns="http://www.w3.org/2000/svg" xmlns:xlink="http://www.w3.org/1999/xlink" x="0px" y="0px"
	 viewBox="0 0 329 239" style="enable-background:new 0 0 329 239;" xml:space="preserve">
<style type="text/css">
	.st0{fill:#FFFFFF;}
</style>
<g>
	<path class="st0" d="M137.7,127h-24.3V17.8h15c1.9,12.1,12.4,21.4,25.1,21.4c12.7,0,23.2-9.3,25.1-21.4h15v60.8c0,2.2,1.8,4,4,4
		c2.2,0,4-1.8,4-4V67.9l8.5,4.3c0.6,0.3,1.2,0.4,1.8,0.4c1.3,0,2.5-0.6,3.2-1.7l19.1-27c1.2-1.7,0.9-4-0.7-5.3l-33.3-27.8
		c-0.7-0.6-1.6-0.9-2.6-0.9h-88.2c-1,0-1.9,0.4-2.6,0.9L73.6,38.6c-1.6,1.3-1.9,3.7-0.7,5.3l19.1,27c0.8,1.1,2,1.7,3.2,1.7
		c0.6,0,1.2-0.1,1.8-0.4l8.5-4.3V131c0,2.2,1.8,4,4,4h28.3c2.2,0,4-1.8,4-4C141.7,128.8,139.9,127,137.7,127z M201.6,22.3l24,20
		l-15,21.2l-9-4.5V22.3z M170.6,17.8c-1.8,7.7-8.7,13.5-17,13.5c-8.3,0-15.2-5.8-17-13.5H170.6z M105.5,59l-9,4.5l-15-21.2l24-20V59
		z"/>
	<path class="st0" d="M230.3,87.2h-79.8c-2.2,0-4,1.8-4,4v139.9c0,2.2,1.8,4,4,4h30.6c2.1,0,3.9-1.6,4-3.8l5.4-96.8l5.4,96.8
		c0.1,2.1,1.9,3.8,4,3.8h30.6c2.2,0,4-1.8,4-4V91.2C234.3,89,232.5,87.2,230.3,87.2z M174.9,95.1h31v8.9h-31V95.1z M154.5,95.1H167
		v8.9h-12.5V95.1z M226.4,227.1h-22.9l-5.4-97.1c-0.1-2.1-1.9-3.8-4-3.8h-7.5c-2.1,0-3.8,1.6-4,3.8l-5.4,97.1h-22.9V112h71.9V227.1z
		 M226.4,104h-12.5v-8.9h12.5V104z"/>
</g>
</svg>
