<?xml version="1.0" encoding="utf-8"?>
<!-- Generator: Adobe Illustrator 22.1.0, SVG Export Plug-In . SVG Version: 6.00 Build 0)  -->
<svg version="1.1" id="Warstwa_1" xmlns="http://www.w3.org/2000/svg" xmlns:xlink="http://www.w3.org/1999/xlink" x="0px" y="0px"
	 viewBox="0 0 329 239" style="enable-background:new 0 0 329 239;" xml:space="preserve">
<style type="text/css">
	.st0{fill:#FFFFFF;}
</style>
<g>
	<rect x="233.9" y="137.3" class="st0" width="6.6" height="6.6"/>
	<rect x="233.9" y="163.6" class="st0" width="6.6" height="6.6"/>
	<rect x="233.9" y="189.9" class="st0" width="6.6" height="6.6"/>
	<path class="st0" d="M260.2,111h-14.7c-1.7-7.7-5.3-14.8-10.5-20.7c-2.4-2.7-5.2-4.9-8.2-6.4c6-4.2,9.9-11.1,9.9-18.9v-3.3h-16.4
		c-8.4,0-15.7,4.5-19.7,11.2V65c0-7.3,5.9-13.1,13.1-13.1v-6.6c-10.9,0-19.7,8.8-19.7,19.7v18.2c-9.7-3.5-20.7-0.9-27.7,6.9
		c-0.8,0.9-1.6,1.9-2.4,2.9l0.3-1.4c0.5-2.2,0.7-4.5,0.7-6.9c0-9.2-3.8-17.6-10-23.6l11.5-17c0.2-0.4,0.5-0.7,0.7-1.2
		c2.5-5,0.5-11.1-4.6-13.7l-0.8-0.4c-2.4-1.2-5.2-1.4-7.8-0.6c-2.6,0.9-4.7,2.7-5.9,5.2c-0.2,0.4-0.3,0.7-0.5,1.1l-6.7,18.4
		c-0.5-0.1-0.9-0.2-1.4-0.4l2.3-23.2c0-0.3,0.1-0.7,0.1-1c0-5.3-4.3-9.5-9.5-9.5h-0.6c-5.3,0-9.6,4.3-9.6,9.5c0,0.3,0,0.7,0,1
		l2.3,23.3c-0.5,0.1-0.9,0.2-1.4,0.4l-6.7-18.4c-0.1-0.4-0.3-0.7-0.5-1.1c-1.2-2.4-3.3-4.2-5.9-5.1c-2.6-0.9-5.3-0.7-7.8,0.6
		l-0.8,0.4c-5,2.5-7.1,8.6-4.5,13.7c0.2,0.4,0.4,0.8,0.7,1.2l11.5,17c-6.2,6-10,14.4-10,23.8c0,2.2,0.2,4.5,0.7,6.7l4,19.4h-4.7
		c-3.6,0-6.6,2.9-6.6,6.6v0.3c-1.1-0.2-2.2-0.3-3.3-0.3H72.9v3.3c0,7.8,3.9,14.7,9.9,18.9c-3,1.6-5.8,3.7-8.2,6.4
		c-7.5,8.4-11.6,19.3-11.6,30.6c0,12.6,5,24.4,14.1,33.2c8.7,8.3,19.9,12.9,31.9,12.9c0.6,0,1.2,0,1.8,0
		c11.7-0.5,22.3-5.4,30.2-13.1h96.1c9.1,0,16.4-7.4,16.4-16.4v-62.5h6.6c3.6,0,6.6-2.9,6.6-6.6v-6.6C266.8,114,263.9,111,260.2,111
		L260.2,111z M220.3,68.3h9.5c-1.5,7.5-8.2,13.1-16.1,13.1h-9.5C205.7,74,212.3,68.3,220.3,68.3L220.3,68.3z M171.2,94.5
		c5.4-6,14.2-7.9,21.5-4.8c0.4,0.2,0.8,0.3,1.2,0.4v7c-3.3-1.2-6.4-3.8-7.5-4.9l-4.6,4.7c0.8,0.8,7.8,7.5,15.5,7.5
		c7.7,0,14.7-6.8,15.5-7.5l-4.6-4.7c-1.2,1.2-4.3,3.7-7.5,4.9V88h13.1c1.1,0,2.2-0.1,3.3-0.3c4.6,0.3,9.5,2.9,13.1,6.9
		c4.2,4.7,7.1,10.3,8.7,16.3h-76.4C163.9,104.9,166.9,99.3,171.2,94.5L171.2,94.5z M153.8,36.9c0-0.1,0.1-0.2,0.2-0.4
		c0.4-0.9,1.2-1.5,2.1-1.8c0.9-0.3,1.9-0.2,2.8,0.2l0.8,0.4c1.8,0.9,2.5,3.1,1.6,4.8c-0.1,0.1-0.2,0.3-0.2,0.4l-11.2,16.6
		c-0.9-0.6-1.8-1.1-2.7-1.6L153.8,36.9z M128.7,28.5c0-1.6,1.3-3,3-3h0.6c1.6,0,3,1.3,3,3.3L133,51.9c-0.3,0-0.6,0-1,0s-0.6,0-1,0
		L128.7,28.5z M103.1,40.6c-0.1-0.1-0.2-0.3-0.2-0.4c-0.9-1.8-0.2-3.9,1.6-4.8l0.8-0.4c0.9-0.4,1.8-0.5,2.8-0.2
		c0.9,0.3,1.7,0.9,2.1,1.9c0.1,0.1,0.1,0.2,0.2,0.4l6.8,18.6c-0.9,0.5-1.8,1-2.7,1.6L103.1,40.6z M132,58.4
		c14.5,0,26.3,11.8,26.3,26.5c0,1.8-0.2,3.6-0.6,5.4l-4.3,20.7h-36.6c2.3-2,5.3-3.3,8.6-3.3v-6.6c-6.2,0-11.8,2.9-15.4,7.4
		l-3.8-18.2c-0.4-1.8-0.5-3.6-0.5-5.6C105.7,70.2,117.5,58.4,132,58.4L132,58.4z M99.2,117.6h6.9c-0.2,1.1-0.3,2.2-0.3,3.3v3.7
		c-1.9-1.9-4.1-3.5-6.6-4.7V117.6z M89.3,124.2c7.9,0,14.6,5.7,16.1,13.1h-9.5c-7.9,0-14.6-5.7-16.1-13.1H89.3z M110.6,216.2
		c-10.9,0.4-21.1-3.5-28.9-11c-7.8-7.5-12.1-17.6-12.1-28.4c0-9.7,3.5-19,10-26.2c3.6-4,8.5-6.6,13.1-6.9c1.1,0.2,2.2,0.3,3.3,0.3
		h9.9v9.2c-3.3-1.2-6.4-3.8-7.5-4.9l-4.6,4.7c0.8,0.8,7.8,7.5,15.5,7.5c7.7,0,14.7-6.8,15.5-7.5l-4.6-4.7c-1.2,1.2-4.3,3.7-7.5,4.9
		v-6.2c1.6-0.3,3.1-0.7,4.5-1.3c7.3-3.1,16.2-1.2,21.5,4.8c7,7.7,10.5,17.7,10.1,28.2C147.5,198.9,130.9,215.4,110.6,216.2
		L110.6,216.2z M155,176.8c0-6.9-1.5-13.6-4.4-19.7h96.5v19.7H155z M237.2,203.1h-90.5c4-5.8,6.8-12.5,7.9-19.7h92.5v9.9
		C247.1,198.7,242.7,203.1,237.2,203.1L237.2,203.1z M260.2,124.2h-13.1v26.3H146.7c-1.1-1.5-2.2-3-3.5-4.5c-7.3-8.1-19-10.7-29-6.4
		c-0.6,0.3-1.3,0.4-1.9,0.6v-9.4h128.2v-6.6H112.3v-3.3c0-1.1,0.2-2.2,0.5-3.3h147.5V124.2z M260.2,124.2"/>
	<path class="st0" d="M82.7,176.8h-6.6c0,18.1,14.7,32.9,32.9,32.9v-6.6C94.5,203.1,82.7,191.3,82.7,176.8L82.7,176.8z M82.7,176.8"
		/>
	<rect x="141.9" y="71.6" class="st0" width="6.6" height="6.6"/>
	<rect x="141.9" y="84.7" class="st0" width="6.6" height="6.6"/>
	<rect x="141.9" y="97.9" class="st0" width="6.6" height="6.6"/>
</g>
</svg>
