<?xml version="1.0" encoding="utf-8"?>
<!-- Generator: Adobe Illustrator 22.1.0, SVG Export Plug-In . SVG Version: 6.00 Build 0)  -->
<svg version="1.1" id="Warstwa_1" xmlns="http://www.w3.org/2000/svg" xmlns:xlink="http://www.w3.org/1999/xlink" x="0px" y="0px"
	 viewBox="0 0 329 239" style="enable-background:new 0 0 329 239;" xml:space="preserve">
<style type="text/css">
	.st0{fill:#FFFFFF;}
</style>
<g>
	<path class="st0" d="M231.3,171.3c-2,0-3.6,1.6-3.6,3.6s1.6,3.6,3.6,3.6c2,0,3.6-1.6,3.6-3.6S233.3,171.3,231.3,171.3z"/>
	<path class="st0" d="M244.8,158.1c-4.7-4.6-14.7-12.7-28.3-14.7c-1.1-0.2-2.1,0.2-2.9,0.9c-3.5,3.2-10.5,5.5-16.5,5.5
		c-8.6,0-17.6-4.9-21.1-11.4c-0.1-0.1-0.1-0.2-0.2-0.4L151.8,104C137,82.9,119.3,64,99.3,47.8c-1.3-1.1-3.2-1.1-4.5,0
		c-5.6,4.5-10.2,9.8-13.9,15.8c-7,11.7-9.2,25-7,36.1c0,0,0,0.1,0,0.1c0.8,4.1,2.2,7.9,4.2,11.4c6.3,11.3,9.3,23.1,9.3,33.8v44.2
		c0,2,1.6,3.6,3.6,3.6h14.3c2,0,3.6-1.6,3.6-3.6v-39.9c0-8.1,1.9-16.2,5.4-23.4l0.3-0.5c16.9,14.1,30.5,32.1,39.4,52.2
		c4.1,9.3,13.1,15.2,23,15.2h29.3c14.1,0,25.2-0.3,33.5-1.7c4.1-0.7,16.6-2.9,16.6-12.6C256.4,172.9,251.8,164.9,244.8,158.1z
		 M101.8,149.3v36.3h-7.2V145c0-1.1,0-2.2-0.1-3.4c-1.1-19.6-9.6-32.6-11.2-36.1c9.1,4.2,17.7,9.4,25.7,15.4
		C105.2,127.1,101.8,138.1,101.8,149.3z M238.6,184c-7.8,1.3-18.5,1.6-32.3,1.6H177c-7.1,0-13.5-4.3-16.4-11
		c-15.5-35.2-44.1-63.3-79.9-78.1c-1.3-8.8,0.7-19.6,6.4-29.2c2.7-4.5,6-8.5,10-12c18.6,15.4,35,33.1,48.8,52.9l23.8,33.9
		c4.8,8.7,16.2,15,27.3,15c7,0,14.9-2.5,19.9-6.2c10.8,2.1,18.9,8.6,22.9,12.4c6.2,6,9.5,12.2,9.5,15.3
		C249.2,181.5,243.4,183.2,238.6,184z"/>
	<path class="st0" d="M217,171.3H177c-2,0-3.6,1.6-3.6,3.6s1.6,3.6,3.6,3.6H217c2,0,3.6-1.6,3.6-3.6S219,171.3,217,171.3z"/>
</g>
</svg>
