<?xml version="1.0" encoding="utf-8"?>
<!-- Generator: Adobe Illustrator 24.0.2, SVG Export Plug-In . SVG Version: 6.00 Build 0)  -->
<svg version="1.1" id="Warstwa_1" xmlns="http://www.w3.org/2000/svg" xmlns:xlink="http://www.w3.org/1999/xlink" x="0px" y="0px"
	 viewBox="0 0 329 239" style="enable-background:new 0 0 329 239;" xml:space="preserve">
<style type="text/css">
	.st0{fill:#FFFFFF;}
</style>
<path class="st0" d="M140,126.3c-4.7-3.4-9.1-6.7-9.1-15.3c0-1.4-0.7-2.6-1.8-3.3c-0.7-0.4-1.3-0.6-2.2-0.6c-0.7,0-1.2,0.1-1.7,0.3
	c-7.7,3.7-22,20.5-22,36.8c0,13.2,10.7,23.9,23.9,23.9c13.2,0,23.9-10.7,23.9-23.9C150.8,134.4,145.1,130.1,140,126.3z M127.1,160.2
	c-8.8,0-16-7.2-16-16c0-9.7,7-19.1,10-22.6l2.7-3.2l1.8,3.8c2.3,5.1,6.6,8.2,9.7,10.4l0,0c5.1,3.8,7.8,6,7.8,11.7
	C143.1,153,135.9,160.2,127.1,160.2z"/>
<path class="st0" d="M54,221.2h146.1c2.1,0,3.9-1.7,3.9-3.9v-26.6c0-2.1-1.7-3.9-3.9-3.9h-16.6l12.1-16.4c5.5-7.5,8.4-16.5,8.4-25.9
	v-40.3c0-9.3-2.9-18.3-8.4-25.9L184,62.7l3.8-1.1c1.7-0.5,2.9-2,2.9-3.7V38.1c0-2.1-1.7-3.9-3.9-3.9h-22.6V18.1
	c0-2.1-1.7-3.9-3.9-3.9H93.9c-2.1,0-3.9,1.7-3.9,3.9v16H67.5c-2.1,0-3.9,1.7-3.9,3.9v20c0,1.7,1.2,3.2,2.9,3.7l3.8,1.1L58.7,78.3
	c-5.5,7.5-8.4,16.5-8.4,25.9v40.3c0,9.3,2.9,18.3,8.4,25.9l12.1,16.4H54c-2.1,0-3.9,1.7-3.9,3.9v26.6c0,1,0.3,2,1,2.7
	C51.8,220.8,52.9,221.2,54,221.2z M97.7,22.1h58.5v12H97.7V22.1z M71.1,42h111.7v12H71.1V42z M64.9,165.7
	c-4.5-6.2-6.9-13.5-6.9-21.3v-40.3c0-7.6,2.4-14.9,6.9-21.3l15.5-21.1h93.4l15.4,21.1c4.5,6.2,6.9,13.5,6.9,21.3v40.3
	c0,7.6-2.4,14.9-6.9,21.3l-15.5,21.1h-22.9v-9.3c0-2.1-1.7-3.9-3.9-3.9h-39.9c-2.1,0-3.9,1.7-3.9,3.9v9.3H80.4L64.9,165.7z
	 M57.8,194.7h138.2v18.7H57.8V194.7z"/>
</svg>
