<?xml version="1.0" encoding="utf-8"?>
<!-- Generator: Adobe Illustrator 22.1.0, SVG Export Plug-In . SVG Version: 6.00 Build 0)  -->
<svg version="1.1" id="Warstwa_1" xmlns="http://www.w3.org/2000/svg" xmlns:xlink="http://www.w3.org/1999/xlink" x="0px" y="0px"
	 viewBox="0 0 329 239" style="enable-background:new 0 0 329 239;" xml:space="preserve">
<style type="text/css">
	.st0{fill:#FFFFFF;}
</style>
<g>
	<path class="st0" d="M230.3,46.4L218.8,38c-0.5-0.3-1-0.5-1.6-0.5H111.7c-0.6,0-1.2,0.2-1.7,0.6l-10.9,8.3
		c-0.7,0.5-1.1,1.3-1.1,2.2v136.2c0,10.7,8.7,19.5,19.5,19.5H212c10.7,0,19.5-8.7,19.5-19.5V48.6C231.5,47.7,231,46.9,230.3,46.4z
		 M225.9,179.3h-8.3v5.6h8.3c0,7.7-6.2,13.9-13.9,13.9h-94.5c-7.7,0-13.9-6.2-13.9-13.9h8.3v-5.6h-8.3V63.7L115,75.1
		c2.6,2.6,6.1,4.1,9.8,4.1h79.8c3.7,0,7.2-1.5,9.8-4.1l11.5-11.5V179.3z M225.9,55.8l-15.4,15.4c-1.6,1.6-3.7,2.4-5.9,2.4h-79.8
		c-2.2,0-4.3-0.9-5.9-2.4l-15.4-15.4V50l9-6.9h103.7l9.6,7V55.8z"/>
	<path class="st0" d="M170.3,132c12.3,0,22.2-10,22.2-22.2c0-1.5-1.2-2.8-2.8-2.8h-5.6c-3.2,0-6.3,0.7-9.2,2
		c0.5-1.5,0.8-3.2,0.8-4.8c0-8.7-8.7-18.2-9.1-18.6c-0.5-0.5-1.3-0.9-2-0.9s-1.5,0.3-2,0.9c-0.4,0.4-9.1,9.9-9.1,18.6
		c0,1.6,0.3,3.2,0.8,4.8c-2.9-1.3-6-2-9.2-2h-5.6c-1.5,0-2.8,1.2-2.8,2.8c0,12.3,10,22.2,22.2,22.2h2.8v7.6
		c-4.2-4.8-10.3-7.6-16.7-7.6h-5.6c-1.5,0-2.8,1.2-2.8,2.8c0,12.3,10,22.2,22.2,22.2h2.8v7.6c-4.2-4.8-10.3-7.6-16.7-7.6h-5.6
		c-1.5,0-2.8,1.2-2.8,2.8c0,12.3,10,22.2,22.2,22.2h2.8v5.6h-5.6v5.6h16.7v-5.6h-5.6v-5.6h2.8c12.3,0,22.2-10,22.2-22.2
		c0-1.5-1.2-2.8-2.8-2.8h-5.6c-6.4,0-12.5,2.8-16.7,7.6v-7.6h2.8c12.3,0,22.2-10,22.2-22.2c0-1.5-1.2-2.8-2.8-2.8h-5.6
		c-6.4,0-12.5,2.8-16.7,7.6V132H170.3z M159.2,151.5c-8.1,0-15.1-5.9-16.5-13.9h2.5c8.1,0,15.1,5.9,16.5,13.9H159.2z M159.2,176.5
		c-8.1,0-15.1-5.9-16.5-13.9h2.5c8.1,0,15.1,5.9,16.5,13.9H159.2z M184.2,162.6h2.5c-1.4,8-8.3,13.9-16.5,13.9h-2.5
		C169.1,168.5,176.1,162.6,184.2,162.6z M184.2,137.6h2.5c-1.4,8-8.3,13.9-16.5,13.9h-2.5C169.1,143.5,176.1,137.6,184.2,137.6z
		 M184.2,112.6h2.5c-1.4,8-8.3,13.9-16.5,13.9h-2.5C169.1,118.4,176.1,112.6,184.2,112.6z M159.2,126.5c-8.1,0-15.1-5.9-16.5-13.9
		h2.5c8.1,0,15.1,5.9,16.5,13.9H159.2z M164.7,114.4c-3.1-2.6-5.1-6.2-5.6-10.2c0-4.1,3.1-9.1,5.6-12.3c2.4,3.2,5.6,8.3,5.6,12.3
		C169.8,108.2,167.8,111.9,164.7,114.4z"/>
	<rect x="156.4" y="65.3" class="st0" width="16.7" height="5.6"/>
</g>
</svg>
