<?xml version="1.0" encoding="utf-8"?>
<!-- Generator: Adobe Illustrator 22.1.0, SVG Export Plug-In . SVG Version: 6.00 Build 0)  -->
<svg version="1.1" id="Warstwa_1" xmlns="http://www.w3.org/2000/svg" xmlns:xlink="http://www.w3.org/1999/xlink" x="0px" y="0px"
	 viewBox="0 0 329 239" style="enable-background:new 0 0 329 239;" xml:space="preserve">
<style type="text/css">
	.st0{fill:#FFFFFF;}
</style>
<path class="st0" d="M238.1,62.5H236c-1.4-10.4-10.2-18.4-20.9-18.4H215c-1.4-10.4-10.2-18.4-21-18.4h-59c-10.7,0-19.6,8-21,18.4
	H114c-10.7,0-19.6,8-20.9,18.4h-2.1c-4.9,0-8.9,4-8.9,8.9v24.5c0,3.7,2.3,6.9,5.5,8.2c0.1,10.9,0.4,26.1,1.1,38.6
	c0.1,1.5,1.3,2.6,2.7,2.6c0.1,0,0.1,0,0.2,0c1.5-0.1,2.7-1.4,2.6-2.9c-0.7-12.1-1-26.9-1.1-37.7h117.8c1.5,0,2.8-1.2,2.8-2.8
	c0-1.5-1.2-2.8-2.8-2.8h-120c-1.9,0-3.4-1.5-3.4-3.4V71.4c0-1.9,1.5-3.4,3.4-3.4h147.2c1.9,0,3.4,1.5,3.4,3.4v24.5
	c0,1.9-1.5,3.4-3.4,3.4h-17c-1.5,0-2.8,1.2-2.8,2.8c0,1.5,1.2,2.8,2.8,2.8H236c-0.2,18.5-1,41.3-2.2,51.1l-4.3,34.1
	c-0.1,1.1-0.1,2.3,0.2,3.4l2.2,9.6c0.3,1.5-0.1,3.1-1.3,4.2c-1.2,1.1-2.7,1.4-4.2,1l-10.1-3.1c-1-0.3-1.9-0.4-2.9-0.4h-97.6
	c-1,0-2,0.1-2.9,0.4l-10.1,3.1c-1.5,0.5-3.1,0.1-4.2-1c-1.2-1.1-1.6-2.6-1.3-4.2l2.4-10.8c0.1-0.3,0.1-0.7,0.1-1l-4.4-35.4
	c-0.1-0.8-0.2-1.8-0.3-2.8c-0.1-1.5-1.5-2.6-3-2.5c-1.5,0.1-2.6,1.5-2.5,3c0.1,1.1,0.2,2.1,0.3,3l4.4,34.9l-2.3,10.4
	c-0.8,3.5,0.3,7,2.9,9.4c2.6,2.4,6.2,3.2,9.6,2.2l10.1-3.1c0.4-0.1,0.9-0.2,1.3-0.2h97.6c0.4,0,0.9,0.1,1.3,0.2l10.1,3.1
	c1,0.3,2,0.5,3,0.5c2.4,0,4.8-0.9,6.7-2.6c2.6-2.4,3.7-5.9,2.9-9.4l-2.2-9.6c-0.1-0.5-0.1-1-0.1-1.5l4.3-34.1
	c1.3-10.7,2.1-34.2,2.2-52.5c3.2-1.3,5.5-4.5,5.5-8.2V71.4C247,66.5,243,62.5,238.1,62.5L238.1,62.5z M114,49.6h2.7
	c1.5,0,2.8-1.2,2.8-2.8c0-8.6,7-15.6,15.6-15.6h59c8.6,0,15.6,7,15.6,15.6c0,1.5,1.2,2.8,2.8,2.8h2.7c7.7,0,14.1,5.6,15.4,12.9H98.6
	C99.9,55.2,106.3,49.6,114,49.6L114,49.6z M114,49.6"/>
<path class="st0" d="M170.8,141.3c0-4.9-1.3-9.5-4.2-14.4c-0.5-0.8-1.3-1.3-2.2-1.2c-0.9,0-1.7,0.5-2.2,1.3
	c-3.2,5.6-6.7,10-9.9,12.5c-4.3,3.2-8.6,7.7-8.6,16.5c0,11.6,9.4,20.3,20,20.3h0c10.3,0,19.9-7.7,19.9-19.9c0-3.2-0.6-6.2-1.6-8.6
	c-0.4-0.9-1.3-1.5-2.3-1.5c-1,0-1.9,0.5-2.3,1.4c-0.8,1.6-1.2,3.1-1.6,4.3c-0.5,1.3-1.7,2.1-3,2.1c-1.7,0-3.2-1.4-3.2-3.1
	C170.1,148.3,170.8,144.4,170.8,141.3L170.8,141.3z M172.9,159.1c2.2,0,4.2-0.9,5.7-2.3c-0.2,10.5-9.2,14.5-14.9,14.5
	c-8.2,0-14.9-6.8-14.9-15.2c0-6.2,2.6-9.5,6.6-12.5c2.2-1.6,5.3-4.6,8.8-10c1.1,2.6,1.5,5.2,1.5,7.9c0,3.4-1.2,8.7-1.2,9.5
	C164.6,155.4,168.3,159.1,172.9,159.1L172.9,159.1z M172.9,159.1"/>
</svg>
