<?xml version="1.0" encoding="utf-8"?>
<!-- Generator: Adobe Illustrator 22.1.0, SVG Export Plug-In . SVG Version: 6.00 Build 0)  -->
<svg version="1.1" id="Warstwa_1" xmlns="http://www.w3.org/2000/svg" xmlns:xlink="http://www.w3.org/1999/xlink" x="0px" y="0px"
	 viewBox="0 0 329 239" style="enable-background:new 0 0 329 239;" xml:space="preserve">
<style type="text/css">
	.st0{fill:#FFFFFF;}
</style>
<path class="st0" d="M257.3,65.9c6.9-17.9,6.4-31.9-1.5-39.8c-4.2-4.2-10-6.3-17.4-6.3c-22.8,0-57.7,20.2-88.9,51.5
	c-2,2-4,4-5.9,6.1h-30.4c-1.2,0-2.4,0.6-3.1,1.5l-47.3,61.3c-1.1,1.4-1.1,3.3-0.1,4.7c0.7,1.1,1.9,1.6,3.2,1.6
	c0.4,0,0.8-0.1,1.2-0.2l43.8-14.6l1.6,1.6l-3,3c-2,2-3.1,4.6-3.1,7.4c0,2.8,1.1,5.5,3.1,7.4l3.5,3.5l-13.1,13.1
	c-1.9,1.9-3,4.5-3,7.2c0,2.7,1.1,5.3,3,7.2c1.9,1.9,4.5,3,7.2,3s5.3-1.1,7.2-3l13.1-13.1l3.5,3.5c2,2,4.6,3.1,7.4,3.1
	c2.8,0,5.5-1.1,7.4-3.1l3-3l1.6,1.6L135.6,215c-0.5,1.6,0,3.4,1.4,4.4c0.7,0.5,1.5,0.7,2.3,0.7c0.8,0,1.7-0.3,2.4-0.8l61.3-47.3
	c1-0.7,1.5-1.9,1.5-3.1v-30.4c2-1.9,4.1-3.9,6.1-5.9c19.8-19.8,35.6-41.5,44.3-60.9C255.8,69.7,256.6,67.8,257.3,65.9
	C257.3,66,257.3,66,257.3,65.9z M250.3,31.7c5.1,5.1,5.3,15.4,0.7,28.8c-7.6-0.5-14.9-3.8-20.3-9.2c-5.4-5.4-8.7-12.7-9.2-20.3
	c6.2-2.2,11.9-3.3,16.9-3.3C243.6,27.7,247.6,29.1,250.3,31.7z M115.1,85.2h21.4c-11.2,12.9-20.6,26.3-27.3,38.9l-32.5,10.8
	L115.1,85.2z M115,145.7c-1-1-1-2.8,0-3.8l3-3l5.4,5.4l-4.9,4.9L115,145.7z M108.7,176.7c-0.4,0.4-1,0.7-1.7,0.7
	c-0.6,0-1.2-0.2-1.7-0.7c-0.4-0.4-0.7-1-0.7-1.7c0-0.6,0.2-1.2,0.7-1.7 M105.3,173.3l61.5-61.5c0.4-0.4,1-0.7,1.7-0.7
	c0.6,0,1.2,0.2,1.7,0.7c0.9,0.9,0.9,2.4,0,3.3c0,0,0,0,0,0l-61.5,61.5c0,0,0,0,0,0 M140.1,167c-0.5,0.5-1.2,0.8-1.9,0.8
	c-0.7,0-1.4-0.3-1.9-0.8l-3.5-3.5l4.9-4.9l0,0l5.4,5.4L140.1,167z M196.8,166.9l-49.7,38.3l10.8-32.5c12.6-6.7,26-16.1,38.9-27.3
	V166.9z M205.1,127c-16,16-33.5,29.4-49.7,38.2l-1.2-1.2l8.6-8.6c1.5-1.5,1.5-4,0-5.5c-1.5-1.5-4-1.5-5.5,0l-8.6,8.6l-5.4-5.4
	l32.5-32.5c0,0,0.1-0.1,0.1-0.1c0.1-0.1,0.2-0.2,0.3-0.3c0,0,0.1-0.1,0.1-0.1c0.1-0.1,0.2-0.2,0.2-0.3c0,0,0.1-0.1,0.1-0.1
	c0.1-0.1,0.2-0.2,0.2-0.3c0,0,0-0.1,0.1-0.1c0.1-0.1,0.2-0.2,0.2-0.3c0,0,0,0,0,0c0.1-0.1,0.2-0.3,0.2-0.4c0,0,0,0,0,0
	c0.4-0.7,0.7-1.5,1-2.3c0,0,0,0,0-0.1c0-0.1,0.1-0.3,0.1-0.4c0-0.1,0-0.1,0-0.2c0-0.1,0-0.2,0.1-0.3c0-0.1,0-0.3,0.1-0.4
	c0,0,0-0.1,0-0.1c0.1-1,0.1-2,0-3c0,0,0-0.1,0-0.1c0-0.1,0-0.2-0.1-0.4c0-0.1,0-0.2-0.1-0.3c0,0,0-0.1,0-0.1c0-0.1-0.1-0.3-0.1-0.4
	c0,0,0,0,0,0c-0.3-0.9-0.7-1.9-1.2-2.7c0,0,0,0,0,0c-0.1-0.1-0.2-0.2-0.3-0.4c0,0,0,0,0-0.1c-0.1-0.1-0.2-0.2-0.3-0.3
	c0,0,0-0.1-0.1-0.1c-0.1-0.1-0.2-0.2-0.3-0.3c0,0,0-0.1-0.1-0.1c-0.1-0.1-0.2-0.3-0.4-0.4c-0.6-0.6-1.3-1.1-2-1.5
	c-1.6-0.9-3.4-1.4-5.2-1.4l0,0c0,0,0,0,0,0c-2.7,0-5.3,1.1-7.2,3l-32.5,32.5l-5.4-5.4l8.6-8.6c1.5-1.5,1.5-4,0-5.5
	c-1.5-1.5-4-1.5-5.5,0l-8.6,8.6l-1.2-1.2c8.8-16.2,22.3-33.8,38.2-49.7c19.5-19.5,40.8-34.8,58.9-42.8c1.1,8.6,5.1,16.7,11.2,22.8
	c6.2,6.2,14.2,10.1,22.8,11.2c0,0.1-0.1,0.2-0.1,0.3C239.5,87,224.3,107.9,205.1,127z"/>
</svg>
