<?xml version="1.0" encoding="utf-8"?>
<!-- Generator: Adobe Illustrator 22.1.0, SVG Export Plug-In . SVG Version: 6.00 Build 0)  -->
<svg version="1.1" id="Warstwa_1" xmlns="http://www.w3.org/2000/svg" xmlns:xlink="http://www.w3.org/1999/xlink" x="0px" y="0px"
	 viewBox="0 0 329 239" style="enable-background:new 0 0 329 239;" xml:space="preserve">
<style type="text/css">
	.st0{fill:#FFFFFF;}
</style>
<g>
	<path class="st0" d="M76.4,203.8h87.5c2.3,0,4.1-1.8,4.1-4.1v-87.5c0-2.3-1.8-4.1-4.1-4.1H76.4c-2.3,0-4.1,1.8-4.1,4.1v87.5
		C72.3,202,74.1,203.8,76.4,203.8z M159.8,195.7H80.5V154L95.9,141l20.6,30c0.7,1,1.8,1.6,3,1.8c1.2,0.1,2.4-0.3,3.3-1.2l9.5-9.6
		l14.5,16.1c0.8,0.9,1.9,1.4,3,1.4h10V195.7z M80.5,116.4L80.5,116.4h79.3v54.9h-8.2l-16.2-18c-0.7-0.8-1.8-1.3-2.9-1.4
		c-1.1,0-2.2,0.4-3,1.2l-9.1,9.1l-20.3-29.6c-0.7-0.9-1.7-1.6-2.8-1.7c-1.1-0.2-2.3,0.2-3.2,0.9l-13.6,11.5V116.4z"/>
	<path class="st0" d="M139.3,150.1c7.4,0,13.5-6.1,13.5-13.5c0-7.4-6.1-13.5-13.5-13.5c-7.4,0-13.5,6.1-13.5,13.5
		C125.8,144.1,131.8,150.1,139.3,150.1z M139.3,131.3c2.9,0,5.3,2.4,5.3,5.3c0,2.9-2.4,5.3-5.3,5.3c-2.9,0-5.3-2.4-5.3-5.3
		C133.9,133.7,136.3,131.3,139.3,131.3z"/>
	<path class="st0" d="M283.5,96.1L266.9,87l-9.1-16.7c-0.8-1.4-2.3-2.3-3.9-2.3c-1.6,0-3.1,0.9-3.9,2.3L240.8,87l-16.7,9.1
		c-1.4,0.8-2.3,2.3-2.3,3.9c0,1.6,0.9,3.1,2.3,3.9l16.7,9.1l9.1,16.7c0.8,1.4,2.3,2.3,3.9,2.3c1.6,0,3.1-0.9,3.9-2.3l9.1-16.7
		l16.7-9.1c1.4-0.8,2.3-2.3,2.3-3.9C285.8,98.4,284.9,96.9,283.5,96.1z M261.4,105.9c-0.8,0.4-1.4,1-1.8,1.8l-5.8,10.6l-5.8-10.6
		c-0.4-0.8-1-1.4-1.8-1.8l-10.6-5.8l10.6-5.8c0.8-0.4,1.4-1,1.8-1.8l5.8-10.6l5.8,10.6c0.4,0.8,1,1.4,1.8,1.8l10.6,5.8L261.4,105.9z
		"/>
	<path class="st0" d="M220.6,138.1l-10.5-5.7l-5.7-10.5c-0.8-1.4-2.3-2.3-3.9-2.3c-1.6,0-3.1,0.9-3.9,2.3l-5.7,10.5l-7.7,4.2V97.8
		c0-0.3,0-0.5-0.1-0.8l12.5-22.8l25-13.7c1.4-0.8,2.3-2.3,2.3-3.9c0-1.6-0.9-3.1-2.3-3.9l-25-13.7l-13.7-25
		c-0.8-1.4-2.3-2.3-3.9-2.3c-1.6,0-3.1,0.9-3.9,2.3l-13.7,25l-25,13.7c-1.4,0.8-2.3,2.3-2.3,3.9c0,1.6,0.9,3.1,2.3,3.9l25,13.7
		l10.7,19.6H61.2c-2.3,0-4.1,1.8-4.1,4.1v129c0,2.3,1.8,4.1,4.1,4.1H179c2.3,0,4.1-1.8,4.1-4.1v-79.3l7.7,4.2l5.7,10.5
		c0.8,1.4,2.3,2.3,3.9,2.3c1.6,0,3.1-0.9,3.9-2.3l5.7-10.5l10.5-5.7c1.4-0.8,2.3-2.3,2.3-3.9C223,140.4,222.1,138.9,220.6,138.1z
		 M165.7,66.9l-19-10.4l19-10.4c0.8-0.4,1.4-1,1.8-1.8l10.4-19l10.4,19c0.4,0.8,1,1.4,1.8,1.8l19,10.4l-19,10.4
		c-0.8,0.4-1.4,1-1.8,1.8l-10.4,19l-10.4-19C167.1,67.9,166.5,67.3,165.7,66.9z M174.9,222.7H65.3V101.9h109.6V222.7z M204.7,144.4
		c-0.8,0.4-1.4,1-1.8,1.8l-2.4,4.4l-2.4-4.4c-0.4-0.8-1-1.4-1.8-1.8l-4.5-2.4l4.5-2.4c0.8-0.4,1.4-1,1.8-1.8l2.4-4.4l2.4,4.4
		c0.4,0.8,1,1.4,1.8,1.8l4.5,2.4L204.7,144.4z"/>
</g>
</svg>
