<?xml version="1.0" encoding="utf-8"?>
<!-- Generator: Adobe Illustrator 22.1.0, SVG Export Plug-In . SVG Version: 6.00 Build 0)  -->
<svg version="1.1" id="Warstwa_1" xmlns="http://www.w3.org/2000/svg" xmlns:xlink="http://www.w3.org/1999/xlink" x="0px" y="0px"
	 viewBox="0 0 329 239" style="enable-background:new 0 0 329 239;" xml:space="preserve">
<style type="text/css">
	.st0{fill:#FFFFFF;}
</style>
<g>
	<path class="st0" d="M114.7,63.5c-16.4,14.3-25.8,34.9-25.8,56.6c0,41.4,33.7,75,75,75c41.4,0,75-33.7,75-75
		c0-58.6-64-93.6-113.1-64.7c-1.6,0.9-2.1,3-1.2,4.5c0.9,1.6,3,2.1,4.5,1.2c10.5-6.2,22.5-9.4,34.7-9.4c37.7,0,68.4,30.7,68.4,68.4
		c0,37.7-30.7,68.4-68.4,68.4c-30.2,0-55.9-19.7-65-46.9c3.5,6.4,12.2,9.5,19.3,4.8c6.1-4.1,7.8-12.4,3.6-18.6
		c-6.7-9.9-22-6.7-24.2,4.9c-0.2,1.2-0.3,2.4-0.2,3.5c-1.3-5.2-1.9-10.6-1.9-16.2c0-19.8,8.6-38.6,23.5-51.6
		c1.4-1.2,1.5-3.3,0.3-4.7C118.2,62.5,116.1,62.3,114.7,63.5z M110.8,128.6c6.7,0,9.2,8.7,3.8,12.4c-3.1,2.1-7.3,1.3-9.4-1.8
		C102.2,134.6,105.5,128.6,110.8,128.6z"/>
	<path class="st0" d="M265.5,88.2h-11.6c-3-8.4-7.2-16.5-12.6-23.9C196.4,2.1,99.7,15.9,74.1,88.2H63.3c-6.2,0-11.3,5.1-11.3,11.3
		v41.1c0,6.2,5.1,11.3,11.3,11.3h10.7c13.1,36.8,47.7,62.8,88.5,63.5c0,0,0,0,0.1,0c1.8,0,3.3-1.4,3.3-3.3c0-1.8-1.4-3.3-3.3-3.4
		c-49.9-0.8-87.4-41.5-87.4-88.7c0-48.6,39.4-88.8,88.7-88.8c48.6,0,88.8,39.3,88.8,88.7c0,44.5-33.1,82.4-77.3,88.1
		c-1.8,0.2-3.1,1.9-2.9,3.7c0.2,1.8,1.9,3.1,3.7,2.9c32-4.1,59.2-24.2,73-51.8c1.8-3.5,3.3-7.1,4.6-10.8h11.7
		c6.2,0,11.3-5.1,11.3-11.3V99.5C276.8,93.3,271.8,88.2,265.5,88.2z M72,145.4h-8.7c-2.6,0-4.7-2.1-4.7-4.7V99.5
		c0-2.6,2.1-4.7,4.7-4.7H72C67.5,111.6,67.5,129,72,145.4z M270.2,140.7c0,2.6-2.1,4.7-4.7,4.7h-9.6c4.6-16.8,4.5-34.2,0.1-50.6h9.5
		c2.6,0,4.7,2.1,4.7,4.7V140.7z"/>
	<path class="st0" d="M146.1,114.6l20.2,24.1c6.1,7.3,18,3,18-6.6c0-4.8-3.1-7.2-3.8-8.2c-1.2-1.4-3.3-1.6-4.7-0.4
		c-1.4,1.2-1.6,3.3-0.4,4.7l1.4,1.7c1.3,1.5,1,3.8-0.5,5c-1.5,1.3-3.8,1-5-0.5l-20.2-24.1c-1.9-2.3-0.3-5.9,2.7-5.9
		c1.1,0,2.1,0.5,2.8,1.3L167,118c1.2,1.4,3.3,1.6,4.7,0.4c1.4-1.2,1.6-3.3,0.4-4.7l-10.2-12.3c-1.9-2.3-4.8-3.6-7.8-3.6
		C145.4,97.8,140.6,107.9,146.1,114.6z"/>
	<path class="st0" d="M126.4,154c-6.1,6.6-1.1,17.5,8,17.1c2.7-0.1,5.2-1.3,7.1-3.3l15.1-16.5c3.8-4.1,3.5-10.6-0.6-14.4
		c-4.1-3.8-10.6-3.5-14.4,0.6L126.4,154z M151.5,141.7c0.7,0.6,1.1,1.5,1.2,2.5c0.1,2.6-1,2.1-16,19.1c-0.6,0.7-1.5,1.1-2.5,1.2
		c-3.2,0.2-5-3.6-2.8-6l15.1-16.5C147.8,140.5,150,140.4,151.5,141.7z"/>
	<path class="st0" d="M194.4,150.4c-11-4.7-22.1,6.3-17.7,17.3c2.7,6.9,10.5,10.2,17.4,7.5C205.2,170.7,205.2,155,194.4,150.4z
		 M186.4,168.9c-6.6-2.8-4.7-13,2.7-13c2.6,0,5.2,1.6,6.3,4.3C197.6,165.7,191.9,171.3,186.4,168.9z"/>
	<path class="st0" d="M178.7,63.2c-4.2-6.1-12.5-7.7-18.6-3.5c-10.7,7.3-5.7,24.4,7.6,24.4C178.3,84.1,184.8,72.1,178.7,63.2z
		 M162,74.6c-3.4-4.9,0.9-11.6,6.8-10.5c3.7,0.7,6.1,4.2,5.4,7.9C173.1,77.9,165.4,79.5,162,74.6z"/>
	<path class="st0" d="M215.4,91c-2.3-0.9-4.6-1-6.8-0.3c-1.6-2.9-4.5-5-8.1-5.2c-6.1-0.4-11,4.6-10.7,10.4
		c-8,2.1-10.1,12.5-3.5,17.6c-2.1,8.5,7.1,15.4,14.6,11.1c0,2.8-0.4,5.8-2,7.8c-1.1,1.4-0.9,3.5,0.6,4.6c1.4,1.1,3.5,0.9,4.6-0.6
		c3.5-4.5,3.6-10.8,3.2-15.1c7,0.4,12.1-6.3,10.1-12.9C223.8,104,223,94,215.4,91z M212.3,103.6c-2.6,0.5-3.6,3.5-1.9,5.5
		c0.6,0.7,0.9,1.6,0.9,2.5c-0.2,3.1-4.1,4.3-6,1.9c-2-2.5-6.1-0.9-5.9,2.3c0.1,2.1-1.7,3.7-3.6,3.6c-2.6-0.2-4-3.2-2.5-5.3
		c1.3-1.9,0.4-4.5-1.8-5.1c-2.7-0.8-3.4-4.4-1-6c0.8-0.6,1.8-0.8,2.9-0.5c2.9,0.8,5.3-2.4,3.7-5c-1.5-2.3,0.3-5.4,3.1-5.2
		c1.9,0.1,3.3,1.8,3.1,3.7c-0.3,3.2,3.8,4.9,5.9,2.4c1.4-1.8,3.3-1.2,3.9-1C216.2,98.4,215.5,103,212.3,103.6z"/>
	<path class="st0" d="M137.9,73.6c1.6-0.8,2.3-2.8,1.5-4.4c-0.8-1.6-2.8-2.3-4.4-1.5c-4.9,2.5-7.5,7.7-8.9,11.7
		c-5.9-3-13,0.5-14.1,7.1c-2.7,0.5-5.2,2.2-6.7,4.8c-3.6,6.4,0.8,13.5,7.1,14.4c0.5,7.5,8.9,11.6,15.1,7.4c1.6-1.1,2.7-2.5,3.5-4.1
		c7.8,1.4,13.9-6.7,10.4-13.9c5.2-6.4,0.4-16.1-8-15.8C134.3,76.8,135.9,74.6,137.9,73.6z M135.1,91.5c-2,1.1-2.3,3.9-0.6,5.4
		c1.1,1,1.4,2.6,0.7,3.9c-0.9,1.7-3.2,2.1-4.7,0.8c-2.3-2-5.9-0.1-5.5,2.9c0.2,1.2-0.3,2.3-1.3,3c-2.7,1.8-6-1.3-4.4-4.1
		c1.7-2.8-1.3-6.1-4.3-4.7c-1.9,0.9-3.2-0.3-3.6-0.7c-2.2-2.4,0.2-5.9,3.1-5.1c2.5,0.7,4.8-1.7,4-4.1c-0.6-2,1-4.3,3.4-3.9
		c0.5,0.1,2.1,0.4,2.6,2.3c0.7,3.1,5.1,3.5,6.3,0.5c0.3-0.8,1-1.5,1.8-1.8C136.2,84.7,138.4,89.7,135.1,91.5z"/>
</g>
</svg>
