<?xml version="1.0" encoding="utf-8"?>
<!-- Generator: Adobe Illustrator 22.1.0, SVG Export Plug-In . SVG Version: 6.00 Build 0)  -->
<svg version="1.1" id="Warstwa_1" xmlns="http://www.w3.org/2000/svg" xmlns:xlink="http://www.w3.org/1999/xlink" x="0px" y="0px"
	 viewBox="0 0 329 239" style="enable-background:new 0 0 329 239;" xml:space="preserve">
<style type="text/css">
	.st0{fill:#FFFFFF;}
</style>
<g>
	<path class="st0" d="M195.2,162.2l12.8-25.5c1.4-2.8-0.6-6.1-3.8-6.1h-2.8c-2.3,0-4.2-1.9-4.2-4.2v-4.2c0-1.9,1-3.6,2.7-4.6
		c4.7-2.7,7.9-7.8,7.9-13.7c0-4-1.5-7.7-4-10.5c0,0,0,0,0,0c2.5-2.8,4-6.5,4-10.5c0-4-1.5-7.7-4-10.5c0,0,0,0,0,0
		c2.5-2.8,4-6.5,4-10.5c0-7.3-4.9-13.4-11.6-15.3c0,0,0,0,0,0c0.7-1.8,1.1-3.8,1.1-5.8c0-8.7-7.1-16.2-15.8-16.2h-42.2
		c-8.7,0-15.8,7.4-15.8,16.2c0,2.1,0.4,4,1.1,5.8c0,0,0,0,0,0c-6.7,1.8-11.6,8-11.6,15.3c0,4,1.5,7.7,4,10.5c0,0,0,0,0,0
		c-2.5,2.8-4,6.5-4,10.5c0,4,1.5,7.7,4,10.5c0,0,0,0,0,0c-2.5,2.8-4,6.5-4,10.5c0,5.8,3.2,10.9,7.9,13.7c1.6,1,2.7,2.7,2.7,4.6v4.2
		c0,2.3-1.9,4.2-4.2,4.2h-2.8c-3.1,0-5.2,3.3-3.8,6.1l12.8,25.5c0,0,0,0,0,0h8.5c0,0,0,0,0,0v6c0,2.5-2,4.5-4.5,4.5h-1.5
		c-2.5,0-4.5,2-4.5,4.5v1.5c0,2.5,2,4.5,4.5,4.5h1.5c2.5,0,4.5,2,4.5,4.5v12c0,2.5,2,4.5,4.5,4.5h43.7c2.5,0,4.5-2,4.5-4.5v-12
		c0-2.5,2-4.5,4.5-4.5h1.5c2.5,0,4.5-2,4.5-4.5v-1.5c0-2.5-2-4.5-4.5-4.5h-1.5c-2.5,0-4.5-2-4.5-4.5v-6c0,0,0,0,0,0L195.2,162.2
		C195.2,162.2,195.2,162.2,195.2,162.2z M139.2,35h42.2c2.4,0,4.5,1.8,5.1,4.2c1,3.6-1.5,6.7-5.3,6.7h-41.7c-3.8,0-6.3-3-5.3-6.7
		C134.7,36.8,136.8,35,139.2,35L139.2,35z M128.6,56.4h63.1c2.8,0,5.3,2.2,5.4,5c0.1,3-2.3,5.5-5.3,5.5h-63.1c-2.8,0-5.3-2.2-5.4-5
		C123.2,58.9,125.6,56.4,128.6,56.4L128.6,56.4z M128.6,77.5h63.1c2.8,0,5.3,2.2,5.4,5c0.1,3-2.3,5.5-5.3,5.5h-63.1
		c-2.8,0-5.3-2.2-5.4-5C123.2,80,125.6,77.5,128.6,77.5L128.6,77.5z M123.4,103.9c0-2.9,2.4-5.3,5.3-5.3h63.1c2.8,0,5.3,2.2,5.4,5
		c0.1,3-2.3,5.5-5.3,5.5h-5.3c0,0,0,0,0,0v17.2c0,2.3-1.9,4.2-4.2,4.2h-2.1c-2.3,0-4.2-1.9-4.2-4.2v-17.2c0,0,0,0,0,0h-47.4
		C125.7,109.2,123.4,106.8,123.4,103.9L123.4,103.9z M165.5,125v1.4c0,2.3-1.9,4.2-4.2,4.2h-2.1c-2.3,0-4.2-1.9-4.2-4.2V125
		c0-2.9,2.4-5.3,5.3-5.3l0,0C163.2,119.7,165.5,122.1,165.5,125z M144.4,125v1.4c0,2.3-1.9,4.2-4.2,4.2h-2.1c-2.3,0-4.2-1.9-4.2-4.2
		V125c0-2.9,2.4-5.3,5.3-5.3h0C142.1,119.7,144.4,122.1,144.4,125z M171.6,193.9H149c-2.5,0-4.5-2-4.5-4.5v-1.5c0-2.5,2-4.5,4.5-4.5
		h22.6c2.5,0,4.5,2,4.5,4.5v1.5C176.1,191.9,174.1,193.9,171.6,193.9z M171.6,172.8H149c-2.5,0-4.5-2-4.5-4.5v-6c0,0,0,0,0,0h31.6
		c0,0,0,0,0,0v6C176.1,170.8,174.1,172.8,171.6,172.8z M130.7,149.4l-1.1-2.1c-1.4-2.8,0.6-6.1,3.8-6.1h53.7c3.1,0,5.2,3.3,3.8,6.1
		l-1.1,2.1c-0.7,1.4-2.2,2.3-3.8,2.3h-51.6C132.9,151.7,131.4,150.8,130.7,149.4z M131.9,151.7"/>
</g>
</svg>
