<?xml version="1.0" encoding="utf-8"?>
<!-- Generator: Adobe Illustrator 22.1.0, SVG Export Plug-In . SVG Version: 6.00 Build 0)  -->
<svg version="1.1" id="Warstwa_1" xmlns="http://www.w3.org/2000/svg" xmlns:xlink="http://www.w3.org/1999/xlink" x="0px" y="0px"
	 viewBox="0 0 329 239" style="enable-background:new 0 0 329 239;" xml:space="preserve">
<style type="text/css">
	.st0{fill:#FFFFFF;}
</style>
<g>
	<path class="st0" d="M206.2,59.2c-10.7-10.9-25-16.9-40.3-17.1c-15.5-0.2-30.1,5.7-41.2,16.6c-11.1,10.9-17.2,25.4-17.3,40.9
		c0,16.7,7.2,32.6,19.8,43.6c9.1,8,14.4,19.3,14.4,31.1v29.1c0,11.1,9.1,20.2,20.2,20.2h6.8c11.1,0,20.2-9.1,20.2-20.2v-28.7
		c0-12.1,5.1-23.5,14.1-31.2c12.7-11,20-26.9,20-43.7C222.9,84.4,216.9,70,206.2,59.2L206.2,59.2z M165.1,128.9h-2.7
		c-1.5,0-2.7-1.2-2.7-2.7c0-1.5,1.2-2.7,2.7-2.7c1.5,0,2.7,1.2,2.7,2.7V128.9z M165.2,153.1c2.2,0,4.1,1.8,4.1,4.1V171h-8.1v-13.8
		C161.1,154.9,162.9,153.1,165.2,153.1L165.2,153.1z M180.6,179.1v6h-30.9v-6H180.6z M149.7,193.2h30.9v6h-30.9V193.2z M168.6,215.4
		h-6.8c-5.3,0-9.8-3.4-11.4-8.1h29.6C178.3,212,173.8,215.4,168.6,215.4L168.6,215.4z M197.5,137.2c-9.8,8.5-15.8,20.6-16.8,33.7
		h-3.4v-13.8c0-3.6-1.6-6.9-4.1-9.1c0,0,0,0,0-0.1v-13.4c3.3-2.4,5.5-6.3,5.5-10.6v-6.3c0-8.7-7-15.7-15.7-15.7h-7.3
		c-2.2,0-4.1,1.8-4.1,4.1c0,2.2,1.8,4.1,4.1,4.1h7.3c4.2,0,7.6,3.4,7.6,7.6v1.5c-2-2.3-4.9-3.7-8.2-3.7c-6,0-10.8,4.8-10.8,10.8
		c0,6,4.8,10.8,10.8,10.8h2.7v7.9c-6.7,0-12.1,5.5-12.1,12.2V171h-3.4c-0.9-12.9-7-25.1-17-33.9c-10.8-9.5-17-23.1-17-37.5
		c0-13.3,5.3-25.7,14.8-35.1C140,55,152.5,50,165.8,50.1c27,0.3,48.9,22.6,48.9,49.6C214.7,114.1,208.5,127.8,197.5,137.2
		L197.5,137.2z M197.5,137.2"/>
	<path class="st0" d="M166,61.8L166,61.8c-2.3,0-4.1,1.8-4.2,4c0,2.2,1.8,4.1,4,4.1h0.1c2.2,0,4-1.8,4-4
		C170,63.6,168.2,61.8,166,61.8L166,61.8z M166,61.8"/>
	<path class="st0" d="M183.9,66.5c-2-1.1-4.4-0.4-5.5,1.6c-1.1,2-0.4,4.4,1.6,5.5c9.5,5.3,15.3,15.2,15.3,26.1
		c0,2.2,1.8,4.1,4.1,4.1c2.2,0,4.1-1.8,4.1-4.1C203.4,85.9,195.9,73.2,183.9,66.5L183.9,66.5z M183.9,66.5"/>
	<path class="st0" d="M165.2,34.6c2.2,0,4.1-1.8,4.1-4.1v-11c0-2.2-1.8-4.1-4.1-4.1c-2.2,0-4.1,1.8-4.1,4.1v11
		C161.1,32.8,162.9,34.6,165.2,34.6L165.2,34.6z M165.2,34.6"/>
	<path class="st0" d="M245.3,95.6h-11c-2.2,0-4.1,1.8-4.1,4.1c0,2.2,1.8,4.1,4.1,4.1h11c2.2,0,4.1-1.8,4.1-4.1
		C249.3,97.4,247.5,95.6,245.3,95.6L245.3,95.6z M245.3,95.6"/>
	<path class="st0" d="M96,95.6h-11c-2.2,0-4.1,1.8-4.1,4.1c0,2.2,1.8,4.1,4.1,4.1h11c2.2,0,4.1-1.8,4.1-4.1
		C100.1,97.4,98.3,95.6,96,95.6L96,95.6z M96,95.6"/>
	<path class="st0" d="M216.9,145.7c-1.6-1.6-4.2-1.6-5.7,0c-1.6,1.6-1.6,4.2,0,5.7l7.8,7.8c0.8,0.8,1.8,1.2,2.9,1.2
		c1,0,2.1-0.4,2.9-1.2c1.6-1.6,1.6-4.2,0-5.7L216.9,145.7z M216.9,145.7"/>
	<path class="st0" d="M113.4,53.7c0.8,0.8,1.8,1.2,2.9,1.2c1,0,2.1-0.4,2.9-1.2c1.6-1.6,1.6-4.2,0-5.7l-7.8-7.8
		c-1.6-1.6-4.2-1.6-5.7,0c-1.6,1.6-1.6,4.2,0,5.7L113.4,53.7z M113.4,53.7"/>
	<path class="st0" d="M218.9,40.2l-7.8,7.8c-1.6,1.6-1.6,4.2,0,5.7c0.8,0.8,1.8,1.2,2.9,1.2c1,0,2.1-0.4,2.9-1.2l7.8-7.8
		c1.6-1.6,1.6-4.2,0-5.7C223.1,38.6,220.5,38.6,218.9,40.2L218.9,40.2z M218.9,40.2"/>
	<path class="st0" d="M113.4,145.7l-7.8,7.8c-1.6,1.6-1.6,4.2,0,5.7c0.8,0.8,1.8,1.2,2.9,1.2c1,0,2.1-0.4,2.9-1.2l7.8-7.8
		c1.6-1.6,1.6-4.2,0-5.7C117.6,144.1,115,144.1,113.4,145.7L113.4,145.7z M113.4,145.7"/>
</g>
</svg>
