<?xml version="1.0" encoding="utf-8"?>
<!-- Generator: Adobe Illustrator 22.1.0, SVG Export Plug-In . SVG Version: 6.00 Build 0)  -->
<svg version="1.1" id="Warstwa_1" xmlns="http://www.w3.org/2000/svg" xmlns:xlink="http://www.w3.org/1999/xlink" x="0px" y="0px"
	 viewBox="0 0 329 239" style="enable-background:new 0 0 329 239;" xml:space="preserve">
<style type="text/css">
	.st0{fill:#FFFFFF;}
</style>
<path class="st0" d="M235.4,52.9c-0.3-5.2-0.4-8.9-0.5-9.7c-0.2-4.8-0.4-9.3-3.7-12.2c-2.4-2.2-5.7-2.9-10.9-2.6
	c-7.8,0.6-22.2,2.4-33.7,3.9c-2.5,0.3-4.8,0.6-7.1,0.9c-1.4,0.2-2.8,0.3-4.1,0.5l-0.4,0c-4.5,0.5-8.4,1-9.6,1H164
	c-1.8,0-8.3-0.8-15.8-1.7l-7.3-0.9c-11.4-1.5-24.3-3.1-31.8-3.6c-3.9-0.2-7.9-0.1-11,2.6c-3,2.6-3.5,6.7-3.7,10.7l-0.1,2.9
	c-2.3,53-2.8,69.4-2.8,73.7c0,1.2,0,3.6-0.1,7c-0.3,15.7-1,52.5,1.3,68.3c1.4,10.1,5.8,14.5,14.8,14.5c0.7,0,1.5,0,2.3-0.1
	c6.8-0.5,17.3-1.8,24.8-2.7c2.7-0.3,5.4-0.7,8-1c2.4-0.3,4.7-0.6,6.9-0.9c2-0.3,3.9-0.5,5.6-0.7c0.3,0.1,0.8,0.2,1.4,0
	c9.8-3.5,44.1,2.7,50.8,4.3c0.6,0.2,1.1,0,1.4,0l0,0c3.5,0.4,7,0.7,10.1,1c7.6,0.6,12.3-1.2,15-5.8c1.1-0.6,2.2-3.3,3.2-38.4
	c0.6-18.5,0.8-37,0.8-38.3v-2.8C238.5,118.2,237.1,86.6,235.4,52.9z M225.8,198.1c-0.9,0.9-2.5,1.2-6.2,0.9l0,0c-1-0.1-2-0.1-3-0.2
	c1.4-0.8,2.7-1.3,3.9-1.5C222.1,197,223.9,197.3,225.8,198.1z M143.7,45.5l-1.7,0.7c-0.7,0.3-1.5,0.6-2.2,1
	c-2.1,0.9-4.7,2.1-5.4,2.2c-2.4,0.1-4.3,2-4.3,4.5c0,2.5,2,4.5,4.5,4.5c2.2,0,4.8-1.1,11-3.9c6.3-2.8,18-8.1,31.1-11.5
	c1.9-0.3,4.1-0.5,6.5-0.8c1.5-0.2,3-0.4,4.6-0.6l1.9-0.2c11.3-1.4,24.2-3.1,31.3-3.6c3.1-0.2,4.1,0.2,4.3,0.3c0.5,0.7,0.6,4,0.7,6
	l0,0.9c0.5,11.7,1.2,27.7,1.8,41.8c-6.3,1.3-10.7,6.2-11.5,13.1c-0.8,7.9-3,13.4-6,15c-2.2,1.2-5.2,0.2-7.3-0.8
	c-5.2-2.7-10.5-3.2-14.8-1.5c-3.6,1.5-6.3,4.5-7.8,8.6c-2.7,7.6,2.1,13,5,16.2l0.1,0.1c0.6,0.6,1.1,1.2,1.5,1.8
	c1.9,2.5,0.7,5.7-1.6,7.5c-4.6,3.5-9-1.6-9.9-2.7c-8.2-10.3-17.7-15.2-25.4-12.9c-5.4,1.5-9,6.3-9.9,13.3
	c-1.4,10.7,7.7,15,14.9,18.5c4.1,2,8.8,4.2,10.4,7.3c0.8,1.7-0.1,3.5-3.5,8.1c-2.3,3.1-4.7,6.6-6.3,10.8c-1,0.3-2,0.7-3.1,1.1
	c-5.8,2.1-12.5,4.4-19.6,6.3c-10.7,1.4-19,2.3-24.1,2.7c-5.3,0.4-6.5-0.2-7.4-6.7c-1.5-10.3-1.9-32.8-1.2-66.8
	c0.1-3.4,0.1-5.9,0.1-7.2c0-4.2,0.5-20.4,2.8-73.4l0.1-2.7c0.2-3.2,0.5-4.1,0.7-4.4c0.2-0.1,0.9-0.3,2.5-0.3c0.5,0,1.1,0,1.6,0.1
	l0.1,0c8.1,0.6,22.4,2.4,33.1,3.8c2.2,0.3,4.2,0.6,6.1,0.8c0.9,0.1,1.8,0.2,2.6,0.3C148,43.6,145.7,44.6,143.7,45.5z M169.4,192.5
	c2.4-1,5.7-2.4,6.5-2.6c2.4-0.1,4.4-2,4.4-4.5c0-2.5-2-4.5-4.5-4.5c-1.7,0-3.9,0.8-7.8,2.4c0.2-0.3,0.5-0.7,0.7-1
	c3.4-4.7,7.2-10,4.1-16.3c-2.8-5.6-8.8-8.5-14.1-11c-7.7-3.6-11-5.7-10.4-10.2c0.3-2.1,1.2-5.7,4.3-6.6c0.4-0.1,0.9-0.1,1.5-0.1
	c4.4,0,10.3,4,15.4,10.4c6.9,8.7,15.5,8.3,21.1,4.1c2.7-2.1,4.7-5.2,5.3-8.4c0.8-3.8-0.1-7.4-2.2-10.2c-0.4-0.6-0.9-1.1-1.3-1.6
	c-0.2-0.2-0.4-0.5-0.6-0.7c-3.2-3.6-4.4-5.5-3.4-8.3c0.6-1.9,1.7-3.2,3.2-3.8c2-0.8,5-0.4,8.1,1.2c5.5,2.7,10.4,3,14.7,0.6
	c5.6-3.1,8.9-10,10.2-21.1c0.3-2.8,1.6-4.8,3.8-5.7c0.5,13.2,0.7,20.7,0.7,23.6c0,0.9,0,2.5,0.1,4.7c-1.2,2.9-1.6,5.9-1.2,8.8
	c0.2,1.5,0.7,2.7,1.4,3.7c0,2.4,0,5,0,7.7c-0.1,16.2-0.1,36.1-1.5,47.2c-3-1-5.8-1.4-8.5-1c-4.8,0.7-9.4,3.5-13.5,8.3
	c-5.1-0.6-11.2-1.4-18.2-2.3l-2.3-0.3c-7.9-1-13.6-1.7-17-2.1L169.4,192.5z"/>
</svg>
