<?xml version="1.0" encoding="utf-8"?>
<!-- Generator: Adobe Illustrator 22.1.0, SVG Export Plug-In . SVG Version: 6.00 Build 0)  -->
<svg version="1.1" id="Warstwa_1" xmlns="http://www.w3.org/2000/svg" xmlns:xlink="http://www.w3.org/1999/xlink" x="0px" y="0px"
	 viewBox="0 0 329 239" style="enable-background:new 0 0 329 239;" xml:space="preserve">
<style type="text/css">
	.st0{fill:#FFFFFF;}
</style>
<path class="st0" d="M170,111.9c-0.7-0.9-1.4-1.6-2-2.2c0.1-2.2-0.8-4.4-2.6-6.3c-0.8-0.8-1.7-1.5-2.4-1.9c-2-4.8-7.8-7.3-10.3-8.2
	c-1.8-0.6-3.8,0.1-4.8,1.6c-0.3,0.4-1.8,1-2.8,1.4c-2.8,1.1-6.2,2.5-7.5,5.8c-0.5,1.2-0.6,2.5-0.3,4c-1.8,1-3,2.2-3.7,3.7
	c-0.5,1.1-0.9,2.7-0.3,4.8c-2,1.7-2.9,4.4-2.2,7.1c0.8,3,3.5,5,6.6,5h28.1c3.2,0,5.9-2.1,6.7-5.2C173.2,118.3,172.3,115,170,111.9z
	 M152.1,102.7l-0.9,0.1c-1,0.1-2.1,0.3-3.1,0.4c-0.5,0.1-1,0.3-1.4,0.6c-0.5-0.2-1-0.2-1.5-0.1c-0.7,0.1-1.4,0.3-2,0.4
	c0.6-0.9,2.5-1.7,4.1-2.4c1.6-0.7,3.3-1.4,4.5-2.5c1.3,0.5,3.2,1.5,4.6,2.8C155,102.4,153.6,102.6,152.1,102.7z M147.5,108.9
	c0.5,0.2,0.9,0.2,1.4,0.2c1-0.1,2.1-0.3,3.1-0.4l0.4-0.1c1.4-0.2,2.8-0.4,4.2-0.6l0.4-0.1c1.1-0.2,2.3-0.4,3.6-0.9
	c0.2,0.2,0.4,0.3,0.6,0.6c0.8,0.8,0.9,1.4,0.9,1.8c-0.3,0.1-0.6,0.2-1.3,0.3c-0.5,0.1-0.9,0.3-1.3,0.6c-0.5-0.2-1-0.3-1.5-0.2
	c-0.5,0.1-1.1,0.1-1.6,0.1c-0.5,0-1,0.1-1.4,0.1l-2.1,0.1c-3.7,0.2-8,0.5-12.2,1.3c0,0-0.9,0.2-1.9,0.5c0.4-0.7,1.6-1.1,2.4-1.4
	c1.3-0.5,2.8-0.9,4.8-1.2C146.6,109.4,147.1,109.2,147.5,108.9z M137.1,119c1.7-1,3.9-1.5,5.8-1.8c3.2-0.6,6.6-0.8,9.9-1l0.6,0
	c1.8-0.1,3.7-0.2,5.4-0.4c0.5-0.1,1.1-0.3,1.5-0.6c0.5,0.2,1.1,0.3,1.6,0.2c0.8-0.1,1.7-0.3,2.7-0.7c1.2,1.3,2.6,3.3,2.1,5.5
	c-0.1,0.4-0.5,0.7-1,0.7h-28.1c-0.7,0-0.9-0.5-1-0.7C136.6,119.9,136.6,119.4,137.1,119z"/>
<path class="st0" d="M231.7,76.8c-1.1-1.1-2.8-1.1-3.9,0l-17.1,17.1c-1.1,1.1-1.1,2.8,0,3.9c1.1,1.1,2.8,1.1,3.9,0l17.1-17.1
	C232.8,79.7,232.8,77.9,231.7,76.8L231.7,76.8z M231.7,76.8"/>
<path class="st0" d="M237.9,83c-1.1-1.1-2.8-1.1-3.9,0l-22.7,22.7c-1.1,1.1-1.1,2.8,0,3.9c1.1,1.1,2.8,1.1,3.9,0l22.7-22.7
	C239,85.8,239,84.1,237.9,83L237.9,83z M237.9,83"/>
<path class="st0" d="M244.1,89.2c-1.1-1.1-2.8-1.1-3.9,0L223,106.3c-1.1,1.1-1.1,2.8,0,3.9c1.1,1.1,2.8,1.1,3.9,0l17.1-17.1
	C245.1,92,245.1,90.2,244.1,89.2L244.1,89.2z M244.1,89.2"/>
<path class="st0" d="M279,51.2c0-2.5-1-4.8-2.7-6.6c-1.8-1.7-4.1-2.7-6.6-2.7c-2.5,0-4.8,1-6.6,2.7L239,68.7
	c-2.2-1.8-6.1-3.4-10.7-2.5c-4.6,0.9-9.1,3.9-13.7,9.1c-1,1.1-0.9,2.9,0.3,3.9c1.1,1,2.9,0.9,3.9-0.3c3.7-4.2,7.3-6.7,10.6-7.3
	c3-0.6,5.3,0.5,6.4,1.5l12,12c1,1.1,2.1,3.4,1.5,6.4c-1.5,7.9-13,16.8-34.2,26.5c-1,0.5-2.3,0.3-3.1-0.6l-8.5-8.5
	c-0.8-0.8-1-2.1-0.6-3.1c0.8-1.8,1.6-3.5,2.4-5.1c0.7-1.4,0.1-3-1.3-3.7c-1.4-0.7-3-0.1-3.7,1.3c-0.8,1.7-1.7,3.4-2.5,5.3
	c-1.4,3.1-0.8,6.9,1.7,9.3l8.5,8.5c1.6,1.6,3.7,2.4,5.9,2.4c1.2,0,2.3-0.2,3.4-0.7c23.5-10.8,35.4-20.5,37.3-30.5
	c0.9-4.7-0.6-8.5-2.5-10.7l24.1-24.1C278,56,279,53.7,279,51.2L279,51.2z M272.4,53.8l-24.1,24.1l-5.3-5.3l24.1-24.1
	c0.7-0.7,1.6-1.1,2.7-1.1c1,0,2,0.4,2.7,1.1c0.7,0.7,1.1,1.6,1.1,2.7C273.5,52.2,273.1,53.1,272.4,53.8L272.4,53.8z M272.4,53.8"/>
<path class="st0" d="M212,83.1c-1.3-0.8-3-0.4-3.8,0.8c-1.1,1.7-2.1,3.5-3.2,5.3c-0.8,1.3-0.3,3,1,3.8c0.4,0.2,2.4,0.9,3.8-1
	c1.2-1.7,2.1-3.5,3.1-5.1C213.7,85.7,213.3,84,212,83.1L212,83.1z M212,83.1"/>
<path class="st0" d="M247.4,139h-6.3c-0.9-5.4-5.5-9.5-11.1-9.5c-2.6,0-5,0.9-7,2.4c-2-1.5-4.4-2.4-7-2.4c-2.6,0-5,0.9-7,2.4
	c-1.1-0.9-2.4-1.6-3.8-2c-1.5-0.4-3,0.4-3.4,1.9c-0.4,1.5,0.4,3,1.9,3.4c1.2,0.4,2.3,1.2,3.1,2.2c0.5,0.7,1.4,1.2,2.3,1.2
	c0.9,0,1.7-0.4,2.3-1.2c1.1-1.5,2.8-2.4,4.7-2.4c1.9,0,3.6,0.9,4.7,2.4c0.5,0.7,1.4,1.2,2.3,1.2c0.9,0,1.7-0.4,2.3-1.2
	c1.1-1.5,2.8-2.4,4.7-2.4c2.5,0,4.7,1.7,5.5,3.9H85.1c0.8-2.3,2.9-3.9,5.5-3.9c1.9,0,3.6,0.9,4.7,2.4c0.5,0.7,1.4,1.2,2.3,1.2
	c0.9,0,1.7-0.4,2.3-1.2c1.1-1.5,2.8-2.4,4.7-2.4c1.9,0,3.6,0.9,4.7,2.4c0.5,0.7,1.4,1.2,2.3,1.2c0.9,0,1.7-0.4,2.3-1.2
	c1.1-1.5,2.8-2.4,4.7-2.4c1.9,0,3.6,0.9,4.7,2.4c0.5,0.7,1.4,1.2,2.3,1.2c0.9,0,1.7-0.4,2.3-1.2c1.1-1.5,2.8-2.4,4.7-2.4
	c1.9,0,3.6,0.9,4.7,2.4c0.5,0.7,1.4,1.2,2.3,1.2c0.9,0,1.7-0.4,2.3-1.2c1.1-1.5,2.8-2.4,4.7-2.4c1.9,0,3.6,0.9,4.7,2.4
	c0.5,0.7,1.4,1.2,2.3,1.2c0.9,0,1.7-0.4,2.3-1.2c1.1-1.5,2.8-2.4,4.7-2.4c1.9,0,3.6,0.9,4.7,2.4c0.5,0.7,1.4,1.2,2.3,1.2
	c0.9,0,1.7-0.4,2.3-1.2c1.1-1.5,2.8-2.4,4.7-2.4c1.9,0,3.6,0.9,4.7,2.4c0.5,0.7,1.4,1.2,2.3,1.2c0.9,0,1.7-0.4,2.3-1.2
	c1.1-1.5,2.8-2.4,4.7-2.4c1.9,0,3.6,0.9,4.7,2.4c0.9,1.3,2.6,1.6,3.9,0.7c1.3-0.9,1.6-2.6,0.7-3.9c-2.1-3-5.6-4.8-9.2-4.8
	c-2.6,0-5,0.9-7,2.4c-2-1.5-4.4-2.4-7-2.4c-2.6,0-5,0.9-7,2.4c-2-1.5-4.4-2.4-7-2.4c-2.6,0-5,0.9-7,2.4c-2-1.5-4.4-2.4-7-2.4
	c-2.6,0-5,0.9-7,2.4c-2-1.5-4.4-2.4-7-2.4c-2.6,0-5,0.9-7,2.4c-2-1.5-4.4-2.4-7-2.4c-2.6,0-5,0.9-7,2.4c-2-1.5-4.4-2.4-7-2.4
	c-2.6,0-5,0.9-7,2.4c-2-1.5-4.4-2.4-7-2.4c-5.6,0-10.3,4.1-11.1,9.5h-6.3c-3.4,0-6.1,2.7-6.1,6.1v8.5c0,3.4,2.7,6.1,6.1,6.1h2.1v11
	c0,9.5,7.7,17.2,17.2,17.2h135.7c9.5,0,17.2-7.7,17.2-17.2v-11h2.1c3.4,0,6.1-2.7,6.1-6.1v-8.5C253.5,141.7,250.8,139,247.4,139
	L247.4,139z M239.8,170.7c0,6.4-5.2,11.6-11.6,11.6H92.4c-6.4,0-11.6-5.2-11.6-11.6v-11h159V170.7z M247.4,154.1H73.1
	c-0.3,0-0.3-9.6,0-9.6h174.3C247.7,144.5,247.7,154.1,247.4,154.1L247.4,154.1z M247.4,154.1"/>
<path class="st0" d="M208.6,171.2h-8.9c-1.5,0-2.8,1.2-2.8,2.8c0,1.5,1.2,2.8,2.8,2.8h8.9c1.5,0,2.8-1.2,2.8-2.8
	C211.4,172.5,210.2,171.2,208.6,171.2L208.6,171.2z M208.6,171.2"/>
<path class="st0" d="M191.7,171.2h-23.9c-1.5,0-2.8,1.2-2.8,2.8c0,1.5,1.2,2.8,2.8,2.8h23.9c1.5,0,2.8-1.2,2.8-2.8
	C194.4,172.5,193.2,171.2,191.7,171.2L191.7,171.2z M191.7,171.2"/>
</svg>
