<?xml version="1.0" encoding="utf-8"?>
<!-- Generator: Adobe Illustrator 24.0.2, SVG Export Plug-In . SVG Version: 6.00 Build 0)  -->
<svg version="1.1" id="Warstwa_1" xmlns="http://www.w3.org/2000/svg" xmlns:xlink="http://www.w3.org/1999/xlink" x="0px" y="0px"
	 viewBox="0 0 329 239" style="enable-background:new 0 0 329 239;" xml:space="preserve">
<style type="text/css">
	.st0{fill:#FFFFFF;}
</style>
<g>
	<g>
		<path class="st0" d="M215.5,95.2c0.9-0.8,1.3-1.9,1.3-3.1l-0.1-72.9c0-2.4-1.9-4.3-4.3-4.3L115.8,15c-1.1,0-2.2,0.5-3,1.3
			L64.6,64.7c-0.8,0.8-1.3,1.9-1.3,3.1L63.5,213c0,2.4,1.9,4.3,4.3,4.3l96.6-0.1c1.5,0,2.7-0.7,3.5-1.8h0l0,0c0,0,0,0,0,0l33.7-48.4
			c0.5-0.7,0.8-1.6,0.8-2.5l-0.1-56.8L215.5,95.2z M72.1,208.7L71.9,72.1l88-0.1l0.2,136.6L72.1,208.7z M195.1,102.7
			c-0.9,0.8-1.3,1.9-1.3,3.1l0.1,57.3l-25.1,36.1l-0.1-131.5c0-2.4-1.9-4.3-4.3-4.3L78,63.5l39.7-39.8l90.5-0.1l0.1,66.7
			L195.1,102.7z M144.3,184.4l0,8.6l-17.2,0l0-8.6L144.3,184.4z M105,184.4l0,8.6l-17.2,0l0-8.6L105,184.4z M140.4,87.9l-49,0.1
			c-2.4,0-4.3,1.9-4.3,4.3l0.1,68.9c0,2.4,1.9,4.3,4.3,4.3l49-0.1c2.4,0,4.3-1.9,4.3-4.3l-0.1-68.9
			C144.7,89.8,142.8,87.9,140.4,87.9L140.4,87.9z M95.8,156.9l-0.1-60.3l40.3,0l0.1,60.3L95.8,156.9z M243.5,144.6
			c-1.6-2.4-5.6-2.4-7.2,0c-2.3,3.4-22.1,34-22.1,46.7c0,14.2,11.6,25.7,25.7,25.7c14.2,0,25.7-11.6,25.7-25.8
			C265.7,178.5,245.8,148.1,243.5,144.6L243.5,144.6z M240,208.5c-9.4,0-17.1-7.7-17.1-17.1c0-6.6,9.4-23.9,17.1-36.4
			c7.7,12.4,17.1,29.7,17.1,36.3C257.1,200.8,249.4,208.5,240,208.5L240,208.5z M240,208.5"/>
	</g>
</g>
</svg>
