<?xml version="1.0" encoding="utf-8"?>
<!-- Generator: Adobe Illustrator 22.1.0, SVG Export Plug-In . SVG Version: 6.00 Build 0)  -->
<svg version="1.1" id="Warstwa_1" xmlns="http://www.w3.org/2000/svg" xmlns:xlink="http://www.w3.org/1999/xlink" x="0px" y="0px"
	 viewBox="0 0 329 239" style="enable-background:new 0 0 329 239;" xml:space="preserve">
<style type="text/css">
	.st0{fill:#FFFFFF;}
</style>
<g>
	<path class="st0" d="M270.4,23.8c-5.5-4.2-12.6-5.6-20.1-3.7c-6.3,1.6-12.2,5.2-17,10.5c-0.7-0.5-1.4-1.1-2.1-1.6
		c-15.9-11.3-33.7-9.7-49.9,4.3l-53.2,38c-12.4,8.9-22.3,19.2-29.4,30.7c-19.6,31.9-22.7,76.2,9.5,99.2c10.4,7.4,21.7,10.6,33,10.6
		c23.8,0,47.8-14.3,63.9-33.9c8.6-10.5,15.1-23.2,19.5-37.8l18.5-62.3c6.7-16.6,5-31.2-4.6-42.2c3.7-4.2,8.4-7.3,13.3-8.5
		c5.3-1.3,10.2-0.4,13.9,2.4c1.6,1.2,3.9,0.9,5.1-0.7C272.2,27.3,271.9,25,270.4,23.8z M236.3,75.4L217.7,138
		c-4.1,13.7-10.2,25.5-18.1,35.2c-21.6,26.3-58.5,42.3-87,21.9c-28.6-20.4-25.4-60.4-7.6-89.4c6.6-10.7,15.8-20.3,27.4-28.6
		l53.5-38.2c6.1-5.3,14.2-10.2,23.6-10.2c5.5,0,11.4,1.7,17.6,6.1C243.4,46.6,241.2,63.2,236.3,75.4z"/>
	<path class="st0" d="M222.7,40.8c-11.6-8.3-20.9-3.1-28.5,3.1c-8.5,6.9-17.6,12.9-25.4,17.9l-29.1,18.6
		c-10.1,7.8-18.3,16.7-24.4,26.4c-17,27.1-21.6,63.5,2.6,80.8c7,5,14.7,7.2,22.7,7.2c19.5,0,40.3-13.3,54.6-31
		c7.2-8.9,12.9-19.6,17.2-31.9l10.5-43.1c1.5-6.1,3.4-12.3,5.9-19.1C232.6,59.6,234.4,49.2,222.7,40.8z M222,67
		c-2.6,7-4.6,13.5-6.2,19.9l-10.4,42.8c-3.9,11.3-9.2,21.1-15.9,29.4c-17.9,22.2-46.8,37.1-67.3,22.4c-20.5-14.6-15.9-46.8-0.7-70.9
		c5.6-9,13.3-17.2,22.4-24.4l28.8-18.4c7.9-5.1,17.2-11.2,26-18.3c8.3-6.7,13.2-7.4,19.7-2.8C225,51.4,225.9,56.5,222,67z"/>
	<path class="st0" d="M181.1,99.1c-15.1-10.8-44.6,10.1-55,24.6c-11.5,16.1-9.7,37.1,4,46.9c4.6,3.3,10.1,5,15.8,5
		c2.7,0,5.4-0.4,8.1-1.1c8.5-2.2,16.2-7.7,21.7-15.4c5.6-7.8,10.3-20,12.1-31.2C190.2,114,187.8,103.8,181.1,99.1z M180.7,126.7
		c-1.7,10.1-5.9,21.2-10.9,28.1h0c-4.5,6.3-10.7,10.8-17.6,12.6c-6.6,1.7-12.9,0.7-17.9-2.8c-10.4-7.4-11.4-23.9-2.3-36.7
		c8-11.2,27.4-24.5,39-24.5c2.3,0,4.2,0.5,5.8,1.6C181,108,182.4,116.1,180.7,126.7z"/>
	
		<ellipse transform="matrix(0.7071 -0.7071 0.7071 0.7071 -64.2298 139.0699)" class="st0" cx="135.8" cy="147.1" rx="5.5" ry="5.5"/>
	<path class="st0" d="M150.4,140.8c3,0,5.5-2.4,5.5-5.5c0-3-2.4-5.5-5.5-5.5c-3,0-5.5,2.5-5.5,5.5
		C145,138.4,147.4,140.8,150.4,140.8z"/>
	<path class="st0" d="M152,150c-3,0-5.5,2.4-5.5,5.5c0,3,2.5,5.5,5.5,5.5s5.5-2.4,5.5-5.5C157.4,152.4,155,150,152,150z"/>
</g>
</svg>
