<?xml version="1.0" encoding="utf-8"?>
<!-- Generator: Adobe Illustrator 22.1.0, SVG Export Plug-In . SVG Version: 6.00 Build 0)  -->
<svg version="1.1" id="Warstwa_1" xmlns="http://www.w3.org/2000/svg" xmlns:xlink="http://www.w3.org/1999/xlink" x="0px" y="0px"
	 viewBox="0 0 329 239" style="enable-background:new 0 0 329 239;" xml:space="preserve">
<style type="text/css">
	.st0{fill:#FFFFFF;}
</style>
<path class="st0" d="M186,219.4h26.8c0.7,0,1.3-0.3,1.8-0.7c8.6-8.5,25.7-24.8,25.7-54.8c0-21.6-6.1-30.7-12-39.5
	c-5.5-8.2-10.7-15.9-11-36.1c0-0.4,0.1-0.8,0.3-1.1l13-26.4c0.8-1.7-0.4-3.6-2.2-3.6h-56.6c-1.8,0-3.1,1.9-2.2,3.6l13,26.4
	c0.2,0.4,0.3,0.7,0.3,1.1c0,2.8-0.2,5.4-0.4,7.7c-0.2,1.9-2.4,2.9-4,1.8c-0.5-0.4-1-0.7-1.4-1c-8.3-6.1-16.9-12.3-17.2-43.4
	c0-0.4,0.1-0.8,0.3-1.1l13-26c0.8-1.7-0.4-3.6-2.2-3.6H90.8c-1.9,0-3.1,2-2.2,3.6l13,26c0.2,0.4,0.3,0.8,0.3,1.1
	c-0.3,31-8.9,37.4-17.2,43.5c-8.1,6-17.4,12.9-17.4,36.8c0,31.9,16.7,64.4,37.3,85c0.5,0.5,1.1,0.7,1.8,0.7h48.8
	c0.7,0,1.3-0.3,1.8-0.7c3.6-3.6,7.3-7.7,11.9-13.9c1-1.4,3-1.4,4,0C176.7,210.3,180.7,214.3,186,219.4L186,219.4z M211.9,72.3
	l-3.4,6.9c-0.4,0.9-1.3,1.4-2.2,1.4h-12.8c-1,0-1.8-0.5-2.2-1.4l-3.4-6.9c-0.8-1.7,0.4-3.6,2.2-3.6h19.6
	C211.5,68.7,212.8,70.6,211.9,72.3z M154.2,37.7l-3.3,6.5c-0.4,0.8-1.3,1.4-2.2,1.4h-35.9c-0.9,0-1.8-0.5-2.2-1.4l-3.3-6.5
	c-0.8-1.7,0.4-3.6,2.2-3.6h42.5C153.8,34.1,155,36,154.2,37.7z M91.5,106.1c5-3.7,10.6-7.9,15-16.3c3.9-7.5,6.1-17.5,6.7-30.3
	c0.1-1.3,1.2-2.4,2.5-2.4h30c1.3,0,2.4,1,2.5,2.4c0.6,12.9,2.9,22.9,6.8,30.3c4.4,8.4,10,12.5,15,16.2c2.8,2,5.1,3.7,7,6
	c0.6,0.7,0.8,1.8,0.4,2.7c-1.7,3.6-3.8,6.7-5.8,9.7c-4.7,7-9.5,14.2-11.3,27.5c-0.1,0.5-0.3,1.1-0.7,1.4l-3.7,3.7c-1,1-2.6,1-3.5,0
	l-19.5-19.5c-1-1-2.6-1-3.5,0l-19.5,19.5c-1,1-2.6,1-3.5,0l-19.5-19.5c-1-1-2.6-1-3.5,0l0,0c-1.6,1.6-4.2,0.5-4.3-1.7
	c0-0.7,0-1.5,0-2.2C78.8,115.5,84.1,111.6,91.5,106.1L91.5,106.1z M151.3,207.8h-40.1c-0.7,0-1.4-0.3-1.9-0.8
	c-5.8-6.5-21-25.1-27.5-50.1c-0.2-0.9,0-1.8,0.7-2.4l0.6-0.6c1-1,2.6-1,3.5,0l19.5,19.5c1,1,2.6,1,3.5,0l19.5-19.5c1-1,2.6-1,3.5,0
	l19.5,19.5c1,1,2.6,1,3.5,0l0.3-0.3c1.5-1.5,3.9-0.6,4.2,1.4c0.8,5.3,2.2,10.2,3.9,14.5c0.3,0.7,0.2,1.6-0.2,2.3
	C158.7,199.4,153.7,205.2,151.3,207.8L151.3,207.8z M171.1,163.9c0-18,4.7-24.9,10.1-33c5.4-8,11.4-17,12.7-36.4
	c0.1-1.3,1.2-2.3,2.5-2.3h7.1c1.3,0,2.4,1,2.5,2.3c1.3,19.4,7.3,28.4,12.7,36.4c5.4,8,10.1,15,10.1,33c0,23.2-12.6,37.1-18.9,43.2
	c-0.5,0.5-1.1,0.7-1.7,0.7h-16.4c-0.7,0-1.3-0.3-1.7-0.7C183.7,200.9,171.1,187.1,171.1,163.9L171.1,163.9z M171.1,163.9"/>
<path class="st0" d="M130.7,187.1l-8.2-8.2l8.2-8.2l8.2,8.2L130.7,187.1z M130.7,187.1"/>
<path class="st0" d="M107.6,124.7l8.2,8.2l-8.2,8.2l-8.2-8.2L107.6,124.7z M107.6,124.7"/>
<path class="st0" d="M153.8,124.7l8.2,8.2l-8.2,8.2l-8.2-8.2L153.8,124.7z M153.8,124.7"/>
</svg>
