<?xml version="1.0" encoding="utf-8"?>
<!-- Generator: Adobe Illustrator 22.1.0, SVG Export Plug-In . SVG Version: 6.00 Build 0)  -->
<svg version="1.1" id="Warstwa_1" xmlns="http://www.w3.org/2000/svg" xmlns:xlink="http://www.w3.org/1999/xlink" x="0px" y="0px"
	 viewBox="0 0 329 239" style="enable-background:new 0 0 329 239;" xml:space="preserve">
<style type="text/css">
	.st0{fill:#FFFFFF;}
</style>
<path class="st0" d="M126.8,136.1c1.7,0,3.1-1.2,3.4-2.9c0.2-1.7-0.8-3.3-2.4-3.7c-7-2.1-14.6-9.8-20.8-21c-0.9-1.6-3-2.2-4.6-1.3
	c-1.6,0.9-2.2,3-1.3,4.6c7.1,12.8,16.1,21.7,24.8,24.3C126.2,136.1,126.5,136.1,126.8,136.1L126.8,136.1z M126.8,136.1"/>
<path class="st0" d="M161.8,60.9c2.1,4.7,3.2,9.8,3.2,15c0,1.9,1.5,3.4,3.4,3.4s3.4-1.5,3.4-3.4c0-6.1-1.3-12.1-3.8-17.7
	c-3.1-7.3-8.1-13.7-14.5-18.5c-1.5-1.1-3.6-0.8-4.7,0.7c-1.1,1.5-0.8,3.6,0.7,4.7C154.9,49.2,159.1,54.7,161.8,60.9L161.8,60.9z
	 M161.8,60.9"/>
<path class="st0" d="M131.2,38.7c3.1,0,6.1,0.5,9.1,1.5c1.8,0.6,3.7-0.3,4.3-2.1c0.6-1.8-0.3-3.7-2.1-4.3c-3.6-1.2-7.4-1.9-11.2-1.9
	c-1.9,0-3.4,1.5-3.4,3.4S129.3,38.7,131.2,38.7L131.2,38.7z M131.2,38.7"/>
<path class="st0" d="M195.5,156.6c-7-2.1-14.6-9.8-20.8-21.1c-0.9-1.6-3-2.2-4.6-1.3c-1.6,0.9-2.2,3-1.3,4.6
	c7.1,12.8,16.1,21.7,24.8,24.3c1.2,0.4,2.4,0.1,3.3-0.7s1.3-2.1,1-3.3C197.6,157.9,196.7,156.9,195.5,156.6L195.5,156.6z
	 M195.5,156.6"/>
<path class="st0" d="M221.2,66.7c-1.5-1.1-3.6-0.8-4.7,0.7c-1.1,1.5-0.8,3.6,0.7,4.7c5.4,4.1,9.7,9.6,12.4,15.8
	c2.1,4.7,3.2,9.8,3.2,15c0,1.9,1.5,3.4,3.4,3.4s3.4-1.5,3.4-3.4c0-6.1-1.3-12.1-3.8-17.7C232.6,78,227.6,71.6,221.2,66.7L221.2,66.7
	z M221.2,66.7"/>
<path class="st0" d="M210.1,60.9c-3.6-1.2-7.4-1.9-11.2-1.9c-1.9,0-3.4,1.5-3.4,3.4s1.5,3.4,3.4,3.4c3.1,0,6.1,0.5,9.1,1.5
	c1.8,0.6,3.7-0.3,4.3-2.1C212.8,63.4,211.9,61.5,210.1,60.9L210.1,60.9z M210.1,60.9"/>
<path class="st0" d="M198.8,45.4L198.8,45.4c-6.9,0-13.6,1.5-19.8,4.3c-8.7-18.7-27.2-30.8-47.8-31.4C102.3,18.4,77,45.2,77,75.9
	c0,26.5,18.2,62.5,42.1,72l-1.4,8.7c-0.2,1,0.1,2,0.8,2.7c0.6,0.8,1.6,1.2,2.6,1.2h5.5l-2.1,6.4c-2.3,6.9-1.3,14.6,2.8,20.6l2.5,3.8
	c2.9,4.3,3.6,9.8,2,14.7L128,217c-0.6,1.8,0.4,3.7,2.1,4.3c1.8,0.6,3.7-0.4,4.3-2.1l3.6-10.9c2.3-6.9,1.3-14.6-2.8-20.6l-2.5-3.8
	c-2.9-4.3-3.6-9.8-2-14.7l2.9-8.6h7.7c1,0,1.9-0.4,2.6-1.2c0.6-0.8,0.9-1.8,0.8-2.7l-1.4-8.7c4.1-1.7,8-3.9,11.4-6.7
	c7.1,14.3,18.3,28.4,32.2,33.9l-1.4,8.6c-0.2,1,0.1,2,0.8,2.7c0.6,0.8,1.6,1.2,2.6,1.2h5.5L192,194c-2.3,6.9-1.3,14.6,2.8,20.6
	l2.5,3.8c0.3,0.4,0.5,0.8,0.8,1.2c0.6,1.1,1.7,1.8,3,1.8c0.6,0,1.1-0.1,1.6-0.4c1.6-0.9,2.2-2.9,1.4-4.6c-0.3-0.6-0.7-1.2-1.1-1.8
	l-2.5-3.8c-2.9-4.3-3.6-9.8-2-14.7l2.8-8.6h7.7c1,0,1.9-0.4,2.6-1.2c0.6-0.8,0.9-1.8,0.8-2.7l-1.4-8.6c9.7-3.8,18.9-12.1,26.7-24.3
	c9.3-14.3,14.6-30.9,15.3-47.9C252.9,72.2,227.6,45.4,198.8,45.4L198.8,45.4z M83.8,75.9c0-27,22.1-50.8,47.4-50.8
	c18.2,0,35.1,11.9,43.1,30.4c2.8,6.4,4.3,13.3,4.3,20.3c0,2.5-0.2,5-0.5,7.4c-0.4,3-1,5.9-1.7,8.8c-3.8,15.5-11.7,29.7-22.9,41.1
	c-4.2,4.2-9.4,7.4-15,9.2c-3.5,1.1-7.3,1.4-10.9,0.8c-1.2-0.2-2.4-0.5-3.6-0.8C101.7,135.8,83.8,100.6,83.8,75.9L83.8,75.9z
	 M125,153.7l0.6-3.9c0.2,0,0.4,0,0.6,0.1c0.2,0,0.5,0.1,0.7,0.1c1.4,0.2,2.7,0.3,4.1,0.3h0.1c1.4,0,2.8-0.1,4.1-0.3
	c0.2,0,0.5-0.1,0.7-0.1c0.2,0,0.4,0,0.6-0.1l0.6,3.9H125z M205,180.8h-12.3l0.6-3.9c0.4,0.1,0.8,0.1,1.1,0.2c0.3,0,0.6,0.1,1,0.1
	c1.1,0.1,2.3,0.2,3.4,0.2h0.1c1.8,0,3.6-0.2,5.4-0.5L205,180.8z M232,147.1c-7.6,11.9-16.8,19.8-26,22.5c-1.1,0.3-2.1,0.6-3.2,0.7
	l-0.5,0.1c-2.3,0.3-4.5,0.3-6.8,0c-0.3,0-0.6-0.1-0.8-0.2c-0.9-0.2-1.8-0.4-2.7-0.6c-13.7-3.9-25.1-18.7-32-33.2
	c0.2-0.2,0.4-0.4,0.6-0.6c0.4-0.4,0.8-0.9,1.3-1.4c0.5-0.5,1-1.1,1.5-1.7c0.4-0.5,0.8-1,1.2-1.5c0.5-0.6,0.9-1.2,1.4-1.8
	c0.4-0.5,0.8-1,1.2-1.6c0.5-0.6,0.9-1.2,1.3-1.9c0.4-0.6,0.8-1.1,1.1-1.7c0.4-0.6,0.8-1.3,1.2-2c0.4-0.6,0.7-1.2,1.1-1.8
	c0.4-0.7,0.8-1.4,1.2-2c0.3-0.6,0.7-1.2,1-1.8c0.4-0.7,0.7-1.4,1.1-2.1c0.3-0.6,0.6-1.3,0.9-1.9c0.3-0.7,0.7-1.4,1-2.2
	c0.3-0.6,0.6-1.3,0.9-1.9c0.3-0.7,0.6-1.5,0.9-2.2c0.3-0.6,0.5-1.3,0.8-1.9c0.3-0.7,0.5-1.5,0.8-2.2c0.2-0.6,0.5-1.3,0.7-1.9
	c0.2-0.8,0.5-1.5,0.7-2.3c0.2-0.6,0.4-1.3,0.6-1.9c0.2-0.8,0.4-1.5,0.6-2.3c0.2-0.6,0.3-1.3,0.5-1.9c0.2-0.8,0.3-1.6,0.5-2.3
	c0.1-0.6,0.3-1.2,0.4-1.8c0.1-0.8,0.3-1.6,0.4-2.4c0.1-0.6,0.2-1.1,0.2-1.7c0.1-0.9,0.2-1.8,0.3-2.7c0-0.5,0.1-0.9,0.1-1.4
	c0.1-1.3,0.1-2.6,0.1-3.9c0-1.8-0.1-3.7-0.3-5.5c-0.1-0.6-0.2-1.2-0.2-1.8c-0.2-1.2-0.3-2.4-0.6-3.7c-0.1-0.7-0.3-1.4-0.5-2.1
	c-0.3-1.1-0.6-2.2-0.9-3.3c-0.2-0.7-0.4-1.4-0.7-2.1c-0.2-0.5-0.3-1-0.5-1.5c5.4-2.4,11.2-3.7,17.1-3.7h0
	c25.2,0,47.4,23.7,47.4,50.7C245.5,118.6,240.6,133.9,232,147.1L232,147.1z M232,147.1"/>
</svg>
