<?xml version="1.0" encoding="utf-8"?>
<!-- Generator: Adobe Illustrator 22.1.0, SVG Export Plug-In . SVG Version: 6.00 Build 0)  -->
<svg version="1.1" id="Warstwa_1" xmlns="http://www.w3.org/2000/svg" xmlns:xlink="http://www.w3.org/1999/xlink" x="0px" y="0px"
	 viewBox="0 0 329 239" style="enable-background:new 0 0 329 239;" xml:space="preserve">
<style type="text/css">
	.st0{fill:#FFFFFF;}
</style>
<path class="st0" d="M275.7,136.7h-2c2-7.3,3.1-15.7,3.1-24.3c0-2.9-0.3-5.4-0.7-7.7c0.1-0.1,0.2-0.3,0.2-0.4
	c8.3-15.9,5.5-35.1-7.1-47.8l-0.2-0.2c-10.8-10.8-27-14-40.9-8.4c-2.1-4.2-5-7.9-8.4-11.1c-14.5-13.2-37-13-51.4,0.3
	c-3.6,3.4-6.6,7.5-8.7,11.9c-6-1.7-11.9-2-18-0.9c-0.3-2.3-0.6-3.8-0.7-4c-0.5-2.3-2.8-3.8-5.1-3.4c-0.6,0.1-13.6,2.2-25.5,9.5
	c-5.2-8.5-11.4-13.9-11.9-14.3c-1.7-1.5-4.2-1.5-6,0c-0.4,0.4-6.6,5.8-11.9,14.3c-12-7.3-24.9-9.4-25.5-9.5
	c-2.4-0.4-4.6,1.1-5.1,3.4c-0.2,1-5.4,23.7,7.4,40.7c3.3,4.4,7.8,8.4,13.3,11.7c-1.2,1.3-2.4,2.7-3.3,4.1
	c-4.4,6.5-5.9,14.1-4.3,21.6l3.1,14.5H52.6c-2.5,0-4.6,2-4.6,4.6v71.7c0,2.5,2,4.5,4.6,4.5h223.2c2.5,0,4.6-2,4.6-4.5v-71.7
	C280.3,138.7,278.3,136.7,275.7,136.7L275.7,136.7z M152.1,126.9c0-16.1,13.1-29.3,29.3-29.3c4.9,0,9.6,1.2,13.8,3.4
	c-1.1,3.2-1.8,6.9-1.8,11.4c0,8.6,1.1,16.9,3.1,24.3h-42.7C152.6,133.6,152.1,130.3,152.1,126.9L152.1,126.9z M205.9,136.7
	c-2.3-7-3.5-15.5-3.5-24.3c0-7.6,2.6-13.1,7.6-16.5c5.2-3.5,11.8-3.6,14-2.6c3,1.3,7.8,2.8,11.1,2.8c3.3,0,8-1.5,11.1-2.8
	c0,0,0,0,0,0c0.3-0.1,0.6-0.2,0.8-0.3c2.7-0.7,8.5-0.5,13.3,2.6c4.9,3.3,7.4,8.9,7.4,16.8c0,8.7-1.2,17.2-3.5,24.3H205.9z
	 M249.2,81.5c-1.3,1.3-3.1,2.3-5.1,2.9c-0.2,0.1-0.4,0.1-0.5,0.2c-3.3,1-7.2,1.2-10.8,1c-0.3-4.4-0.1-12.2,4.1-16.4
	c4-4,11.5-4.4,16.4-4.1C253.5,69.5,253.4,77.3,249.2,81.5L249.2,81.5z M262.8,62.9c8,8.1,10.9,19.6,8.1,30.3
	c-1.8-2.2-3.7-3.9-5.6-5.1c-2.3-1.5-4.7-2.6-7.2-3.3c5-7.7,4.4-18.2,3.9-22.6c0.2,0.2,0.4,0.4,0.6,0.6L262.8,62.9z M132.8,50.6
	c0.7,6.6,0.7,19.1-6.5,28.7c-3,4.1-7.4,7.6-12.9,10.6c2.3-4.7,4.2-10.1,4.2-16.7c0-5.4-1.2-10.4-3.1-15
	C121.1,54.1,128.3,51.8,132.8,50.6L132.8,50.6z M81,99.6c0.1-0.1,0.3-0.2,0.4-0.3c2.1-1.3,4.4-2.3,7-3c4.6-1.2,9.4-1.2,14,0
	c2.6,0.7,4.9,1.7,7,3c0.1,0.1,0.3,0.2,0.4,0.3c7.1,4.7,10.8,12.6,9.1,20.6l-3.5,16.2h-40l-3.5-16.2C70.2,112.2,74,104.3,81,99.6
	L81,99.6z M95.5,45.7c2.6,2.7,6.3,7.2,9.1,12.7c0.1,0.2,0.2,0.5,0.3,0.7c2.1,4.3,3.6,9.1,3.6,14.2c0,5.5-1.8,10-4,14.2
	c-5.9-1.5-12.1-1.5-18,0c-2.2-4.1-4-8.7-4-14.2C82.4,61.3,90.8,50.7,95.5,45.7L95.5,45.7z M64.6,79.3c-7.2-9.6-7.2-22.2-6.5-28.7
	c4.5,1.2,11.7,3.5,18.3,7.7c-1.9,4.6-3.1,9.6-3.1,15c0,6.5,1.9,12,4.2,16.7C72,87,67.7,83.4,64.6,79.3L64.6,79.3z M123.6,100.6
	c-1-1.5-2.1-2.8-3.3-4.1c5.5-3.3,10-7.3,13.3-11.7c6.7-8.9,8.5-19.4,8.6-27.5c6.2-1.4,12.3-0.8,18.4,1.7c1.2,0.5,2.5,0.4,3.6-0.1
	c1.1-0.5,2-1.5,2.4-2.7c1.5-4.7,4.2-9,7.9-12.4c10.9-10.1,28.1-10.2,39.1-0.2c3.6,3.3,6.3,7.4,7.9,12c0.4,1.3,1.4,2.3,2.7,2.8
	c1.3,0.5,2.7,0.4,3.9-0.3c7.4-4.2,16.1-4.7,23.7-2.1c-6.2-0.2-15.4,0.8-21.4,6.8c-5.9,5.9-6.9,15-6.8,21.1
	c-5.3-0.7-12.5,0.5-18.6,4.5c-1.8,1.2-3.6,2.7-5.4,4.8c-5.6-3-11.8-4.6-18.3-4.6c-21.2,0-38.4,17.2-38.4,38.4c0,3.4,0.4,6.6,1.3,9.8
	h-19.5l3.1-14.5C129.4,114.7,127.9,107.1,123.6,100.6L123.6,100.6z M57.1,208.4v-62.6h214.1v25.8H115.9c-2.5,0-4.6,2-4.6,4.5
	c0,2.5,2,4.6,4.6,4.6h155.3v27.7H57.1z M57.1,208.4"/>
</svg>
