<?xml version="1.0" encoding="utf-8"?>
<!-- Generator: Adobe Illustrator 22.1.0, SVG Export Plug-In . SVG Version: 6.00 Build 0)  -->
<svg version="1.1" id="Warstwa_1" xmlns="http://www.w3.org/2000/svg" xmlns:xlink="http://www.w3.org/1999/xlink" x="0px" y="0px"
	 viewBox="0 0 329 239" style="enable-background:new 0 0 329 239;" xml:space="preserve">
<style type="text/css">
	.st0{fill:#FFFFFF;}
</style>
<g>
	<path class="st0" d="M246.7,125h-17.8V67.6L244.1,24c0.4-1.2,0.2-2.5-0.5-3.5c-0.7-1-1.9-1.6-3.1-1.6h-31.8c-1.2,0-2.4,0.6-3.1,1.6
		c-0.7,1-0.9,2.3-0.4,3.5l16.2,43.6V125h-18.8c-2.1,0-3.8,1.7-3.8,3.8v66.3c0,14.3,11.6,25.9,25.9,25.9c14.3,0,25.9-11.6,25.9-25.9
		v-66.3C250.5,126.7,248.8,125,246.7,125z M242.9,132.7v62.5c0,10.1-8.2,18.3-18.3,18.3s-18.3-8.2-18.3-18.3v-62.5H242.9z
		 M214.2,26.6h21L225,55.7L214.2,26.6z"/>
	<path class="st0" d="M168.1,107.3h-6.7v-5.6h0.6c2.1,0,3.8-1.7,3.8-3.8s-1.7-3.8-3.8-3.8h-0.6v-9.4c0-2.1-1.7-3.8-3.8-3.8h-48.6
		c-2.1,0-3.8,1.7-3.8,3.8v9.4h-0.6c-2.1,0-3.8,1.7-3.8,3.8s1.7,3.8,3.8,3.8h0.6v5.6h-6.7c-5.7,0-11,2.5-14.7,6.8s-5.2,10-4.3,15.6
		l14.7,88.1c0.3,1.8,1.9,3.2,3.8,3.2h70.7c1.9,0,3.5-1.3,3.8-3.2l14.7-88.1c0.9-5.6-0.6-11.3-4.3-15.6
		C179.2,109.8,173.8,107.3,168.1,107.3z M153.9,107.3h-31.5c-2.1,0-3.8,1.7-3.8,3.8s1.7,3.8,3.8,3.8h45.8c3.4,0,6.7,1.5,8.9,4.1
		c2.2,2.6,3.2,6.1,2.6,9.4l-14.1,84.9h-64.3l-14.1-84.9c-0.6-3.4,0.4-6.8,2.6-9.4c2.2-2.6,5.5-4.1,8.9-4.1h10.5
		c2.1,0,3.8-1.7,3.8-3.8v-9.4h41V107.3z M112.9,94.1v-5.6h41v5.6H112.9z"/>
</g>
</svg>
