<?xml version="1.0" encoding="utf-8"?>
<!-- Generator: Adobe Illustrator 22.1.0, SVG Export Plug-In . SVG Version: 6.00 Build 0)  -->
<svg version="1.1" id="Warstwa_1" xmlns="http://www.w3.org/2000/svg" xmlns:xlink="http://www.w3.org/1999/xlink" x="0px" y="0px"
	 viewBox="0 0 329 239" style="enable-background:new 0 0 329 239;" xml:space="preserve">
<style type="text/css">
	.st0{fill:#FFFFFF;}
</style>
<g>
	<path class="st0" d="M209.7,87l-20.4-40.4v-9.3h1.1c1.9,0,3.4-1.5,3.4-3.4V20.4c0-1.9-1.5-3.4-3.4-3.4h-48.7
		c-1.9,0-3.4,1.5-3.4,3.4v13.5c0,1.9,1.5,3.4,3.4,3.4h1.1v9.3L122.4,87c-2.5,4.9-4.4,13-4.4,18.5v110.4c0,6.8,5.5,12.4,12.4,12.4
		h71.3c6.8,0,12.4-5.5,12.4-12.4V105.5C214.1,100,212.1,91.9,209.7,87L209.7,87z M145.1,23.7H187v6.7h-41.9V23.7z M149.2,48.9
		c0.2-0.5,0.4-1,0.4-1.5V37.2h32.9v10.1c0,0.5,0.1,1,0.4,1.5l12.8,25.4c-2.4,0.8-4.1,2.1-5.6,3.2c-2,1.5-3.4,2.6-6.7,2.6
		c-3.2,0-4.7-1.1-6.7-2.6c-2.3-1.7-5.2-3.9-10.7-3.9s-8.4,2.2-10.7,3.9c-2,1.5-3.4,2.6-6.7,2.6c-3.2,0-4.7-1.1-6.7-2.6
		c-1.5-1.1-3.2-2.4-5.6-3.2L149.2,48.9z M207.3,215.9c0,3.1-2.5,5.6-5.6,5.6h-71.3c-3.1,0-5.6-2.5-5.6-5.6V105.5
		c0-4.4,1.7-11.5,3.7-15.5l4.8-9.6c1.9,0.4,3.1,1.3,4.7,2.4c2.3,1.7,5.2,3.9,10.7,3.9c5.5,0,8.4-2.2,10.7-3.9c2-1.5,3.4-2.6,6.7-2.6
		s4.7,1.1,6.7,2.6c2.3,1.7,5.2,3.9,10.7,3.9c5.5,0,8.4-2.2,10.7-3.9c1.5-1.1,2.7-2.1,4.7-2.4l4.8,9.6c2,4,3.7,11.1,3.7,15.5V215.9z
		 M207.3,215.9"/>
	<path class="st0" d="M134.9,194.6c-1.9,0-3.4,1.5-3.4,3.4v13.5c0,1.9,1.5,3.4,3.4,3.4c1.9,0,3.4-1.5,3.4-3.4V198
		C138.2,196.1,136.7,194.6,134.9,194.6L134.9,194.6z M134.9,194.6"/>
	<path class="st0" d="M139,91.6c-1.7-0.8-3.7-0.2-4.5,1.5c-1.5,3-3,9.1-3,12.5v79c0,1.9,1.5,3.4,3.4,3.4c1.9,0,3.4-1.5,3.4-3.4v-79
		c0-2.3,1.2-7.4,2.2-9.4C141.3,94.4,140.6,92.4,139,91.6L139,91.6z M139,91.6"/>
	<path class="st0" d="M159.7,50.7h12.7c1.9,0,3.4-1.5,3.4-3.4c0-1.9-1.5-3.4-3.4-3.4h-12.7c-1.9,0-3.4,1.5-3.4,3.4
		C156.3,49.2,157.8,50.7,159.7,50.7L159.7,50.7z M159.7,50.7"/>
</g>
</svg>
