<?xml version="1.0" encoding="utf-8"?>
<!-- Generator: Adobe Illustrator 22.1.0, SVG Export Plug-In . SVG Version: 6.00 Build 0)  -->
<svg version="1.1" id="Warstwa_1" xmlns="http://www.w3.org/2000/svg" xmlns:xlink="http://www.w3.org/1999/xlink" x="0px" y="0px"
	 viewBox="0 0 329 239" style="enable-background:new 0 0 329 239;" xml:space="preserve">
<style type="text/css">
	.st0{fill:#FFFFFF;}
</style>
<path class="st0" d="M240.8,128.4c0-15.5-8.2-31.2-22.4-43.1c-8.4-7-18.1-12.2-28.9-15.5l-0.3-0.1l-0.2-0.2
	c-3.5-2.6-14.2-12.6-6.6-31.6c0.4-1,0.2-2.1-0.5-3c-0.8-0.8-1.8-1.2-2.8-0.9c-0.8,0.2-7.7,2.1-13.2,7.9l-1.1,1.2l-1.1-1.2
	c-5.4-5.8-12.4-7.7-13.2-7.9c-1.1-0.3-2.1,0.1-2.7,0.9l-0.1,0.1c-0.7,0.7-0.8,1.9-0.4,2.9c7.6,19-3.1,29-6.6,31.6l-0.2,0.2l-0.3,0.1
	c-10.6,3.1-20.3,8.4-28.9,15.5c-14.2,11.9-22.4,27.6-22.4,43.1c0,15.4,8,29.9,22.5,40.8c11.6,8.6,26.1,14.1,42.2,15.9l2.6,0.3
	l-1.6,2.1c-2.9,3.9-7.3,6.8-9.5,7.9c-0.6,0.3-1.1,0.9-1.4,1.6c-0.2,0.7-0.2,1.5,0.2,2.1c0.5,1,1.5,1.6,2.6,1.6
	c0.4,0,0.8-0.1,1.4-0.4c0,0,6.8-3.4,11.3-9.5l2.7-3.6v17c0,1.6,1.2,2.8,2.8,2.8c1.6,0,2.8-1.2,2.8-2.8v-17l2.7,3.6
	c4.6,6.1,11.3,9.5,11.4,9.6c1.6,0.8,3.2,0.1,3.9-1.3c0.3-0.7,0.4-1.4,0.2-2.1c-0.2-0.7-0.7-1.3-1.4-1.6c-2.2-1.2-6.6-4.1-9.4-7.8
	l-1.6-2.1l2.6-0.3c16-1.8,30.6-7.3,42.2-15.9C232.8,158.4,240.8,143.9,240.8,128.4z M125.6,171.1c-19.2-9.7-30.7-25.7-30.7-42.7
	c0-13.9,7.4-28,20.3-38.8c7.1-6,15.4-10.6,24.8-13.8l10.1-3.4l-8.8,6.1c-6.8,4.7-12.8,10-17.7,15.6c-10.4,11.8-15.9,24.4-15.9,36.4
	c0,15,6.6,27.8,19.5,38.1l11.5,9.1L125.6,171.1z M143.2,171.9c-13.6-6.9-29.8-19.7-29.8-41.4c0-17.6,13.9-37,36.2-50.6l5.8-3.5
	l-3.7,5.6c-10.2,15.4-21.7,38.5-18.3,61.6l0,0c1.3,9.5,5.3,18.3,11.7,26.1l4.6,5.5L143.2,171.9z M162.2,177.7l-2.4-1.9
	c-11.9-9.2-18.9-20.3-20.8-33.1c-3.5-24.2,11.3-49.2,20.5-62l2.7-3.8V177.7z M165,66.2h-0.1c-4,0-7.9,0.3-11.1,0.7l-2.9,0.3l1.4-2.5
	c2.2-3.9,4.5-10.4,3.1-19.1l-0.6-3.8l3,2.4c1.8,1.4,3.2,3.2,4.4,5.2c0.5,0.9,1.5,1.5,2.6,1.4l0.1,0l0.1,0c1.1,0.1,2.1-0.5,2.6-1.4
	c1.1-1.9,2.4-3.6,4.3-5.2l3.1-2.6l-0.6,4c-1,7,0,13.4,3.1,19.2l1.4,2.6l-2.9-0.4C172.6,66.4,169,66.2,165,66.2z M170.2,175.8
	l-2.4,1.8V76.9l2.7,3.8c9.1,12.8,23.9,37.9,20.5,62C189.1,155.6,182.1,166.7,170.2,175.8z M190.9,169.7c-1.4,0.8-2.8,1.6-4.3,2.3
	l-6.4,3.2l4.6-5.5c6.3-7.6,10.3-16.4,11.8-26.2c3.4-22.9-8-46.1-18.2-61.6l-3.7-5.6l5.7,3.5c22.3,13.6,36.2,33,36.2,50.6
	C216.6,146.6,207.9,159.8,190.9,169.7L190.9,169.7z M204.4,171l-12.8,6.4l11.2-8.9c13-10.3,19.5-23.1,19.5-38.1
	c0-12.1-5.5-24.7-15.9-36.4c-4.9-5.6-10.9-10.8-17.7-15.6l-8.5-5.8l9.8,3.2c9,2.9,17.3,7.6,24.8,13.8c12.9,10.9,20.3,25,20.3,38.8
	C235.1,145.4,223.6,161.4,204.4,171z"/>
</svg>
