<?xml version="1.0" encoding="utf-8"?>
<!-- Generator: Adobe Illustrator 22.1.0, SVG Export Plug-In . SVG Version: 6.00 Build 0)  -->
<svg version="1.1" id="Warstwa_1" xmlns="http://www.w3.org/2000/svg" xmlns:xlink="http://www.w3.org/1999/xlink" x="0px" y="0px"
	 viewBox="0 0 329 239" style="enable-background:new 0 0 329 239;" xml:space="preserve">
<style type="text/css">
	.st0{fill:#FFFFFF;}
</style>
<g>
	<path class="st0" d="M262.4,57.5L262.4,57.5c-1.6-19.4-17.5-34.7-37-35.6c-5.4-0.2-10.7,0.6-15.6,2.5c-5.8,2.2-12.6,3.3-21.6,3.3
		h-2.8c-8.6,0-15.5-1.1-21.6-3.5c-5.1-2-10.3-2.8-15.6-2.6c-19.5,0.7-35.5,15.9-37.3,35.2c0,0.1,0,0.2,0,0.3c-2.4-0.4-4.7-0.5-7-0.4
		c-19.6,0.7-35.6,15.9-37.3,35.3c-1.1,13.4,4.1,25.7,14.5,33.9l-0.4,76.4c0,8.1,6.6,14.8,14.7,14.9l92.6,0.4
		c8.2,0,14.8-6.6,14.8-14.7l0.1-20.8l29.4,0.1c8.1,0,14.8-6.6,14.9-14.7l0.4-76.3C257.9,83.2,263.4,70.7,262.4,57.5z M238.5,145.4
		c0-0.2,0-0.4,0-0.7l0-0.1c-0.5-2.3-2.8-3.9-5.1-3.5l-2.4,0.4c-2.4,0.4-4,2.6-3.7,5c0.4,2.2,2.2,3.7,4.4,3.7h0.6l2.5-0.4
		c1.2-0.2,2.2-0.8,2.9-1.7c0.5-0.7,0.8-1.5,0.8-2.3l-0.1,21.8c0,1.6-0.6,3.1-1.8,4.2c-1.1,1.1-2.6,1.7-4.2,1.7l-29.4-0.1l0.1-22.3
		c0.7,1.4,2.2,2.3,3.9,2.3h0.6l2.5-0.4c1.1-0.1,2-0.7,2.7-1.5c0.8-1,1.1-2.2,0.9-3.5v0c-0.4-2.4-2.6-4-5-3.7l-2.4,0.4
		c-1.2,0.2-2.2,0.8-2.9,1.7c-0.1,0.2-0.2,0.3-0.3,0.5l0.1-20.4c10.3-8,15.8-20.6,14.8-33.9c-1.6-19.5-17.5-34.8-37-35.6
		c-5.4-0.2-10.7,0.6-15.6,2.5c-5.8,2.2-12.6,3.3-21.6,3.3H141c-8.6,0-15.4-1.1-21.5-3.4c0-0.6,0-1.1,0.1-1.7
		c1.3-14.7,14-26.7,28.9-27.3c4-0.2,8.2,0.5,12.1,2.1c7,2.7,15.1,4,24.7,4h2.8c10.1,0,18-1.2,24.7-3.8c3.8-1.5,7.9-2.2,12.1-2
		c14.8,0.7,27.4,12.8,28.6,27.6c0.9,10.8-3.9,20.9-12.8,27.1c-1.1,0.8-1.9,2.2-1.9,3.6L238.5,145.4z M188.1,208.9l-92.6-0.4
		c-3.3,0-6-2.7-6-6l0.4-78.7c0-1.3-0.6-2.6-1.7-3.5l-0.1-0.1c-8.9-6.3-13.6-16.5-12.7-27.4c1.3-14.8,14-26.8,28.9-27.3
		c0.4,0,0.8,0,1.2,0c3.6,0,7.3,0.7,10.9,2.1c7.1,2.8,15,4,24.7,4h2.8c10.1,0,18-1.2,24.7-3.8c3.8-1.5,7.9-2.2,12.1-2
		c14.8,0.7,27.4,12.8,28.6,27.6c0.9,10.9-4,21-12.9,27.2c-1.1,0.8-1.9,2.2-1.9,3.6l-0.4,78.7C194.1,206.2,191.4,208.9,188.1,208.9z"
		/>
	<path class="st0" d="M232.5,66.2c0.6-1,0.8-2.2,0.5-3.4c-0.3-1.1-1-2.1-1.9-2.7c-1-0.6-2.2-0.8-3.4-0.5c-1.1,0.3-2.1,1-2.7,2
		l-1.3,2.1c-1.3,2-0.7,4.7,1.4,6.1l0.2,0.1c0.5,0.3,1.2,0.6,2.1,0.6h0.1l0.1,0c1.4-0.2,2.7-0.9,3.5-2L232.5,66.2z"/>
	<path class="st0" d="M206,51.8c-0.5-2.3-2.8-3.9-5.1-3.5l-2.4,0.4c-2.4,0.4-4,2.6-3.7,5c0.4,2.2,2.2,3.7,4.4,3.7h0.6l2.5-0.4
		c1.2-0.2,2.2-0.8,2.9-1.7c0.7-0.9,1-2.1,0.8-3.3L206,51.8z"/>
	<path class="st0" d="M222.5,55.7c0.9,0.7,1.8,1,2.8,1c1.4,0,2.6-0.6,3.4-1.7l1.5-1.8c1.6-1.8,1.4-4.5-0.5-6.2l-0.1-0.1
		c-1.8-1.5-4.5-1.2-6.2,0.6l-1.6,1.9C220.3,51.2,220.5,53.9,222.5,55.7L222.5,55.7z"/>
	<path class="st0" d="M218.5,66.5l1.4-2.3c1.3-2,0.7-4.7-1.4-6.1c-1-0.6-2.2-0.8-3.4-0.5c-1.1,0.3-2.1,1-2.7,2l-1.3,2.1
		c-0.6,1-0.8,2.2-0.5,3.4c0.3,1.1,1,2.1,1.9,2.7l0.2,0.1c0.5,0.3,1.2,0.6,2.1,0.6h0.1l0.1,0C216.5,68.3,217.8,67.6,218.5,66.5z"/>
	<path class="st0" d="M154.8,50.9L154.8,50.9c-0.4-2.5-2.6-4.2-5-3.8c-2.5,0.4-4.1,2.6-3.8,4.9l0.3,2.4c0.2,2.2,2.1,3.9,4.4,3.9h0.5
		l0.2,0c2.5-0.4,4.1-2.6,3.8-4.9L154.8,50.9z"/>
	<path class="st0" d="M134.7,52l0.2,0c2.3-0.4,4-2.5,3.8-4.8l-0.3-2.6c-0.4-2.4-2.5-4.1-4.9-3.8c-1.1,0.1-2.2,0.7-2.9,1.6
		c-0.8,1-1.1,2.2-0.9,3.3l0.3,2.4c0.2,2.2,2.1,3.9,4.4,3.9H134.7z"/>
	<path class="st0" d="M166.7,45.4l-2.4,0.4c-1.2,0.2-2.2,0.8-2.9,1.7c-0.7,0.9-1,2.1-0.8,3.3c0.4,2.2,2.2,3.7,4.4,3.7h0.6l2.5-0.4
		c1.2-0.2,2.2-0.8,2.9-1.7c0.7-0.9,1-2.1,0.8-3.3C171.4,46.7,169.2,45.1,166.7,45.4z"/>
	<path class="st0" d="M200.6,43.6L200.6,43.6c-0.4-2.4-2.6-4-5-3.7l-2.4,0.4c-1.2,0.2-2.2,0.8-2.9,1.7c-0.7,0.9-1,2.1-0.8,3.3
		c0.4,2.2,2.2,3.7,4.4,3.7h0.6l2.6-0.4C199.4,48.2,201,46,200.6,43.6z"/>
	<path class="st0" d="M138.7,53.6l-2.4,0.4c-1.2,0.2-2.2,0.8-2.9,1.7c-0.7,0.9-1,2.1-0.8,3.3c0.4,2.2,2.2,3.7,4.4,3.7h0.6l2.5-0.4
		c2.4-0.4,4-2.6,3.7-5C143.4,54.9,141.2,53.3,138.7,53.6z"/>
	<path class="st0" d="M150,41.7c0.8-1,1.1-2.2,0.9-3.5c-0.2-1.2-0.8-2.2-1.7-2.9c-0.9-0.7-2.1-1-3.3-0.8l-2.4,0.4
		c-1.2,0.2-2.2,0.8-2.9,1.7c-0.7,0.9-1,2.1-0.8,3.3c0.4,2.2,2.2,3.7,4.4,3.7h0.6l2.5-0.4C148.3,43.1,149.3,42.5,150,41.7z"/>
	<path class="st0" d="M163.5,43.8c1.1-0.1,2-0.7,2.7-1.5c0.8-1,1.1-2.2,0.9-3.5v0c-0.4-2.4-2.6-4-5-3.7l-2.4,0.4
		c-1.2,0.2-2.2,0.8-2.9,1.7c-0.7,0.9-1,2.1-0.8,3.3c0.4,2.2,2.2,3.7,4.4,3.7h0.6L163.5,43.8z"/>
	<path class="st0" d="M233.5,87.1c2.4-0.4,4-2.6,3.7-5c-0.2-1.2-0.8-2.2-1.7-2.9c-0.9-0.7-2.1-1-3.3-0.8l-2.4,0.4
		c-1.2,0.2-2.3,0.8-3,1.8c-0.7,0.9-1,2.1-0.8,3.2l0,0c0.2,1,0.7,1.9,1.4,2.5c0,0-0.1,0-0.1,0c-1.1,0.1-2.2,0.7-3,1.6l-1.6,1.9
		c-1.5,1.8-1.2,4.5,0.5,6.1l0.1,0.1c0.9,0.7,1.8,1,2.8,1c1.4,0,2.6-0.6,3.4-1.7l1.5-1.8c0.8-0.9,1.3-2,1.2-3.2
		c-0.1-1.1-0.6-2.2-1.5-3h0.3L233.5,87.1z"/>
	<path class="st0" d="M239.5,73.3h0.6l2.5-0.4c2.4-0.4,4-2.6,3.7-5c-0.4-2.4-2.6-4-5.1-3.7l-2.4,0.4c-2.4,0.4-4,2.6-3.7,5
		C235.5,71.8,237.3,73.3,239.5,73.3z"/>
	<path class="st0" d="M240.7,57.2h0.6l2.5-0.4c2.4-0.4,4-2.6,3.7-5c-0.4-2.4-2.6-4-5.1-3.7l-2.4,0.4c-1.2,0.2-2.2,0.8-2.9,1.7
		c-0.7,0.9-1,2.1-0.8,3.3C236.7,55.7,238.5,57.2,240.7,57.2z"/>
	<path class="st0" d="M184.3,46.6L184.3,46.6c-1.7-1.9-4.5-2-6.3-0.4c-0.9,0.8-1.4,1.9-1.5,3c-0.1,1.2,0.3,2.3,1.1,3.1l1.6,1.9
		l0.1,0.1c0.9,0.9,2,1.4,3.2,1.4c1,0,2-0.3,2.8-1l0.1-0.1c0.9-0.8,1.4-1.9,1.5-3c0.1-1.2-0.3-2.3-1.1-3.1L184.3,46.6z"/>
	<path class="st0" d="M213.4,49.1l1.5-1.8c0.9-1,1.3-2.2,1.2-3.4c-0.1-1.2-0.7-2.2-1.7-2.9c-1.8-1.4-4.5-1.2-6.1,0.6l-1.6,1.8
		c-0.8,0.9-1.2,2.1-1.1,3.3c0.1,1.1,0.7,2.2,1.5,2.9l0.1,0.1c0.9,0.7,1.8,1,2.7,1C211.4,50.8,212.6,50.2,213.4,49.1z"/>
	<path class="st0" d="M226.9,43.5h0.6l2.5-0.4c2.4-0.4,4-2.6,3.7-5c-0.2-1.2-0.8-2.2-1.7-2.9c-0.9-0.7-2.1-1-3.3-0.8l-2.4,0.4
		c-1.2,0.2-2.2,0.8-2.9,1.7c-0.7,0.9-1,2.1-0.8,3.2C222.9,41.9,224.7,43.5,226.9,43.5z"/>
	<path class="st0" d="M219.6,78.5l2.3,0.9l0.1,0c0.4,0.1,0.9,0.3,1.5,0.3c1.9,0,3.5-1.1,4.1-2.8c0.4-1.1,0.4-2.2,0-3.3
		c-0.5-1.1-1.3-1.9-2.4-2.4l-2.3-0.9c-2.2-0.9-4.8,0.1-5.7,2.4C216.3,75,217.4,77.5,219.6,78.5z"/>
	<path class="st0" d="M227.9,162.3c0.7,0.7,1.8,1.1,2.9,1.1c1.4,0,2.6-0.6,3.4-1.7l1.5-1.8c1.6-1.8,1.4-4.5-0.5-6.2l-0.1-0.1
		c-0.9-0.7-2-1-3.1-1c-1.2,0.1-2.2,0.6-3,1.5l-1.6,1.9C226,158,226.2,160.7,227.9,162.3z"/>
	<path class="st0" d="M212.2,154.7c-1.2,0.1-2.3,0.7-3,1.6l-1.5,1.8c-0.8,0.9-1.2,2.1-1.1,3.3c0.1,1.1,0.6,2.1,1.5,2.9
		c0.7,0.7,1.8,1.1,2.9,1.1c1.4,0,2.6-0.6,3.4-1.7l1.5-1.8c0.8-0.9,1.2-2.1,1.1-3.3c-0.1-1.1-0.7-2.2-1.5-2.9
		C214.5,154.9,213.4,154.6,212.2,154.7z"/>
	<path class="st0" d="M220.7,144l-2.4,0.4c-2.4,0.4-4,2.6-3.7,5c0.4,2.2,2.2,3.7,4.4,3.7h0.6l2.5-0.4c1.1-0.1,2-0.7,2.7-1.5
		c0.8-1,1.1-2.2,0.9-3.5v0C225.3,145.3,223.1,143.7,220.7,144z"/>
	<path class="st0" d="M229.8,132.8c-0.9-0.8-2.1-1.2-3.3-1.1c-1.1,0.1-2.2,0.7-3,1.6l-1.6,1.9c-1.6,1.8-1.4,4.5,0.5,6.2l0.1,0.1
		c0.9,0.7,1.8,1,2.7,1c1.4,0,2.6-0.6,3.4-1.7l1.5-1.8c0.8-0.8,1.2-1.9,1.2-3C231.2,134.8,230.7,133.7,229.8,132.8L229.8,132.8z"/>
	<path class="st0" d="M216.8,127.8c1.2,0,2.3-0.4,3.1-1.3l1.7-1.7c1.7-1.7,1.7-4.5,0-6.2c-1.7-1.7-4.5-1.7-6.2,0l-1.7,1.7
		c-1.7,1.7-1.7,4.5,0,6.2C214.5,127.4,215.6,127.8,216.8,127.8z"/>
	<path class="st0" d="M238.5,121.8c-0.5-2.3-2.8-3.9-5.1-3.5l-2.4,0.4c-1.2,0.2-2.2,0.8-2.9,1.7c-0.7,0.9-1,2.1-0.8,3.3
		c0.4,2.2,2.2,3.7,4.4,3.7h0.6l2.5-0.4c1.2-0.2,2.2-0.8,2.9-1.7c0.7-0.9,1-2.1,0.8-3.3L238.5,121.8z"/>
	<path class="st0" d="M224.6,108.8c-0.7,0.9-1,2.1-0.9,3.2c0.1,1.2,0.7,2.2,1.6,2.9c0.7,0.7,1.8,1.1,2.8,1.1c1.4,0,2.6-0.6,3.4-1.7
		l1.6-1.9c1.5-1.8,1.2-4.5-0.5-6.1c-1.8-1.6-4.5-1.4-6.3,0.5l-1.6,1.9L224.6,108.8z"/>
	<path class="st0" d="M215.3,140c1.9-1.5,2.2-4.2,0.7-6.2l-1.5-1.9c-1.5-1.9-4.2-2.2-6.2-0.7c-1.9,1.5-2.2,4.2-0.7,6.2l1.5,1.9l0,0
		c0.9,1,2.1,1.6,3.4,1.6c0.8,0,1.6-0.3,2.5-0.8L215.3,140z"/>
	<path class="st0" d="M225.2,163.2c-1.5-1.9-4.2-2.2-6.2-0.7c-1.9,1.5-2.2,4.2-0.7,6.2l1.5,1.9c0.9,1,2.1,1.6,3.4,1.6
		c0.8,0,1.6-0.3,2.5-0.8l0.2-0.2c1.9-1.5,2.2-4.2,0.7-6.2L225.2,163.2z"/>
	<path class="st0" d="M238.5,99c-0.5-2.3-2.8-3.9-5.1-3.5l-2.4,0.4c-1.2,0.2-2.2,0.8-2.9,1.7c-0.7,0.9-1,2.1-0.8,3.3
		c0.4,2.2,2.2,3.7,4.4,3.7h0.6l2.5-0.4c1.2-0.2,2.2-0.8,2.9-1.7c0.7-0.9,1-2.1,0.8-3.3L238.5,99z"/>
</g>
</svg>
