<?xml version="1.0" encoding="utf-8"?>
<!-- Generator: Adobe Illustrator 22.1.0, SVG Export Plug-In . SVG Version: 6.00 Build 0)  -->
<svg version="1.1" id="Warstwa_1" xmlns="http://www.w3.org/2000/svg" xmlns:xlink="http://www.w3.org/1999/xlink" x="0px" y="0px"
	 viewBox="0 0 329 239" style="enable-background:new 0 0 329 239;" xml:space="preserve">
<style type="text/css">
	.st0{fill:#FFFFFF;}
</style>
<g>
	<path class="st0" d="M275.4,57.9l-44.2-44.2c-2.9-2.9-7.5-2.9-10.4,0l-35.2,35.2c-0.3,0.3-0.8,0.3-1.2,0v0c-1.6-1.6-4.1-1.6-5.6,0
		L53.1,174.6c-2.3,2.3-2.3,5.9,0,8.2l51.6,51.6c3.1,3.1,8.2,3.1,11.4,0l8-8l116.2-116.2c1.6-1.6,1.6-4.1,0-5.7l0,0
		c-0.3-0.3-0.3-0.8,0-1.2l35.2-35.2C278.3,65.4,278.3,60.8,275.4,57.9z M231.2,27.4l19.3,19.3c0.5,0.5,0.2,1.4-0.6,1.4l0,0
		c-1.2,0-2.5,0.5-3.4,1.4c-0.9,0.9-1.4,2.2-1.4,3.4v8c0,0.5-0.4,0.8-0.8,0.8h-8c-1.2,0-2.5,0.5-3.4,1.4c-0.9,0.9-1.4,2.2-1.4,3.4v8
		c0,0.5-0.4,0.8-0.8,0.8h-8c-1.2,0-2.5,0.5-3.4,1.4c-0.9,0.9-1.4,2.2-1.4,3.4v0c0,0.7-0.9,1.1-1.4,0.6l-23.9-23.9
		c-0.3-0.3-0.3-0.8,0-1.2l28.3-28.3C223.7,24.5,228.3,24.5,231.2,27.4z M104.7,220.8L102,218c-0.3-0.3-0.3-0.8-0.1-1.1
		c1.4-1.9,1.2-4.6-0.5-6.3c-1.7-1.7-4.4-1.9-6.3-0.5c-0.3,0.2-0.8,0.2-1.1-0.1l-5.7-5.7c-0.3-0.3-0.3-0.8-0.1-1.1
		c1.4-1.9,1.2-4.6-0.5-6.3c-1.7-1.7-4.4-1.9-6.3-0.5c-0.3,0.2-0.8,0.2-1.1-0.1l-5.7-5.7c-0.3-0.3-0.3-0.8-0.1-1.1
		c1.4-1.9,1.2-4.6-0.5-6.3c-1.7-1.7-4.4-1.9-6.3-0.5c-0.3,0.2-0.8,0.2-1.1-0.1h0c-2.3-2.3-2.3-5.9,0-8.2l2.2-2.2
		c0.3-0.3,0.8-0.3,1.2,0l46.6,46.6c0.3,0.3,0.3,0.8,0,1.2l-0.6,0.6C113,223.9,107.9,223.9,104.7,220.8z M123.5,212.2l-46.6-46.6
		c-0.3-0.3-0.3-0.8,0-1.2L181.1,60.3c0.3-0.3,0.8-0.3,1.2,0l46.6,46.6c0.3,0.3,0.3,0.8,0,1.2L124.7,212.2
		C124.3,212.5,123.8,212.5,123.5,212.2z M227.4,91.5v-5.6c0-0.5,0.4-0.8,0.8-0.8h8c1.2,0,2.5-0.5,3.4-1.4c0.9-0.9,1.4-2.2,1.4-3.4
		v-8c0-0.5,0.4-0.8,0.8-0.8h8v0c1.2,0,2.5-0.5,3.4-1.4c0.9-0.9,1.4-2.2,1.4-3.4v-8c0-0.5,0.4-0.8,0.8-0.8h5.6c0.2,0,0.4,0.1,0.6,0.2
		v0c2.9,2.9,2.9,7.5,0,10.3l-28.4,28.4c-0.3,0.3-0.8,0.3-1.2,0l-4.6-4.6C227.5,91.9,227.4,91.7,227.4,91.5z M227.4,91.8"/>
	<path class="st0" d="M188.3,85.1c-1.9-1.9-4.9-1.9-6.8,0l-71.6,71.6c-1.9,1.9-1.9,4.9,0,6.8c1.9,1.9,4.9,1.9,6.8,0l71.6-71.6
		C190.2,90,190.2,87,188.3,85.1L188.3,85.1z M188.3,85.1"/>
	<path class="st0" d="M188.3,112.4c-1.9-1.9-4.9-1.9-6.8,0l-44.3,44.3c-1.9,1.9-1.9,4.9,0,6.8c1.9,1.9,4.9,1.9,6.8,0l44.3-44.3
		C190.2,117.3,190.2,114.3,188.3,112.4L188.3,112.4z M188.3,112.4"/>
</g>
</svg>
