<?xml version="1.0" encoding="utf-8"?>
<!-- Generator: Adobe Illustrator 22.1.0, SVG Export Plug-In . SVG Version: 6.00 Build 0)  -->
<svg version="1.1" id="Warstwa_1" xmlns="http://www.w3.org/2000/svg" xmlns:xlink="http://www.w3.org/1999/xlink" x="0px" y="0px"
	 viewBox="0 0 329 239" style="enable-background:new 0 0 329 239;" xml:space="preserve">
<style type="text/css">
	.st0{fill:#FFFFFF;}
</style>
<path class="st0" d="M225.9,99.5h-54.7c-0.6,0-1.1-0.5-1.1-1.1V80.5c0-0.6,0.5-1.1,1.1-1.1h0c18,0,32.6-14.6,32.6-32.6V32.9
	c0-0.6-0.5-1.1-1.1-1.1h-11.5c-10.4,0-19.7,5.1-25.4,12.9c-0.4,0.6-1.3,0.6-1.8,0c-5.7-7.8-15-12.9-25.4-12.9h-11.5
	c-0.6,0-1.1,0.5-1.1,1.1v13.9c0,18,14.6,32.6,32.6,32.6h0c0.6,0,1.1,0.5,1.1,1.1v17.9c0,0.6-0.5,1.1-1.1,1.1H104
	c-0.6,0-1.1,0.5-1.1,1.1v30.8c0,0.6,0.5,1.1,1.1,1.1h11.5c0.6,0,1,0.4,1.1,1l8.5,74.5c0.1,0.6,0.5,1,1.1,1h77.5c0.6,0,1-0.4,1.1-1
	l8.5-74.5c0.1-0.6,0.5-1,1.1-1h11.5c0.6,0,1.1-0.5,1.1-1.1v-30.8C227,100,226.5,99.5,225.9,99.5z M191.2,42.2h1.1
	c0.6,0,1.1,0.5,1.1,1.1v3.5c0,12.3-10,22.2-22.2,22.2h0c-0.6,0-1.1-0.5-1.1-1.1v-4.6C170.1,51.7,179.6,42.2,191.2,42.2L191.2,42.2z
	 M158.6,69c-12.3,0-22.2-10-22.2-22.2v-3.5c0-0.6,0.5-1.1,1.1-1.1h0c12.3,0,22.2,10,22.2,22.2v3.5C159.7,68.5,159.2,69,158.6,69
	L158.6,69z M194.4,198.6h-59c-0.6,0-1-0.4-1.1-1l-7.3-63.9c-0.1-0.7,0.4-1.2,1.1-1.2h73.5c0.7,0,1.2,0.6,1.1,1.2l-7.3,63.9
	C195.4,198.2,195,198.6,194.4,198.6z M215.5,122.1H114.3c-0.6,0-1.1-0.5-1.1-1.1V111c0-0.6,0.5-1.1,1.1-1.1h101.2
	c0.6,0,1.1,0.5,1.1,1.1V121C216.6,121.6,216.1,122.1,215.5,122.1z M216.6,122.1"/>
</svg>
