<?xml version="1.0" encoding="utf-8"?>
<!-- Generator: Adobe Illustrator 22.1.0, SVG Export Plug-In . SVG Version: 6.00 Build 0)  -->
<svg version="1.1" id="Warstwa_1" xmlns="http://www.w3.org/2000/svg" xmlns:xlink="http://www.w3.org/1999/xlink" x="0px" y="0px"
	 viewBox="0 0 329 239" style="enable-background:new 0 0 329 239;" xml:space="preserve">
<style type="text/css">
	.st0{fill:#FFFFFF;}
</style>
<path class="st0" d="M257.1,208.4l-2.4-2.4c0.8-1.5,0.9-3.2,0.4-4.7l-12.5-37.6c0,0,0-0.1-0.1-0.1c-0.1-0.2-0.2-0.4-0.3-0.5
	c-0.1-0.2-0.2-0.3-0.3-0.5c0,0,0-0.1,0-0.1l-85.3-85.3L115,35.6c-9.7-9.7-25.3-9.7-35,0c-9.7,9.7-9.7,25.3,0,35l41.6,41.6l76.6,76.6
	l8.7,8.7c0,0,0.1,0,0.1,0.1c0.2,0.1,0.3,0.2,0.5,0.3c0.2,0.1,0.3,0.2,0.5,0.3c0,0,0.1,0,0.1,0l37.6,12.5c1.6,0.5,3.3,0.4,4.7-0.4
	l2.4,2.4c1.2,1.2,3.1,1.2,4.3,0C258.3,211.5,258.3,209.6,257.1,208.4z M84.3,66.2c-3.5-3.5-5.5-8.2-5.4-13.1
	c0-7.5,4.5-14.3,11.5-17.2c6.9-2.9,14.9-1.3,20.2,4L150,79.3l-4.4,4.4l-28.4-28.4c-2.3-2.3-5.8-3.3-9-2.4c-3.2,0.9-5.7,3.4-6.6,6.6
	c-0.9,3.2,0.1,6.6,2.4,9l28.4,28.4l-8.8,8.8L84.3,66.2z M167.5,114.3l-4.4,4.4L108.4,64c-1.2-1.2-1.2-3.2,0-4.4
	c1.2-1.2,3.2-1.2,4.4,0L167.5,114.3z M204.6,186.5l13.1-13.1c1.2-1.2,1.2-3.1,0-4.3c-1.2-1.2-3.1-1.2-4.3,0l-13.1,13.1L128.1,110
	l8.8-8.8l21.9,21.9c2.4,2.4,6.3,2.4,8.7,0l4.4-4.4c2.4-2.4,2.4-6.3,0-8.7l-21.9-21.9l4.4-4.4l72.2,72.2l-4.4,4.4
	c-0.8,0.8-1.1,1.9-0.8,3c0.3,1.1,1.1,1.9,2.2,2.2c1.1,0.3,2.2,0,3-0.8l4.4-4.4l4.4,4.4L209,190.9L204.6,186.5z M248.4,204l-0.8,0.8
	l-32.8-10.9l23.6-23.6l10.9,32.8L248.4,204z"/>
</svg>
