<?xml version="1.0" encoding="utf-8"?>
<!-- Generator: Adobe Illustrator 22.1.0, SVG Export Plug-In . SVG Version: 6.00 Build 0)  -->
<svg version="1.1" id="Warstwa_1" xmlns="http://www.w3.org/2000/svg" xmlns:xlink="http://www.w3.org/1999/xlink" x="0px" y="0px"
	 viewBox="0 0 329 239" style="enable-background:new 0 0 329 239;" xml:space="preserve">
<style type="text/css">
	.st0{fill:#FFFFFF;}
</style>
<g>
	<path class="st0" d="M212.2,169.1l-39.3-39.3c-0.4-0.4-0.3-0.9,0-1.3l2.9-2.9c0.4-0.4,0.9-0.3,1.3,0l39.3,39.3
		c0.4,0.4,0.3,0.9,0,1.3l-2.9,2.9C213.1,169.4,212.6,169.4,212.2,169.1z"/>
	<path class="st0" d="M168.8,125.7l-2.9-2.9c-0.4-0.4-0.3-0.9,0-1.3l2.9-2.9c0.4-0.4,0.9-0.3,1.3,0l2.9,2.9c0.4,0.4,0.3,0.9,0,1.3
		l-2.9,2.9C169.8,126,169.1,126,168.8,125.7z"/>
	<path class="st0" d="M161.8,118.7l-2.9-2.9c-0.4-0.4-0.3-0.9,0-1.3l2.9-2.9c0.4-0.4,0.9-0.3,1.3,0l2.9,2.9c0.4,0.4,0.3,0.9,0,1.3
		l-2.9,2.9C162.7,119,162.2,119,161.8,118.7z"/>
	<path class="st0" d="M65,100.5L65,100.5c-0.4,0.4-0.3,0.9,0,1.3l95.9,95.9c0.4,0.4,0.9,0.3,1.3,0l2.9-2.9c0.4-0.4,0.3-0.9,0-1.3
		l-91.6-91.6c-0.4-0.4-0.3-0.9,0-1.3l25.4-25.4c0.4-0.4,0.9-0.3,1.3,0l105.9,105.9c0.4,0.4,0.3,0.9,0,1.3l-25.3,25.3
		c-0.4,0.4-0.9,0.3-1.3,0l-8.7-8.7c-0.4-0.4-0.9-0.3-1.3,0l-2.9,2.9c-0.4,0.4-0.3,0.9,0,1.3l12.9,12.9c0.4,0.4,0.9,0.3,1.3,0l0,0
		c0.4-0.4,0.9-0.3,1.3,0l12.8,12.8c0.4,0.4,0.9,0.3,1.3,0l31.2-31.2c0.4-0.4,0.3-0.9,0-1.3l-12.8-12.8c-0.4-0.4-0.3-0.9,0-1.3
		l22.2-22.2c0.2-0.2,0.3-0.4,0.3-0.7v-17.5c0-0.2-0.1-0.5-0.3-0.7l-52.7-52.7c-0.2-0.2-0.3-0.4-0.3-0.7v-2.2c0-0.2,0.1-0.5,0.3-0.7
		l5.7-5.7c0.2-0.2,0.3-0.4,0.3-0.7V68c0-0.2-0.1-0.5-0.3-0.7l-8.9-8.9c-0.2-0.2-0.4-0.3-0.7-0.3h-10.7c-0.2,0-0.5,0.1-0.7,0.3
		l-4.1,4.1c-0.2,0.2-0.4,0.3-0.7,0.3h-5.5c-0.2,0-0.5-0.1-0.7-0.3l-1.5-1.5c-0.2-0.2-0.3-0.4-0.3-0.7v-1.8c0-0.2,0.1-0.5,0.3-0.7
		l2.5-2.5c0.4-0.4,0.3-0.9,0-1.3l-2.9-2.9c-0.4-0.4-0.9-0.3-1.3,0l-4.3,4.3c-0.2,0.2-0.3,0.4-0.3,0.7v6.7c0,0.2,0.1,0.5,0.3,0.7l5,5
		c0.2,0.2,0.4,0.3,0.7,0.3h10.4c0.2,0,0.5-0.1,0.7-0.3l4.1-4.1c0.2-0.2,0.4-0.3,0.7-0.3h5.8c0.2,0,0.5,0.1,0.7,0.3l5.4,5.4
		c0.2,0.2,0.3,0.4,0.3,0.7v5.8c0,0.2-0.1,0.5-0.3,0.7l-5.7,5.7c-0.2,0.2-0.3,0.4-0.3,0.7v7.1c0,0.2,0.1,0.5,0.3,0.7l52.7,52.7
		c0.2,0.2,0.3,0.4,0.3,0.7v12.5c0,0.2-0.1,0.5-0.3,0.7l-19.1,19.1c-0.4,0.4-0.9,0.3-1.3,0L104.4,71.1c-0.4-0.4-0.3-0.9,0-1.3
		l40.3-40.3c0.2-0.2,0.4-0.3,0.7-0.3h5.8c0.2,0,0.5,0.1,0.7,0.3l8.9,8.9c0.2,0.2,0.3,0.4,0.3,0.7v5.8c0,0.2-0.1,0.5-0.3,0.7
		l-0.5,0.5c-0.4,0.4-0.3,0.9,0,1.3l2.9,2.9c0.4,0.4,0.9,0.3,1.3,0l2.2-2.2c0.2-0.2,0.3-0.4,0.3-0.7V36.6c0-0.2-0.1-0.5-0.3-0.7
		l-12.5-12.5c-0.2-0.2-0.4-0.3-0.7-0.3l-10.7,0c-0.2,0-0.5,0.1-0.7,0.3L98.8,66.8c-0.4,0.4-0.9,0.3-1.3,0L84.7,54
		c-0.4-0.4-0.9-0.3-1.3,0L52.3,85.2c-0.4,0.4-0.3,0.9,0,1.3l12.8,12.8C65.4,99.6,65.4,100.2,65,100.5z M210.2,187.8l8.6,8.6
		c0.4,0.4,0.3,0.9,0,1.3L196,220.5c-0.4,0.4-0.9,0.3-1.3,0l-0.9-0.9c-0.4-0.4-0.3-0.9,0-1.3l8-8c0.4-0.4,0.3-0.9,0-1.3l-2.9-2.9
		c-0.4-0.4-0.9-0.3-1.3,0l-8,8c-0.4,0.4-0.9,0.3-1.3,0l-2.1-2.1c-0.4-0.4-0.3-0.9,0-1.3L209,188
		C209.3,187.5,209.9,187.5,210.2,187.8z M84.8,62.4l0.9,0.9c0.4,0.4,0.3,0.9,0,1.3l-5.8,5.8c-0.4,0.4-0.3,0.9,0,1.3l2.9,2.9
		c0.4,0.4,0.9,0.3,1.3,0l5.7-5.7c0.4-0.4,0.9-0.3,1.3,0l2.2,2.2c0.4,0.4,0.3,0.9,0,1.3L70.4,94.9c-0.4,0.4-0.9,0.3-1.3,0l-8.5-8.5
		c-0.4-0.4-0.3-0.9,0-1.3l22.8-22.8C83.8,62,84.4,62,84.8,62.4z"/>
</g>
</svg>
