<?xml version="1.0" encoding="utf-8"?>
<!-- Generator: Adobe Illustrator 22.1.0, SVG Export Plug-In . SVG Version: 6.00 Build 0)  -->
<svg version="1.1" id="Warstwa_1" xmlns="http://www.w3.org/2000/svg" xmlns:xlink="http://www.w3.org/1999/xlink" x="0px" y="0px"
	 viewBox="0 0 329 239" style="enable-background:new 0 0 329 239;" xml:space="preserve">
<style type="text/css">
	.st0{fill:#FFFFFF;}
</style>
<g>
	<path class="st0" d="M276.6,86.5c0-0.4-0.1-0.8-0.2-1.1c-0.2-0.5-0.5-0.9-0.8-1.2l-41.2-41.1c0,0,0,0,0,0h0c0,0,0,0,0,0
		c-0.3-0.3-0.7-0.6-1.2-0.8c-0.5-0.2-0.9-0.3-1.4-0.3h-89.8v0c0-12.3-22.6-18.7-44.9-18.7C74.6,23.3,52,29.7,52,42v157.3
		c0,12.3,22.6,18.7,44.9,18.7c22.3,0,44.9-6.4,44.9-18.7v0H273c2.1,0,3.7-1.7,3.7-3.7V86.9v0c0,0,0,0,0,0
		C276.7,86.8,276.7,86.7,276.6,86.5z M134.4,199.3c0,4.5-14.9,11.2-37.5,11.2c-22.5,0-37.5-6.8-37.5-11.2V52.8
		c8.5,5.2,23,7.9,37.5,7.9c14.4,0,29-2.7,37.5-7.9V199.3z M96.9,53.2c-22.5,0-37.5-6.8-37.5-11.2c0-4.5,14.9-11.2,37.5-11.2
		c22.5,0,37.5,6.8,37.5,11.2C134.4,46.5,119.5,53.2,96.9,53.2z M235.5,54.8l28.4,28.4l-28.4,0.1V54.8z M269.2,191.8H141.9V49.5H228
		V87c0,1,0.4,1.9,1.1,2.6c0.7,0.7,1.7,1.1,2.6,1.1c0,0,0,0,0,0l37.5-0.1V191.8z"/>
	<path class="st0" d="M173.2,76c-6.1,0-11,4.9-11,11c0,6.1,4.9,11,11,11c6.1,0,11-4.9,11-11C184.2,80.9,179.3,76,173.2,76z
		 M173.2,92.7c-3.2,0-5.7-2.6-5.7-5.7c0-3.1,2.6-5.7,5.7-5.7c3.1,0,5.7,2.6,5.7,5.7C178.9,90.1,176.4,92.7,173.2,92.7z"/>
	<path class="st0" d="M205.2,98c-6.1,0-11,4.9-11,11c0,6.1,4.9,11,11,11c6.1,0,11-4.9,11-11C216.2,102.9,211.3,98,205.2,98z
		 M205.2,114.7c-3.2,0-5.7-2.6-5.7-5.7c0-3.1,2.6-5.7,5.7-5.7c3.1,0,5.7,2.6,5.7,5.7C210.9,112.1,208.4,114.7,205.2,114.7z"/>
	<path class="st0" d="M173.2,115c-6.1,0-11,4.9-11,11c0,6.1,4.9,11,11,11c6.1,0,11-4.9,11-11C184.2,119.9,179.3,115,173.2,115z
		 M173.2,131.7c-3.2,0-5.7-2.6-5.7-5.7c0-3.1,2.6-5.7,5.7-5.7c3.1,0,5.7,2.6,5.7,5.7C178.9,129.1,176.4,131.7,173.2,131.7z"/>
	<path class="st0" d="M205.2,137c-6.1,0-11,4.9-11,11c0,6.1,4.9,11,11,11c6.1,0,11-4.9,11-11C216.2,141.9,211.3,137,205.2,137z
		 M205.2,153.7c-3.2,0-5.7-2.6-5.7-5.7c0-3.1,2.6-5.7,5.7-5.7c3.1,0,5.7,2.6,5.7,5.7C210.9,151.1,208.4,153.7,205.2,153.7z"/>
	<path class="st0" d="M227.2,126c0,6.1,4.9,11,11,11c6.1,0,11-4.9,11-11c0-6.1-4.9-11-11-11C232.2,115,227.2,119.9,227.2,126z
		 M238.2,120.3c3.1,0,5.7,2.6,5.7,5.7c0,3.2-2.6,5.7-5.7,5.7c-3.2,0-5.7-2.6-5.7-5.7C232.5,122.8,235.1,120.3,238.2,120.3z"/>
	<path class="st0" d="M238.2,156c-6.1,0-11,4.9-11,11c0,6.1,4.9,11,11,11c6.1,0,11-4.9,11-11C249.2,160.9,244.3,156,238.2,156z
		 M238.2,172.7c-3.2,0-5.7-2.6-5.7-5.7c0-3.1,2.6-5.7,5.7-5.7c3.1,0,5.7,2.6,5.7,5.7C243.9,170.1,241.4,172.7,238.2,172.7z"/>
	<path class="st0" d="M173.2,156c-6.1,0-11,4.9-11,11c0,6.1,4.9,11,11,11c6.1,0,11-4.9,11-11C184.2,160.9,179.3,156,173.2,156z
		 M173.2,172.7c-3.2,0-5.7-2.6-5.7-5.7c0-3.1,2.6-5.7,5.7-5.7c3.1,0,5.7,2.6,5.7,5.7C178.9,170.1,176.4,172.7,173.2,172.7z"/>
</g>
</svg>
