<?xml version="1.0" encoding="utf-8"?>
<!-- Generator: Adobe Illustrator 24.0.2, SVG Export Plug-In . SVG Version: 6.00 Build 0)  -->
<svg version="1.1" id="Warstwa_1" xmlns="http://www.w3.org/2000/svg" xmlns:xlink="http://www.w3.org/1999/xlink" x="0px" y="0px"
	 viewBox="0 0 329 239" style="enable-background:new 0 0 329 239;" xml:space="preserve">
<style type="text/css">
	.st0{fill:#FFFFFF;}
</style>
<path class="st0" d="M226.4,67.9c-0.1-2.2-1.9-4-4-4h-8.8V25.2h-51.1V12.4h-34.3v12.8h-25.6v38.8h-8.8c-2.2,0-3.9,1.7-3.9,3.9v155.7
	c0,1.6,1.3,2.9,2.9,2.9h130.7c1.6,0,2.9-1.3,2.9-2.9V67.9z M188,33.9h16.8v30H188V33.9z M162.4,33.9h16.8v30h-16.8V33.9z
	 M136.8,21.2h16.8v42.8h-16.8V21.2z M189.2,72.7l-4.5,9.1c-2.3,4.7-7.2,7.7-12.4,7.7h-28.5c-5.3,0-10.1-3-12.4-7.7l-4.5-9.1H189.2z
	 M111.3,33.9h16.8v30h-16.8V33.9z M98.4,72.7H117l10.1,20.1c1.7,3.3,5.1,5.5,8.8,5.5h44.3c3.8,0,7.2-2.1,8.8-5.5l10.1-20.1h18.4
	v77.3l-54.7-32.8c-3-1.8-6.7-1.8-9.6,0l-54.7,32.8V72.7z M217.5,210.9c0,3.8-3.1,6.9-6.9,6.9H105.4c-3.9-0.1-6.9-3.2-6.9-6.9v-3
	c0-3.8,3.1-6.9,6.9-6.9h105.2c3.8,0,6.9,3.1,6.9,6.9V210.9z M217.6,185.2c0,3.8-3.1,6.9-6.9,6.9H105.4c-3.8,0-6.9-3.1-6.9-6.9v-25
	l52.7-31.6c4.2-2.6,9.5-2.6,13.8,0l52.7,31.6V185.2z"/>
</svg>
