<?xml version="1.0" encoding="utf-8"?>
<!-- Generator: Adobe Illustrator 22.1.0, SVG Export Plug-In . SVG Version: 6.00 Build 0)  -->
<svg version="1.1" id="Warstwa_1" xmlns="http://www.w3.org/2000/svg" xmlns:xlink="http://www.w3.org/1999/xlink" x="0px" y="0px"
	 viewBox="0 0 329 239" style="enable-background:new 0 0 329 239;" xml:space="preserve">
<style type="text/css">
	.st0{fill:#FFFFFF;}
</style>
<g>
	<path class="st0" d="M101.9,73.8c0,4.7,1.8,9.1,5.1,12.4c0.7,0.7,1.7,1.1,2.7,1.1c1,0,1.9-0.4,2.7-1.1c1.5-1.5,1.5-3.9,0-5.4
		c-1.9-1.9-2.9-4.3-2.9-7c0-2.6,1-5.1,2.9-7c3.3-3.3,5.1-7.7,5.1-12.4c0-4.7-1.8-9.1-5.1-12.4c-1.5-1.5-3.9-1.5-5.4,0
		c-1.5,1.5-1.5,3.9,0,5.4c1.9,1.9,2.9,4.4,2.9,7c0,2.6-1,5.1-2.9,7C103.8,64.7,101.9,69.1,101.9,73.8L101.9,73.8z M101.9,73.8"/>
	<path class="st0" d="M185.5,73.8c0,4.7,1.8,9.1,5.1,12.4c0.7,0.7,1.7,1.1,2.7,1.1c1,0,1.9-0.4,2.7-1.1c1.5-1.5,1.5-3.9,0-5.4
		c-1.9-1.9-2.9-4.3-2.9-7c0-2.6,1-5.1,2.9-7c3.3-3.3,5.1-7.7,5.1-12.4c0-4.7-1.8-9.1-5.1-12.4c-1.5-1.5-3.9-1.5-5.4,0
		c-1.5,1.5-1.5,3.9,0,5.4c1.9,1.9,2.9,4.4,2.9,7c0,2.6-1,5.1-2.9,7C187.3,64.7,185.5,69.1,185.5,73.8L185.5,73.8z M185.5,73.8"/>
	<g>
		<path class="st0" d="M142.1,59.1c0,5.9,2.3,11.5,6.5,15.7c0.7,0.7,1.7,1.1,2.7,1.1c1,0,1.9-0.4,2.7-1.1c1.5-1.5,1.5-3.9,0-5.4
			c-2.8-2.8-4.3-6.4-4.3-10.3c0-3.9,1.5-7.6,4.3-10.3c4.2-4.2,6.5-9.8,6.5-15.7c0-5.9-2.3-11.5-6.5-15.7c-1.5-1.5-3.9-1.5-5.4,0
			c-1.5,1.5-1.5,3.9,0,5.4c2.8,2.8,4.3,6.4,4.3,10.3c0,3.9-1.5,7.6-4.3,10.3C144.4,47.5,142.1,53.1,142.1,59.1L142.1,59.1z
			 M142.1,59.1"/>
		<path class="st0" d="M223.6,164.2c0.1,0,0.1,0,0.2,0c28.1,0,49.3-19.6,49.3-45.6c0-2.1-1.7-3.8-3.8-3.8h-34.3
			c0.1-2.5,0.2-5,0.2-7.6c0-2.1-1.7-3.8-3.8-3.8H128.9v-3.8c0-2.1-1.7-3.8-3.8-3.8c-2.1,0-3.8,1.7-3.8,3.8v3.8H72
			c-2.1,0-3.8,1.7-3.8,3.8c0,36.8,11.2,66,31.7,83.5H49.2c-2.1,0-3.8,1.7-3.8,3.8c0,5.7,27.2,15.8,27.5,15.9
			c15.6,5.6,42,12.3,78.8,12.3c70.5,0,103.4-24.1,104.8-25.2c1.3-1,1.8-2.7,1.3-4.2c-0.5-1.5-2-2.6-3.6-2.6h-50.7
			C211.8,183.8,218.5,174.8,223.6,164.2L223.6,164.2z M265.4,122.5c-1.8,19.1-17.3,32.8-38.4,34c3.9-10.1,6.4-21.6,7.6-34H265.4z
			 M151.7,215.2c-44.9,0-73.7-9.9-88.3-16.8h176.2C224.6,205.4,195.6,215.2,151.7,215.2L151.7,215.2z M112.7,190.8
			c-23-14.4-36-42.5-36.9-79.7h45.5v7.6h-7.6c-2.1,0-3.8,1.7-3.8,3.8V151c0,2.1,1.7,3.8,3.8,3.8h22.8c2.1,0,3.8-1.7,3.8-3.8v-28.5
			c0-2.1-1.7-3.8-3.8-3.8h-7.6v-7.6h98.7c-0.8,37.2-13.8,65.4-36.9,79.7H112.7z M132.7,126.3v20.9h-15.2v-20.9H132.7z M132.7,126.3"
			/>
	</g>
</g>
</svg>
