<?xml version="1.0" encoding="utf-8"?>
<!-- Generator: Adobe Illustrator 22.1.0, SVG Export Plug-In . SVG Version: 6.00 Build 0)  -->
<svg version="1.1" id="Warstwa_1" xmlns="http://www.w3.org/2000/svg" xmlns:xlink="http://www.w3.org/1999/xlink" x="0px" y="0px"
	 viewBox="0 0 329 239" style="enable-background:new 0 0 329 239;" xml:space="preserve">
<style type="text/css">
	.st0{fill:#FFFFFF;}
</style>
<g>
	<path class="st0" d="M285.2,90.6H259V72.1c0-19.8-16.1-35.9-35.9-35.9H193v-2.9c0-6.9-5.6-12.6-12.6-12.6h-23.3
		c-6.9,0-12.6,5.6-12.6,12.6v2.9h-30.1c-19.8,0-35.9,16.1-35.9,35.9v18.5H52.3c-2.7,0-4.8,2.2-4.8,4.8V107c0,6.9,5.6,12.6,12.6,12.6
		h18.4v49.5c0,28.3,23.1,51.4,51.4,51.4h77.6c28.3,0,51.4-23.1,51.4-51.4v-49.5h18.4c6.9,0,12.6-5.6,12.6-12.6V95.4
		C290,92.7,287.8,90.6,285.2,90.6z M280.3,100.2v6.8c0,1.6-1.3,2.9-2.9,2.9H259v-9.7H280.3z M249.3,88.6v80.5
		c0,23-18.8,41.7-41.7,41.7h-77.6c-23,0-41.7-18.8-41.7-41.7V88.6H249.3z M154.2,33.3c0-1.6,1.3-2.9,2.9-2.9h23.3
		c1.6,0,2.9,1.3,2.9,2.9v2.9h-29.1V33.3z M249.3,72.1v6.8H88.2v-6.8c0-14.4,11.8-26.2,26.2-26.2h108.7
		C237.5,45.9,249.3,57.7,249.3,72.1z M78.5,100.2v9.7H60.1c-1.6,0-2.9-1.3-2.9-2.9v-6.8H78.5z"/>
	<path class="st0" d="M98.9,185.6h50.4c2.7,0,4.8-2.2,4.8-4.8c0-2.7-2.2-4.8-4.8-4.8H98.9c-2.7,0-4.8,2.2-4.8,4.8
		C94.1,183.4,96.2,185.6,98.9,185.6z"/>
	<path class="st0" d="M161,185.6h11.6c2.7,0,4.8-2.2,4.8-4.8c0-2.7-2.2-4.8-4.8-4.8H161c-2.7,0-4.8,2.2-4.8,4.8
		C156.2,183.4,158.3,185.6,161,185.6z"/>
	<path class="st0" d="M183.3,68.2c0,2.7,2.2,4.8,4.8,4.8h54.3c2.7,0,4.8-2.2,4.8-4.8c0-2.7-2.2-4.8-4.8-4.8h-54.3
		C185.5,63.4,183.3,65.6,183.3,68.2z"/>
	<path class="st0" d="M176.5,63.4h-7.8c-2.7,0-4.8,2.2-4.8,4.8c0,2.7,2.2,4.8,4.8,4.8h7.8c2.7,0,4.8-2.2,4.8-4.8
		C181.3,65.6,179.2,63.4,176.5,63.4z"/>
</g>
</svg>
