<?xml version="1.0" encoding="utf-8"?>
<!-- Generator: Adobe Illustrator 22.1.0, SVG Export Plug-In . SVG Version: 6.00 Build 0)  -->
<svg version="1.1" id="Warstwa_1" xmlns="http://www.w3.org/2000/svg" xmlns:xlink="http://www.w3.org/1999/xlink" x="0px" y="0px"
	 viewBox="0 0 329 239" style="enable-background:new 0 0 329 239;" xml:space="preserve">
<style type="text/css">
	.st0{fill:#FFFFFF;}
</style>
<g>
	<path class="st0" d="M242.3,58.4h-20V39.6c0-3.1-2.5-5.6-5.6-5.6H67.1c-3.1,0-5.6,2.5-5.6,5.6v147c0,10.2,8.3,18.5,18.5,18.5h149.5
		c10.2,0,18.5-8.3,18.5-18.5V64C247.9,60.9,245.4,58.4,242.3,58.4L242.3,58.4z M72.7,45.2H211v141.4c0,2.6,0.5,5,1.5,7.2H79.9
		c-4,0-7.2-3.2-7.2-7.2V45.2z M229.5,193.8c-4,0-7.2-3.2-7.2-7.2v-117h14.4v117C236.7,190.5,233.4,193.8,229.5,193.8L229.5,193.8z
		 M229.5,193.8"/>
	<path class="st0" d="M85.8,106.6h112.1c3.1,0,5.6-2.5,5.6-5.6V63.4c0-3.1-2.5-5.6-5.6-5.6H85.8c-3.1,0-5.6,2.5-5.6,5.6V101
		C80.2,104.1,82.7,106.6,85.8,106.6L85.8,106.6z M91.4,69h100.9v26.3H91.4V69z M91.4,69"/>
	<path class="st0" d="M85.8,180.5h49c3.1,0,5.6-2.5,5.6-5.6v-49c0-3.1-2.5-5.6-5.6-5.6h-49c-3.1,0-5.6,2.5-5.6,5.6v49
		C80.2,178,82.7,180.5,85.8,180.5L85.8,180.5z M91.4,131.6h37.7v37.7H91.4V131.6z M91.4,131.6"/>
	<path class="st0" d="M197.9,120.3h-47.4c-3.1,0-5.6,2.5-5.6,5.6c0,3.1,2.5,5.6,5.6,5.6h47.4c3.1,0,5.6-2.5,5.6-5.6
		C203.6,122.8,201,120.3,197.9,120.3L197.9,120.3z M197.9,120.3"/>
	<path class="st0" d="M197.9,169.3h-47.4c-3.1,0-5.6,2.5-5.6,5.6c0,3.1,2.5,5.6,5.6,5.6h47.4c3.1,0,5.6-2.5,5.6-5.6
		C203.6,171.8,201,169.3,197.9,169.3L197.9,169.3z M197.9,169.3"/>
	<path class="st0" d="M197.9,144.8h-47.4c-3.1,0-5.6,2.5-5.6,5.6c0,3.1,2.5,5.6,5.6,5.6h47.4c3.1,0,5.6-2.5,5.6-5.6
		C203.6,147.3,201,144.8,197.9,144.8L197.9,144.8z M197.9,144.8"/>
</g>
</svg>
