<?xml version="1.0" encoding="utf-8"?>
<!-- Generator: Adobe Illustrator 22.1.0, SVG Export Plug-In . SVG Version: 6.00 Build 0)  -->
<svg version="1.1" id="Warstwa_1" xmlns="http://www.w3.org/2000/svg" xmlns:xlink="http://www.w3.org/1999/xlink" x="0px" y="0px"
	 viewBox="0 0 329 239" style="enable-background:new 0 0 329 239;" xml:space="preserve">
<style type="text/css">
	.st0{fill:#FFFFFF;}
</style>
<path class="st0" d="M252.8,106.9l-23.7,0c-1.5,0-2.2-1.8-1.2-2.9c5.5-5.3,6.5-11.7,6.5-15.5c0-5-2.7-8.9-5.5-13
	c-3.3-4.9-6.8-9.9-6.8-17.6v-2.3c0-1.2-1.3-2-2.4-1.5l-2,1c-0.8,0.4-18.9,9.7-20,28.5c-0.1,1,0.7,1.8,1.7,1.8l2.8,0
	c0.9,0,1.6-0.7,1.7-1.5c0.6-8.8,6-15.2,10.6-19.1c0.9-0.8,2.4-0.3,2.7,0.8c1.5,5.5,4.4,9.7,6.8,13.3c2.5,3.6,4.4,6.5,4.4,9.6
	c0,6.9-4,18.4-30.6,18.4l-8,0c-1.4,0-2.1-1.6-1.3-2.7c1.9-2.6,3.2-5.7,3.2-9.6c0-13.4-9.7-23.2-10.1-23.6l-2.4-2.4
	c-1-1-2.8-0.3-2.8,1.2v3.4c0,3-2,5.9-4.3,8.1c-0.9,0.9-2.5,0.5-2.8-0.8c-3.5-14.1-15.7-19.1-16.3-19.4l-1.9-0.8
	c-1.1-0.4-2.3,0.4-2.3,1.5V64c0,9.1-2.3,12-4.7,15.1c-2.1,2.8-4.5,5.9-4.5,12.4c0,5.5,1.3,9.7,3.2,12.8c0.7,1.1-0.1,2.5-1.4,2.5
	l-4.8,0c-26.7,0-30.6-11.5-30.6-18.4c0-3.1,2-5.9,4.4-9.6c2.6-3.8,5.6-8.2,7-14.1c0.3-1.1,1.5-1.6,2.5-1.1
	c5.7,3.3,12.5,8.6,13.5,14.1c0.2,0.8,0.8,1.4,1.6,1.4l2.9,0c0.9,0,1.7-0.8,1.7-1.7c-0.2-12.4-2.5-18.8-4.2-23.5
	c-1.1-3.1-1.9-5.4-1.9-8.5c0-3.8,4-8.2,7.9-11.4c0.9-0.7,2.2-0.4,2.6,0.7c1.6,4.3,4.6,7.2,7.2,9.9c3.3,3.3,6.2,6.2,6.7,11.6
	c0.1,0.9,0.8,1.5,1.7,1.5h2.8c1,0,1.7-0.8,1.7-1.8c-0.6-7.8-4.8-12-8.5-15.7c-3.6-3.6-6.8-6.8-6.8-13.2v-2.5c0-1.3-1.4-2.1-2.5-1.4
	l-2.1,1.3c-1.7,1-16.8,10.4-16.8,21c0,4.2,1.1,7.3,2.3,10.6c0.4,1.2,0.9,2.6,1.4,4c0.5,1.5-1.3,2.8-2.6,1.8c-5.4-4-11-6.5-12.1-7
	l-1.9-0.8c-1.1-0.5-2.3,0.3-2.3,1.5v2.1c0,7.7-3.4,12.7-6.8,17.6c-2.8,4.2-5.5,8.1-5.5,13c0,3.8,1,10.2,6.5,15.5
	c1.1,1,0.3,2.9-1.2,2.9l-22,0c-6,0-10.9,4.9-10.9,10.9v2.8c0,6,4.9,10.9,10.9,10.9h4.7c0.7,0,1.2,0.4,1.5,1
	c5,11.2,13.7,20.4,24.5,26.2c0.7,0.4,1,1.2,0.8,1.9l-10.5,36.6c-1.1,3.9,1.8,7.8,5.9,7.8h12c2.7,0,5.1-1.8,5.9-4.3l10.9-35.5
	c0.3,0,0.5,0,0.8,0h55.1c0.3,0,0.5,0,0.8,0l10.8,35.2c0.9,2.8,3.5,4.7,6.4,4.7h10.9c4.4,0,7.6-4.2,6.4-8.5l-10.3-35.9
	c-0.2-0.8,0.1-1.6,0.8-1.9c10.8-5.8,19.5-15,24.5-26.2c0.3-0.6,0.9-1,1.5-1h4.7c6,0,10.9-4.9,10.9-10.9v-4.5
	C262,111,257.9,106.9,252.8,106.9L252.8,106.9z M145.6,91.6c0-4.5,1.4-6.2,3.3-8.7c1.9-2.4,4.1-5.3,5.2-10.8
	c0.3-1.3,1.8-1.8,2.8-0.9c3.5,3.3,7.1,8.9,7.1,17.4v2.3c0,1.2,1.3,2,2.4,1.5l2-1c0.4-0.2,6.9-3.5,10.8-9.1c0.7-1,2.2-0.9,2.8,0.1
	c1.8,3.3,3.4,7.6,3.4,12.3c0,8.7-10.1,11.6-12.4,12.2c-0.1,0-0.3,0-0.4,0h-14.8C156.6,106.9,145.6,106.3,145.6,91.6L145.6,91.6z
	 M82.9,125.3c-2.6,0-4.7-2.1-4.7-4.7v-2.8c0-2.6,2.1-4.7,4.7-4.7h0c0.9,0,1.6,0.7,1.7,1.5c0.2,3,0.7,5.9,1.4,8.7c0.3,1-0.5,2-1.6,2
	H82.9z M120.6,198.8H112c-1.1,0-1.9-1.1-1.6-2.1l9.5-33.4c0.3-0.9,1.2-1.4,2.1-1.1c2.7,0.9,5.6,1.6,8.4,2.1c1,0.2,1.6,1.2,1.3,2.1
	l-9.6,31.2C122,198.3,121.4,198.8,120.6,198.8z M220.3,198.8h-4.6c-2.1,0-4-1.4-4.6-3.4l-8.9-28.9c-0.3-1,0.3-2,1.3-2.1
	c2.9-0.5,5.7-1.2,8.5-2.1c0.9-0.3,1.9,0.2,2.1,1.1l9.1,31.7C223.7,196.9,222.3,198.8,220.3,198.8z M194.6,159h-55.1
	c-25.4,0-46.3-19.4-48.7-44.2c-0.1-1,0.7-1.8,1.7-1.8h149.3c1,0,1.8,0.8,1.7,1.8C240.9,139.6,220,159,194.6,159L194.6,159z
	 M255.9,120.5c0,2.6-2.1,4.7-4.7,4.7h-1.4c-1.1,0-1.9-1-1.6-2c0.7-2.8,1.2-5.7,1.4-8.7c0.1-0.9,0.8-1.5,1.7-1.5h0
	c2.6,0,4.7,2.1,4.7,4.7V120.5z M255.9,122.2"/>
<path class="st0" d="M194.6,119.1h-55.1c-6.8,0-12.3,5.5-12.3,12.3c0,6.8,5.5,12.3,12.3,12.3h55.1c6.8,0,12.3-5.5,12.3-12.3
	C206.9,124.6,201.4,119.1,194.6,119.1L194.6,119.1z M170.1,125.3h12.3v12.3h-12.3V125.3z M164,137.5h-12.3v-12.3H164V137.5z
	 M133.3,131.4c0-3.4,2.7-6.1,6.1-6.1h6.1v12.3h-6.1C136.1,137.5,133.3,134.8,133.3,131.4L133.3,131.4z M194.6,137.5h-6.1v-12.3h6.1
	c3.4,0,6.1,2.7,6.1,6.1C200.7,134.8,198,137.5,194.6,137.5L194.6,137.5z M194.6,137.5"/>
<path class="st0" d="M182.6,25.2c1.1,8.1,5.4,11.9,8.9,15.1c3.6,3.2,6.1,5.5,6.1,11.4c0,10.8-8,15.3-12.3,15.3v6.1
	c7.7,0,18.4-7.5,18.4-21.4c0-8.7-4.3-12.6-8.2-16c-3.8-3.4-7.2-6.4-7.2-14.7v-3.6l-3.6,0.6c-0.2,0-20.9,3.8-20.9,30.6h6.1
	C170.1,33.2,178,27.3,182.6,25.2L182.6,25.2z M182.6,25.2"/>
</svg>
