<?xml version="1.0" encoding="utf-8"?>
<!-- Generator: Adobe Illustrator 22.1.0, SVG Export Plug-In . SVG Version: 6.00 Build 0)  -->
<svg version="1.1" id="Warstwa_1" xmlns="http://www.w3.org/2000/svg" xmlns:xlink="http://www.w3.org/1999/xlink" x="0px" y="0px"
	 viewBox="0 0 329 239" style="enable-background:new 0 0 329 239;" xml:space="preserve">
<style type="text/css">
	.st0{fill:#FFFFFF;}
</style>
<path class="st0" d="M125.3,158.2c-1.9,0-3.4,1.5-3.4,3.4c0,1.9,1.5,3.4,3.4,3.4c1.9,0,3.4-1.5,3.4-3.4
	C128.7,159.8,127.2,158.2,125.3,158.2L125.3,158.2z M125.3,158.2"/>
<path class="st0" d="M225.3,97.1l20-20c0.8-0.8,1.2-2.1,0.9-3.2c-0.3-1.2-1.2-2.1-2.3-2.4l-48.8-15.1c-4.4-14.1-17.5-23.8-32.4-23.8
	c-13.9,0-26.4,8.5-31.5,21.3L74.7,71.4c-1.1,0.4-2,1.3-2.3,2.4c-0.3,1.2,0.1,2.4,0.9,3.2l20.6,20.6l-13,21.6c-0.5,0.9-0.6,2-0.3,2.9
	c0.4,1,1.1,1.7,2.1,2l18.8,6.3v52.3c0,1.4,0.9,2.7,2.2,3.2c11.5,4.3,54.2,20.3,54.4,20.4c0.7,0.2,1.4,0.3,2.2,0c0,0,0,0,0,0
	l61.2-20.4c1.4-0.5,2.3-1.8,2.3-3.2V129l20-6.3c1.1-0.4,2-1.3,2.3-2.4c0.3-1.2-0.1-2.4-0.9-3.2L225.3,97.1z M196.7,66.5
	c0-0.9,0-1.7-0.1-2.6l39.9,12.3l-17,17l-27.7-9.2C195,78.7,196.7,72.7,196.7,66.5L196.7,66.5z M137,57.6c3.8-11,14.1-18.3,25.7-18.3
	c12.5,0,23.4,8.5,26.4,20.6c0.5,2.2,0.8,4.4,0.8,6.6c0,6.3-2.1,12.2-6.1,17.1c-5.2,6.4-12.9,10.1-21.1,10.1
	c-8.9,0-17.3-4.4-22.3-11.7c-3.2-4.6-4.8-9.9-4.8-15.5C135.5,63.5,136,60.5,137,57.6L137,57.6z M82.1,76.2l47-14.7
	c-0.2,1.6-0.4,3.3-0.4,4.9c0,5.5,1.3,10.8,3.8,15.6L99,93.2L82.1,76.2z M88.9,119.1l10.7-17.9l54.6,18.2l-10.7,17.9
	C137.6,135.3,95.1,121.1,88.9,119.1L88.9,119.1z M155.9,198.2l-47.6-17.8v-47.6c37.4,12.4,35.6,12,36.6,12c1.2,0,2.3-0.6,2.9-1.6
	l8-13.4V198.2z M159.3,113.9l-50.4-16.8l27.5-9.2c6.4,7.9,16.1,12.5,26.4,12.5c9.5,0,18.4-3.9,24.8-10.8l22.2,7.4L159.3,113.9z
	 M217.1,180.3l-54.4,18.1v-71.2l12,15.1c0.9,1.1,2.3,1.5,3.7,1.1l38.7-12.1V180.3z M178.6,136.1l-13.6-17l54.6-18.2l17,17
	L178.6,136.1z M178.6,136.1"/>
<path class="st0" d="M146.9,165.8l-7.6-2.8c-1.8-0.7-3.7,0.2-4.4,2c-0.7,1.8,0.2,3.7,2,4.4l7.6,2.8c1.8,0.7,3.7-0.2,4.4-2
	C149.6,168.4,148.7,166.4,146.9,165.8L146.9,165.8z M146.9,165.8"/>
<path class="st0" d="M146.9,180.3l-20.4-7.6c-1.8-0.7-3.7,0.2-4.4,2c-0.7,1.8,0.2,3.7,2,4.4l20.4,7.6c0.4,0.1,0.8,0.2,1.2,0.2
	c1.4,0,2.7-0.8,3.2-2.2C149.6,182.9,148.7,181,146.9,180.3L146.9,180.3z M146.9,180.3"/>
<path class="st0" d="M182.1,53.9c-1.3-1.3-3.5-1.3-4.8,0l-18,18l-4.4-4.4c-1.3-1.3-3.5-1.3-4.8,0c-1.3,1.3-1.3,3.5,0,4.8l6.8,6.8
	c1.3,1.3,3.5,1.3,4.8,0l20.4-20.4C183.4,57.4,183.4,55.2,182.1,53.9L182.1,53.9z M182.1,53.9"/>
</svg>
