<?xml version="1.0" encoding="utf-8"?>
<!-- Generator: Adobe Illustrator 22.1.0, SVG Export Plug-In . SVG Version: 6.00 Build 0)  -->
<svg version="1.1" id="Warstwa_1" xmlns="http://www.w3.org/2000/svg" xmlns:xlink="http://www.w3.org/1999/xlink" x="0px" y="0px"
	 viewBox="0 0 329 239" style="enable-background:new 0 0 329 239;" xml:space="preserve">
<style type="text/css">
	.st0{fill:#FFFFFF;}
</style>
<g>
	<path class="st0" d="M219.1,183.5c7.7-12.6,11.7-27,11.7-41.8c0-1,0-2-0.1-3.1l9.3-9.2c1.6-1.6,2.4-3.6,2.4-5.8
		c0-2.2-0.9-4.3-2.4-5.8l-3.4-3.4l6.1-6.1c1.8-1.8,1.8-4.5,0-6.3c-0.9-0.9-2-1.3-3.2-1.3s-2.3,0.5-3.2,1.3l-39.2,39
		c-0.2,0.2-0.4,0.3-0.6,0.2c-0.1,0-0.3,0-0.5-0.2l-1.6-1.6c-0.1-0.1-0.3-0.4-0.3-0.5c0-0.1,0-0.3,0.1-0.4l24.3-24.2
		c0.9-0.9,1.3-2,1.3-3.2c0-1.2-0.5-2.3-1.3-3.2l-2-2c-0.9-0.9-2-1.3-3.2-1.3s-2.3,0.5-3.2,1.3L181.3,135c-0.2,0.2-0.4,0.3-0.6,0.2
		c-0.1,0-0.3,0-0.5-0.2l-1.6-1.6c-0.1-0.1-0.3-0.4-0.3-0.5c0-0.1,0-0.3,0.1-0.4l29.3-29.2c0.9-0.9,1.3-2,1.3-3.2
		c0-1.2-0.5-2.3-1.3-3.2l-2-2c-0.9-0.9-2-1.3-3.2-1.3s-2.3,0.5-3.2,1.3L170.3,124c-0.2,0.2-0.4,0.3-0.6,0.2c-0.1,0-0.3,0-0.5-0.2
		l-1.6-1.6c-0.1-0.1-0.3-0.4-0.3-0.5c0-0.1,0-0.3,0.1-0.4l29.3-29.2c0.9-0.9,1.3-2,1.3-3.2c0-1.2-0.5-2.3-1.3-3.2l-2-2
		c-0.9-0.9-2-1.3-3.2-1.3s-2.3,0.5-3.2,1.3l-25.8,25.7c-0.2,0.2-0.4,0.2-0.6,0.2c-0.1,0-0.3,0-0.5-0.2L160,108
		c-0.1-0.1-0.3-0.4-0.3-0.5c0-0.1,0-0.3,0.1-0.4l33.7-33.6c1.3-1.2,1.8-3.1,1.1-4.8l0-0.1c-0.8-1.7-2.3-2.7-4.1-2.7h-8.7
		c-2.2,0-3.9-1.7-3.9-3.9s1.7-3.9,3.9-3.9h25.5c1.2,0,2.3-0.5,3.1-1.3l5.1-5c0.2-0.2,0.4-0.2,0.6-0.2c0.1,0,0.3,0,0.5,0.2l34.7,34.5
		c0.1,0.1,0.3,0.4,0.3,0.5c0,0.1,0,0.3-0.1,0.4l-4.6,4.5c-1.8,1.8-1.8,4.5,0,6.3c1.8,1.8,4.5,1.8,6.3,0l4.5-4.4
		c1.9-1.7,2.9-4.2,2.9-6.9l0-0.1c-0.2-2.5-1.3-4.9-3-6.7l-34.7-34.5c-3.8-3.8-9.9-3.8-13.7,0l-3.8,3.8h-23.6c-2.9,0-5.7,1-8,2.8
		c-1.5-1.3-3.3-2-5.4-2c-2.2,0-4.3,0.9-5.8,2.3l-9.1,9.1c-1.2-0.1-2.3-0.1-3.5-0.1c-14.6,0-28.9,3.9-41.4,11.4
		c-4.7-6.3-12-10-19.7-10c-13.6,0-24.6,11.2-24.6,24.9c0,8.8,4.5,16.8,11.9,21.3c-4.7,10.4-7.1,21.5-7.1,32.9
		c0,44.4,36.3,80.5,80.9,80.5c11.4,0,22.5-2.3,32.9-6.9c10.2-4.6,19-10.9,26.4-18.9c0.8-0.9,1.2-2,1.2-3.2c0-1.2-0.5-2.3-1.4-3.1
		c-1.8-1.7-4.7-1.6-6.3,0.2c-6.7,7.2-14.6,12.8-23.5,16.8c-9.2,4.1-19,6.2-29.3,6.2c-39.7,0-72-32.1-72-71.6
		c0-10.2,2.3-20.4,6.5-29.7c1.4,0.3,2.9,0.4,4.4,0.4c13.6,0,24.7-11.2,24.7-24.9c0-2.5-0.3-4.8-1-7c9.5-5.8,20.4-9.3,31.7-10.2
		l-33,32.8c-1.6,1.6-2.4,3.6-2.4,5.8c0,2.2,0.9,4.3,2.4,5.8l5.9,5.9c-4.1,6.3-6.3,13.5-6.3,21c0,13.5,7,25.9,18.6,33.1
		c1,0.7,2.2,0.9,3.4,0.6c1.1-0.3,2.1-1,2.8-2c1.3-2.1,0.7-4.8-1.5-6.2c-8.9-5.4-14.3-14.9-14.3-25.4c0-5.1,1.3-10.1,3.8-14.5
		l40.8,40.5c-4.5,2.5-9.5,3.8-14.6,3.8c-2.5,0-4.5,2-4.5,4.5s2,4.5,4.5,4.5c7.5,0,14.8-2.1,21.1-6.2l6.2,6.1
		c1.6,1.6,3.5,2.3,5.8,2.3c2.2,0,4.3-0.9,5.8-2.3l32.7-32.6c-0.9,11-4.4,21.7-10.1,31.1c-1.3,2.1-0.7,4.8,1.5,6.2
		C215,186.4,217.7,185.7,219.1,183.5z M126.7,100.5l41.6-41.4l0.7,0.7c-0.1,0.7-0.2,1.4-0.2,2.2c0,3.4,1.3,6.6,3.8,9
		c2,2,4.5,3.2,7.1,3.6l-17.8,17.7c0.6-1.6,0.2-3.4-1.1-4.7L158,85c-1.8-1.8-4.6-1.8-6.3,0c-1.8,1.8-1.8,4.5,0,6.3l2.8,2.8
		c0.9,0.9,2,1.3,3.2,1.3c0.5,0,1-0.1,1.5-0.3l-5.5,5.5c-1.9,1.7-2.9,4.2-2.9,6.9c0,2.6,1,5.1,2.8,6.9l1.6,1.6
		c1.1,1.1,2.4,1.9,3.8,2.3c-0.4,1.1-0.6,2.3-0.6,3.5c0,2.6,1,5.1,2.8,6.9l1.6,1.6c1.8,1.8,4.1,2.8,6.6,2.8c0.1,2.5,1.1,4.8,2.8,6.6
		l1.6,1.6c3.3,3.3,8.4,3.7,12.2,1.2c0.5,1.2,1.2,2.3,2.1,3.2l1.6,1.6c1.8,1.8,4.3,2.8,6.9,2.8s5-1,6.9-2.8l26.8-26.6l3,2.9
		L191.6,165L126.7,100.5z M120.3,106.9l64.9,64.6l-2.2,2.1L118.2,109L120.3,106.9z M104.5,87.5c0,8.8-7,16-15.7,16
		c-8.7,0-15.7-7.2-15.7-16s7-16,15.7-16C97.4,71.5,104.5,78.7,104.5,87.5z"/>
	<path class="st0" d="M81.6,46c8,0,14.6-6.6,14.6-14.7c0-8.1-6.5-14.7-14.6-14.7c-8.1,0-14.6,6.6-14.6,14.7C67,39.5,73.5,46,81.6,46
		z M76,31.3c0-3.2,2.5-5.8,5.6-5.8s5.6,2.6,5.6,5.8c0,3.3-2.5,5.8-5.6,5.8C78.5,37,76,34.4,76,31.3z"/>
	<path class="st0" d="M229.6,182.4c-8.9,0-16.1,7.3-16.1,16.3c0,9,7.2,16.3,16.1,16.3c8.9,0,16.1-7.3,16.1-16.3
		C245.7,189.8,238.4,182.4,229.6,182.4z M236.8,198.8c0,4.1-3.2,7.4-7.2,7.4s-7.2-3.3-7.2-7.4c0-4.1,3.2-7.4,7.2-7.4
		S236.8,194.7,236.8,198.8z"/>
	<path class="st0" d="M101.4,51.1c6.3,2,6.8,2.5,8.7,8.8c0.8,2.5,3.1,4.2,5.7,4.2s4.9-1.7,5.7-4.3c2-6.4,2.5-6.8,8.7-8.8
		c2.5-0.8,4.1-3,4.1-5.7c0-2.6-1.7-4.9-4.1-5.7l0,0c-6.3-2-6.8-2.5-8.7-8.8c-0.8-2.5-3.1-4.2-5.7-4.2s-4.9,1.7-5.7,4.3
		c-2,6.4-2.5,6.8-8.7,8.8c-2.5,0.8-4.1,3-4.1,5.7C97.3,48,98.9,50.3,101.4,51.1z M110.9,45.3c2.1-1.3,3.7-2.8,5-5
		c1.3,2.2,2.8,3.7,5,5c-2.2,1.3-3.7,2.8-5,5C114.6,48.2,113,46.6,110.9,45.3z"/>
	<path class="st0" d="M260.6,157.8L260.6,157.8c-5.1-1.6-5.4-1.9-7-7.1c-0.8-2.4-3-4-5.5-4s-4.7,1.6-5.5,4.1c-1.6,5.1-1.9,5.4-6.9,7
		c-2.4,0.8-4,3-4,5.5s1.6,4.7,4.1,5.5c5,1.6,5.4,1.9,6.9,7c0.8,2.4,3,4,5.5,4s4.7-1.6,5.5-4.1c1.6-5.1,1.9-5.4,6.9-7
		c2.4-0.8,4-3,4-5.6C264.5,160.8,262.9,158.6,260.6,157.8z M251.1,163.3c-1.2,0.8-2.2,1.8-3,3c-0.8-1.2-1.8-2.1-3-3
		c1.2-0.8,2.2-1.8,3-3C249,161.5,250,162.5,251.1,163.3z"/>
	<path class="st0" d="M163.2,79.8c0.9,0.9,2,1.3,3.2,1.3s2.3-0.5,3.1-1.3c0.9-0.8,1.4-1.9,1.4-3.1c0-1.2-0.5-2.4-1.3-3.3l-2.8-2.8
		c-0.9-0.9-2-1.3-3.2-1.3c-1.2,0-2.3,0.5-3.2,1.3c-1.8,1.8-1.8,4.5,0,6.3L163.2,79.8z"/>
	<path class="st0" d="M142.6,92.5c-1.8-1.8-4.6-1.8-6.3,0c-0.9,0.9-1.3,2-1.3,3.2s0.5,2.3,1.3,3.2l2.8,2.8c0.9,0.9,2,1.3,3.2,1.3
		s2.3-0.5,3.2-1.3c1.7-1.7,1.7-4.5,0-6.3L142.6,92.5z"/>
	<path class="st0" d="M194.2,152.3l-2.8-2.8c-0.9-0.9-2-1.3-3.2-1.3s-2.3,0.5-3.2,1.3c-0.9,0.9-1.3,2-1.3,3.2s0.5,2.3,1.3,3.2
		l2.8,2.8c0.9,0.9,2,1.3,3.2,1.3c1.2,0,2.3-0.5,3.2-1.3C195.8,156.9,195.8,154.1,194.2,152.3z"/>
</g>
</svg>
