<?xml version="1.0" encoding="utf-8"?>
<!-- Generator: Adobe Illustrator 22.1.0, SVG Export Plug-In . SVG Version: 6.00 Build 0)  -->
<svg version="1.1" id="Warstwa_1" xmlns="http://www.w3.org/2000/svg" xmlns:xlink="http://www.w3.org/1999/xlink" x="0px" y="0px"
	 viewBox="0 0 329 239" style="enable-background:new 0 0 329 239;" xml:space="preserve">
<style type="text/css">
	.st0{fill:#FFFFFF;}
</style>
<g>
	<path class="st0" d="M126.4,131.7c-1.8,0-3.2,1.4-3.2,3.2l0,0c0,1.8,1.4,3.2,3.2,3.2c1.8,0,3.2-1.4,3.2-3.2l0,0
		C129.6,133.1,128.2,131.7,126.4,131.7z"/>
	<path class="st0" d="M113.8,125.4c-1.8,0-3.2,1.4-3.2,3.2l0,0c0,1.8,1.4,3.2,3.2,3.2c1.8,0,3.2-1.4,3.2-3.2l0,0
		C116.9,126.8,115.5,125.4,113.8,125.4z"/>
	<circle class="st0" cx="104.2" cy="138.1" r="3.2"/>
	<path class="st0" d="M189.9,109.5L189.9,109.5c1.8,0,3.2-1.4,3.2-3.2l0,0c0-1.8-1.4-3.2-3.2-3.2l0,0c-1.8,0-3.2,1.4-3.2,3.2l0,0
		C186.7,108.1,188.2,109.5,189.9,109.5z"/>
	<path class="st0" d="M202.6,115.9c1.8,0,3.2-1.4,3.2-3.2l0,0c0-1.8-1.4-3.2-3.2-3.2c-1.8,0-3.2,1.4-3.2,3.2l0,0
		C199.4,114.4,200.9,115.9,202.6,115.9z"/>
	<path class="st0" d="M210.5,108.5c1.8,0,3.2-1.4,3.2-3.2l0,0c0-1.8-1.4-3.2-3.2-3.2c-1.8,0-3.2,1.4-3.2,3.2l0,0
		C207.4,107,208.8,108.5,210.5,108.5z"/>
	<path class="st0" d="M178,163.5L178,163.5c-1.8,0-3.2,1.4-3.2,3.2s1.4,3.2,3.2,3.2l0,0c1.8,0,3.2-1.4,3.2-3.2
		S179.8,163.5,178,163.5z"/>
	<path class="st0" d="M190.7,157.1L190.7,157.1c-1.8,0-3.2,1.4-3.2,3.2s1.4,3.2,3.2,3.2l0,0c1.8,0,3.2-1.4,3.2-3.2
		S192.5,157.1,190.7,157.1z"/>
	<path class="st0" d="M203.4,131.7c-1.8,0-3.2,1.4-3.2,3.2v0.1c0,1.7,1.4,3.1,3.1,3.1h0.1c1.7,0,3.1-1.4,3.1-3.1v-0.1
		C206.6,133.1,205.2,131.7,203.4,131.7z"/>
	<path class="st0" d="M174.8,134.9L174.8,134.9c1.8,0,3.2-1.4,3.2-3.2l0,0c0-1.8-1.4-3.2-3.2-3.2l0,0c-1.8,0-3.2,1.4-3.2,3.2l0,0
		C171.7,133.5,173.1,134.9,174.8,134.9z"/>
	<path class="st0" d="M142.4,166.6h-0.1c-1.7,0-3.1,1.4-3.1,3.1v0.1c0,1.7,1.4,3.1,3.1,3.1h0.1c1.7,0,3.1-1.4,3.1-3.1v-0.1
		C145.5,168,144.1,166.6,142.4,166.6z"/>
	<path class="st0" d="M126.5,160.3h-0.1c-1.7,0-3.1,1.4-3.1,3.1v0.1c0,1.7,1.4,3.1,3.1,3.1h0.1c1.7,0,3.1-1.4,3.1-3.1v-0.1
		C129.6,161.7,128.2,160.3,126.5,160.3z"/>
	<circle class="st0" cx="110.6" cy="173" r="3.2"/>
	<path class="st0" d="M182.8,74.6c6.3,0,11.4-5.3,11.1-11.7c-0.3-5.6-4.9-10.2-10.5-10.5c-6.4-0.3-11.7,4.8-11.7,11.1
		C171.7,69.6,176.6,74.6,182.8,74.6z M182.8,58.7c2.7,0,4.8,2.2,4.8,4.9c-0.1,2.5-2.1,4.6-4.6,4.6c-2.7,0.1-4.9-2.1-4.9-4.8
		C178,60.9,180.1,58.7,182.8,58.7z"/>
	<path class="st0" d="M216.1,58.7c8.8,0,15.9-7.1,15.9-15.9c0-8.8-7.1-15.9-15.9-15.9c-8.8,0-15.9,7.1-15.9,15.9
		C200.2,51.6,207.3,58.7,216.1,58.7z M216.1,33.3c5.3,0,9.5,4.3,9.5,9.5c0,5.3-4.3,9.5-9.5,9.5c-5.3,0-9.5-4.3-9.5-9.5
		C206.6,37.6,210.8,33.3,216.1,33.3z"/>
	<path class="st0" d="M241.5,153.9c-0.3,0-0.5,0.1-0.8,0.1v-34.4c0-17.9-14.5-32.4-32.4-32.4c-1.3,0-2.7,0.1-4,0.2l-39.7,5
		c-2.1,0.3-4.3,0.3-6.5,0l-9.5-1.2c0-0.3,0.1-0.6,0.1-0.9c0.1-8.7-6.9-15.8-15.6-15.9c-0.8,0-1.6,0-2.4,0.2
		c-5.1-11.1-18.2-16.1-29.4-11c-9,4.1-14.2,13.7-12.7,23.5c-0.1,0-0.2,0-0.3,0c-8.8,0-15.9,7.1-15.9,15.9c0,6.4,3.8,12.1,9.6,14.6
		c0,0.6-0.1,1.3-0.1,1.9v36.1c0,17.9,14.5,32.4,32.4,32.4c1.3,0,2.7-0.1,4-0.2l39.7-5c2.1-0.3,4.3-0.3,6.5,0l16.9,2.1
		c1.1,8.4,8.7,14.3,17,13.2c0.2,0,0.4-0.1,0.7-0.1c5.1,11.1,18.3,16,29.4,10.9c7.9-3.6,12.9-11.5,12.9-20.2c0-1.1-0.1-2.1-0.3-3.2
		c0.1,0,0.2,0,0.3,0c8.8,0,15.9-7.1,15.9-15.9C257.4,161,250.2,153.9,241.5,153.9z M144.9,100.6c0.8-1,1.5-2,2-3.1v0l10.4,1.3
		c2.7,0.3,5.4,0.3,8,0l39.7-5c14.3-1.8,27.3,8.3,29,22.6c0.1,1.1,0.2,2.1,0.2,3.2v3.7c0,14.4-11.6,26-26,26c-1.1,0-2.2-0.1-3.2-0.2
		l-39.7-5c-2.7-0.3-5.4-0.3-8,0l-39.7,5c-14.3,1.8-27.3-8.3-29-22.6c-0.1-1.1-0.2-2.2-0.2-3.2v-3.7c0-0.2,0-0.4,0-0.6
		c7.9,0,14.5-5.9,15.6-13.7c6.3,2,13.2,1,18.7-2.6C129.4,108.3,139.4,107.3,144.9,100.6z M132.8,84.1c0-1.1-0.1-2.1-0.3-3.2
		c0.1,0,0.2,0,0.3,0c5.3,0,9.5,4.3,9.5,9.5c0,5.3-4.3,9.5-9.5,9.5c-1.9,0-3.7-0.6-5.2-1.6C131,94.4,132.8,89.3,132.8,84.1z
		 M110.6,68.3c8.8,0,15.9,7.1,15.9,15.9c0,8.8-7.1,15.9-15.9,15.9c-8.8,0-15.9-7.1-15.9-15.9C94.7,75.4,101.8,68.3,110.6,68.3z
		 M78.8,103.2c0-5.3,4.3-9.5,9.5-9.5c0.8,0,1.6,0.1,2.3,0.3c1.7,3.4,4.2,6.3,7.4,8.5c-0.1,0.2-0.1,0.5-0.2,0.7
		c0,5.3-4.3,9.5-9.5,9.5C83.1,112.7,78.8,108.4,78.8,103.2z M185,172.3c-1.6,1.9-2.7,4.1-3.2,6.4l0,0l-16.3-2c-2.7-0.3-5.4-0.3-8,0
		l-39.7,4.9c-14.3,1.8-27.3-8.3-29-22.6c-0.1-1.1-0.2-2.1-0.2-3.2v-13.2c6.9,9.4,18.4,14.3,30,12.9l39.7-5c2.1-0.3,4.3-0.3,6.5,0
		l39.7,5c11.6,1.5,23.1-3.5,30-12.9v13.1c-4.6,2.4-7.8,6.8-8.5,12c-6.3-1.9-13.2-0.9-18.7,2.6C200.5,164.8,190.6,165.6,185,172.3z
		 M197.1,192c-5.3,0-9.5-4.3-9.5-9.5c0-5.3,4.3-9.5,9.5-9.5c5.3,0,9.5,4.3,9.5,9.5C206.6,187.8,202.3,192,197.1,192z M224.4,203.9
		c-1.7,0.6-3.4,0.8-5.2,0.8c-6,0-11.4-3.3-14.1-8.6c4.8-2.8,7.8-8,7.8-13.6c0-2.5-0.6-5-1.8-7.2c4.7-2.7,10.5-2.9,15.4-0.5
		c1.3,3.9,4.1,7.2,7.8,9.1C237.1,192.1,232.7,201.1,224.4,203.9z M241.5,179.3c-5.3,0-9.5-4.3-9.5-9.5c0-5.3,4.3-9.5,9.5-9.5
		c5.3,0,9.5,4.3,9.5,9.5C251,175.1,246.7,179.3,241.5,179.3z"/>
</g>
</svg>
