<?xml version="1.0" encoding="utf-8"?>
<!-- Generator: Adobe Illustrator 22.1.0, SVG Export Plug-In . SVG Version: 6.00 Build 0)  -->
<svg version="1.1" id="Warstwa_1" xmlns="http://www.w3.org/2000/svg" xmlns:xlink="http://www.w3.org/1999/xlink" x="0px" y="0px"
	 viewBox="0 0 329 239" style="enable-background:new 0 0 329 239;" xml:space="preserve">
<style type="text/css">
	.st0{fill:#FFFFFF;}
</style>
<g>
	<path class="st0" d="M233.4,162.8l-12-4.8V62.3c0-1.5-1.2-2.7-2.7-2.7c-1.5,0-2.7,1.2-2.7,2.7V158l-12,4.8c-1,0.4-1.7,1.4-1.7,2.5
		v27.3c0,1.5,1.2,2.7,2.7,2.7h27.3c1.5,0,2.7-1.2,2.7-2.7v-27.3C235.2,164.2,234.5,163.2,233.4,162.8z M229.7,189.9h-21.9v-22.8
		l10.9-4.4l10.9,4.4V189.9z"/>
	<path class="st0" d="M216,51.4c0,1.5,1.2,2.7,2.7,2.7c1.5,0,2.7-1.2,2.7-2.7c0-9-7.4-16.4-16.4-16.4c-9,0-16.4,7.4-16.4,16.4V66
		c0,6-4.9,10.9-10.9,10.9S166.8,72,166.8,66V51.4c0-9-7.4-16.4-16.4-16.4c-9,0-16.4,7.4-16.4,16.4v36.4h-22.8
		c-0.9,0-1.7,0.4-2.2,1.2l-15.5,21.9c-0.3,0.5-0.5,1-0.5,1.6v10.9c0,1.5,1.2,2.7,2.7,2.7s2.7-1.2,2.7-2.7v-10.1l14.2-20H134v5.5
		h-0.9c-1.5,0-2.7,1.2-2.7,2.7s1.2,2.7,2.7,2.7h7.3c1.5,0,2.7-1.2,2.7-2.7s-1.2-2.7-2.7-2.7h-0.9v-5.5h21.4l14.2,20v87.5H98.5v-66.5
		c0-1.5-1.2-2.7-2.7-2.7s-2.7,1.2-2.7,2.7v69.3c0,1.5,1.2,2.7,2.7,2.7h82c1.5,0,2.7-1.2,2.7-2.7v-91.1c0-0.6-0.2-1.1-0.5-1.6
		L164.5,89c-0.5-0.7-1.3-1.2-2.2-1.2h-22.8V51.4c0-6,4.9-10.9,10.9-10.9c6,0,10.9,4.9,10.9,10.9V66c0,9,7.4,16.4,16.4,16.4
		c9,0,16.4-7.4,16.4-16.4V51.4c0-6,4.9-10.9,10.9-10.9C211.1,40.5,216,45.4,216,51.4z"/>
	<path class="st0" d="M125.8,115.2h21.9c0.9,0,1.8-0.5,2.3-1.2l7.3-10.9c0.8-1.3,0.5-3-0.8-3.8c-1.3-0.8-3-0.5-3.8,0.8l-6.5,9.7
		h-18.9l-6.5-9.7c-0.8-1.3-2.5-1.6-3.8-0.8c-1.3,0.8-1.6,2.5-0.8,3.8l7.3,10.9C124,114.7,124.9,115.2,125.8,115.2z"/>
	<circle class="st0" cx="129.4" cy="180.8" r="2.7"/>
	<circle class="st0" cx="118.5" cy="169.9" r="2.7"/>
	<path class="st0" d="M103.9,152.4v40.3c0,1.5,1.2,2.7,2.7,2.7h60.1c1.5,0,2.7-1.2,2.7-2.7v-40.3c0-1.5-1.2-2.7-2.7-2.7
		c-8.1,0-12.4,2.1-16.2,3.9c-3.6,1.7-7,3.4-13.8,3.4s-10.3-1.6-13.8-3.4c-3.8-1.8-8.1-3.9-16.2-3.9
		C105.2,149.6,103.9,150.9,103.9,152.4z M109.4,155.2c5.1,0.4,8,1.8,11.1,3.3c3.8,1.8,8.1,3.9,16.2,3.9c8.1,0,12.4-2.1,16.2-3.9
		c3.1-1.5,6-2.9,11.1-3.3v34.7h-54.7V155.2z"/>
</g>
</svg>
