<?xml version="1.0" encoding="utf-8"?>
<!-- Generator: Adobe Illustrator 22.1.0, SVG Export Plug-In . SVG Version: 6.00 Build 0)  -->
<svg version="1.1" id="Warstwa_1" xmlns="http://www.w3.org/2000/svg" xmlns:xlink="http://www.w3.org/1999/xlink" x="0px" y="0px"
	 viewBox="0 0 329 239" style="enable-background:new 0 0 329 239;" xml:space="preserve">
<style type="text/css">
	.st0{fill:#FFFFFF;}
</style>
<g>
	<path class="st0" d="M233.9,161.6l-12-4.8V61.1c0-1.5-1.2-2.7-2.7-2.7s-2.7,1.2-2.7,2.7v95.7l-12,4.8c-1,0.4-1.7,1.4-1.7,2.5v27.3
		c0,1.5,1.2,2.7,2.7,2.7h27.3c1.5,0,2.7-1.2,2.7-2.7v-27.3C235.7,163.1,235,162.1,233.9,161.6z M208.3,188.8v-22.8l10.9-4.4
		l10.9,4.4v22.8H208.3z"/>
	<path class="st0" d="M216.5,50.3c0,1.5,1.2,2.7,2.7,2.7s2.7-1.2,2.7-2.7c0-9-7.4-16.4-16.4-16.4s-16.4,7.4-16.4,16.4v14.6
		c0,6-4.9,10.9-10.9,10.9s-10.9-4.9-10.9-10.9V50.3c0-9-7.4-16.4-16.4-16.4s-16.4,7.4-16.4,16.4v36.4h-22.8c-0.9,0-1.7,0.4-2.2,1.2
		L94,109.8c-0.3,0.5-0.5,1-0.5,1.6v10.9c0,1.5,1.2,2.7,2.7,2.7s2.7-1.2,2.7-2.7v-10.1l14.2-20h21.4v5.5h-0.9c-1.5,0-2.7,1.2-2.7,2.7
		s1.2,2.7,2.7,2.7h7.3c1.5,0,2.7-1.2,2.7-2.7s-1.2-2.7-2.7-2.7H140v-5.5h21.4l14.2,20v87.5H99v-66.5c0-1.5-1.2-2.7-2.7-2.7
		s-2.7,1.2-2.7,2.7v69.3c0,1.5,1.2,2.7,2.7,2.7h82c1.5,0,2.7-1.2,2.7-2.7v-91.1c0-0.6-0.2-1.1-0.5-1.6L165,87.9
		c-0.5-0.7-1.3-1.2-2.2-1.2H140V50.3c0-6,4.9-10.9,10.9-10.9s10.9,4.9,10.9,10.9v14.6c0,9,7.4,16.4,16.4,16.4s16.4-7.4,16.4-16.4
		V50.3c0-6,4.9-10.9,10.9-10.9C211.6,39.4,216.5,44.3,216.5,50.3z"/>
	<path class="st0" d="M129.9,177c-1.5,0-2.7,1.2-2.7,2.7c0,1.5,1.2,2.7,2.7,2.7c1.5,0,2.7-1.2,2.7-2.7
		C132.6,178.2,131.4,177,129.9,177z"/>
	<path class="st0" d="M119,166.1c-1.5,0-2.7,1.2-2.7,2.7c0,1.5,1.2,2.7,2.7,2.7s2.7-1.2,2.7-2.7C121.7,167.3,120.5,166.1,119,166.1z
		"/>
	<path class="st0" d="M104.4,151.3v40.3c0,1.5,1.2,2.7,2.7,2.7h60.1c1.5,0,2.7-1.2,2.7-2.7v-40.3c0-1.5-1.2-2.7-2.7-2.7
		c-8.1,0-12.4,2.1-16.2,3.9c-3.6,1.7-7,3.4-13.8,3.4s-10.3-1.6-13.8-3.4c-3.8-1.8-8.1-3.9-16.2-3.9
		C105.7,148.5,104.4,149.8,104.4,151.3z M109.8,154.1h0.1c5.1,0.4,8,1.8,11.1,3.3c3.8,1.8,8.1,3.9,16.2,3.9s12.4-2.1,16.2-3.9
		c3.1-1.5,6-2.9,11.1-3.3v34.7h-54.7V154.1z"/>
	<path class="st0" d="M158.5,109H117c-1.7,0-3,1.3-3,3v0c0,1.7,1.3,3,3,3h41.5c1.7,0,3-1.3,3-3v0C161.5,110.3,160.1,109,158.5,109z"
		/>
	<path class="st0" d="M223.9,169.4h-9.5c-1.7,0-3,1.3-3,3s1.3,3,3,3h9.5c1.7,0,3-1.3,3-3S225.5,169.4,223.9,169.4z"/>
	<path class="st0" d="M114,129.3c0,1.4,1.1,2.5,2.5,2.5h0.5c1.3,0,2.4-1.1,2.5-2.5v-0.5c0-1.4-1.1-2.5-2.5-2.5h-0.5
		c-1.4,0-2.5,1.1-2.5,2.5V129.3z"/>
	<path class="st0" d="M130,142.9c0,2,1.6,3.6,3.6,3.6s3.6-1.6,3.6-3.6s-1.6-3.6-3.6-3.6S130,140.9,130,142.9z"/>
	<path class="st0" d="M144.5,126.3c-1.4,0-2.5,1.1-2.5,2.5v0.6c0,1.4,1.1,2.5,2.5,2.5h0.5c1.4,0,2.5-1.1,2.6-2.5v-0.6
		c0-1.4-1.1-2.5-2.5-2.5H144.5z"/>
	<path class="st0" d="M159,128.8c0,1.4,1.1,2.5,2.5,2.5c1.3,0,2.4-1.1,2.5-2.5c0-1.4-1.1-2.5-2.5-2.5
		C160.1,126.3,159,127.4,159,128.8z"/>
</g>
</svg>
