<?xml version="1.0" encoding="utf-8"?>
<!-- Generator: Adobe Illustrator 22.1.0, SVG Export Plug-In . SVG Version: 6.00 Build 0)  -->
<svg version="1.1" id="Warstwa_1" xmlns="http://www.w3.org/2000/svg" xmlns:xlink="http://www.w3.org/1999/xlink" x="0px" y="0px"
	 viewBox="0 0 329 239" style="enable-background:new 0 0 329 239;" xml:space="preserve">
<style type="text/css">
	.st0{fill:#FFFFFF;}
</style>
<g>
	<path class="st0" d="M199.5,40.6c-18.1,0-34.9,21.7-43.5,55.6c-13.3-3.4-27.8-5.2-41.7-5.2c-16,0-29.4,5.4-38.9,15.6
		c-8.4,9-13,21.1-13,34c0,23,15.2,47.7,48.7,47.7c0.5,0,1,0,1.4,0.1c0.6,0,1.2,0.1,1.7,0.1c18.8,0,38.5-3.4,55.2-9.4
		c8.8,6.8,19.8,10.4,30.9,10.4c7.2,0,14.5-1.5,21.2-4.6c16.8-7.8,26.5-23.8,26.5-44.1c0-0.5,0-1,0-1.4c0-0.6,0.1-1.2,0.1-1.7
		C248.1,91.7,228.2,40.6,199.5,40.6L199.5,40.6z M112.9,181.6c-0.6,0-1.2-0.1-1.8-0.1c-28.8,0-41.9-21.3-41.9-41
		c0-11.2,4-21.6,11.2-29.4c8.2-8.8,19.9-13.4,33.9-13.4c14.4,0,28.5,2,41.1,5.3l2.1,0.6c3.4,0.9,6.7,2,9.8,3.1
		c0.6,0.2,1.1,0.4,1.6,0.6c0.7,0.3,1.4,0.5,2.1,0.8c0.8,0.3,1.7,0.7,2.5,1c0.1,0,0.1,0.1,0.2,0.1c10.6,4.5,19.2,10.1,24.5,16.2
		c0.2,0.2,0.4,0.4,0.6,0.7c0.3,0.4,0.7,0.9,1,1.3c0.3,0.4,0.5,0.7,0.8,1.1c0.2,0.3,0.5,0.7,0.7,1c0.4,0.7,0.9,1.5,1.2,2.2
		c0.1,0.2,0.2,0.4,0.2,0.6c0.3,0.6,0.5,1.2,0.7,1.8c0.1,0.3,0.2,0.5,0.2,0.8c0.2,0.6,0.3,1.1,0.4,1.7c0,0.2,0.1,0.5,0.1,0.7
		c0.1,0.8,0.2,1.6,0.2,2.4c0,0.7-0.1,1.4-0.2,2.1c0,0.3-0.1,0.5-0.1,0.8c-0.1,0.5-0.2,0.9-0.3,1.3c-0.1,0.3-0.2,0.7-0.3,1
		s-0.2,0.7-0.3,1.1c-0.2,0.4-0.3,0.8-0.5,1.2c-0.1,0.3-0.2,0.5-0.4,0.8c-0.2,0.5-0.5,0.9-0.8,1.4c-0.1,0.2-0.2,0.3-0.3,0.5
		c-0.3,0.6-0.7,1.1-1.1,1.7c0,0,0,0,0,0.1c-5.1,7-14.4,13.4-26.3,18.4c-0.1,0.1-0.2,0.1-0.3,0.1c-0.6,0.3-1.3,0.5-1.9,0.8
		c-0.7,0.3-1.4,0.6-2.2,0.9c-15.7,6-35.2,9.8-55.2,9.8C113.8,181.6,113.4,181.6,112.9,181.6L112.9,181.6z M241.4,139
		c0,0.6-0.1,1.2-0.1,1.8c0,17.5-8.2,31.3-22.6,38c-13.4,6.2-29.5,5-41.8-2.6c20.1-8.6,34.3-21.3,34.3-36.4c0-1-0.1-2-0.2-3
		c0-0.1,0-0.2,0-0.3c-2.4-17-22.8-30.6-48.5-38.3c7.6-30.4,22.3-50.7,37-50.7c21.6,0,42,43.8,42,90.2
		C241.4,138,241.4,138.5,241.4,139L241.4,139z"/>
	<path class="st0" d="M91.8,110.1c-8.9,6.3-14.2,16.4-14.8,27.8c-0.1,1.9,1.3,3.4,3.2,3.5c0,0,0.1,0,0.2,0c1.8,0,3.3-1.4,3.4-3.2
		c0.4-9.3,4.8-17.5,12-22.6c1.5-1.1,1.9-3.2,0.8-4.7C95.4,109.4,93.3,109,91.8,110.1L91.8,110.1z"/>
	<path class="st0" d="M115.1,103.3c-4.3,0-8.4,0.5-12.2,1.6c-1.8,0.5-2.8,2.4-2.3,4.1c0.4,1.5,1.7,2.4,3.2,2.4c0.3,0,0.6,0,0.9-0.1
		c3.2-0.9,6.7-1.3,10.4-1.3c1.9,0,3.4-1.5,3.4-3.4C118.4,104.8,116.9,103.3,115.1,103.3L115.1,103.3z"/>
	<path class="st0" d="M214.1,76.1c3.1,4.6,5.5,10,7.3,15.9c0.4,1.5,1.8,2.4,3.2,2.4c0.3,0,0.6,0,1-0.1c1.8-0.5,2.8-2.4,2.3-4.2
		c-1.9-6.5-4.7-12.5-8.1-17.7c-1-1.6-3.1-2-4.7-0.9C213.5,72.4,213.1,74.5,214.1,76.1L214.1,76.1z"/>
	<path class="st0" d="M198.9,54.3c-1.7-0.6-3.7,0.3-4.3,2s0.3,3.7,2,4.3c0,0,4.1,1.5,9,5.8c0.6,0.6,1.4,0.8,2.2,0.8
		c0.9,0,1.9-0.4,2.5-1.2c1.2-1.4,1.1-3.5-0.3-4.7C204.1,56.1,199.1,54.3,198.9,54.3L198.9,54.3z"/>
</g>
</svg>
