<?xml version="1.0" encoding="utf-8"?>
<!-- Generator: Adobe Illustrator 22.1.0, SVG Export Plug-In . SVG Version: 6.00 Build 0)  -->
<svg version="1.1" id="Warstwa_1" xmlns="http://www.w3.org/2000/svg" xmlns:xlink="http://www.w3.org/1999/xlink" x="0px" y="0px"
	 viewBox="0 0 329 239" style="enable-background:new 0 0 329 239;" xml:space="preserve">
<style type="text/css">
	.st0{fill:#FFFFFF;}
</style>
<g>
	<path class="st0" d="M253.4,66c3.1,0,5.7-2.6,5.7-5.7v-15c0-3.1-2.6-5.7-5.7-5.7H244v-7.4c0-3.1-2.6-5.7-5.7-5.7h-33.4
		c-3.1,0-5.7,2.6-5.7,5.7v48c0,1.5,1.2,2.8,2.8,2.8c1.5,0,2.8-1.2,2.8-2.8v-48c0-0.1,0.1-0.2,0.2-0.2h33.4c0.1,0,0.2,0.1,0.2,0.2
		v105.9h-16.1V96.7c0-3.1-2.6-5.7-5.7-5.7H76.6c-3.1,0-5.7,2.6-5.7,5.7v64.2c0,3.1,2.6,5.7,5.7,5.7h87.7v41.3c0,3.1,2.6,5.7,5.7,5.7
		h74.2c3.1,0,5.7-2.6,5.7-5.7v-64.1c0-3.1-2.6-5.7-5.7-5.7H244v-6.3h9.4c3.1,0,5.7-2.6,5.7-5.7v-15c0-3.1-2.6-5.7-5.7-5.7H244v-6.5
		h9.4c3.1,0,5.7-2.6,5.7-5.7v-15c0-3.1-2.6-5.7-5.7-5.7H244V66H253.4z M76.6,161.1c-0.1,0-0.2-0.1-0.2-0.2V96.7
		c0-0.1,0.1-0.2,0.2-0.2h140.1c0.1,0,0.2,0.1,0.2,0.2v41.4h-9.4c-2.2-4.3-6.7-7.1-11.7-7.1c-5,0-9.4,2.8-11.7,7.1h-9.5
		c-2.2-4.3-6.7-7.1-11.7-7.1c-7.3,0-13.2,5.9-13.2,13.2c0,7.3,5.9,13.2,13.2,13.2c0.5,0,0.9,0,1.3-0.1v3.7H76.6z M200.4,138.1h-9.2
		c1.3-1,2.9-1.5,4.6-1.5C197.5,136.6,199.1,137.1,200.4,138.1L200.4,138.1z M164.3,151.8c-0.4,0.1-0.9,0.1-1.3,0.1
		c-4.2,0-7.7-3.4-7.7-7.7c0-4.2,3.4-7.7,7.7-7.7c1.9,0,3.7,0.7,5.1,1.9c-2.2,0.8-3.7,2.9-3.7,5.3V151.8z M244.4,143.8v64.1
		c0,0.1-0.1,0.2-0.2,0.2H170c-0.1,0-0.2-0.1-0.2-0.2v-54.1c0,0,0,0,0,0v-10c0-0.1,0.1-0.2,0.2-0.2h35.7c0,0,0,0,0,0c0,0,0,0,0,0
		h38.5C244.3,143.6,244.4,143.7,244.4,143.8L244.4,143.8z M253.4,45.1c0.1,0,0.2,0.1,0.2,0.2v15c0,0.1-0.1,0.2-0.2,0.2H244V45.1
		H253.4z M253.4,110.9c0.1,0,0.2,0.1,0.2,0.2v15c0,0.1-0.1,0.2-0.2,0.2H244v-15.3H253.4z M253.4,78c0.1,0,0.2,0.1,0.2,0.2v15
		c0,0.1-0.1,0.2-0.2,0.2H244V78H253.4z M253.4,78"/>
	<path class="st0" d="M103.4,86.4h74.1c3.1,0,5.7-2.6,5.7-5.7V47.3c0-3.1-2.6-5.7-5.7-5.7H170v-9.4c0-3.1-2.6-5.7-5.7-5.7h-15
		c-3.1,0-5.7,2.6-5.7,5.7c0,1.5,1.2,2.8,2.8,2.8c1.5,0,2.8-1.2,2.8-2.8c0-0.1,0.1-0.2,0.2-0.2h15c0.1,0,0.2,0.1,0.2,0.2v9.4h-27.4
		v-9.4c0-3.1-2.6-5.7-5.7-5.7h-15c-3.1,0-5.7,2.6-5.7,5.7v9.4h-7.4c-3.1,0-5.7,2.6-5.7,5.7v33.4C97.7,83.8,100.2,86.4,103.4,86.4
		L103.4,86.4z M116.3,32.2c0-0.1,0.1-0.2,0.2-0.2h15c0.1,0,0.2,0.1,0.2,0.2v9.4h-15.3V32.2z M103.2,47.3c0-0.1,0.1-0.2,0.2-0.2h74.1
		c0.1,0,0.2,0.1,0.2,0.2v33.4c0,0.1-0.1,0.2-0.2,0.2h-74.1c-0.1,0-0.2-0.1-0.2-0.2V47.3z M103.2,47.3"/>
	<path class="st0" d="M97.2,100.2c-7.3,0-13.2,5.9-13.2,13.2c0,7.3,5.9,13.2,13.2,13.2c7.3,0,13.2-5.9,13.2-13.2
		C110.3,106.1,104.4,100.2,97.2,100.2L97.2,100.2z M97.2,121.1c-4.2,0-7.7-3.4-7.7-7.7c0-4.2,3.4-7.7,7.7-7.7c4.2,0,7.7,3.4,7.7,7.7
		C104.8,117.6,101.4,121.1,97.2,121.1L97.2,121.1z M97.2,121.1"/>
	<path class="st0" d="M97.2,131c-7.3,0-13.2,5.9-13.2,13.2c0,7.3,5.9,13.2,13.2,13.2c7.3,0,13.2-5.9,13.2-13.2
		C110.3,136.9,104.4,131,97.2,131L97.2,131z M97.2,151.9c-4.2,0-7.7-3.4-7.7-7.7c0-4.2,3.4-7.7,7.7-7.7c4.2,0,7.7,3.4,7.7,7.7
		C104.8,148.4,101.4,151.9,97.2,151.9L97.2,151.9z M97.2,151.9"/>
	<path class="st0" d="M130,100.2c-4.2,0-8,1.9-10.5,5.2c-0.9,1.2-0.7,2.9,0.5,3.9c1.2,0.9,2.9,0.7,3.9-0.5c1.5-1.9,3.7-3,6.1-3
		c4.2,0,7.7,3.4,7.7,7.7c0,4.2-3.4,7.7-7.7,7.7c-2.4,0-4.6-1.1-6.1-3c-0.9-1.2-2.7-1.4-3.9-0.5c-1.2,0.9-1.4,2.7-0.5,3.9
		c2.5,3.3,6.3,5.2,10.5,5.2c7.3,0,13.2-5.9,13.2-13.2C143.2,106.1,137.3,100.2,130,100.2L130,100.2z M130,100.2"/>
	<path class="st0" d="M130,131c-7.3,0-13.2,5.9-13.2,13.2c0,7.3,5.9,13.2,13.2,13.2c7.3,0,13.2-5.9,13.2-13.2
		C143.2,136.9,137.3,131,130,131L130,131z M130,151.9c-4.2,0-7.7-3.4-7.7-7.7c0-4.2,3.4-7.7,7.7-7.7c4.2,0,7.7,3.4,7.7,7.7
		C137.7,148.4,134.2,151.9,130,151.9L130,151.9z M130,151.9"/>
	<path class="st0" d="M163,126.6c7.3,0,13.2-5.9,13.2-13.2c0-7.3-5.9-13.2-13.2-13.2c-7.3,0-13.2,5.9-13.2,13.2
		C149.8,120.7,155.7,126.6,163,126.6L163,126.6z M163,105.8c4.2,0,7.7,3.4,7.7,7.7c0,4.2-3.4,7.7-7.7,7.7c-4.2,0-7.7-3.4-7.7-7.7
		C155.3,109.2,158.8,105.8,163,105.8L163,105.8z M163,105.8"/>
	<path class="st0" d="M195.8,126.6c7.3,0,13.2-5.9,13.2-13.2c0-7.3-5.9-13.2-13.2-13.2c-7.3,0-13.2,5.9-13.2,13.2
		C182.7,120.7,188.6,126.6,195.8,126.6L195.8,126.6z M195.8,105.8c4.2,0,7.7,3.4,7.7,7.7c0,4.2-3.4,7.7-7.7,7.7
		c-4.2,0-7.7-3.4-7.7-7.7C188.2,109.2,191.6,105.8,195.8,105.8L195.8,105.8z M195.8,105.8"/>
	<path class="st0" d="M190.7,147.3c-7.3,0-13.2,5.9-13.2,13.2c0,7.3,5.9,13.2,13.2,13.2c7.3,0,13.2-5.9,13.2-13.2
		C203.9,153.2,198,147.3,190.7,147.3L190.7,147.3z M190.7,168.1c-4.2,0-7.7-3.4-7.7-7.7c0-4.2,3.4-7.7,7.7-7.7
		c4.2,0,7.7,3.4,7.7,7.7C198.4,164.7,194.9,168.1,190.7,168.1L190.7,168.1z M190.7,168.1"/>
	<path class="st0" d="M190.7,178.1c-7.3,0-13.2,5.9-13.2,13.2c0,7.3,5.9,13.2,13.2,13.2c7.3,0,13.2-5.9,13.2-13.2
		C203.9,184,198,178.1,190.7,178.1L190.7,178.1z M190.7,198.9c-4.2,0-7.7-3.4-7.7-7.7s3.4-7.7,7.7-7.7c4.2,0,7.7,3.4,7.7,7.7
		S194.9,198.9,190.7,198.9L190.7,198.9z M190.7,198.9"/>
	<path class="st0" d="M210.4,160.5c0,7.3,5.9,13.2,13.2,13.2c7.3,0,13.2-5.9,13.2-13.2c0-7.3-5.9-13.2-13.2-13.2
		C216.3,147.3,210.4,153.2,210.4,160.5L210.4,160.5z M223.6,152.8c4.2,0,7.7,3.4,7.7,7.7s-3.4,7.7-7.7,7.7c-4.2,0-7.7-3.4-7.7-7.7
		C215.9,156.2,219.3,152.8,223.6,152.8L223.6,152.8z M223.6,152.8"/>
	<path class="st0" d="M223.6,178.1c-7.3,0-13.2,5.9-13.2,13.2c0,7.3,5.9,13.2,13.2,13.2c7.3,0,13.2-5.9,13.2-13.2
		C236.7,184,230.8,178.1,223.6,178.1L223.6,178.1z M223.6,198.9c-4.2,0-7.7-3.4-7.7-7.7s3.4-7.7,7.7-7.7c4.2,0,7.7,3.4,7.7,7.7
		S227.8,198.9,223.6,198.9L223.6,198.9z M223.6,198.9"/>
</g>
</svg>
