<?xml version="1.0" encoding="utf-8"?>
<!-- Generator: Adobe Illustrator 22.1.0, SVG Export Plug-In . SVG Version: 6.00 Build 0)  -->
<svg version="1.1" id="Warstwa_1" xmlns="http://www.w3.org/2000/svg" xmlns:xlink="http://www.w3.org/1999/xlink" x="0px" y="0px"
	 viewBox="0 0 329 239" style="enable-background:new 0 0 329 239;" xml:space="preserve">
<style type="text/css">
	.st0{fill:#FFFFFF;}
</style>
<path class="st0" d="M264.3,111.9c-5-5-6.9-14.4-4.2-20.9c2.7-6.5-0.4-14.1-6.9-16.8c-6.5-2.7-11.8-10.7-11.8-17.7
	c0-7.1-5.8-12.8-12.8-12.8c-7.1,0-15-5.3-17.7-11.9c-2-4.9-6.9-7.9-11.9-7.9c-1.6,0-3.3,0.3-4.9,1c-2,0.8-4.3,1.2-6.7,1.2
	c-5.2,0-10.8-2-14.2-5.4c-2.5-2.5-5.8-3.7-9.1-3.7s-6.6,1.2-9.1,3.7c-3.4,3.4-9,5.4-14.2,5.4c-2.4,0-4.7-0.4-6.7-1.2
	c-1.6-0.7-3.2-1-4.9-1c-5,0-9.8,3-11.9,7.9c-2.7,6.5-10.7,11.9-17.7,11.9c-7.1,0-12.8,5.8-12.8,12.8c0,7.1-5.3,15-11.9,17.7
	C68.3,77,65.2,84.5,67.9,91c2.7,6.5,0.8,15.9-4.2,20.9c-5,5-5,13.2,0,18.1c5,5,6.9,14.4,4.2,20.9c-2.7,6.5,0.4,14.1,6.9,16.8
	c6.5,2.7,11.9,10.7,11.9,17.7c0,7.1,5.8,12.8,12.8,12.8c7.1,0,15,5.3,17.7,11.9c2,4.9,6.8,7.9,11.9,7.9c1.6,0,3.3-0.3,4.9-1
	c2-0.8,4.3-1.2,6.7-1.2c5.2,0,10.8,2,14.2,5.4c2.5,2.5,5.8,3.7,9.1,3.7c3.3,0,6.6-1.2,9.1-3.7c3.4-3.4,9-5.4,14.2-5.4
	c2.4,0,4.7,0.4,6.7,1.2c1.6,0.7,3.2,1,4.9,1c5,0,9.8-3,11.9-7.9c2.7-6.5,10.7-11.9,17.7-11.9c7.1,0,12.8-5.8,12.8-12.8
	c0-7.1,5.3-15,11.8-17.7c6.5-2.7,9.6-10.2,6.9-16.8c-2.7-6.5-0.8-15.9,4.2-20.9C269.2,125.1,269.2,116.9,264.3,111.9z M237.8,146.3
	c2.3-6.6,3.7-13.7,4.1-21h15c-5.9,7-8.2,17.6-5.6,26.4L237.8,146.3z M191,184.9c-8.5,3.6-17.6,5.4-27,5.4c-9.4,0-18.4-1.8-27-5.4
	c-8.3-3.5-15.7-8.5-22-14.9c-0.9-0.9-1.8-1.8-2.6-2.8c8.8-3.1,25.8-6.7,44.6,2.9c9.3,4.8,20.1,7.2,31.7,7.2c4.5,0,9.1-0.4,13.8-1.1
	c1.6-0.2,3.1-0.5,4.5-0.8C202.1,179.3,196.7,182.5,191,184.9z M219.2,162.9c-2.9,1.1-9.7,3.5-18.4,4.8c-10.4,1.6-25.8,2-40-5.3
	c-16.4-8.4-31.6-7.9-41.4-6.1c-5.3,1-9.7,2.5-12.7,3.8c-2.6-3.8-4.8-7.8-6.6-12.1c-3.6-8.5-5.4-17.6-5.4-27c0-9.4,1.8-18.4,5.4-27
	c2.3-5.5,5.3-10.6,8.9-15.2c7.9-2.9,34.4-11,57.5,0.8c10.7,5.5,20.9,7.2,29.5,7.2c4.5,0,8.5-0.5,11.9-1.1c5.6-1,10.1-2.6,13.2-4
	c2.7,3.9,4.9,8,6.8,12.3c3.6,8.5,5.4,17.6,5.4,27c0,9.4-1.8,18.4-5.4,27C225.6,153.3,222.7,158.3,219.2,162.9z M76.8,151.8
	c2.5-8.8,0.3-19.5-5.6-26.4h15c0.4,7.3,1.8,14.3,4.1,21L76.8,151.8z M90.2,95.7c-2.3,6.6-3.7,13.7-4.1,21h-15
	c5.9-7,8.2-17.6,5.6-26.4L90.2,95.7z M137,57.1c8.5-3.6,17.6-5.4,27-5.4c9.4,0,18.4,1.8,27,5.4c8.3,3.5,15.7,8.5,22,14.9
	c0.9,0.9,1.7,1.7,2.5,2.6c-8.7,3.2-25.9,7-45-2.7c-12.9-6.6-28.7-8.7-45.5-6.1c-1.3,0.2-2.5,0.4-3.7,0.7
	C126.1,62.6,131.3,59.5,137,57.1z M251.2,90.2c-2.5,8.8-0.3,19.5,5.6,26.4h-15c-0.4-7.3-1.8-14.3-4.1-21L251.2,90.2z M248.9,81.8
	l-14.3,5.8c-3.1-6.6-7.1-12.7-11.9-18.1l10.2-10C234,68.8,240.5,77.9,248.9,81.8z M227.8,52.4l-11.2,11c-5.4-5-11.6-9.2-18.3-12.4
	l5.6-13.3C208.6,46,218.3,52.1,227.8,52.4z M187.3,34.8c3.2,0,6.3-0.5,9-1.5l-6,14.3c-6.9-2.5-14.3-4-22-4.4v-15
	C173.3,32.3,180.2,34.8,187.3,34.8z M140.7,34.8c7.1,0,14-2.5,19-6.7v15c-7.7,0.4-15,1.9-22,4.4l-6-14.3
	C134.4,34.3,137.5,34.8,140.7,34.8z M124.1,37.6l5.6,13.3c-6.7,3.3-12.8,7.5-18.3,12.4l-11.2-11C109.7,52.1,119.4,46,124.1,37.6z
	 M95.2,59.5l10.2,10c-0.6,0.7-1.1,1.3-1.7,2c-0.3,0.1-0.5,0.2-0.5,0.2l0.1,0.3c-3.9,4.8-7.2,10-9.8,15.6l-14.3-5.8
	C87.5,77.9,94,68.8,95.2,59.5z M79.1,160.2l14.4-5.8c3.1,6.6,7.1,12.7,11.9,18.1l-10.2,10C94,173.2,87.5,164.1,79.1,160.2z
	 M100.2,189.7l11.2-11c5.4,5,11.6,9.2,18.3,12.4l-5.6,13.3C119.4,196,109.7,189.9,100.2,189.7z M140.7,207.2c-3.2,0-6.3,0.5-9.1,1.5
	l6-14.3c6.9,2.5,14.3,4,22,4.4v15C154.7,209.7,147.8,207.2,140.7,207.2z M187.3,207.2c-7.1,0-14,2.5-19,6.7v-15c7.7-0.4,15-2,22-4.4
	l6,14.3C193.6,207.7,190.5,207.2,187.3,207.2z M203.9,204.4l-5.6-13.3c6.7-3.3,12.8-7.5,18.3-12.4l11.2,11
	C218.3,189.9,208.6,196,203.9,204.4z M232.8,182.5l-10.2-10c4.8-5.4,8.8-11.5,11.9-18.1l14.4,5.8C240.5,164.1,234,173.2,232.8,182.5
	z"/>
<path class="st0" d="M170.2,85.2l-15.8,19.7l-25.7-1.6l14.4,20.9l-9.4,23.4l24.7-6.9l19.7,16l0.9-25.1l21.8-13.6l-24.2-8.7
	L170.2,85.2z M170.5,126.8l-0.5,12.3l-9.7-7.9l-12,3.4l4.6-11.4l-7-10.1l12.4,0.8l7.8-9.8l3.1,12l11.7,4.2L170.5,126.8z"/>
</svg>
