<?xml version="1.0" encoding="utf-8"?>
<!-- Generator: Adobe Illustrator 22.1.0, SVG Export Plug-In . SVG Version: 6.00 Build 0)  -->
<svg version="1.1" id="Warstwa_1" xmlns="http://www.w3.org/2000/svg" xmlns:xlink="http://www.w3.org/1999/xlink" x="0px" y="0px"
	 viewBox="0 0 329 239" style="enable-background:new 0 0 329 239;" xml:space="preserve">
<style type="text/css">
	.st0{fill:#FFFFFF;}
</style>
<g>
	<path class="st0" d="M262.5,70.2c0-0.2-0.1-0.5-0.1-0.7c0-0.1-0.1-0.2-0.1-0.3c-0.1-0.2-0.1-0.3-0.3-0.5c-0.1-0.1-0.2-0.2-0.2-0.3
		c-0.1-0.1-0.2-0.3-0.4-0.4c-0.1-0.1-0.2-0.1-0.3-0.2c-0.1-0.1-0.2-0.1-0.3-0.2c-0.1,0-0.1,0-0.2-0.1c-0.1,0-0.1-0.1-0.1-0.1
		l-97.7-41.2c-1-0.4-2.2-0.4-3.2,0.1L69.1,67.5c0,0-0.1,0.1-0.1,0.1c0,0-0.1,0-0.1,0c-0.1,0.1-0.2,0.2-0.3,0.2
		c-0.1,0.1-0.2,0.1-0.3,0.2c-0.1,0.1-0.2,0.2-0.4,0.4c-0.1,0.1-0.2,0.2-0.2,0.3c-0.1,0.2-0.2,0.4-0.3,0.5c0,0.1-0.1,0.1-0.1,0.2
		c-0.1,0.2-0.1,0.5-0.1,0.8v101.3c0,1.2,0.8,2.3,2,2.8l94,41.2c0.1,0,0.1,0,0.2,0c0.5,0.2,1,0.3,1.5,0.3c0.5,0,1-0.1,1.5-0.3
		c0.1,0,0.1,0,0.2,0l94-41.2c1.2-0.5,2-1.6,2-2.8V70.3c0,0,0,0,0,0C262.5,70.3,262.5,70.2,262.5,70.2z M161.2,130.5v19v19v19v19v1.2
		l-0.2-0.1c0.1-0.3,0.2-0.7,0.2-1.1c0-1.7-1.6-3.2-3.6-3.2c-1.3,0-2.3,0.6-3,1.5l-37-16.2c0.1-0.3,0.2-0.7,0.2-1.1
		c0-1.7-1.6-3.2-3.6-3.2c-1.3,0-2.3,0.6-3,1.5l-36.8-16.1V75.5l36.4,15.9c-0.1,0.3-0.2,0.7-0.2,1.1c0,1.7,1.6,3.2,3.6,3.2
		c1.3,0,2.3-0.6,3-1.5l37,16.2c-0.1,0.3-0.2,0.7-0.2,1.1c0,1.7,1.6,3.2,3.6,3.2c1.3,0,2.3-0.6,3-1.5l0.6,0.3V130.5z M164.9,108
		L78.8,70.3l82.5-37.6l89.4,37.7l-27.4,12c-0.2-0.2-0.5-0.3-0.8-0.5L150,50.6c-1-1-2.7-1.3-4.1-0.6l-29.4,13
		c-1.7,0.8-2.4,2.6-1.5,4.1c0.2,0.3,0.4,0.5,0.6,0.7c0.2,0.9,0.9,1.6,1.8,2l67.6,29.2L164.9,108z M218.1,115.6L195,125.7v-23.8
		l23-10.1v23.1C218,115.1,218,115.3,218.1,115.6z M147.3,56.2l68.3,29.5l-22.7,9.9l-68.2-29.4L147.3,56.2z M255.3,169.7l-86.8,38
		v-94.2l19.5-8.5v25.7c0,1.1,0.6,2,1.7,2.6c0.6,0.3,1.2,0.5,1.8,0.5c0.5,0,1.1-0.1,1.6-0.3l30-13.1c1.7-0.7,2.4-2.6,1.6-4.1
		c0.2-0.4,0.3-0.8,0.3-1.3V88.7l30.3-13.3V169.7z"/>
	<path class="st0" d="M114.2,108.3c-2,0-3.6,1.4-3.6,3.2c0,1.7,1.6,3.2,3.6,3.2s3.6-1.4,3.6-3.2
		C117.8,109.7,116.2,108.3,114.2,108.3z"/>
	<path class="st0" d="M81.7,79.8c-2,0-3.6,1.4-3.6,3.2c0,1.7,1.6,3.2,3.6,3.2c2,0,3.6-1.4,3.6-3.2C85.3,81.2,83.7,79.8,81.7,79.8z"
		/>
	<path class="st0" d="M92.5,89.3c-2,0-3.6,1.4-3.6,3.2c0,1.7,1.6,3.2,3.6,3.2s3.6-1.4,3.6-3.2C96.1,90.7,94.5,89.3,92.5,89.3z"/>
	<path class="st0" d="M81.7,98.8c-2,0-3.6,1.4-3.6,3.2c0,1.7,1.6,3.2,3.6,3.2c2,0,3.6-1.4,3.6-3.2C85.3,100.2,83.7,98.8,81.7,98.8z"
		/>
	<path class="st0" d="M92.5,108.3c-2,0-3.6,1.4-3.6,3.2c0,1.7,1.6,3.2,3.6,3.2s3.6-1.4,3.6-3.2C96.1,109.7,94.5,108.3,92.5,108.3z"
		/>
	<path class="st0" d="M103.4,98.8c-2,0-3.6,1.4-3.6,3.2c0,1.7,1.6,3.2,3.6,3.2c2,0,3.6-1.4,3.6-3.2C107,100.2,105.4,98.8,103.4,98.8
		z"/>
	<path class="st0" d="M125.1,98.8c-2,0-3.6,1.4-3.6,3.2c0,1.7,1.6,3.2,3.6,3.2c2,0,3.6-1.4,3.6-3.2
		C128.7,100.2,127.1,98.8,125.1,98.8z"/>
	<path class="st0" d="M135.9,108.3c-2,0-3.6,1.4-3.6,3.2c0,1.7,1.6,3.2,3.6,3.2s3.6-1.4,3.6-3.2
		C139.5,109.7,137.9,108.3,135.9,108.3z"/>
	<path class="st0" d="M114.2,146.3c-2,0-3.6,1.4-3.6,3.2c0,1.7,1.6,3.2,3.6,3.2s3.6-1.4,3.6-3.2
		C117.8,147.8,116.2,146.3,114.2,146.3z"/>
	<path class="st0" d="M81.7,117.8c-2,0-3.6,1.4-3.6,3.2c0,1.7,1.6,3.2,3.6,3.2c2,0,3.6-1.4,3.6-3.2
		C85.3,119.2,83.7,117.8,81.7,117.8z"/>
	<path class="st0" d="M92.5,127.3c-2,0-3.6,1.4-3.6,3.2c0,1.7,1.6,3.2,3.6,3.2s3.6-1.4,3.6-3.2C96.1,128.7,94.5,127.3,92.5,127.3z"
		/>
	<path class="st0" d="M114.2,127.3c-2,0-3.6,1.4-3.6,3.2c0,1.7,1.6,3.2,3.6,3.2s3.6-1.4,3.6-3.2
		C117.8,128.7,116.2,127.3,114.2,127.3z"/>
	<path class="st0" d="M103.4,117.8c-2,0-3.6,1.4-3.6,3.2c0,1.7,1.6,3.2,3.6,3.2c2,0,3.6-1.4,3.6-3.2
		C107,119.2,105.4,117.8,103.4,117.8z"/>
	<path class="st0" d="M81.7,136.8c-2,0-3.6,1.4-3.6,3.2c0,1.7,1.6,3.2,3.6,3.2c2,0,3.6-1.4,3.6-3.2
		C85.3,138.3,83.7,136.8,81.7,136.8z"/>
	<path class="st0" d="M92.5,146.3c-2,0-3.6,1.4-3.6,3.2c0,1.7,1.6,3.2,3.6,3.2s3.6-1.4,3.6-3.2C96.1,147.8,94.5,146.3,92.5,146.3z"
		/>
	<path class="st0" d="M103.4,136.8c-2,0-3.6,1.4-3.6,3.2c0,1.7,1.6,3.2,3.6,3.2c2,0,3.6-1.4,3.6-3.2
		C107,138.3,105.4,136.8,103.4,136.8z"/>
	<path class="st0" d="M125.1,117.8c-2,0-3.6,1.4-3.6,3.2c0,1.7,1.6,3.2,3.6,3.2c2,0,3.6-1.4,3.6-3.2
		C128.7,119.2,127.1,117.8,125.1,117.8z"/>
	<path class="st0" d="M125.1,136.8c-2,0-3.6,1.4-3.6,3.2c0,1.7,1.6,3.2,3.6,3.2c2,0,3.6-1.4,3.6-3.2
		C128.7,138.3,127.1,136.8,125.1,136.8z"/>
	<path class="st0" d="M135.9,146.3c-2,0-3.6,1.4-3.6,3.2c0,1.7,1.6,3.2,3.6,3.2s3.6-1.4,3.6-3.2
		C139.5,147.8,137.9,146.3,135.9,146.3z"/>
	<path class="st0" d="M135.9,127.3c-2,0-3.6,1.4-3.6,3.2c0,1.7,1.6,3.2,3.6,3.2s3.6-1.4,3.6-3.2
		C139.5,128.7,137.9,127.3,135.9,127.3z"/>
	<path class="st0" d="M146.8,117.8c-2,0-3.6,1.4-3.6,3.2c0,1.7,1.6,3.2,3.6,3.2c2,0,3.6-1.4,3.6-3.2
		C150.4,119.2,148.8,117.8,146.8,117.8z"/>
	<path class="st0" d="M146.8,136.8c-2,0-3.6,1.4-3.6,3.2c0,1.7,1.6,3.2,3.6,3.2c2,0,3.6-1.4,3.6-3.2
		C150.4,138.3,148.8,136.8,146.8,136.8z"/>
	<path class="st0" d="M157.6,146.3c-2,0-3.6,1.4-3.6,3.2c0,1.7,1.6,3.2,3.6,3.2c2,0,3.6-1.4,3.6-3.2
		C161.2,147.8,159.6,146.3,157.6,146.3z"/>
	<path class="st0" d="M157.6,127.3c-2,0-3.6,1.4-3.6,3.2c0,1.7,1.6,3.2,3.6,3.2c2,0,3.6-1.4,3.6-3.2
		C161.2,128.7,159.6,127.3,157.6,127.3z"/>
	<path class="st0" d="M81.7,155.8c-2,0-3.6,1.4-3.6,3.2c0,1.7,1.6,3.2,3.6,3.2c2,0,3.6-1.4,3.6-3.2
		C85.3,157.3,83.7,155.8,81.7,155.8z"/>
	<path class="st0" d="M92.5,165.3c-2,0-3.6,1.4-3.6,3.2c0,1.7,1.6,3.2,3.6,3.2s3.6-1.4,3.6-3.2C96.1,166.8,94.5,165.3,92.5,165.3z"
		/>
	<path class="st0" d="M114.2,165.3c-2,0-3.6,1.4-3.6,3.2c0,1.7,1.6,3.2,3.6,3.2s3.6-1.4,3.6-3.2
		C117.8,166.8,116.2,165.3,114.2,165.3z"/>
	<path class="st0" d="M103.4,155.8c-2,0-3.6,1.4-3.6,3.2c0,1.7,1.6,3.2,3.6,3.2c2,0,3.6-1.4,3.6-3.2
		C107,157.3,105.4,155.8,103.4,155.8z"/>
	<path class="st0" d="M103.4,174.8c-2,0-3.6,1.4-3.6,3.2c0,1.7,1.6,3.2,3.6,3.2c2,0,3.6-1.4,3.6-3.2
		C107,176.3,105.4,174.8,103.4,174.8z"/>
	<path class="st0" d="M125.1,155.8c-2,0-3.6,1.4-3.6,3.2c0,1.7,1.6,3.2,3.6,3.2c2,0,3.6-1.4,3.6-3.2
		C128.7,157.3,127.1,155.8,125.1,155.8z"/>
	<path class="st0" d="M125.1,174.8c-2,0-3.6,1.4-3.6,3.2c0,1.7,1.6,3.2,3.6,3.2c2,0,3.6-1.4,3.6-3.2
		C128.7,176.3,127.1,174.8,125.1,174.8z"/>
	<path class="st0" d="M135.9,184.3c-2,0-3.6,1.4-3.6,3.2c0,1.7,1.6,3.2,3.6,3.2s3.6-1.4,3.6-3.2
		C139.5,185.8,137.9,184.3,135.9,184.3z"/>
	<path class="st0" d="M135.9,165.3c-2,0-3.6,1.4-3.6,3.2c0,1.7,1.6,3.2,3.6,3.2s3.6-1.4,3.6-3.2
		C139.5,166.8,137.9,165.3,135.9,165.3z"/>
	<ellipse class="st0" cx="146.8" cy="159" rx="3.6" ry="3.2"/>
	<ellipse class="st0" cx="146.8" cy="178" rx="3.6" ry="3.2"/>
	<path class="st0" d="M157.6,184.3c-2,0-3.6,1.4-3.6,3.2c0,1.7,1.6,3.2,3.6,3.2c2,0,3.6-1.4,3.6-3.2
		C161.2,185.8,159.6,184.3,157.6,184.3z"/>
	<path class="st0" d="M157.6,165.3c-2,0-3.6,1.4-3.6,3.2c0,1.7,1.6,3.2,3.6,3.2c2,0,3.6-1.4,3.6-3.2
		C161.2,166.8,159.6,165.3,157.6,165.3z"/>
	<path class="st0" d="M146.8,193.8c-2,0-3.6,1.4-3.6,3.2c0,1.7,1.6,3.2,3.6,3.2c2,0,3.6-1.4,3.6-3.2
		C150.4,195.3,148.8,193.8,146.8,193.8z"/>
</g>
</svg>
