<?xml version="1.0" encoding="utf-8"?>
<!-- Generator: Adobe Illustrator 22.1.0, SVG Export Plug-In . SVG Version: 6.00 Build 0)  -->
<svg version="1.1" id="Warstwa_1" xmlns="http://www.w3.org/2000/svg" xmlns:xlink="http://www.w3.org/1999/xlink" x="0px" y="0px"
	 viewBox="0 0 329 239" style="enable-background:new 0 0 329 239;" xml:space="preserve">
<style type="text/css">
	.st0{fill:#FFFFFF;}
</style>
<path class="st0" d="M75,26.7v159.9h59.1V222h111.8V62.9h-59.1V26.7H75z M134.1,181.1H80.5V32.2h95.4l-41.9,32.1V181.1z M181.3,35.1
	v27.9h-36.4L181.3,35.1z M240.4,68.4v148H139.6v-148H240.4z"/>
<path class="st0" d="M157.7,86.6v40.9h64.6V86.6H157.7z M216.7,122h-53.5V92.1h53.5V122z"/>
<rect x="157.7" y="145.6" class="st0" width="64.6" height="5.5"/>
<rect x="157.7" y="166.6" transform="matrix(0.9998 -1.901237e-02 1.901237e-02 0.9998 -3.1921 3.6424)" class="st0" width="64.6" height="6.3"/>
<rect x="157.7" y="189.1" class="st0" width="64.6" height="6.9"/>
</svg>
