<?xml version="1.0" encoding="utf-8"?>
<!-- Generator: Adobe Illustrator 24.0.2, SVG Export Plug-In . SVG Version: 6.00 Build 0)  -->
<svg version="1.1" id="Warstwa_1" xmlns="http://www.w3.org/2000/svg" xmlns:xlink="http://www.w3.org/1999/xlink" x="0px" y="0px"
	 viewBox="0 0 329 239" style="enable-background:new 0 0 329 239;" xml:space="preserve">
<style type="text/css">
	.st0{fill:#FFFFFF;}
</style>
<g>
	<path class="st0" d="M48.8,141h61.8v21.1l-29.3,3.7c-2.1,0.3-3.6,2-3.6,4.1v8.2H52.9c-2.3,0-4.1,1.8-4.1,4.1v49.4
		c0,2.3,1.8,4.1,4.1,4.1h148.3c2.3,0,4.1-1.8,4.1-4.1v-45.3h82.4c2.3,0,4.1-1.8,4.1-4.1V21.6c0-1.7-1-3.2-2.6-3.8l-20.6-8.2
		c-0.5-0.2-1-0.3-1.5-0.3h-41.2c-0.5,0-1,0.1-1.5,0.3l-19.9,7.9H48.8c-2.3,0-4.1,1.8-4.1,4.1v115.3C44.7,139.2,46.5,141,48.8,141
		L48.8,141z M52.9,124.5h148.3v8.2H52.9V124.5z M222,48l11.8,82.7l-24.4,15.2v-113L222,48z M135.3,141v20.6h-16.5V141H135.3z
		 M85.9,173.5l29.1-3.6h24.2l29.1,3.6v4.6H85.9V173.5z M197.1,227.5H57v-41.2h140.1V227.5z M176.5,178.1v-8.2c0-2.1-1.5-3.8-3.6-4.1
		l-29.3-3.7V141h57.7v37.1H176.5z M267.1,178.1h-41.2v-14.1l17.6-10.6h6l17.6,10.6V178.1z M275.3,178.1v-16.5c0-1.4-0.8-2.8-2-3.5
		l-20.6-12.4c-0.6-0.4-1.4-0.6-2.1-0.6h-8.2c-0.7,0-1.5,0.2-2.1,0.6l-20.6,12.4c-1.2,0.7-2,2.1-2,3.5v16.5h-8.2v-22.4l31-19.4
		c1.4-0.9,2.1-2.5,1.9-4.1l-11.7-81.8h31.7l-11.7,81.8c-0.2,1.6,0.5,3.2,1.9,4.1l31,19.4v22.4H275.3z M271,48l12.6-15.1v113
		l-24.4-15.2L271,48z M226.7,17.4h39.6l14.6,5.8l-15.7,18.9h-37.3l-15.7-18.9L226.7,17.4z M201.2,25.7v90.6H52.9V25.7H201.2z
		 M201.2,25.7"/>
	<rect x="242.4" y="161.6" class="st0" width="8.2" height="8.2"/>
	<path class="st0" d="M244.1,194.6c-7.8,0-14.1,6.3-14.1,14.1v13c0,7.8,6.3,14.1,14.1,14.1h4.8c7.8,0,14.1-6.3,14.1-14.1v-13
		c0-7.8-6.3-14.1-14.1-14.1H244.1z M254.7,208.6v13c0,3.2-2.6,5.8-5.8,5.8h-4.8c-3.2,0-5.8-2.6-5.8-5.8v-13c0-2.6,1.7-4.8,4.1-5.6v8
		h8.2v-8C253.1,203.8,254.7,206.1,254.7,208.6L254.7,208.6z M254.7,208.6"/>
	<rect x="65.3" y="194.6" class="st0" width="8.2" height="8.2"/>
	<rect x="81.7" y="194.6" class="st0" width="8.2" height="8.2"/>
	<rect x="98.2" y="194.6" class="st0" width="8.2" height="8.2"/>
	<rect x="114.7" y="194.6" class="st0" width="8.2" height="8.2"/>
	<rect x="131.2" y="194.6" class="st0" width="8.2" height="8.2"/>
	<rect x="147.6" y="194.6" class="st0" width="8.2" height="8.2"/>
	<rect x="164.1" y="194.6" class="st0" width="8.2" height="8.2"/>
	<rect x="180.6" y="194.6" class="st0" width="8.2" height="8.2"/>
	<rect x="65.3" y="211" class="st0" width="8.2" height="8.2"/>
	<rect x="81.7" y="211" class="st0" width="8.2" height="8.2"/>
	<rect x="98.2" y="211" class="st0" width="8.2" height="8.2"/>
	<rect x="114.7" y="211" class="st0" width="8.2" height="8.2"/>
	<rect x="131.2" y="211" class="st0" width="8.2" height="8.2"/>
	<rect x="147.6" y="211" class="st0" width="8.2" height="8.2"/>
	<rect x="164.1" y="211" class="st0" width="8.2" height="8.2"/>
	<rect x="180.6" y="211" class="st0" width="8.2" height="8.2"/>
</g>
</svg>
