<?xml version="1.0" encoding="utf-8"?>
<!-- Generator: Adobe Illustrator 22.1.0, SVG Export Plug-In . SVG Version: 6.00 Build 0)  -->
<svg version="1.1" id="Warstwa_1" xmlns="http://www.w3.org/2000/svg" xmlns:xlink="http://www.w3.org/1999/xlink" x="0px" y="0px"
	 viewBox="0 0 329 239" style="enable-background:new 0 0 329 239;" xml:space="preserve">
<style type="text/css">
	.st0{fill:#FFFFFF;}
</style>
<path class="st0" d="M261.7,135c0-15.6-4.4-30.6-12.7-43.6c-7-10.8-16.5-20-27.6-26.6l-1.6-0.9l0.8-1.7c0.2-0.4,0.4-0.7,0.5-1
	c0.2-0.4,0.3-0.6,0.4-0.9c0.7-1.7,0-3.7-1.6-4.6c-0.2-0.1-11.3-6.6-23.9-6.6c-3.7,0-7.1,0.5-10.1,1.5c-1.6,0.5-3.3,1.3-5,2.2
	l-2.9,1.6V35.9c0-7.2-5.9-13.1-13.1-13.1s-13.1,5.9-13.1,13.1v18.5l-2.9-1.6c-1.7-0.9-3.4-1.6-5-2.2c-3-1-6.4-1.5-10.1-1.5
	c-12.6,0-23.7,6.4-23.8,6.5c-1.6,1-2.3,2.9-1.7,4.6c0.1,0.2,0.3,0.5,0.4,0.9c0.1,0.3,0.3,0.6,0.5,1l0.8,1.7l-1.6,0.9
	C97.5,71.3,88,80.5,81,91.4c-8.3,13-12.7,28.1-12.7,43.6c0,21.9,10.1,42.4,28.6,57.7c18.2,15.2,42.4,23.5,68.1,23.5
	c25.7,0,49.9-8.4,68.1-23.5C251.6,177.4,261.7,156.9,261.7,135z M119.3,59.6c4-1.4,9.2-2.9,14.6-2.9c2.7,0,5.3,0.4,7.7,1.2
	c4,1.3,7.9,3.8,11.3,7.5c1,1.1,2.6,1.4,4.1,0.8c1.5-0.6,2.4-2,2.4-3.5V35.9c0-3,2.5-5.5,5.5-5.5c3,0,5.5,2.5,5.5,5.5v26.8
	c0,1.6,0.9,3,2.4,3.5c1.5,0.6,3.1,0.3,4.1-0.8c3.5-3.6,7.4-6.2,11.3-7.5c2.5-0.8,5.1-1.2,7.7-1.2c4.3,0,9,1,14.5,2.9l2.4,0.8
	l-1.3,2.1c-2.7,4.2-8.5,11.8-17,14.5c-3.4,1.1-7.4,1.4-11.6,0.9c-1.8-0.2-3.5,0.9-4,2.6c-0.6,1.7,0.2,3.6,1.8,4.4
	c4,2.3,6.9,4.8,8.9,7.6c5.1,7,5.4,16.6,5.2,21.7l-0.1,2.4l-2.4-0.6c-4.9-1.3-13.9-4.5-19.1-11.7c-2.1-3-3.6-6.6-4.4-10.8
	c-0.3-1.8-1.9-3.1-3.7-3.1c-1.8,0-3.3,1.3-3.7,3.1c-0.9,4.2-2.3,7.8-4.4,10.7c-4.8,6.6-13,10-19.1,11.7l-2.4,0.7l-0.1-2.5
	c-0.3-6.2,0.3-15,5.2-21.7c2-2.8,4.9-5.3,8.8-7.6c1.6-0.8,2.3-2.8,1.8-4.5c-0.5-1.5-2-2.6-3.6-2.6h-0.6c-4.2,0.5-8,0.2-11.4-0.9
	c-8.3-2.7-14.2-10.2-17-14.5l-1.4-2.2L119.3,59.6z M165,208.7c-49.1,0-89.1-33.1-89.1-73.7c0-26.9,13.9-50.8,37.1-63.9l1.5-0.8
	l1.1,1.3c5.3,6.5,11.2,10.8,17.6,12.9l0.1,0c0.2,0.1,0.5,0.1,0.8,0.3l1.8,0.9l-0.9,1.8c-0.1,0.2-0.2,0.4-0.4,0.6l-0.2,0.3
	c-10,13.8-5.8,33.5-5.8,33.6c0.4,1.9,2.1,3.2,4.1,3c2.1-0.2,20.6-2.6,30.2-15.8c0.1-0.1,0.2-0.3,0.3-0.4l0-0.1l1.8-3.5l1.8,3.6
	c0.1,0.1,0.2,0.3,0.3,0.4c9.4,12.9,27.8,15.5,30.1,15.8h0.5c1.8,0,3.3-1.2,3.6-3l0-0.1c0-0.2,4.2-20-5.8-33.7l-0.2-0.3l0,0
	c-0.1-0.2-0.3-0.4-0.4-0.6l-0.9-1.8l1.8-0.9c0.3-0.2,0.7-0.2,0.8-0.3l0.1,0c6.3-2,12.2-6.3,17.6-12.9l1.1-1.3l1.5,0.8
	c23.2,13.3,37.1,37.2,37.1,63.9C254.1,175.5,214.1,208.7,165,208.7z"/>
</svg>
