<?xml version="1.0" encoding="utf-8"?>
<!-- Generator: Adobe Illustrator 22.1.0, SVG Export Plug-In . SVG Version: 6.00 Build 0)  -->
<svg version="1.1" id="Warstwa_1" xmlns="http://www.w3.org/2000/svg" xmlns:xlink="http://www.w3.org/1999/xlink" x="0px" y="0px"
	 viewBox="0 0 400 400" style="enable-background:new 0 0 400 400;" xml:space="preserve">
<style type="text/css">
	.st0{fill:#FFFFFF;}
</style>
<g>
	<path class="st0" d="M351.2,349.9h-33.6V30.7c0-3.4-2.2-5.6-5.6-5.6H88c-3.4,0-5.6,2.2-5.6,5.6v319.2H48.8c-3.4,0-5.6,2.2-5.6,5.6
		c0,3.4,2.2,5.6,5.6,5.6h302.4c3.4,0,5.6-2.2,5.6-5.6C356.8,352.1,354.6,349.9,351.2,349.9L351.2,349.9z M116,349.9V58.7h168v291.2
		H116z M295.2,349.9V53.1c0-3.4-2.2-5.6-5.6-5.6H110.4c-3.4,0-5.6,2.2-5.6,5.6v296.8H93.6V36.3h212.8v313.6H295.2z M295.2,349.9"/>
	<path class="st0" d="M267.2,187.5h-22.4c-3.4,0-5.6,2.2-5.6,5.6v5.6H228c-3.4,0-5.6,2.2-5.6,5.6c0,3.4,2.2,5.6,5.6,5.6h11.2v5.6
		c0,3.4,2.2,5.6,5.6,5.6h22.4c3.4,0,5.6-2.2,5.6-5.6v-22.4C272.8,189.7,270.6,187.5,267.2,187.5L267.2,187.5z M261.6,209.9h-11.2
		v-11.2h11.2V209.9z M261.6,209.9"/>
</g>
</svg>
