<?xml version="1.0" encoding="utf-8"?>
<!-- Generator: Adobe Illustrator 22.1.0, SVG Export Plug-In . SVG Version: 6.00 Build 0)  -->
<svg version="1.1" id="Warstwa_1" xmlns="http://www.w3.org/2000/svg" xmlns:xlink="http://www.w3.org/1999/xlink" x="0px" y="0px"
	 viewBox="0 0 329 239" style="enable-background:new 0 0 329 239;" xml:space="preserve">
<style type="text/css">
	.st0{fill:#FFFFFF;}
</style>
<g>
	<path class="st0" d="M192.1,197.5l-3.5-1.9c-1.9-1-4.3-0.3-5.3,1.6c-1,1.9-0.3,4.3,1.6,5.3l3.5,1.9c0.6,0.3,1.2,0.5,1.9,0.5
		c1.4,0,2.8-0.8,3.5-2.1C194.7,200.9,194,198.5,192.1,197.5z"/>
	<path class="st0" d="M211.5,192.1l-3.8-2.1c-1.9-1.1-4.3-0.4-5.4,1.5c-1.1,1.9-0.4,4.3,1.5,5.4l3.8,2.1c0.6,0.3,1.3,0.5,1.9,0.5
		c1.4,0,2.7-0.7,3.4-2C214.1,195.6,213.4,193.2,211.5,192.1z"/>
	<path class="st0" d="M206.5,149c0.7,0.4,1.4,0.6,2.1,0.6c1.3,0,2.6-0.6,3.3-1.8c1.2-1.8,0.6-4.3-1.2-5.4l-4.2-2.7
		c-1.8-1.2-4.3-0.6-5.4,1.2c-1.2,1.8-0.6,4.3,1.2,5.4L206.5,149z"/>
	<path class="st0" d="M238.2,154.3l-4.2-2.3c-1.9-1-4.3-0.3-5.3,1.6c-1,1.9-0.3,4.3,1.6,5.3l4.2,2.3c0.6,0.3,1.2,0.5,1.9,0.5
		c1.4,0,2.8-0.8,3.5-2.1C240.8,157.8,240.1,155.4,238.2,154.3z"/>
	<path class="st0" d="M188.5,156.4c1.4,0,2.8-0.8,3.5-2.2c1-1.9,0.2-4.3-1.7-5.3l-4.1-2.1c-1.9-1-4.3-0.2-5.3,1.7
		c-1,1.9-0.2,4.3,1.7,5.3l4.1,2.1C187.3,156.2,187.9,156.4,188.5,156.4z"/>
	<path class="st0" d="M259.5,125.6c-5.8-6.2-14.3-12.8-24.2-18.5c-9.8-5.7-19.8-9.8-28.1-11.7c-12.5-2.8-17.3,0.4-19.2,3.7
		c-0.2,0.3-0.3,0.6-0.4,0.9l-4.5,9.4c-0.3-1.6-0.8-3.1-1.5-4.6l-37.2-77c-0.1-0.3-0.3-0.6-0.5-0.9c-5.7-9.9-28.5-2.8-47.2,8
		c-18.7,10.8-36.3,27-30.6,36.9c0,0.1,0.1,0.2,0.2,0.2l0,0c0.1,0.2,0.2,0.3,0.3,0.5L85,99.5c0.8,1.1,2,1.7,3.3,1.7
		c0.8,0,1.5-0.2,2.2-0.7c1.8-1.2,2.3-3.7,1-5.5L78.8,76.3c9.7-0.7,22.9-6,34.5-12.7c11.6-6.7,22.8-15.5,28.3-23.6l32.9,68.1
		c1.9,4,1.3,8.8-1.6,12.2c-10.3,12.1-24.6,20.4-40.2,23.2c-4.4,0.8-8.9-1.1-11.4-4.8l-12.3-18c-1.2-1.8-3.7-2.3-5.5-1
		c-1.8,1.2-2.3,3.7-1,5.5l12.3,18c3.6,5.3,9.6,8.4,15.9,8.4c1.1,0,2.3-0.1,3.4-0.3c14.1-2.6,27.1-9.1,37.7-18.6L150.4,177
		c-3.3,6.8-2.3,15,2.7,20.8c11.5,13.5,27.4,22.7,44.8,25.9c1.2,0.2,2.3,0.3,3.5,0.3c6.3,0,12.3-3.1,15.9-8.4l48.2-70.8
		c0.2-0.3,0.4-0.5,0.5-0.8C267.8,140.8,268.2,134.9,259.5,125.6z M131.7,39.8c-5.2,5.7-13.2,11.7-22.3,17
		c-9.1,5.3-18.3,9.1-25.9,10.8c-7.3,1.7-10.1,0.6-10.5,0.2l-0.1-0.1c-0.2-0.5,0.2-3.4,5.4-9.1c5.2-5.7,13.2-11.7,22.3-17
		c9.1-5.3,18.3-9.1,25.9-10.8c7.5-1.7,10.2-0.5,10.6-0.1l0.1,0.1C137.2,31.3,136.8,34.3,131.7,39.8z M210.7,211.1
		c-2.5,3.7-7,5.6-11.4,4.8c-15.6-2.9-29.9-11.1-40.2-23.2c-2.9-3.4-3.5-8.2-1.6-12.2l32.9-68.1c1.1,1.6,2.4,3.3,4.1,5.1
		c5.8,6.2,14.3,12.8,24.2,18.5c9.8,5.7,19.8,9.8,28.1,11.7c2.4,0.6,4.6,0.9,6.5,1L210.7,211.1z M259.1,140l-0.1,0.1
		c-0.5,0.4-3.2,1.5-10.5-0.2c-7.5-1.7-16.7-5.6-25.9-10.8c-9.1-5.3-17.1-11.3-22.3-17c-5.1-5.5-5.5-8.5-5.4-9l0.1-0.1
		c0.2-0.2,1.3-0.8,3.8-0.8c1.6,0,3.8,0.2,6.8,0.9c7.5,1.7,16.7,5.6,25.9,10.8c9.1,5.3,17.1,11.3,22.3,17
		C258.9,136.6,259.2,139.5,259.1,140z"/>
	<path class="st0" d="M138.3,130.5c0.7,1.3,2.1,2.1,3.5,2.1c0.6,0,1.3-0.2,1.9-0.5l4.9-2.7c1.9-1,2.6-3.4,1.6-5.3
		c-1-1.9-3.4-2.6-5.3-1.6l-4.9,2.7C138,126.2,137.3,128.6,138.3,130.5z"/>
	<path class="st0" d="M123.2,118.1l-2.8,1.7c-1.9,1.1-2.5,3.5-1.4,5.4c0.7,1.3,2.1,2,3.4,2c0.7,0,1.4-0.2,2-0.5l2.8-1.7
		c1.9-1.1,2.5-3.5,1.4-5.4C127.5,117.7,125.1,117,123.2,118.1z"/>
	<path class="st0" d="M149.1,110.5c0.7,1.3,2.1,2,3.4,2c0.7,0,1.4-0.2,2-0.5l2.8-1.7c1.9-1.1,2.5-3.5,1.4-5.4
		c-1.1-1.9-3.5-2.5-5.4-1.4l-2.8,1.7C148.6,106.2,148,108.6,149.1,110.5z"/>
	<path class="st0" d="M132.3,72.2c1.8-1.2,2.3-3.7,1-5.5c-1.2-1.8-3.7-2.3-5.5-1l-2.5,1.7c-1.8,1.2-2.3,3.7-1,5.5
		c0.8,1.1,2,1.7,3.3,1.7c0.8,0,1.5-0.2,2.2-0.7L132.3,72.2z"/>
	<path class="st0" d="M97,88.9c0.5,0,0.9-0.1,1.4-0.3l3.9-1.5c2-0.8,3.1-3,2.3-5.1s-3-3.1-5.1-2.3l-3.9,1.5c-2,0.8-3.1,3-2.3,5.1
		C93.9,87.9,95.4,88.9,97,88.9z"/>
	<path class="st0" d="M117.9,91.1l-3.9,2.2c-1.9,1.1-2.6,3.5-1.5,5.4c0.7,1.3,2.1,2,3.4,2c0.7,0,1.3-0.2,1.9-0.5l3.9-2.2
		c1.9-1.1,2.6-3.5,1.5-5.4C122.2,90.7,119.8,90.1,117.9,91.1z"/>
	<path class="st0" d="M145.2,74.9l-4.9,3.7c-1.7,1.3-2.1,3.8-0.8,5.5c0.8,1,2,1.6,3.2,1.6c0.8,0,1.7-0.3,2.4-0.8l4.9-3.7
		c1.7-1.3,2.1-3.8,0.8-5.5C149.4,73.9,147,73.5,145.2,74.9z"/>
	<path class="st0" d="M97.7,107.2c-1,0-2.1,0.4-2.8,1.2c-0.7,0.7-1.2,1.8-1.2,2.8c0,1,0.4,2.1,1.2,2.8c0.7,0.7,1.8,1.2,2.8,1.2
		c1,0,2.1-0.4,2.8-1.2c0.7-0.7,1.2-1.8,1.2-2.8c0-1-0.4-2.1-1.2-2.8C99.8,107.6,98.7,107.2,97.7,107.2z"/>
</g>
</svg>
