<?xml version="1.0" encoding="utf-8"?>
<!-- Generator: Adobe Illustrator 22.1.0, SVG Export Plug-In . SVG Version: 6.00 Build 0)  -->
<svg version="1.1" id="Warstwa_1" xmlns="http://www.w3.org/2000/svg" xmlns:xlink="http://www.w3.org/1999/xlink" x="0px" y="0px"
	 viewBox="0 0 329 239" style="enable-background:new 0 0 329 239;" xml:space="preserve">
<style type="text/css">
	.st0{fill:#FFFFFF;}
</style>
<g>
	<path class="st0" d="M275.9,92.5h-5.1V73.7c0-11.1-9-20.1-20.1-20.1h-73c-6.8,0-12.8,3.4-16.4,8.5c-3.7-5.1-9.6-8.5-16.4-8.5H99
		c-2.1,0-3.7,1.7-3.7,3.7c0,2.1,1.7,3.7,3.7,3.7h45.9c7,0,12.7,5.7,12.7,12.7V111c-0.1-0.1-0.2-0.1-0.2-0.2
		c-4.4-4.1-10.4-6.5-16.5-6.5H78.7c-0.3-5-3.7-9.4-8.5-11.1c-1.3-0.5-2.7-0.7-4.1-0.7h-7V73.7c0-7,5.7-12.7,12.7-12.7H84
		c2.1,0,3.7-1.7,3.7-3.7c0-2.1-1.7-3.7-3.7-3.7H71.8c-11.1,0-20.1,9-20.1,20.1v18.8h-5.1c-7,0-12.6,5.7-12.6,12.6V144
		c0,14.5,11.8,26.3,26.3,26.3h1.9l-4.1,11c-2.6,6.9,2.7,14.5,10.1,14.5h6c3.4,0,6.6-1.6,8.6-4.3l16.1-21.2h124.9l16.1,21.2
		c2,2.7,5.2,4.3,8.6,4.3h6c7.4,0,12.7-7.6,10.1-14.5l-4.1-11h1.9c14.5,0,26.3-11.8,26.3-26.3v-38.9
		C288.5,98.1,282.8,92.5,275.9,92.5L275.9,92.5z M165,73.7c0-7,5.7-12.7,12.7-12.7h73c7,0,12.7,5.7,12.7,12.7v18.8h-7
		c-5,0-9.7,3.2-11.6,7.7c-0.5,1.3-0.9,2.7-1,4h-62.1c-6.1,0-12.3,2.5-16.7,6.7L165,73.7L165,73.7z M78.8,111.7h62.1
		c9.2,0,16.7,7.5,16.7,16.7v5.3H78.8V111.7z M76.8,187c-0.6,0.8-1.6,1.3-2.6,1.3h-6c-2.3,0-3.9-2.3-3.1-4.5l5.1-13.6h19.4L76.8,187z
		 M254.3,188.3h-6c-1,0-2-0.5-2.6-1.3L233,170.3h19.4c0,0,5,13.5,5.1,13.6C258.3,186,256.6,188.3,254.3,188.3L254.3,188.3z
		 M262.2,162.8h-202c-10.4,0-18.8-8.4-18.8-18.8v-38.9c0-2.8,2.3-5.2,5.2-5.2h19.5c2.8,0,5.2,2.3,5.2,5.2v32.3
		c0,2.1,1.7,3.7,3.7,3.7h137c2.1,0,3.7-1.7,3.7-3.7c0-2.1-1.7-3.7-3.7-3.7h-47v-5.3c0-9.2,7.5-16.7,16.7-16.7h62.1v22h-16.9
		c-2.1,0-3.7,1.7-3.7,3.7c0,2.1,1.7,3.7,3.7,3.7h20.6c2.1,0,3.7-1.7,3.7-3.7v-32.3c0-2.8,2.3-5.2,5.2-5.2h19.5
		c2.8,0,5.2,2.3,5.2,5.2V144C281,154.4,272.6,162.8,262.2,162.8L262.2,162.8z"/>
</g>
</svg>
