<?xml version="1.0" encoding="utf-8"?>
<!-- Generator: Adobe Illustrator 22.1.0, SVG Export Plug-In . SVG Version: 6.00 Build 0)  -->
<svg version="1.1" id="Warstwa_1" xmlns="http://www.w3.org/2000/svg" xmlns:xlink="http://www.w3.org/1999/xlink" x="0px" y="0px"
	 viewBox="0 0 400 400" style="enable-background:new 0 0 400 400;" xml:space="preserve">
<style type="text/css">
	.st0{fill:#FFFFFF;}
</style>
<g>
	<path class="st0" d="M355.7,175.9V83c0-20.5-16.6-37.2-37.2-37.2c-20.5,0-37.2,16.6-37.2,37.2v92.9c0,7.8,5,14.8,12.4,17.4v13.5
		h-6.2c-3.4,0-6.2,2.8-6.2,6.2v24.8c0,3.4,2.8,6.2,6.2,6.2h24.8v62c0,6.8-5.5,12.4-12.4,12.4c-6.8,0-12.4-5.6-12.4-12.4v-6.2
		c0-13.7-11.1-24.8-24.8-24.8c-13.7,0-24.8,11.1-24.8,24.8v49.6c0,3.4,2.8,6.2,6.2,6.2s6.2-2.8,6.2-6.2v-49.6
		c0-6.8,5.5-12.4,12.4-12.4c6.8,0,12.4,5.5,12.4,12.4v6.2c0,13.7,11.1,24.8,24.8,24.8c13.7,0,24.8-11.1,24.8-24.8v-62h24.8
		c3.4,0,6.2-2.8,6.2-6.2V213c0-3.4-2.8-6.2-6.2-6.2h-6.2v-13.5C350.8,190.8,355.7,183.8,355.7,175.9L355.7,175.9z M343.4,231.7
		h-49.6v-12.4h49.6V231.7z M331,206.9h-24.8v-12.4H331V206.9z M293.8,174.2l32.9-11c3.3-1.1,5-4.6,3.9-7.8c-1.1-3.3-4.6-5-7.8-3.9
		l-29,9.7v-17.9l32.9-11c3.3-1.1,5-4.6,3.9-7.8c-1.1-3.3-4.6-5-7.8-3.9l-29,9.7v-17.9l32.9-11c3.3-1.1,5-4.6,3.9-7.8
		c-1.1-3.3-4.6-5-7.8-3.9l-29,9.7V83c0-13.7,11.1-24.8,24.8-24.8c13.7,0,24.8,11.1,24.8,24.8v92.9c0,3.4-2.8,6.2-6.2,6.2H300
		c-3.4,0-6.2-2.8-6.2-6.2V174.2z"/>
	<path class="st0" d="M145.1,89.2c-17.1,0-31,13.9-31,31V145c0,0.2,0,0.5,0,0.7l3.3,29.7c1.9,16.8,1.9,33.8,0,50.6l-3.3,29.7
		c0,0.2,0,0.5,0,0.7v24.8c0,17.1,13.9,31,31,31s31-13.9,31-31v-24.8c0-0.2,0-0.5,0-0.7l-3.3-29.7c-1.9-16.8-1.9-33.8,0-50.6
		l3.3-29.7c0-0.2,0-0.5,0-0.7v-24.8C176,103.1,162.2,89.2,145.1,89.2L145.1,89.2z M145.1,299.9c-10.3,0-18.6-8.3-18.6-18.6v-24.4
		l3.3-29.4c2-17.7,2-35.6,0-53.4l-3.3-29.4v-24.4c0-10.3,8.3-18.6,18.6-18.6s18.6,8.3,18.6,18.6v24.4l-3.3,29.4
		c-2,17.7-2,35.6,0,53.4l3.3,29.4v24.4C163.7,291.6,155.3,299.9,145.1,299.9L145.1,299.9z"/>
	<path class="st0" d="M244.2,162.8c0-13.3-8.5-25.2-21.2-29.4l-16-5.3v-20.3c0-34.2-27.7-62-62-62c-34.2,0-62,27.7-62,62v20.3
		l-16,5.3c-12.7,4.2-21.2,16.1-21.2,29.4v75.8c0,13.3,8.5,25.2,21.2,29.4l16,5.3v20.3c0,34.2,27.7,62,62,62c34.2,0,62-27.7,62-62
		v-20.3l16-5.3c12.7-4.2,21.2-16.1,21.2-29.4V162.8z M231.8,238.6c0,8-5.1,15.1-12.7,17.6l-12.1,4v-119l12.1,4
		c7.6,2.5,12.7,9.6,12.7,17.6V238.6z M145.1,343.2c-27.4,0-49.5-22.2-49.6-49.6V107.8c0-27.4,22.2-49.6,49.6-49.6
		s49.6,22.2,49.6,49.6v185.9C194.6,321,172.4,343.2,145.1,343.2L145.1,343.2z M58.3,162.8c0-8,5.1-15.1,12.7-17.6l12.1-4v119.1
		l-12.1-4c-7.6-2.5-12.7-9.6-12.7-17.6V162.8z"/>
</g>
</svg>
