<?xml version="1.0" encoding="utf-8"?>
<!-- Generator: Adobe Illustrator 22.1.0, SVG Export Plug-In . SVG Version: 6.00 Build 0)  -->
<svg version="1.1" id="Warstwa_1" xmlns="http://www.w3.org/2000/svg" xmlns:xlink="http://www.w3.org/1999/xlink" x="0px" y="0px"
	 viewBox="0 0 400 400" style="enable-background:new 0 0 400 400;" xml:space="preserve">
<style type="text/css">
	.st0{fill:#FFFFFF;}
</style>
<g>
	<path class="st0" d="M298.5,41l-85.4,0c0,0,0,0,0,0c-3.9,0-7.3,2.4-8.8,5.9l-16.6,41.8c-1,2.6-0.9,5.6,0.5,8
		c1.4,2.5,3.7,4.2,6.5,4.7l9.1,1.7c-14.1,20.3-28.4,40.6-39.7,56.2c2.2-9.2,4.8-19.2,7.2-28.5c0.7-2.5,0.3-5.2-1.1-7.4
		c-1.4-2.2-3.6-3.8-6.1-4.3l-10.2-2.1l28.4-62.8c1.3-2.9,1.1-6.3-0.7-9c-1.7-2.7-4.7-4.3-7.9-4.3H99.6c-5.2,0-9.4,4.2-9.4,9.4v94
		c0,29,11.4,56.3,32,76.9c18.4,18.4,42,29.4,67.5,31.6v82.6h-45.6c-5.2,0-9.4,4.2-9.4,9.4c0,5.2,4.2,9.4,9.4,9.4h110
		c5.2,0,9.4-4.2,9.4-9.4c0-5.2-4.2-9.4-9.4-9.4h-45.6v-82.6c25.4-2.2,49.1-13.2,67.5-31.6c20.6-20.6,32-47.9,32-76.9v-94
		C307.9,45.2,303.7,41,298.5,41L298.5,41z M289.1,144.4c0,49.6-40.4,90-90,90c-49.6,0-90-40.4-90-90V59.8h50.2L132,120.1
		c-1.2,2.6-1.1,5.6,0.2,8.2c1.3,2.6,3.7,4.4,6.5,4.9l12,2.4c-1.6,6.2-3.7,14.6-5.7,22.9c-2.3,9.6-4,17.4-5,23
		c-0.7,3.6-1.1,6.4-1.2,8.6c-0.6,8.5,3.4,11.6,6.8,12.8c6.7,2.2,11-2.9,14.2-6.7c2.2-2.6,5.1-6.3,8.9-11.3
		c6.1-8.1,14.4-19.5,24.5-33.8c17.2-24.3,34.3-49,34.4-49.3c1.8-2.6,2.2-6,0.9-8.9c-1.2-2.9-3.8-5.1-7-5.7l-12.1-2.3l10-25.3l69.5,0
		V144.4z M289.1,144.4"/>
</g>
</svg>
