<?xml version="1.0" encoding="utf-8"?>
<!-- Generator: Adobe Illustrator 22.1.0, SVG Export Plug-In . SVG Version: 6.00 Build 0)  -->
<svg version="1.1" id="Warstwa_1" xmlns="http://www.w3.org/2000/svg" xmlns:xlink="http://www.w3.org/1999/xlink" x="0px" y="0px"
	 viewBox="0 0 400 400" style="enable-background:new 0 0 400 400;" xml:space="preserve">
<style type="text/css">
	.st0{fill:#FFFFFF;}
</style>
<path class="st0" d="M291.6,65.4c-1.7-1.7-4-2.7-6.4-2.7H178.8l-75.1,73.1v54.6c-1.8,1.2-2.9,2.2-4,3.3c-0.1,0.1-0.3,0.3-0.4,0.4
	c0,0-0.1,0.1-0.1,0.1c-4.7,5-7.5,11.1-8.3,17.9c0,0.3,0,0.7-0.1,1l-0.1,104.5c0,2.4,1,4.7,2.7,6.4c1.7,1.7,4,2.7,6.4,2.7h181.4
	V216.6c1.8-1.1,2.9-2.1,4-3.2c0.2-0.2,0.3-0.3,0.5-0.5c4.7-5,7.5-11.1,8.3-17.9c0-0.3,0.1-0.7,0.1-1l0.1-122.2
	C294.2,69.4,293.3,67.1,291.6,65.4 M175.6,91.2v39.9h-41L175.6,91.2z M275.9,193.4c-0.4,2.6-1.6,5.1-3.4,7l-0.2,0.2l-0.1,0.1
	c0,0-0.1,0.1-0.1,0.1c-0.2,0.2-0.4,0.3-0.5,0.5c-5.5,5.8-8.5,13.4-8.5,21.3v85.8H108.9l0.1-94.9c0.4-2.6,1.6-5.1,3.4-7l0.2-0.2
	c0.1-0.1,0.1-0.1,0.2-0.2c0,0,0.1-0.1,0.1-0.1c0.2-0.2,0.4-0.3,0.5-0.5c5.5-5.8,8.5-13.4,8.5-21.3v-35.2h71.9V80.8H276L275.9,193.4z
	"/>
</svg>
