<?xml version="1.0" encoding="utf-8"?>
<!-- Generator: Adobe Illustrator 22.1.0, SVG Export Plug-In . SVG Version: 6.00 Build 0)  -->
<svg version="1.1" id="Warstwa_1" xmlns="http://www.w3.org/2000/svg" xmlns:xlink="http://www.w3.org/1999/xlink" x="0px" y="0px"
	 viewBox="0 0 329 239" style="enable-background:new 0 0 329 239;" xml:space="preserve">
<style type="text/css">
	.st0{fill:#FFFFFF;}
</style>
<g>
	<path class="st0" d="M217.1,87.9c-7.6-6.4-8.5-15-8.6-18.2c1.2-0.6,1.9-1.9,1.9-3.2v-5.9c4.1-1.2,7.1-5,7.1-9.4V38.8
		c0-5.4-4.4-9.8-9.8-9.8h-25.1c-2,0-3.7,1.6-3.7,3.7s1.6,3.7,3.7,3.7h25.1c1.4,0,2.5,1.1,2.5,2.5v12.3c0,1.4-1.1,2.5-2.5,2.5H121
		c-1.4,0-2.5-1.1-2.5-2.5V38.8c0-1.4,1.1-2.5,2.5-2.5h51.6c2,0,3.7-1.6,3.7-3.7s-1.6-3.7-3.7-3.7H121c-5.4,0-9.8,4.4-9.8,9.8v12.3
		c0,4.4,2.9,8.2,7.1,9.4v5.9c0,1.4,0.8,2.6,1.9,3.2c0,3.7-1,11.8-8.6,18.2c-7.1,6-11.2,14.7-11.2,24v65.9c0,10.1,6.3,19.3,15.7,23.1
		c0.9,6.7,6.7,11.8,13.5,11.8h69.5c6.8,0,12.6-5.1,13.5-11.8c9.4-3.7,15.7-12.9,15.7-23.1v-65.9C228.3,102.6,224.2,93.8,217.1,87.9z
		 M125.6,62.8v-1.8h77.6v1.8H125.6z M201.3,70.1c0.2,9,4.2,17.5,11.2,23.3c5.4,4.6,8.6,11.3,8.6,18.4v65.9c0,9.6-7.8,17.5-17.5,17.5
		h-78.2c-9.6,0-17.5-7.8-17.5-17.5v-65.9c0-7.1,3.1-13.8,8.6-18.4c9.7-8.1,11.1-18.5,11.2-23.3H201.3z M204.3,202.6
		c-1.2,1.7-3.1,2.7-5.2,2.7h-69.5c-2.1,0-4-1-5.2-2.7H204.3z"/>
	<path class="st0" d="M117.1,158c0,2,1.6,3.7,3.7,3.7h13.8c2,0,3.7-1.6,3.7-3.7s-1.6-3.7-3.7-3.7h-10.1v-37.5
		c26.5-9.5,53.3-9.5,79.8,0v37.5h-59.6c-2,0-3.7,1.6-3.7,3.7s1.6,3.7,3.7,3.7H208c2,0,3.7-1.6,3.7-3.7v-43.8c0-1.5-0.9-2.9-2.4-3.4
		v0c-29.8-11.3-60-11.3-89.8,0c-1.4,0.5-2.4,1.9-2.4,3.4V158z"/>
</g>
</svg>
