<?xml version="1.0" encoding="utf-8"?>
<!-- Generator: Adobe Illustrator 22.1.0, SVG Export Plug-In . SVG Version: 6.00 Build 0)  -->
<svg version="1.1" id="Warstwa_1" xmlns="http://www.w3.org/2000/svg" xmlns:xlink="http://www.w3.org/1999/xlink" x="0px" y="0px"
	 viewBox="0 0 329 239" style="enable-background:new 0 0 329 239;" xml:space="preserve">
<style type="text/css">
	.st0{fill:#FFFFFF;}
</style>
<path class="st0" d="M237.4,144.9c-4.2-2.8-8.2-5.2-12.1-7.5c-3.8-2.3-7.8-4.7-11.9-7.4l-0.5-25.2c0-0.8-0.5-1.6-1.3-1.9l-38.4-15.9
	c1-0.3,2-0.6,3-0.9c1.9-0.6,3.8-1.2,6.3-2.1c0.8-0.3,1.3-1,1.4-1.8l2.5-39.9c0.1-0.9-0.5-1.7-1.3-2.1l-44.4-17.6
	c-3.3-1.3-7.1-2.8-11.2-2.6c-3.7,0.2-7,1.9-10,3.4L39.1,63.7c-0.8,0.4-1.2,1.2-1.2,2.1l3.9,43.9c0.1,0.8,0.6,1.5,1.3,1.8l38.5,16.2
	c3.5,1.5,7.5,3.2,11.8,3.3c0.2,0,0.4,0,0.6,0c6.7,0,12.5-3.5,18.2-7.8l1.6,6.4c-0.1,0-0.1,0-0.2,0.1l-37.4,19.8
	c-0.3,0.2-0.6,0.5-0.8,0.8l-32.8-19.3c-0.6-0.4-1.2-0.7-1.9-1.2c-3.1-1.9-6.7-4.2-10.5-4.4c-2.7-0.2-4.4,1-5.3,2
	c-1.6,1.8-2.3,4.6-1.9,7.7c0.8,5.3,4.7,9.2,8.4,12.3c7.9,6.6,17.1,11.7,26.9,14.9l-20,14.1c-0.5,0.4-0.9,1-0.9,1.7
	c0,0.7,0.3,1.3,0.8,1.7c15,11.7,31.1,22.2,46.7,32.4c7.2,4.7,14.6,9.5,21.8,14.4c1.8,1.2,4,2.7,6.7,3.1c0.5,0.1,0.9,0.1,1.4,0.1
	c3.6,0,6.8-1.9,9.1-3.3c15.3-9.1,30.6-18.8,45.5-29c3.7-2.5,7.5-5,11.1-7.5c10.8-7.3,22-14.8,32.8-22.8c0.6-0.4,1.2-0.9,1.8-1.3
	c7.5-5.7,15.1-11.6,22.4-17.6c0.5-0.4,0.8-1.1,0.8-1.7C238.4,145.9,238,145.2,237.4,144.9L237.4,144.9z M209.3,135
	c0,1.8,0.1,3.7-0.6,5.2c-0.8,1.9-2.8,3.2-5.2,4.6l-37.3,22.8c-1.5,0.9-2.9,1.7-4.2,2.2l-0.4-41.7l47.2-20L209.3,135z M205.5,104.9
	l-45.8,19.4c-0.3,0.1-0.5,0.3-0.7,0.5l-43.2-18.3c0.6-0.4,1.2-0.7,1.9-1.1l40-20.2L205.5,104.9z M121.5,72.7
	c3.1-1.8,6.4-3.1,9.6-4.7c7.9-3.7,15.9-7.4,23.9-10.9l-1.5,25.5c-1.2,0.6-2.4,1.2-3.6,1.8c-7.8,3.9-15.6,7.9-23.4,11.8
	c-1.9,1-3.9,1.9-5.8,2.9L121.5,72.7z M179.8,80.6c-1.8,0.6-3.4,1.1-4.8,1.6c-1.9,0.6-3.8,1.2-6.3,2.1c-0.4,0.1-0.6,0.3-0.9,0.6
	c-2.5-1-4.9-2-7.4-3c-0.7-0.3-1.7-0.9-2.6-1l1.5-25.5c7.5-3.2,15-6.4,22.6-9.4L179.8,80.6z M121.4,27.1c2.7-1.3,5.5-2.7,8.3-2.9
	c3.1-0.2,6.5,1.1,9.4,2.3l40.2,16c-1.9,0.7-3.7,1.5-5.6,2.3c-4.4,1.8-8.8,3.6-13.1,5.5c-2.4-2.4-5.7-3.5-8.4-4.3
	c-13.5-4.1-27-8.8-40.2-14.1C115.1,30.3,118.3,28.7,121.4,27.1L121.4,27.1z M79.5,48.2C86.2,44.8,93,41.4,99.8,38
	c2.4-1.2,4.8-2.4,7.2-3.6c14.4,5.8,29.2,11.1,44,15.6c1.9,0.6,3.8,1.1,5.3,2.1c-12.6,5.5-25.2,11.2-37.5,17.2c0,0,0,0-0.1,0
	c-16.1-5.7-32.5-10.9-49-15.6c0.3-0.2,0.7-0.4,1-0.7C73.5,51.1,76.5,49.7,79.5,48.2L79.5,48.2z M55,60.5c3-1.5,6.3-2.7,9.5-4.1
	c0.2,0.2,0.5,0.3,0.8,0.4c16.2,4.5,32.4,9.6,48.3,15.1c-2.1,1-4.2,2.1-6.3,3.1c-2,1-4,2-6,3.1c-0.9,0.5-4.8,3.2-5.6,2.9L45,65.4
	C48.4,63.8,51.7,62.1,55,60.5L55,60.5z M93.2,95.4c0,3.3-0.1,6.7-0.1,10c0,4.2-0.2,8.5-0.3,12.7c0,1.6,0,3.3,0,4.9
	c-3.7-7.9-8.1-15.5-13-22.7c4.4-4.3,9-8.5,13.7-12.6C93.7,90.3,93.3,93,93.2,95.4L93.2,95.4z M45.8,104.9c-0.1-2.8-0.2-5.5-0.8-8.2
	c-0.5-2.2-0.4-4.6-0.6-6.9c-0.4-4.9-0.3-9.8-0.8-14.6l13.8,19.4L45.8,104.9z M60.6,91.8L44.8,69.7c0.5,0.2,0.9,0.4,1.1,0.4
	c2.1,0.6,4.1,1.3,6.2,1.9c5.7,1.8,11.4,3.5,17.1,5.3c5.5,1.7,10.9,3.4,16.4,5.1c1.3,0.4,3.8,0.9,5.6,1.8c-4.7,4.1-9.4,8.4-13.9,12.7
	c-1.7-2.4-3.4-4.7-5.2-6.9c-0.6-0.7-1.6-1.9-3.1-2.4c-2.8-0.8-5.1,1.2-6.1,2.1L60.6,91.8z M47.7,108.8l18.1-16
	c1.4-1.2,1.9-1.3,2.1-1.2c0.3,0.1,0.8,0.7,1,1c8.2,10.3,15.2,21.6,20.7,33.5c-2.2-0.6-4.3-1.6-6.3-2.4
	C83.3,123.7,55.1,111.9,47.7,108.8L47.7,108.8z M110,106.9c-1,2.5-0.4,5.1,0.1,7l1.2,4.8c-4.7,3.6-9.3,6.7-14.1,7.7l0.4-41.6
	c0-0.5,5-2.6,5.6-2.9c2-1,4-2,6-3c2.6-1.3,5.4-2.3,8.1-3.6l-0.8,26.2C113.9,102.8,111.1,104.1,110,106.9L110,106.9z M113.6,110.1
	l43.8,18.6l0.4,41.1v0c-1.2-0.4-2.4-1.1-3.5-1.8c-3-1.8-6.1-3.7-9-5.5c-6-3.7-12.1-7.5-18.3-11.1c-2.9-1.7-3.7-2.1-4.5-5.2
	c-0.9-3.4-1.8-7-2.6-10.4c-0.4-1.7-0.9-3.5-1.3-5.2l-4.4-17.8C113.9,111.9,113.7,111,113.6,110.1L113.6,110.1z M34.3,144.2
	c-3.1-2.6-6.4-5.8-6.9-9.7c-0.3-1.8,0.1-3.5,0.8-4.3c0.3-0.3,0.7-0.7,1.8-0.7c0.1,0,0.2,0,0.2,0c2.8,0.2,5.8,2.1,8.5,3.7
	c0.7,0.4,1.3,0.8,2,1.2l102.8,60.6c-12.3,2.5-25.1,2.4-37.4-0.2c-9.5-2.1-16-5.5-19.8-10.5c-4.4-5.7-5.2-13.5-6-20.4
	c-0.1-1-0.9-1.8-1.9-1.9C62.3,160.8,46.6,154.5,34.3,144.2L34.3,144.2z M212.7,162.5c-0.6,0.4-1.2,0.9-1.8,1.3
	c-10.6,8-21.8,15.4-32.6,22.7c-3.6,2.4-7.4,5-11.1,7.5c-14.9,10.1-30.1,19.8-45.3,28.8c-2.7,1.6-5.3,3-7.7,2.6
	c-1.7-0.2-3.3-1.4-4.9-2.4c-7.2-4.9-14.7-9.7-21.9-14.4c-14.7-9.6-30-19.5-44.2-30.4l19.9-14c0.2-0.1,0.3-0.2,0.4-0.4
	c4.2,1.1,8.4,1.9,12.7,2.3c0.8,6.7,2,14.7,6.7,20.8c4.4,5.8,11.7,9.8,22.3,12.1c6.6,1.4,13.3,2.1,20.1,2.1c8.2,0,16.4-1.1,24.3-3.1
	c0.8-0.2,1.4-0.9,1.5-1.7c0.1-0.8-0.3-1.7-1-2.1l-70.6-41.6l35.5-18.8c0.3,1.1,0.5,2.1,0.8,3.2c0.8,3.4,1.7,6.9,2.6,10.4
	c1.2,4.5,3,5.8,6.5,7.8c6.1,3.5,12.3,7.3,18.2,11c3,1.8,6,3.7,9,5.6c1.9,1.1,4.2,2.5,6.9,2.8c0.3,0,0.5,0,0.7,0
	c3.4,0,6.4-1.8,8.7-3.2l37.3-22.8c2.3-1.4,5.4-3.3,6.8-6.5c1-2.3,1-4.7,1-6.8c3.3,2.1,6.5,4,9.6,5.9c3.1,1.8,6.3,3.8,9.6,5.8
	C226.1,152.2,219.4,157.4,212.7,162.5L212.7,162.5z M212.7,162.5"/>
<path class="st0" d="M280.4,62.9c11.9,0,21.6-9.7,21.6-21.6c0-1.5-1.2-2.7-2.7-2.7H294c-3.1,0-6.1,0.7-8.9,1.9
	c0.5-1.5,0.8-3.1,0.8-4.7c0-8.4-8.5-17.7-8.8-18.1c-0.5-0.5-1.2-0.8-2-0.8s-1.5,0.3-2,0.8c-0.4,0.4-8.8,9.6-8.8,18.1
	c0,1.6,0.3,3.2,0.8,4.7c-2.8-1.3-5.8-1.9-8.9-1.9h-5.4c-1.5,0-2.7,1.2-2.7,2.7c0,11.9,9.7,21.6,21.6,21.6h2.7v7.4
	c-4.1-4.7-10-7.4-16.2-7.4h-5.4c-1.5,0-2.7,1.2-2.7,2.7c0,11.9,9.7,21.6,21.6,21.6h2.7v7.4c-4.1-4.7-10-7.4-16.2-7.4h-5.4
	c-1.5,0-2.7,1.2-2.7,2.7c0,11.9,9.7,21.6,21.6,21.6h2.7v5.4h-5.4v5.4h16.2v-5.4h-5.4v-5.4h2.7c11.9,0,21.6-9.7,21.6-21.6
	c0-1.5-1.2-2.7-2.7-2.7H294c-6.2,0-12.1,2.7-16.2,7.4v-7.4h2.7c11.9,0,21.6-9.7,21.6-21.6c0-1.5-1.2-2.7-2.7-2.7H294
	c-6.2,0-12.1,2.7-16.2,7.4v-7.4H280.4z M269.6,81.8c-7.9,0-14.7-5.7-16-13.5h2.5c7.9,0,14.7,5.7,16,13.5H269.6z M269.6,106.1
	c-7.9,0-14.7-5.7-16-13.5h2.5c7.9,0,14.7,5.7,16,13.5H269.6z M294,92.6h2.5c-1.3,7.8-8.1,13.5-16,13.5H278
	C279.3,98.3,286,92.6,294,92.6z M294,68.3h2.5c-1.3,7.8-8.1,13.5-16,13.5H278C279.3,74,286,68.3,294,68.3z M294,44h2.5
	c-1.3,7.8-8.1,13.5-16,13.5H278C279.3,49.7,286,44,294,44z M269.6,57.5c-7.9,0-14.7-5.7-16-13.5h2.5c7.9,0,14.7,5.7,16,13.5H269.6z
	 M275,45.8c-3-2.5-4.9-6.1-5.4-9.9c0-3.9,3-8.9,5.4-12c2.4,3.1,5.4,8,5.4,12C280,39.7,278,43.3,275,45.8z"/>
</svg>
