<?xml version="1.0" encoding="utf-8"?>
<!-- Generator: Adobe Illustrator 22.1.0, SVG Export Plug-In . SVG Version: 6.00 Build 0)  -->
<svg version="1.1" id="Warstwa_1" xmlns="http://www.w3.org/2000/svg" xmlns:xlink="http://www.w3.org/1999/xlink" x="0px" y="0px"
	 viewBox="0 0 329 239" style="enable-background:new 0 0 329 239;" xml:space="preserve">
<style type="text/css">
	.st0{fill:#FFFFFF;}
</style>
<g>
	<path class="st0" d="M276.4,91.1C276.4,91.1,276.4,91,276.4,91.1c-0.1-0.2-0.1-0.4-0.2-0.5c0,0,0,0,0-0.1c-0.1-0.1-0.1-0.2-0.2-0.4
		c0,0,0,0,0-0.1l-36.2-56.8c-2.2-3.5-6-5.5-10.1-5.5H116.9c-4.1,0-7.9,2.1-10.1,5.5L70.6,90.1c0,0,0,0,0,0.1
		c-0.1,0.1-0.1,0.2-0.2,0.4c0,0,0,0,0,0.1c-0.1,0.1-0.1,0.3-0.2,0.4c0,0,0,0,0,0.1s-0.1,0.3-0.1,0.4v0.1c0,0.2,0,0.3,0,0.5V207
		c0,6.6,5.4,12,12,12h182.5c6.6,0,12-5.4,12-12V92.1c0-0.2,0-0.3,0-0.5v-0.1C276.5,91.3,276.4,91.2,276.4,91.1L276.4,91.1z
		 M233.6,37.3l32.6,51.1H177V35.1h52.7C231.3,35.1,232.7,35.9,233.6,37.3L233.6,37.3z M147.5,95.7h51.6v45l-3.5-3.7
		c-0.7-0.7-1.7-1.2-2.7-1.2s-2,0.4-2.7,1.2l-7.1,7.6L176,137c-0.7-0.7-1.7-1.2-2.7-1.2s-2,0.4-2.7,1.2l-7.1,7.6l-7.2-7.6
		c-0.7-0.7-1.7-1.2-2.7-1.2s-2,0.4-2.7,1.2l-3.5,3.7L147.5,95.7L147.5,95.7z M113,37.3c0.8-1.3,2.3-2.1,3.9-2.1h52.7v53.3H80.4
		L113,37.3z M264.6,211.5H82c-2.6,0-4.6-2.1-4.6-4.6V95.7h62.8V150c0,1.5,0.9,2.9,2.3,3.4c1.4,0.6,3,0.2,4-0.9l7.2-7.6l7.2,7.6
		c0.7,0.7,1.7,1.2,2.7,1.2s2-0.4,2.7-1.2l7.1-7.6l7.2,7.6c0.7,0.7,1.7,1.2,2.7,1.2s2-0.4,2.7-1.2l7.1-7.6l7.2,7.6
		c1,1.1,2.6,1.5,4,0.9s2.3-1.9,2.3-3.4V95.7h62.8v111.1C269.2,209.4,267.1,211.5,264.6,211.5L264.6,211.5z"/>
	<path class="st0" d="M126.1,172.7H94.7c-2,0-3.7,1.6-3.7,3.7v17.8c0,2,1.6,3.7,3.7,3.7h31.4c2,0,3.7-1.6,3.7-3.7v-17.8
		C129.8,174.4,128.2,172.7,126.1,172.7L126.1,172.7z M122.5,190.5H98.4V180h24.1V190.5z"/>
	<path class="st0" d="M191.6,172.7H144c-2,0-3.7,1.6-3.7,3.7c0,2,1.6,3.7,3.7,3.7h47.7c2,0,3.7-1.6,3.7-3.7
		C195.3,174.4,193.7,172.7,191.6,172.7L191.6,172.7z"/>
	<path class="st0" d="M168.1,186.3H144c-2,0-3.7,1.6-3.7,3.7c0,2,1.6,3.7,3.7,3.7h24.1c2,0,3.7-1.6,3.7-3.7
		C171.7,188,170.1,186.3,168.1,186.3L168.1,186.3z"/>
</g>
</svg>
