<?xml version="1.0" encoding="utf-8"?>
<!-- Generator: Adobe Illustrator 22.1.0, SVG Export Plug-In . SVG Version: 6.00 Build 0)  -->
<svg version="1.1" id="Warstwa_1" xmlns="http://www.w3.org/2000/svg" xmlns:xlink="http://www.w3.org/1999/xlink" x="0px" y="0px"
	 viewBox="0 0 329 239" style="enable-background:new 0 0 329 239;" xml:space="preserve">
<style type="text/css">
	.st0{fill:#FFFFFF;}
</style>
<path class="st0" d="M270.1,93.1c-0.1-43.2-36-78.7-79-78.5c-37.7,0.2-68,26.5-76.1,60.1c-1.7,6.9-7.1,12-14,13.2
	c-19.4,3.3-35.3,19.3-35.1,44.4c-0.1,33.4-0.1,4.6-0.1,34.2c0,18.5,15,33.5,33.5,33.5h92.1c42.7,0,78.7-27.9,78.7-48.5
	C270.1,151.4,270.1,93.1,270.1,93.1L270.1,93.1z M103,99.6c11.6-2,20.8-10.7,23.6-22.2c7.2-29.8,33.8-50.8,64.5-50.9
	c0.1,0,0.2,0,0.3,0c36.3,0,66.6,30.2,66.7,66.5c0.1,36.9-29.8,66.8-66.7,66.8h-83.3c-16,0-29.1-12.4-30.2-28.1
	C77.9,113.2,89,102,103,99.6L103,99.6z M258,151.4c0,11.6-28.4,36.5-66.6,36.5H99.3c-11.9,0-21.5-9.7-21.5-21.5c0-5.1,0-3.4,0-7.4
	c7.7,7.9,18.4,12.8,30.3,12.8h83.3c28,0,52.6-14.6,66.6-36.8V151.4z M258,151.4"/>
<path class="st0" d="M107.1,150.7c92.2,0,86.8,0,87.4-0.1c30-1.4,53.9-26.2,53.9-56.5c0-31.2-25.4-56.6-56.6-56.6
	c-25.1,0-45.6,16-53.4,37.8c-6.3,17.8-20.4,31.4-37.7,36.2c-9.3,2.6-14,8.9-14,18.9C86.8,141.6,95.9,150.7,107.1,150.7L107.1,150.7z
	 M104,123.2c21-5.9,38.2-22.2,45.8-43.8c6.4-18.1,22.9-29.8,42-29.8c24.6,0,44.6,20,44.6,44.6c0,24.1-18.9,43.7-43,44.5
	c-1.3,0,7.8,0-86.3,0c-4.5,0-8.2-3.7-8.2-8.2C98.8,125.4,100.3,124.2,104,123.2L104,123.2z M104,123.2"/>
<path class="st0" d="M197.9,102c10.4,0,18.8-8.4,18.8-18.8c0-10.4-8.4-18.8-18.8-18.8c-10.4,0-18.8,8.4-18.8,18.8
	C179.1,93.6,187.5,102,197.9,102L197.9,102z M197.9,76.5c3.7,0,6.8,3,6.8,6.8c0,3.7-3,6.8-6.8,6.8c-3.7,0-6.8-3-6.8-6.8
	C191.1,79.5,194.2,76.5,197.9,76.5L197.9,76.5z M197.9,76.5"/>
</svg>
