<?xml version="1.0" encoding="utf-8"?>
<!-- Generator: Adobe Illustrator 24.0.2, SVG Export Plug-In . SVG Version: 6.00 Build 0)  -->
<svg version="1.1" id="Warstwa_1" xmlns="http://www.w3.org/2000/svg" xmlns:xlink="http://www.w3.org/1999/xlink" x="0px" y="0px"
	 viewBox="0 0 329 239" style="enable-background:new 0 0 329 239;" xml:space="preserve">
<style type="text/css">
	.st0{fill:#FFFFFF;}
</style>
<path class="st0" d="M237.5,116.1l0.2-1.8l1.8-0.3c14-2.7,25-13.9,27.4-27.9l0.3-1.5l1.4-0.5c8-2.7,13.4-10.1,13.5-18.5
	c0-10.7-9.2-19.7-20-19.7h-9.7l-0.4-2c-3.2-15.9-17.4-27.5-33.6-27.5h-59.9c-2.7,0-4.9,2.2-4.9,4.9s2.2,4.9,4.9,4.9h59.9
	c10.4,0,19.7,6.6,23.2,16.4l1.2,3.3h-84.3c-2.7,0-4.9,2.2-4.9,4.9s2.2,4.9,4.9,4.9h84.6v19.7h-128c-43.6,0-79.2,35.1-79.4,78.3
	c0,21,8.1,40.8,23,55.7c14.9,14.9,34.6,23.1,55.6,23.1h40.5c21,0,38-17,38-38c0-0.6-0.4-1.2-1.2-1.2h-72.5v-34.5h34.5v9.9
	c0,2.7,2.2,4.9,4.9,4.9c2.7,0,4.9-2.2,4.9-4.9v-9.9h19.7v9.9c0,2.7,2.2,4.9,4.9,4.9c2.7,0,4.9-2.2,4.9-4.9v-10l2.2-0.3
	C217,155.7,234.5,138.3,237.5,116.1z M45.7,146.4c1.4-13,6.5-25.2,14.6-35.3l1.7-2.2l40.2,40.2H45.4L45.7,146.4z M60.3,196.9
	c-8.2-10.1-13.2-22.3-14.6-35.3l-0.3-2.8h56.9l-40.2,40.2L60.3,196.9z M109.2,222.7l-2.8-0.3c-12.9-1.4-25.1-6.5-35.3-14.6l-2.2-1.7
	l40.2-40.2V222.7z M109.2,142.2l-40.2-40.2l2.2-1.7C81.3,92,93.5,87,106.4,85.6l2.8-0.3V142.2z M175.2,203c1.8,0,3.4,0.9,4.3,2.5
	c0.9,1.6,0.9,3.4,0.1,4.9c-4.4,7.6-12.5,12.3-21.3,12.3h-39.4V203H175.2z M153.4,149.2h-34.5v-64h34.5V149.2z M252.6,55.6h9.9
	c5.5,0,9.9,4.4,9.9,9.9s-4.4,9.9-9.9,9.9h-9.9V55.6z M188.7,149.2h-25.6v-64h94.2l-1.2,3.3c-3.4,9.8-12.7,16.4-23.2,16.4
	c-2.7,0-4.9,2.2-4.9,4.9C228.1,131.5,210.4,149.2,188.7,149.2z"/>
</svg>
