<?xml version="1.0" encoding="utf-8"?>
<!-- Generator: Adobe Illustrator 22.1.0, SVG Export Plug-In . SVG Version: 6.00 Build 0)  -->
<svg version="1.1" id="Warstwa_1" xmlns="http://www.w3.org/2000/svg" xmlns:xlink="http://www.w3.org/1999/xlink" x="0px" y="0px"
	 viewBox="0 0 329 239" style="enable-background:new 0 0 329 239;" xml:space="preserve">
<style type="text/css">
	.st0{fill:#FFFFFF;}
</style>
<path class="st0" d="M187.9,25.2c-0.7-0.7-1.6-1.1-2.6-1.1c-1,0-1.9,0.4-2.6,1.1c-0.7,0.7-1.1,1.6-1.1,2.6c0,1,0.4,1.9,1.1,2.6
	c0.7,0.7,1.6,1.1,2.6,1.1c1,0,1.9-0.4,2.6-1.1c0.7-0.7,1.1-1.6,1.1-2.6C188.9,26.8,188.6,25.8,187.9,25.2L187.9,25.2z M187.9,25.2"
	/>
<path class="st0" d="M209.3,24.1h-7.4c-2,0-3.6,1.6-3.6,3.6s1.6,3.6,3.6,3.6h7.4c18.7,0,34,15.2,34,34v49.1
	c0,13.4-7.9,25.4-19.7,30.8c0.1-1.4,0.2-2.7,0.2-4.1v-16.4c0-2-1.6-3.6-3.6-3.6c-2,0-3.6,1.6-3.6,3.6v16.4
	c0,13.4-7.9,25.4-19.7,30.8c0.1-1.3,0.2-2.7,0.2-4.1v-49.1c0-22.7-18.5-41.2-41.2-41.2h-49.1c-1.4,0-2.8,0.1-4.1,0.2
	c4.2-9.1,12.1-15.8,21.7-18.4c0.3,0,0.7-0.1,1-0.3c2.6-0.7,5.4-1,8.2-1h49.1c18.7,0,34,15.2,34,34v6.3c0,2,1.6,3.6,3.6,3.6
	c2,0,3.6-1.6,3.6-3.6V92c0-22.7-18.5-41.2-41.2-41.2h-49.1c-1.4,0-2.8,0.1-4.1,0.2c5.5-11.9,17.4-19.7,30.8-19.7h8.1
	c2,0,3.6-1.6,3.6-3.6s-1.6-3.6-3.6-3.6h-8.1c-18,0-33.9,11.7-39.3,28.7c-12.5,4-22.6,13.8-26.7,26.7c-16.6,5.3-28.7,20.9-28.7,39.2
	v49.1c0,22.7,18.5,41.2,41.2,41.2h49.1c18.4,0,33.9-12.1,39.2-28.7c12.9-4.1,22.7-14.2,26.7-26.7c17-5.4,28.7-21.3,28.7-39.3V65.3
	C250.5,42.6,232,24.1,209.3,24.1L209.3,24.1z M189.8,167.9c0,18.7-15.2,34-34,34h-49.1c-18.7,0-34-15.2-34-34v-49.1
	c0-15.5,10.5-28.7,24.8-32.7c0.3,0,0.7-0.1,1-0.3c2.6-0.7,5.4-1,8.2-1h49.1c18.7,0,34,15.2,34,34V167.9z M189.8,167.9"/>
<path class="st0" d="M222.7,109.3c-0.7-0.7-1.6-1.1-2.6-1.1c-1,0-1.9,0.4-2.6,1.1c-0.7,0.7-1.1,1.6-1.1,2.6c0,1,0.4,1.9,1.1,2.6
	c0.7,0.7,1.6,1.1,2.6,1.1c1,0,1.9-0.4,2.6-1.1c0.7-0.7,1.1-1.6,1.1-2.6C223.7,110.9,223.4,110,222.7,109.3L222.7,109.3z
	 M222.7,109.3"/>
<path class="st0" d="M93.9,106.6c-1.7-1.1-3.9-0.7-5,1c-0.8,1.2-1.5,2.4-2,3.7c-0.8,1.8,0.1,4,1.9,4.7c0.5,0.2,0.9,0.3,1.4,0.3
	c1.4,0,2.7-0.8,3.3-2.2c0.4-0.9,0.9-1.8,1.4-2.6C96,109.9,95.6,107.7,93.9,106.6L93.9,106.6z M93.9,106.6"/>
<path class="st0" d="M94.9,175c-0.5-0.8-1-1.7-1.4-2.6c-0.8-1.8-2.9-2.7-4.7-1.9c-1.8,0.8-2.7,2.9-1.9,4.7c0.5,1.3,1.2,2.6,2,3.8
	c0.7,1.1,1.8,1.6,3,1.6c0.7,0,1.4-0.2,2-0.6C95.5,178.9,96,176.6,94.9,175L94.9,175z M94.9,175"/>
<path class="st0" d="M110.4,182.4h-1.9c-0.5,0-0.9,0-1.4-0.1c-2-0.2-3.7,1.3-3.9,3.3c-0.2,2,1.3,3.7,3.3,3.9c0.7,0.1,1.3,0.1,2,0.1
	h1.9c2,0,3.6-1.6,3.6-3.6S112.4,182.4,110.4,182.4L110.4,182.4z M110.4,182.4"/>
<path class="st0" d="M88.6,148.7c-2,0-3.6,1.6-3.6,3.6v3.6c0,2,1.6,3.6,3.6,3.6c2,0,3.6-1.6,3.6-3.6v-3.6
	C92.2,150.3,90.6,148.7,88.6,148.7L88.6,148.7z M88.6,148.7"/>
<path class="st0" d="M176.4,113.4c-0.4-1.4-1-2.7-1.7-3.9c-0.9-1.8-3.1-2.4-4.9-1.5c-1.8,0.9-2.4,3.1-1.5,4.9
	c0.5,0.9,0.9,1.8,1.2,2.7c0.5,1.5,1.9,2.5,3.4,2.5c0.4,0,0.7-0.1,1.1-0.2C175.9,117.3,177,115.3,176.4,113.4L176.4,113.4z
	 M176.4,113.4"/>
<path class="st0" d="M88.6,127c-2,0-3.6,1.6-3.6,3.6v3.6c0,2,1.6,3.6,3.6,3.6c2,0,3.6-1.6,3.6-3.6v-3.6
	C92.2,128.6,90.6,127,88.6,127L88.6,127z M88.6,127"/>
<path class="st0" d="M110.6,97.1h-2.1c-0.6,0-1.2,0-1.8,0.1c-2,0.2-3.5,1.9-3.3,3.9c0.1,1.9,1.7,3.3,3.6,3.3c0.1,0,0.2,0,0.3,0
	c0.4,0,0.9,0,1.3,0h2.1c2,0,3.6-1.6,3.6-3.6C114.2,98.7,112.6,97.1,110.6,97.1L110.6,97.1z M110.6,97.1"/>
<path class="st0" d="M173.9,150.5c-2,0-3.6,1.6-3.6,3.6v3.6c0,2,1.6,3.6,3.6,3.6c2,0,3.6-1.6,3.6-3.6v-3.6
	C177.5,152.2,175.9,150.5,173.9,150.5L173.9,150.5z M173.9,150.5"/>
<path class="st0" d="M173.2,172.3c-1.8-0.9-4-0.3-4.9,1.5c-0.5,0.9-1,1.7-1.6,2.5c-1.2,1.6-1,3.8,0.6,5.1c0.7,0.5,1.5,0.8,2.3,0.8
	c1.1,0,2.1-0.5,2.8-1.4c0.9-1.1,1.7-2.3,2.3-3.6C175.7,175.4,175,173.2,173.2,172.3L173.2,172.3z M173.2,172.3"/>
<path class="st0" d="M173.9,128.9c-2,0-3.6,1.6-3.6,3.6v3.6c0,2,1.6,3.6,3.6,3.6c2,0,3.6-1.6,3.6-3.6v-3.6
	C177.5,130.5,175.9,128.9,173.9,128.9L173.9,128.9z M173.9,128.9"/>
<path class="st0" d="M153.8,182.4h-3.6c-2,0-3.6,1.6-3.6,3.6s1.6,3.6,3.6,3.6h3.6c2,0,3.6-1.6,3.6-3.6S155.8,182.4,153.8,182.4
	L153.8,182.4z M153.8,182.4"/>
<path class="st0" d="M158,97.4c-1.3-0.2-2.7-0.3-4-0.3h-3.6c-2,0-3.6,1.6-3.6,3.6c0,2,1.6,3.6,3.6,3.6h3.6c0.9,0,1.9,0.1,2.8,0.2
	c0.2,0,0.4,0.1,0.6,0.1c1.7,0,3.3-1.2,3.6-3C161.2,99.6,159.9,97.8,158,97.4L158,97.4z M158,97.4"/>
<path class="st0" d="M132.3,97.1h-3.6c-2,0-3.6,1.6-3.6,3.6c0,2,1.6,3.6,3.6,3.6h3.6c2,0,3.6-1.6,3.6-3.6
	C135.9,98.7,134.3,97.1,132.3,97.1L132.3,97.1z M132.3,97.1"/>
<path class="st0" d="M132.1,182.4h-3.6c-2,0-3.6,1.6-3.6,3.6s1.6,3.6,3.6,3.6h3.6c2,0,3.6-1.6,3.6-3.6S134.1,182.4,132.1,182.4
	L132.1,182.4z M132.1,182.4"/>
</svg>
