<?xml version="1.0" encoding="utf-8"?>
<!-- Generator: Adobe Illustrator 22.1.0, SVG Export Plug-In . SVG Version: 6.00 Build 0)  -->
<svg version="1.1" id="Warstwa_1" xmlns="http://www.w3.org/2000/svg" xmlns:xlink="http://www.w3.org/1999/xlink" x="0px" y="0px"
	 viewBox="0 0 329 239" style="enable-background:new 0 0 329 239;" xml:space="preserve">
<style type="text/css">
	.st0{fill:#FFFFFF;}
</style>
<path class="st0" d="M255.1,105.1c0-0.1,0-0.3,0-0.4l-0.1,0c-2-9.3-10.5-17.8-24.6-24.5C214.8,72.8,194,68.5,171.8,68
	c-22.2-0.4-43.2,3.1-59.1,9.9c-14.3,6.1-23.2,14.4-25.5,23.6l-0.5,0c0,0.6,0,1.3,0.1,1.9c-0.1,0.9-0.2,1.7-0.2,2.6
	c-0.1,3.8-0.2,12.3-0.3,20.7c-0.1,8.3-0.3,16.7-0.3,20.4c-0.2,11,8.7,21.3,25,29c15.6,7.4,36.5,11.7,58.7,12.1c1.2,0,2.3,0,3.5,0
	c20.9,0,40.5-3.5,55.6-10c16.6-7.1,25.9-17.1,26.1-28.1c0.1-3.8,0.2-12.1,0.3-20.4c0.1-8.4,0.3-16.8,0.3-20.7
	C255.5,107.8,255.4,106.5,255.1,105.1z M114.8,83c14.4-6.2,33.3-9.5,53.4-9.5c1.1,0,2.3,0,3.4,0c21.4,0.4,41.5,4.5,56.5,11.6
	c12.1,5.7,19.7,13,21.5,20.4c-0.5,2.4-2.8,4.9-6.6,7.2h-0.4v0.2c-3.7,2.2-8.9,4.3-15.2,6.1c-15.2,4.3-35.5,6.4-57,6
	c-21.5-0.4-41.7-3.3-56.7-8.1c-4.2-1.4-7.9-2.8-11-4.4v-0.7h-1.3c-5-2.7-8.2-5.6-9.1-8.4C94.1,95.8,102.1,88.5,114.8,83z
	 M242.7,163.3c-0.8,0.8-1.7,1.6-2.7,2.4v-45.3c1-0.4,1.9-0.8,2.7-1.3V163.3z M222.7,174.9c-2.3,0.9-4.8,1.7-7.3,2.4v-50.1
	c2.5-0.4,4.9-0.9,7.3-1.5V174.9z M210,128.1v50.6c-4.1,1-8.3,1.8-12.7,2.4v-51.6C201.7,129.2,205.9,128.7,210,128.1z M102.8,118.5
	c1.7,0.8,3.5,1.5,5.4,2.2v47.9c-2-1.1-3.8-2.3-5.4-3.5V118.5z M113.7,122.5c2.3,0.7,4.7,1.4,7.3,2v49.9c-2.5-0.9-5-1.9-7.3-3V122.5z
	 M126.4,125.8c2.6,0.6,5.4,1.1,8.2,1.5v51.3c-2.8-0.7-5.5-1.4-8.2-2.2V125.8z M140.1,128.1c4.4,0.6,9,1.1,13.6,1.5v52.2
	c-4.7-0.5-9.2-1.2-13.6-2.1V128.1z M91.4,147.3c0.1-3.8,0.2-12.1,0.3-20.5c0.1-5.4,0.2-10.8,0.2-15c1.5,1.3,3.3,2.6,5.4,3.9v44.6
	C93.4,156.2,91.3,151.7,91.4,147.3z M169.8,182.9c-3.6-0.1-7.1-0.2-10.6-0.5V130c3.7,0.2,7.5,0.4,11.3,0.4c1.7,0,3.5,0,5.2,0
	c5.5,0,11-0.2,16.2-0.5v51.9c-3.8,0.4-7.8,0.7-11.8,0.9v-51.9h-5.4v52.1C173,182.9,171.4,182.9,169.8,182.9z M228.1,172.7v-48.3
	c0.3-0.1,0.6-0.1,0.8-0.2c1.9-0.5,3.8-1.1,5.5-1.7v46.9C232.6,170.6,230.4,171.7,228.1,172.7z M249.4,150.2c0,1.9-0.5,3.7-1.3,5.6
	v-39.9c0.7-0.5,1.3-1,1.8-1.4c-0.1,4.2-0.2,9.8-0.2,15.4C249.6,138.1,249.5,146.4,249.4,150.2z"/>
</svg>
