<?xml version="1.0" encoding="utf-8"?>
<!-- Generator: Adobe Illustrator 22.1.0, SVG Export Plug-In . SVG Version: 6.00 Build 0)  -->
<svg version="1.1" id="Warstwa_1" xmlns="http://www.w3.org/2000/svg" xmlns:xlink="http://www.w3.org/1999/xlink" x="0px" y="0px"
	 viewBox="0 0 329 239" style="enable-background:new 0 0 329 239;" xml:space="preserve">
<style type="text/css">
	.st0{fill:#FFFFFF;}
</style>
<path class="st0" d="M205.6,120h-11.1v-11.5c0-2.7-2.2-4.8-4.8-4.8h-33.9c-2.7,0-4.8,2.2-4.8,4.8V120h-8.7L111,66
	c-0.6-1.1-1.7-1.9-2.9-2.3c-1.2-0.3-2.6-0.2-3.7,0.5L84.5,75.7C81.3,77.5,79,80.5,78,84c-1,3.6-0.5,7.3,1.4,10.5l23.9,41.6
	c2.5,4.3,7,6.9,12,6.9c2.4,0,4.8-0.6,6.9-1.8l12.6-7.3v53.6c0,7.6,6.2,13.8,13.8,13.8h48c7.6,0,13.8-6.2,13.8-13.8v-62.6
	C210.4,122.2,208.3,120,205.6,120L205.6,120z M117.4,132.8c-1.9,1.1-4.5,0.4-5.6-1.5l-24-41.6c-0.5-1-0.7-2.1-0.4-3.1
	c0.3-1.1,1-1.9,1.9-2.5l15.7-9l28,48.7L117.4,132.8z M160.5,113.4h24.2v6.7h-24.2V113.4z M200.7,137.3h-27v9.7h27v40.5
	c0,2.3-1.8,4.1-4.1,4.1h-48c-2.3,0-4.1-1.8-4.1-4.1V147h14.1v-9.7h-14.1v-7.6h56.2L200.7,137.3L200.7,137.3z"/>
<path class="st0" d="M152.3,82.1c1.7,2.5,3.9,4.9,6.5,7.1c2.5,2.1,5,3.9,7.6,5.5c2.5,1.5,5.3,3,8.5,4.4c0.6,0.3,1.3,0.4,1.9,0.4
	c0.1,0,0.2,0,0.2,0c1.5,0,2.9-0.7,3.8-1.8c1.2-1.5,1.4-3.6,0.5-5.2c-1.9-3.6-2.8-6.6-2.8-9c0-0.9,0.2-1.7,0.7-2.5
	c0.6-1,1.3-2,2.2-2.8c1.2-1.1,2.5-2.2,4-3.3c1.7-1.2,3.3-2.6,5.1-4.1s3.4-3.2,4.9-4.9c1.7-2,3-4.4,4-7.1c1-2.7,1.5-5.7,1.5-8.9
	c0-3.8-0.5-7.4-1.6-10.7s-2.5-6.3-4.3-8.8c-1.7-2.5-3.9-4.9-6.5-7.1c-2.5-2.1-5-3.9-7.6-5.5c-2.5-1.5-5.4-3-8.5-4.4
	c-0.6-0.3-1.2-0.4-1.8-0.4c-1.5-0.1-2.9,0.5-3.9,1.7c-1.3,1.5-1.5,3.6-0.7,5.4c1.8,3.6,2.8,6.7,2.8,9c0,0.9-0.2,1.7-0.7,2.5
	c-0.6,1-1.3,1.9-2.2,2.8c-1.2,1.1-2.5,2.2-4,3.3c-1.7,1.3-3.4,2.6-5.1,4.1c-1.8,1.5-3.4,3.2-4.9,4.9c-1.7,2-3,4.4-4.1,7.1
	c-1,2.7-1.5,5.7-1.5,8.9c0,3.8,0.5,7.4,1.6,10.7C149.1,76.6,150.5,79.5,152.3,82.1L152.3,82.1z M157.1,57c0.6-1.7,1.4-3.1,2.4-4.2
	c1.2-1.4,2.5-2.7,3.9-3.9c1.5-1.3,3-2.5,4.5-3.7c1.7-1.3,3.3-2.6,4.7-3.9c1.7-1.6,3.1-3.4,4.2-5.4c1.2-2.2,1.8-4.6,1.8-7.1
	c0-0.4,0-0.9,0-1.3c1.3,0.9,2.6,1.9,3.8,2.9c2,1.7,3.6,3.4,4.8,5.2c1.2,1.7,2.2,3.8,3,6.2s1.2,5,1.2,7.7c0,2-0.3,3.9-0.9,5.5
	c-0.6,1.7-1.4,3.1-2.3,4.2c-1.2,1.4-2.5,2.7-3.9,3.9c-1.6,1.4-3.1,2.6-4.6,3.7c-1.7,1.3-3.3,2.6-4.7,3.9c-1.7,1.6-3.1,3.4-4.2,5.4
	c-1.2,2.2-1.8,4.6-1.8,7.1c0,0.4,0,0.9,0,1.3c-1.3-0.9-2.5-1.9-3.8-2.9c-2-1.6-3.6-3.4-4.8-5.2c-1.2-1.7-2.2-3.8-3-6.2
	c-0.8-2.4-1.1-5-1.1-7.7C156.1,60.5,156.4,58.7,157.1,57L157.1,57z"/>
</svg>
