<?xml version="1.0" encoding="utf-8"?>
<!-- Generator: Adobe Illustrator 22.1.0, SVG Export Plug-In . SVG Version: 6.00 Build 0)  -->
<svg version="1.1" id="Warstwa_1" xmlns="http://www.w3.org/2000/svg" xmlns:xlink="http://www.w3.org/1999/xlink" x="0px" y="0px"
	 viewBox="0 0 329 239" style="enable-background:new 0 0 329 239;" xml:space="preserve">
<style type="text/css">
	.st0{fill:#FFFFFF;}
</style>
<g>
	<path class="st0" d="M254.3,146.7H73.7c-1.7,0-3.1,1.4-3.1,3.1c0,36.1,29.3,65.4,65.4,65.4H192c36.1,0,65.4-29.3,65.4-65.4
		C257.5,148.1,256.1,146.7,254.3,146.7z M192,209H136c-31.6,0-57.5-24.9-59.1-56.1h174.3C249.5,184.2,223.6,209,192,209z"/>
	<path class="st0" d="M122.6,139.6l17.8-17.8H192c6.9,0,12.5-5.6,12.5-12.5c0-2.3-0.6-4.4-1.7-6.2h4.2c6.7,0.2,12.4-5,13-11.8
		c0.1-2.5-0.5-4.9-1.7-7c2.8-0.3,5.4-1.5,7.4-3.6c2.4-2.4,3.7-5.5,3.7-8.8c0-0.2,0-0.5,0-0.8c-0.5-5.2-4-9.4-8.7-11l3.5-3.5
		c6.1-6,6.7-15.6,1.4-22.3c-5.7-7-16.1-8-23-2.2c-0.4,0.3-0.8,0.7-1.2,1.1l-3.8,3.9c-1.6-4.7-5.9-8.2-11.1-8.7
		c-6.9-0.4-12.7,4.9-13.1,11.8c0,0.2,0,0.5,0,0.7v4.8c-1.8-1.1-4-1.7-6.2-1.7c-0.2,0-0.5,0-0.8,0c-6.7,0.6-11.8,6.3-11.7,13v4.2
		c-1.9-1.1-4-1.7-6.2-1.7c-0.2,0-0.5,0-0.8,0c-6.7,0.6-11.8,6.3-11.7,13v44.9l-17.8,17.8L122.6,139.6z M142.2,72.5
		c-0.1-3.4,2.6-6.4,5.9-6.7l0.3,0c3.4,0,6.2,2.8,6.2,6.2v0c0,1.7,1.4,3.1,3.1,3.1h0c1.7,0,3.1-1.4,3.1-3.1V56.9
		c-0.1-3.4,2.6-6.4,5.9-6.7l0.3,0c3.4,0,6.2,2.8,6.2,6.2v0c0,1.7,1.4,3.1,3.1,3.1h0c1.7,0,3.1-1.4,3.1-3.1V40.8l0-0.3
		c0.2-3.4,3.1-6.1,6.4-5.9c3.4,0.3,6.1,3.3,6,6.8v2.4c0,0.9,0.3,1.8,1,2.4c1.3,1.2,3.2,1.1,4.3-0.1l8.5-8.6c0.2-0.2,0.5-0.4,0.7-0.6
		c4.3-3.5,10.7-2.9,14.2,1.3c3.3,4.2,2.9,10.2-0.9,14l-8.1,8.1c-0.7,0.7-1.1,1.8-1,2.8c0.3,1.5,1.6,2.6,3.1,2.6h2.6
		c0.1,0,0.1,0,0.2,0c3.4,0,6.3,2.6,6.6,5.9l0,0.3c0,2.2-1.2,4.3-3.2,5.5c-0.9,0.5-2,0.8-3,0.8h0h-9.2c-1.6,0-3.1,1.2-3.2,2.8
		c-0.2,1.9,1.3,3.4,3.1,3.4l0.3,0c3.4,0.2,6.1,3.1,5.9,6.4c-0.3,3.4-3.2,6.1-6.8,6h-14.9c-1.7,0-3.2,1.3-3.2,3
		c-0.1,1.8,1.4,3.3,3.2,3.3c2.1-0.1,4.1,0.8,5.1,2.6c2.8,4.8-0.6,9.8-5.2,9.8h-45.4l6.2-6.2h17.4c1.7,0,3.1-1.4,3.1-3.1
		c0-1.7-1.4-3.1-3.1-3.1h-11.2l12.5-12.5l14.3,1.2c1.7,0,3.1-1.4,3.1-3.1c0-1.7-1.4-3.1-3.1-3.1l-8-1.2L190.2,72h11.2
		c1.7,0,3.1-1.4,3.1-3.1s-1.4-3.1-3.1-3.1h-5l11.2-11.2c1.2-1.2,1.2-3.2,0-4.4c-1.2-1.2-3.2-1.2-4.4,0L192,61.3v-4.9
		c0-1.7-1.4-3.1-3.1-3.1c-1.7,0-3.1,1.4-3.1,3.1v11.2L173.3,80v-8c0-1.7-1.4-3.1-3.1-3.1c-1.7,0-3.1,1.4-3.1,3.1v14.3l-12.5,12.5
		V87.5c0-1.7-1.4-3.1-3.1-3.1c-1.7,0-3.1,1.4-3.1,3.1V105l-6.2,6.2V72.5z"/>
	<path class="st0" d="M88.9,62.1l2.6,2v1.2c0,8.7,7.1,16.1,15.8,15.9c8.5-0.1,15.3-7.1,15.3-15.6v-1.6l2.8-2.2
		c6-4.5,7.4-13,3.3-19.2c0,0,0,0,0,0c-4.4-6.6-13.3-8.4-19.9-4c-0.2,0.1-0.4,0.3-0.6,0.4l-1.1,0.9l-1.1-0.8
		c-5.7-5.3-14.7-5.1-20.1,0.5c-2.7,2.8-4.1,6.4-4,10.2c0.1,3.8,1.6,7.4,4.4,10.1C87,60.9,87.9,61.5,88.9,62.1z M90.3,44.2
		c1.6-1.6,3.7-2.5,5.8-2.5c2,0,4.1,0.7,5.6,2.3c0.1,0.1,0.2,0.2,0.3,0.3l3.1,2.2c1.1,0.8,2.6,0.8,3.7,0l3.3-2.5
		c1.8-1.2,4-1.6,6.1-1.2c2.1,0.4,4,1.6,5.2,3.4c2.3,3.5,1.5,8.3-1.9,10.9l-4,3.1c-0.8,0.6-1.2,1.5-1.2,2.5v3.1
		c0,5.2-4.2,9.3-9.3,9.3c-5.2,0-9.3-4.2-9.3-9.3v-3.1c0-1-0.4-1.9-1.2-2.5l-4-3.1c-0.1-0.1-0.2-0.2-0.4-0.3
		c-0.6-0.3-1.1-0.7-1.6-1.2c-1.6-1.5-2.4-3.5-2.5-5.7C88,47.8,88.8,45.7,90.3,44.2z"/>
	<path class="st0" d="M141.9,37.7h0.6c1.5,0,2.8-1.3,2.8-2.8v-0.6c0-1.5-1.3-2.8-2.8-2.8h-0.6c-1.5,0-2.8,1.3-2.8,2.8v0.6
		C139.1,36.4,140.3,37.7,141.9,37.7z"/>
	<path class="st0" d="M160.9,131.2c-1.7,0-3.1,1.4-3.1,3.1c0,1.7,1.4,3.1,3.1,3.1h0c1.7,0,3.1-1.4,3.1-3.1
		C164,132.5,162.6,131.2,160.9,131.2L160.9,131.2z"/>
	<path class="st0" d="M251.2,59.5c0-6.9-5.6-12.5-12.5-12.5v6.2c3.4,0,6.2,2.8,6.2,6.2c0,3.4-2.8,6.2-6.2,6.2V72
		C245.6,72,251.2,66.4,251.2,59.5z"/>
	<circle class="st0" cx="79.9" cy="78.2" r="3.1"/>
	<path class="st0" d="M73.7,68.9L73.7,68.9c1.7,0,3.1-1.4,3.1-3.1v0c0-1.7-1.4-3.1-3.1-3.1h0c-1.7,0-3.1,1.4-3.1,3.1v0
		C70.6,67.5,71.9,68.9,73.7,68.9z"/>
	<path class="st0" d="M192,128c-6.9,0-12.5,5.6-12.5,12.5h6.2c0-3.4,2.8-6.2,6.2-6.2c3.4,0,6.2,2.8,6.2,6.2h6.2
		C204.5,133.6,198.9,128,192,128z"/>
	<path class="st0" d="M83,124.9h3.1v9.3c0,1.7,1.4,3.1,3.1,3.1h12.5c1.7,0,3.1-1.4,3.1-3.1v-9.3h3.1c6.9,0,12.5-5.6,12.5-12.5
		c0-6.9-5.6-12.5-12.5-12.5h-0.4c-1.4-5.4-6.3-9.3-12.1-9.3s-10.7,4-12.1,9.3H83c-6.9,0-12.5,5.6-12.5,12.5
		C70.6,119.3,76.1,124.9,83,124.9z M98.6,131.2h-6.2v-6.2h6.2V131.2z M83,106.2h3.1c1.7,0,3.1-1.4,3.1-3.1c0-3.4,2.8-6.2,6.2-6.2
		c3.4,0,6.2,2.8,6.2,6.2c0,1.7,1.4,3.1,3.1,3.1h3.1c3.4,0,6.2,2.8,6.2,6.2c0,3.4-2.8,6.2-6.2,6.2h-6.2c0,0,0,0,0,0H89.2c0,0,0,0,0,0
		H83c-3.4,0-6.2-2.8-6.2-6.2C76.8,109,79.6,106.2,83,106.2z"/>
	<path class="st0" d="M235.7,128c5.2,0,9.3-4.2,9.3-9.3s-4.2-9.3-9.3-9.3c-5.2,0-9.3,4.2-9.3,9.3S230.5,128,235.7,128z M235.7,115.6
		c1.7,0,3.1,1.4,3.1,3.1c0,1.7-1.4,3.1-3.1,3.1c-1.7,0-3.1-1.4-3.1-3.1C232.5,117,233.9,115.6,235.7,115.6z"/>
	<path class="st0" d="M213.8,118.7c0,12,9.8,21.8,21.8,21.8c12,0,21.8-9.8,21.8-21.8c0-12-9.8-21.8-21.8-21.8
		C223.6,96.9,213.8,106.7,213.8,118.7z M235.7,103.1c8.6,0,15.6,7,15.6,15.6c0,8.6-7,15.6-15.6,15.6c-8.6,0-15.6-7-15.6-15.6
		C220.1,110.1,227.1,103.1,235.7,103.1z"/>
</g>
</svg>
