<?xml version="1.0" encoding="utf-8"?>
<!-- Generator: Adobe Illustrator 22.1.0, SVG Export Plug-In . SVG Version: 6.00 Build 0)  -->
<svg version="1.1" id="Warstwa_1" xmlns="http://www.w3.org/2000/svg" xmlns:xlink="http://www.w3.org/1999/xlink" x="0px" y="0px"
	 viewBox="0 0 329 239" style="enable-background:new 0 0 329 239;" xml:space="preserve">
<style type="text/css">
	.st0{fill:#FFFFFF;}
</style>
<path class="st0" d="M123.9,116.9c1.2,4.2,4.8,7,9.2,7h57.2c4.4,0,8.2-3,9.2-7.2c1.3-5.2-0.2-10.7-4.1-15.9c-2-2.6-4.2-4.5-5.4-5.4
	c1-4-0.2-7.9-3.7-11.4c-2-2-4.3-3.4-5.4-4c-2.9-9-14.1-13.8-18.8-15.5c-1.7-0.6-3.7,0.1-4.7,1.6c-1.1,1.7-4.3,3.1-7.8,4.5
	c-5.1,2.1-10.8,4.4-12.8,9.4c-1,2.6-0.9,5.5,0.5,8.9c-4,1.6-7.3,3.7-8.7,6.9c-1.3,2.8-1,6.1,0.8,9.7c-0.5,0.2-0.9,0.5-1.4,0.8
	C124.3,108.5,122.7,112.7,123.9,116.9L123.9,116.9z M129.6,108.8c4-2.4,8.8-3.5,13.4-4.3c7.2-1.2,14.6-1.7,21.9-2.2
	c3.9-0.3,7.5-0.5,10.8-0.8c0.8-0.1,1.5-0.9,1.4-1.7c-0.1-0.8-0.9-1.5-1.8-1.3c-2.1,0.2-4.3,0.3-6.4,0.5c-1.4,0.1-2.8,0.2-4.2,0.3
	c-8.1,0.5-16.3,1.1-24.3,2.6c0,0-5.5,1.3-8.1,2.2c0,0,0,0-0.1,0c-1.4-2.9-1.7-5.3-0.8-7.2c1.4-3,4.6-4.5,7.6-5.6
	c3.4-1.2,7-2,10.6-2.7c0.8-0.1,1.4-1,1.2-1.8c-0.1-0.8-0.9-1.4-1.8-1.2c-2.8,0.5-5.9,1.1-8.8,2c-1.1-2.7-1.2-4.9-0.5-6.8
	c1.5-3.8,6.4-5.8,11.1-7.7c3.9-1.6,7.6-3.1,9.2-5.6c0.2-0.3,0.7-0.5,1.1-0.3c4.3,1.5,14.2,5.7,16.8,13.2c-1.2,0.8-2.6,1.1-4,1.5
	c-4.2,1-8.4,1.4-12.6,2c-2.1,0.3-4.3,0.5-6.5,0.9c-0.8,0.1-1.4,0.9-1.3,1.7c0.1,0.8,0.9,1.4,1.7,1.3c2.2-0.3,4.3-0.6,6.4-0.9
	c3.1-0.4,6.2-0.8,9.3-1.3c3.1-0.5,6.4-0.9,9-2.9c1,0.6,2.7,1.7,4.2,3.2c3,3,3.9,6.1,2.7,9.3c0,0,0,0.1,0,0.1
	c-0.1,0.3-0.8,1.4-5.6,2.3c-0.8,0.2-1.4,0.9-1.2,1.8c0.1,0.8,1,1.4,1.8,1.2c2.3-0.4,5-1,6.9-2.7c0,0,0,0,0,0c2.9,2.4,10,9.4,8,17.9
	c-0.7,2.9-3.3,4.9-6.3,4.9h-57.2c-3.6,0-5.6-2.6-6.3-4.7C126.2,113.9,126.6,110.7,129.6,108.8L129.6,108.8z M129.6,108.8"/>
<path class="st0" d="M259,132.8c0-0.1,0-0.1,0-0.2c0-0.1,0-0.2-0.1-0.2l-25.2-69.3c-0.5-1.2-1.6-2.1-3-2.1H98.4
	c-1.3,0-2.5,0.8-3,2.1l-25.2,69.3c0,0.1,0,0.2-0.1,0.2c0,0.1,0,0.1,0,0.2c-0.1,0.4-0.1,0.8,0,1.2c0,0,0,0,0,0.1l6.3,31.5
	c0.3,1.5,1.6,2.5,3.1,2.5h3.2v9.5c0,1.7,1.4,3.2,3.2,3.2h157.6c1.7,0,3.2-1.4,3.2-3.2v-9.5h3.2c1.5,0,2.8-1.1,3.1-2.5l6.3-31.5
	c0,0,0,0,0-0.1C259.1,133.7,259.1,133.2,259,132.8z M100.6,67.3h128l22.9,63h-12.1l-15.1-48.2c-0.4-1.3-1.6-2.2-3-2.2h-40.7l7.9,6.3
	H219l13.8,44.1H96.3l13.8-44.1h26l1.4-6.3h-29.8c-1.4,0-2.6,0.9-3,2.2l-15.1,48.2H77.6L100.6,67.3z M240.2,174.5H88.9v-6.3h151.3
	V174.5z M247.1,161.9H82l-5-25.2h175.1L247.1,161.9z"/>
</svg>
