<?xml version="1.0" encoding="utf-8"?>
<!-- Generator: Adobe Illustrator 22.1.0, SVG Export Plug-In . SVG Version: 6.00 Build 0)  -->
<svg version="1.1" id="Warstwa_1" xmlns="http://www.w3.org/2000/svg" xmlns:xlink="http://www.w3.org/1999/xlink" x="0px" y="0px"
	 viewBox="0 0 329 239" style="enable-background:new 0 0 329 239;" xml:space="preserve">
<style type="text/css">
	.st0{fill:#FFFFFF;}
</style>
<path class="st0" d="M223,158.2c-1.2-1.8-3.2-2.8-5.3-2.7l-0.2,0c-0.1,0-0.2,0-0.3,0c-8.8,0-15.9-7.1-15.9-15.9
	c0-4.9,2.2-9.5,6.2-12.6c1.4-1.1,2.3-2.8,2.4-4.6c0.1-1.8-0.6-3.6-1.9-4.8c-4.3-4-6.6-9.5-6.6-15.4c0-7.2,3.6-13.8,9.6-17.8
	c1.7-1.1,2.8-3,2.8-5c0.1-2-0.9-4-2.5-5.2c-3.6-2.7-7.7-5-12.1-7.1c-16.7-7.7-32.3-7.7-45.1-0.2V52.4c6.1-0.7,15.2-2.8,21.8-9.4
	c10.5-10.5,9.7-27.6,9.7-28.3c-0.2-3.2-2.7-5.7-5.9-5.9c-0.7,0-17.8-0.8-28.3,9.7c-9.5,9.5-9.8,24.4-9.7,27.7c0,0.1,0,0.2,0,0.4
	v20.4c-12.8-7.5-28.4-7.5-45.1,0.2C81,74.3,70.1,85.4,64.9,99.4c-6.2,16.7-4.4,37.2,5.4,60.9c13.3,32,28,50.9,45,57.5
	c4.5,1.8,9.2,2.7,13.9,2.7c6,0,12.2-1.4,18.5-4.3c11.2,5,22,5.6,32.1,1.7c16.5-6.3,30.8-23.9,43.7-53.8
	C224.4,162.2,224.2,159.9,223,158.2L223,158.2z M160,27.3c3.5-3.5,8.6-5,12.6-5.6c-0.6,4-2.1,9.1-5.6,12.6c-3.5,3.5-8.6,5-12.6,5.6
	C155.1,35.8,156.6,30.8,160,27.3L160,27.3z M175.4,206.3c-7.2,2.7-14.7,2.2-23-1.6c-0.6-0.3-1.2-0.6-1.9-0.9c-1.8-0.9-3.9-0.9-5.7,0
	c-0.6,0.3-1.2,0.6-1.9,0.9c-8.4,3.9-16,4.4-23.2,1.5c-13.5-5.3-26.3-22.4-38.1-50.7c-19.5-47.2,0-68,19.8-77.1
	c6.8-3.1,13.1-4.7,19-4.7c8.7,0,16.2,3.5,22.6,10.4c1.2,1.3,2.8,2,4.6,2c1.7,0,3.4-0.7,4.6-2c10.7-11.6,24.6-13.5,41.6-5.7
	c1.1,0.5,2.2,1.1,3.3,1.6c-5.3,6-8.3,13.9-8.3,22.1c0,7.1,2.2,13.9,6.3,19.6c-4,5-6.3,11.2-6.3,17.8c0,12.7,8.4,23.5,19.9,27.1
	C198.4,188.5,187.2,201.8,175.4,206.3L175.4,206.3z M175.4,206.3"/>
</svg>
