<?xml version="1.0" encoding="utf-8"?>
<!-- Generator: Adobe Illustrator 22.1.0, SVG Export Plug-In . SVG Version: 6.00 Build 0)  -->
<svg version="1.1" id="Warstwa_1" xmlns="http://www.w3.org/2000/svg" xmlns:xlink="http://www.w3.org/1999/xlink" x="0px" y="0px"
	 viewBox="0 0 329 239" style="enable-background:new 0 0 329 239;" xml:space="preserve">
<style type="text/css">
	.st0{fill:#FFFFFF;}
</style>
<path class="st0" d="M181.1,188.2H94.6c-4.6,0-8.8-2.3-11.4-6c-2.6-3.8-3.1-8.6-1.4-12.8l0.1-0.1l54-121.2
	c2.5-6.2,8.4-10.2,15.1-10.2h81c5.4,0,10.5,2.7,13.5,7.1c3,4.5,3.7,10.2,1.7,15.2l-0.1,0.1l-53.3,119.3
	C191.8,184.8,186.8,188.2,181.1,188.2z M87.7,171.7c-0.9,2.3-0.6,4.8,0.8,6.8c1.4,2.1,3.6,3.2,6.1,3.2h86.5c3,0,5.7-1.8,6.8-4.6
	l0.1-0.1l53.3-119.3c1.2-3.1,0.8-6.4-1-9.2c-1.9-2.8-4.9-4.3-8.2-4.3h-81c-4.1,0-7.7,2.5-9.2,6.3l-0.1,0.1L87.7,171.7z"/>
<g>
	<path class="st0" d="M148.3,104.7c-0.1,0.2-0.3,0.4-0.5,0.5c-0.2,0.1-0.4,0.2-0.6,0.2c-0.2,0-0.5-0.1-0.7-0.2
		c-0.3-0.1-0.6-0.3-0.9-0.5c-0.3-0.2-0.7-0.3-1.1-0.5c-0.4-0.1-0.9-0.2-1.4-0.2c-0.9,0-1.6,0.2-2.1,0.6c-0.5,0.4-0.7,0.9-0.7,1.6
		c0,0.4,0.1,0.8,0.4,1.1c0.3,0.3,0.6,0.5,1.1,0.7c0.4,0.2,1,0.4,1.5,0.6c0.6,0.2,1.2,0.4,1.7,0.6s1.2,0.5,1.8,0.7
		c0.6,0.3,1.1,0.6,1.5,1.1c0.4,0.4,0.8,1,1.1,1.6c0.3,0.6,0.4,1.4,0.4,2.3c0,1-0.2,1.9-0.5,2.8c-0.3,0.9-0.8,1.6-1.5,2.2
		c-0.7,0.6-1.5,1.1-2.4,1.5s-2,0.5-3.2,0.5c-0.7,0-1.3-0.1-2-0.2c-0.7-0.1-1.4-0.3-2-0.6c-0.6-0.3-1.2-0.5-1.8-0.9
		c-0.6-0.3-1.1-0.7-1.5-1.1l1.5-2.3c0.1-0.2,0.3-0.3,0.5-0.4c0.2-0.1,0.4-0.2,0.6-0.2c0.3,0,0.6,0.1,0.9,0.3c0.3,0.2,0.6,0.4,1,0.6
		c0.4,0.2,0.8,0.4,1.3,0.6c0.5,0.2,1.1,0.3,1.7,0.3c0.9,0,1.6-0.2,2.1-0.6c0.5-0.4,0.7-1,0.7-1.9c0-0.5-0.1-0.9-0.4-1.2
		c-0.3-0.3-0.6-0.6-1.1-0.8c-0.4-0.2-1-0.4-1.5-0.5c-0.6-0.2-1.1-0.3-1.7-0.5c-0.6-0.2-1.2-0.4-1.7-0.7c-0.6-0.3-1.1-0.6-1.5-1.1
		c-0.4-0.5-0.8-1-1.1-1.7c-0.3-0.7-0.4-1.5-0.4-2.5c0-0.8,0.2-1.6,0.5-2.3c0.3-0.8,0.8-1.4,1.4-2c0.6-0.6,1.4-1.1,2.3-1.4
		c0.9-0.4,1.9-0.5,3.1-0.5c0.7,0,1.3,0.1,1.9,0.2c0.6,0.1,1.2,0.3,1.8,0.5c0.6,0.2,1.1,0.4,1.6,0.7c0.5,0.3,0.9,0.6,1.3,0.9
		L148.3,104.7z"/>
	<path class="st0" d="M166,100.3v3.8h-8.8v5h6.7v3.7h-6.7v5.1h8.8v3.8h-13.7v-21.3H166z"/>
	<path class="st0" d="M173.8,113.8v7.9h-4.9v-21.3h6.9c1.5,0,2.9,0.2,3.9,0.5c1.1,0.3,2,0.8,2.7,1.3c0.7,0.6,1.2,1.2,1.5,2
		c0.3,0.8,0.5,1.6,0.5,2.5c0,0.7-0.1,1.3-0.3,2c-0.2,0.6-0.5,1.2-0.8,1.7c-0.4,0.5-0.8,1-1.3,1.4c-0.5,0.4-1.1,0.7-1.8,1
		c0.3,0.2,0.6,0.4,0.9,0.6c0.3,0.2,0.5,0.5,0.8,0.9l4.5,7.4h-4.5c-0.8,0-1.4-0.3-1.8-0.9l-3.5-6.2c-0.2-0.3-0.3-0.5-0.5-0.6
		c-0.2-0.1-0.5-0.2-0.9-0.2H173.8z M173.8,110.4h2c0.7,0,1.2-0.1,1.7-0.3c0.5-0.2,0.9-0.4,1.2-0.7c0.3-0.3,0.5-0.7,0.7-1.1
		c0.1-0.4,0.2-0.8,0.2-1.3c0-0.9-0.3-1.7-0.9-2.2c-0.6-0.5-1.6-0.8-2.8-0.8h-2V110.4z"/>
</g>
<path class="st0" d="M174.8,204c-19.9,0-52.8-1.2-68.3-1.8c-5.2-0.2-9.8-3.5-11.8-8.3l-3.1-7.7l5.9-2.4l3.1,7.7
	c1,2.5,3.4,4.2,6.1,4.3c15.2,0.6,65.8,2.5,80,1.6c10.8-0.7,15-11.9,15.4-13.2c0.1-0.2,0.1-0.4,0.2-0.6l34.1-85.2
	c0.2-0.6,0.4-1.3,0.5-1.9c1.6-17.1,1.6-26.7,1.1-28.5c0,0.1,0.1,0.1,0.1,0.2l5.6-3.1c0.6,1.1,2.2,3.9-0.4,32
	c-0.1,1.3-0.4,2.5-0.9,3.7l-34.1,85.2c0,0.1-0.1,0.2-0.1,0.3c-0.6,1.7-6.1,16.5-21,17.5C184.2,203.9,179.9,204,174.8,204z"/>
</svg>
