<?xml version="1.0" encoding="utf-8"?>
<!-- Generator: Adobe Illustrator 22.1.0, SVG Export Plug-In . SVG Version: 6.00 Build 0)  -->
<svg version="1.1" id="Warstwa_1" xmlns="http://www.w3.org/2000/svg" xmlns:xlink="http://www.w3.org/1999/xlink" x="0px" y="0px"
	 viewBox="0 0 329 239" style="enable-background:new 0 0 329 239;" xml:space="preserve">
<style type="text/css">
	.st0{fill:#FFFFFF;}
</style>
<g>
	<path class="st0" d="M223.4,150.9C223.5,150.9,223.5,150.9,223.4,150.9c1.9,0,3.3-1.5,3.3-3.3c0-1.8-1.5-3.3-3.3-3.3l-0.2,0
		c-1.8,0.1-3.2,1.6-3.1,3.4C220.2,149.5,221.6,150.9,223.4,150.9z"/>
	<path class="st0" d="M266.4,163.1L266.4,163.1c-0.3-0.1-0.7-0.2-1-0.2h-11.9c-0.3-1.3-0.9-2.6-1.7-3.6c-1.4-1.8-3.2-3.3-5.3-4.3
		c-0.2-3.7-1.3-9.9-5.4-14.1c-2.3-2.4-5.4-3.9-8.7-4.3c-1.3-3.6-5.4-10.2-16.3-9.6c-3.4,0.2-6.8,0.6-10.2,1.3l-1.2-0.5
		c-9.5-4.4-20.6-3.9-29.6,1.4c-5,2.9-10.9,7.9-17.8,14.7c0,0,0,0,0,0l12.8-12.9c5.8-5.7,9.4-12.5,9.6-18.3l66.1-64.4
		c3.7-3.8,3.7-9.9-0.1-13.7c-3.8-3.7-9.9-3.7-13.7,0.1l-62.4,67.1c0,0-0.1,0-0.1,0c-5.9,0-12.9,3.5-18.9,9.4l-14.2,14.1
		c-0.7-0.3-1.3-0.7-1.9-1l-0.4-0.2c-4.5-2.5-9.9-3.1-14.9-1.5c-4.4,1.4-8.2,4.5-10.4,8.6c-3.7,0.8-13.4,3.8-15.4,12.5
		c-4.5,1.7-8.6,4.4-11.8,7.9c-1.5,1.6-2.8,3.5-3.8,5.5c-2.7,1.7-5.1,3.7-7.3,5.9H56.7c-1.6,0-3,1.3-3,3c0,0.3,0.1,0.7,0.2,1
		c2.5,7.5,9.4,12.6,17.3,12.7h8.8c11.2,16.4,29.7,26.1,49.6,26.1c0.1,0,0.1,0,0.2,0h62.7c0,0,0.1,0,0.1,0c19.9,0,38.4-9.8,49.7-26.2
		h8.8c7.9-0.1,14.8-5.2,17.2-12.7C268.7,165.4,267.9,163.7,266.4,163.1z M238.8,37.7c1,0,1.9,0.4,2.6,1.1c0.7,0.7,1.1,1.7,1.1,2.7
		c0,1-0.4,1.9-1.1,2.6l-5.6,5.5l-5.2-4.7l5.5-5.9C236.9,38.1,237.8,37.7,238.8,37.7C238.8,37.7,238.8,37.7,238.8,37.7z M97.6,156.4
		c6.4-0.2,12.7,2,18.8,6.5h-14.6c0.5-0.6,0.9-1.4,0.9-2.2c0-1.8-1.5-3.3-3.3-3.3c-1.8,0-3.3,1.5-3.3,3.3c0,0.9,0.3,1.6,0.9,2.2H79.5
		C83.6,160,89.9,156.6,97.6,156.4L97.6,156.4z M130.8,147.6c0,1.8,1.5,3.3,3.3,3.3c1.6,0,2.9-1.1,3.2-2.6c2.8,2.5,5.5,5.5,8,9.1
		c-0.1,0-0.3,0-0.4,0c-1.8,0-3.3,1.5-3.3,3.3c0,0.9,0.3,1.6,0.9,2.2h-1.2c-12.3-20.5-31.3-21.8-40.9-20.9c3-3.8,9.2-5.1,10.3-5.3
		c1.1,0,11.2,0.6,21.9,7.9C131.6,145.2,130.8,146.3,130.8,147.6z M148.8,162.9h-1.4c0.3-0.3,0.5-0.7,0.7-1.2
		C148.4,162.1,148.6,162.5,148.8,162.9z M117.8,154.1c0,1.8,1.5,3.3,3.3,3.3c1.8,0,3.3-1.5,3.3-3.3c0-0.3-0.1-0.7-0.2-1
		c3.5,2.3,6.9,5.4,10,9.7h-8.7c-8.8-8.5-18.3-12.7-28.2-12.4c-2.2,0.1-4.3,0.3-6.4,0.8c1.7-1.1,3.6-1.9,5.6-2.6
		c0.9-0.2,12-3.1,23.6,2.3C118.8,151.3,117.8,152.6,117.8,154.1z M164.6,120.8c0.7,2.1,0.8,4.4,0.3,6.6l-11.8,11.8
		c-1.3-1.3-2.5-2.5-3.6-3.6L164.6,120.8z M167.2,113.8l-0.2-0.2c-0.1-0.1-0.2-0.2-0.4-0.4c-1.9-1.3-4-2.2-6.2-2.5
		c3.4-2.1,6.8-3.2,9.3-3c0.3,0.1,0.6,0.1,1,0c0.7,0.1,1.3,0.4,1.8,0.9c1.7,1.8,1.3,6.4-1.8,11.6c-0.5-2.2-1.5-4.2-3-5.9v-0.3
		L167.2,113.8z M141.1,128.8l11-10.9c1.8-0.6,5.2-1.4,8-1l-15.1,14.9C143.8,130.8,142.5,129.8,141.1,128.8z M221.1,157.4
		c-3.5,1.5-6.2,3.3-8,5.5h-13.5c1.7-0.9,3.5-1.6,5.4-2.3C210.2,158.8,215.6,157.7,221.1,157.4z M242.1,159.9l0.5,0
		c1.7,0.5,3.2,1.5,4.3,2.9l0,0h-23.5c3.9-1.6,9.2-2.8,15.4-3.3C239.9,159.6,241,159.7,242.1,159.9z M193.9,151.9
		c0,1.8,1.5,3.3,3.3,3.3c0,0,0,0,0,0c0.9,0,1.7-0.3,2.3-1c0.6-0.6,1-1.5,1-2.4c0-1.8-1.5-3.3-3.3-3.3h0c-0.3,0-0.7,0-1,0.1
		c7.8-4.1,18.6-7.1,33.4-6.4l0,0l0.2,0c2.5-0.1,4.9,0.8,6.6,2.5c1.9,2.3,3.2,5.2,3.6,8.2c-28.7-6.7-47.5,6.4-51.8,9.7h-7.8
		c2.5-3.8,7-9.2,14.6-13.5C194.4,150,193.9,150.9,193.9,151.9z M204.9,136.7c0-0.7-0.3-1.4-0.7-2c3.7-0.9,7.6-1.6,11.8-1.8
		c5.1-0.3,7.8,1.5,9.2,3.4c-8.6,0-15.9,1.3-22.1,3.3C204.2,139.1,204.9,138,204.9,136.7z M201.6,140.1c0.2,0,0.3,0,0.5,0
		c-13.5,4.6-21.4,12.7-25.5,18.2c-0.1-1.7-1.5-3.1-3.3-3.1c-1.8,0-3.3,1.5-3.3,3.3c0,1.8,1.5,3.3,3.3,3.3c0.4,0,0.7-0.1,1.1-0.2
		c-0.3,0.5-0.5,0.9-0.7,1.3h-5.8c-0.3-0.9-0.6-1.6-0.9-2.3c2.9-4.2,13.4-17.4,31.3-24c0,0,0,0.1,0,0.1
		C198.3,138.6,199.8,140.1,201.6,140.1z M177.6,140.1c1.8,0,3.3-1.5,3.3-3.3c0-1.3-0.8-2.5-1.9-3c5.1-2.6,10.9-3.5,16.5-2.5
		c-12.4,4.8-23.2,12.8-31.5,23.3c-1.1-2-2.2-3.9-3.4-5.7c2.8-2.9,8.3-8.3,13.7-12.2c0,0,0,0,0,0.1
		C174.3,138.6,175.8,140.1,177.6,140.1z M129.8,129.1c-1.8,0-3.3,1.5-3.3,3.3c0,1.8,1.5,3.3,3.3,3.3c1.8,0,3.3-1.5,3.3-3.3
		c0-1.1-0.6-2.1-1.4-2.7c13.1,7.6,23.6,19.4,29.8,33.3h-5.9c-11.2-23.2-30.3-29.7-39.9-31.5c1.4-1.5,3.2-2.6,5.1-3.2
		c3.4-1.1,7.1-0.7,10.2,1c0.2,0.1,0.4,0.2,0.6,0.3C131,129.3,130.4,129.1,129.8,129.1z M175.8,103.7l50.8-54.6l5,4.5L177.9,106
		c-0.3-0.5-0.7-0.9-1.1-1.3C176.5,104.3,176.1,104,175.8,103.7z M205.1,179.6h29.7c-10.2,12.7-25.9,20.2-42.2,20.2c0,0-0.1,0-0.1,0
		h-62.7c0,0-0.1,0-0.1,0c-16.4,0-32-7.5-42.3-20.2h9.5c6.6,6.9,14.9,11.9,24,14.6l0.2,0c0.2,0,0.4,0,0.6,0c1.6,0.1,3-1,3.2-2.6
		c0.2-1.6-0.9-3.1-2.5-3.4c-6.1-1.8-11.9-4.8-16.8-8.8H182c1.6,0,3-1.3,3-3c0-1.6-1.3-3-3-3H71.1c-3.7,0-7.2-1.7-9.4-4.6h198.7
		c-2.3,2.9-5.7,4.7-9.5,4.7h-45.8c-1.6,0-3,1.3-3,3C202.1,178.3,203.5,179.6,205.1,179.6z"/>
	<path class="st0" d="M143.2,188.3h-13.4c-1.6,0-3,1.3-3,3s1.3,3,3,3h13.4c1.6,0,3-1.3,3-3S144.8,188.3,143.2,188.3z"/>
</g>
</svg>
