<?xml version="1.0" encoding="utf-8"?>
<!-- Generator: Adobe Illustrator 22.1.0, SVG Export Plug-In . SVG Version: 6.00 Build 0)  -->
<svg version="1.1" id="Warstwa_1" xmlns="http://www.w3.org/2000/svg" xmlns:xlink="http://www.w3.org/1999/xlink" x="0px" y="0px"
	 viewBox="0 0 329 239" style="enable-background:new 0 0 329 239;" xml:space="preserve">
<style type="text/css">
	.st0{fill:#FFFFFF;}
</style>
<path class="st0" d="M206.8,146.2H138c-3.3,0-6-2.2-6.7-5.4c-0.7-3.2,0.8-6.3,3.7-7.8l77.9-37.8c2.5-1.2,5.4-1.9,8.2-1.9H291
	c3.3,0,6,2.2,6.7,5.4c0.7,3.2-0.8,6.3-3.7,7.8l-76.9,37.3C213.9,145.4,210.4,146.2,206.8,146.2z M221.2,99.3c-1.9,0-3.9,0.4-5.6,1.3
	l-77.9,37.8c-0.4,0.2-0.6,0.6-0.5,1.1c0.1,0.5,0.4,0.7,0.9,0.7h68.8c2.6,0,5.3-0.6,7.7-1.8l76.9-37.3c0.4-0.2,0.6-0.6,0.5-1.1
	c-0.1-0.5-0.4-0.7-0.9-0.7H221.2z"/>
<polygon class="st0" points="215.2,184 163,182 141.3,144.7 146.4,141.7 166.5,176.1 213.8,178 271.8,145.6 290,102.6 295.5,105 
	276.5,149.8 "/>
<g>
	<path class="st0" d="M46,156.6l-4.9,4.9c-0.4,0.4-0.7,1-0.7,1.7c0,1.3,1.1,2.3,2.3,2.3c0.6,0,1.2-0.2,1.6-0.6l4.9-5
		c0.7-0.9,0.7-2.1,0-3C48.4,155.9,46.9,155.8,46,156.6z"/>
	<path class="st0" d="M55,149.6c-0.9-0.4-1.9-0.2-2.5,0.5c-0.4,0.4-0.7,1-0.7,1.6c0,0.3,0.1,0.6,0.2,0.9c0.1,0.3,0.3,0.5,0.6,0.7
		c0.4,0.4,1,0.7,1.6,0.7c0,0,0,0,0,0h0.1c0,0,0,0,0,0c0.6,0,1.2-0.3,1.6-0.7c0.2-0.2,0.4-0.5,0.5-0.7c0.1-0.3,0.2-0.6,0.2-0.9
		c0-0.6-0.2-1.2-0.7-1.6C55.5,149.9,55.3,149.8,55,149.6z"/>
	<path class="st0" d="M166.6,44C166.6,44,166.6,44,166.6,44c-5-5-13.1-5-18,0L127,65.6c-0.4,0.2-0.7,0.5-0.9,1l-43.7,43.9
		c-1.9-0.1-3.8,0.5-5.3,1.9l-42.7,42.6c-0.3,0.3-0.5,0.5-0.8,0.8c-4.1,4.9-3.4,12.3,1.6,16.3c2,1.7,4.6,2.6,7.2,2.6
		c3.2,0,6.4-1.3,8.7-3.6L87,135.3l1.6,1.7c2.7,2.7,7.1,2.7,9.8,0l3.4-3.3c0,0,0,0,0,0c1.8-1.8,1.8-4.7,0-6.6L166.6,62c0,0,0,0,0,0
		C171.5,57,171.5,48.9,166.6,44z M126.8,72.2c0.4,0.9,1,1.7,1.7,2.4c1.8,1.8,4.4,2.8,7,2.7c1.4,0,2.7,0.6,3.6,1.6
		c0.8,0.8,1.2,1.8,1.3,2.9l-42,42.1L87,112.4c0,0-0.1-0.1-0.1-0.1L126.8,72.2z M98.4,130.5l-3.2,3.3c-0.9,0.9-2.4,0.9-3.3,0
		l-3.3-3.3c-0.4-0.4-1-0.7-1.6-0.7c-0.6,0-1.2,0.2-1.6,0.7l-37.5,37.3c-2.5,2.7-6.7,3.1-9.6,0.9c-0.2-0.1-0.3-0.3-0.5-0.5
		c-2.7-2.7-2.7-7.1,0-9.8l42.7-42.7c0.4-0.4,1-0.7,1.6-0.7c0.6,0,1.1,0.3,1.5,0.7L98.4,130.5L98.4,130.5l1.6,1.6L98.4,130.5z
		 M163.3,58.8l-19,19.1c-1.6-3.3-5-5.5-8.9-5.2c-1.3,0-2.6-0.4-3.6-1.4c-0.7-0.8-1.2-1.7-1.3-2.7l21.2-21.3c3.2-3.1,8.4-3.1,11.6,0
		c0,0,0.1,0.1,0.1,0.1C166.6,50.5,166.5,55.6,163.3,58.8z"/>
	<path class="st0" d="M118.2,93c0.6,0,1.2-0.3,1.6-0.7l8.2-8.2c0.7-0.9,0.7-2.1,0-3c-0.8-1-2.3-1.1-3.3-0.3l-8.2,8.2
		c-0.4,0.4-0.7,1-0.7,1.7C115.8,92,116.9,93,118.2,93z"/>
	<path class="st0" d="M110,101.2c0.6,0,1.2-0.3,1.6-0.7l1.6-1.6c0.7-0.9,0.7-2.1,0-3c-0.8-1-2.3-1.1-3.3-0.3l-1.6,1.6
		c-0.4,0.4-0.7,1-0.7,1.7C107.6,100.2,108.7,101.2,110,101.2z"/>
</g>
</svg>
