<?xml version="1.0" encoding="utf-8"?>
<!-- Generator: Adobe Illustrator 22.1.0, SVG Export Plug-In . SVG Version: 6.00 Build 0)  -->
<svg version="1.1" id="Warstwa_1" xmlns="http://www.w3.org/2000/svg" xmlns:xlink="http://www.w3.org/1999/xlink" x="0px" y="0px"
	 viewBox="0 0 329 239" style="enable-background:new 0 0 329 239;" xml:space="preserve">
<style type="text/css">
	.st0{fill:#FFFFFF;}
</style>
<g>
	<path class="st0" d="M158.5,35.6H81.6c-1.5,0-2.7,1.2-2.7,2.7v164.9c0,1.5,1.2,2.7,2.7,2.7h76.9c1.5,0,2.7-1.2,2.7-2.7V38.4
		C161.3,36.9,160,35.6,158.5,35.6z M155.8,200.5H84.3V74.1h71.4V200.5z M155.8,68.6H84.3V52.1H109v8.2c0,1.5,1.2,2.7,2.7,2.7h16.5
		c1.5,0,2.7-1.2,2.7-2.7v-8.2h24.7V68.6z M114.5,57.6v-5.5h11v5.5H114.5z M155.8,46.6H84.3v-5.5h71.4V46.6z"/>
	<path class="st0" d="M129.8,147.8c4.1-3,6.8-7.8,6.8-13.3c0-9.1-7.4-16.5-16.5-16.5s-16.5,7.4-16.5,16.5c0,5.5,2.7,10.3,6.8,13.3
		c-7.3,3.6-12.3,11.1-12.3,19.7c0,12.1,9.9,22,22,22c12.1,0,22-9.9,22-22C142,158.9,137,151.4,129.8,147.8z M109,134.5
		c0-6.1,4.9-11,11-11c6.1,0,11,4.9,11,11s-4.9,11-11,11C114,145.5,109,140.6,109,134.5z M120,184c-9.1,0-16.5-7.4-16.5-16.5
		c0-9.1,7.4-16.5,16.5-16.5s16.5,7.4,16.5,16.5C136.5,176.6,129.1,184,120,184z"/>
	<path class="st0" d="M201,99.3c-4.1,3-6.8,7.8-6.8,13.3c0,9.1,7.4,16.5,16.5,16.5c9.1,0,16.5-7.4,16.5-16.5
		c0-5.5-2.7-10.3-6.8-13.3c7.3-3.6,12.3-11.1,12.3-19.7c0-12.1-9.9-22-22-22c-12.1,0-22,9.9-22,22C188.7,88.2,193.7,95.7,201,99.3z
		 M221.7,112.6c0,6.1-4.9,11-11,11c-6.1,0-11-4.9-11-11c0-6.1,4.9-11,11-11C216.8,101.6,221.7,106.5,221.7,112.6z M210.7,63.1
		c9.1,0,16.5,7.4,16.5,16.5s-7.4,16.5-16.5,16.5c-9.1,0-16.5-7.4-16.5-16.5S201.6,63.1,210.7,63.1z"/>
	<path class="st0" d="M92.6,96.1h55c1.5,0,2.7-1.2,2.7-2.7v-11c0-1.5-1.2-2.7-2.7-2.7h-55c-1.5,0-2.7,1.2-2.7,2.7v11
		C89.8,94.9,91,96.1,92.6,96.1z M95.3,85.1h49.5v5.5H95.3V85.1z"/>
	<path class="st0" d="M248.5,36.6c-0.5-0.6-1.3-0.9-2.1-0.9H175c-0.8,0-1.5,0.3-2.1,0.9c-0.5,0.6-0.8,1.4-0.7,2.2l16.5,137.2v27.3
		c0,1.5,1.2,2.7,2.7,2.7h38.5c1.5,0,2.7-1.2,2.7-2.7v-27.3l16.5-137.2C249.3,37.9,249,37.1,248.5,36.6z M227.2,200.5h-33V195h33
		V200.5z M227.2,189.5h-13.7V184H208v5.5h-13.7v-11h33V189.5z M227.5,173h-33.6L179.4,52.1H242L227.5,173z M242.7,46.6h-63.9
		l-0.7-5.5h65.2L242.7,46.6z"/>
	<path class="st0" d="M219,151h-16.5c-1.5,0-2.7,1.2-2.7,2.7v11c0,1.5,1.2,2.7,2.7,2.7H219c1.5,0,2.7-1.2,2.7-2.7v-11
		C221.7,152.3,220.5,151,219,151z M216.2,162h-11v-5.5h11V162z"/>
	<path class="st0" d="M216.2,79.6h5.5c0-6.1-4.9-11-11-11v5.5C213.7,74.1,216.2,76.6,216.2,79.6z"/>
	<path class="st0" d="M114.5,167.5H109c0,6.1,4.9,11,11,11V173C117,173,114.5,170.6,114.5,167.5z"/>
</g>
</svg>
