<?xml version="1.0" encoding="utf-8"?>
<!-- Generator: Adobe Illustrator 22.1.0, SVG Export Plug-In . SVG Version: 6.00 Build 0)  -->
<svg version="1.1" id="Warstwa_1" xmlns="http://www.w3.org/2000/svg" xmlns:xlink="http://www.w3.org/1999/xlink" x="0px" y="0px"
	 viewBox="0 0 329 239" style="enable-background:new 0 0 329 239;" xml:space="preserve">
<style type="text/css">
	.st0{fill:#FFFFFF;}
</style>
<g>
	<path class="st0" d="M114.6,162h99.9V87.9h-99.9V162z M120,93.6h88.5v62.8H120V93.6z"/>
	<path class="st0" d="M235.6,126.9c-0.1-3.3-0.1-5.7-0.1-6.9c0-10-2.6-67.3-2.8-73.8c-0.2-4.6-0.4-8.5-3.2-11
		c-2-1.8-4.9-2.5-9.6-2.2c-7.6,0.5-21.2,2.2-33.1,3.8c-4,0.5-7.8,1-11.2,1.4c0,0-0.1,0-0.1,0c-4.8,0.6-8.5,1-9.8,1h-1.5
		c-2.2,0-11.4-1.2-21.1-2.4c-11.9-1.5-25.3-3.3-33-3.8c-3.5-0.2-7.2-0.1-9.7,2.1c-2.4,2.1-3,5.3-3.1,9.5c-0.1,2.6-2.9,64.9-2.9,75.3
		c0,1.2,0,3.6-0.1,6.9c-0.3,16.8-0.9,51.7,1.3,67c1.3,9.2,5.1,13,13.1,13c0.7,0,1.4,0,2.1-0.1c6-0.4,15.2-1.5,24.4-2.7
		c0,0,0,0,0.1,0c2.7-0.3,5.3-0.7,7.9-1c9.7-1.2,18.8-2.4,21.1-2.4h1.5c2.2,0,11.4,1.2,21.1,2.4c11.2,1.4,23.9,3.1,31.7,3.7
		c10.1,0.8,14.3-2.7,15.8-12.9C236.6,178.5,235.9,143.6,235.6,126.9z M228.5,193c-1,7.2-2.6,8.4-9.5,7.9c-7.7-0.6-20.3-2.2-31.4-3.6
		c-11.9-1.5-19.3-2.5-21.8-2.5h-1.5c-0.6,0-1.4,0.1-2.5,0.1c2.2-0.9,4.2-1.8,6-2.6c3.6-1.5,7.3-3.1,8.3-3.3c1.6,0,2.9-1.3,2.9-2.9
		c0-1.6-1.3-2.9-2.9-2.9c-1.8,0-4.4,1.1-10.6,3.8c-7.4,3.2-18.5,8-31.1,11.3c-9.1,1.2-18.1,2.2-23.9,2.7c-6.3,0.5-7.9-1-8.9-7.9
		c-2.2-14.9-1.5-50.7-1.2-66.1c0.1-3.4,0.1-5.8,0.1-7c0-10.3,2.8-72.4,2.9-75.1c0.1-1.9,0.3-4.6,1.2-5.4c0.5-0.5,1.7-0.7,3.5-0.7
		c0.6,0,1.2,0,1.9,0.1c7.5,0.5,20.8,2.2,32.6,3.7c5.8,0.8,10.6,1.4,14.2,1.8c-5.2,2-9.8,4.1-13.4,5.7c-3.4,1.5-6.9,3.1-7.9,3.2
		c-1.6,0-2.9,1.3-2.9,2.9c0,1.6,1.3,2.9,2.9,2.9c1.8,0,4.3-1.1,10.3-3.7c7.3-3.2,18.2-8.1,30.9-11.5c3.1-0.4,6.8-0.9,11-1.4
		c11.9-1.5,25.3-3.3,32.8-3.7c3.5-0.2,4.8,0.2,5.3,0.7c0.9,0.8,1.1,3.9,1.2,6.9c1.1,23.5,2.8,65.5,2.8,73.5c0,1.3,0,3.7,0.1,7
		C230,142.3,230.7,178.2,228.5,193z"/>
</g>
</svg>
