<?xml version="1.0" encoding="utf-8"?>
<!-- Generator: Adobe Illustrator 22.1.0, SVG Export Plug-In . SVG Version: 6.00 Build 0)  -->
<svg version="1.1" id="Warstwa_1" xmlns="http://www.w3.org/2000/svg" xmlns:xlink="http://www.w3.org/1999/xlink" x="0px" y="0px"
	 viewBox="0 0 329 239" style="enable-background:new 0 0 329 239;" xml:space="preserve">
<style type="text/css">
	.st0{fill:#FFFFFF;}
</style>
<g>
	<path class="st0" d="M201.6,86.6h-10.1V73.1c0-3.7-3-6.7-6.7-6.7h-10.1V42.8h37.1c1.9,0,3.4-1.5,3.4-3.4c0-11.2-9.1-20.2-20.2-20.2
		h-47.2c-5.6,0-10.1,4.5-10.1,10.1v3.4c0,5.6,4.5,10.1,10.1,10.1h6.7v23.6h-10.1c-3.7,0-6.7,3-6.7,6.7v13.5h-10.1
		c-14.9,0-26.9,12.1-27,27v97.7c0,5.6,4.5,10.1,10.1,10.1h107.9c5.6,0,10.1-4.5,10.1-10.1v-97.7C228.5,98.7,216.5,86.6,201.6,86.6
		L201.6,86.6z M144.3,32.7v-3.4c0-1.9,1.5-3.4,3.4-3.4h47.2c6.1,0,11.5,4.2,13.1,10.1h-60.2C145.8,36.1,144.3,34.6,144.3,32.7
		L144.3,32.7z M161.1,42.8h6.7v23.6h-6.7V42.8z M144.3,73.1h40.4v13.5h-40.4V73.1z M218.4,214.7H110.6c-1.9,0-3.4-1.5-3.4-3.4v-73.9
		c2.5,0.4,5,1.3,7.1,2.7c4.1,2.6,8.9,3.9,13.8,3.8c1,0,1.8-0.1,2.7-0.1v30.5c0,0.8,0.1,18.6,11.7,26.3c1.4,1.1,6.2,4,19.2,4
		c16.4,0,21.7-2.8,28.4-7.3c6.1-4.1,8.5-10.4,10.9-16.5l0.2-0.6c2.8-7.1,5.9-14.1,9.4-20.8c2-3.6,1.3-8-1.6-10.8
		c-1.8-1.7-4.2-2.7-6.7-2.7c-2.5,0-4.8,1-6.5,2.8c-1.5,1.5-2.9,3.2-4.2,4.9v-14.1c2.9-1.6,6.1-2.4,9.4-2.3c3.7-0.1,7.4,0.9,10.5,2.9
		c3.2,1.9,6.7,3.2,10.4,3.6v67.6C221.8,213.2,220.3,214.7,218.4,214.7L218.4,214.7z M147.6,167.5c1.9,0,3.4-1.5,3.4-3.4v-43.8
		c0-0.9,0.4-1.8,1-2.4c0.6-0.6,1.5-1,2.3-1c1.9,0,3.4,1.5,3.4,3.4v37.1c0,1.9,1.5,3.4,3.4,3.4c1.9,0,3.4-1.5,3.4-3.4v-43.8
		c0-0.9,0.4-1.8,1-2.4c0.6-0.6,1.5-1,2.3-1c1.9,0,3.4,1.5,3.4,3.4V154c0,1.9,1.5,3.4,3.4,3.4c1.9,0,3.4-1.5,3.4-3.4v-23.6
		c0-0.9,0.4-1.8,1-2.4c0.6-0.6,1.5-1,2.3-1c1.9,0,3.4,1.5,3.4,3.4v33.7c0,1.5,1,2.8,2.4,3.2c1.4,0.4,3-0.2,3.8-1.4
		c2.9-4.5,6.1-8.7,9.6-12.6c0.5-0.5,1.1-0.7,1.7-0.7c1.4,0,2.6,1,2.6,2.5c0,0.4-0.1,0.8-0.3,1.1c-3.7,7-6.9,14.2-9.8,21.6l-0.2,0.6
		c-2.2,5.6-4.1,10.4-8.4,13.4c-5.1,3.4-9.1,6.2-24.6,6.2c-11.3,0-14.8-2.4-14.8-2.4c-0.2-0.2-0.3-0.3-0.5-0.4
		c-8.6-5.6-8.8-20.6-8.8-20.8v-37.1c0-0.9,0.4-1.8,1-2.4c0.6-0.6,1.5-1,2.3-1c1.9,0,3.4,1.5,3.4,3.4v27
		C144.3,166,145.8,167.5,147.6,167.5L147.6,167.5z M221.8,137c-2.5-0.4-5-1.3-7.1-2.7c-7-4.2-15.5-5-23.2-2.2v-1.6
		c0-3.3-1.6-6.4-4.3-8.2c-2.7-1.9-6.1-2.4-9.2-1.3v-7.3c0-5.6-4.5-10.1-10.1-10.1c-4.6,0-8.5,3.1-9.8,7.4c-3.7-1.4-8-0.5-10.8,2.2
		c-1.9,1.9-3,4.5-3,7.2v7.3c-3.7-1.2-7.7-0.3-10.5,2.4c-1.9,1.8-3,4.4-3,7c-0.9,0.1-1.8,0.1-2.7,0.1c-3.7,0.1-7.4-0.9-10.5-2.9
		c-3.2-1.9-6.7-3.2-10.4-3.6v-17c0-11.2,9.1-20.2,20.2-20.2h74.2c11.2,0,20.2,9.1,20.2,20.2V137z M221.8,137"/>
</g>
</svg>
