<?xml version="1.0" encoding="utf-8"?>
<!-- Generator: Adobe Illustrator 22.1.0, SVG Export Plug-In . SVG Version: 6.00 Build 0)  -->
<svg version="1.1" id="Warstwa_1" xmlns="http://www.w3.org/2000/svg" xmlns:xlink="http://www.w3.org/1999/xlink" x="0px" y="0px"
	 viewBox="0 0 329 239" style="enable-background:new 0 0 329 239;" xml:space="preserve">
<style type="text/css">
	.st0{fill:#FFFFFF;}
</style>
<g>
	<path class="st0" d="M129.9,176c4,3.9,9.4,6.1,15,6.1h0.2c11.8-0.1,21.3-9.8,21.2-21.6c-0.1-5.7-2.4-11.1-6.4-15l-13-12.8
		c-4-3.9-9.4-6.1-15-6.1h-0.2c-5.7,0-11.1,2.3-15,6.4c-8.2,8.4-8.1,21.9,0.3,30.2L129.9,176z M131.7,133L131.7,133l0.1,0
		c3.9,0,7.7,1.5,10.5,4.3l13,12.7c4.3,4.2,5.7,10.6,3.5,16.2c-3.5-8.4-11.1-14.4-20.1-16c-6.9-1.1-12.7-5.8-15.3-12.2l-0.8-1.9
		C125.2,134.1,128.4,133,131.7,133z M118.2,141.8L118.2,141.8c3.7,7.8,11,13.3,19.5,14.8c7.7,1.3,13.9,6.9,16.1,14.4l0.4,1.5
		c-2.6,2.1-5.9,3.3-9.3,3.4h-0.1c-3.9,0-7.7-1.5-10.5-4.3l-13-12.7C116.8,154.3,115.6,147.5,118.2,141.8z"/>
	<rect x="175.7" y="98.7" class="st0" width="6.3" height="6.3"/>
	<rect x="163" y="98.7" class="st0" width="6.3" height="6.3"/>
	<rect x="150.4" y="98.7" class="st0" width="6.3" height="6.3"/>
	<path class="st0" d="M238.3,111.6l-11.2-65.7c4.1-5.6,2.8-13.5-2.8-17.6c-2.2-1.6-4.8-2.4-7.5-2.4H106.1c-1.7,0-3.2,1.4-3.2,3.2
		v12.4L90.3,114c0,0.2,0,0.4,0,0.5l-0.4,79.5c0.3,12,10.1,21.7,22.2,21.7h123.8c0.4,0,0.9-0.1,1.3-0.3c0.1,0,0.2-0.1,0.2-0.2
		c0.3-0.2,0.6-0.4,0.8-0.6c0,0,0.1,0,0.1-0.1c0.1-0.1,0.1-0.2,0.2-0.4c0.1-0.2,0.2-0.4,0.3-0.6c0.1-0.2,0.1-0.4,0.1-0.7
		c0-0.1,0.1-0.3,0.1-0.4V117C239,115.2,238.8,113.4,238.3,111.6z M216.8,32.2c3.5,0,6.3,2.8,6.3,6.3c0,3.5-2.8,6.3-6.3,6.3
		c-3.5,0-6.3-2.8-6.3-6.3C210.5,35.1,213.3,32.2,216.8,32.2z M166.2,32.2h39.7c-1.1,1.9-1.7,4.1-1.8,6.3h-38V32.2z M147.2,32.2h12.7
		v6.3h-12.7V32.2z M147.2,44.9h12.7v20.9l-5.3-1.8c-0.7-0.2-1.4-0.2-2,0l-5.3,1.8V44.9z M109.2,32.2h31.7v6.3h-31.7V32.2z
		 M188.4,209.5H112c-7.5,0-14-5.3-15.5-12.7h91.8V209.5z M188.4,190.5H96.2l0.3-72.8h91.8V190.5z M97.2,111.4l11.6-66.5h32.2v25.3
		c0,1.7,1.4,3.2,3.2,3.2c0.3,0,0.7-0.1,1-0.2l8.5-2.8l8.5,2.8c0.3,0.1,0.7,0.2,1,0.2c1.7,0,3.2-1.4,3.2-3.2V44.9h34.2l-11.6,66.5
		H97.2z M194.7,114.8l12-68.8c1,1.4,2.4,2.6,3.9,3.5v142.7l-15.8,13.6V114.8z M200.1,209.5l13.6-11.7l13.6,11.7H200.1z M232.7,205.8
		l-15.8-13.6v-141c1.6,0,3.1-0.3,4.6-0.9l10.7,62.6c0.3,1.3,0.5,2.6,0.5,4V205.8z"/>
</g>
</svg>
