<?xml version="1.0" encoding="utf-8"?>
<!-- Generator: Adobe Illustrator 22.1.0, SVG Export Plug-In . SVG Version: 6.00 Build 0)  -->
<svg version="1.1" id="Warstwa_1" xmlns="http://www.w3.org/2000/svg" xmlns:xlink="http://www.w3.org/1999/xlink" x="0px" y="0px"
	 viewBox="0 0 329 239" style="enable-background:new 0 0 329 239;" xml:space="preserve">
<style type="text/css">
	.st0{fill:#FFFFFF;}
</style>
<path class="st0" d="M285.6,133.1c-11.8-12.8-63.9-52.2-86.8-64.6c-22.1-12-34-14.4-35.2-14.6c-4-1.1-40.4-10.3-70.8,3.1
	C60.4,71,50.2,86,58.5,107c1.2,3,4.3,6.2,9.5,9.5c0.7,8.8,1.7,21.5,1.7,22.7l0,0.3c-0.1,4.5,1.4,10.7,14,18.8
	c14.7,9.4,143.1,42.7,157.9,44.4c1.1,0.1,2.3,0.2,3.4,0.2c16,0,26-13.4,26.4-14l0.5-0.7l0.1-0.9c1.1-10.2,2.4-22.2,2.8-26.5
	c0.4-0.1,0.8-0.3,1.1-0.5l0.1-0.1c7.9-3.9,12.9-9.1,13.9-14.6C290.8,141.4,289.3,137.1,285.6,133.1z M265.5,185.6
	c-2.5,3-11.1,11.8-23.1,10.4c-17.3-2-142.5-35.3-155.1-43.4c-11-7.1-10.9-11.3-10.9-13c0-0.1,0-0.3,0-0.4c0-1.4-0.8-11.7-1.4-18.7
	c16.4,8.4,44.7,17.7,86.4,28.7c1.3,0.4,2.5,0.6,3.3,0.9c4.6,1.2,10.4,2.5,16.6,3.9c12.4,2.7,27.9,6.1,31.9,9
	c6.5,4.7,16.6,10,23.4,11.1c2.6,0.4,5.4,0.9,8.1,0.9c4.3,0,7.8-1.1,10.7-3.5c2-1.6,3.8-3.1,5.4-4.6c1.7-1.5,3.7-3.3,4.5-3.6
	c0.4-0.2,1.4-0.4,2.5-0.7C267.5,167.4,266.5,176.8,265.5,185.6z M225.9,162.7c6,1.4,15.8,2.3,24.7,2.3c0.7,0,1.5,0,2.3,0
	c-0.5,0.4-1,0.8-1.5,1.2c-3.6,2.9-8.2,2.1-13.6,1.2C234.9,166.9,230.4,165.1,225.9,162.7z M283.4,144.5c-0.6,3.3-4.3,6.8-10.3,9.8
	l-0.2,0.1c-0.6,0.3-3,0.8-4.5,1.2c-2.9,0.6-4.8,1.1-6,1.7c-0.1,0-0.1,0.1-0.2,0.1c0,0,0,0,0,0c-2.7,1.4-24.2,1.5-35.7-1.3
	c-0.9-0.2-1.8-0.1-2.5,0.4c-0.8,0.5-1.3,1.2-1.5,2.1c-0.2,0.9-0.1,1.8,0.4,2.5c0,0.1,0.1,0.1,0.1,0.2c-2-1.2-4-2.4-5.8-3.7
	c-5.2-3.7-20-6.9-34.4-10.1c-6.1-1.3-11.9-2.6-16.3-3.8c-0.8-0.2-1.7-0.5-2.9-0.8l-0.5-0.1c-28.5-7.5-48.9-13.8-63.4-19.1
	c-0.2-0.9-0.9-1.7-1.7-2.1c1.4-2.4,9.8-9.7,37.3-13.3c18.4-2.4,29.8-0.9,38.1,0.1c9.4,1.2,16.2,2,25.1-3.5c8.1-5,13.1-9,13.3-9.2
	c1.3-1,1.5-2.9,0.5-4.2s-2.9-1.5-4.2-0.5c0,0-5,4-12.7,8.8c-7,4.4-12.1,3.8-21.2,2.6c-8.7-1.1-20.5-2.5-39.6-0.1
	c-27.5,3.5-40.9,11.5-42.6,18.3c-20.3-8-26-13.2-27.2-16.2C59.1,90.2,62.1,77.7,95.5,63c9.8-4.3,21.6-6.5,35-6.5
	c17.3,0,31.3,3.7,31.5,3.8l0.3,0.1c0.1,0,11.4,2.1,33.3,14c21.9,11.9,73.8,51.1,85,63.3C282.9,140.1,283.8,142.3,283.4,144.5z"/>
</svg>
