<?xml version="1.0" encoding="utf-8"?>
<!-- Generator: Adobe Illustrator 22.1.0, SVG Export Plug-In . SVG Version: 6.00 Build 0)  -->
<svg version="1.1" id="Warstwa_1" xmlns="http://www.w3.org/2000/svg" xmlns:xlink="http://www.w3.org/1999/xlink" x="0px" y="0px"
	 viewBox="0 0 329 239" style="enable-background:new 0 0 329 239;" xml:space="preserve">
<style type="text/css">
	.st0{fill:#FFFFFF;}
</style>
<g>
	<path class="st0" d="M220.6,70.5c1.8,0,3.2-1.4,3.2-3.2c0-1.8-1.4-3.2-3.2-3.2h-0.3V50.5c0-4.6-3.8-8.4-8.4-8.4h-94.8
		c-4.6,0-8.4,3.8-8.4,8.4v13.6h-0.3c-1.8,0-3.2,1.4-3.2,3.2c0,1.8,1.4,3.2,3.2,3.2h7.8v7.6l-3.9,2.2c-4,2.3-7.1,7.9-7.1,12.9V194
		c0,7.5,6.1,13.7,13.7,13.7h91.2c7.5,0,13.7-6.1,13.7-13.7V93.3c0-5-3.1-10.6-7.1-12.9l-3.9-2.2v-7.6H220.6z M217.4,194
		c0,4-3.3,7.3-7.3,7.3h-91.2c-4,0-7.3-3.3-7.3-7.3v-7.3h105.8V194z M217.4,180.3H111.6v-61.5h105.8V180.3z M213.5,85.9
		c2,1.2,3.9,4.7,3.9,7.4v19.2H111.6V93.3c0-2.7,1.9-6.2,3.9-7.4l5.5-3.1c1-0.6,1.6-1.6,1.6-2.8v-9.4h83.8V80c0,1.1,0.6,2.2,1.6,2.8
		L213.5,85.9z M115,64.2V50.5c0-1.1,0.9-2.1,2.1-2.1h12.6v6.2c0,1.8,1.4,3.2,3.2,3.2c1.8,0,3.2-1.4,3.2-3.2v-6.2h14.7v6.2
		c0,1.8,1.4,3.2,3.2,3.2c1.8,0,3.2-1.4,3.2-3.2v-6.2h14.7v6.2c0,1.8,1.4,3.2,3.2,3.2c1.8,0,3.2-1.4,3.2-3.2v-6.2h14.7v6.2
		c0,1.8,1.4,3.2,3.2,3.2c1.8,0,3.2-1.4,3.2-3.2v-6.2h12.6c1.1,0,2.1,0.9,2.1,2.1v13.6H115z M115,64.2"/>
	<path class="st0" d="M145.5,168.8h38c10.6,0,19.3-8.6,19.3-19.3c0-10.6-8.6-19.3-19.3-19.3h-38c-10.6,0-19.3,8.6-19.3,19.3
		C126.2,160.2,134.9,168.8,145.5,168.8L145.5,168.8z M167.7,136.6h15.8c7.1,0,12.9,5.8,12.9,12.9c0,7.1-5.8,12.9-12.9,12.9h-15.8
		V136.6z M145.5,136.6h15.8v25.8h-15.8c-7.1,0-12.9-5.8-12.9-12.9C132.6,142.4,138.4,136.6,145.5,136.6L145.5,136.6z M145.5,136.6"
		/>
	<path class="st0" d="M196.9,76.8h-39.3c-1.8,0-3.2,1.4-3.2,3.2c0,1.8,1.4,3.2,3.2,3.2h39.3c1.8,0,3.2-1.4,3.2-3.2
		C200,78.2,198.6,76.8,196.9,76.8L196.9,76.8z M196.9,76.8"/>
	<path class="st0" d="M144.9,76.8h-12.7c-1.8,0-3.2,1.4-3.2,3.2c0,1.8,1.4,3.2,3.2,3.2h12.7c1.8,0,3.2-1.4,3.2-3.2
		C148,78.2,146.6,76.8,144.9,76.8L144.9,76.8z M144.9,76.8"/>
</g>
</svg>
