<?xml version="1.0" encoding="utf-8"?>
<!-- Generator: Adobe Illustrator 22.1.0, SVG Export Plug-In . SVG Version: 6.00 Build 0)  -->
<svg version="1.1" id="Warstwa_1" xmlns="http://www.w3.org/2000/svg" xmlns:xlink="http://www.w3.org/1999/xlink" x="0px" y="0px"
	 viewBox="0 0 329 239" style="enable-background:new 0 0 329 239;" xml:space="preserve">
<style type="text/css">
	.st0{fill:#FFFFFF;}
</style>
<g>
	<path class="st0" d="M251.7,157.7c-0.5-0.8-1.3-1.4-2.3-1.4h-5.3c-0.7-3.5-2.9-6.7-6-8.6c-0.9-0.5-1.8-0.9-2.8-1.2
		c0.4-3.4-0.7-6.9-2.9-9.7c-2.9-3.5-7.3-5.2-11.9-4.6c-1.4,0.2-2.4,1.5-2.2,2.9c0.2,1.4,1.5,2.4,2.9,2.2c2.7-0.4,5.4,0.6,7.1,2.7
		c1.8,2.1,2.3,4.9,1.4,7.5c-0.3,0.8-0.2,1.6,0.3,2.3c0.4,0.7,1.2,1.1,2,1.2c1.2,0.1,2.4,0.5,3.4,1.1c1.6,0.9,2.7,2.4,3.3,4.1H114.1
		c0.5-1.3,1.3-2.5,2.4-3.4c1.6-1.3,3.6-1.9,5.7-1.7c0.9,0.1,1.8-0.3,2.3-1c0.5-0.7,0.7-1.6,0.4-2.5c-1.1-3-0.3-6.4,2.1-8.5
		c2.4-2.1,5.8-2.6,8.7-1.2c0.8,0.4,1.7,0.4,2.5-0.1c0.8-0.5,1.2-1.3,1.2-2.2c0-3.2,2-6,5-7.2c3-1.2,6.4-0.4,8.5,2
		c0.6,0.7,1.5,1,2.4,0.8c0.9-0.2,1.6-0.8,1.9-1.6c1.2-3,4-4.9,7.2-4.9c1.4,0,2.6-1.2,2.6-2.6c0-1.4-1.2-2.6-2.6-2.6
		c-4.2,0-8,2-10.4,5.2c-3.4-2.2-7.7-2.6-11.6-1.1c-3.9,1.5-6.8,4.7-7.9,8.6c-4-0.8-8.1,0.3-11.2,3.1c-3.1,2.8-4.6,6.8-4.3,10.8
		c-2.2,0.4-4.3,1.3-6,2.7c-2.3,1.9-3.9,4.5-4.5,7.4H90.3c0.5-1.3,1.3-2.5,2.4-3.4c1.2-1,2.7-1.6,4.4-1.7c0.8-0.1,1.5-0.5,2-1.2
		c0.4-0.7,0.5-1.5,0.3-2.3c-0.9-2.6-0.4-5.4,1.4-7.5c1.8-2.1,4.4-3.1,7.1-2.7c0.8,0.1,1.6-0.1,2.2-0.7c0.6-0.6,0.9-1.4,0.8-2.2
		c-0.3-2.7,0.8-5.4,3-7c2.2-1.7,5-2.1,7.5-1.1c0.8,0.3,1.6,0.2,2.3-0.2c0.7-0.4,1.1-1.1,1.2-1.9c0.3-2.7,2-5.1,4.4-6.2
		c2.5-1.2,5.3-1,7.6,0.6c0.7,0.4,1.5,0.5,2.3,0.3c0.8-0.3,1.4-0.9,1.6-1.6c0.9-2.6,3-4.5,5.7-5.1c2.7-0.6,5.4,0.2,7.3,2.2
		c0.6,0.6,1.4,0.9,2.2,0.8c0.8-0.1,1.5-0.5,1.9-1.2c1.4-2.3,3.9-3.7,6.7-3.7c2.7,0,5.2,1.4,6.7,3.7c0.4,0.7,1.1,1.1,1.9,1.2
		c0.8,0.1,1.6-0.2,2.2-0.8c1.9-2,4.6-2.8,7.3-2.2c2.7,0.6,4.8,2.5,5.7,5.1c0.3,0.8,0.9,1.4,1.6,1.6c0.8,0.3,1.6,0.2,2.3-0.3
		c2.3-1.5,5.1-1.7,7.6-0.6c2.5,1.2,4.1,3.5,4.4,6.2c0.1,0.8,0.5,1.5,1.2,1.9c0.7,0.4,1.5,0.5,2.3,0.2c2.6-1,5.4-0.6,7.6,1.1
		c1.1,0.9,2.8,0.7,3.6-0.5c0.9-1.1,0.7-2.8-0.5-3.6c-2.8-2.2-6.3-3.1-9.7-2.6c-1.1-3.3-3.5-6-6.7-7.5c-3.2-1.5-6.8-1.6-10.1-0.4
		c-1.8-2.9-4.7-5-8.2-5.8c-3.5-0.8-7-0.1-9.9,1.8c-2.4-2.5-5.7-3.9-9.3-3.9c-3.6,0-6.9,1.4-9.3,3.9c-2.9-1.9-6.4-2.6-9.9-1.8
		c-3.5,0.8-6.4,2.9-8.2,5.8c-3.2-1.2-6.8-1.1-10.1,0.4c-3.2,1.5-5.6,4.2-6.7,7.5c-3.4-0.5-6.9,0.4-9.7,2.6c-2.8,2.2-4.6,5.3-5,8.8
		c-3.4,0.3-6.6,1.9-8.9,4.7c-2.3,2.7-3.3,6.2-2.9,9.7c-1.6,0.5-3.1,1.3-4.4,2.3c-2.3,1.9-3.9,4.5-4.5,7.4h-5.3c-1,0-1.8,0.5-2.3,1.4
		c-0.5,0.8-0.4,1.9,0.1,2.7c5.1,8,13.1,13.3,22.2,15.1c2,7.2,6,13.7,11.6,18.8c1.1,1,2.7,0.9,3.7-0.2c1-1.1,0.9-2.7-0.2-3.7
		c-4.3-3.9-7.5-8.8-9.4-14.3h118.5c-4.8,13.8-17.8,23.2-32.7,23.2h-53.2c-5.4,0-10.8-1.3-15.6-3.7c-1.3-0.6-2.8-0.1-3.5,1.1
		c-0.6,1.3-0.1,2.8,1.1,3.5c5.5,2.8,11.7,4.3,17.9,4.3h53.2c18,0,33.5-11.9,38.3-29.1c9.1-1.8,17.1-7.1,22.2-15.1
		C252.1,159.5,252.1,158.5,251.7,157.7z M222.7,170.9H106.3c-8.2,0-15.9-3.4-21.4-9.4h159.3C238.7,167.5,231,170.9,222.7,170.9z"/>
	<path class="st0" d="M124.5,78.4c4.4,2.6,10.2,4.1,15.8,5.5c5.1,1.3,12.9,3.3,12.9,5.5c0,1.4,1.2,2.6,2.6,2.6s2.6-1.2,2.6-2.6
		c0-4.5-4.5-6.5-6-7.2c-2.9-1.3-6.7-2.3-10.7-3.3c-5.2-1.4-10.7-2.7-14.4-4.9c-3.7-2.2-5-4.5-4.2-7.9c1.4-6.3,17.3-7.6,31.3-8.8
		c9.2-0.8,18.6-1.5,25.9-3.6c9-2.6,13.6-7.2,13.6-13.6c0-1.4-1.2-2.6-2.6-2.6c-1.4,0-2.6,1.2-2.6,2.6c0,2.5-1,6.1-9.8,8.6
		c-6.7,2-15.9,2.7-24.8,3.5c-17.3,1.4-33.7,2.8-36,12.8C116.6,70.5,118.8,75,124.5,78.4z"/>
</g>
</svg>
