<?xml version="1.0" encoding="utf-8"?>
<!-- Generator: Adobe Illustrator 22.1.0, SVG Export Plug-In . SVG Version: 6.00 Build 0)  -->
<svg version="1.1" id="Warstwa_1" xmlns="http://www.w3.org/2000/svg" xmlns:xlink="http://www.w3.org/1999/xlink" x="0px" y="0px"
	 viewBox="0 0 329 239" style="enable-background:new 0 0 329 239;" xml:space="preserve">
<style type="text/css">
	.st0{fill:#FFFFFF;}
</style>
<g>
	<path class="st0" d="M244.5,49.2l-0.2,0c-8.6,0.1-19.7,0.6-29.5,3.6c-0.9,0.3-1.7,0.6-2.5,0.9c-9.9-4-24.8-5.8-47.8-5.8
		c-23,0-37.9,1.8-47.8,5.8c-0.8-0.3-1.7-0.6-2.5-0.9c-9.8-3-20.9-3.5-29.5-3.6l-0.2,0c-9.5,0-9.5,8.3-9.5,11v71.5c0,0,0,0,0,0.1
		c0,0.1,0,0.3,0,0.4c0,0,0,0.1,0,0.1c0,0.1,0,0.3,0.1,0.4c0,0,0,0,0,0c0,0.1,0.1,0.3,0.1,0.4c0,0,0,0.1,0.1,0.1c0,0,0,0.1,0.1,0.1
		c0.2,0.5,6,12.1,14.5,23.9c11.5,16,22.3,24.4,32.1,24.9c13.8,7.9,25.5,10.8,42.4,10.8c9.5,0,17.3-0.9,24.7-3.1
		c0.1,0,0.3-0.1,0.4-0.1c5.8-1.7,11.3-4.2,17.3-7.6c9.8-0.6,20.6-8.9,32.1-24.9c8.5-11.8,14.3-23.4,14.5-23.9c0,0,0-0.1,0.1-0.1
		c0,0,0-0.1,0.1-0.1c0-0.1,0.1-0.2,0.1-0.4c0,0,0,0,0,0c0-0.1,0.1-0.3,0.1-0.4c0,0,0-0.1,0-0.1c0-0.1,0-0.3,0-0.4c0,0,0,0,0-0.1
		V60.3C254,57.6,254,49.2,244.5,49.2L244.5,49.2z M82.5,60.3c0-2.8,0.5-3.3,0.5-3.3c0,0,0.3-0.2,1.6-0.2h0.1
		c8.1,0.1,18.5,0.5,27.4,3.3c1.1,0.4,2.2,0.7,3.3,1.2c0,0,0.1,0,0.1,0c7.4,3,11.9,7.5,13.6,13.7c2.5,9.3-1.1,18.2-10.9,27.3
		c-2.9,2.7-6.2,5.2-9.6,7.7c0,0,0,0-0.1,0c-7.4,5.2-15.7,9.8-23.4,14.1c-0.8,0.5-1.6,0.9-2.4,1.4V60.3z M83.7,133.2
		c1.6-0.9,3.2-1.8,4.8-2.7c6.2-3.5,13.1-7.3,19.7-11.6c1.1,3.8,2,7.1,2.9,10.1c3.9,13.1,6.1,20.7,7.9,45.1
		C105.6,169.8,90.4,145.9,83.7,133.2L83.7,133.2z M202.3,176.3c-3.6,2-7,3.6-10.3,4.9c0-6.7,0.5-14.2,0.8-18.6
		c0.2-2.1-1.4-3.8-3.4-4c-2.1-0.2-3.9,1.4-4,3.4c-0.4,5-1,14-0.8,21.5c-6,1.5-12.4,2.1-20.1,2.1c-15.4,0-25.5-2.5-37.8-9.3
		c-1.9-27.4-4.4-35.8-8.4-49.4c-1.1-3.6-2.3-7.6-3.6-12.4c14.8-10.8,26-24.2,21.4-41.5c0,0,0-0.1,0-0.1c5.2-0.7,12.7-1.3,19.6-1.5
		c2.1,0,3.7-1.8,3.6-3.8c0-2.1-1.8-3.7-3.8-3.6c-8.2,0.2-16.9,0.9-22.6,1.8c-1.8-2.8-4.1-5.2-6.9-7.2c8.9-2.2,21.4-3.2,38.4-3.2
		c17,0,29.6,1,38.4,3.2c-5.1,3.7-8.5,8.5-10.1,14.4c-4.6,17.3,6.6,30.7,21.4,41.5c-1.3,4.8-2.5,8.8-3.6,12.4
		C206.7,140.5,204.2,148.8,202.3,176.3L202.3,176.3z M233,152.9c-8.4,11.6-16.4,18.9-23.1,21.1c1.8-24.4,4-32,7.9-45.1
		c0.9-3,1.9-6.3,2.9-10.1c6.6,4.3,13.4,8.1,19.7,11.6c1.7,0.9,3.3,1.8,4.8,2.7C243,137.4,238.6,145.2,233,152.9L233,152.9z
		 M246.5,125.3c-0.8-0.4-1.6-0.9-2.4-1.4c-7.6-4.2-15.9-8.9-23.3-14c0,0-0.1,0-0.1-0.1c-3.5-2.4-6.8-5-9.7-7.7
		c-9.8-9.1-13.4-18-10.9-27.3c1.7-6.2,6.1-10.7,13.6-13.7c0,0,0.1,0,0.1,0c1-0.4,2.1-0.8,3.3-1.2c8.8-2.7,19.3-3.2,27.4-3.3h0.1
		c1.2,0,1.6,0.2,1.6,0.2c0,0,0.5,0.5,0.5,3.4V125.3z M246.5,125.3"/>
	<path class="st0" d="M106.9,92.6c6.2,0,11.2-5,11.2-11.2c0-6.2-5-11.2-11.2-11.2c-6.2,0-11.2,5-11.2,11.2
		C95.7,87.6,100.7,92.6,106.9,92.6L106.9,92.6z M106.9,77.7c2.1,0,3.7,1.7,3.7,3.7c0,2.1-1.7,3.7-3.7,3.7c-2.1,0-3.7-1.7-3.7-3.7
		C103.1,79.4,104.8,77.7,106.9,77.7L106.9,77.7z M106.9,77.7"/>
	<path class="st0" d="M222.3,70.2c-6.2,0-11.2,5-11.2,11.2c0,6.2,5,11.2,11.2,11.2c6.2,0,11.2-5,11.2-11.2
		C233.5,75.3,228.5,70.2,222.3,70.2L222.3,70.2z M222.3,85.2c-2.1,0-3.7-1.7-3.7-3.7c0-2.1,1.7-3.7,3.7-3.7c2.1,0,3.7,1.7,3.7,3.7
		C226.1,83.5,224.4,85.2,222.3,85.2L222.3,85.2z M222.3,85.2"/>
	<path class="st0" d="M166.8,64.1L166.8,64.1c-2.1-0.1-3.9,1.4-4,3.5c-0.1,2.1,1.4,3.8,3.5,4c0,0,0.1,0,0.1,0c0.1,0,0.1,0,0.2,0
		c1.9,0,3.6-1.5,3.7-3.5C170.4,66,168.8,64.2,166.8,64.1L166.8,64.1z M166.8,64.1"/>
	<path class="st0" d="M190.6,147.8c-2-0.3-3.9,1.2-4.2,3.2l0,0.4c-0.3,2,1.2,3.9,3.2,4.2c0.2,0,0.3,0,0.5,0c1.9,0,3.5-1.4,3.7-3.3
		l0-0.3C194.1,150,192.7,148.1,190.6,147.8L190.6,147.8z M190.6,147.8"/>
</g>
<path class="st0" d="M187.4,112.3c-1.3-0.8-3-1-4.5-0.6l-6.9,2.1l5.3-4.9c1.6-1.4,2.2-3.7,1.5-5.7c-0.6-2-2.4-3.5-4.5-3.8
	c-2.1-0.3-4.2,0.7-5.4,2.5l-3.9,6l0.9-7.1c0.2-1.6-0.3-3.1-1.3-4.3c-1.1-1.1-2.6-1.8-4.1-1.8c-1.6,0-3.1,0.6-4.1,1.8
	c-1,1.2-1.5,2.8-1.3,4.3l0.9,7.1l-3.9-6c-1.2-1.8-3.2-2.8-5.4-2.5c-2.1,0.3-3.9,1.8-4.5,3.8c-0.6,2,0,4.3,1.5,5.7l5.3,4.9l-6.9-2.1
	c-2-0.6-4.3,0-5.7,1.6c-1.4,1.6-1.8,3.8-1,5.8c0.8,2,2.7,3.3,4.8,3.4l7.2,0.4l-6.6,2.8c-2,0.8-3.3,2.7-3.4,4.8
	c-0.1,2.1,1.1,4.1,3,5.1c1.9,1,4.2,0.8,5.9-0.5l5.7-4.3l-3.3,6.4c-1,1.9-0.7,4.2,0.6,5.8c1.3,1.7,3.4,2.5,5.5,2
	c2.1-0.5,3.7-2.1,4.2-4.1l1.6-7l1.6,7c0.5,2.1,2.1,3.7,4.2,4.2c2.1,0.5,4.2-0.3,5.5-2c1.3-1.7,1.5-4,0.5-5.9l-3.3-6.4l5.7,4.3
	c1.7,1.3,4,1.5,5.9,0.5c1.9-1,3-3,2.9-5.1c-0.1-2.1-1.4-4-3.4-4.8l-6.6-2.8l7.2-0.4c2.4-0.1,4.5-1.8,5.1-4.1
	C190.5,116,189.5,113.6,187.4,112.3L187.4,112.3z M170.5,120.6c0,3.3-2.7,6-6,6c-3.3,0-6-2.7-6-6c0-3.3,2.7-6,6-6
	C167.8,114.6,170.5,117.3,170.5,120.6L170.5,120.6z M176.3,104.1c0.3-0.5,0.9-0.8,1.5-0.7c0.6,0.1,1.1,0.5,1.3,1.1
	c0.2,0.6,0,1.2-0.4,1.6l-7.6,7l-0.4-0.3L176.3,104.1z M163.3,99.2c0.4-0.5,1.2-0.7,1.8-0.4c0.6,0.3,1,0.9,0.9,1.6l-1.3,10.2h-0.5
	l-1.3-10.2C162.9,99.9,163.1,99.5,163.3,99.2L163.3,99.2z M149.9,104.9c0-0.8,0.7-1.5,1.5-1.5c0.1,0,0.2,0,0.2,0
	c0.4,0.1,0.8,0.3,1.1,0.7l5.6,8.7l-0.4,0.3l-7.6-7C150,105.8,149.9,105.4,149.9,104.9L149.9,104.9z M143.2,118
	c-0.3-0.3-0.4-0.8-0.3-1.2c0.1-0.4,0.3-0.8,0.7-1c0.2-0.1,0.5-0.2,0.8-0.2c0.2,0,0.3,0,0.4,0.1l9.9,3l-0.1,0.5l-10.3-0.5
	C143.9,118.5,143.5,118.3,143.2,118L143.2,118z M147.8,132c-0.3,0.3-0.8,0.4-1.2,0.3c-0.7-0.1-1.2-0.7-1.2-1.3
	c-0.1-0.7,0.3-1.3,0.9-1.6l9.5-4l0.2,0.4L147.8,132z M159,140.1c-0.1,0.6-0.6,1-1.2,1.2c-0.6,0.1-1.2-0.1-1.5-0.6
	c-0.4-0.5-0.4-1.1-0.1-1.6l4.7-9.2l0.4,0.2L159,140.1z M172.9,140.3c-0.2,0.6-0.9,1-1.5,1c-0.7,0-1.2-0.5-1.4-1.2l-2.3-10.1l0.4-0.2
	l4.7,9.2C173,139.4,173,139.9,172.9,140.3L172.9,140.3z M183.6,130.3c0.1,0.4,0.1,0.9-0.1,1.3c-0.2,0.4-0.6,0.7-1,0.7
	c-0.4,0.1-0.9,0-1.2-0.3l-8.2-6.2l0.2-0.4l9.5,4C183.1,129.5,183.4,129.9,183.6,130.3L183.6,130.3z M185.8,118
	c-0.3,0.3-0.7,0.6-1.1,0.6l-10.3,0.5l-0.1-0.5l9.9-3c0.4-0.1,0.9-0.1,1.2,0.2c0.4,0.2,0.6,0.6,0.7,1
	C186.1,117.2,186,117.6,185.8,118L185.8,118z M185.8,118"/>
</svg>
