<?xml version="1.0" encoding="utf-8"?>
<!-- Generator: Adobe Illustrator 24.0.2, SVG Export Plug-In . SVG Version: 6.00 Build 0)  -->
<svg version="1.1" id="Warstwa_1" xmlns="http://www.w3.org/2000/svg" xmlns:xlink="http://www.w3.org/1999/xlink" x="0px" y="0px"
	 viewBox="0 0 329 239" style="enable-background:new 0 0 329 239;" xml:space="preserve">
<style type="text/css">
	.st0{fill:#FFFFFF;}
</style>
<path class="st0" d="M296.8,63.9c-0.3-5-4.4-9-9.4-9h-11.4l0-1.5V37.6c0-11.8-9.3-21.8-20.8-22.2c-5.9-0.2-11.5,1.9-15.8,6
	c-4.3,4.1-6.6,9.7-6.6,15.6v18l-1.5,0h-6.5c-2.9,0-5.5,0.9-7.7,2.5c-3.1,2.2-5.2,5.8-5.4,9.9l-4.8,96.3l-0.4,7.8l-0.3,5.6l-0.6,11.8
	l-1.4,27.7c-0.1,1.9,0.6,3.6,1.8,5c1.3,1.3,3,2.1,4.9,2.1h86.9c1.9,0,3.6-0.8,4.9-2.1c1.3-1.4,1.9-3.1,1.9-5L296.8,63.9z M242,36.9
	c0-3.4,1.5-6.7,4-9c2.6-2.3,5.9-3.5,9.4-3.2c6.2,0.6,11.1,6.1,11.1,12.6v17.6l-1.5,0h-22.9l0-1.5V36.9z M294,214.3l-0.7,0h-78.7
	l-0.9-1l0-0.7l1.7-33.9l0.8-15.1l0.8-15.5l4.2-83.9l1.5,0h10l0,1.5v15.5h9.4v-17l1.5,0h22.9l0,1.5v15.5h9.4v-17l1.5,0h9.9l0.2,1.4
	l7.4,147.6L294,214.3z"/>
<path class="st0" d="M209.4,26.9H47.6c-13.2,0-23,6.2-23,14.3v161.4c0,8.1,10,14.3,23.1,14.3c13.2,0,23.2-6.1,23.2-14.3v-2.2H188
	c2.1,0,4.3-0.5,6.2-1.3c0.1,0,0.1-0.1,0.2-0.1c1.6-0.7,3-1.7,4.2-2.9c0,0,0,0,0,0l0.1-0.1c0,0,0.1-0.1,0.1-0.1l6.7-6.8l9.9-10.1
	l0.8-15.1h-13.7c-7.5,0-13.6,6.1-13.6,13.6v15.1c-0.3,0-0.5,0-0.8,0H70.9v-74.9c0-0.6-0.1-1.1-0.3-1.6c-0.6-1.3-2-2.3-3.6-2.3
	c-2.2,0-3.9,1.8-3.9,3.9v85c0,2.6-6.1,6.4-15.3,6.4c-9.2,0-15.3-3.9-15.3-6.4V52c4,2.1,9.3,3.4,15.3,3.4c6,0,11.3-1.3,15.3-3.4v34.3
	c0,0.6,0.1,1.1,0.3,1.6c0.6,1.4,2,2.3,3.6,2.3c2.2,0,3.9-1.8,3.9-3.9V41.1c0-2.3-0.8-4.5-2.3-6.4h140.8c4.2,0,7.6,3.4,7.6,7.6v106
	l4.2-83.9l1.5,0h2.2v-22C224.7,33.8,217.8,26.9,209.4,26.9z M196.7,177.3c0-3.2,2.6-5.8,5.8-5.8h9.1l-2.6,2.7l-2.8,2.9l-9.4,9.7
	V177.3z M63,41.2c-0.1,2.6-6.2,6.4-15.3,6.4c-9.2,0-15.3-3.9-15.3-6.4s6.1-6.4,15.3-6.4c5.1,0,9.3,1.2,12,2.7
	C61.8,38.6,63,40,63,41.2L63,41.2z"/>
<path class="st0" d="M123.9,59.8c-6.7-1.1-12-6.3-13.1-13.1c-0.2-1.3-1.4-2.3-2.7-2.3c-1.4,0-2.5,1-2.7,2.3
	c-1.1,6.7-6.4,12-13.1,13.1C91,60,90,61.2,90,62.5c0,1.3,1,2.5,2.3,2.7c6.7,1.1,12,6.4,13.1,13.1c0.2,1.3,1.4,2.3,2.7,2.3
	c1.4,0,2.5-1,2.7-2.3c1.1-6.7,6.3-12,13.1-13.1c1.3-0.2,2.3-1.4,2.3-2.7C126.2,61.2,125.2,60,123.9,59.8z M114.8,63.8
	c-2.2,1.5-4,3.3-5.5,5.5l-1.2,1.8l-1.3-1.8c-1.5-2.2-3.3-4-5.5-5.5l-1.8-1.3l1.8-1.2c2.2-1.5,4-3.3,5.5-5.5l1.3-1.8l1.2,1.8
	c1.5,2.2,3.3,4,5.5,5.5l1.8,1.2L114.8,63.8z"/>
<path class="st0" d="M123.9,110.9c-6.7-1.1-12-6.3-13.1-13.1c-0.2-1.3-1.4-2.3-2.7-2.3c-1.4,0-2.5,1-2.7,2.3
	c-1.1,6.7-6.4,12-13.1,13.1c-1.3,0.2-2.3,1.4-2.3,2.7c0,1.3,1,2.5,2.3,2.7c6.7,1.1,12,6.4,13.1,13.1c0.2,1.3,1.4,2.3,2.7,2.3
	c1.4,0,2.5-1,2.7-2.3c1.1-6.7,6.3-12,13.1-13.1c1.3-0.2,2.3-1.4,2.3-2.7C126.2,112.2,125.2,111.1,123.9,110.9z M114.8,114.8
	c-2.2,1.5-4,3.3-5.5,5.5l-1.2,1.8l-1.3-1.8c-1.5-2.2-3.3-4-5.5-5.5l-1.8-1.2l1.8-1.2c2.2-1.5,4-3.3,5.5-5.5l1.3-1.8l1.2,1.8
	c1.5,2.2,3.3,4,5.5,5.5l1.8,1.2L114.8,114.8z"/>
<path class="st0" d="M123.9,162c-3.4-0.6-6.4-2.1-8.6-4.4c-2.3-2.3-3.9-5.3-4.4-8.6c-0.2-1.3-1.4-2.3-2.7-2.3c-1.4,0-2.5,1-2.7,2.3
	c-1.1,6.7-6.4,12-13.1,13.1c-1.3,0.2-2.3,1.4-2.3,2.7c0,1.3,1,2.5,2.3,2.7c6.7,1.1,12,6.4,13.1,13.1c0.2,1.3,1.4,2.3,2.7,2.3
	c1.4,0,2.5-1,2.7-2.3c1.1-6.7,6.3-12,13.1-13.1c1.3-0.2,2.3-1.4,2.3-2.7C126.2,163.3,125.2,162.2,123.9,162z M114.8,165.9
	c-2.2,1.5-4,3.3-5.5,5.5l-1.2,1.8l-1.3-1.8c-1.5-2.2-3.3-4-5.5-5.5l-1.8-1.2l1.8-1.2c2.2-1.5,4-3.3,5.5-5.5l1.3-1.8l1.2,1.8
	c1.5,2.2,3.3,4,5.5,5.5l1.8,1.2L114.8,165.9z"/>
<path class="st0" d="M184.4,59.8c-6.7-1.1-12-6.3-13.1-13.1c-0.2-1.3-1.4-2.3-2.7-2.3c-1.3,0-2.5,1-2.7,2.3
	c-1.1,6.7-6.4,12-13.1,13.1c-1.3,0.2-2.3,1.4-2.3,2.7c0,1.3,1,2.5,2.3,2.7c3.4,0.6,6.3,2.1,8.6,4.4c2.3,2.3,3.9,5.3,4.4,8.6
	c0.2,1.3,1.4,2.3,2.7,2.3c1.4,0,2.5-1,2.7-2.3c1.1-6.7,6.4-12,13.1-13.1c1.3-0.2,2.3-1.4,2.3-2.7C186.7,61.2,185.7,60,184.4,59.8z
	 M175.4,63.8c-2.2,1.5-4,3.3-5.5,5.5l-1.2,1.8l-1.2-1.8c-1.5-2.2-3.3-4-5.5-5.5l-1.8-1.3l1.8-1.2c2.2-1.5,4-3.3,5.5-5.5l1.2-1.8
	l1.2,1.8c1.5,2.2,3.3,4,5.5,5.5l1.8,1.2L175.4,63.8z"/>
<path class="st0" d="M184.4,110.9c-6.7-1.1-12-6.3-13.1-13.1c-0.2-1.3-1.4-2.3-2.7-2.3c-1.3,0-2.5,1-2.7,2.3
	c-1.1,6.7-6.4,12-13.1,13.1c-1.3,0.2-2.3,1.4-2.3,2.7c0,1.3,1,2.5,2.3,2.7c6.7,1.1,12,6.4,13.1,13.1c0.2,1.3,1.4,2.3,2.7,2.3
	c1.4,0,2.5-1,2.7-2.3c1.1-6.7,6.4-12,13.1-13.1c1.3-0.2,2.3-1.4,2.3-2.7C186.7,112.2,185.7,111.1,184.4,110.9z M175.4,114.8
	c-2.2,1.5-4,3.3-5.5,5.5l-1.2,1.8l-1.2-1.8c-1.5-2.2-3.3-4-5.5-5.5l-1.8-1.2l1.8-1.2c2.2-1.5,4-3.3,5.5-5.5l1.2-1.8l1.2,1.8
	c1.5,2.2,3.3,4,5.5,5.5l1.8,1.2L175.4,114.8z"/>
<path class="st0" d="M184.4,162c-6.7-1.1-12-6.4-13.1-13.1c-0.2-1.3-1.4-2.3-2.7-2.3c-1.3,0-2.5,1-2.7,2.3
	c-1.1,6.7-6.4,12-13.1,13.1c-1.3,0.2-2.3,1.4-2.3,2.7c0,1.3,1,2.5,2.3,2.7c6.7,1.1,12,6.4,13.1,13.1c0.2,1.3,1.4,2.3,2.7,2.3
	c1.4,0,2.5-1,2.7-2.3c1.1-6.7,6.4-12,13.1-13.1c1.3-0.2,2.3-1.4,2.3-2.7C186.7,163.3,185.7,162.2,184.4,162z M175.4,165.9
	c-2.2,1.5-4,3.3-5.5,5.5l-1.2,1.8l-1.2-1.8c-1.5-2.2-3.3-4-5.5-5.5l-1.8-1.2l1.8-1.2c2.2-1.5,4-3.3,5.5-5.5l1.2-1.8l1.2,1.8
	c1.5,2.2,3.3,4,5.5,5.5l1.8,1.2L175.4,165.9z"/>
<path class="st0" d="M67,98c-2.2,0-3.9,1.8-3.9,3.9c0,2.2,1.8,3.9,3.9,3.9c2.2,0,3.9-1.8,3.9-3.9v0C70.9,99.7,69.1,98,67,98L67,98z
	 M67,98L67,98z"/>
</svg>
