<?xml version="1.0" encoding="utf-8"?>
<!-- Generator: Adobe Illustrator 24.0.2, SVG Export Plug-In . SVG Version: 6.00 Build 0)  -->
<svg version="1.1" id="Warstwa_1" xmlns="http://www.w3.org/2000/svg" xmlns:xlink="http://www.w3.org/1999/xlink" x="0px" y="0px"
	 viewBox="0 0 329 239" style="enable-background:new 0 0 329 239;" xml:space="preserve">
<style type="text/css">
	.st0{fill:#FFFFFF;}
</style>
<path class="st0" d="M242.1,169.3c0-2.2-1.6-3.8-3.7-3.8c-2,0-3.6,1.7-3.6,3.8c0,5.2-2.1,10.2-5.9,13.5l-14.3,12.8v-40.1
	c0-25.7,5.3-49.1,9.8-64.1c0.4-1.2,0.7-2.5,1-3.8l3.8-14.9l2.5,15.1c2,12.1,3,22.9,3,32.2v13.7c0,2.2,1.6,3.9,3.7,3.9
	c2,0,3.7-1.7,3.7-3.9v-13.7c0-38.4-15.8-86.1-16-86.5c-0.4-1.3-1.3-2.2-2.5-2.4l-0.7-0.2c-0.5-0.2-0.9-0.3-1.3-0.3H100.5
	c-1,0-1.9,0.4-2.5,1.1c-10,10.8-16.8,22.8-21.5,37.6c-0.4,1.2-0.2,2.4,0.6,3.5c0.7,1,1.8,1.6,2.9,1.6h14l-1.8,4.6
	c-4.6,11.7-12.4,35.7-12.4,65.6v38.1c0,14,10.9,25.5,24.3,25.5h106.4c0.6,0,1.6-0.2,2.3-0.9l20.9-18.7
	C239,183.8,242.1,176.8,242.1,169.3z M178.5,38.5h34.1l-3.2,5.2c-4.2,6.6-7.2,14-10.2,21.1l-0.9,2.1h-37.5l2.4-4.9
	c3.8-7.6,8.6-15.1,14.2-22.2L178.5,38.5z M149.6,38.5h19.2l-3.6,5.3c-7.4,11-16.7,28.3-19,48.8l-0.3,2.9h-20.1l0.5-3.8
	c2.1-16.2,7.8-29.2,12.2-37.3c4.3-7.9,8.5-13,10.1-14.8L149.6,38.5z M85,66.9l0-0.5l1.9-4.3c3.6-8.3,8.2-15.6,14.1-22.5l1-1.1h37.9
	l-3.3,5.2c-4.3,6.4-7.9,13.5-10.7,21l-0.9,2.2H85z M207.1,155.6v45H104c-9.3,0-16.9-8-16.9-17.8V145h-0.1v-0.3
	c0-33.6,9.9-59,14.2-68.3l0.9-1.9h20.4l-1,4.1c-1.6,6.6-2.6,13.5-3,20.6c-0.1,1,0.3,2.1,1,2.9c0.7,0.8,1.6,1.2,2.6,1.2h27.4
	c2,0,3.6-1.6,3.7-3.8c0.2-7.2,1.5-14.9,4-22.8l0.8-2.3h42.8c1.4,0,2.7-0.9,3.3-2.3l1.5-3.8c3.2-7.7,5.9-14.4,9.8-20.6l5-7.9l0.9,9.4
	c1.3,13.3,0,26.7-3.8,39.8C212.6,104.9,207.1,129.2,207.1,155.6z"/>
</svg>
