<?xml version="1.0" encoding="utf-8"?>
<!-- Generator: Adobe Illustrator 22.1.0, SVG Export Plug-In . SVG Version: 6.00 Build 0)  -->
<svg version="1.1" id="Warstwa_1" xmlns="http://www.w3.org/2000/svg" xmlns:xlink="http://www.w3.org/1999/xlink" x="0px" y="0px"
	 viewBox="0 0 400 400" style="enable-background:new 0 0 400 400;" xml:space="preserve">
<style type="text/css">
	.st0{fill:#FFFFFF;}
</style>
<g>
	<path class="st0" d="M301.7,39.4H102.1v276.2h20.5v30l20.5-13.6l20.5,13.6v-30h138.1c11.3,0,20.4-9.2,20.4-20.4V59.9
		C322.1,48.6,312.9,39.4,301.7,39.4L301.7,39.4z M112.4,49.7h143.2v76.8H112.4V49.7z M224.9,213.3c-2.8,0-5.1,2.3-5.1,5.1v0.1h-20.5
		v0c0-2.9-2.3-5.1-5.1-5.1c-2.8,0-5.1,2.3-5.1,5.1v0.1h-20.5v0c0-2.9-2.3-5.1-5.1-5.1c-2.8,0-5.1,2.3-5.1,5.1v0.1H138v0
		c0-2.9-2.3-5.1-5.1-5.1c-2.8,0-5.1,2.3-5.1,5.1v0.1h-15.3v-81.8h4.8c-2.7,0.2-4.8,2.3-4.8,5.1c0,2.8,2.3,5.1,5.1,5.1
		s5.1-2.3,5.1-5.1c0-2.7-2.2-4.9-4.8-5.1h30.2c-2.7,0.2-4.8,2.3-4.8,5.1c0,2.8,2.3,5.1,5.1,5.1c2.8,0,5.1-2.3,5.1-5.1
		c0-2.7-2.2-4.9-4.8-5.1h30.2c-2.7,0.2-4.8,2.3-4.8,5.1c0,2.8,2.3,5.1,5.1,5.1c2.8,0,5.1-2.3,5.1-5.1c0-2.7-2.2-4.9-4.8-5.1h30.2
		c-2.7,0.2-4.8,2.3-4.8,5.1c0,2.8,2.3,5.1,5.1,5.1c2.8,0,5.1-2.3,5.1-5.1c0-2.7-2.2-4.9-4.8-5.1H240c-2.7,0.2-4.8,2.3-4.8,5.1
		c0,2.8,2.3,5.1,5.1,5.1c2.8,0,5.1-2.3,5.1-5.1c0-2.7-2.2-4.9-4.8-5.1h15.1v15.3c-2.8,0-5.1,2.3-5.1,5.1c0,2.8,2.3,5.1,5.1,5.1v20.5
		c-2.8,0-5.1,2.3-5.1,5.1c0,2.8,2.3,5.1,5.1,5.1v20.5c-2.8,0-5.1,2.3-5.1,5.1v0.1H230v0C230,215.6,227.7,213.3,224.9,213.3
		L224.9,213.3z M153.3,326.6l-10.2-6.8l-10.2,6.8v-10.9h20.5V326.6z M163.5,305.4h-51.2v-76.7h143.2v76.7H163.5z M265.8,305.4V49.7
		h15.3v255.7H265.8z M301.6,146.8c2.8,0,5.1-2.3,5.1-5.1c0-2.7-2.2-4.9-4.8-5.1h10v81.8h-20.5v-81.8h10c-2.7,0.2-4.8,2.3-4.8,5.1
		C296.5,144.5,298.8,146.8,301.6,146.8L301.6,146.8z M311.9,295.2c0,5.6-4.6,10.2-10.2,10.2h-10.3v-76.7h20.5V295.2z M291.4,126.4
		V49.7h10.3c5.6,0,10.2,4.6,10.2,10.2v66.6H291.4z M291.4,126.4"/>
	<path class="st0" d="M138,157.1c0,2.8-2.3,5.1-5.1,5.1c-2.8,0-5.1-2.3-5.1-5.1c0-2.8,2.3-5.1,5.1-5.1
		C135.7,151.9,138,154.2,138,157.1L138,157.1z M138,157.1"/>
	<path class="st0" d="M168.6,157.1c0,2.8-2.3,5.1-5.1,5.1c-2.8,0-5.1-2.3-5.1-5.1c0-2.8,2.3-5.1,5.1-5.1
		C166.4,151.9,168.6,154.2,168.6,157.1L168.6,157.1z M168.6,157.1"/>
	<path class="st0" d="M199.3,157.1c0,2.8-2.3,5.1-5.1,5.1c-2.8,0-5.1-2.3-5.1-5.1c0-2.8,2.3-5.1,5.1-5.1
		C197,151.9,199.3,154.2,199.3,157.1L199.3,157.1z M199.3,157.1"/>
	<path class="st0" d="M230,157.1c0,2.8-2.3,5.1-5.1,5.1c-2.8,0-5.1-2.3-5.1-5.1c0-2.8,2.3-5.1,5.1-5.1
		C227.7,151.9,230,154.2,230,157.1L230,157.1z M230,157.1"/>
	<path class="st0" d="M122.6,172.4c0,2.8-2.3,5.1-5.1,5.1s-5.1-2.3-5.1-5.1c0-2.8,2.3-5.1,5.1-5.1S122.6,169.6,122.6,172.4
		L122.6,172.4z M122.6,172.4"/>
	<path class="st0" d="M153.3,172.4c0,2.8-2.3,5.1-5.1,5.1c-2.8,0-5.1-2.3-5.1-5.1c0-2.8,2.3-5.1,5.1-5.1
		C151,167.3,153.3,169.6,153.3,172.4L153.3,172.4z M153.3,172.4"/>
	<path class="st0" d="M122.6,203.1c0,2.8-2.3,5.1-5.1,5.1s-5.1-2.3-5.1-5.1c0-2.8,2.3-5.1,5.1-5.1S122.6,200.3,122.6,203.1
		L122.6,203.1z M122.6,203.1"/>
	<path class="st0" d="M153.3,203.1c0,2.8-2.3,5.1-5.1,5.1c-2.8,0-5.1-2.3-5.1-5.1c0-2.8,2.3-5.1,5.1-5.1
		C151,198,153.3,200.3,153.3,203.1L153.3,203.1z M153.3,203.1"/>
	<path class="st0" d="M138,187.7c0,2.8-2.3,5.1-5.1,5.1c-2.8,0-5.1-2.3-5.1-5.1c0-2.8,2.3-5.1,5.1-5.1
		C135.7,182.6,138,184.9,138,187.7L138,187.7z M138,187.7"/>
	<path class="st0" d="M168.6,187.7c0,2.8-2.3,5.1-5.1,5.1c-2.8,0-5.1-2.3-5.1-5.1c0-2.8,2.3-5.1,5.1-5.1
		C166.4,182.6,168.6,184.9,168.6,187.7L168.6,187.7z M168.6,187.7"/>
	<path class="st0" d="M184,172.4c0,2.8-2.3,5.1-5.1,5.1c-2.8,0-5.1-2.3-5.1-5.1c0-2.8,2.3-5.1,5.1-5.1
		C181.7,167.3,184,169.6,184,172.4L184,172.4z M184,172.4"/>
	<path class="st0" d="M214.7,172.4c0,2.8-2.3,5.1-5.1,5.1c-2.8,0-5.1-2.3-5.1-5.1c0-2.8,2.3-5.1,5.1-5.1
		C212.4,167.3,214.7,169.6,214.7,172.4L214.7,172.4z M214.7,172.4"/>
	<path class="st0" d="M184,203.1c0,2.8-2.3,5.1-5.1,5.1c-2.8,0-5.1-2.3-5.1-5.1c0-2.8,2.3-5.1,5.1-5.1
		C181.7,198,184,200.3,184,203.1L184,203.1z M184,203.1"/>
	<path class="st0" d="M214.7,203.1c0,2.8-2.3,5.1-5.1,5.1c-2.8,0-5.1-2.3-5.1-5.1c0-2.8,2.3-5.1,5.1-5.1
		C212.4,198,214.7,200.3,214.7,203.1L214.7,203.1z M214.7,203.1"/>
	<path class="st0" d="M199.3,187.7c0,2.8-2.3,5.1-5.1,5.1c-2.8,0-5.1-2.3-5.1-5.1c0-2.8,2.3-5.1,5.1-5.1
		C197,182.6,199.3,184.9,199.3,187.7L199.3,187.7z M199.3,187.7"/>
	<path class="st0" d="M230,187.7c0,2.8-2.3,5.1-5.1,5.1c-2.8,0-5.1-2.3-5.1-5.1c0-2.8,2.3-5.1,5.1-5.1
		C227.7,182.6,230,184.9,230,187.7L230,187.7z M230,187.7"/>
	<path class="st0" d="M245.4,172.4c0,2.8-2.3,5.1-5.1,5.1c-2.8,0-5.1-2.3-5.1-5.1c0-2.8,2.3-5.1,5.1-5.1
		C243.1,167.3,245.4,169.6,245.4,172.4L245.4,172.4z M245.4,172.4"/>
	<path class="st0" d="M245.4,203.1c0,2.8-2.3,5.1-5.1,5.1c-2.8,0-5.1-2.3-5.1-5.1c0-2.8,2.3-5.1,5.1-5.1
		C243.1,198,245.4,200.3,245.4,203.1L245.4,203.1z M245.4,203.1"/>
	<path class="st0" d="M306.8,172.4c0,2.8-2.3,5.1-5.1,5.1c-2.8,0-5.1-2.3-5.1-5.1c0-2.8,2.3-5.1,5.1-5.1
		C304.5,167.3,306.8,169.6,306.8,172.4L306.8,172.4z M306.8,172.4"/>
	<path class="st0" d="M306.8,203.1c0,2.8-2.3,5.1-5.1,5.1c-2.8,0-5.1-2.3-5.1-5.1c0-2.8,2.3-5.1,5.1-5.1
		C304.5,198,306.8,200.3,306.8,203.1L306.8,203.1z M306.8,203.1"/>
</g>
</svg>
