<?xml version="1.0" encoding="utf-8"?>
<!-- Generator: Adobe Illustrator 22.1.0, SVG Export Plug-In . SVG Version: 6.00 Build 0)  -->
<svg version="1.1" id="Warstwa_1" xmlns="http://www.w3.org/2000/svg" xmlns:xlink="http://www.w3.org/1999/xlink" x="0px" y="0px"
	 viewBox="0 0 329 239" style="enable-background:new 0 0 329 239;" xml:space="preserve">
<style type="text/css">
	.st0{fill:#FFFFFF;}
</style>
<g>
	<path class="st0" d="M210.9,34.7c-18,0-32.9,14-34.3,31.6h-92v140.7h126.4c19,0,34.5-15.5,34.5-34.5V69.2
		C245.3,50.2,229.8,34.7,210.9,34.7L210.9,34.7z M90.2,93.8l35.3-21.7h20.2l-55.4,32.3V93.8z M176.4,128.7l-10.5-2.6l10.5-6V128.7z
		 M176.4,113.5l-18.5,10.6l-15.1-3.8l33.6-20.2V113.5z M176.4,93.4l-41.5,24.9l-15.1-3.8L176.4,80V93.4z M171.8,133.5l-16.7,9.9
		l-64.8-18.9v-11.4L171.8,133.5z M110.8,169.7L90.2,162v-14.2l37.7,11.8L110.8,169.7z M90.2,141.8v-11.3l58.1,16.9l-14.2,8.4
		l0.1-0.3L90.2,141.8z M90.2,168.1l14.2,5.3l-14.2,8.5V168.1z M90.2,188.6l86.2-51.2v13.5l-86.2,50V188.6z M176.4,157.5v13.4
		l-52.5,30.4h-23.1L176.4,157.5z M176.4,73.3l-64.5,39.3l-17-4.3l62.2-36.3h19.3V73.3z M114.5,72.1L90.2,87v-15H114.5z M135.4,201.3
		l41.3-23.9c1.4,10,7.1,18.6,15.1,23.9H135.4z M210.9,201.3c-15.8,0-28.7-12.9-28.7-28.7s12.9-28.7,28.7-28.7
		c15.8,0,28.7,12.9,28.7,28.7S226.7,201.3,210.9,201.3L210.9,201.3z M210.9,138.1c-12,0-22.5,6.2-28.7,15.5V69.2
		c0-15.8,12.9-28.7,28.7-28.7c15.8,0,28.7,12.9,28.7,28.7v84.4C233.4,144.3,222.8,138.1,210.9,138.1L210.9,138.1z M210.9,138.1"/>
	<path class="st0" d="M210.9,152.5c-11.2,0-20.1,8.9-20.1,20.1c0,11.2,8.9,20.1,20.1,20.1c11.2,0,20.1-8.9,20.1-20.1
		C231,161.4,222.1,152.5,210.9,152.5L210.9,152.5z M210.9,187c-8,0-14.4-6.3-14.4-14.4c0-8,6.3-14.4,14.4-14.4
		c8,0,14.4,6.3,14.4,14.4C225.2,180.7,218.9,187,210.9,187L210.9,187z M210.9,187"/>
</g>
</svg>
