<?xml version="1.0" encoding="utf-8"?>
<!-- Generator: Adobe Illustrator 22.1.0, SVG Export Plug-In . SVG Version: 6.00 Build 0)  -->
<svg version="1.1" id="Warstwa_1" xmlns="http://www.w3.org/2000/svg" xmlns:xlink="http://www.w3.org/1999/xlink" x="0px" y="0px"
	 viewBox="0 0 329 239" style="enable-background:new 0 0 329 239;" xml:space="preserve">
<style type="text/css">
	.st0{fill:#FFFFFF;}
</style>
<path class="st0" d="M172.6,208.7c0.3,0.1,0.5,0.1,0.9,0.1h0.2c25.5-0.9,47.7-5,64.2-12c18.5-7.7,28.3-18.6,28.3-31.4V153
	c0-2.3-2-4.3-4.3-4.3s-4.3,2-4.3,4.3v12.4c0,11.4-12.5,19.1-23,23.5c-13,5.5-30.4,9.3-50.4,10.8l-4.3,0.3v-53.1l3.6-0.3
	c23.5-2.1,41.4-6.4,54.7-13.1c8.9-4.4,15.7-10,20.3-16.5c5.1-7.2,7.6-15.6,7.6-24.8c0-15.8-13.1-32.4-36-45.6
	c-23.6-13.6-53.4-21.1-84-21.1c-1,0-2,0.4-2.7,1l-31.5,27c-0.9,0.8-1.5,2-1.5,3c-0.1,1.2,0.4,2.4,1.3,3.3l18,17.9l-8.3,0.9
	c-12.5,1.5-24.3,4.3-34,8.1c-16.6,6.6-25.7,15.8-25.7,26v56.7c0,14.9,13.4,26.3,38.9,32.8l1.6,0.4l0.8,1.4c1.1,1.8,2.5,3.5,4,4.9
	c4.5,4,10.5,5.9,16.6,5.2l48.3-5.6L172.6,208.7z M101.2,147.6c-0.8,2.5-1.2,4.9-1.2,7.1v38.9l-5.3-1.9c-16.1-5.5-24.3-13-24.3-22.1
	v-39.9l6.1,3.7c6.1,3.7,13.5,6.7,21.9,9l4.1,1.2L101.2,147.6z M171.3,200.2l-48.6,5.6c-0.5,0.1-1,0.1-1.5,0.1
	c-3.2,0-6.1-1.1-8.4-3.3c-2.7-2.4-4.2-5.7-4.2-9.4v-14.8h30.5c2.3,0,4.3-2,4.3-4.3s-2-4.3-4.3-4.3h-30.5v-15.2c0-3.7,1.5-7,4.2-9.5
	c2.8-2.4,6.3-3.6,9.9-3.1l48.6,5.6V200.2z M170.5,139l-46.8-5.4c-4.2-0.5-8.4,0.3-12.2,2.2l-1.2,0.7l-1.4-0.3
	c-11.6-2.4-21.5-6-28.6-10.4c-4.5-2.8-9.9-7.3-9.9-12.7c0-6.2,7.6-13,20.2-18c14.3-5.7,33.4-8.9,53.9-8.9c35.3,0,61,9.7,69.9,18.7
	c1.7,1.7,4.4,1.7,6.1,0c0.8-0.8,1.3-1.9,1.3-3c0-1.2-0.4-2.2-1.2-3c-12.8-12.9-42.6-21.2-76-21.2h-2.7L121,56.9l26.7-22.8h1.5
	c27.6,0.5,55.5,7.8,76.6,19.9c19.8,11.4,31.7,25.7,31.7,38.2c0.1,10.3,0.4,41.7-85.4,46.7l0,0l-0.1,0.1L170.5,139z"/>
<circle class="st0" cx="233.7" cy="161.3" r="4.3"/>
<path class="st0" d="M205.1,165.3c-2.4,0-4.3,1.9-4.3,4.3s1.9,4.3,4.3,4.3s4.3-1.9,4.3-4.3S207.5,165.3,205.1,165.3z"/>
</svg>
