<?xml version="1.0" encoding="utf-8"?>
<!-- Generator: Adobe Illustrator 22.1.0, SVG Export Plug-In . SVG Version: 6.00 Build 0)  -->
<svg version="1.1" id="Warstwa_1" xmlns="http://www.w3.org/2000/svg" xmlns:xlink="http://www.w3.org/1999/xlink" x="0px" y="0px"
	 viewBox="0 0 329 239" style="enable-background:new 0 0 329 239;" xml:space="preserve">
<style type="text/css">
	.st0{fill:#FFFFFF;}
</style>
<g>
	<path class="st0" d="M103.4,86.5c0.4,0,0.8,0,1.2-0.1l151.1-35.7c2.9-0.7,4.6-3.5,4-6.4c-0.7-2.9-3.5-4.6-6.4-4L195.5,54l-1-4.3
		c-1.9-8.1-10-13.1-18.1-11.2l-6.2,1.5c-8.1,1.9-13.1,10-11.2,18.1l1,4.3L102.2,76c-2.9,0.7-4.6,3.5-4,6.4
		C98.8,84.9,101,86.5,103.4,86.5z M172.6,50.3l6.2-1.5c0.3-0.1,0.7-0.1,1-0.1c2,0,3.8,1.4,4.3,3.4l1,4.3l-14.8,3.5l-1-4.3
		C168.7,53.2,170.2,50.8,172.6,50.3z"/>
	<path class="st0" d="M264.7,121.9h-4.4v-15.7c0-2.9-2.4-5.3-5.3-5.3H99.7c-2.9,0-5.3,2.4-5.3,5.3v15.7h-4.4
		c-8.3,0-15.1,6.8-15.1,15.1v6.4c0,8.3,6.8,15.1,15.1,15.1h4.4v28.7c0,12.6,10.3,22.9,22.9,22.9h120.2c12.6,0,22.9-10.3,22.9-22.9
		v-28.7h4.4c8.3,0,15.1-6.8,15.1-15.1V137C279.8,128.7,273,121.9,264.7,121.9z M94.4,147.8h-4.4c-2.4,0-4.4-2-4.4-4.4V137
		c0-2.4,2-4.4,4.4-4.4h4.4V147.8z M249.6,187.1c0,6.7-5.5,12.2-12.2,12.2H117.2c-6.7,0-12.2-5.5-12.2-12.2v-75.6h144.6V187.1z
		 M269.1,143.4c0,2.4-2,4.4-4.4,4.4h-4.4v-15.2h4.4c2.4,0,4.4,2,4.4,4.4V143.4z"/>
</g>
</svg>
