<?xml version="1.0" encoding="utf-8"?>
<!-- Generator: Adobe Illustrator 22.1.0, SVG Export Plug-In . SVG Version: 6.00 Build 0)  -->
<svg version="1.1" id="Warstwa_1" xmlns="http://www.w3.org/2000/svg" xmlns:xlink="http://www.w3.org/1999/xlink" x="0px" y="0px"
	 viewBox="0 0 329 239" style="enable-background:new 0 0 329 239;" xml:space="preserve">
<style type="text/css">
	.st0{fill:#FFFFFF;}
</style>
<path class="st0" d="M159.5,120.8c-0.6-0.2-1.3-0.2-1.9,0.1c-0.6,0.3-1,0.8-1.2,1.4c-0.2,0.6-0.2,1.3,0.1,1.9c0.3,0.6,0.8,1,1.4,1.2
	c0.6,0.2,1.3,0.2,1.9-0.1c0.6-0.3,1-0.8,1.2-1.4c0.2-0.6,0.2-1.3-0.1-1.9C160.6,121.4,160.1,121,159.5,120.8L159.5,120.8z
	 M159.5,120.8"/>
<path class="st0" d="M186.3,146l-29.6-58.6c0.1-0.5,0.3-1,0.3-1.5C158,80,157.4,75,155.4,71c-3.7-7.4-12.8-10.6-19.9-7
	c-7.1,3.6-9.9,12.8-6.2,20.2c2,4,5.7,7.4,11,10.2c0.5,0.2,0.9,0.4,1.4,0.6l10.3,20.5c0.6,1.2,2.1,1.7,3.3,1.1
	c1.2-0.6,1.7-2.1,1.1-3.3l-8.9-17.7c1.1-0.2,2.3-0.6,3.3-1.1c1.1-0.5,2-1.2,2.9-2l26.8,53c-1.1,0.2-2.3,0.6-3.4,1.1
	c-1.1,0.5-2,1.2-2.8,2l-8.8-17.4c-0.6-1.2-2.1-1.7-3.3-1.1c-1.2,0.6-1.7,2.1-1.1,3.3l10.2,20.2c-0.1,0.5-0.3,1-0.4,1.5
	c-0.9,5.9-0.4,10.9,1.7,14.9c3.7,7.4,12.8,10.6,19.9,7c7.1-3.6,9.9-12.8,6.2-20.2c-2-4-5.7-7.4-11-10.2
	C187.3,146.3,186.8,146.1,186.3,146L186.3,146z M148.6,90c-1.9,1-4.1,1-6,0c-4.4-2.3-7.3-5-8.9-8c-2.5-5-0.7-11.2,4-13.5
	c4.7-2.4,10.8-0.2,13.3,4.8c1.6,3.1,2,7.1,1.2,11.9C151.8,87.2,150.5,89,148.6,90L148.6,90z M190.3,172.5
	c-4.7,2.4-10.8,0.2-13.3-4.8c-1.6-3.1-2-7.1-1.2-11.9c0.3-2.1,1.6-3.9,3.6-4.9c1.9-1,4.1-1,6,0c4.4,2.3,7.3,5,8.9,8
	C196.8,164,195,170.2,190.3,172.5L190.3,172.5z M190.3,172.5"/>
</svg>
