<?xml version="1.0" encoding="utf-8"?>
<!-- Generator: Adobe Illustrator 22.1.0, SVG Export Plug-In . SVG Version: 6.00 Build 0)  -->
<svg version="1.1" id="Warstwa_1" xmlns="http://www.w3.org/2000/svg" xmlns:xlink="http://www.w3.org/1999/xlink" x="0px" y="0px"
	 viewBox="0 0 329 239" style="enable-background:new 0 0 329 239;" xml:space="preserve">
<style type="text/css">
	.st0{fill:#FFFFFF;}
</style>
<g>
	<path class="st0" d="M244.5,49.2h-0.2c-8.6,0.1-19.7,0.6-29.5,3.6c-0.9,0.3-1.7,0.6-2.5,0.9c-9.9-4-24.8-5.8-47.8-5.8
		s-37.9,1.8-47.8,5.8c-0.8-0.3-1.7-0.6-2.5-0.9c-9.8-3-20.9-3.5-29.5-3.6h-0.2c-9.5,0-9.5,8.3-9.5,11v71.5c0,0,0,0,0,0.1
		s0,0.3,0,0.4v0.1c0,0.1,0,0.3,0.1,0.4l0,0c0,0.1,0.1,0.3,0.1,0.4c0,0,0,0.1,0.1,0.1c0,0,0,0.1,0.1,0.1c0.2,0.5,6,12.1,14.5,23.9
		c11.5,16,22.3,24.4,32.1,24.9c13.8,7.9,25.5,10.8,42.4,10.8c9.5,0,17.3-0.9,24.7-3.1c0.1,0,0.3-0.1,0.4-0.1
		c5.8-1.7,11.3-4.2,17.3-7.6c9.8-0.6,20.6-8.9,32.1-24.9c8.5-11.8,14.3-23.4,14.5-23.9c0,0,0-0.1,0.1-0.1c0,0,0-0.1,0.1-0.1
		c0-0.1,0.1-0.2,0.1-0.4l0,0c0-0.1,0.1-0.3,0.1-0.4v-0.1c0-0.1,0-0.3,0-0.4c0,0,0,0,0-0.1V60.3C254,57.6,254,49.2,244.5,49.2
		L244.5,49.2z M82.5,60.3c0-2.8,0.5-3.3,0.5-3.3s0.3-0.2,1.6-0.2h0.1c8.1,0.1,18.5,0.5,27.4,3.3c1.1,0.4,2.2,0.7,3.3,1.2h0.1
		c7.4,3,11.9,7.5,13.6,13.7c2.5,9.3-1.1,18.2-10.9,27.3c-2.9,2.7-6.2,5.2-9.6,7.7c0,0,0,0-0.1,0c-7.4,5.2-15.7,9.8-23.4,14.1
		c-0.8,0.5-1.6,0.9-2.4,1.4V60.3H82.5z M83.7,133.2c1.6-0.9,3.2-1.8,4.8-2.7c6.2-3.5,13.1-7.3,19.7-11.6c1.1,3.8,2,7.1,2.9,10.1
		c3.9,13.1,6.1,20.7,7.9,45.1C105.6,169.8,90.4,145.9,83.7,133.2L83.7,133.2z M202.3,176.3c-3.6,2-7,3.6-10.3,4.9
		c0-6.7,0.5-14.2,0.8-18.6c0.2-2.1-1.4-3.8-3.4-4c-2.1-0.2-3.9,1.4-4,3.4c-0.4,5-1,14-0.8,21.5c-6,1.5-12.4,2.1-20.1,2.1
		c-15.4,0-25.5-2.5-37.8-9.3c-1.9-27.4-4.4-35.8-8.4-49.4c-1.1-3.6-2.3-7.6-3.6-12.4c14.8-10.8,26-24.2,21.4-41.5v-0.1
		c5.2-0.7,12.7-1.3,19.6-1.5c2.1,0,3.7-1.8,3.6-3.8c0-2.1-1.8-3.7-3.8-3.6c-8.2,0.2-16.9,0.9-22.6,1.8c-1.8-2.8-4.1-5.2-6.9-7.2
		c8.9-2.2,21.4-3.2,38.4-3.2s29.6,1,38.4,3.2c-5.1,3.7-8.5,8.5-10.1,14.4c-4.6,17.3,6.6,30.7,21.4,41.5c-1.3,4.8-2.5,8.8-3.6,12.4
		C206.7,140.5,204.2,148.8,202.3,176.3L202.3,176.3z M233,152.9c-8.4,11.6-16.4,18.9-23.1,21.1c1.8-24.4,4-32,7.9-45.1
		c0.9-3,1.9-6.3,2.9-10.1c6.6,4.3,13.4,8.1,19.7,11.6c1.7,0.9,3.3,1.8,4.8,2.7C243,137.4,238.6,145.2,233,152.9L233,152.9z
		 M246.5,125.3c-0.8-0.4-1.6-0.9-2.4-1.4c-7.6-4.2-15.9-8.9-23.3-14c0,0-0.1,0-0.1-0.1c-3.5-2.4-6.8-5-9.7-7.7
		c-9.8-9.1-13.4-18-10.9-27.3c1.7-6.2,6.1-10.7,13.6-13.7h0.1c1-0.4,2.1-0.8,3.3-1.2c8.8-2.7,19.3-3.2,27.4-3.3h0.1
		c1.2,0,1.6,0.2,1.6,0.2s0.5,0.5,0.5,3.4v65.1H246.5z"/>
	<path class="st0" d="M106.9,92.6c6.2,0,11.2-5,11.2-11.2s-5-11.2-11.2-11.2s-11.2,5-11.2,11.2C95.7,87.6,100.7,92.6,106.9,92.6
		L106.9,92.6z M106.9,77.7c2.1,0,3.7,1.7,3.7,3.7c0,2.1-1.7,3.7-3.7,3.7c-2.1,0-3.7-1.7-3.7-3.7C103.1,79.4,104.8,77.7,106.9,77.7
		L106.9,77.7z"/>
	<path class="st0" d="M222.3,70.2c-6.2,0-11.2,5-11.2,11.2s5,11.2,11.2,11.2s11.2-5,11.2-11.2C233.5,75.3,228.5,70.2,222.3,70.2
		L222.3,70.2z M222.3,85.2c-2.1,0-3.7-1.7-3.7-3.7c0-2.1,1.7-3.7,3.7-3.7c2.1,0,3.7,1.7,3.7,3.7C226.1,83.5,224.4,85.2,222.3,85.2
		L222.3,85.2z"/>
	<path class="st0" d="M166.8,64.1L166.8,64.1c-2.1-0.1-3.9,1.4-4,3.5s1.4,3.8,3.5,4h0.1c0.1,0,0.1,0,0.2,0c1.9,0,3.6-1.5,3.7-3.5
		C170.4,66,168.8,64.2,166.8,64.1L166.8,64.1z"/>
	<path class="st0" d="M190.6,147.8c-2-0.3-3.9,1.2-4.2,3.2v0.4c-0.3,2,1.2,3.9,3.2,4.2c0.2,0,0.3,0,0.5,0c1.9,0,3.5-1.4,3.7-3.3V152
		C194.1,150,192.7,148.1,190.6,147.8L190.6,147.8z"/>
</g>
<path class="st0" d="M188,116.6c-1.8-4.8-5.1-8.2-9.4-9.5c-4.1-1.2-8.6-0.3-12.6,2.4c-0.3-1.5-0.9-2.9-1.6-4.2
	c2.1-0.2,4-1.1,5.5-2.6c2.3-2.3,3.2-5.7,2.4-8.9c-0.1-0.5-0.5-0.9-1-1c-3.2-0.8-6.6,0.1-8.9,2.4c-1.5,1.5-2.4,3.4-2.6,5.4
	c-2.1-1.3-4.5-2-7.2-2c-0.8,0-1.4,0.6-1.4,1.4c0,0.8,0.6,1.4,1.4,1.4c4.8,0,8.9,3.2,10.3,7.6c-3.8-2.4-8-3.1-11.9-2
	c-4.3,1.3-7.6,4.6-9.4,9.5c-1.7,4.7-1.8,10.3-0.2,15.7c1.6,5.4,4.7,10,8.8,13c4.2,3.1,8.8,4.1,13.1,2.8c0.5-0.1,1-0.3,1.4-0.5
	c0.5,0.2,1,0.4,1.6,0.6c1.2,0.4,2.5,0.5,3.7,0.5c3.1,0,6.4-1.1,9.3-3.3c4-3,7.1-7.6,8.8-13C189.8,126.9,189.8,121.3,188,116.6
	L188,116.6z M162.7,102.6c-0.2-1.9,0.4-3.9,1.8-5.3c1.4-1.4,3.4-2.1,5.3-1.8c0.2,1.9-0.4,3.9-1.8,5.3
	C166.6,102.2,164.6,102.8,162.7,102.6L162.7,102.6z M185.5,131.5c-1.4,4.8-4.2,8.9-7.7,11.5c-3.4,2.5-7.2,3.4-10.6,2.3
	c-0.6-0.2-1.2-0.4-1.7-0.7c-0.2-0.1-0.4-0.2-0.6-0.2c-0.2,0-0.4,0-0.6,0.1c-0.5,0.3-1.1,0.5-1.6,0.6c-7.2,2.1-15.4-4.1-18.3-13.9
	c-2.9-9.8,0.5-19.5,7.7-21.6c3.9-1.2,8.3,0.1,12,3.5c0.3,0.2,0.6,0.4,1,0.4c0.4,0,0.7-0.2,1-0.4c3.7-3.3,8-4.6,11.9-3.4
	C185,112,188.4,121.7,185.5,131.5L185.5,131.5z M185.5,131.5"/>
<path class="st0" d="M154.3,111.4c-0.2-0.7-1-1.2-1.8-0.9c-3,0.9-5.4,3.6-6.6,7.4c-1.1,3.6-1.1,7.9,0.2,12c0.2,0.6,0.7,1,1.4,1
	c0.1,0,0.3,0,0.4-0.1c0.7-0.2,1.2-1,0.9-1.8c-1.1-3.5-1.1-7.3-0.2-10.4c0.9-2.9,2.6-4.9,4.7-5.5C154.1,113,154.5,112.2,154.3,111.4
	L154.3,111.4z M154.3,111.4"/>
</svg>
