<?xml version="1.0" encoding="utf-8"?>
<!-- Generator: Adobe Illustrator 22.1.0, SVG Export Plug-In . SVG Version: 6.00 Build 0)  -->
<svg version="1.1" id="Warstwa_1" xmlns="http://www.w3.org/2000/svg" xmlns:xlink="http://www.w3.org/1999/xlink" x="0px" y="0px"
	 viewBox="0 0 329 239" style="enable-background:new 0 0 329 239;" xml:space="preserve">
<style type="text/css">
	.st0{fill:#FFFFFF;}
</style>
<path class="st0" d="M259.2,114.3h-14.8c6.4-3.7,10.7-10.5,10.7-18.4c0-8.2-4.6-15.4-11.7-18.9c1.2-2.7,1.8-5.6,1.8-8.7
	c0-11.7-9.5-21.2-21.2-21.2c-3.7,0-7.2,0.9-10.4,2.7c-4.1-2.9-9.1-4.5-14.2-4.5c-0.3,0-0.7,0-1,0c-3.8-11-14.2-18.6-26.1-18.6
	c-10.7,0-20.3,6.2-24.8,15.6c-0.9-0.1-1.7-0.1-2.6-0.1c-11.2,0-21.1,6.8-25.4,16.8c-0.8-0.2-1.5-0.4-2.3-0.6c0.4-4.6,1.9-8,4.3-10.4
	c2.1-2,4.3-2.5,4.4-2.5l-0.1,0v0c0.8-0.1,1.5-0.5,2-1c0.7-0.7,1-1.6,1-2.5c0-0.9-0.4-1.9-1-2.5c-0.7-0.7-1.6-1-2.5-1
	c-0.2,0-0.4,0-0.6,0.1l0,0c-2.1,0.3-5,1.5-7.7,3.9V30.3c0-2-1.6-3.6-3.6-3.6h-8.5c-2,0-3.6,1.6-3.6,3.6v13.3c-4.1-5-8.5-8-8.9-8.2
	c-1.6-1.1-3.8-0.6-4.9,1c-1.1,1.6-0.6,3.8,1,4.9c0.1,0.1,10.9,7.3,12.5,17.7c-12,3.6-20.8,14.2-20.8,26.7c0,5.2,3,17.6,5.9,28.6H84
	c-2,0-3.6,1.6-3.6,3.6v87.6c0,2,1.6,3.6,3.6,3.6h175.2c2,0,3.6-1.6,3.6-3.6v-87.6C262.8,115.9,261.2,114.3,259.2,114.3L259.2,114.3z
	 M145,49.4c1.4,0,2.7,0.1,4.1,0.4c1.7,0.4,3.5-0.6,4.1-2.3c2.9-8.1,10.6-13.6,19.3-13.6c8.4,0,15.9,5.2,19,12.9
	c-9.6,3.4-16.5,12.5-16.5,23.3c0,2,1.6,3.6,3.6,3.6S182,72,182,70c0-9.7,7.9-17.5,17.5-17.5c4.3,0,8.4,1.6,11.6,4.4
	c1.3,1.1,3.1,1.2,4.5,0.2c2.4-1.8,5.4-2.8,8.4-2.8c7.8,0,14.1,6.3,14.1,14.1c0,3-1,6-2.8,8.4c-0.7,1-0.9,2.2-0.5,3.3
	c0.4,1.1,1.3,2,2.5,2.3c6.2,1.6,10.6,7.2,10.6,13.6c0,7.8-6.3,14.1-14.1,14.1c-0.9,0-1.8-0.1-2.7-0.3c-1.7-0.3-3.4,0.6-4,2.3
	c-0.3,0.8-0.6,1.5-1,2.3h-4.5l14.6-20.9c0.5-0.8,0.8-1.8,0.6-2.7c-0.2-0.9-0.7-1.8-1.5-2.3l-10.4-6.9c-0.8-0.5-1.8-0.7-2.8-0.5
	c-0.9,0.2-1.8,0.8-2.3,1.6l-5.2,8.6l4.2-21.5c0.4-1.9-0.9-3.8-2.8-4.2l-9.1-1.9c-0.9-0.2-1.9,0-2.7,0.5c-0.8,0.5-1.3,1.4-1.5,2.3
	l-1.2,6.2h-8.3c-2,0-3.6,1.6-3.6,3.6v20.5c-2.4-12.1-13.1-21.3-25.9-21.3c-5.8,0-11.2,1.8-15.8,5.3c-3.8,2.9-6.8,6.7-8.6,11.1
	c0.5-2.7,0.7-4.7,0.7-6.2c0-4.8-1.3-9.4-3.6-13.3c1.9-5.1,6.7-8.5,12.2-8.5c0.9,0,1.8,0.1,2.6,0.3c1.7,0.4,3.5-0.6,4.1-2.3
	c0.8-2.2,2.1-4.1,3.8-5.6c1.5-1.3,1.7-3.5,0.4-5c-1.3-1.5-3.5-1.7-5-0.4c-2,1.7-3.6,3.7-4.8,6c-0.4,0-0.7,0-1.1,0
	c-7.1,0-13.5,3.7-17.1,9.5c-1.7-1.6-3.6-3.1-5.7-4.3C129.3,54.4,136.7,49.4,145,49.4L145,49.4z M210.7,111.7l13.4-22.2l4.3,2.8
	l-15.3,22h-2.8L210.7,111.7z M206.2,97.5v-9.9c0-0.1,0-0.1,0.1-0.2l3-16l2,0.4L206.2,97.5z M197,108.1c0-0.1,0-0.3,0-0.4V79.9h2.1
	v34.4H198c0-0.2,0-0.4,0-0.7C198,111.7,197.6,109.8,197,108.1L197,108.1z M148.1,91.5c-0.1,0-0.2,0-0.3,0c3.5-5.4,9.6-8.9,16.2-8.9
	c9.4,0,17.3,6.8,18.9,15.7c-4.9,0-9.3,2.5-12,6.3C166.4,96.8,157.8,91.5,148.1,91.5L148.1,91.5z M167,114.3h-37.8
	c1.7-8.9,9.5-15.7,18.9-15.7S165.3,105.4,167,114.3L167,114.3z M183,105.5c4.3,0,7.8,3.7,7.8,8.1c0,0.2,0,0.4,0,0.7h-15.6
	c0-0.2,0-0.4,0-0.7C175.2,109.1,178.7,105.5,183,105.5L183,105.5z M108.7,33.8h1.4v23.9c-0.5,0-1,0-1.4,0V33.8z M87.8,82.9
	c0.2,0,0.5,0.1,0.7,0.1h17.6c2,0,3.6-1.6,3.6-3.6c0-2-1.6-3.6-3.6-3.6H90.3c3.8-6.6,11.4-11,20.1-11c12.6,0,22.8,9.4,22.8,20.9
	c0,0.9-0.1,2.6-0.7,5.8h-14.1c-2,0-3.6,1.6-3.6,3.6c0,2,1.6,3.6,3.6,3.6h11.8c-4.3,4-7.3,9.5-8.1,15.7H93.7
	c-3.9-14.5-6.1-24.9-6.1-28.6C87.6,84.8,87.7,83.8,87.8,82.9L87.8,82.9z M255.6,143.5h-31.3c-2,0-3.6,1.6-3.6,3.6
	c0,2,1.6,3.6,3.6,3.6h31.3v22.1H143.4c-2,0-3.6,1.6-3.6,3.6c0,2,1.6,3.6,3.6,3.6h112.3v22.1H87.6v-22.1h31.3c2,0,3.6-1.6,3.6-3.6
	c0-2-1.6-3.6-3.6-3.6H87.6v-22.1h112.3c2,0,3.6-1.6,3.6-3.6c0-2-1.6-3.6-3.6-3.6H87.6v-22.1h168.1V143.5z M255.6,143.5"/>
</svg>
