<?xml version="1.0" encoding="utf-8"?>
<!-- Generator: Adobe Illustrator 22.1.0, SVG Export Plug-In . SVG Version: 6.00 Build 0)  -->
<svg version="1.1" id="Warstwa_1" xmlns="http://www.w3.org/2000/svg" xmlns:xlink="http://www.w3.org/1999/xlink" x="0px" y="0px"
	 viewBox="0 0 329 239" style="enable-background:new 0 0 329 239;" xml:space="preserve">
<style type="text/css">
	.st0{fill:#FFFFFF;}
</style>
<g>
	<rect x="120.5" y="180.7" class="st0" width="62.8" height="5.2"/>
	<path class="st0" d="M159.8,68.2V49.9c0-4.3-3.5-7.9-7.9-7.9h-10.5c-4.3,0-7.9,3.5-7.9,7.9v7.9c0,4.3,3.5,7.8,7.9,7.8
		c4.3,0,7.8-3.5,7.8-7.8v-5.2h-5.2v5.2c0,1.4-1.2,2.6-2.6,2.6c-1.4,0-2.6-1.2-2.6-2.6v-7.9c0-1.4,1.2-2.6,2.6-2.6h10.5
		c1.4,0,2.6,1.2,2.6,2.6v18.3c0,1.4-1.2,2.6-2.6,2.6h-44.5V76h44.5C156.2,76,159.8,72.5,159.8,68.2z"/>
	<path class="st0" d="M132.3,112.6c3.9,0.1,7.7-0.9,11-2.9c5.3-3.1,11.9-3.1,17.2,0c6.8,3.9,15.2,3.9,22.1,0
		c2.6-1.6,5.6-2.4,8.6-2.3v-5.2c-3.9-0.1-7.7,0.9-11,2.9c-2.6,1.6-5.6,2.4-8.6,2.3c-0.9,0-1.8-0.1-2.7-0.2l11.1-11.1
		c1-1,1-2.7-0.1-3.7c-1-1-2.6-1-3.6,0l-12.9,12.8l-0.4-0.2c-1.7-1-3.5-1.7-5.4-2.3l6.7-6.7c1-1,1-2.7-0.1-3.7c-1-1-2.6-1-3.6,0
		l-9.7,9.7c-3.5,0.1-6.9,1.1-9.9,2.9c-2.6,1.6-5.6,2.4-8.6,2.3c-3,0.1-6-0.7-8.6-2.3c-3.3-2-7.2-3-11-2.9v5.2c3-0.1,6,0.7,8.6,2.3
		C124.6,111.7,128.4,112.7,132.3,112.6z"/>
	<path class="st0" d="M230.3,147l12.3-5.1l-13.3-11.8l-27.8-2.6l2.8-38.4h10.4c1.4,0,2.6-1.2,2.6-2.6V73.4c0-1.4-1.2-2.6-2.6-2.6
		h-9.4l11.2-11.2c3.2-3.2,3.2-8.4,0-11.5c-3.2-3.1-8.3-3.1-11.6,0l-28.8,28.8c-1,1-1,2.7,0.1,3.7c1,1,2.6,1,3.6,0l28.8-28.8
		c1.1-1.1,3-1.1,4.1,0c1.1,1.1,1.1,3,0,4.1l-20.9,20.9c-1,1-1.1,2.7-0.1,3.7c1,1,2.7,1.1,3.7,0.1c0,0,0,0,0.1-0.1l4.5-4.5h12v7.9
		h-10.5v0.2l-99.4-0.2H91.7V76h10.5v-5.2H89.1c-1.4,0-2.6,1.2-2.6,2.6v13.1c0,1.4,1.2,2.6,2.6,2.6h10.6l7.7,107.5
		c0.1,1.4,1.2,2.4,2.6,2.4h83.7c1.4,0,2.5-1.1,2.6-2.4l2.8-38.6h42L230.3,147z M153.5,144.8l6-6l-2.2-5.8h38.5l-1.4,19h-27.3
		l2.9-1.3L153.5,144.8z M191.3,193.8h-78.9L105,89.1l94,0.2l-2.8,37.7l-47.6,0l3.8,10.2l-10,10l11.4,4.1l-15.1,6.7H194L191.3,193.8z
		 M199.7,152l1.4-18.5l25.7,2.4l4.7,4.2l-11.7,4.9l7,7H199.7z"/>
</g>
</svg>
