<?xml version="1.0" encoding="utf-8"?>
<!-- Generator: Adobe Illustrator 22.1.0, SVG Export Plug-In . SVG Version: 6.00 Build 0)  -->
<svg version="1.1" id="Warstwa_1" xmlns="http://www.w3.org/2000/svg" xmlns:xlink="http://www.w3.org/1999/xlink" x="0px" y="0px"
	 viewBox="0 0 400 400" style="enable-background:new 0 0 400 400;" xml:space="preserve">
<style type="text/css">
	.st0{fill:#FFFFFF;}
</style>
<path class="st0" d="M301.8,205.7l39.1-39c7.2-7.2,10.6-18,10-32.3c-0.8-20.8-9.4-40.3-24.3-55.1c-14.8-14.8-34.5-23.3-55.3-24.1
	C257,54.7,246.1,58,239,65.2l-38.7,38.5l-39-39.1c-7.2-7.2-18-10.6-32.3-10c-20.8,0.8-40.3,9.4-55.1,24.3
	c-14.8,14.8-23.3,34.5-24.1,55.3c-0.5,14.3,2.8,25.2,9.9,32.4l38.5,38.7l-39.1,39c-7.2,7.2-10.6,18-10,32.3
	c0.8,20.8,9.4,40.3,24.3,55.1c14.8,14.8,34.5,23.3,55.3,24.1c1,0,2,0.1,3,0.1c12.9,0,22.7-3.4,29.4-10l38.7-38.5l39,39.1
	c6.7,6.7,16.5,10.1,29.3,10.1c1,0,2,0,3-0.1c20.8-0.8,40.3-9.4,55.1-24.3c14.8-14.8,23.3-34.5,24.1-55.3c0.5-14.3-2.8-25.2-9.9-32.4
	L301.8,205.7z M72.2,154c-4.4-4.4-5-12.9-4.8-19.2c1.3-33.8,28.6-61.3,62.3-62.6c6.3-0.2,14.7,0.4,19.1,4.8l39,39.1l-77,76.6
	L72.2,154z M148.6,333.3c-4.4,4.4-12.9,5-19.2,4.8c-33.8-1.3-61.3-28.6-62.6-62.3c-0.2-6.3,0.4-14.7,4.8-19.1l179.9-179
	c3.9-3.9,11-4.8,16.9-4.8c0.8,0,1.5,0,2.3,0c33.8,1.3,61.3,28.6,62.6,62.3c0.2,6.3-0.4,14.7-4.8,19.1L148.6,333.3z M332.6,276.1
	c-1.3,33.8-28.6,61.3-62.3,62.6c-6.3,0.2-14.7-0.4-19.1-4.8l-39-39.1l77-76.6l38.5,38.7C332.2,261.3,332.8,269.8,332.6,276.1
	L332.6,276.1z M332.6,276.1"/>
<path class="st0" d="M148,199.7c-3.2,3.2-3.2,8.3,0,11.5c3.2,3.2,8.4,3.2,11.5,0c3.2-3.2,3.2-8.3,0-11.5
	C156.4,196.6,151.2,196.6,148,199.7L148,199.7z M148,199.7"/>
<path class="st0" d="M185.1,182.5c0,4.5-3.7,8.1-8.2,8.1c-4.5,0-8.2-3.6-8.2-8.1c0-4.5,3.7-8.1,8.2-8.1
	C181.4,174.4,185.1,178,185.1,182.5L185.1,182.5z M185.1,182.5"/>
<path class="st0" d="M208.2,159.5c0,4.5-3.7,8.1-8.2,8.1c-4.5,0-8.2-3.6-8.2-8.1c0-4.5,3.7-8.1,8.2-8.1
	C204.5,151.4,208.2,155,208.2,159.5L208.2,159.5z M208.2,159.5"/>
<path class="st0" d="M171.1,222.7c-3.2,3.2-3.2,8.3,0,11.5c3.2,3.2,8.4,3.2,11.5,0c3.2-3.2,3.2-8.3,0-11.5
	C179.5,219.5,174.3,219.5,171.1,222.7L171.1,222.7z M171.1,222.7"/>
<path class="st0" d="M208.2,205.5c0,4.5-3.7,8.1-8.2,8.1c-4.5,0-8.2-3.6-8.2-8.1c0-4.5,3.7-8.1,8.2-8.1
	C204.5,197.4,208.2,201,208.2,205.5L208.2,205.5z M208.2,205.5"/>
<path class="st0" d="M228.9,188.2c3.2-3.2,3.2-8.3,0-11.5c-3.2-3.2-8.4-3.2-11.5,0c-3.2,3.2-3.2,8.3,0,11.5
	C220.5,191.4,225.7,191.4,228.9,188.2L228.9,188.2z M228.9,188.2"/>
<path class="st0" d="M208.2,251.4c0,4.5-3.7,8.1-8.2,8.1c-4.5,0-8.2-3.6-8.2-8.1c0-4.5,3.7-8.1,8.2-8.1
	C204.5,243.3,208.2,247,208.2,251.4L208.2,251.4z M208.2,251.4"/>
<path class="st0" d="M228.9,234.2c3.2-3.2,3.2-8.3,0-11.5c-3.2-3.2-8.4-3.2-11.5,0c-3.2,3.2-3.2,8.3,0,11.5
	C220.5,237.4,225.7,237.4,228.9,234.2L228.9,234.2z M228.9,234.2"/>
<path class="st0" d="M254.3,205.5c0,4.5-3.7,8.1-8.2,8.1c-4.5,0-8.2-3.6-8.2-8.1c0-4.5,3.7-8.1,8.2-8.1
	C250.7,197.4,254.3,201,254.3,205.5L254.3,205.5z M254.3,205.5"/>
</svg>
