<?xml version="1.0" encoding="utf-8"?>
<!-- Generator: Adobe Illustrator 22.1.0, SVG Export Plug-In . SVG Version: 6.00 Build 0)  -->
<svg version="1.1" id="Warstwa_1" xmlns="http://www.w3.org/2000/svg" xmlns:xlink="http://www.w3.org/1999/xlink" x="0px" y="0px"
	 viewBox="0 0 329 239" style="enable-background:new 0 0 329 239;" xml:space="preserve">
<style type="text/css">
	.st0{fill:#FFFFFF;}
</style>
<g>
	<path class="st0" d="M278.1,108.2c-0.6-3.2-3-5.6-6.2-6.3l-17.3-3.6l20.2-14c2.7-1.9,4-5,3.3-8.2c-0.6-3.2-3-5.6-6.2-6.3l-34.3-7.1
		c-1.8-0.4-3.6,0.8-3.9,2.6c-0.4,1.8,0.8,3.6,2.6,3.9l34.3,7.1c0.8,0.2,1,0.7,1.1,1.1c0.1,0.3,0.1,1-0.6,1.4l-30.8,21.3l-38.4-23
		c-2.5-1.5-5.6-1.5-8.2-0.1l-66.5,38.4l-68.4-14.3c-0.8-0.2-1-0.8-1.1-1.1c-0.1-0.3-0.1-1,0.6-1.4l73.6-50.9
		c0.3-0.2,0.7-0.3,1.1-0.2l86.9,18.1c1.8,0.4,3.6-0.8,3.9-2.6c0.4-1.8-0.8-3.6-2.6-3.9l-86.9-18.1c-2.2-0.4-4.4,0-6.2,1.3L54.5,93.3
		c-2.7,1.9-4,5-3.3,8.2c0.6,3.2,3,5.6,6.2,6.3l17.3,3.6l-20.2,14c-2.7,1.9-4,5-3.3,8.2c0.6,3.2,3,5.6,6.2,6.3l17.3,3.6l-20.2,14
		c-2.7,1.9-4,5-3.3,8.2c0.6,3.2,3,5.6,6.2,6.3L195,200.7c0.5,0.1,1.1,0.2,1.6,0.2c1.6,0,3.2-0.5,4.6-1.4l42.2-29.2
		c1.5-1,1.9-3.1,0.8-4.6c-1-1.5-3.1-1.9-4.6-0.8L197.5,194c-0.3,0.2-0.7,0.3-1.1,0.2L58.8,165.5c-0.8-0.2-1-0.7-1.1-1.1
		c-0.1-0.3-0.1-1,0.6-1.4l25.4-17.6l43.2,9c0.2,0,0.5,0.1,0.7,0.1c1.5,0,2.9-1.1,3.3-2.6c0.4-1.8-0.8-3.6-2.6-3.9l-69.4-14.5
		c-0.8-0.2-1-0.8-1.1-1.1c-0.1-0.3-0.1-1,0.6-1.4l25.4-17.6l43.4,9c0.4,0.1,0.7,0.1,1.1,0l44.9-5.9c0.1,1.8,1.5,3.2,3.3,3.2
		c0,0,0,0,0,0c1.8,0,3.3-1.5,3.3-3.4l0-0.4c0-0.1,0-0.2,0-0.4l49.7-6.6c0,0.2,0,0.3,0,0.5l0,0.4c0,1.8,1.5,3.3,3.3,3.3c0,0,0,0,0,0
		c1.8,0,3.3-1.5,3.3-3.4l0-0.4c0-0.5-0.1-0.9-0.3-1.3l5.1-0.7c0.5-0.1,1-0.3,1.5-0.6l4.8-3.3l23.5,4.9c0.8,0.2,1,0.8,1.1,1.1
		c0.1,0.3,0.1,1-0.6,1.4l-73.5,50.9c-0.3,0.2-0.7,0.3-1.1,0.2l-51.9-10.8c-1.8-0.4-3.6,0.8-3.9,2.6c-0.4,1.8,0.8,3.6,2.6,3.9
		l51.9,10.8c0.5,0.1,1.1,0.2,1.6,0.2c1.6,0,3.2-0.5,4.6-1.4l45.8-31.7l23.5,4.9c0.8,0.2,1,0.8,1.1,1.1c0.1,0.3,0.1,1-0.6,1.4
		l-18,12.4c-1.5,1-1.9,3.1-0.8,4.6c0.6,0.9,1.7,1.4,2.7,1.4c0.7,0,1.3-0.2,1.9-0.6l18-12.4c2.7-1.9,4-5,3.3-8.2
		c-0.6-3.2-3-5.6-6.2-6.3l-17.3-3.6l20.2-14C277.5,114.6,278.8,111.4,278.1,108.2z M143.9,113.6l53-30.6c0.4-0.3,1-0.2,1.4,0
		l32,19.2L143.9,113.6z"/>
	<path class="st0" d="M183.8,136.1C183.8,136.1,183.7,136.1,183.8,136.1c-1.9,0-3.4,1.5-3.3,3.4l0,0.4c0,1.8,1.5,3.3,3.3,3.3
		c0,0,0,0,0,0c1.8,0,3.3-1.5,3.3-3.4l0-0.4C187.1,137.6,185.6,136.1,183.8,136.1z"/>
	<path class="st0" d="M183.7,154.4C183.8,154.4,183.8,154.4,183.7,154.4c1.9,0,3.4-1.5,3.3-3.4l0-0.4c0-1.8-1.5-3.3-3.4-3.3
		c-1.8,0-3.3,1.5-3.3,3.4l0,0.4C180.4,152.9,181.9,154.4,183.7,154.4z"/>
	<path class="st0" d="M189.3,148.6l0.4,0c1.8,0,3.3-1.5,3.3-3.4c0-1.8-1.5-3.3-3.4-3.3l-0.4,0c-1.8,0-3.3,1.5-3.3,3.4
		C185.9,147.1,187.4,148.6,189.3,148.6C189.2,148.6,189.3,148.6,189.3,148.6z"/>
	<path class="st0" d="M178.3,141.9l-0.4,0c-1.8,0-3.3,1.5-3.3,3.4c0,1.8,1.5,3.3,3.3,3.3c0,0,0,0,0,0l0.4,0c1.8,0,3.3-1.5,3.3-3.4
		C181.6,143.4,180.1,141.9,178.3,141.9z"/>
	<path class="st0" d="M208.8,121.1c-1.8,0-3.3,1.5-3.3,3.4l0,0.4c0,1.8,1.5,3.3,3.3,3.3c0,0,0,0,0,0c1.8,0,3.3-1.5,3.3-3.4l0-0.4
		C212.2,122.6,210.7,121.1,208.8,121.1z"/>
	<path class="st0" d="M208.8,132.4c-1.8,0-3.3,1.5-3.3,3.4l0,0.4c0,1.8,1.5,3.3,3.3,3.3c0,0,0,0,0,0c1.8,0,3.3-1.5,3.3-3.4l0-0.4
		C212.1,133.8,210.6,132.4,208.8,132.4z"/>
	<path class="st0" d="M214.4,133.6l0.4,0c1.8,0,3.3-1.5,3.3-3.4c0-1.8-1.5-3.3-3.4-3.3l-0.4,0c-1.8,0-3.3,1.5-3.3,3.4
		C211,132.2,212.5,133.6,214.4,133.6C214.3,133.6,214.3,133.6,214.4,133.6z"/>
	<path class="st0" d="M203,126.9c-1.8,0-3.3,1.5-3.3,3.4c0,1.8,1.5,3.3,3.3,3.3c0,0,0,0,0,0l0.4,0c1.8,0,3.3-1.5,3.3-3.4
		c0-1.8-1.5-3.3-3.4-3.3L203,126.9z"/>
	<path class="st0" d="M229.2,120.8l0,0.4c0,1.8,1.5,3.3,3.3,3.3c0,0,0,0,0,0c1.8,0,3.3-1.5,3.3-3.4l0-0.4c0-1.8-1.5-3.3-3.4-3.3
		C230.7,117.4,229.2,118.9,229.2,120.8z"/>
	<path class="st0" d="M238.1,118.6C238.1,118.6,238.1,118.6,238.1,118.6l0.4,0c1.8,0,3.3-1.5,3.3-3.4c0-1.8-1.5-3.3-3.4-3.3l-0.4,0
		c-1.8,0-3.3,1.5-3.3,3.4C234.7,117.2,236.2,118.6,238.1,118.6z"/>
	<path class="st0" d="M227.1,111.9l-0.4,0c-1.8,0-3.3,1.5-3.3,3.4c0,1.8,1.5,3.3,3.3,3.3c0,0,0,0,0,0l0.4,0c1.8,0,3.3-1.5,3.3-3.4
		C230.4,113.4,228.9,111.9,227.1,111.9z"/>
	<path class="st0" d="M151.2,127.7C151.2,127.7,151.2,127.7,151.2,127.7c-1.9,0-3.4,1.5-3.3,3.4l0,0.4c0,1.8,1.5,3.3,3.3,3.3
		c0,0,0,0,0,0c1.8,0,3.3-1.5,3.3-3.4l0-0.4C154.5,129.1,153.1,127.7,151.2,127.7z"/>
	<path class="st0" d="M151.2,138.9c-1.8,0-3.3,1.5-3.3,3.4l0,0.4c0,1.8,1.5,3.3,3.3,3.3c0,0,0,0,0,0c1.8,0,3.3-1.5,3.3-3.4l0-0.4
		C154.5,140.4,153,138.9,151.2,138.9z"/>
	<path class="st0" d="M156.7,140.1l0.4,0c1.8,0,3.3-1.5,3.3-3.4c0-1.8-1.5-3.3-3.4-3.3l-0.4,0c-1.8,0-3.3,1.5-3.3,3.4
		C153.4,138.7,154.9,140.1,156.7,140.1C156.7,140.1,156.7,140.1,156.7,140.1z"/>
	<path class="st0" d="M145.4,133.4c-1.8,0-3.3,1.5-3.3,3.4c0,1.8,1.5,3.3,3.3,3.3c0,0,0,0,0,0l0.4,0c1.8,0,3.3-1.5,3.3-3.4
		c0-1.8-1.5-3.3-3.4-3.3L145.4,133.4z"/>
	<path class="st0" d="M173,127.3l0,0.4c0,1.8,1.5,3.3,3.3,3.3c0,0,0,0,0,0c1.8,0,3.3-1.5,3.3-3.4l0-0.4c0-1.8-1.5-3.3-3.4-3.3
		C174.4,123.9,172.9,125.5,173,127.3z"/>
	<path class="st0" d="M182.1,118.5l-0.4,0c-1.8,0-3.3,1.5-3.3,3.4c0,1.8,1.5,3.3,3.3,3.3c0,0,0,0,0,0l0.4,0c1.8,0,3.3-1.5,3.3-3.4
		C185.4,119.9,183.9,118.5,182.1,118.5z"/>
	<path class="st0" d="M170.8,118.5l-0.4,0c-1.8,0-3.3,1.5-3.3,3.4c0,1.8,1.5,3.3,3.3,3.3c0,0,0,0,0,0l0.4,0c1.8,0,3.3-1.5,3.3-3.4
		C174.1,119.9,172.6,118.4,170.8,118.5z"/>
	<path class="st0" d="M121.4,128.9C121.4,128.9,121.4,128.9,121.4,128.9c1.9,0,3.4-1.5,3.3-3.4l0-0.4c0-1.8-1.5-3.3-3.4-3.3
		c-1.8,0-3.3,1.5-3.3,3.4l0,0.4C118.1,127.4,119.5,128.9,121.4,128.9z"/>
	<path class="st0" d="M121.3,140.1C121.3,140.1,121.4,140.1,121.3,140.1c1.9,0,3.4-1.5,3.3-3.4l0-0.4c0-1.8-1.5-3.3-3.3-3.3
		c0,0,0,0,0,0c-1.8,0-3.3,1.5-3.3,3.4l0,0.4C118,138.7,119.5,140.1,121.3,140.1z"/>
	<path class="st0" d="M126.9,134.3l0.4,0c1.8,0,3.3-1.5,3.3-3.4c0-1.8-1.5-3.3-3.4-3.3l-0.4,0c-1.8,0-3.3,1.5-3.3,3.4
		C123.5,132.9,125,134.3,126.9,134.3C126.8,134.3,126.8,134.3,126.9,134.3z"/>
	<path class="st0" d="M115.5,127.6c-1.8,0-3.3,1.5-3.3,3.4c0,1.8,1.5,3.3,3.3,3.3c0,0,0,0,0,0l0.4,0c1.8,0,3.3-1.5,3.3-3.4
		c0-1.8-1.5-3.3-3.4-3.3L115.5,127.6z"/>
	<path class="st0" d="M90.2,124.4C90.2,124.4,90.2,124.4,90.2,124.4c1.9,0,3.4-1.5,3.3-3.4l0-0.4c0-1.8-1.5-3.3-3.4-3.3
		c-1.8,0-3.3,1.5-3.3,3.4l0,0.4C86.9,122.9,88.3,124.4,90.2,124.4z"/>
	<path class="st0" d="M90.1,135.6C90.1,135.6,90.2,135.6,90.1,135.6c1.9,0,3.4-1.5,3.3-3.4l0-0.4c0-1.8-1.5-3.3-3.4-3.3
		c-1.8,0-3.3,1.5-3.3,3.4l0,0.4C86.8,134.2,88.3,135.6,90.1,135.6z"/>
	<path class="st0" d="M95.6,129.9l0.4,0c1.8,0,3.3-1.5,3.3-3.4c0-1.8-1.5-3.3-3.4-3.3l-0.4,0c-1.8,0-3.3,1.5-3.3,3.4
		C92.3,128.4,93.8,129.9,95.6,129.9C95.6,129.9,95.6,129.9,95.6,129.9z"/>
	<path class="st0" d="M84.3,123.2c-1.8,0-3.3,1.5-3.3,3.4c0,1.8,1.5,3.3,3.3,3.3c0,0,0,0,0,0l0.4,0c1.8,0,3.3-1.5,3.3-3.4
		c0-1.8-1.6-3.3-3.4-3.3L84.3,123.2z"/>
</g>
</svg>
