<?xml version="1.0" encoding="utf-8"?>
<!-- Generator: Adobe Illustrator 24.0.2, SVG Export Plug-In . SVG Version: 6.00 Build 0)  -->
<svg version="1.1" id="Warstwa_1" xmlns="http://www.w3.org/2000/svg" xmlns:xlink="http://www.w3.org/1999/xlink" x="0px" y="0px"
	 viewBox="0 0 329 239" style="enable-background:new 0 0 329 239;" xml:space="preserve">
<style type="text/css">
	.st0{fill:#FFFFFF;}
</style>
<path class="st0" d="M260,18.8H77.8c-2.1,0-3.8,1.7-3.8,3.8v182.2c0,2.1,1.7,3.8,3.8,3.8H260c2.1,0,3.8-1.7,3.8-3.8V22.6
	C263.7,20.5,262,18.8,260,18.8z M256.1,156.6V201h-44.5v-44.5H256.1z M211.7,96.9V78.5h18.5v18.5H211.7z M230.1,104.6V149h-44.5
	v-44.5H230.1z M204,156.6V175h-18.5v-18.5H204z M204,182.6V201h-44.5v-18.5H204z M178,130.6V175h-44.5v-44.5H178z M133.6,70.9V52.5
	H152v18.5H133.6z M133.6,44.9V26.5H178v18.5H133.6z M159.6,122.9v-18.5H178v18.5H159.6z M159.6,96.9V52.5H204v44.5H159.6z
	 M185.6,44.9V26.5H204v18.5H185.6z M152,78.5v44.5h-44.5V78.5H152z M126,130.6V149h-18.5v-18.5H126z M81.5,70.9V26.5h44.5v44.5H81.5
	z M81.5,96.9V78.5h18.5v18.5H81.5z M81.5,149v-44.5h18.5V149H81.5z M125.9,156.6V199H124v2H81.5v-44.5H125.9z M152,182.6V201h-18.5
	v-18.5H152z M256.1,130.6V149h-18.5v-18.5H256.1z M256.1,78.5v44.5h-18.5V78.5H256.1z M256.1,26.5v44.5h-44.5V26.5H256.1z"/>
</svg>
