<?xml version="1.0" encoding="utf-8"?>
<!-- Generator: Adobe Illustrator 22.1.0, SVG Export Plug-In . SVG Version: 6.00 Build 0)  -->
<svg version="1.1" id="Warstwa_1" xmlns="http://www.w3.org/2000/svg" xmlns:xlink="http://www.w3.org/1999/xlink" x="0px" y="0px"
	 viewBox="0 0 329 239" style="enable-background:new 0 0 329 239;" xml:space="preserve">
<style type="text/css">
	.st0{fill:#FFFFFF;}
</style>
<g>
	<path class="st0" d="M246,94h-27.6l27.2-58.2c1.3-2.8,1.4-5.9,0.3-8.8c-1.1-2.9-3.3-5.1-6.1-6.4c-2.8-1.2-6-1.2-8.8,0
		c-2.8,1.2-5,3.5-6.1,6.4L199.1,94h-60.8v-2.4c0-26-21.2-47.2-47.2-47.2c-19.2,0-34.8,15.6-34.8,34.8v46.4c0,7.2,5.9,13.1,13.1,13.1
		s13.1-5.9,13.1-13.1v-65c0-4.7,3.8-8.6,8.6-8.6c15,0,27.1,12.2,27.1,27.1v15.5c-3.7,1.5-6.2,5.2-6.2,9.3c0,5.4,4.3,9.8,9.6,10
		l8.5,96.2c0.5,5.2,4.7,9.1,10,9.1h87.7c5.2,0,9.5-3.9,10-9.1l8.5-96.2c5.3-0.2,9.6-4.6,9.6-10C256,98.5,251.5,94,246,94z M207.3,94
		L232,29.7v0c0.4-0.9,1.1-1.7,2-2.1c0.9-0.4,1.9-0.4,2.9,0c0.9,0.4,1.6,1.1,2,2.1c0.4,0.9,0.3,1.9-0.1,2.9L209.9,94H207.3z
		 M130.7,94h-4.7V79.2c0-2.7-0.3-5.4-0.9-8c3.7,6.1,5.7,13.2,5.7,20.4V94z M246,106.4h-12.4c-2.1,0-3.8,1.7-3.8,3.8
		c0,2.1,1.7,3.8,3.8,3.8h5.1l-8.4,95.5c-0.1,1.2-1.1,2.2-2.4,2.2h-87.7c-1.2,0-2.3-0.9-2.4-2.2l-8.4-95.5h91.8
		c2.1,0,3.8-1.7,3.8-3.8c0-2.1-1.7-3.8-3.8-3.8h-99.1c-1.3,0-2.4-1.1-2.4-2.4c0-1.3,1.1-2.4,2.4-2.4H246c1.3,0,2.4,1.1,2.4,2.4
		C248.3,105.3,247.3,106.4,246,106.4z M74.9,125.7c0,3-2.5,5.5-5.5,5.5c-3,0-5.5-2.5-5.5-5.5V79.2c0-8.7,4.3-17,11.3-22
		c-0.2,1.1-0.4,2.3-0.4,3.5V125.7z"/>
	<path class="st0" d="M184,125c-20.9,0-37.9,17-37.9,37.9s17,37.9,37.9,37.9c20.9,0,37.9-17,37.9-37.9S204.9,125,184,125z
		 M214.3,162.9c0,16.7-13.6,30.2-30.2,30.2c-16.7,0-30.2-13.6-30.2-30.2c0-16.7,13.6-30.2,30.2-30.2
		C200.7,132.6,214.3,146.2,214.3,162.9z"/>
	<path class="st0" d="M193.1,151.5h-1.7l3.7-5c0.6-0.8,0.9-1.8,0.7-2.8c-0.1-1-0.7-1.9-1.5-2.5c-0.8-0.6-1.8-0.9-2.8-0.7
		c-1,0.1-1.9,0.7-2.5,1.5l-4.9,6.6l-4.9-6.6c-0.6-0.8-1.5-1.3-2.5-1.5c-1-0.1-2,0.1-2.8,0.7c-1.7,1.3-2,3.7-0.8,5.3l3.7,5H175
		c-4,0-7.7,2.2-9.5,5.8c-1.9,3.6-1.6,7.8,0.7,11.1l9,12.9c2,2.9,5.3,4.6,8.8,4.6c3.5,0,6.8-1.7,8.8-4.6c1.2-1.7,0.8-4.1-0.9-5.3
		c-0.8-0.6-1.8-0.8-2.9-0.6c-1,0.2-1.9,0.7-2.5,1.6c-0.6,0.8-1.5,1.3-2.5,1.3c-1,0-2-0.5-2.5-1.3l-9-12.9c-0.7-1-0.8-2.2-0.2-3.2
		c0.5-1,1.6-1.7,2.8-1.7h18.1c1.2,0,2.2,0.6,2.8,1.7c0.5,1,0.5,2.2-0.2,3.2l-2,2.8c-1.2,1.7-0.8,4.1,0.9,5.3
		c0.8,0.6,1.8,0.8,2.9,0.6c1-0.2,1.9-0.7,2.5-1.6l2-2.8c2.3-3.3,2.6-7.6,0.7-11.1C200.7,153.8,197.1,151.5,193.1,151.5z"/>
</g>
</svg>
