<?xml version="1.0" encoding="utf-8"?>
<!-- Generator: Adobe Illustrator 22.1.0, SVG Export Plug-In . SVG Version: 6.00 Build 0)  -->
<svg version="1.1" id="Warstwa_1" xmlns="http://www.w3.org/2000/svg" xmlns:xlink="http://www.w3.org/1999/xlink" x="0px" y="0px"
	 viewBox="0 0 329 239" style="enable-background:new 0 0 329 239;" xml:space="preserve">
<style type="text/css">
	.st0{fill:#FFFFFF;}
</style>
<g>
	<path class="st0" d="M162,56.5V34.4c0-2.2-1.8-4.1-4.1-4.1h-24.4c-2.2,0-4.1,1.8-4.1,4.1v22.1c-10.1,6-16.3,16.7-16.3,28.6v116
		c0,9,7.3,16.3,16.3,16.3H162c9,0,16.3-7.3,16.3-16.3v-116C178.3,73.2,172.1,62.5,162,56.5L162,56.5z M137.6,38.5h16.3v4.1
		c-2.2,0-4.1,1.8-4.1,4.1s1.8,4.1,4.1,4.1v4.1h-16.3V38.5z M170.1,201.1c0,4.5-3.6,8.1-8.1,8.1h-32.5c-4.5,0-8.1-3.6-8.1-8.1V87.2
		h48.8V201.1z M122.1,79.1c1.7-6.9,6.1-12.8,12.4-16.3H157c6.4,3.5,10.8,9.4,12.4,16.3H122.1z M122.1,79.1"/>
	<path class="st0" d="M194.5,46.6c0-2.2-1.8-4.1-4.1-4.1h-12.2c-2.2,0-4.1,1.8-4.1,4.1c0,2.2,1.8,4.1,4.1,4.1h12.2
		C192.7,50.6,194.5,48.8,194.5,46.6L194.5,46.6z M194.5,46.6"/>
	<path class="st0" d="M186.4,58.8c0,2.2,1.8,4.1,4.1,4.1h16.3c2.2,0,4.1-1.8,4.1-4.1c0-2.2-1.8-4.1-4.1-4.1h-16.3
		C188.2,54.7,186.4,56.5,186.4,58.8L186.4,58.8z M186.4,58.8"/>
	<path class="st0" d="M231,40.1c0.1-0.6,0.1-1.1,0.1-1.7c0-9-7.3-16.3-16.3-16.3c-9,0-16.3,7.3-16.3,16.3c0,2.2,1.8,4.1,4.1,4.1
		c2.2,0,4.1-1.8,4.1-4.1c0-4.5,3.6-8.1,8.1-8.1c4.5,0,8.1,3.6,8.1,8.1c0,1-0.2,1.9-0.6,2.9c-0.4,1.1-0.4,2.4,0.2,3.4
		c0.6,1.1,1.6,1.8,2.8,2c5.7,1.1,9.8,6.2,9.8,12c0,5.5-3.8,10.4-9.2,11.8c-1.9,0.5-3.1,2.6-3,4.5c0,5.7-6.1,10-11.7,7.2
		c-2-1-4.3-0.2-5.4,1.7c-1.1,2-3.1,3.3-5.2,3.3c-3.4,0-6.1-2.7-6.1-6.1c0-2.2-1.8-4.1-4.1-4.1c-2.2,0-4.1,1.8-4.1,4.1
		c0,7.8,6.4,14.2,14.2,14.2c3.9,0,7.6-1.7,10.3-4.6c9,2.3,18.3-3.9,19.9-13.3c7.5-3.1,12.5-10.4,12.5-18.7
		C243.3,50.6,238.4,43.3,231,40.1L231,40.1z M231,40.1"/>
</g>
</svg>
