<?xml version="1.0" encoding="utf-8"?>
<!-- Generator: Adobe Illustrator 22.1.0, SVG Export Plug-In . SVG Version: 6.00 Build 0)  -->
<svg version="1.1" id="Warstwa_1" xmlns="http://www.w3.org/2000/svg" xmlns:xlink="http://www.w3.org/1999/xlink" x="0px" y="0px"
	 viewBox="0 0 329 239" style="enable-background:new 0 0 329 239;" xml:space="preserve">
<style type="text/css">
	.st0{fill:#FFFFFF;}
</style>
<g>
	<path class="st0" d="M254.6,69.9l-0.2-0.1H82.1l-0.2,0.1c-1.6,0.6-2.7,2.1-2.7,3.9c0,2.3,1.9,4.2,4.2,4.2h11.2l16.7,88.8
		c0.2,8.7,7.1,15.7,15.4,15.7h85.9c8.3,0,15.2-7,15.4-15.7L244.7,78h8.4c2.3,0,4.2-1.9,4.2-4.2C257.3,72.1,256.2,70.6,254.6,69.9z
		 M213.1,78c-3.9,5.5-10,8.7-16.9,8.7s-13-3.2-16.9-8.7H213.1z M223.7,145h-15.8c-2.3,0-4.2,1.9-4.2,4.2s1.9,4.2,4.2,4.2h14.2
		l-1.3,6.7c-1.1,5.9-1.1,5.9-1.1,6.3c0,4.3-3.2,7.8-7.1,7.8h-85.9c-3.9,0-7.1-3.5-7.1-7.8c0-0.3,0-0.3-1.1-6.2l-1.3-6.8h76
		c2.3,0,4.2-1.9,4.2-4.2s-1.9-4.2-4.2-4.2h-24.8c0.8-1.2,1.2-2.6,1.2-4.2c0-4.2-3.4-7.5-7.5-7.5s-7.5,3.4-7.5,7.5
		c0,1.5,0.5,3,1.2,4.2h-40.2l-6.8-36h63h58.5L223.7,145z M232,100.7H107.3L103,78h66.9c4.7,10.5,14.8,17,26.4,17
		c11.6,0,21.6-6.5,26.4-17h13.6L232,100.7z"/>
	<path class="st0" d="M136.8,118.2L136.8,118.2c-4.2,0-7.5,3.4-7.5,7.5v0c0,4.2,3.4,7.5,7.5,7.5h0c4.2,0,7.5-3.4,7.5-7.5v0
		C144.3,121.6,141,118.2,136.8,118.2z"/>
	<circle class="st0" cx="171.9" cy="116.5" r="7.5"/>
	<path class="st0" d="M213.1,133.7c4.2,0,7.5-3.4,7.5-7.5v0c0-4.2-3.4-7.5-7.5-7.5c-4.2,0-7.5,3.4-7.5,7.5v0
		C205.6,130.3,209,133.7,213.1,133.7z"/>
</g>
</svg>
