<?xml version="1.0" encoding="utf-8"?>
<!-- Generator: Adobe Illustrator 22.1.0, SVG Export Plug-In . SVG Version: 6.00 Build 0)  -->
<svg version="1.1" id="Warstwa_1" xmlns="http://www.w3.org/2000/svg" xmlns:xlink="http://www.w3.org/1999/xlink" x="0px" y="0px"
	 viewBox="0 0 329 239" style="enable-background:new 0 0 329 239;" xml:space="preserve">
<style type="text/css">
	.st0{fill:#FFFFFF;}
</style>
<g>
	<path class="st0" d="M266.6,47H132.9c-1.9,0-3.5,1.6-3.5,3.5H62.5c-1.9,0-3.5,1.6-3.5,3.5v133.7c0,1.9,1.6,3.5,3.5,3.5h66.9
		c0,1.9,1.6,3.5,3.5,3.5h133.7c1.9,0,3.5-1.6,3.5-3.5V50.5C270.2,48.6,268.6,47,266.6,47L266.6,47z M129.4,184.3H66v-24.6h63.3
		V184.3z M129.4,131.5h-29c-1.9-4.1-7-7-13.2-7c-7.9,0-14.1,4.6-14.1,10.6s6.2,10.6,14.1,10.6c6.2,0,11.3-2.9,13.2-7h29v14.1H66v-95
		h63.3V131.5z M94.2,135c0,1.4-2.7,3.5-7,3.5c-4.3,0-7-2.1-7-3.5c0-1.4,2.7-3.5,7-3.5C91.5,131.5,94.2,133.5,94.2,135L94.2,135z
		 M136.4,159.6h5.6l-5.6,5.6V159.6z M242,165.2l-5.6-5.6h11.2L242,165.2z M252.6,164.6l5.6,5.6l-5.6,5.6l-5.6-5.6L252.6,164.6z
		 M237,170.2l-5.6,5.6l-5.6-5.6l5.6-5.6L237,170.2z M220.9,165.2l-5.6-5.6h11.2L220.9,165.2z M215.9,170.2l-5.6,5.6l-5.6-5.6
		l5.6-5.6L215.9,170.2z M199.8,165.2l-5.6-5.6h11.2L199.8,165.2z M194.8,170.2l-5.6,5.6l-5.6-5.6l5.6-5.6L194.8,170.2z M178.7,165.2
		l-5.6-5.6h11.2L178.7,165.2z M173.7,170.2l-5.6,5.6l-5.6-5.6l5.6-5.6L173.7,170.2z M157.5,165.2l-5.6-5.6h11.2L157.5,165.2z
		 M152.6,170.2l-5.6,5.6l-5.6-5.6l5.6-5.6L152.6,170.2z M136.4,186.3v-11.2l5.6,5.6L136.4,186.3z M144.9,187.8l2.1-2.1l2.1,2.1
		H144.9z M157.5,186.3l-5.6-5.6l5.6-5.6l5.6,5.6L157.5,186.3z M166,187.8l2.1-2.1l2.1,2.1H166z M178.7,186.3l-5.6-5.6l5.6-5.6
		l5.6,5.6L178.7,186.3z M187.2,187.8l2.1-2.1l2.1,2.1H187.2z M199.8,186.3l-5.6-5.6l5.6-5.6l5.6,5.6L199.8,186.3z M208.3,187.8
		l2.1-2.1l2.1,2.1H208.3z M220.9,186.3l-5.6-5.6l5.6-5.6l5.6,5.6L220.9,186.3z M229.4,187.8l2.1-2.1l2.1,2.1H229.4z M242,186.3
		l-5.6-5.6l5.6-5.6l5.6,5.6L242,186.3z M250.5,187.8l2.1-2.1l2.1,2.1H250.5z M263.1,186.3l-5.6-5.6l5.6-5.6V186.3z M263.1,165.2
		l-5.6-5.6h5.6V165.2z M263.1,152.6H136.4V54h126.7V152.6z M263.1,152.6"/>
	<path class="st0" d="M231.4,64.6h-63.3c-9.7,0-17.6,7.9-17.6,17.6v42.2c0,9.7,7.9,17.6,17.6,17.6h63.3c9.7,0,17.6-7.9,17.6-17.6
		V82.2C249,72.5,241.1,64.6,231.4,64.6L231.4,64.6z M242,124.4c0,5.8-4.7,10.6-10.6,10.6h-63.3c-5.8,0-10.6-4.7-10.6-10.6V82.2
		c0-5.8,4.7-10.6,10.6-10.6h63.3c5.8,0,10.6,4.7,10.6,10.6V124.4z M242,124.4"/>
	<path class="st0" d="M223.6,97.6c-0.4-1.3-1.5-2.2-2.8-2.4l-12.3-1.8l-5.5-11.1c-1.2-2.4-5.1-2.4-6.3,0l-5.5,11.1l-12.3,1.8
		c-1.3,0.2-2.4,1.1-2.8,2.4c-0.4,1.3-0.1,2.7,0.9,3.6l8.9,8.7l-2.1,12.2c-0.2,1.3,0.3,2.7,1.4,3.4c1.1,0.8,2.5,0.9,3.7,0.3l11-5.8
		l11,5.8c0.5,0.3,1.1,0.4,1.6,0.4c0.7,0,1.5-0.2,2.1-0.7c1.1-0.8,1.6-2.1,1.4-3.4l-2.1-12.2l8.9-8.7
		C223.6,100.3,224,98.9,223.6,97.6L223.6,97.6z M207.5,106.2c-0.8,0.8-1.2,2-1,3.1l1.2,7l-6.3-3.3c-0.5-0.3-1.1-0.4-1.6-0.4
		s-1.1,0.1-1.6,0.4l-6.3,3.3l1.2-7c0.2-1.1-0.2-2.3-1-3.1l-5.1-5l7.1-1c1.1-0.2,2.1-0.9,2.6-1.9l3.2-6.4l3.2,6.4
		c0.5,1,1.5,1.8,2.6,1.9l7.1,1L207.5,106.2z M207.5,106.2"/>
</g>
</svg>
