<?xml version="1.0" encoding="utf-8"?>
<!-- Generator: Adobe Illustrator 22.1.0, SVG Export Plug-In . SVG Version: 6.00 Build 0)  -->
<svg version="1.1" id="Warstwa_1" xmlns="http://www.w3.org/2000/svg" xmlns:xlink="http://www.w3.org/1999/xlink" x="0px" y="0px"
	 viewBox="0 0 329 239" style="enable-background:new 0 0 329 239;" xml:space="preserve">
<style type="text/css">
	.st0{fill:#FFFFFF;}
</style>
<g>
	<path class="st0" d="M219.5,143.2c1.3-0.4,20.2-9.9,21.3-10.2c2.2-0.7,4.6-1.4,7.5-2.5c0.9-0.3,1.6-1.2,1.7-2.2l2.9-47.8
		c0.1-1.1-0.6-2.1-1.6-2.5l-53.1-21.1c-4-1.6-8.5-3.4-13.4-3.1c-4.5,0.3-8.4,2.3-11.9,4l-96.1,48.2c-0.9,0.5-1.5,1.4-1.4,2.5
		l4.7,52.5c0.1,0.9,0.7,1.7,1.5,2.1l46,19.3c4.2,1.8,9,3.8,14.2,3.9c0.2,0,0.5,0,0.7,0c8,0,19.5-6.2,19.5-6.2
		C156,183.4,219.5,143.2,219.5,143.2z M175.2,164.7l0.1-47.8c3.7-2.1,7.7-3.8,11.5-5.6c9.5-4.5,19-8.8,28.6-13l-1.9,42.5
		C212.1,141.5,177.6,163.6,175.2,164.7z M245.1,126.3c-2.2,0.8-23.9,12.1-26.8,10.9c-0.9-0.4,2.3-41.1,2.3-41.1
		c9-3.9,18-7.6,27-11.2L245.1,126.3z M175.2,62.4c3.2-1.6,6.5-3.3,10-3.5c3.8-0.2,7.7,1.3,11.2,2.7l48.1,19.1
		c-2.2,0.9-4.5,1.8-6.7,2.7c-5.3,2.1-10.5,4.3-15.7,6.6c-2.8-2.9-6.9-4.1-10.1-5.1C195.9,79.9,179.7,74.3,164,68
		C167.7,66.1,171.5,64.3,175.2,62.4z M114.7,93.3c3.3-2.3,6.8-4,10.4-5.8c8.1-4.1,16.2-8.1,24.3-12.2c2.9-1.4,5.7-2.9,8.6-4.3
		c17.2,7,34.9,13.3,52.6,18.6c2.2,0.7,4.5,1.4,6.4,2.5c-15.1,6.5-30.1,13.4-44.8,20.6c0,0-0.1,0-0.1,0c-19.2-6.8-38.9-13-58.6-18.7
		C113.8,93.9,114.3,93.6,114.7,93.3z M83.8,145.5c-0.6-2.6-0.5-5.5-0.7-8.2c-0.5-5.8-0.4-11.7-0.9-17.5l16.6,23.3l-13.9,12.3
		C84.6,152.1,84.5,148.8,83.8,145.5z M83.6,113.2c0.6,0.2,1.1,0.5,1.3,0.5c2.5,0.8,4.9,1.5,7.4,2.3c6.8,2.1,13.7,4.2,20.5,6.3
		c6.5,2,13.1,4,19.6,6c1.6,0.5,4.6,1.1,6.7,2.2c-5.7,4.9-11.2,10-16.6,15.2c-2-2.8-4.1-5.6-6.3-8.3c-0.7-0.9-1.9-2.3-3.7-2.9
		c-3.3-1-6.1,1.5-7.3,2.5l-2.9,2.6L83.6,113.2z M129.7,177.9c0,0-33.7-14.2-42.5-17.9l21.6-19.1c1.7-1.5,2.3-1.5,2.5-1.5
		c0.3,0.1,0.9,0.8,1.2,1.2c9.8,12.3,18.2,25.8,24.8,40.1C134.6,180.1,132,178.9,129.7,177.9z M141.6,144c0,4-0.1,8-0.1,12
		c-0.1,5.1-0.3,10.2-0.3,15.2c0,2,0,3.9,0,5.9c-4.5-9.4-9.7-18.5-15.5-27.2c5.3-5.1,10.8-10.2,16.3-15
		C142.1,137.9,141.6,141.2,141.6,144z M144.4,126.8l-60.5-18.6c4-2,7.9-4,11.9-6c3.6-1.8,7.5-3.2,11.3-4.9c0.3,0.2,0.6,0.4,0.9,0.5
		c19.3,5.4,38.7,11.5,57.7,18.1c-2.5,1.2-5,2.5-7.5,3.7c-2.4,1.2-4.8,2.4-7.2,3.7C150,123.9,145.4,127.1,144.4,126.8z M146.2,181.1
		l0.5-49.8c0-0.6,6-3.1,6.7-3.5c2.4-1.2,4.7-2.4,7.1-3.6c3.1-1.6,6.5-2.8,9.7-4.3l0.3,49.6C167.5,171.1,152,179.9,146.2,181.1z"/>
</g>
</svg>
