<?xml version="1.0" encoding="utf-8"?>
<!-- Generator: Adobe Illustrator 22.1.0, SVG Export Plug-In . SVG Version: 6.00 Build 0)  -->
<svg version="1.1" id="Warstwa_1" xmlns="http://www.w3.org/2000/svg" xmlns:xlink="http://www.w3.org/1999/xlink" x="0px" y="0px"
	 viewBox="0 0 329 239" style="enable-background:new 0 0 329 239;" xml:space="preserve">
<style type="text/css">
	.st0{fill:#FFFFFF;}
</style>
<g>
	<path class="st0" d="M112.9,187.9c1.9-0.2,3.2-1.7,3-3.3l-7.9-73.8c-0.2-1.7-1.8-2.9-3.7-2.7c-1.9,0.2-3.2,1.7-3,3.3l7.9,73.8
		c0.2,1.6,1.6,2.8,3.4,2.8C112.7,187.9,112.8,187.9,112.9,187.9z"/>
	<path class="st0" d="M248.1,82.7c0,0-10.7-21.6-11.6-23.2c-2.9-5.3-9.8-10-20-13.6c-12.9-4.6-30-7.1-48.2-7.1
		c-18.1,0-35.3,2.5-48.2,7.1c-10.1,3.6-16.9,8.2-19.9,13.3c-1,1.7-11.8,23.5-11.8,23.5c-0.2,0.4-0.4,0.9-0.4,1.4
		c0,8.6,8.8,16.4,24.6,22c14.9,5.3,34.6,8.2,55.5,8.2c20.9,0,40.7-2.9,55.5-8.2c1.9-0.7,3.7-1.4,5.4-2.1l-2.6,23.9
		c-0.2,1.7,1.2,3.2,3,3.3c0.1,0,0.2,0,0.3,0c1.7,0,3.2-1.2,3.4-2.8l3-28.2c7.9-4.7,12.1-10.3,12.1-16.3
		C248.4,83.6,248.3,83.1,248.1,82.7z M122.5,51.6c12.2-4.3,28.4-6.7,45.7-6.7c37.1,0,63,10.7,63,20.4c0,4.8-6.3,9.9-17.3,13.7
		c-12.2,4.3-28.4,6.7-45.7,6.7c-37.1,0-63-10.7-63-20.4C105.2,60.5,111.5,55.5,122.5,51.6z M221.3,100.4c-14.1,5-33,7.7-53.1,7.7
		c-20.1,0-39-2.7-53.1-7.7C102.7,96,95.4,90.3,94.8,84.7l6.5-11.7c3.4,4.5,9.8,8.5,18.8,11.7c12.9,4.6,30,7.1,48.2,7.1
		c18.1,0,35.2-2.5,48.2-7.1c9-3.2,15.4-7.2,18.8-11.7l6.5,11.7C241.1,90.3,233.8,96,221.3,100.4z"/>
	<path class="st0" d="M229,136.7c-1.9-0.2-3.5,1.1-3.7,2.7l-5.8,53.9c-0.1-0.1-0.7,3-2.7,5.7c-1.4,1.4-3.5,2.7-6,3.9
		c-1.2,0.5-2.5,1-4,1.6c-8.5,2.9-19.3,4.8-31,5.4c-2.5,0.2-5.2,0.2-7.8,0.2c-3.3,0-6.5-0.1-9.6-0.4c-10.8-0.7-20.8-2.5-28.8-5.2
		c-5.7-2-8.7-3.9-10.2-5.1l-0.2-0.3c-0.5-0.8-6.5-4.3-7.2-0.6c-0.1,0.6,0,1.6,0.3,2.1c1.2,2.5,5.8,6.3,15.2,9.5
		c11,3.8,25.5,5.9,40.8,5.9c14.6,0,28.4-1.9,39.2-5.4c0,0,0.1,0,0.1,0c0.4,0,0.8-0.1,1.3-0.2c2.5-0.9,4.6-1.9,6.6-2.9
		c5.8-2.8,8.6-5.7,9.1-7.6c0,0,0,0,0-0.1c1.1-1.8,1.7-3.6,1.7-5.5l5.8-54.5C232.3,138.4,230.9,136.9,229,136.7z"/>
</g>
</svg>
