<?xml version="1.0" encoding="utf-8"?>
<!-- Generator: Adobe Illustrator 22.1.0, SVG Export Plug-In . SVG Version: 6.00 Build 0)  -->
<svg version="1.1" id="Warstwa_1" xmlns="http://www.w3.org/2000/svg" xmlns:xlink="http://www.w3.org/1999/xlink" x="0px" y="0px"
	 viewBox="0 0 329 239" style="enable-background:new 0 0 329 239;" xml:space="preserve">
<style type="text/css">
	.st0{fill:#FFFFFF;}
</style>
<g>
	<path class="st0" d="M236.4,70.9h-5.9c-14.5-10.9-40.1-18-69.9-18C114.3,52.8,78,70,78,92v57.7c0,22,36.3,39.2,82.7,39.2
		c46.4,0,82.7-17.2,82.7-39.2V106c4.1-2.4,6.9-6.8,6.9-11.9v-9.5C250.2,77,244,70.9,236.4,70.9L236.4,70.9z M160.7,62
		c20.6,0,38.2,3.6,51,8.9h-1.2c-3.2,0-6.2,1.1-8.5,3c-11.9-3.7-26.4-5.7-41.3-5.7c-19.1,0-37.6,3.4-50.9,9.2
		C97.6,82.7,93.3,88.6,93.3,92c0,3.4,4.3,9.3,16.5,14.7c13.2,5.9,31.8,9.2,50.9,9.2c17.9,0,35.4-3,48.4-8.2c0.5,0,0.9,0.1,1.4,0.1
		h11.7c-12.7,8.1-34.5,14.2-61.5,14.2c-43.3,0-73.5-15.8-73.5-30.1C87.2,77.8,117.4,62,160.7,62L160.7,62z M198.9,101.6
		c-11,3.3-24.4,5.2-38.2,5.2c-17.9,0-35.1-3.1-47.1-8.4c-5.8-2.6-8.7-4.9-10.2-6.3c1.4-1.4,4.4-3.8,10.2-6.3
		c12.1-5.4,29.3-8.4,47.1-8.4c13,0,25.7,1.6,36.3,4.6c-0.2,0.9-0.3,1.8-0.3,2.7v9.5C196.7,96.9,197.5,99.5,198.9,101.6L198.9,101.6z
		 M234.2,149.8c0,14.2-30.2,30.1-73.5,30.1c-43.3,0-73.5-15.8-73.5-30.1v-39.5c13.6,12.6,41.1,21,73.5,21c32.4,0,59.9-8.4,73.5-21
		V149.8z M241,94.1c0,2.5-2.1,4.6-4.6,4.6h-26c-2.5,0-4.6-2.1-4.6-4.6v-9.5c0-2.5,2.1-4.6,4.6-4.6h26c2.5,0,4.6,2.1,4.6,4.6V94.1z
		 M241,94.1"/>
	<path class="st0" d="M134.5,140.8l-6,7l8.1,7l-8.1,7l6,7l9.2-7.9c5.1,3.9,15.5,11,25.5,11c14.4,0,25.2-7.3,25.2-17
		c0-9.7-10.8-17-25.2-17c-10,0-20.4,7-25.5,11L134.5,140.8z M169.2,146.9c9.6,0,16,4,16,7.8c0,3.8-6.4,7.8-16,7.8
		c-6,0-13.3-4.3-18.2-7.8C155.9,151.2,163.2,146.9,169.2,146.9L169.2,146.9z M169.2,146.9"/>
	<rect x="227.2" y="84.4" class="st0" width="9.2" height="10"/>
</g>
</svg>
