<?xml version="1.0" encoding="utf-8"?>
<!-- Generator: Adobe Illustrator 22.1.0, SVG Export Plug-In . SVG Version: 6.00 Build 0)  -->
<svg version="1.1" id="Warstwa_1" xmlns="http://www.w3.org/2000/svg" xmlns:xlink="http://www.w3.org/1999/xlink" x="0px" y="0px"
	 viewBox="0 0 329 239" style="enable-background:new 0 0 329 239;" xml:space="preserve">
<style type="text/css">
	.st0{fill:#FFFFFF;}
</style>
<path class="st0" d="M258.9,127.1c-0.3-1.3-1.4-2.2-2.7-2.2H241c-1.2-7.6-7.3-13.6-15.1-14.6c-3.8-5.6-10.2-9.1-17-9.1
	c-1.8,0-3.5,0.2-5.2,0.7c-3-5.8-8.9-9.5-15.6-9.5c-1.6,0-3.2,0.2-4.8,0.7c-4.4-6-11.3-9.5-18.9-9.5c-6.5,0-12.6,2.6-17,7.3
	c-2.1-0.9-4.4-1.4-6.7-1.4c-2.8,0-5.5,0.7-8,1.9c-15-18.4-37.5-43.4-40-45.8c-2.2-2.2-5.1-3.4-8.2-3.4c-3.1,0-6,1.2-8.2,3.4
	c-2.2,2.2-3.4,5.1-3.4,8.2c0,3.1,1.2,6,3.4,8.2c1.8,1.8,23.5,21.5,41.5,36.5c-6.6,0.8-12.3,5.5-14.4,11.8
	c-7.9,0.8-14.3,6.9-15.5,14.7H72.8c-1.3,0-2.5,0.9-2.7,2.2c-0.3,1.3,0.4,2.6,1.6,3.1c5.4,2.3,10.4,12.2,15.7,22.7
	c5,9.9,10.7,21.2,18.5,30c9.2,10.5,19.7,15.6,32,15.6h53.3c12.3,0,22.8-5.1,32-15.6c7.8-8.8,13.4-20.1,18.5-30
	c5.3-10.5,10.3-20.4,15.7-22.7C258.5,129.7,259.2,128.4,258.9,127.1L258.9,127.1z M140.8,94.9c0.2,0,0.4,0,0.6,0
	c-0.7,0.5-1.4,1-2,1.7c-0.4,0.4-0.8,0.9-1.2,1.4c-0.6-0.7-1.1-1.5-1.7-2.2C137.8,95.2,139.3,94.9,140.8,94.9L140.8,94.9z M78.5,53.6
	c0-1.6,0.6-3.2,1.8-4.3c1.2-1.2,2.7-1.8,4.3-1.8c1.6,0,3.2,0.6,4.3,1.8c2.9,2.9,33.3,36.5,46.6,54.3c-0.1,0.5-0.2,0.9-0.3,1.4
	C117.6,92,82.5,60.2,80.3,58C79.1,56.8,78.5,55.3,78.5,53.6L78.5,53.6z M105.2,115.6c0.1,0,0.2,0,0.4,0c1.3,0,2.5-0.9,2.8-2.2
	c1.1-5.6,6.1-9.6,11.8-9.6c1.7,0,4.6,0.6,7,2c3.3,2.5,6.2,4.7,8.6,6.4c0.5,0.3,1,0.5,1.6,0.5c0.2,0,0.3,0,0.5,0c0.2,0,0.3,0,0.5,0
	c0.2,0,0.5,0,0.7-0.1c1.5-0.4,2.4-1.9,2-3.4c-0.8-3.1,0.1-6.4,2.4-8.7c3.5-3.5,9.3-3.5,12.8,0c1.1,1.1,2.8,1.1,3.9,0
	c1.1-1.1,1.1-2.8,0-3.9c-1.9-1.9-4.2-3.1-6.6-3.8c3.1-2.5,7-3.8,11.1-3.8c6.4,0,12.1,3.3,15.4,8.8c0.7,1.2,2.2,1.7,3.5,1.1
	c1.5-0.7,3.1-1,4.8-1c5.2,0,9.7,3.3,11.4,8.3c0.2,0.7,0.8,1.3,1.5,1.7c0.7,0.3,1.5,0.3,2.2,0c1.8-0.7,3.7-1.1,5.7-1.1
	c5.3,0,10.3,2.9,13,7.5c0.5,0.8,1.3,1.4,2.3,1.4c5.5,0.2,10,4.1,11.2,9.2h-48.7c2.5-5.4,1.5-12-2.9-16.4c-2.8-2.8-6.4-4.3-10.3-4.3
	c0,0,0,0,0,0c-1.5,0-2.8,1.2-2.8,2.8c0,1.5,1.2,2.8,2.8,2.8c2.4,0,4.7,0.9,6.4,2.7c3.4,3.4,3.5,9,0.3,12.5H93.6
	C94.9,119.6,99.6,115.7,105.2,115.6L105.2,115.6z M237.2,149.1c-0.5-0.4-1.1-0.6-1.7-0.6c-0.7,0-1.4,0.3-2,0.8
	c-0.5,0.5-0.8,1.2-0.8,2s0.3,1.4,0.8,2c0.3,0.3,0.8,0.6,1.3,0.7c-4.4,8.7-9.4,18-15.8,25.2c-8.1,9.2-17.2,13.7-27.8,13.7h-53.3
	c-10.6,0-19.7-4.5-27.8-13.7c-6.4-7.3-11.4-16.6-15.8-25.2c0.5-0.1,0.9-0.4,1.3-0.7c0.5-0.5,0.8-1.2,0.8-2s-0.3-1.4-0.8-2
	c-0.5-0.5-1.2-0.8-2-0.8c-0.6,0-1.3,0.2-1.7,0.6c-3.8-7.4-7.2-14.1-11.1-18.7h167.8C244.5,135,241,141.7,237.2,149.1L237.2,149.1z
	 M237.2,149.1"/>
<path class="st0" d="M164.5,163.3c-4.8,0-8.7,3.9-8.7,8.7s3.9,8.7,8.7,8.7c4.8,0,8.7-3.9,8.7-8.7S169.3,163.3,164.5,163.3
	L164.5,163.3z M164.5,175.1c-1.7,0-3.1-1.4-3.1-3.1s1.4-3.1,3.1-3.1c1.7,0,3.1,1.4,3.1,3.1S166.2,175.1,164.5,175.1L164.5,175.1z
	 M164.5,175.1"/>
<path class="st0" d="M200,163.3c-4.8,0-8.7,3.9-8.7,8.7s3.9,8.7,8.7,8.7c4.8,0,8.7-3.9,8.7-8.7S204.8,163.3,200,163.3L200,163.3z
	 M200,175.1c-1.7,0-3.1-1.4-3.1-3.1s1.4-3.1,3.1-3.1s3.1,1.4,3.1,3.1S201.7,175.1,200,175.1L200,175.1z M200,175.1"/>
<path class="st0" d="M129,163.3c-4.8,0-8.7,3.9-8.7,8.7s3.9,8.7,8.7,8.7c4.8,0,8.7-3.9,8.7-8.7S133.8,163.3,129,163.3L129,163.3z
	 M129,175.1c-1.7,0-3.1-1.4-3.1-3.1s1.4-3.1,3.1-3.1c1.7,0,3.1,1.4,3.1,3.1S130.7,175.1,129,175.1L129,175.1z M129,175.1"/>
<path class="st0" d="M146.7,169.2c-0.7,0-1.4,0.3-2,0.8c-0.5,0.5-0.8,1.2-0.8,2s0.3,1.4,0.8,2c0.5,0.5,1.2,0.8,2,0.8
	c0.7,0,1.4-0.3,2-0.8c0.5-0.5,0.8-1.2,0.8-2c0-0.7-0.3-1.4-0.8-2C148.2,169.5,147.5,169.2,146.7,169.2L146.7,169.2z M146.7,169.2"/>
<path class="st0" d="M111.2,169.2c-0.7,0-1.4,0.3-2,0.8c-0.5,0.5-0.8,1.2-0.8,2s0.3,1.4,0.8,2c0.5,0.5,1.2,0.8,2,0.8
	c0.7,0,1.4-0.3,2-0.8c0.5-0.5,0.8-1.2,0.8-2s-0.3-1.4-0.8-2C112.7,169.5,112,169.2,111.2,169.2L111.2,169.2z M111.2,169.2"/>
<path class="st0" d="M182.2,169.2c-0.7,0-1.4,0.3-2,0.8c-0.5,0.5-0.8,1.2-0.8,2s0.3,1.4,0.8,2c0.5,0.5,1.2,0.8,2,0.8
	c0.7,0,1.4-0.3,2-0.8c0.5-0.5,0.8-1.2,0.8-2s-0.3-1.4-0.8-2C183.7,169.5,183,169.2,182.2,169.2L182.2,169.2z M182.2,169.2"/>
<path class="st0" d="M217.8,169.2c-0.7,0-1.4,0.3-2,0.8c-0.5,0.5-0.8,1.2-0.8,2s0.3,1.4,0.8,2c0.5,0.5,1.2,0.8,2,0.8
	c0.7,0,1.4-0.3,2-0.8c0.5-0.5,0.8-1.2,0.8-2s-0.3-1.4-0.8-2C219.2,169.5,218.5,169.2,217.8,169.2L217.8,169.2z M217.8,169.2"/>
<path class="st0" d="M146.7,142.6c-4.8,0-8.7,3.9-8.7,8.7c0,4.8,3.9,8.7,8.7,8.7c4.8,0,8.7-3.9,8.7-8.7
	C155.4,146.5,151.5,142.6,146.7,142.6L146.7,142.6z M146.7,154.4c-1.7,0-3.1-1.4-3.1-3.1s1.4-3.1,3.1-3.1c1.7,0,3.1,1.4,3.1,3.1
	S148.5,154.4,146.7,154.4L146.7,154.4z M146.7,154.4"/>
<path class="st0" d="M217.8,142.6c-4.8,0-8.7,3.9-8.7,8.7c0,4.8,3.9,8.7,8.7,8.7c4.8,0,8.7-3.9,8.7-8.7
	C226.4,146.5,222.5,142.6,217.8,142.6L217.8,142.6z M217.8,154.4c-1.7,0-3.1-1.4-3.1-3.1s1.4-3.1,3.1-3.1c1.7,0,3.1,1.4,3.1,3.1
	S219.5,154.4,217.8,154.4L217.8,154.4z M217.8,154.4"/>
<path class="st0" d="M182.2,142.6c-4.8,0-8.7,3.9-8.7,8.7c0,4.8,3.9,8.7,8.7,8.7s8.7-3.9,8.7-8.7C190.9,146.5,187,142.6,182.2,142.6
	L182.2,142.6z M182.2,154.4c-1.7,0-3.1-1.4-3.1-3.1s1.4-3.1,3.1-3.1s3.1,1.4,3.1,3.1S184,154.4,182.2,154.4L182.2,154.4z
	 M182.2,154.4"/>
<path class="st0" d="M111.2,142.6c-4.8,0-8.7,3.9-8.7,8.7c0,4.8,3.9,8.7,8.7,8.7c4.8,0,8.7-3.9,8.7-8.7
	C119.9,146.5,116,142.6,111.2,142.6L111.2,142.6z M111.2,154.4c-1.7,0-3.1-1.4-3.1-3.1s1.4-3.1,3.1-3.1s3.1,1.4,3.1,3.1
	S113,154.4,111.2,154.4L111.2,154.4z M111.2,154.4"/>
<path class="st0" d="M129,154.1c0.7,0,1.4-0.3,2-0.8c0.5-0.5,0.8-1.2,0.8-2s-0.3-1.4-0.8-2c-0.5-0.5-1.2-0.8-2-0.8
	c-0.7,0-1.4,0.3-2,0.8c-0.5,0.5-0.8,1.2-0.8,2s0.3,1.4,0.8,2C127.5,153.8,128.3,154.1,129,154.1L129,154.1z M129,154.1"/>
<path class="st0" d="M164.5,154.1c0.7,0,1.4-0.3,2-0.8c0.5-0.5,0.8-1.2,0.8-2s-0.3-1.4-0.8-2c-0.5-0.5-1.2-0.8-2-0.8
	c-0.7,0-1.4,0.3-2,0.8c-0.5,0.5-0.8,1.2-0.8,2s0.3,1.4,0.8,2C163,153.8,163.8,154.1,164.5,154.1L164.5,154.1z M164.5,154.1"/>
<path class="st0" d="M200,154.1c0.7,0,1.4-0.3,2-0.8c0.5-0.5,0.8-1.2,0.8-2s-0.3-1.4-0.8-2c-0.5-0.5-1.2-0.8-2-0.8
	c-0.7,0-1.4,0.3-2,0.8c-0.5,0.5-0.8,1.2-0.8,2c0,0.7,0.3,1.4,0.8,2C198.6,153.8,199.3,154.1,200,154.1L200,154.1z M200,154.1"/>
</svg>
