<?xml version="1.0" encoding="utf-8"?>
<!-- Generator: Adobe Illustrator 22.1.0, SVG Export Plug-In . SVG Version: 6.00 Build 0)  -->
<svg version="1.1" id="Warstwa_1" xmlns="http://www.w3.org/2000/svg" xmlns:xlink="http://www.w3.org/1999/xlink" x="0px" y="0px"
	 viewBox="0 0 329 239" style="enable-background:new 0 0 329 239;" xml:space="preserve">
<style type="text/css">
	.st0{fill:#FFFFFF;}
</style>
<g>
	<path class="st0" d="M223.9,64.4c-26.2-26.2-65.5-31.4-97-15.6l0-0.1l-2.5,1.4c-0.1,0.1-0.3,0.2-0.4,0.3c-1.5,0.8-3,1.7-4.4,2.6
		c-0.2,0.1-0.3,0.2-0.5,0.3c-1.6,1-3.1,2.1-4.6,3.2c-0.2,0.1-0.4,0.3-0.5,0.4c-1.2,0.9-2.5,1.9-3.7,3c-0.3,0.3-0.7,0.6-1,0.9
		c-1.4,1.2-2.7,2.4-4,3.7c-1.3,1.3-2.5,2.6-3.7,4c-0.3,0.3-0.6,0.7-0.9,1c-1,1.2-2,2.4-3,3.7c-0.1,0.2-0.3,0.4-0.4,0.5
		c-1.1,1.5-2.2,3.1-3.2,4.6c-0.1,0.2-0.2,0.3-0.3,0.5c-0.9,1.4-1.8,2.9-2.6,4.4c-0.1,0.1-0.2,0.3-0.3,0.4L89.6,86l0.1,0
		c-15.8,31.4-10.6,70.8,15.6,97c16.3,16.3,37.8,24.5,59.3,24.5c12.9,0,25.9-3,37.7-8.9l0,0.1l2.5-1.4c0.2-0.1,0.3-0.2,0.4-0.3
		c1.5-0.8,3-1.7,4.4-2.6c0.1-0.1,0.3-0.2,0.4-0.3c1.6-1,3.1-2.1,4.6-3.2c0.2-0.1,0.4-0.3,0.5-0.4c1.2-0.9,2.5-1.9,3.7-3
		c0.3-0.3,0.7-0.6,1-0.9c1.3-1.2,2.7-2.4,4-3.7c1.3-1.3,2.5-2.6,3.7-4c0.3-0.3,0.6-0.7,0.9-1c1-1.2,2-2.4,2.9-3.7
		c0.1-0.2,0.3-0.4,0.4-0.6c1.1-1.5,2.2-3.1,3.2-4.6c0.1-0.1,0.2-0.3,0.3-0.4c0.9-1.4,1.8-2.9,2.6-4.4c0.1-0.2,0.2-0.3,0.3-0.5
		l1.4-2.5l-0.1,0C255.3,129.9,250.1,90.6,223.9,64.4z M100,79.9c0.2-0.2,0.3-0.4,0.5-0.7c0.7-1,1.4-2,2.2-3c0.2-0.3,0.5-0.6,0.7-0.9
		c0.7-0.9,1.5-1.8,2.2-2.7c0.2-0.3,0.5-0.6,0.7-0.9c1-1.1,2-2.2,3.1-3.3c1.1-1.1,2.2-2.1,3.3-3.1c0.3-0.3,0.6-0.5,0.9-0.7
		c0.9-0.8,1.8-1.5,2.7-2.2c0.3-0.2,0.6-0.5,0.9-0.7c1-0.7,2-1.5,3-2.2c0.2-0.1,0.4-0.3,0.6-0.5c1.3-0.8,2.5-1.7,3.9-2.5l20.8,38.1
		c-1.9,1.3-3.7,2.7-5.4,4.4c-1.7,1.7-3.2,3.5-4.4,5.4L97.5,83.8C98.3,82.4,99.1,81.2,100,79.9z M147,100.8c0.2-0.1,0.4-0.3,0.6-0.4
		c1-0.7,2-1.4,3.1-2c0,0,0.1,0,0.1-0.1l0.5-0.3c4.2-2.1,8.7-3.2,13.3-3.2c7.4,0,14.8,2.8,20.4,8.5c9.1,9.1,10.9,22.8,5.2,33.7
		l-0.3,0.5c0,0,0,0.1-0.1,0.1c-0.6,1.1-1.3,2.1-2,3.1c-0.1,0.2-0.3,0.4-0.4,0.6c-0.8,1-1.6,2-2.5,2.9c-0.9,0.9-1.9,1.7-2.9,2.5
		c-0.2,0.1-0.4,0.3-0.6,0.4c-1,0.7-2,1.4-3.1,2c0,0-0.1,0-0.1,0.1l-0.5,0.3c-10.9,5.6-24.6,3.9-33.7-5.2
		c-9.1-9.1-10.9-22.8-5.2-33.7l0.3-0.5c0,0,0-0.1,0.1-0.1c0.6-1.1,1.3-2.1,2-3.1c0.1-0.2,0.3-0.4,0.4-0.6c0.8-1,1.6-2,2.5-2.9
		C145.1,102.4,146,101.6,147,100.8z M109.4,178.9c-24.3-24.3-29.2-60.9-14.6-90.1l38.1,20.8c-5.6,12.7-3.2,28.2,7.2,38.6
		c6.8,6.8,15.7,10.2,24.5,10.2c4.8,0,9.6-1,14-3l20.9,38.1C170.3,208.1,133.7,203.3,109.4,178.9z M229.3,167.5
		c-0.2,0.2-0.3,0.4-0.5,0.7c-0.7,1-1.4,2-2.2,3c-0.2,0.3-0.5,0.6-0.7,0.9c-0.7,0.9-1.5,1.8-2.2,2.7c-0.3,0.3-0.5,0.6-0.7,0.9
		c-1,1.1-2,2.2-3.1,3.3c-1.1,1.1-2.2,2.1-3.3,3.1c-0.3,0.3-0.6,0.5-0.9,0.8c-0.9,0.7-1.8,1.5-2.7,2.2c-0.3,0.2-0.6,0.5-0.9,0.7
		c-1,0.8-2,1.5-3,2.2c-0.2,0.2-0.4,0.3-0.6,0.5c-1.3,0.9-2.5,1.7-3.8,2.5l-20.8-38.1c1.9-1.3,3.7-2.7,5.4-4.4
		c1.7-1.7,3.2-3.5,4.4-5.4l38.1,20.8C230.9,165,230.1,166.3,229.3,167.5z M234.5,158.6l-38.1-20.9c5.6-12.7,3.3-28.2-7.2-38.6
		c-10.4-10.4-25.8-12.8-38.6-7.2l-20.8-38.1c10.9-5.5,22.9-8.2,34.9-8.2c20,0,40,7.6,55.2,22.8C244.2,92.8,249,129.4,234.5,158.6z"
		/>
	<path class="st0" d="M164.6,135.3c3.1,0,6-1.2,8.2-3.4c2.2-2.2,3.4-5.1,3.4-8.2s-1.2-6-3.4-8.2c-4.4-4.4-12-4.4-16.4,0
		c-2.2,2.2-3.4,5.1-3.4,8.2s1.2,6,3.4,8.2C158.6,134.1,161.5,135.3,164.6,135.3z M160.5,119.6c1.1-1.1,2.5-1.7,4.1-1.7
		c1.6,0,3,0.6,4.1,1.7c1.1,1.1,1.7,2.5,1.7,4.1c0,1.6-0.6,3-1.7,4.1c-2.2,2.2-6,2.2-8.2,0c-1.1-1.1-1.7-2.5-1.7-4.1
		C158.8,122.2,159.4,120.7,160.5,119.6z"/>
</g>
</svg>
