<?xml version="1.0" encoding="utf-8"?>
<!-- Generator: Adobe Illustrator 22.1.0, SVG Export Plug-In . SVG Version: 6.00 Build 0)  -->
<svg version="1.1" id="Warstwa_1" xmlns="http://www.w3.org/2000/svg" xmlns:xlink="http://www.w3.org/1999/xlink" x="0px" y="0px"
	 viewBox="0 0 329 239" style="enable-background:new 0 0 329 239;" xml:space="preserve">
<style type="text/css">
	.st0{fill:#FFFFFF;}
</style>
<path class="st0" d="M228.7,179.9l6.4-15.4c0.4-1.1,0.4-2.5,0-3.7l-6.4-15.3l6.4-15.4c0.4-1.1,0.4-2.5,0-3.7l-6.4-15.3L235,96
	c0.6-1,0.6-2.4,0-3.6L228.7,77l6.4-15.4c0.4-1.1,0.4-2.5,0-3.7l-6.4-15.3l6.4-15.2c0.6-1.5,0.4-3.2-0.4-4.5c-0.9-1.3-2.5-2.2-4-2.2
	h-63.1v-2.3c0-6.6-5.4-12-12-12s-12,5.4-12,12v2.3h-23.7c-4.6,0-8.4,3.8-8.4,8.4v163.1h-5.9c-6.6,0-12,5.4-12,12s5.4,12,12,12h100.1
	c6.6,0,12-5.4,12-12c0-0.7-0.1-1.5-0.2-2.3h13.2c1.6,0,3.2-0.9,4-2.2c0.9-1.3,1-3,0.4-4.5L228.7,179.9z M153.3,20.8v-2.3
	c0-1.3,1-2.3,2.3-2.3s2.3,1,2.3,2.3v2.3H153.3z M199.7,30.5h23.7L219,41c-0.4,1.1-0.4,2.5,0,3.7l6.4,15.3L219,75.2
	c-0.6,1.2-0.6,2.5,0,3.7l6.3,15.3l-6.4,15.4c-0.4,1.1-0.4,2.5,0,3.7l6.4,15.3L219,144c-0.4,1.1-0.4,2.5,0,3.7l6.4,15.3l-6.4,15.4
	c-0.4,1.1-0.4,2.5,0,3.7l4.3,10.4h-23.7V30.5z M123.1,68.2l-0.2,0.3c-0.6,0.7-1.2,1.5-1.8,2.3V48c3.7,1,7.2,3.9,8,8.9
	C129.6,60.3,126.2,64.5,123.1,68.2z M121.1,96.6c3.3,1.8,7.2,2.3,10.7,1.2c4.7-1.3,7.6-4,9.9-6.4c0.8-0.8,1.7-1.7,2.3-2
	c2.8-1.4,7.1-0.5,9.7,3.9c1,1.7,3.7,7.7-4.1,13c-6,4.2-9.5,9.9-9.9,16.2c-0.3,5.1,1.2,12.8,10.2,21.2c6.3,5.9,9,11.5,7.8,16.3
	c-1.1,4.1-5.1,7.6-10.2,8.8c-4.4,1.1-10.5,0.7-14.6-3.6c-0.3-0.3-0.5-0.6-0.8-0.9l-0.3-0.3c-3.1-3.4-6.5-7-10.7-9.8V96.6z
	 M125.5,169.9c0.5,0.6,0.9,1,1.3,1.4c5.5,5.9,14.2,8.2,22.8,5.9c8.2-2.1,14.4-7.8,16.2-14.9c2-8-1.5-16.4-10.1-24.5
	c-5.3-4.9-7.9-9.9-7.5-14.5c0.3-3.8,2.5-7.3,6.5-10c10.8-7.5,10.3-17.7,6.5-24.2c-4.6-7.6-13.5-10.7-20.7-7.2
	c-1.3,0.7-2.5,1.7-3.5,2.6c-0.3,0.2-0.6,0.5-0.8,0.7l-0.1,0.1c-2,2-3.7,3.5-6.2,4.2c-1.7,0.4-3.5,0.1-4.9-0.8
	c-0.9-0.6-1.6-1.4-1.7-2.2c-0.7-4.3,2.8-8.6,6.5-13.3l0.1-0.2c4.1-5.1,8.7-10.8,7.7-17.8c-1.5-9.8-9.2-15.1-16.3-16.1v-8.9H190
	v161.9h-68.9v-27.2c1.6,1.6,3.1,3.1,4.3,4.5L125.5,169.9z M105.5,202h100.1c1.3,0,2.3,1,2.3,2.3s-1,2.3-2.3,2.3H105.5
	c-1.3,0-2.3-1-2.3-2.3S104.2,202,105.5,202z"/>
</svg>
