<?xml version="1.0" encoding="utf-8"?>
<!-- Generator: Adobe Illustrator 22.1.0, SVG Export Plug-In . SVG Version: 6.00 Build 0)  -->
<svg version="1.1" id="Warstwa_1" xmlns="http://www.w3.org/2000/svg" xmlns:xlink="http://www.w3.org/1999/xlink" x="0px" y="0px"
	 viewBox="0 0 329 239" style="enable-background:new 0 0 329 239;" xml:space="preserve">
<style type="text/css">
	.st0{fill:#FFFFFF;}
</style>
<g>
	<path class="st0" d="M226.3,168.4l-30.8,21.3c-0.3,0.2-0.7,0.3-1,0.2l-28-5.8c-1.7-0.4-3.4,0.7-3.7,2.4c-0.4,1.7,0.7,3.4,2.4,3.7
		l28,5.8c0.5,0.1,1,0.2,1.5,0.2c1.5,0,3.1-0.5,4.3-1.4l30.8-21.3c1.4-1,1.8-3,0.8-4.4C229.7,167.7,227.8,167.4,226.3,168.4z"/>
	<path class="st0" d="M271.8,108.6c-0.6-3-2.9-5.3-5.9-5.9l-12.4-2.6c0,0,0,0,0,0l-3.9-0.8L268.7,86c2.5-1.8,3.7-4.7,3.1-7.8
		c-0.6-3-2.9-5.3-5.9-5.9l-85.6-17.9c-1.7-0.4-3.4,0.7-3.7,2.4c-0.4,1.7,0.7,3.4,2.4,3.7l85.6,17.9c0.7,0.2,1,0.7,1,1
		c0.1,0.3,0.1,0.9-0.5,1.3L236,101l-36.3-21.7c-2.4-1.4-5.3-1.4-7.7-0.1L129,115.5L64.4,102c-0.7-0.2-1-0.7-1-1
		c-0.1-0.3-0.1-0.9,0.5-1.3l69.6-48.1c0.3-0.2,0.7-0.3,1-0.2l29,6.1c1.7,0.4,3.4-0.7,3.7-2.4c0.4-1.7-0.7-3.4-2.4-3.7l-29-6.1
		c-2-0.4-4.2,0-5.9,1.2L60.3,94.5c-2.5,1.8-3.7,4.7-3.1,7.8c0.6,3,2.9,5.3,5.9,5.9l16.3,3.4l-19.1,13.2c-2.5,1.8-3.7,4.7-3.1,7.8
		c0.6,3,2.9,5.3,5.9,5.9l16.3,3.4l-19.1,13.2c-2.5,1.8-3.7,4.7-3.1,7.8c0.6,3,2.9,5.3,5.9,5.9l86.3,18c0.2,0,0.4,0.1,0.6,0.1
		c1.5,0,2.8-1,3.1-2.5c0.4-1.7-0.7-3.4-2.4-3.7l-86.3-18c-0.7-0.2-1-0.7-1-1c-0.1-0.3-0.1-0.9,0.5-1.3l24-16.6l105.3,22
		c0.5,0.1,1,0.2,1.5,0.2c1.5,0,3.1-0.5,4.3-1.3l43.3-30l22.2,4.6c0.7,0.2,1,0.7,1,1c0.1,0.3,0.1,0.9-0.5,1.3L239,159.6
		c-1.4,1-1.8,3-0.8,4.4c0.6,0.9,1.6,1.4,2.6,1.4c0.6,0,1.2-0.2,1.8-0.6l26.2-18.1c2.5-1.8,3.7-4.7,3.1-7.8c-0.6-3-2.9-5.3-5.9-5.9
		l-16.3-3.4l19.1-13.2C271.3,114.6,272.4,111.6,271.8,108.6z M195.1,84.7c0.4-0.2,0.9-0.2,1.3,0l30.3,18.1l-81.8,10.8L195.1,84.7z
		 M73,134.2l-8.7-1.8c-0.7-0.2-1-0.7-1-1c-0.1-0.3-0.1-0.9,0.5-1.3l9.1-6.3V134.2z M89.5,137.6l-10.2-2.1v-16.2l8.6-6l1.6,0.3V137.6
		z M105,140.9l-9.2-1.9V115l9.2,1.9V140.9z M121.6,144.3l-10.2-2.1v-23.9l10.2,2.1V144.3z M137.1,147.6l-9.2-1.9v-23.9l1.1,0.2
		c0.4,0.1,0.7,0.1,1.1,0l7.1-0.9V147.6z M153.6,151l-10.2-2.1v-28.7l10.2-1.4V151z M169.1,154.2l-9.2-1.9V118l9.2-1.2V154.2z
		 M185.6,157.7l-10.2-2.1V116l10.2-1.4V157.7z M201.1,155.5l-5.6,3.9c-0.3,0.2-0.7,0.3-1,0.2l-2.6-0.5v-45.2l9.2-1.2V155.5z
		 M217.7,144l-10.2,7.1v-39.4l10.2-1.4V144z M233.2,133.3l-9.2,6.4v-30.1l9.2-1.2V133.3z M249.7,121.9l-10.2,7.1v-22.7l3-2.1
		l7.2,1.5V121.9z M265.1,111.2l-9.1,6.3V107l8.7,1.8c0.7,0.2,1,0.7,1,1C265.7,110.2,265.7,110.8,265.1,111.2z"/>
</g>
</svg>
