<?xml version="1.0" encoding="utf-8"?>
<!-- Generator: Adobe Illustrator 22.1.0, SVG Export Plug-In . SVG Version: 6.00 Build 0)  -->
<svg version="1.1" id="Warstwa_1" xmlns="http://www.w3.org/2000/svg" xmlns:xlink="http://www.w3.org/1999/xlink" x="0px" y="0px"
	 viewBox="0 0 329 239" style="enable-background:new 0 0 329 239;" xml:space="preserve">
<style type="text/css">
	.st0{fill:#FFFFFF;}
</style>
<path class="st0" d="M222.6,197.7c2,0,3.6-1.6,3.6-3.6V64.3c0-8.1-6.6-14.7-14.7-14.7c-1.7,0-3.4,0.3-4.9,0.8l-2.7,0.8V42
	c0-8.1-6.6-14.7-14.7-14.7c-2.2,0-4.4,0.5-6.6,1.6l-1.7,0.9l-0.9-1.7c-2.5-5-7.5-8.1-13.1-8.1c-5.6,0-10.6,3.1-13.1,8.1l-0.9,1.8
	l-1.7-0.9c-2-1-4.2-1.5-6.5-1.5c-5.7,0-11,3.4-13.4,8.6l-0.9,1.8l-1.6-0.8c-0.2-0.1-0.4-0.1-0.6-0.2c-0.1-0.1-0.3-0.1-0.4-0.1
	c-3.8-1-7.7-0.5-11.2,1.5c-1.4,0.8-2.7,1.8-3.8,3.2l-0.1,0.1l-1.9,1.9l-4.6-8c-2-3.4-5.2-5.8-8.9-6.8c-3.8-1-7.7-0.5-11.2,1.5
	c-2.1,1.2-3.7,2.7-4.9,4.5L80.1,36l-1.6-1.2c-4.8-3-10.5-3.2-15.3-0.4c-4.8,2.8-7.6,8-7.3,13.5l0,2.1H54c-2.3,0.2-4.5,0.8-6.3,1.9
	c-3.4,2-5.8,5.2-6.8,8.9c-1,3.8-0.5,7.7,1.5,11.2L79,135.5l-16.5-4.6c-3.8-1.1-7.7-0.6-11.1,1.4c-3.5,2.1-5.9,5.1-6.9,8.9
	c-1,3.8-0.5,7.7,1.5,11.2c2,3.4,5.2,5.8,8.9,6.8l44.9,12.1l7.6,13.2l10.9,19.6c0.6,1.1,1.8,1.7,3.1,1.7c0.7,0,1.2-0.1,1.6-0.4
	l0.1-0.1l13.3-7.7H222.6z M219,190.6h-70.3l26.2-15.1H219V190.6z M159.4,34.6c0-4.2,3.4-7.6,7.6-7.6c4.2,0,7.6,3.4,7.6,7.6v59
	c0,2,1.6,3.6,3.6,3.6c2,0,3.6-1.6,3.6-3.6V42c0-4.2,3.4-7.6,7.6-7.6c4.3,0,7.6,3.3,7.6,7.6v51.6c0,2,1.6,3.6,3.6,3.6
	c2,0,3.6-1.6,3.6-3.6V64.3c0-4.2,3.4-7.6,7.6-7.6c4.3,0,7.6,3.3,7.6,7.6v104.1h-31.7l12.9-7.4c0.8-0.5,1.4-1.2,1.7-2.2
	c0.2-1,0.1-1.9-0.3-2.6l-42.1-73.1v-47h-0.4V34.6z M137.1,42c0-4.2,3.4-7.6,7.6-7.6c4.2,0,7.6,3.4,7.6,7.6v28.6l-15.1-26.2v-0.9
	h-0.1V42z M104.9,166.7c-0.5-0.8-1.3-1.4-2.1-1.6l-0.1,0l-46.3-12.4c-2-0.5-3.6-1.7-4.6-3.5c-1-1.7-1.3-3.7-0.8-5.7
	c0.5-2,1.7-3.6,3.5-4.6c1.7-1,3.7-1.3,5.7-0.8l24.9,6.9c0.9,0.3,1.9,0.2,2.6-0.3c0.9-0.5,1.5-1.3,1.8-2.3c0.3-0.9,0.1-1.8-0.4-2.7
	l-0.2-0.2L48.3,68.7C47.3,67,47,65,47.5,63c0.5-2,1.7-3.6,3.5-4.6c1.7-1,3.7-1.3,5.7-0.8c2,0.5,3.6,1.7,4.6,3.5l25.8,44.7
	c0.5,0.8,1.3,1.4,2.2,1.7c0.9,0.3,1.9,0.1,2.7-0.3c1.7-1,2.3-3.2,1.4-4.8L63.9,51.3c-2.1-3.6-0.9-8.2,2.7-10.3
	c1.8-1,3.7-1.3,5.7-0.8c2,0.5,3.6,1.7,4.6,3.5l29.5,51.1c0.6,1.1,1.8,1.8,3.1,1.8c0.7,0,1.2-0.1,1.6-0.4l0.1-0.1
	c1.7-1,2.3-3.2,1.4-4.8L86.9,46.6c-1-1.7-1.3-3.7-0.8-5.7c0.5-2,1.7-3.6,3.5-4.6c1.7-1,3.7-1.3,5.7-0.8c2,0.5,3.6,1.7,4.6,3.5
	l25.8,44.7c1,1.7,3.2,2.3,4.8,1.4c0.8-0.5,1.4-1.3,1.7-2.2c0.3-0.9,0.1-1.9-0.3-2.7l-14.7-25.4c-1-1.7-1.3-3.7-0.8-5.7
	c0.5-2,1.7-3.6,3.5-4.6c1.7-1,3.7-1.3,5.7-0.8c2,0.5,3.6,1.7,4.6,3.5l52,90.1l-71,40.9L104.9,166.7z M122.6,197.4l-7.6-13.1l71-41
	l7.6,13.1L122.6,197.4z"/>
</svg>
