<?xml version="1.0" encoding="utf-8"?>
<!-- Generator: Adobe Illustrator 22.1.0, SVG Export Plug-In . SVG Version: 6.00 Build 0)  -->
<svg version="1.1" id="Warstwa_1" xmlns="http://www.w3.org/2000/svg" xmlns:xlink="http://www.w3.org/1999/xlink" x="0px" y="0px"
	 viewBox="0 0 329 239" style="enable-background:new 0 0 329 239;" xml:space="preserve">
<style type="text/css">
	.st0{fill:#FFFFFF;}
</style>
<g>
	<path class="st0" d="M236.6,103.5h-9.5l19.6-48.7c0.6-1.5,0.3-3.2-0.8-4.4c-0.4-0.5-4.4-4.6-11.6-7.6c-6.7-2.8-17.5-5.2-31.2-0.4
		c-2.3,0.8-4.4,1.6-6.4,2.3c-13.5,4.8-21,7.5-30.7,7.5s-17.1-2.7-30.7-7.5c-2-0.7-4.1-1.5-6.4-2.3c-13.7-4.8-24.5-2.4-31.2,0.4
		c-7.4,3.1-11.4,7.4-11.6,7.6c-1.1,1.2-1.4,2.9-0.8,4.4l19.6,48.7h-9.5c-5.7,0-10.4,4.7-10.4,10.4v77.5c0,5.7,4.7,10.4,10.4,10.4
		h141.3c5.7,0,10.4-4.7,10.4-10.4v-77.5C247,108.2,242.3,103.5,236.6,103.5z M126.2,50.4c2.3,0.8,4.4,1.5,6.4,2.3
		c13.9,5,22.3,7.9,33.4,7.9s19.5-3,33.4-7.9c2-0.7,4.1-1.5,6.4-2.3c8.9-3.1,17.3-3.1,25,0.1c3.1,1.3,5.5,2.9,7.1,4.1l-19.8,49h-17.6
		l9.3-26.4c0.4-1,0.3-2.2-0.2-3.2c-0.5-1-1.3-1.7-2.3-2.1c-1-0.4-2.2-0.3-3.2,0.2c-1,0.5-1.7,1.3-2.1,2.4l-10.3,29.1h-21.7V88.3
		c0-2.3-1.9-4.1-4.1-4.1s-4.1,1.9-4.1,4.1v15.3h-21.7l-10.3-29.1c-0.4-1-1.1-1.9-2.1-2.3c-1-0.5-2.1-0.5-3.2-0.2
		c-2.1,0.8-3.3,3.1-2.5,5.3l9.3,26.4h-17.6L94,54.5c1.6-1.2,4-2.8,7.1-4.1C108.9,47.3,117.3,47.2,126.2,50.4z M93.3,113.9
		c0-1.2,1-2.1,2.1-2.1h141.3c1.2,0,2.1,1,2.1,2.1v77.5c0,1.2-1,2.1-2.1,2.1H95.4c-1.2,0-2.1-1-2.1-2.1V113.9z"/>
	<path class="st0" d="M122.3,178h87.5c5.7,0,10.4-4.7,10.4-10.4v-30c0-4.6-2.9-8.5-7.3-9.9l-0.1,0c-1-0.3-2-0.4-3-0.4h-53.9
		c-2.3,0-4.1,1.9-4.1,4.1s1.9,4.1,4.1,4.1h9.1l-34.3,34.3h-8.4c-1.2,0-2.1-1-2.1-2.1v-30c0-1.2,1-2.1,2.1-2.1h8.6
		c2.3,0,4.1-1.9,4.1-4.1s-1.9-4.1-4.1-4.1h-8.6c-5.7,0-10.4,4.7-10.4,10.4v30C111.9,173.4,116.5,178,122.3,178z M211.9,167.7
		c0,1.2-1,2.1-2.1,2.1h-30.4l32.5-32.5c0,0.1,0,0.2,0,0.3V167.7z M176.6,135.5H202l-34.3,34.3h-25.4L176.6,135.5z"/>
	<path class="st0" d="M143.4,135.5c1.1,0,2.1-0.4,2.9-1.2c0.8-0.8,1.2-1.8,1.2-2.9c0-1.1-0.4-2.1-1.2-2.9c-0.8-0.8-1.8-1.2-2.9-1.2
		s-2.1,0.4-2.9,1.2c-0.8,0.8-1.2,1.8-1.2,2.9c0,1.1,0.4,2.2,1.2,2.9C141.3,135.1,142.3,135.5,143.4,135.5z"/>
	<path class="st0" d="M166,79.9c1.1,0,2.1-0.4,2.9-1.2c0.8-0.8,1.2-1.8,1.2-2.9c0-1.1-0.4-2.2-1.2-2.9c-0.8-0.8-1.8-1.2-2.9-1.2
		s-2.2,0.4-2.9,1.2c-0.8,0.8-1.2,1.8-1.2,2.9c0,1.1,0.4,2.1,1.2,2.9C163.9,79.5,164.9,79.9,166,79.9z"/>
</g>
</svg>
