<?xml version="1.0" encoding="utf-8"?>
<!-- Generator: Adobe Illustrator 22.1.0, SVG Export Plug-In . SVG Version: 6.00 Build 0)  -->
<svg version="1.1" id="Warstwa_1" xmlns="http://www.w3.org/2000/svg" xmlns:xlink="http://www.w3.org/1999/xlink" x="0px" y="0px"
	 viewBox="0 0 329 239" style="enable-background:new 0 0 329 239;" xml:space="preserve">
<style type="text/css">
	.st0{fill:#FFFFFF;}
</style>
<path class="st0" d="M245.5,141.5c-1.2-11.3-1.4-22.7-0.8-34l5-81.7c0.1-0.8-0.3-1.7-0.8-2.3c-0.6-0.6-1.4-1-2.3-0.9h-71.4
	c-0.8,0-1.6,0.3-2.2,0.9c-0.6,0.6-0.9,1.3-0.9,2.2v85.6c0,3.5-1.1,7-3.1,9.9c-11.8,16.6-40,22.2-55.8,24
	c-11.9,1.4-20.8,11.5-20.8,23.4v13.2c0,0.1-0.2,0-0.1,0.4h0.1v18c0,0.8,0.3,1.6,0.8,2.1c0.6,0.6,1.3,0.9,2.1,0.9h71.3
	c0.8,0,1.6-0.3,2.2-0.8c0.6-0.6,0.9-1.3,0.9-2.2v-15.3h27.6V200c0,0.8,0.3,1.6,0.8,2.1c0.6,0.6,1.3,0.9,2.1,0.9h46.2
	c0.8,0,1.6-0.3,2.1-0.9c0.6-0.6,0.9-1.3,0.8-2.1v-18h0.1c0-0.2,0-0.4,0-0.7L245.5,141.5z M178.4,28.8h64.9l-0.7,11.7h-64.2V28.8z
	 M163.6,196.8h-65v-12.1h65V196.8z M98.7,178.5v-10.1c-0.1-8.8,6.5-16.2,15.3-17.3c37.3-4.3,53.3-16.8,60.3-26.5
	c2.8-3.9,4.3-8.7,4.2-13.5V46.6h63.8l-3.7,60.4c-0.7,11.7-0.4,23.4,0.8,35.1l3.8,36.4H98.7z M243.3,196.8h-39.7v-12.1h39.7V196.8z
	 M243.3,196.8"/>
<path class="st0" d="M218.1,63h-19.4c-1.7,0-3.1,1.4-3.1,3.1v49c0,1.7,1.4,3.1,3.1,3.1h19.4c1.7,0,3.1-1.4,3.1-3.1v-49
	C221.2,64.4,219.8,63,218.1,63L218.1,63z M215,112h-13.2V69.2H215V112z M215,112"/>
</svg>
