<?xml version="1.0" encoding="utf-8"?>
<!-- Generator: Adobe Illustrator 22.1.0, SVG Export Plug-In . SVG Version: 6.00 Build 0)  -->
<svg version="1.1" id="Warstwa_1" xmlns="http://www.w3.org/2000/svg" xmlns:xlink="http://www.w3.org/1999/xlink" x="0px" y="0px"
	 viewBox="0 0 329 239" style="enable-background:new 0 0 329 239;" xml:space="preserve">
<style type="text/css">
	.st0{fill:#FFFFFF;}
</style>
<g>
	<path class="st0" d="M172.1,85.6c1.9,0,3.6-0.5,5.2-1.4c2.5-1.4,3.4-4.5,2-7c-0.7-1.2-1.8-2.1-3.1-2.5c-1.3-0.4-2.7-0.2-3.9,0.5
		l-0.1,0.1c0,0-0.1,0-0.2,0c-0.2-0.1-0.3-0.2-0.5-0.4c-1-2.5-4-3.8-6.7-2.8c-2.7,1-4,4-3,6.7l0,0.1c1.4,2.9,3.7,5.1,6.5,6.2
		C169.5,85.4,170.6,85.6,172.1,85.6z"/>
	<path class="st0" d="M151.9,68.5l-0.9,2.5c-1,2.7,0.4,5.6,3.1,6.6l0.2,0.1c0.5,0.1,1,0.2,1.6,0.2c2.2,0,4.1-1.3,4.9-3.4l0.9-2.5
		c1-2.7-0.4-5.6-3.1-6.6C155.8,64.4,152.9,65.8,151.9,68.5z"/>
	<path class="st0" d="M157,100.1c-11.1,24.9-14,48.6-14,58.7c0,2.9,2.3,5.2,5.2,5.2s5.2-2.3,5.2-5.2c0-9.2,2.8-31.1,13.2-54.5
		c1.1-2.7,0-5.6-2.7-6.9C161.2,96.4,158.1,97.6,157,100.1z"/>
	<path class="st0" d="M186.1,88.8c2.2,0,4.1-1.3,4.9-3.4l0.9-2.5c1-2.7-0.4-5.6-3.1-6.6c-2.7-1-5.6,0.4-6.6,3.1l-0.9,2.5
		c-1,2.6,0.4,5.6,3,6.6C185,88.8,185.6,88.8,186.1,88.8z"/>
	<path class="st0" d="M275.5,146.4c-3.6-4.1-9.1-5.4-14-3.1l-15.1,6.7c-4.7,2-9.5,3.1-14.5,3.1c-8.4,0-16.7-3-23.1-8.5
		c-6.4-5.5-10.7-13.1-12.1-21.5c-1-6.2-0.3-12.4,2-18.1l6.3-15.4c4.3-10.6,3.2-22.5-2.9-32l5-15.2c1.9-5.9-0.7-12.4-6.2-15.3
		l-4.4-2.3c-5.5-2.9-12.3-1.4-16.1,3.6l-9.8,13c-2.5,0.1-5.1,0.6-8,1.4c-2.7,0.9-4.3,3.8-3.5,6.5c0.9,2.7,3.8,4.3,6.5,3.5
		c2-0.6,4-0.9,5.8-1c8.5-0.4,16.4,3.5,21.2,10.4c4.8,6.8,5.9,15.6,2.7,23.5l-6.3,15.4c-3,7.5-3.9,15.6-2.7,23.6
		c0.8,5.3,2.6,10.3,5.2,15.1c-2.1,0.8-3.8,1.9-5,3.5c-1.3,1.7-3.3,5.3-1.3,10.6c0.3,1,0.4,1.9,0.5,3.3l0,0.1
		c0.2,2.4,0.5,5.8,3.6,8.1c2.2,1.7,5.2,2.5,9.8,2.5c0.8,0,1.6,0,2.6-0.1c0.3,0,0.6,0,0.9-0.1c0.2,0,0.5,0,0.8,0
		c5.1-0.2,10.8-0.4,14.2-6.5c4.6,1.5,9.4,2.3,14.2,2.3c6.6,0,12.9-1.4,18.7-4l15.1-6.7c1.2-0.5,1.9,0.3,1.9,0.3l0.1,0.2
		c0.2,0.2,0.8,0.9,0.1,1.9c-3.8,6-8.5,11.3-13.9,16c-2.1,1.9-2.4,5-0.6,7.3c0.9,1.2,2.4,1.9,4,1.9c1.2,0,2.4-0.5,3.4-1.3
		c6.1-5.2,11.5-11.4,15.8-18.2C279.4,156.3,279.1,150.5,275.5,146.4z M198.4,149c1.1,1.2,2.3,2.3,3.5,3.4c2.1,1.7,4.1,3.1,6.1,4.3
		c-1,0.4-3.1,0.4-4.9,0.5c-0.6,0-1.2,0-1.8,0.1c-2.2,0.1-3.9,0-5-0.2c0-0.1,0-0.2,0-0.3c0-0.2-0.1-0.4-0.1-0.7
		c-0.1-1.5-0.3-3.6-1.1-5.8l0-0.2c-0.1-0.2-0.1-0.5-0.2-0.7C195.2,149.4,196.3,149,198.4,149z M197.1,39.2l-3.2,9.6
		c-3.4-2.7-7.4-4.7-11.6-5.9l6.1-8.2c0.8-1,2-1.3,3-0.7l4.4,2.3C197,36.8,197.5,38.1,197.1,39.2z"/>
	<path class="st0" d="M123.1,137.4l-4.8,4.8c-2,2-2,5.3,0,7.3c1,1,2.3,1.5,3.7,1.5s2.7-0.6,3.7-1.5l4.8-4.8c2-2,2-5.3,0-7.4
		C128.3,135.4,125.1,135.4,123.1,137.4z"/>
	<path class="st0" d="M247,182.6c-1.5-2.5-4.7-3.5-7.1-2.1c-9.9,5.1-21.1,7.7-32.3,7.7h-8.1c-15.8,0-30.9-6.7-41.4-18.4
		c-2.5-2.8-6-4.3-9.9-4.2c-3.7,0.1-7.3,1.9-9.5,4.9c-8.8,11.2-21.9,17.6-36.1,17.7c1-4.8-0.2-9.4-3.2-12.9
		c-3.3-3.9-8.6-5.9-14.7-5.5c-9.2,0.4-12.5,3.2-15.9,6.8c-0.1,0.1-0.2,0.2-0.3,0.4c-0.2,0.2-0.3,0.4-0.5,0.5l-0.2,0.1
		c-1.8,1.8-2.9,4.6-2.9,7.8c-13.7-4.8-24.6-15.1-30.1-28.6c-0.2-0.5-0.3-1.1,0.5-2c0.1-0.1,0.8-0.7,1.9-0.2l6.1,3.4
		c7,3.9,14.8,5.9,22.5,5.9c16.3,0,31.6-8.7,40-22.8L151.2,64c0.8-1.4,1.7-2.6,2.6-3.6c1.8-2.1,1.6-5.5-0.6-7.3
		c-2.1-1.8-5.5-1.6-7.3,0.6c-1.5,1.7-2.7,3.3-3.7,5l-45.2,77c-6.4,11-18.3,17.8-31,17.8c-6.2,0-12.2-1.6-17.5-4.5l-6.1-3.4
		c-4.5-2.5-10-1.9-13.8,1.5c-3.9,3.5-5.1,8.8-3.1,13.6c9.4,23,31.6,37.8,56.5,37.8h20.5c17.5,0,33.7-7.9,44.5-21.7
		c0.4-0.5,1-0.8,1.8-0.9c0.8,0,1.3,0.3,1.8,0.8c12.4,13.9,30.3,21.8,49.1,21.8h8.1c12.8,0,25.6-3.1,37-8.9c1.2-0.6,2.1-1.7,2.6-3
		c0.4-1.3,0.3-2.7-0.3-3.9L247,182.6z M75.5,184.7l1-1c2.2-2.3,3.2-3.3,8.9-3.6c2.8-0.2,5.1,0.5,6.3,1.9c1.1,1.3,1.1,3,0.9,4.1l0,0
		c-0.1,0.7-0.3,1.4-0.6,2H81.9c-1.9,0-3.8-0.1-6-0.4C75.2,186.3,75.4,185,75.5,184.7z"/>
	<path class="st0" d="M134.4,125.5c0-1.4-0.6-2.6-1.6-3.6c-2-2-5.3-2-7.3,0l-4.9,4.9c-2,2-2,5.3,0,7.3c1,1,2.3,1.5,3.7,1.5
		s2.7-0.6,3.7-1.5l4.9-4.9C133.9,128.3,134.4,126.9,134.4,125.5z"/>
</g>
</svg>
