<?xml version="1.0" encoding="utf-8"?>
<!-- Generator: Adobe Illustrator 22.1.0, SVG Export Plug-In . SVG Version: 6.00 Build 0)  -->
<svg version="1.1" id="Warstwa_1" xmlns="http://www.w3.org/2000/svg" xmlns:xlink="http://www.w3.org/1999/xlink" x="0px" y="0px"
	 viewBox="0 0 329 239" style="enable-background:new 0 0 329 239;" xml:space="preserve">
<style type="text/css">
	.st0{fill:#FFFFFF;}
</style>
<path class="st0" d="M226.7,11.7l-2.9-3.1L122,110.5l6.1,20.4c0.3,2.5-1.5,5-4.1,5.9l-6.5,2.1l-1.9,6c-1.4,4.2-4.3,7.2-8,8.4h0
	c-1.3,0-5.3-2.6-7.4-4c-4.2-2.7-7.8-5.1-11.2-4.6l-1.4,0.2L46,186.5l3.1,2.9c24.3,22.8,55.1,34.1,85.9,34.1
	c32.1,0,64.2-12.4,88.9-37C272,138.2,273.3,61.5,226.7,11.7L226.7,11.7z M95.8,156c5,3.2,9.7,6.3,14,5c6.4-2,11.3-7,13.5-13.7
	l0.7-2.1l2.6-0.8c6.5-2.1,10.6-8.6,9.6-15.1l-4.9-16.6l71.1-71.1c14.9,14.9,23,33.4,23.5,53.8c0.5,23.3-9.6,47.1-27.8,65.2
	c-18.1,18.1-41.9,28.3-65.2,27.8C112.4,188,93.9,179.9,79,165l11.9-11.9C92.3,153.7,94.4,155.1,95.8,156L95.8,156z M218.1,180.7
	c-44.1,44.1-113.8,46.2-160.4,5.5l15.6-15.6c16.3,16.2,37.1,25.5,59.3,25.9c0.6,0,1.2,0,1.8,0c24.9,0,50.1-10.9,69.3-30.2
	c19.7-19.7,30.7-45.6,30.1-71.1c-0.5-22.2-9.7-43-25.9-59.3l15.6-15.6C264.3,66.9,262.2,136.6,218.1,180.7L218.1,180.7z
	 M218.1,180.7"/>
<path class="st0" d="M76.1,83.3c0,3.4-2.7,6.1-6.1,6.1c-3.4,0-6.1-2.7-6.1-6.1c0-3.4,2.7-6.1,6.1-6.1C73.4,77.3,76.1,80,76.1,83.3
	L76.1,83.3z M76.1,83.3"/>
<path class="st0" d="M124.8,172.6c0,3.4-2.7,6.1-6.1,6.1c-3.4,0-6.1-2.7-6.1-6.1c0-3.4,2.7-6.1,6.1-6.1
	C122.1,166.5,124.8,169.2,124.8,172.6L124.8,172.6z M124.8,172.6"/>
<path class="st0" d="M163.2,118.3c0,3.4-2.7,6.1-6.1,6.1c-3.4,0-6.1-2.7-6.1-6.1c0-3.4,2.7-6.1,6.1-6.1
	C160.5,112.3,163.2,115,163.2,118.3L163.2,118.3z M163.2,118.3"/>
<path class="st0" d="M183.3,98.3c0,3.4-2.7,6.1-6.1,6.1c-3.4,0-6.1-2.7-6.1-6.1c0-3.4,2.7-6.1,6.1-6.1
	C180.6,92.2,183.3,94.9,183.3,98.3L183.3,98.3z M183.3,98.3"/>
<path class="st0" d="M171.8,167.1c0,3.4-2.7,6.1-6.1,6.1c-3.4,0-6.1-2.7-6.1-6.1c0-3.4,2.7-6.1,6.1-6.1
	C169.1,161,171.8,163.7,171.8,167.1L171.8,167.1z M171.8,167.1"/>
<path class="st0" d="M191.9,147c0,3.4-2.7,6.1-6.1,6.1c-3.4,0-6.1-2.7-6.1-6.1c0-3.4,2.7-6.1,6.1-6.1
	C189.2,140.9,191.9,143.7,191.9,147L191.9,147z M191.9,147"/>
<path class="st0" d="M212,126.9c0,3.4-2.7,6.1-6.1,6.1c-3.4,0-6.1-2.7-6.1-6.1c0-3.4,2.7-6.1,6.1-6.1
	C209.2,120.9,212,123.6,212,126.9L212,126.9z M212,126.9"/>
<path class="st0" d="M203.4,78.2c0,3.4-2.7,6.1-6.1,6.1c-3.4,0-6.1-2.7-6.1-6.1c0-3.4,2.7-6.1,6.1-6.1
	C200.6,72.1,203.4,74.8,203.4,78.2L203.4,78.2z M203.4,78.2"/>
<path class="st0" d="M148.9,161.4c0,3.4-2.7,6.1-6.1,6.1c-3.4,0-6.1-2.7-6.1-6.1c0-3.4,2.7-6.1,6.1-6.1
	C146.1,155.3,148.9,158,148.9,161.4L148.9,161.4z M148.9,161.4"/>
<path class="st0" d="M169.4,140.1c0,3.4-2.7,6.1-6.1,6.1c-3.4,0-6.1-2.7-6.1-6.1c0-3.4,2.7-6.1,6.1-6.1
	C166.7,134,169.4,136.8,169.4,140.1L169.4,140.1z M169.4,140.1"/>
<path class="st0" d="M189.7,119.8c0,3.4-2.7,6.1-6.1,6.1c-3.4,0-6.1-2.7-6.1-6.1c0-3.4,2.7-6.1,6.1-6.1
	C187,113.8,189.7,116.5,189.7,119.8L189.7,119.8z M189.7,119.8"/>
<path class="st0" d="M88.3,123.9c0,3.4-2.7,6.1-6.1,6.1c-3.4,0-6.1-2.7-6.1-6.1c0-3.4,2.7-6.1,6.1-6.1
	C85.6,117.8,88.3,120.5,88.3,123.9L88.3,123.9z M88.3,123.9"/>
<path class="st0" d="M112.6,91.5c0,3.4-2.7,6.1-6.1,6.1c-3.4,0-6.1-2.7-6.1-6.1c0-3.4,2.7-6.1,6.1-6.1
	C109.9,85.4,112.6,88.1,112.6,91.5L112.6,91.5z M112.6,91.5"/>
<path class="st0" d="M209.1,101.1c0,3.4-2.7,6.1-6.1,6.1c-3.4,0-6.1-2.7-6.1-6.1c0-3.4,2.7-6.1,6.1-6.1
	C206.4,95.1,209.1,97.8,209.1,101.1L209.1,101.1z M209.1,101.1"/>
</svg>
