<?xml version="1.0" encoding="utf-8"?>
<!-- Generator: Adobe Illustrator 22.1.0, SVG Export Plug-In . SVG Version: 6.00 Build 0)  -->
<svg version="1.1" id="Warstwa_1" xmlns="http://www.w3.org/2000/svg" xmlns:xlink="http://www.w3.org/1999/xlink" x="0px" y="0px"
	 viewBox="0 0 329 239" style="enable-background:new 0 0 329 239;" xml:space="preserve">
<style type="text/css">
	.st0{fill:#FFFFFF;}
</style>
<path class="st0" d="M248.9,137.3c9.3-21,11.3-42.2,5.8-59.6c-0.5-1.7-0.6-3.5-0.1-4.9c1.9-5.3,1.2-11.1-1.9-15.9
	c-3.1-4.7-8.1-7.7-13.8-8.1c-1.5-0.1-3.1-0.8-4.5-2c-13.8-12.1-34-18.7-56.9-18.6c-21.5,0.1-43,6-58.9,16.4S88.8,72.3,80.1,91.9
	c-9.3,21-11.3,42.2-5.8,59.6c0.5,1.7,0.6,3.5,0.1,4.9c-1.9,5.3-1.2,11.1,1.9,15.9c3.1,4.7,8.1,7.7,13.8,8.1c1.5,0.1,3.1,0.8,4.5,2
	c13.8,12.1,34,18.7,56.9,18.6c21.5-0.1,43-6,58.9-16.4S240.3,157,248.9,137.3L248.9,137.3z M151.4,194.2c-21.3,0.1-39.9-6-52.4-16.9
	c-2.5-2.2-5.5-3.5-8.5-3.7c-3.5-0.3-6.6-2.1-8.5-5s-2.3-6.5-1.2-9.8c1-2.8,1-6.1,0-9.3c-5-15.9-3-35.3,5.6-54.8
	c8.2-18.5,21.4-34.7,36.2-44.3c14.8-9.7,34.9-15.3,55.1-15.3c21.3-0.1,39.9,6,52.4,16.9c2.5,2.2,5.5,3.5,8.5,3.7
	c3.5,0.3,6.6,2.1,8.5,5c1.9,2.9,2.3,6.5,1.2,9.8c-1,2.8-1,6.1,0,9.3c5,15.9,3,35.3-5.6,54.8c-8.2,18.5-21.4,34.7-36.2,44.3
	C191.7,188.6,171.6,194.2,151.4,194.2L151.4,194.2z"/>
<path class="st0" d="M93,137c-0.3-2.6-0.4-5.2-0.3-8c0.1-1.9-1.4-3.5-3.3-3.5c-1.9-0.1-3.5,1.4-3.5,3.3c-0.1,3.1,0,6.1,0.4,9
	c0.1,0.5,0.3,1,0.5,1.5c0.7,1.1,1.9,1.7,3.3,1.5C91.9,140.6,93.2,138.9,93,137L93,137z"/>
<path class="st0" d="M243.2,96.5c-0.1-2.9-0.4-5.8-0.9-8.5c-0.3-1.9-2.1-3.1-4-2.7c-1.9,0.3-3.1,2.1-2.7,4c0.4,2.4,0.7,4.9,0.8,7.5
	c0,0.7,0.2,1.3,0.6,1.8c0.6,1,1.7,1.6,3,1.5C241.8,99.9,243.3,98.4,243.2,96.5L243.2,96.5z"/>
<path class="st0" d="M114.8,76.7c1.2-1.4,1.1-3.6-0.4-4.8c-1.4-1.2-3.6-1.1-4.8,0.4c-10.5,12.2-18.5,27.6-21.9,42.4
	c-0.2,0.9,0,1.9,0.5,2.6s1.2,1.3,2.1,1.5c1.8,0.4,3.7-0.7,4.1-2.6C97.6,102.5,105,88.1,114.8,76.7L114.8,76.7z"/>
<path class="st0" d="M219.5,157c11.6-13.6,19.9-30.6,22.7-46.8c0.3-1.9-0.9-3.6-2.8-3.9c-1.9-0.3-3.6,0.9-3.9,2.8
	c-2.6,15-10.3,30.8-21.2,43.5c-1,1.2-1.1,2.9-0.3,4.1c0.2,0.3,0.4,0.5,0.6,0.7C216.1,158.6,218.2,158.4,219.5,157L219.5,157z"/>
<path class="st0" d="M197.1,71.6c-0.5-0.8-1.3-1.3-2.2-1.5s-1.8,0-2.6,0.5s-1.3,1.3-1.5,2.2c-0.2,0.9,0,1.8,0.5,2.6
	c0.5,0.8,1.3,1.3,2.2,1.5s1.8,0,2.6-0.5s1.3-1.3,1.5-2.2S197.6,72.3,197.1,71.6L197.1,71.6z"/>
<path class="st0" d="M209.9,111.1c-0.5-0.8-1.3-1.3-2.2-1.5s-1.8,0-2.6,0.5s-1.3,1.3-1.5,2.2c-0.2,0.9,0,1.8,0.5,2.6
	c0.5,0.8,1.3,1.3,2.2,1.5s1.8,0,2.6-0.5s1.3-1.3,1.5-2.2C210.5,112.8,210.4,111.9,209.9,111.1L209.9,111.1z"/>
<path class="st0" d="M150.5,80.2c-0.5-0.8-1.3-1.3-2.2-1.5s-1.8,0-2.6,0.5s-1.3,1.3-1.5,2.2c-0.2,0.9,0,1.8,0.5,2.6
	c0.5,0.8,1.3,1.3,2.2,1.5s1.8,0,2.6-0.5s1.3-1.3,1.5-2.2C151.2,81.9,151,81,150.5,80.2L150.5,80.2z"/>
<path class="st0" d="M169,155.2c-0.5-0.8-1.3-1.3-2.2-1.5s-1.8,0-2.6,0.5s-1.3,1.3-1.5,2.2s0,1.8,0.5,2.6s1.3,1.3,2.2,1.5
	s1.8,0,2.6-0.5s1.3-1.3,1.5-2.2C169.7,156.9,169.5,156,169,155.2L169,155.2z"/>
<path class="st0" d="M131.7,144.8c-0.5-0.8-1.3-1.3-2.2-1.5s-1.8,0-2.6,0.5c-0.8,0.5-1.3,1.3-1.5,2.2s0,1.8,0.5,2.6s1.3,1.3,2.2,1.5
	c0.9,0.2,1.8,0,2.6-0.5s1.3-1.3,1.5-2.2C132.4,146.5,132.2,145.5,131.7,144.8L131.7,144.8z"/>
</svg>
