<?xml version="1.0" encoding="utf-8"?>
<!-- Generator: Adobe Illustrator 22.1.0, SVG Export Plug-In . SVG Version: 6.00 Build 0)  -->
<svg version="1.1" id="Warstwa_1" xmlns="http://www.w3.org/2000/svg" xmlns:xlink="http://www.w3.org/1999/xlink" x="0px" y="0px"
	 viewBox="0 0 329 239" style="enable-background:new 0 0 329 239;" xml:space="preserve">
<style type="text/css">
	.st0{fill:#FFFFFF;}
</style>
<path class="st0" d="M51.5,43.5v170.3c0,2.7,2.2,4.8,4.8,4.8h126.4c2.7,0,4.8-2.2,4.8-4.8v-25.6h71.7c2.7,0,4.8-2.2,4.8-4.8V20.8
	c0-2.7-2.2-4.8-4.8-4.8H133.8c-0.1,0-0.2,0-0.3,0l-0.2,0.1H133c-0.1,0-0.1,0-0.2,0h-0.1h-0.1c-0.1,0-0.1,0-0.2,0.1
	c0,0-0.1,0-0.1,0.1c-0.1,0.1-0.3,0.2-0.5,0.2l0,0h-0.1l-0.3,0.2c-0.1,0.1-0.2,0.2-0.4,0.2l-0.1,0.1l-0.1,0.1c0,0-0.1,0.1-0.2,0.2
	l-0.4,0.4c0,0.1-0.1,0.1-0.1,0.2l-0.1,0.2c-0.1,0.1-0.1,0.2-0.1,0.3c-0.1,0.2-0.1,0.2-0.2,0.3c0,0.1-0.1,0.2-0.1,0.2l0,0
	c0,0.1-0.1,0.3-0.1,0.4l-0.1,0.5c0,0.1,0,0.1,0,0.2s0,0.2,0,0.3v18.5H56.3C53.7,38.6,51.5,40.8,51.5,43.5z M254.4,25.7v152.9h-66.9
	V42.8c0-0.1,0-0.2,0-0.2l-0.1-0.3c0-0.1-0.1-0.2-0.1-0.3s-0.1-0.1-0.1-0.2v-0.1c0-0.1-0.1-0.2-0.1-0.2l-0.4-0.6l-0.1-0.1l-0.1-0.1
	l-0.2-0.2c0,0,0,0,0-0.1l-0.5-0.5c0,0-0.1,0-0.1-0.1l0,0l-0.2-0.2c0,0-0.1,0-0.1-0.1c0,0-0.1,0-0.1-0.1l-0.1-0.1
	c-0.1-0.1-0.2-0.1-0.3-0.2l-0.2-0.1l-0.1-0.1l-29-13.4h98.8V25.7z M138.6,28.3l22.3,10.4h-22.3V28.3z M91.6,48.4H178V209H91.6V48.4z
	 M61.1,48.4h20.8V209H61.1V48.4z"/>
</svg>
