<?xml version="1.0" encoding="utf-8"?>
<!-- Generator: Adobe Illustrator 24.0.2, SVG Export Plug-In . SVG Version: 6.00 Build 0)  -->
<svg version="1.1" id="Warstwa_1" xmlns="http://www.w3.org/2000/svg" xmlns:xlink="http://www.w3.org/1999/xlink" x="0px" y="0px"
	 viewBox="0 0 329 239" style="enable-background:new 0 0 329 239;" xml:space="preserve">
<style type="text/css">
	.st0{fill:#FFFFFF;}
</style>
<path class="st0" d="M195.3,13.5H97.7c-10.1,0-18.4,8.3-18.4,18.4V213c0,10.1,8.3,18.4,18.4,18.4h96.4c20.8,0,38.8-14.1,43.8-34.3
	c5-20.2-4.5-41.1-22.9-50.7l-1.3-0.7V31.9C213.7,21.7,205.4,13.5,195.3,13.5z M123.4,22.4h46.2v8.5h-46.2V22.4z M160.5,222.5H97.9
	c-5.2,0-9.5-4.2-9.5-9.5L88.3,31.9c0-5.2,4.2-9.5,9.5-9.5h16.7v12.9c0,2.5,2,4.5,4.5,4.5h55.2c2.5,0,4.5-2,4.5-4.5V22.4h16.7
	c5.2,0,9.5,4.2,9.5,9.5v110.5l-2.9-0.5c-19.5-3.4-38.7,6.1-47.8,23.6c-9.1,17.5-5.8,38.7,8.2,52.6l4.3,4.3H160.5z M230.3,186.3
	L230.3,186.3c0,14.7-8.7,27.8-22.3,33.5c-4.5,1.9-9.2,2.8-13.9,2.8c-9.4,0-18.6-3.7-25.5-10.6c-10.4-10.4-13.5-25.9-7.9-39.4
	c5.6-13.6,18.7-22.3,33.4-22.3C214.1,150.1,230.3,166.4,230.3,186.3z"/>
<path class="st0" d="M220.8,186.3c0-2.5-2-4.5-4.5-4.5h-17.7v-17.6c0-2.5-2-4.5-4.5-4.5s-4.5,2-4.5,4.5v17.7H172
	c-2.5,0-4.5,2-4.5,4.5s2,4.5,4.5,4.5h17.7v17.6c0,2.5,2,4.5,4.5,4.5s4.5-2,4.5-4.5v-17.7h17.7C218.8,190.7,220.8,188.7,220.8,186.3z
	"/>
</svg>
