<?xml version="1.0" encoding="utf-8"?>
<!-- Generator: Adobe Illustrator 22.1.0, SVG Export Plug-In . SVG Version: 6.00 Build 0)  -->
<svg version="1.1" id="Warstwa_1" xmlns="http://www.w3.org/2000/svg" xmlns:xlink="http://www.w3.org/1999/xlink" x="0px" y="0px"
	 viewBox="0 0 329 239" style="enable-background:new 0 0 329 239;" xml:space="preserve">
<style type="text/css">
	.st0{fill:#FFFFFF;}
</style>
<g>
	<path class="st0" d="M227,128.4c-3.5-9.1-12.2-15.1-22-15c-15.6,0-12.6-22.8-11.5-29.3h8.1c1.2,0,2.2-0.9,2.2-2.1V55.8
		c0-6.7-5.4-12-12-12c-6.6,0-12,5.4-12,12v26.1c0,1.2,1,2.2,2.2,2.1c0,0,0,0,0,0h7.2c-1.4,8.4-3.8,33.7,15.9,33.7
		c7.9-0.1,15.1,4.8,17.9,12.3c1.2,3,1.8,6.2,1.7,9.5c-0.1,3.3-0.9,6.5-2.4,9.5c-3.9,7.4-12.6,13.1-27.3,12.5c-6.7-0.5-13.4,0-20,1.6
		c-7.2,1.9-13.5,6.4-17.6,12.6c-4.8,7.2-12,12.4-20.3,14.7c-5.1,1.4-10.5,1.6-15.6,0.4c-4.7-1-8.9-3.5-12.1-7.1
		c-3.4-4.1-5.2-9.3-5-14.6c0-7.5,2.2-12.6,4.5-18.2c3.8-8.1,5.9-17,6.1-26h7.7c1.2,0,2.2-1,2.2-2.2V96.7c0-3.2-1.3-6.3-3.5-8.5
		c-2.2-2.3-5.3-3.5-8.5-3.5c-6.7,0-12,5.4-12,12v26.1c0,1.2,1,2.2,2.2,2.2h7.6c-0.2,8.4-2.2,16.7-5.8,24.3c-2.4,6-4.8,11.5-4.8,19.8
		c-0.2,6.3,1.9,12.5,6,17.4c3.8,4.3,8.8,7.2,14.4,8.5c5.9,1.3,12,1.2,17.8-0.4c9.3-2.6,17.4-8.4,22.8-16.5
		c3.5-5.4,8.9-9.2,15.1-10.8c6.1-1.5,12.4-2,18.6-1.5c16.7,0.7,26.8-6,31.3-14.8c1.8-3.5,2.8-7.3,2.9-11.3
		C229.1,135.8,228.4,132,227,128.4L227,128.4z M184,79.7V55.8c0-4.2,3.4-7.7,7.7-7.7c4.2,0,7.7,3.4,7.7,7.7v23.9H184z M105.2,120.6
		V96.7c0-4.2,3.4-7.7,7.7-7.7c2,0,4,0.8,5.4,2.2c1.4,1.4,2.3,3.4,2.3,5.4v23.9H105.2z M105.2,120.6"/>
</g>
</svg>
