<?xml version="1.0" encoding="utf-8"?>
<!-- Generator: Adobe Illustrator 22.1.0, SVG Export Plug-In . SVG Version: 6.00 Build 0)  -->
<svg version="1.1" id="Warstwa_1" xmlns="http://www.w3.org/2000/svg" xmlns:xlink="http://www.w3.org/1999/xlink" x="0px" y="0px"
	 viewBox="0 0 329 239" style="enable-background:new 0 0 329 239;" xml:space="preserve">
<style type="text/css">
	.st0{fill:#FFFFFF;}
</style>
<path class="st0" d="M127.9,170.3c-0.8-0.8-1.9-1.3-3-1.3c-1.1,0-2.2,0.5-3,1.3c-0.8,0.8-1.3,1.9-1.3,3c0,1.1,0.5,2.2,1.3,3
	c0.8,0.8,1.9,1.3,3,1.3c1.1,0,2.2-0.5,3-1.3c0.8-0.8,1.3-1.9,1.3-3C129.1,172.2,128.7,171.1,127.9,170.3L127.9,170.3z M127.9,170.3"
	/>
<path class="st0" d="M273.9,10.8c-1.1-1.1-2.8-1.5-4.3-1.1l-21.4,6.4c0.5-1.4,0.3-2.9-0.6-4.1c-0.9-1.2-2.4-1.9-4-1.6
	c-18.8,2.4-28,11-32.2,16.7c-1.3-0.9-2.2-1.2-3.1-1.2c-1.4,0-2.7,0.5-5.4,3.1c-1.3,1.2-3.2,3.1-5.2,5.8c-3.4,4.5-7.4,11.5-7.4,19.8
	c0,3.1,0.5,6.3,1.6,9.5c1.1,3.2,0.2,6.9-2.3,9.3l-4.3,4.3c-0.3-0.7-0.6-1.4-0.9-2.1c-0.5-1.1-1.5-1.9-2.7-2.2
	c-1.2-0.3-2.4-0.2-3.5,0.5c-8.5,5.2-14.6,11.2-18,17.7c-2.5,4.7-3.5,9.6-3.1,14.3c-0.1,0.1-0.2,0.2-0.3,0.3l-62.3,62.3l5.3-19
	c18.8-10.3,18.7-29.1,18.6-29.9c0-2-1.5-3.7-3.5-4.1c-0.2,0-2.8-0.5-6.2,0.5l5.7-21.1c0.7-2.5,2.8-4.3,5.4-4.7
	c3.1-0.5,5.9-1.5,8.4-3c5.9-3.4,9.3-9.2,11.1-13.4c1.1-2.5,1.7-4.7,2-6c0.6-2.9,0.6-4.3-0.2-5.6c-0.4-0.7-0.9-1.2-1.7-1.7
	c2.2-5.5,4-15.3-1.6-28.9c-0.6-1.4-1.9-2.4-3.4-2.6c-0.9-0.1-1.9,0.1-2.7,0.5l-3.8-16c-0.4-1.5-1.5-2.8-3.1-3.2
	c-1.5-0.4-3.2,0.1-4.2,1.2l-11.3,11.9c-0.5-0.8-1.2-1.4-2.1-1.8c-1.4-0.6-3-0.4-4.3,0.6c-11.7,8.9-15,18.3-15.8,24.2
	c-0.9,0-1.6,0.2-2.3,0.6c-1.3,0.8-2.1,2-2.9,4.8c-0.4,1.3-1,3.5-1.3,6.2c-0.6,4.6-0.5,11.2,2.9,17.2c1.3,2.2,3,4.3,5.1,6.1
	c1.8,1.6,2.5,4.1,1.9,6.5l-0.9,3.4c-0.2-0.1-0.3-0.2-0.5-0.3c-1-0.7-2.3-0.9-3.4-0.6c-1.2,0.3-2.2,1.1-2.8,2.1
	c-3.9,7.1-5.7,13.8-5.5,19.9c0.2,4.3,1.3,8.1,3.5,11.3l-25.9,97c-0.6,2.3,0.7,4.7,3,5.3l15.9,4.3c0.4,0.1,0.7,0.1,1.1,0.1
	c0.8,0,1.5-0.2,2.2-0.6c1-0.6,1.7-1.5,2-2.6l2.6-10c0.8,0.7,1.8,1.1,2.9,1.1c1.1,0,2.2-0.5,3-1.3l27.6-27.6c1.7-1.7,1.7-4.4,0-6.1
	c-1.7-1.7-4.4-1.7-6.1,0l-24.5,24.5l-8.5-8.5l85.8-85.8c0.1,0,0.2,0,0.2,0c0.4,0,0.8-0.1,1.2-0.2c2.3-0.7,3.6-3.1,2.9-5.3
	c-2.2-7.7,2-16.1,11.8-23.4c0.5,5.9-3.5,9.8-4.1,10.4c-1.7,1.6-1.9,4.3-0.3,6.1c1.6,1.8,4.3,1.9,6.1,0.3c2.4-2.2,5.6-6.6,6.6-12.3
	l9.3-9.3c4.7-4.7,6.5-11.9,4.4-18.1c-0.8-2.3-1.2-4.5-1.2-6.7c0-8.2,6.1-15.5,9.4-18.8c3.4,3.3,9.5,10.7,9.5,18.8
	c0,2.9-0.7,5.8-1.9,8.8c-0.7,1.6-0.3,3.5,0.9,4.8c1.2,1.2,3.1,1.6,4.7,0.9c3-1.3,5.9-1.9,8.8-1.9c8.1,0,15.5,6.1,18.8,9.5
	c-3.2,3.3-10.6,9.4-18.8,9.4c-2.5,0-5-0.5-7.6-1.4c-6.6-2.5-14.1-0.9-19,4l-31.2,31.2c0,0-0.1,0.1-0.1,0.1c0,0-0.1,0-0.1,0.1
	l-0.2,0.2l0,0c-2.8,3.2-0.1,6,0,6.1c1.1,1.1,3.5,2,5.7,0.3c4.3-2.5,7.7-2.8,10.1-2.5c-4.4,5-13.8,12.8-29.3,11.7
	c-1.2-0.1-2.5,0.4-3.3,1.3l-20.8,20.8c-1.7,1.7-1.7,4.4,0,6.1c0.8,0.8,1.9,1.3,3,1.3c1.1,0,2.2-0.4,3-1.3l19.4-19.4
	c0.5,0,1.1,0,1.6,0c25.4,0,36.4-19.3,36.8-20.2c1-1.8,0.6-4-0.9-5.3c-0.2-0.2-3.3-2.8-8.5-3.5c9.2-9.2,20.9-20.9,20.9-20.9
	c2.6-2.5,6.5-3.4,9.9-2.1c3.5,1.3,7.1,2,10.6,2c8.2,0,15.3-4,19.8-7.4c2.7-2,4.6-3.9,5.8-5.2c2.6-2.8,3.1-4.1,3.1-5.4
	c0-1-0.2-1.8-1.2-3.1c5.7-4.2,14.3-13.5,16.7-32.2c0.2-1.5-0.4-3-1.6-4c-1.2-0.9-2.7-1.1-4.1-0.6l6.4-21.4
	C275.5,13.5,275.1,11.9,273.9,10.8L273.9,10.8z M132.2,41.5c1.9,8.1,0.3,13.5-1,16.2c-0.3,0-0.6-0.1-0.9-0.1
	c-1.4-0.2-3.1-0.3-4.9-0.3l-1.8-7.7C125.5,48,128.8,45.1,132.2,41.5L132.2,41.5z M112.3,32.9c0.2-0.4,0.5-0.8,0.9-1.2l8.3-8.7
	l2.8,11.7c0.1,0.5,0.2,1,0.2,1.5c0,0.3,0,0.6,0.1,0.9c-1.1,1.1-2.2,2.2-3.2,3.1l-0.3-1.1c-0.4-1.5-1.5-2.8-3.1-3.2
	c-1.5-0.4-3.2,0.1-4.2,1.2l-0.8,0.8c-0.4-1.3-0.8-2.7-1.2-4.3C111.9,33.4,112.1,33.2,112.3,32.9L112.3,32.9z M114.5,48.8l2.4,9.9
	c-1.3,0.4-2.6,1-3.8,1.7c-0.7,0.4-1.3,0.8-2,1.3c-0.3-0.7-0.7-1.4-1.1-2.1c-0.7-1.2-1.5-2.4-2.4-3.4L114.5,48.8z M102.9,33.7
	c1.2,4.8,2.5,9,3.4,11.4l-5.4,5.7c-1.5-0.9-3-1.6-4.4-2.2c-0.3-0.1-0.6-0.2-0.9-0.4C95.9,45.2,97.2,39.7,102.9,33.7L102.9,33.7z
	 M71.9,220.4l-7.6-2l4-15l6.3,6.3L71.9,220.4z M92.1,145.1l-9.7,34.7c-0.1,0.3-0.1,0.5-0.1,0.8l-10.6,10.6l17.2-64.3
	c0.3-0.2,0.6-0.4,0.8-0.7c1.6-1.7,1.6-4.4-0.1-6.1c-4.1-3.9-4.6-10.4-1.7-18.2c1.3,3.1,0.5,6,0.4,6.5l0,0l8.2,2.6
	c0.8-2.6,1.3-7-0.3-11.4l2.7-9.9c1.5-5.5-0.3-11.4-4.5-15.1c-1.4-1.2-2.5-2.5-3.3-4c-2.9-5-2-11.6-1.1-15.2
	c3.7,1.1,9.8,3.6,12.7,8.6c1.1,1.9,1.8,4.1,2.1,6.5c0.2,1.8,1.5,3.2,3.2,3.7c1.7,0.5,3.5-0.2,4.6-1.6c1.5-2,3.2-3.5,5-4.6
	c5-2.9,11.6-2,15.2-1.1c-1,3.6-3.6,9.7-8.6,12.6c-1.6,0.9-3.5,1.6-5.5,1.9c-5.9,1-10.7,5.3-12.2,11c0,0-8.4,31.4-9.2,34.2
	c0,0,0,0,0,0c0,0,0,0,0,0c0,0.1,0,0.2,0,0.2h0c-0.6,2.7,1.1,4.7,3,5.3c0,0,3.5,0.9,5-2.4c1.3-2.3,2.7-3.7,4-4.6
	c-1.4,5.1-5,12.6-14.7,17.4C93.2,143,92.4,144,92.1,145.1L92.1,145.1z M218.9,34.7c-0.4-0.5-0.8-1-1.2-1.5c2.2-3.3,7.7-9.7,20-12.9
	c-2.2,7.1-3.5,13.7-4.1,16.9l-11,3.3C221.4,38.2,220.1,36.3,218.9,34.7L218.9,34.7z M236.3,59.1c-1.9-0.4-3.9-0.7-6-0.7
	c-1.4,0-2.8,0.1-4.2,0.3c0.2-1.4,0.3-2.8,0.3-4.2c0-2.1-0.3-4.1-0.7-6l15.1-4.5L236.3,59.1z M244.8,26.4c0.5-0.1,1-0.2,1.4-0.5
	c0.6-0.3,1.2-0.6,1.9-0.8l16.4-4.9l-4.9,16.4c-0.2,0.7-0.5,1.3-0.8,1.9c-0.3,0.5-0.4,0.9-0.5,1.4c-2.9,0.8-5.6,1.4-7.9,1.9l0.9-3.1
	c0.5-1.5,0-3.2-1.1-4.3c-1.1-1.1-2.8-1.5-4.3-1.1l-3.1,0.9C243.3,32.1,244,29.3,244.8,26.4L244.8,26.4z M251.6,67.1
	c-0.5-0.4-1-0.8-1.5-1.2c-1.6-1.2-3.5-2.5-5.7-3.7l3.3-11c3.2-0.6,9.8-1.9,16.9-4.1C261.3,59.4,254.9,64.9,251.6,67.1L251.6,67.1z
	 M251.6,67.1"/>
<path class="st0" d="M273.9,100.7c-1.1-1.1-2.8-1.5-4.3-1.1l-15.7,4.7c0-0.9-0.3-1.8-0.9-2.6c-0.9-1.2-2.4-1.8-4-1.6
	c-14.5,1.9-22.1,8.4-25.8,13c-0.8-0.5-1.5-0.6-2.3-0.6c-1.5,0-2.8,0.7-4.9,2.7c-1,1-2.6,2.5-4.2,4.7c-2.8,3.7-6.1,9.5-6.1,16.3
	c0,2.6,0.4,5.2,1.3,7.8c0.7,2.2,0.1,4.8-1.6,6.5l-2.5,2.5c-0.1-0.2-0.2-0.3-0.2-0.5c-0.5-1.1-1.5-1.9-2.7-2.2
	c-1.2-0.3-2.4-0.2-3.5,0.5c-6.9,4.3-11.9,9.1-14.7,14.5c-2,3.8-2.9,7.7-2.6,11.5l-34.5,34.5c-1.7,1.7-1.7,4.4,0,6.1
	c0.8,0.8,1.9,1.3,3,1.3c1.1,0,2.2-0.4,3-1.3l33.4-33.4c0.3,0,0.7-0.1,1-0.2c2.3-0.7,3.6-3.1,2.9-5.3c-1.6-5.4,1.2-11.3,7.7-16.6
	c-0.4,3.3-2.6,5.5-2.9,5.8l0,0l5.8,6.4c2-1.8,4.6-5.4,5.5-10l7.3-7.3c4-4,5.5-10,3.7-15.4c-0.6-1.7-0.9-3.4-0.9-5.1
	c0-5.8,4-11.1,6.6-13.7c2.6,2.7,6.7,8,6.7,13.7c0,2.2-0.5,4.4-1.5,6.7c-0.7,1.6-0.3,3.5,0.9,4.7c1.2,1.2,3.1,1.6,4.7,0.9
	c2.3-1,4.5-1.5,6.7-1.5c5.7,0,11,4,13.7,6.7c-2.7,2.6-8,6.6-13.7,6.6c-1.9,0-3.8-0.4-5.7-1.1c-5.6-2.1-11.9-0.8-16.1,3.4
	c0,0-23,23-25.1,25.1c0,0,0,0,0,0c0,0,0,0,0,0c-0.1,0.1-0.1,0.1-0.1,0.1l0,0c-1.9,2-1.4,4.6,0,6.1c0,0,2.6,2.5,5.5,0.4
	c2.3-1.3,4.2-1.9,5.8-2c-3.8,3.7-10.7,8.4-21.4,7.7c-1.2-0.1-2.5,0.4-3.3,1.3l-21.3,21.3c-1.7,1.7-1.7,4.4,0,6.1
	c0.8,0.8,1.9,1.3,3,1.3c1.1,0,2.2-0.4,3-1.3l19.9-20c0.3,0,0.6,0,0.9,0c20.8,0,29.8-15.9,30.2-16.6c1-1.8,0.6-4-0.9-5.3
	c-0.2-0.1-2.2-1.8-5.6-2.7l15.5-15.5c1.8-1.8,4.5-2.4,7-1.4c2.9,1.1,5.9,1.6,8.8,1.6c6.8,0,12.6-3.3,16.3-6.1
	c2.2-1.6,3.8-3.2,4.7-4.2c2-2.2,2.7-3.4,2.7-4.9c0-0.8-0.2-1.5-0.6-2.3c4.7-3.7,11.1-11.3,13-25.8c0.2-1.5-0.4-3-1.6-4
	c-0.8-0.6-1.7-0.9-2.6-0.9L275,105C275.5,103.4,275.1,101.8,273.9,100.7L273.9,100.7z M230.1,119.8c-0.2-0.3-0.4-0.5-0.6-0.7
	c1.7-2.5,5.7-6.6,13.6-9c-1.4,4.7-2.3,9.1-2.7,11.5l-7.6,2.3C231.9,122.4,231,121,230.1,119.8L230.1,119.8z M242.7,138.8
	c-1.3-0.3-2.7-0.4-4.2-0.4c-0.8,0-1.6,0-2.4,0.1c0.1-0.8,0.1-1.6,0.1-2.4c0-1.4-0.2-2.8-0.4-4.2l9.8-2.9L242.7,138.8z M250.8,114.5
	c0.3-0.1,0.6-0.2,0.9-0.4c0.4-0.2,0.9-0.4,1.3-0.6l11.5-3.4l-3.4,11.5c-0.1,0.5-0.3,0.9-0.6,1.3c-0.2,0.3-0.3,0.6-0.4,0.9
	c-1.5,0.4-3,0.8-4.3,1.1l0.3-1.1c0.5-1.5,0-3.2-1.1-4.3c-1.1-1.1-2.8-1.5-4.3-1.1l-1.1,0.3C250,117.5,250.3,116,250.8,114.5
	L250.8,114.5z M255.5,145.1c-0.2-0.2-0.5-0.4-0.7-0.6c-1.2-0.9-2.5-1.8-4.1-2.7l2.3-7.6c2.5-0.5,6.8-1.3,11.5-2.7
	C262.1,139.5,258,143.4,255.5,145.1L255.5,145.1z M255.5,145.1"/>
<path class="st0" d="M139.8,222.3c-0.8-0.8-1.9-1.3-3-1.3c-1.1,0-2.2,0.5-3,1.3c-0.8,0.8-1.3,1.9-1.3,3c0,1.1,0.5,2.2,1.3,3
	c0.8,0.8,1.9,1.3,3,1.3c1.1,0,2.2-0.5,3-1.3c0.8-0.8,1.3-1.9,1.3-3C141,224.2,140.6,223.1,139.8,222.3L139.8,222.3z M139.8,222.3"/>
</svg>
