<?xml version="1.0" encoding="utf-8"?>
<!-- Generator: Adobe Illustrator 22.1.0, SVG Export Plug-In . SVG Version: 6.00 Build 0)  -->
<svg version="1.1" id="Warstwa_1" xmlns="http://www.w3.org/2000/svg" xmlns:xlink="http://www.w3.org/1999/xlink" x="0px" y="0px"
	 viewBox="0 0 400 400" style="enable-background:new 0 0 400 400;" xml:space="preserve">
<style type="text/css">
	.st0{fill:#FFFFFF;}
</style>
<path class="st0" d="M282.8,186.6l-0.1-0.6c-2.3-24.2-6-47.5-27.6-88c-17-31.9-37.7-49.3-52.8-62.1c-1.3-1.1-2.5-2.1-3.7-3.1
	c-0.8-0.8-1.8-1.5-2.8-2c-3.3-1.5-7.2-1-10,1.4c-1.4,1.2-2.8,2.4-4.3,3.7c-15.1,12.7-35.8,30.2-52.8,62.1
	c-21.6,40.5-25.3,63.8-27.6,88l-0.1,0.6c-2.4,25.1-1.9,59.9,14.3,83.1c20.8,29.9,53.2,42.7,68.2,46.7c1.4,10.6,5.7,19.1,12.8,25.4
	c10.3,9.1,23.7,10.3,30,10.3c2.1,0,3.4-0.1,3.6-0.1c5.1-0.5,8.9-5.1,8.3-10.2c-0.6-5.1-5.1-8.8-10.2-8.2c-0.1,0-11.8,1-19.3-5.7
	c-3.2-2.8-5.2-6.9-6.2-12c15.8-4.6,46.2-17.6,66.1-46.1C284.7,246.5,285.2,211.7,282.8,186.6 M253.2,259.2
	c-19.7,28.3-52.7,38.7-60.5,40.1c-0.2,0-0.5,0-0.7,0c-0.2,0-0.3,0-0.5,0c-7.5-1.3-40.9-11.6-60.8-40.1c-10.1-14.5-14-39.7-11-70.8
	l0.1-0.6c2.2-23,5.4-43.6,25.5-81.1c14.8-27.6,32.3-43,46.7-55.2c14.4,12.2,32,27.6,46.8,55.3c20,37.5,23.3,58.1,25.5,81.1l0.1,0.6
	C267.2,219.5,263.3,244.7,253.2,259.2"/>
<path class="st0" d="M236.1,167.1c3.3-4,2.6-9.8-1.4-13c-4-3.2-9.9-2.6-13.1,1.3l-20.3,24.8v-32.1l21.4-26.1c3.2-4,2.6-9.8-1.4-13
	c-4-3.2-9.9-2.6-13.1,1.3l-6.9,8.4V77.6c0-5.1-4.2-9.3-9.3-9.3c-5.2,0-9.3,4.1-9.3,9.3v40.1l-5.7-7.2c-3.2-4-9.1-4.7-13.1-1.5
	c-4,3.2-4.7,9-1.5,13l20.4,25.6v32l-19.1-24.1c-3.2-4-9.1-4.7-13.1-1.5c-4,3.2-4.7,9-1.5,13l33.8,42.5v30.7l-19.1-24.1
	c-3.2-4-9.1-4.7-13.1-1.5c-4,3.2-4.7,9-1.5,13l33.8,42.5v10c0,5.1,4.2,9.3,9.3,9.3c5.2,0,9.3-4.1,9.3-9.3v-10l34.8-42.5
	c3.3-4,2.6-9.8-1.4-13c-4-3.2-9.9-2.6-13.1,1.3l-20.3,24.8v-31.2L236.1,167.1z"/>
</svg>
