<?xml version="1.0" encoding="utf-8"?>
<!-- Generator: Adobe Illustrator 22.1.0, SVG Export Plug-In . SVG Version: 6.00 Build 0)  -->
<svg version="1.1" id="Warstwa_1" xmlns="http://www.w3.org/2000/svg" xmlns:xlink="http://www.w3.org/1999/xlink" x="0px" y="0px"
	 viewBox="0 0 329 239" style="enable-background:new 0 0 329 239;" xml:space="preserve">
<style type="text/css">
	.st0{fill:#FFFFFF;}
</style>
<g>
	<path class="st0" d="M254.5,61.4c0-0.3-0.1-0.5-0.1-0.8c0-0.1-0.1-0.2-0.1-0.3c-0.1-0.2-0.1-0.4-0.3-0.6c-0.1-0.1-0.2-0.2-0.2-0.3
		c-0.1-0.2-0.2-0.3-0.4-0.4c-0.1-0.1-0.2-0.2-0.3-0.3c-0.1-0.1-0.2-0.1-0.3-0.2c-0.1,0-0.1-0.1-0.2-0.1c-0.1,0-0.1-0.1-0.1-0.1
		l-97.7-47c-1-0.5-2.2-0.5-3.2,0.1l-90.4,47c0,0-0.1,0.1-0.1,0.1c0,0-0.1,0-0.1,0.1c-0.1,0.1-0.2,0.2-0.3,0.3
		c-0.1,0.1-0.2,0.2-0.3,0.3c-0.1,0.1-0.2,0.3-0.4,0.4c-0.1,0.1-0.2,0.2-0.2,0.3c-0.1,0.2-0.2,0.4-0.3,0.6c0,0.1-0.1,0.2-0.1,0.3
		c-0.1,0.3-0.1,0.6-0.1,0.9v115.7c0,1.4,0.8,2.6,2,3.2l94,47c0.1,0,0.1,0,0.2,0c0.5,0.2,1,0.3,1.5,0.3c0.5,0,1-0.1,1.5-0.3
		c0.1,0,0.1,0,0.2,0l94-47c1.2-0.6,2-1.9,2-3.2V61.6c0,0,0,0,0,0C254.5,61.6,254.5,61.5,254.5,61.4z M153.2,130.3V152v21.7v21.7
		v21.7v1.4l-0.2-0.1c0.1-0.4,0.2-0.8,0.2-1.3c0-2-1.6-3.6-3.6-3.6c-1.3,0-2.3,0.7-3,1.7l-37-18.5c0.1-0.4,0.2-0.8,0.2-1.3
		c0-2-1.6-3.6-3.6-3.6c-1.3,0-2.3,0.7-3,1.7l-36.8-18.4V67.5l36.4,18.2c-0.1,0.4-0.2,0.8-0.2,1.3c0,2,1.6,3.6,3.6,3.6
		c1.3,0,2.3-0.7,3-1.7l37,18.5c-0.1,0.4-0.2,0.8-0.2,1.3c0,2,1.6,3.6,3.6,3.6c1.3,0,2.3-0.7,3-1.7l0.6,0.3V130.3z M156.9,104.6
		l-86.1-43l82.5-42.9l89.4,43l-27.4,13.7c-0.2-0.2-0.5-0.4-0.8-0.5L142,39.1c-1-1.1-2.7-1.4-4.1-0.7l-29.4,14.9
		c-1.7,0.9-2.4,3-1.5,4.7c0.2,0.3,0.4,0.6,0.6,0.8c0.2,1,0.9,1.8,1.8,2.3l67.6,33.3L156.9,104.6z M210.1,113.3L187,124.8V97.6
		l23-11.5v26.4C210,112.8,210,113,210.1,113.3z M139.3,45.5l68.3,33.7l-22.7,11.3l-68.2-33.6L139.3,45.5z M247.3,175.1l-86.8,43.4
		V110.9l19.5-9.8v29.4c0,1.2,0.6,2.3,1.7,3c0.6,0.3,1.2,0.5,1.8,0.5c0.5,0,1.1-0.1,1.6-0.4l30-15c1.7-0.9,2.4-2.9,1.6-4.6
		c0.2-0.5,0.3-1,0.3-1.5V82.6l30.3-15.1V175.1z"/>
	<path class="st0" d="M106.2,105c-2,0-3.6,1.6-3.6,3.6c0,2,1.6,3.6,3.6,3.6s3.6-1.6,3.6-3.6C109.8,106.6,108.2,105,106.2,105z"/>
	<path class="st0" d="M73.7,72.5c-2,0-3.6,1.6-3.6,3.6c0,2,1.6,3.6,3.6,3.6c2,0,3.6-1.6,3.6-3.6C77.3,74.1,75.7,72.5,73.7,72.5z"/>
	<path class="st0" d="M84.5,83.3c-2,0-3.6,1.6-3.6,3.6c0,2,1.6,3.6,3.6,3.6s3.6-1.6,3.6-3.6C88.1,84.9,86.5,83.3,84.5,83.3z"/>
	<path class="st0" d="M73.7,94.2c-2,0-3.6,1.6-3.6,3.6c0,2,1.6,3.6,3.6,3.6c2,0,3.6-1.6,3.6-3.6C77.3,95.8,75.7,94.2,73.7,94.2z"/>
	<path class="st0" d="M84.5,105c-2,0-3.6,1.6-3.6,3.6c0,2,1.6,3.6,3.6,3.6s3.6-1.6,3.6-3.6C88.1,106.6,86.5,105,84.5,105z"/>
	<path class="st0" d="M95.4,94.2c-2,0-3.6,1.6-3.6,3.6c0,2,1.6,3.6,3.6,3.6c2,0,3.6-1.6,3.6-3.6C99,95.8,97.4,94.2,95.4,94.2z"/>
	<path class="st0" d="M117.1,94.2c-2,0-3.6,1.6-3.6,3.6c0,2,1.6,3.6,3.6,3.6c2,0,3.6-1.6,3.6-3.6C120.7,95.8,119.1,94.2,117.1,94.2z
		"/>
	<path class="st0" d="M127.9,105c-2,0-3.6,1.6-3.6,3.6c0,2,1.6,3.6,3.6,3.6s3.6-1.6,3.6-3.6C131.5,106.6,129.9,105,127.9,105z"/>
	<path class="st0" d="M106.2,148.4c-2,0-3.6,1.6-3.6,3.6c0,2,1.6,3.6,3.6,3.6s3.6-1.6,3.6-3.6C109.8,150,108.2,148.4,106.2,148.4z"
		/>
	<path class="st0" d="M73.7,115.9c-2,0-3.6,1.6-3.6,3.6c0,2,1.6,3.6,3.6,3.6c2,0,3.6-1.6,3.6-3.6C77.3,117.5,75.7,115.9,73.7,115.9z
		"/>
	<path class="st0" d="M84.5,126.7c-2,0-3.6,1.6-3.6,3.6c0,2,1.6,3.6,3.6,3.6s3.6-1.6,3.6-3.6C88.1,128.3,86.5,126.7,84.5,126.7z"/>
	<path class="st0" d="M106.2,126.7c-2,0-3.6,1.6-3.6,3.6c0,2,1.6,3.6,3.6,3.6s3.6-1.6,3.6-3.6C109.8,128.3,108.2,126.7,106.2,126.7z
		"/>
	<path class="st0" d="M95.4,115.9c-2,0-3.6,1.6-3.6,3.6c0,2,1.6,3.6,3.6,3.6c2,0,3.6-1.6,3.6-3.6C99,117.5,97.4,115.9,95.4,115.9z"
		/>
	<path class="st0" d="M73.7,137.6c-2,0-3.6,1.6-3.6,3.6c0,2,1.6,3.6,3.6,3.6c2,0,3.6-1.6,3.6-3.6C77.3,139.2,75.7,137.6,73.7,137.6z
		"/>
	<path class="st0" d="M84.5,148.4c-2,0-3.6,1.6-3.6,3.6c0,2,1.6,3.6,3.6,3.6s3.6-1.6,3.6-3.6C88.1,150,86.5,148.4,84.5,148.4z"/>
	<path class="st0" d="M95.4,137.6c-2,0-3.6,1.6-3.6,3.6c0,2,1.6,3.6,3.6,3.6c2,0,3.6-1.6,3.6-3.6C99,139.2,97.4,137.6,95.4,137.6z"
		/>
	<path class="st0" d="M117.1,115.9c-2,0-3.6,1.6-3.6,3.6c0,2,1.6,3.6,3.6,3.6c2,0,3.6-1.6,3.6-3.6
		C120.7,117.5,119.1,115.9,117.1,115.9z"/>
	<path class="st0" d="M117.1,137.6c-2,0-3.6,1.6-3.6,3.6c0,2,1.6,3.6,3.6,3.6c2,0,3.6-1.6,3.6-3.6
		C120.7,139.2,119.1,137.6,117.1,137.6z"/>
	<path class="st0" d="M127.9,148.4c-2,0-3.6,1.6-3.6,3.6c0,2,1.6,3.6,3.6,3.6s3.6-1.6,3.6-3.6C131.5,150,129.9,148.4,127.9,148.4z"
		/>
	<path class="st0" d="M127.9,126.7c-2,0-3.6,1.6-3.6,3.6c0,2,1.6,3.6,3.6,3.6s3.6-1.6,3.6-3.6C131.5,128.3,129.9,126.7,127.9,126.7z
		"/>
	<path class="st0" d="M138.8,115.9c-2,0-3.6,1.6-3.6,3.6c0,2,1.6,3.6,3.6,3.6c2,0,3.6-1.6,3.6-3.6
		C142.4,117.5,140.8,115.9,138.8,115.9z"/>
	<path class="st0" d="M138.8,137.6c-2,0-3.6,1.6-3.6,3.6c0,2,1.6,3.6,3.6,3.6c2,0,3.6-1.6,3.6-3.6
		C142.4,139.2,140.8,137.6,138.8,137.6z"/>
	<path class="st0" d="M149.6,148.4c-2,0-3.6,1.6-3.6,3.6c0,2,1.6,3.6,3.6,3.6c2,0,3.6-1.6,3.6-3.6
		C153.2,150,151.6,148.4,149.6,148.4z"/>
	<path class="st0" d="M149.6,126.7c-2,0-3.6,1.6-3.6,3.6c0,2,1.6,3.6,3.6,3.6c2,0,3.6-1.6,3.6-3.6
		C153.2,128.3,151.6,126.7,149.6,126.7z"/>
	<path class="st0" d="M73.7,159.3c-2,0-3.6,1.6-3.6,3.6c0,2,1.6,3.6,3.6,3.6c2,0,3.6-1.6,3.6-3.6C77.3,160.9,75.7,159.3,73.7,159.3z
		"/>
	<path class="st0" d="M84.5,170.1c-2,0-3.6,1.6-3.6,3.6c0,2,1.6,3.6,3.6,3.6s3.6-1.6,3.6-3.6C88.1,171.7,86.5,170.1,84.5,170.1z"/>
	<path class="st0" d="M106.2,170.1c-2,0-3.6,1.6-3.6,3.6c0,2,1.6,3.6,3.6,3.6s3.6-1.6,3.6-3.6C109.8,171.7,108.2,170.1,106.2,170.1z
		"/>
	<path class="st0" d="M95.4,159.3c-2,0-3.6,1.6-3.6,3.6c0,2,1.6,3.6,3.6,3.6c2,0,3.6-1.6,3.6-3.6C99,160.9,97.4,159.3,95.4,159.3z"
		/>
	<path class="st0" d="M95.4,181c-2,0-3.6,1.6-3.6,3.6c0,2,1.6,3.6,3.6,3.6c2,0,3.6-1.6,3.6-3.6C99,182.6,97.4,181,95.4,181z"/>
	<path class="st0" d="M117.1,159.3c-2,0-3.6,1.6-3.6,3.6c0,2,1.6,3.6,3.6,3.6c2,0,3.6-1.6,3.6-3.6
		C120.7,160.9,119.1,159.3,117.1,159.3z"/>
	<path class="st0" d="M117.1,181c-2,0-3.6,1.6-3.6,3.6c0,2,1.6,3.6,3.6,3.6c2,0,3.6-1.6,3.6-3.6C120.7,182.6,119.1,181,117.1,181z"
		/>
	<path class="st0" d="M127.9,191.8c-2,0-3.6,1.6-3.6,3.6c0,2,1.6,3.6,3.6,3.6s3.6-1.6,3.6-3.6C131.5,193.4,129.9,191.8,127.9,191.8z
		"/>
	<path class="st0" d="M127.9,170.1c-2,0-3.6,1.6-3.6,3.6c0,2,1.6,3.6,3.6,3.6s3.6-1.6,3.6-3.6C131.5,171.7,129.9,170.1,127.9,170.1z
		"/>
	<circle class="st0" cx="138.8" cy="162.9" r="3.6"/>
	<circle class="st0" cx="138.8" cy="184.6" r="3.6"/>
	<path class="st0" d="M149.6,191.8c-2,0-3.6,1.6-3.6,3.6c0,2,1.6,3.6,3.6,3.6c2,0,3.6-1.6,3.6-3.6
		C153.2,193.4,151.6,191.8,149.6,191.8z"/>
	<path class="st0" d="M149.6,170.1c-2,0-3.6,1.6-3.6,3.6c0,2,1.6,3.6,3.6,3.6c2,0,3.6-1.6,3.6-3.6
		C153.2,171.7,151.6,170.1,149.6,170.1z"/>
	<path class="st0" d="M138.8,202.7c-2,0-3.6,1.6-3.6,3.6c0,2,1.6,3.6,3.6,3.6c2,0,3.6-1.6,3.6-3.6
		C142.4,204.3,140.8,202.7,138.8,202.7z"/>
</g>
</svg>
