<?xml version="1.0" encoding="utf-8"?>
<!-- Generator: Adobe Illustrator 22.1.0, SVG Export Plug-In . SVG Version: 6.00 Build 0)  -->
<svg version="1.1" id="Warstwa_1" xmlns="http://www.w3.org/2000/svg" xmlns:xlink="http://www.w3.org/1999/xlink" x="0px" y="0px"
	 viewBox="0 0 329 239" style="enable-background:new 0 0 329 239;" xml:space="preserve">
<style type="text/css">
	.st0{fill:#FFFFFF;}
</style>
<g>
	<path class="st0" d="M215.6,87.6c-1.8-14.7-9.9-27.3-21.4-35.4l0.9-6.9h20.7c2.1,0,3.8-1.7,3.8-3.8V26.3c0-2.1-1.7-3.8-3.8-3.8
		h-26.7c-8,0-14.8,6-15.8,13.9l-0.9,7.1c-2.4-0.4-4.9-0.5-7.4-0.5c-25.9,0-47.4,19.3-50.6,44.6c-4.3,0.4-7.7,4-7.7,8.5v11.9
		c0,2.1,1.7,3.8,3.8,3.8h4.1L128,213.2c0.3,1.9,1.9,3.3,3.8,3.3h66.6c1.9,0,3.5-1.4,3.8-3.3l13.4-101.5h4c2.1,0,3.8-1.7,3.8-3.8V96
		C223.4,91.6,219.9,88,215.6,87.6L215.6,87.6z M208,87.5h-18.2l3.4-26.6C200.9,67.5,206.4,76.9,208,87.5L208,87.5z M178.9,52.8
		c2.5,0.8,4.9,1.9,7.2,3.2l-4,31.5h-7.6L178.9,52.8z M180.8,37.4c0.5-4.2,4.1-7.3,8.3-7.3H212v7.6h-20.2c-1.9,0-3.5,1.4-3.8,3.3
		l-0.9,7c-2.3-1.1-4.8-2.1-7.3-2.8L180.8,37.4z M165,50.6c2.2,0,4.3,0.2,6.5,0.5l-4.6,36.5h-6.5c-2.1,0-3.8,1.7-3.8,3.8
		c0,2.1,1.7,3.8,3.8,3.8h54.5c0.5,0,0.9,0.4,0.9,0.9v8.1H114.2V96c0-0.5,0.4-0.9,0.9-0.9H130c2.1,0,3.8-1.7,3.8-3.8
		c0-2.1-1.7-3.8-3.8-3.8h-8C125.2,66.5,143.3,50.6,165,50.6L165,50.6z M175.9,136.8c-2.6-1.1-4.9-2.7-7.1-4.6l2.6-20.5h7.6
		L175.9,136.8z M167.7,140.9c2.2,1.5,4.7,2.7,7.2,3.6l-5.6,44.4l-7.5-1L167.7,140.9z M163.8,111.7l-1.9,14.8
		c-5.5-3.6-12-5.5-18.7-5.5c-6.9,0-13.4,2-19,5.7l-2-15H163.8z M195,208.9h-60l-9.7-73.6c4.9-4.3,11.2-6.7,17.9-6.7
		c6.5,0,12.7,2.3,17.6,6.5l-7,55.7c-0.3,2.1,1.2,4,3.3,4.2l15,1.9c0.2,0,0.3,0,0.5,0c0.8,0,1.7-0.3,2.3-0.8c0.8-0.6,1.3-1.5,1.4-2.5
		l6-47.3c1.5,0.2,3.1,0.3,4.6,0.3c6,0,11.8-1.5,16.9-4.4L195,208.9z M205.2,132c-5,4.6-11.5,7.1-18.3,7.1c-1.2,0-2.5-0.1-3.7-0.3
		l3.4-27.2h21.2L205.2,132z M205.2,132"/>
	<path class="st0" d="M145.2,95.1c1,0,2-0.4,2.7-1.1c0.7-0.7,1.1-1.7,1.1-2.7c0-1-0.4-2-1.1-2.7c-0.7-0.7-1.7-1.1-2.7-1.1
		c-1,0-2,0.4-2.7,1.1c-0.7,0.7-1.1,1.7-1.1,2.7c0,1,0.4,2,1.1,2.7C143.2,94.7,144.2,95.1,145.2,95.1L145.2,95.1z M145.2,95.1"/>
</g>
</svg>
