<?xml version="1.0" encoding="utf-8"?>
<!-- Generator: Adobe Illustrator 22.1.0, SVG Export Plug-In . SVG Version: 6.00 Build 0)  -->
<svg version="1.1" id="Warstwa_1" xmlns="http://www.w3.org/2000/svg" xmlns:xlink="http://www.w3.org/1999/xlink" x="0px" y="0px"
	 viewBox="0 0 329 239" style="enable-background:new 0 0 329 239;" xml:space="preserve">
<style type="text/css">
	.st0{fill:#FFFFFF;}
</style>
<g>
	<path class="st0" d="M221.6,147.1c-5.6-5.2-8.4-10.6-8-15.7c0.3-4.2,2.7-8.1,7.1-11.1c10-7,9.5-16.3,6.1-22.2
		c-4.2-7-12.2-9.8-18.7-6.6c-1.5,0.8-2.7,2-4.1,3.2c-1.9,1.9-3.9,3.8-6.9,4.6c-2,0.5-4.3,0.2-6.1-1c-1.3-0.8-2.2-2-2.4-3.2
		c-0.8-5,3-9.7,6.9-14.6c4.1-5.1,8.3-10.4,7.4-16.6c-1.6-10-10.4-15.3-18-15.1c-7.6,0.2-13,5.3-13.8,13c-1,9.1-3.6,15.3-7.3,17.4
		c-2.4,1.3-5.5,1-9.3-0.8c-5.3-2.7-10.4-3.2-14.5-1.5c-3.5,1.4-6,4.2-7.4,8.2c-2.5,7.3,2,12.4,5.1,15.8c0.7,0.7,1.3,1.4,1.8,2.1
		c2.6,3.4,1,7.9-2,10.3c-4.7,3.7-9.7,0.7-12.9-3.2c-8.4-10.5-17.9-15.5-25.6-13.4c-5.2,1.5-8.7,6.2-9.5,12.9
		c-1.3,10.3,7.4,14.5,15.1,18.1c4.9,2.4,10.1,4.8,12,8.6c1.4,2.8-0.4,5.5-3.9,10.4c-4.4,6.1-10.5,14.5-7.6,27.1
		c2.7,12,11.1,19.7,23,21.2c1.3,0.2,2.7,0.2,4,0.2c10.6,0,20.7-5.2,24.8-13.3c5.3-10.4,11-16.1,17-16.9c8.1-1.1,15.8,7.4,20,11.9
		c0.4,0.5,0.8,0.9,1.2,1.3c5.1,5.5,13.3,7.6,21.3,5.5c7.7-2,13.5-7.3,15.1-13.8C233.7,160.7,227.3,152.4,221.6,147.1z M226.1,168.8
		c-1.2,4.6-5.5,8.5-11.3,9.9c-4.8,1.2-11.5,0.8-16-4c-0.4-0.4-0.7-0.8-1.1-1.3c-4.8-5.3-13.7-15.1-24.6-13.6
		c-7.8,1-14.8,7.7-21,19.8c-3.6,7-13.6,11.4-23.4,10.2c-9.5-1.2-16.2-7.4-18.4-17.1c-2.3-10.3,2.5-16.9,6.7-22.8
		c3.6-4.9,7.3-10,4.3-15.9c-2.7-5.5-8.7-8.3-14.4-11.1c-8-3.8-12.8-6.5-12-12.6c0.3-2.6,1.5-7.2,5.6-8.4c0.7-0.2,1.4-0.3,2.1-0.3
		c5.1,0,11.9,4.4,17.8,11.8c6.8,8.5,15.1,8.2,20.4,4.1c2.6-2,4.4-4.9,5.1-8c0.7-3.5,0-6.9-2.1-9.7c-0.6-0.8-1.3-1.6-2-2.4
		c-3.3-3.7-5.4-6.5-4-10.5c0.9-2.5,2.4-4.2,4.4-5c2.6-1.1,6.2-0.6,10.1,1.4c5.4,2.7,10.2,2.9,14.2,0.7c5.5-3,8.9-10.2,10.1-21.5
		c0.5-5,3.8-8.1,8.6-8.2c5.3-0.1,11.5,3.5,12.5,10.6c0.6,3.8-2.7,8-6.3,12.4c-4.3,5.4-9.2,11.5-8,18.8c0.4,2.8,2.1,5.2,4.7,6.9
		c3.1,2,7,2.6,10.4,1.6c4.4-1.2,7.1-3.8,9.2-6c1-1,1.9-1.9,2.7-2.3c3.4-1.7,8.6-0.7,11.7,4.5c2.4,4.1,2.5,10.2-4.5,15
		c-5.6,3.9-8.9,9.3-9.3,15.1c-0.3,4.7,1.1,12,9.7,20C224.7,157.2,227.5,163.4,226.1,168.8z"/>
	<path class="st0" d="M100.7,69.1c3.6-0.2,6.5-1.7,8.3-4.5c2-3.1,1.9-7.3,1.5-10.4c-0.6-3.9-2-8.1-4.2-11.9
		c-4.9-8.8-12.1-13.7-19.7-13.4c-5.4,0.2-10.1,3.4-12.3,8.4c-2.7,6.1-1.3,13.5,3.9,19.6c6.2,7.3,14.8,12.1,21.7,12.1
		C100.2,69.1,100.5,69.1,100.7,69.1z M82.4,53.6c-3.8-4.6-5-9.8-3.1-14c1.4-3.1,4.2-5.1,7.6-5.2c0.1,0,0.3,0,0.4,0
		c7.6,0,12.6,7.4,14.4,10.7c3.1,5.5,5,13.5,2.9,16.7c-0.9,1.3-2.2,2-4.1,2.1C95.2,64.1,87.6,59.8,82.4,53.6z"/>
	<path class="st0" d="M138.6,56.4c2.5,1.1,4.5,1.5,6.2,1.5c2.3,0,3.9-0.8,5-1.6c2.3-1.8,3.4-5,2.8-8.5c-0.4-2.5-3.5-9.6-8.6-12.1
		c-2.5-1.3-5.2-1.2-7.6,0.1c-3.9,2-6.2,5.7-6,9.7C130.4,50.1,133.5,54.2,138.6,56.4z M138.8,40.5c1-0.5,1.8-0.5,2.8,0
		c3.1,1.5,5.5,6.8,5.7,8.2c0.3,1.5,0,2.8-0.8,3.4c-1,0.8-3.2,0.6-5.8-0.5c-3.1-1.4-5.1-3.7-5.1-6.2
		C135.5,43.3,136.7,41.5,138.8,40.5z"/>
	<path class="st0" d="M224,76.8c0.5,0,0.9,0,1.4-0.1c3.5-0.6,7.2-3.4,10.2-7.7c2.9-4.2,4.3-8.7,3.7-12.1c-0.4-2.3-1.6-4.1-3.6-5.2
		c-1.9-1-4.5-1.3-7.5-0.8c-4.3,0.7-7.9,4.1-9.9,9.4c-1.7,4.6-2.2,10.8,0.7,14.3C220.2,76,222,76.8,224,76.8z M223.3,62
		c1.3-3.4,3.4-5.6,5.7-6c4.7-0.7,4.9,1,5.1,1.6c0.7,4.5-5.1,12.9-9.6,13.7c-0.9,0.2-1.2-0.2-1.4-0.4C222,69.7,221.8,65.9,223.3,62z"
		/>
	<path class="st0" d="M253.6,193.9c-3.3-4.3-9.3-6.8-14.4-5.9c-3.9,0.7-6.8,3.1-8,7c-2.2,6.6,2.8,13.6,8.8,16
		c1.5,0.6,3.1,0.9,4.5,0.9c4.4,0,8.2-2.6,10.4-7.4C256.5,200.9,256,197.1,253.6,193.9z M250,202.2c-1,2.2-3.4,5.6-8.1,3.8
		c-4.4-1.8-6.6-6.4-5.7-9.3c0.6-1.9,1.9-3,3.8-3.4c0.4-0.1,0.8-0.1,1.2-0.1c2.9,0,6.3,1.6,8.1,4C250.6,198.8,250.8,200.5,250,202.2z
		"/>
</g>
</svg>
