<?xml version="1.0" encoding="utf-8"?>
<!-- Generator: Adobe Illustrator 22.1.0, SVG Export Plug-In . SVG Version: 6.00 Build 0)  -->
<svg version="1.1" id="Warstwa_1" xmlns="http://www.w3.org/2000/svg" xmlns:xlink="http://www.w3.org/1999/xlink" x="0px" y="0px"
	 viewBox="0 0 329 239" style="enable-background:new 0 0 329 239;" xml:space="preserve">
<style type="text/css">
	.st0{fill:#FFFFFF;}
</style>
<path class="st0" d="M242,127.5c-0.1-3.6-0.1-6.2-0.1-7.6c0-10.9-2.8-73.4-3.1-80.5c-0.2-5-0.4-9.3-3.5-12c-2.2-2-5.3-2.7-10.5-2.4
	c-8.3,0.5-23.1,2.4-36.1,4.1c-4.3,0.6-8.5,1.1-12.2,1.5c0,0-0.1,0-0.1,0c-5.2,0.6-9.3,1.1-10.7,1.1h-1.6c-2.4,0-12.4-1.3-23-2.6
	c-13-1.7-27.6-3.6-36-4.1c-3.9-0.3-7.8-0.2-10.6,2.3c-2.6,2.3-3.2,5.8-3.4,10.3c-0.1,2.9-3.2,70.8-3.2,82.2c0,1.3,0,3.9-0.1,7.6
	c-0.3,18.3-1,56.4,1.4,73.1c1.5,10.1,5.5,14.2,14.2,14.2c0.7,0,1.5,0,2.3-0.1c6.5-0.5,16.6-1.7,26.7-3c0,0,0,0,0.1,0
	c2.9-0.4,5.8-0.7,8.6-1.1c10.6-1.4,20.6-2.6,23-2.6h1.6c2.4,0,12.4,1.3,23,2.6c12.2,1.6,26.1,3.4,34.6,4c11,0.8,15.6-3,17.3-14.1
	C243,183.8,242.4,145.8,242,127.5L242,127.5z M234.3,199.7c-1.1,7.8-2.8,9.2-10.4,8.6c-8.4-0.6-22.1-2.4-34.3-4
	c-13-1.7-21.1-2.7-23.8-2.7h-1.6c-0.6,0-1.5,0.1-2.8,0.2c2.4-1,4.6-2,6.5-2.8c3.9-1.7,7.9-3.4,9-3.6c1.7,0,3.2-1.5,3.2-3.2
	c0-1.8-1.4-3.2-3.2-3.2c-2,0-4.8,1.2-11.5,4.1c-8,3.5-20.2,8.7-33.9,12.4c-9.9,1.3-19.8,2.4-26.1,2.9c-6.9,0.5-8.6-1-9.7-8.6
	c-2.4-16.2-1.6-55.3-1.3-72.1c0.1-3.7,0.1-6.3,0.1-7.7c0-11.2,3-79,3.2-81.9c0.1-2.1,0.3-5,1.3-5.8c0.6-0.5,1.8-0.8,3.8-0.8
	c0.6,0,1.3,0,2,0.1c8.1,0.5,22.7,2.4,35.6,4.1c6.4,0.8,11.5,1.5,15.5,1.9c-5.7,2.2-10.7,4.4-14.6,6.2c-3.7,1.7-7.6,3.4-8.6,3.5
	c-1.7,0-3.2,1.5-3.2,3.2c0,1.8,1.4,3.2,3.2,3.2c2,0,4.7-1.2,11.2-4.1c7.9-3.5,19.9-8.8,33.7-12.5c3.4-0.4,7.4-0.9,12-1.5
	c12.9-1.7,27.6-3.6,35.7-4.1c3.8-0.2,5.2,0.3,5.8,0.7c1,0.9,1.2,4.3,1.3,7.5c1.2,25.7,3.1,71.4,3.1,80.2c0,1.4,0,4,0.1,7.7
	C235.9,144.3,236.6,183.4,234.3,199.7L234.3,199.7z M207.9,127.5"/>
<g>
	<path class="st0" d="M213.5,142.2c-3.2-3.1-7.4-5.5-13.1-7.5c-2.8-1-5.6-1.9-8.1-2.7c-6.8-2.1-13.1-4.2-19.2-7.5
		c-6.2-3.4-11.5-7.4-16-11.9c-3.7-3.7-6.4-7.9-9.4-12.5c-1.1-1.7-2.2-3.4-3.4-5.1c-3.5-5.1-7-8.5-11-10.5c-0.6-0.3-1.3-0.7-2-0.9
		c-3.2-1.3-6.6-1.7-9.7-1.2c-1.6-1.4-4.1-2.6-6.7-1.8c-2.5,0.8-4.2,3.1-4.4,5.9c-0.1,1.4,0.2,2.7,0.5,3.6c-2.2,4.1-2.9,9.5-1.9,14.8
		c3.4,18,15.1,35.4,32.9,49c13,10,28.9,17.1,44.8,20.1c3.2,0.6,6.3,0.9,9,0.9c4.1,0,7.7-0.6,11-1.9c7.3-2.9,12.4-9.4,12.8-16.3
		C220,151.6,217.8,146.3,213.5,142.2z M116.5,92c0.2-0.4,0.4-0.8,0.4-1.3c0-0.1,0-0.2,0-0.3c0-0.3-0.1-0.7-0.2-1
		c-0.4-1-0.6-1.8-0.6-2.5c0-0.5,0.3-0.8,0.4-0.9c0,0,0.1,0,0.1,0c0.3,0,0.9,0.3,1.3,0.8l0.3,0.4c0.7,1,1.9,1.4,3.1,1.1
		c2.4-0.7,5.1-0.5,7.8,0.6c0.5,0.2,1,0.4,1.4,0.7c3.1,1.7,6,4.5,9,8.8c1.1,1.6,2.2,3.2,3.2,4.8l0.1,0.2c3,4.5,6,9.2,10.1,13.2
		c4.8,4.8,10.6,9.1,17.2,12.8c6.6,3.7,13.5,5.9,20.3,8c2.6,0.8,5.3,1.7,7.9,2.6c4.9,1.8,8.4,3.7,11,6.3c3,2.9,4.7,6.8,4.5,10.2
		c-0.3,5.4-4.9,9.6-9.3,11.4c-4.5,1.8-10.1,2-16.9,0.7c-15-2.8-30.1-9.6-42.4-19.1c-16.7-12.8-27.6-29-30.8-45.6
		C113.9,99.5,114.6,95,116.5,92z"/>
	<path class="st0" d="M156,145c0,0.7,0.3,1.4,0.8,2c0.5,0.5,1.3,0.8,2,0.8c0.7,0,1.4-0.3,2-0.8c0.5-0.5,0.8-1.3,0.8-2
		c0-0.7-0.3-1.4-0.8-2c-0.5-0.5-1.3-0.8-2-0.8c-0.8,0-1.5,0.3-1.9,0.8C156.3,143.5,156,144.2,156,145z"/>
	<path class="st0" d="M155.2,131.4c0.7,0,1.4-0.3,2-0.8c0.5-0.5,0.8-1.3,0.8-2c0-0.7-0.3-1.4-0.8-2c-1.1-1.1-2.9-1.1-4,0l0,0
		c-0.5,0.5-0.8,1.3-0.8,2c0,0.7,0.3,1.4,0.8,2C153.8,131.1,154.5,131.4,155.2,131.4z"/>
	<path class="st0" d="M133.2,123c-0.5,0.5-0.8,1.3-0.8,2c0,0.7,0.3,1.4,0.8,2c0.5,0.5,1.3,0.8,2,0.8c0.7,0,1.4-0.3,2-0.8
		c0.5-0.5,0.8-1.3,0.8-2c0-0.7-0.3-1.4-0.8-2C136.2,122,134.2,122,133.2,123L133.2,123z"/>
	<path class="st0" d="M131.6,109.6c0.7,0,1.4-0.3,2-0.8c0.5-0.5,0.8-1.3,0.8-2c0-0.7-0.3-1.4-0.8-2c-1.1-1.1-2.9-1.1-4,0l0,0
		c-0.5,0.5-0.8,1.3-0.8,2c0,0.7,0.3,1.4,0.8,2C130.1,109.3,130.8,109.6,131.6,109.6z"/>
	<path class="st0" d="M173.3,142.3c0.7,0,1.4-0.3,2-0.8c0.5-0.5,0.8-1.3,0.8-2c0-0.7-0.3-1.4-0.8-2c-1.1-1-2.9-1-4,0
		c-0.5,0.5-0.8,1.2-0.8,2c0,0.7,0.3,1.4,0.8,2C171.9,142,172.6,142.3,173.3,142.3z"/>
	<path class="st0" d="M176.8,156.1c0.5,0.5,1.3,0.8,2,0.8c0.7,0,1.4-0.3,2-0.8c0.5-0.5,0.8-1.3,0.8-2c0-0.7-0.3-1.4-0.8-2
		c-1.1-1.1-2.9-1.1-4,0l0,0c-0.5,0.5-0.8,1.3-0.8,2C176,154.8,176.3,155.5,176.8,156.1z"/>
	<path class="st0" d="M197,153.2c0.7,0,1.4-0.3,2-0.8c0.5-0.5,0.8-1.3,0.8-2c0-0.7-0.3-1.4-0.8-2c-1.1-1.1-2.9-1.1-4,0l0,0
		c-0.5,0.5-0.8,1.2-0.8,2c0,0.7,0.3,1.4,0.8,2C195.5,152.9,196.2,153.2,197,153.2z"/>
</g>
</svg>
