<?xml version="1.0" encoding="utf-8"?>
<!-- Generator: Adobe Illustrator 22.1.0, SVG Export Plug-In . SVG Version: 6.00 Build 0)  -->
<svg version="1.1" id="Warstwa_1" xmlns="http://www.w3.org/2000/svg" xmlns:xlink="http://www.w3.org/1999/xlink" x="0px" y="0px"
	 viewBox="0 0 329 239" style="enable-background:new 0 0 329 239;" xml:space="preserve">
<style type="text/css">
	.st0{fill:#FFFFFF;}
</style>
<path class="st0" d="M304.8,166.6L267,60.1c-0.4-1.1-1.4-1.8-2.6-1.8h-8.7c-1.3,0-2.4,0.9-2.7,2.1c-0.9-1.3-2.2-2.4-3.9-3.2
	c-1.5-0.7-2.7-1.9-3.4-3.4c-1.6-3.4-4.6-5.4-8.4-5.6c-1.6-0.1-3.1-0.7-4.3-1.8c-2.9-2.7-6.7-3.4-10.5-2.1c-1.5,0.5-3.2,0.5-4.7,0
	c-3.8-1.4-7.6-0.6-10.5,2.1c-1.2,1.1-2.7,1.7-4.3,1.8c-3.8,0.2-6.8,2.2-8.4,5.6c-0.7,1.5-1.9,2.7-3.4,3.4c-1.7,0.8-3,1.9-3.9,3.3
	c0,0,0,0-0.1,0c-1-0.5-2.1-0.3-2.9,0.4c-3.1,0.8-18.9,0.3-32.3-0.6c-0.8-0.1-1.6,0.3-2.2,0.9c-1-1.6-2.4-3-4.3-3.9
	c-1.5-0.7-2.7-1.9-3.4-3.4c-1.6-3.4-4.6-5.4-8.4-5.6c-1.6-0.1-3.1-0.7-4.3-1.8c-2.9-2.7-6.7-3.4-10.5-2.1c-1.5,0.5-3.2,0.5-4.7,0
	c-3.8-1.4-7.6-0.6-10.5,2.1c-1.2,1.1-2.7,1.7-4.3,1.8c-3.8,0.2-6.8,2.2-8.4,5.6c-0.7,1.5-1.9,2.7-3.4,3.4c-3.4,1.6-5.4,4.6-5.6,8.4
	c-0.1,1.6-0.7,3.1-1.8,4.3c-3,3.2-3.6,7.4-1.6,11.6c0.4,0.8,0.9,1.5,1.6,2.1c-1.2,1.6-1.9,3.6-2,5.8c-0.1,1.8-0.8,3.6-2.1,4.9
	c-3.3,3.5-3.9,8.1-1.8,12.7c0.4,0.9,1,1.6,1.7,2.2c-0.5,1.2-0.8,2.5-0.8,3.9c-0.1,2-0.9,4-2.3,5.4c-3.5,3.8-4.2,8.6-1.9,13.5
	c0.6,1.4,1.7,2.5,3.1,3.1c-0.1,0.5-0.2,1.1-0.2,1.6c-0.1,2.1-1,4.1-2.4,5.6c-3.6,3.9-4.3,8.8-1.9,13.9c1.1,2.3,3.5,3.9,6.1,3.9h81.3
	c2.6,0,5-1.5,6.1-3.9c2.4-5.1,1.7-10-1.9-13.9c-1.4-1.5-2.3-3.5-2.4-5.6c0-0.5-0.1-1.1-0.2-1.6c1.3-0.6,2.4-1.7,3.1-3.1
	c2.3-5,1.6-9.8-1.9-13.5c-1.4-1.5-2.2-3.4-2.3-5.4c-0.1-1.4-0.4-2.7-0.8-3.9c0.7-0.6,1.3-1.3,1.7-2.2c2.2-4.7,1.5-9.2-1.8-12.7
	c-1.2-1.3-2-3.1-2.1-4.9c-0.1-2.2-0.8-4.2-2-5.8c0.7-0.5,1.3-1.2,1.6-2.1c2-4.3,1.4-8.4-1.6-11.6c-1.1-1.2-1.7-2.7-1.8-4.3
	c0.1,0,0.3,0.1,0.4,0.1c11.1,0.8,18.9,1.1,24.2,1.1c5,0,7.9-0.3,9.7-0.7c-0.2,1.4-0.8,2.7-1.7,3.7c-3,3.2-3.6,7.4-1.6,11.6
	c0.4,0.8,0.9,1.5,1.6,2.1c-1.2,1.6-1.9,3.6-2,5.8c-0.1,1.8-0.8,3.6-2.1,4.9c-3.3,3.5-3.9,8.1-1.8,12.7c0.4,0.9,1,1.6,1.7,2.2
	c-0.5,1.2-0.8,2.5-0.8,3.9c-0.1,2-0.9,4-2.3,5.4c-3.5,3.8-4.2,8.6-1.9,13.5c0.6,1.4,1.7,2.5,3.1,3.1c-0.1,0.5-0.2,1.1-0.2,1.6
	c-0.1,2.1-1,4.1-2.4,5.6c-3.6,3.9-4.3,8.8-1.9,13.9c1.1,2.3,3.5,3.9,6.1,3.9h3.6c0.6,1.6,1.3,3.1,2,4.6H30.5l30.6-97.9h16.1
	c1.5,0,2.8-1.2,2.8-2.8c0-1.5-1.2-2.8-2.8-2.8H59.1c-1.2,0-2.3,0.8-2.6,1.9L24.1,166.7c-0.3,0.8-0.1,1.8,0.4,2.5
	c0.5,0.7,1.3,1.1,2.2,1.1h4.1c-0.2,0.7-0.1,1.5,0.3,2.2l15,24.5c0.5,0.8,1.4,1.3,2.4,1.3H279c1,0,2-0.6,2.5-1.5l12.6-24.5
	c0.3-0.7,0.4-1.4,0.2-2.1h8c0.9,0,1.7-0.4,2.3-1.2C305,168.4,305.1,167.5,304.8,166.6z M89.6,156c1.1-14,12.8-25.1,27.1-25.1
	s26,11.1,27.1,25.1H89.6z M159.5,154.6c-0.4,0.8-1.3,1.4-2.2,1.4h-9.3c-1.1-16.4-14.8-29.3-31.4-29.3c-16.6,0-30.3,13-31.4,29.3
	h-9.3c-1,0-1.8-0.5-2.2-1.4c-1.6-3.5-1.2-6.6,1.2-9.2c2.1-2.3,3.3-5.2,3.5-8.3c0.2-3,1.6-5.1,4.3-6.4c2.8-1.3,5.1-3.6,6.5-6.5
	c1.3-2.7,3.4-4.1,6.4-4.3c3.1-0.2,6.1-1.4,8.3-3.5c1.5-1.4,3.3-2.1,5.2-2.1c1,0,2,0.2,3,0.6c2.9,1,6.1,1,9,0
	c3.1-1.1,5.9-0.6,8.2,1.6c2.3,2.1,5.2,3.3,8.3,3.5c3,0.2,5.1,1.6,6.4,4.3c1.3,2.8,3.6,5.1,6.5,6.5c2.7,1.3,4.1,3.4,4.3,6.4
	c0.2,3.1,1.4,6.1,3.5,8.3C160.8,148,161.2,151.1,159.5,154.6z M98.2,115.1c1.9-1.9,4.1-3.5,6.5-4.7c3.7-1.9,7.8-2.9,12-2.9
	c4.2,0,8.3,1,12,2.9c2.4,1.2,4.6,2.8,6.5,4.7c-1.1-0.4-2-1-2.9-1.8c-2.3-2.1-5.1-3.3-8.1-3.3c-1.5,0-3,0.3-4.5,0.8
	c-2,0.7-4.2,0.7-6.2,0c-1.5-0.5-3-0.8-4.5-0.8c-3,0-5.8,1.1-8.1,3.3C100.2,114.1,99.3,114.7,98.2,115.1z M158.1,130.3
	c-0.2,0.3-0.4,0.6-0.7,0.9c-1.1-1.9-2.8-3.4-5-4.4c-1.9-0.9-3.5-2.5-4.5-4.5c-1.3-2.8-3.4-4.8-6.1-5.8c-2.9-4.2-6.8-7.6-11.3-9.9
	c-4.3-2.2-9.1-3.4-14-3.4c-4.8,0-9.7,1.2-14,3.4c-4.5,2.3-8.4,5.7-11.3,9.9c-2.7,1.1-4.7,3-6.1,5.8c-0.9,1.9-2.5,3.5-4.5,4.5
	c-2.2,1-3.9,2.5-5,4.4c-0.3-0.2-0.6-0.5-0.7-0.9c-1.6-3.4-1.2-6.4,1.1-8.9c2-2.2,3.2-5.1,3.4-8.1c0.1-1.5,0.5-2.8,1.2-3.8
	c0.7-1,1.6-1.8,2.9-2.3c2.8-1.3,5-3.5,6.3-6.3c1-2,2.5-3.3,4.5-3.8c0.5-0.1,1.1-0.2,1.7-0.3c3-0.2,5.9-1.4,8.1-3.4
	c2.2-2.1,4.9-2.6,7.9-1.5c2.8,1,6,1,8.8,0c3-1.1,5.6-0.6,7.9,1.5c2.2,2,5.1,3.2,8.1,3.4c0.6,0,1.2,0.1,1.7,0.3
	c2,0.5,3.5,1.8,4.5,3.8c1.3,2.8,3.6,5,6.3,6.3c1.2,0.6,2.2,1.4,2.9,2.3c0.7,1,1.1,2.3,1.2,3.8c0.2,3,1.4,5.9,3.4,8.1
	C159.3,124,159.7,127,158.1,130.3z M99.2,91.8c3.4-3.5,7.8-6,12.6-7c3.2-0.7,6.6-0.7,9.8,0c4.8,1,9.2,3.5,12.6,7
	c-0.9-0.4-1.7-0.9-2.3-1.5c-3.4-3.2-7.7-4-12.2-2.4c-1.9,0.7-4,0.7-5.9,0c-4.5-1.6-8.8-0.7-12.2,2.4C100.8,91,100,91.5,99.2,91.8z
	 M153.9,97.2c2.1,2.3,2.4,5,1,8c-0.1,0.2-0.2,0.3-0.3,0.4c-0.9-0.9-2-1.7-3.3-2.3c-1.9-0.9-3.4-2.4-4.3-4.3
	c-1.4-2.9-3.6-4.9-6.4-5.9c-4.1-6.5-10.7-11.1-18.2-12.6c-3.8-0.8-7.8-0.8-11.5,0c-7.5,1.5-14.1,6.1-18.2,12.6c-2.8,1-5,3-6.4,5.9
	c-0.9,1.9-2.4,3.4-4.3,4.3c-1.3,0.6-2.4,1.4-3.3,2.3c-0.1-0.1-0.2-0.3-0.3-0.4c-1.4-3.1-1.1-5.8,1-8c1.9-2.1,3-4.8,3.2-7.6
	c0.1-2.3,1.1-4,2.9-5.1c0.3-0.2,0.5-0.3,0.8-0.4c2.6-1.2,4.7-3.3,5.9-5.9c0.8-1.7,2-2.8,3.7-3.4c0.6-0.2,1.2-0.3,1.9-0.3
	c2.8-0.1,5.5-1.3,7.6-3.2c2-1.9,4.4-2.3,7.1-1.4c2.7,1,5.6,1,8.3,0c2.7-1,5.1-0.5,7.1,1.4c2.1,1.9,4.8,3,7.6,3.2
	c0.7,0,1.3,0.1,1.9,0.3c1.6,0.5,2.9,1.7,3.7,3.4c1.2,2.6,3.3,4.7,5.9,5.9c0.3,0.1,0.6,0.3,0.8,0.4c1.8,1.1,2.8,2.8,2.9,5.1
	C150.9,92.5,152,95.2,153.9,97.2z M99.5,69.9c4-5.3,10.4-8.6,17.2-8.6c6.8,0,13.2,3.3,17.2,8.6c-1.1-0.3-2.1-0.9-3-1.7
	c-3.2-3-7.3-3.8-11.5-2.3c-1.7,0.6-3.6,0.6-5.4,0c-4.2-1.5-8.3-0.7-11.5,2.3C101.7,68.9,100.6,69.5,99.5,69.9z M150.8,79.7
	c-0.2,0.5-0.7,0.8-1.2,0.9c-0.2-0.1-0.5-0.2-0.7-0.4c-1.7-0.8-3.1-2.2-3.9-3.9c-1.2-2.5-3-4.3-5.3-5.3c-4.4-8.6-13.3-14.1-22.9-14.1
	c-9.7,0-18.6,5.5-22.9,14.1c-2.3,1-4.2,2.8-5.3,5.3c-0.8,1.7-2.2,3.1-3.9,3.9c-0.2,0.1-0.5,0.2-0.7,0.4c-0.5-0.1-1-0.4-1.2-0.9
	c-1.2-2.7-0.9-5,0.9-7c1.7-1.9,2.8-4.3,2.9-6.9c0.1-2.2,1.2-3.8,3.2-4.8c2.4-1.1,4.3-3,5.4-5.4c0.9-2,2.6-3.1,4.8-3.2
	c2.6-0.1,5.1-1.2,6.9-2.9c1.8-1.6,3.8-2,6.2-1.2c2.4,0.9,5.1,0.9,7.5,0c2.3-0.8,4.4-0.4,6.2,1.2c1.9,1.7,4.4,2.8,6.9,2.9
	c2.2,0.1,3.8,1.2,4.8,3.2c1.1,2.4,3,4.3,5.4,5.4c2,0.9,3.1,2.6,3.2,4.8c0.1,2.6,1.2,5.1,2.9,6.9C151.7,74.7,152,77.1,150.8,79.7z
	 M187,72.8c1.7-1.9,2.8-4.3,2.9-6.9c0.1-2.2,1.2-3.8,3.2-4.8c2.4-1.1,4.3-3,5.4-5.4c0.9-2,2.6-3.1,4.8-3.2c2.6-0.1,5.1-1.2,6.9-2.9
	c1.8-1.6,3.8-2,6.2-1.2c2.4,0.9,5.1,0.9,7.5,0c2.3-0.8,4.4-0.4,6.2,1.2c1.9,1.7,4.4,2.8,6.9,2.9c2.2,0.1,3.8,1.2,4.8,3.2
	c1.1,2.4,3,4.3,5.4,5.4c2,1,3.1,2.6,3.2,4.8c0.1,2.6,1.2,5.1,2.9,6.9c1.8,2,2.1,4.3,0.9,7c-0.2,0.5-0.7,0.8-1.2,0.9
	c-0.2-0.1-0.5-0.2-0.7-0.4c-1.7-0.8-3.1-2.2-3.9-3.9c-1.2-2.5-3-4.3-5.3-5.3c-4.4-8.6-13.3-14.1-22.9-14.1
	c-9.7,0-18.6,5.5-22.9,14.1c-2.3,1-4.2,2.8-5.3,5.3c-0.8,1.7-2.2,3.1-3.9,3.9c-0.2,0.1-0.5,0.2-0.7,0.4c-0.5-0.1-1-0.4-1.2-0.9
	C184.9,77.1,185.2,74.7,187,72.8z M237.4,69.9c-1.1-0.3-2.1-0.9-3-1.7c-3.2-3-7.3-3.8-11.5-2.3c-1.7,0.6-3.6,0.6-5.4,0
	c-4.2-1.5-8.3-0.7-11.5,2.3c-0.9,0.8-1.9,1.4-3,1.7c4-5.3,10.4-8.6,17.2-8.6C227,61.3,233.3,64.5,237.4,69.9z M183,97.2
	c1.9-2.1,3-4.8,3.2-7.6c0.1-2.3,1.1-4,2.9-5.1c0.3-0.2,0.5-0.3,0.8-0.4c2.6-1.2,4.7-3.3,5.9-5.9c0.8-1.7,2.1-2.8,3.7-3.4
	c0.6-0.2,1.2-0.3,1.9-0.3c2.8-0.1,5.5-1.3,7.6-3.2c2-1.9,4.4-2.3,7.1-1.4c2.7,1,5.6,1,8.3,0c2.7-1,5.1-0.5,7.1,1.4
	c2.1,1.9,4.8,3,7.6,3.2c0.7,0,1.3,0.1,1.9,0.3c1.6,0.5,2.9,1.7,3.7,3.4c1.2,2.6,3.3,4.7,5.9,5.9c0.3,0.1,0.6,0.3,0.8,0.5
	c1.8,1.1,2.8,2.8,2.9,5.1c0.1,2.8,1.3,5.5,3.2,7.6c2.1,2.3,2.4,5,1,8c-0.1,0.2-0.2,0.3-0.3,0.4c-0.9-0.9-2-1.7-3.3-2.3
	c-1.9-0.9-3.4-2.4-4.3-4.3c-1.4-2.9-3.6-4.9-6.4-5.9c-4.1-6.5-10.7-11.1-18.2-12.6c-3.8-0.8-7.8-0.8-11.5,0
	c-7.5,1.5-14.1,6.1-18.2,12.6c-2.8,1-5,3-6.4,5.9c-0.9,1.9-2.4,3.4-4.3,4.3c-1.3,0.6-2.4,1.4-3.3,2.3c-0.1-0.1-0.2-0.3-0.3-0.4
	C180.5,102.2,180.9,99.5,183,97.2z M237.7,91.8c-0.9-0.4-1.6-0.9-2.3-1.5c-3.4-3.2-7.7-4-12.2-2.4c-1.9,0.7-4,0.7-5.9,0
	c-4.5-1.6-8.8-0.7-12.2,2.4c-0.7,0.6-1.5,1.2-2.3,1.5c3.4-3.5,7.8-6,12.6-7c3.2-0.7,6.6-0.7,9.8,0C229.9,85.8,234.3,88.3,237.7,91.8
	z M179.8,121.5c2-2.2,3.2-5.1,3.4-8.1c0.1-1.5,0.5-2.8,1.2-3.8c0.7-1,1.6-1.8,2.9-2.3c2.8-1.3,5-3.5,6.3-6.3c1-2,2.5-3.3,4.5-3.8
	c0.5-0.1,1.1-0.2,1.7-0.3c3-0.2,5.9-1.4,8.1-3.4c2.2-2.1,4.9-2.6,7.9-1.5c2.8,1,6,1,8.8,0c3-1.1,5.6-0.6,7.9,1.5
	c2.2,2,5.1,3.2,8.1,3.4c0.6,0,1.2,0.1,1.7,0.3c2,0.5,3.5,1.8,4.5,3.8c1.3,2.8,3.6,5,6.3,6.3c1.2,0.6,2.2,1.4,2.9,2.3
	c0.7,1,1.1,2.3,1.2,3.8c0.2,3,1.4,5.9,3.4,8.1c2.3,2.5,2.7,5.5,1.1,8.9c-0.2,0.3-0.4,0.6-0.7,0.9c-1.1-1.9-2.8-3.3-5-4.4
	c-2-0.9-3.5-2.5-4.5-4.5c-1.3-2.8-3.4-4.8-6.1-5.9c-2.9-4.2-6.7-7.6-11.3-9.9c-4.3-2.2-9.1-3.4-14-3.4c-4.8,0-9.7,1.2-14,3.4
	c-4.5,2.3-8.4,5.7-11.3,9.9c-2.7,1.1-4.7,3.1-6.1,5.9c-0.9,1.9-2.5,3.5-4.5,4.5c-2.2,1-3.9,2.5-5,4.4c-0.3-0.2-0.6-0.5-0.7-0.9
	C177.2,127,177.5,124,179.8,121.5z M238.7,115.1c-1.1-0.4-2-1-2.9-1.8c-3.5-3.2-8-4.1-12.5-2.5c-2,0.7-4.2,0.7-6.2,0
	c-4.6-1.6-9-0.8-12.5,2.5c-0.8,0.8-1.8,1.4-2.9,1.8c1.9-1.9,4.1-3.5,6.5-4.7c3.7-1.9,7.8-2.9,12-2.9c4.2,0,8.3,1,12,2.9
	C234.6,111.6,236.8,113.2,238.7,115.1z M181.3,149.5c0,0,0.2,4.4,0.7,6.5h-2.4c-1,0-1.8-0.5-2.2-1.4c-1.6-3.5-1.2-6.6,1.2-9.2
	c2.1-2.3,3.3-5.2,3.5-8.3c0.2-3,1.6-5.1,4.3-6.4c2.8-1.3,5.1-3.6,6.5-6.5c1.3-2.7,3.4-4.1,6.4-4.3c3.1-0.2,6.1-1.4,8.3-3.5
	c2.3-2.2,5.1-2.7,8.2-1.6c2.9,1,6.1,1,9,0c3.1-1.1,5.9-0.6,8.2,1.6c2.3,2.1,5.2,3.3,8.3,3.5c3,0.2,5.1,1.6,6.4,4.3
	c1.3,2.8,3.6,5.1,6.5,6.5c2.7,1.3,4.1,3.4,4.3,6.4c0.2,3.1,1.4,6.1,3.5,8.3c2.4,2.6,2.8,5.7,1.2,9.2c-0.4,0.8-1.3,1.4-2.2,1.4h-9.3
	c-1.1-16.4-14.8-29.3-31.4-29.3c-10.7,0-20.8,5.6-26.6,14.6C186.5,142.8,181.3,145.5,181.3,149.5z M210,139.7c-3.5,0-7,0.2-10.4,0.6
	c5.1-5.9,12.6-9.4,20.5-9.4c14.3,0,26,11.1,27.1,25.1h-9.2c0.4-2.1,0.7-6.5,0.7-6.5C238.8,142.8,223.9,139.7,210,139.7z
	 M234.5,149.5c0,0.1-0.2,0.5-0.9,1c-5.1-2.4-14-3.9-23.6-3.9c-9.6,0-18.5,1.5-23.6,3.9c-0.7-0.5-0.9-0.9-0.9-1
	c0-0.3,1.1-1.9,6.3-3.4c4.8-1.4,11.3-2.2,18.2-2.2c6.9,0,13.4,0.8,18.2,2.2C233.4,147.6,234.5,149.2,234.5,149.5L234.5,149.5z
	 M227.9,153c-4.8,1.3-11.1,2.1-17.9,2.1s-13.1-0.7-17.9-2.1c4.7-1.3,11.1-2.1,17.9-2.1C216.8,150.9,223.2,151.7,227.9,153z
	 M186.7,157.5c-0.2-0.7-0.4-1.5-0.6-2.2c5.5,2.7,14.9,4,23.9,4c9,0,18.4-1.3,23.9-4c-0.2,0.7-0.3,1.5-0.6,2.2
	c-0.8,2.7-2,5.1-3.4,7.3h-39.8C188.7,162.6,187.5,160.2,186.7,157.5z M224.9,170.3c-4.2,3.4-9.3,5.3-14.8,5.3
	c-5.5,0-10.7-2-14.8-5.3H224.9z M277.3,192.8H50l-13.8-22.5H189c5.3,6,12.8,9.6,21,9.6c8.2,0,15.7-3.6,21-9.6h57.9L277.3,192.8z
	 M234.9,164.8c0.8-1.4,1.5-3,2-4.6h23.9c2.6,0,5-1.5,6.1-3.9c2.4-5.1,1.7-10-1.9-13.9c-1.4-1.5-2.3-3.5-2.4-5.6
	c0-0.5-0.1-1.1-0.2-1.6c1.3-0.6,2.4-1.7,3.1-3.1c2.3-5,1.6-9.8-1.9-13.5c-1.4-1.5-2.2-3.4-2.3-5.4c-0.1-1.4-0.4-2.7-0.8-3.9
	c0.7-0.6,1.3-1.3,1.7-2.2c2.2-4.7,1.5-9.2-1.8-12.7c-1.2-1.3-2-3.1-2.1-4.9c-0.1-2.2-0.8-4.2-2-5.8c0.7-0.5,1.3-1.2,1.6-2.1
	c2-4.3,1.4-8.4-1.6-11.6c-1.1-1.2-1.7-2.7-1.8-4.3c0-0.8-0.2-1.5-0.4-2.2c0.4,0.2,0.8,0.3,1.3,0.3h6.7l35.9,101H234.9z"/>
</svg>
