<?xml version="1.0" encoding="utf-8"?>
<!-- Generator: Adobe Illustrator 22.1.0, SVG Export Plug-In . SVG Version: 6.00 Build 0)  -->
<svg version="1.1" id="Warstwa_1" xmlns="http://www.w3.org/2000/svg" xmlns:xlink="http://www.w3.org/1999/xlink" x="0px" y="0px"
	 viewBox="0 0 329 239" style="enable-background:new 0 0 329 239;" xml:space="preserve">
<style type="text/css">
	.st0{fill:#FFFFFF;}
</style>
<g>
	<path class="st0" d="M150.1,95.8c-6,0-10.8,4.8-10.8,10.8c0,6,4.8,10.8,10.8,10.8c6,0,10.8-4.8,10.8-10.8
		C160.9,100.6,156,95.8,150.1,95.8z M150.1,111.4c-2.7,0-4.9-2.2-4.9-4.9c0-2.7,2.2-4.9,4.9-4.9c2.7,0,4.9,2.2,4.9,4.9
		C155,109.2,152.8,111.4,150.1,111.4z"/>
	<path class="st0" d="M178.5,119.9L178.5,119.9l6-14.5c2.2-5.3,1-11.4-3.1-15.5l-6.3-6.3c-6.5-6.5-15.2-10.1-24.5-10.1l-0.2,0
		c-9.3,0.1-18,3.8-24.6,10.5c-13.2,13.5-13,35.4,0.5,48.7c3.7,3.6,8,6.3,12.8,8c3.7,1.3,8,0.9,11.6-1.1l20.9-11.9
		C174.8,125.9,177.2,123.1,178.5,119.9z M168.8,122.5l-20.9,11.9c-1.3,0.7-2.7,1.1-4.1,1.1c-0.9,0-1.7-0.1-2.6-0.4
		c-4-1.4-7.6-3.6-10.6-6.7c-11.1-11-11.3-29.1-0.4-40.3c5.4-5.5,12.6-8.6,20.3-8.7l0.2,0c7.7,0,14.9,3,20.3,8.4l6.3,6.3
		c2.4,2.4,3.1,5.9,1.8,9.1l-6,14.5C172.2,119.7,170.7,121.4,168.8,122.5z"/>
	<path class="st0" d="M218.2,126.6c-1.8-1.8-6.7-6.7-11.4-11.4l-3.5-3.5c-1.6-1.6-3.7-2.5-5.9-2.5c-0.7,0-1.4,0.1-2,0.2
		c-2.9,0.7-5.1,2.8-6,5.7l-1.5,4.9c-1.8,5.8,1,12,6.4,14.6c0.1,0,0.2,0.1,0.2,0.1l17.3,6.2c0.8,0.3,1.7,0.5,2.6,0.5
		c2.4,0,4.6-1.1,6.1-3.1c2-2.7,2-6.4,0-9.1C219.7,128.2,219,127.4,218.2,126.6z M215.6,134.7c-0.2,0.2-0.6,0.7-1.3,0.7
		c-0.2,0-0.4,0-0.6-0.1l-17.2-6.2c-2.7-1.3-4-4.5-3.1-7.3l1.5-4.9c0.3-0.9,0.9-1.5,1.8-1.7c0.9-0.2,1.7,0,2.4,0.7l6.5,6.5
		c3.7,3.7,7.1,7.1,8.5,8.4c0.6,0.6,1.1,1.2,1.6,1.9C216.3,133.6,215.8,134.4,215.6,134.7z"/>
	<path class="st0" d="M208.6,150.8l-25.4-12.2c-1.5-0.7-3.1-1.1-4.7-1.1c-3.3,0-6.5,1.5-8.6,4.2c-2.1,2.7-2.8,6.2-1.9,9.5
		c0.9,3.3,3.2,6,6.4,7.3c6,2.5,10.7,4.6,13.4,6.3c5.7,3.4,12.7,4.4,19.2,2.7l0.1,0c3.6-1,6.2-4,6.6-7.8
		C214,156,212,152.5,208.6,150.8z M207.8,159.2L207.8,159.2c-0.1,1.3-0.9,2.3-2.2,2.6l-0.1,0c-1.6,0.4-3.3,0.6-4.9,0.6
		c-3.4,0-6.8-0.9-9.8-2.7c-3-1.8-7.8-4.1-14.2-6.7c-1.5-0.6-2.5-1.8-2.9-3.3c-0.4-1.5-0.1-3.1,0.9-4.3c0.9-1.2,2.4-1.9,3.9-1.9
		c0.8,0,1.5,0.2,2.1,0.5l25.4,12.2C207.3,156.8,207.9,157.9,207.8,159.2z"/>
	<path class="st0" d="M248.2,41.9L248.2,41.9l0.2-1L248.2,41.9l-0.1,0c-1-0.2-2.1-0.3-3.2-0.3H130.1c-1.6,0-3,1.3-3,3s1.3,3,3,3
		h110.5l-9.9,9.9H84.1c-2.4,0-4.3,1.9-4.3,4.3v117.9c0,2.4,1.9,4.3,4.3,4.3h8.7l-9.9,9.9l-0.5-0.1c-7.2-0.8-12.6-6.9-12.6-14.1V61.8
		c0-7.8,6.4-14.2,14.2-14.2h14.3c1.6,0,3-1.3,3-3s-1.3-3-3-3H84.1C73,41.6,64,50.7,64,61.8v117.9c0,11.1,9,20.1,20.1,20.1h99.4
		c1.6,0,3-1.3,3-3s-1.3-3-3-3H91.3l9.9-9.9h143.6c2.4,0,4.3-1.9,4.3-4.3V61.8c0-2.4-1.9-4.3-4.3-4.3H239l9.5-9.5l0.6,0.2
		c6,1.9,10,7.3,10,13.6v117.9c0,7.8-6.4,14.2-14.2,14.2h-29.6c-1.6,0-3,1.3-3,3s1.3,3,3,3h29.6c11.1,0,20.1-9,20.1-20.1V61.8
		C265,51.9,257.9,43.5,248.2,41.9z M107.2,178l9.5-9.5c0.6-0.6,0.9-1.3,0.9-2.1s-0.3-1.5-0.9-2.1c-1.2-1.2-3-1.2-4.2,0L98.8,178h-13
		V63.4h40.4l-3,1.8c-3.6,2.2-7,5-10,8.1c-19.9,20.5-19.6,53.5,0.7,73.6c7.7,7.6,17.4,12.6,28,14.4c11.8,2,22.7,6.7,31.5,13.7
		c0.5,0.4,1.1,0.8,1.6,1.2l2.5,1.8H107.2z M199.1,178c-8,0-15.6-2.7-21.9-7.7c-9.6-7.6-21.4-12.8-34.2-14.9c-9.4-1.6-18-6-24.8-12.7
		c-18-17.8-18.3-47.1-0.6-65.2c8.7-9,20.4-13.9,32.9-14h0.3c12.4,0,24,4.8,32.7,13.6l20.8,20.8c8.3,8.3,16.4,16.4,19.9,19.9
		c6,5.9,9.6,13.9,10.2,22.3c1.4,18.6-12.5,35.6-31,37.8C202,177.9,200.5,178,199.1,178z M243.2,63.4V178h-22.6l2.5-1.8
		c2.9-2.1,5.6-4.6,7.9-7.4c6.8-8.3,10.1-18.7,9.3-29.3c-0.8-9.8-5-19.1-12-26c-4.8-4.8-18.9-18.9-29.7-29.7l-11-11
		c-2.9-2.9-6.1-5.4-9.5-7.5l-3-1.8h49.5l-12.6,12.6c-0.6,0.6-0.9,1.3-0.9,2.1c0,0.8,0.3,1.5,0.9,2.1c1.1,1.1,3.1,1.1,4.2,0
		l16.8-16.8H243.2z"/>
</g>
</svg>
