<?xml version="1.0" encoding="utf-8"?>
<!-- Generator: Adobe Illustrator 22.1.0, SVG Export Plug-In . SVG Version: 6.00 Build 0)  -->
<svg version="1.1" id="Warstwa_1" xmlns="http://www.w3.org/2000/svg" xmlns:xlink="http://www.w3.org/1999/xlink" x="0px" y="0px"
	 viewBox="0 0 329 239" style="enable-background:new 0 0 329 239;" xml:space="preserve">
<style type="text/css">
	.st0{fill:#FFFFFF;}
</style>
<g>
	<path class="st0" d="M200,93.3c4.5-6.4,3.6-14.8-1.9-18.7c-5.6-3.9-13.8-1.9-18.3,4.5c-3.7,5.3-3.8,12-0.5,16.4l-2.3,3.2
		c-0.8,1.1-1.6,2.1-2.6,3.1c-10.6-9.7-12.6-26.1-4.1-38.2c1.1-1.5,0.7-3.6-0.8-4.7c-1.5-1.1-3.6-0.7-4.7,0.8
		c-10.3,14.7-8.1,34.5,4.5,46.5l-10.8,8.7c-2.6,2.1-4.9,4.5-6.8,7.3L96,200.9c-2.2,3.1-1.5,7.5,1.7,9.7l5.9,4.2
		c3.1,2.2,7.5,1.5,9.7-1.7l55.6-78.8c1.9-2.7,3.5-5.7,4.6-8.8l5.8-16.7c0.8-2.2,1.9-4.4,3.2-6.3l2.3-3.2
		C190,100.9,196.3,98.6,200,93.3z M107.8,209.3c-0.1,0.1-0.2,0.1-0.3,0.1l-5.9-4.2c-0.1-0.1-0.1-0.2-0.1-0.3l51.9-73.6l3.2,8.7
		L107.8,209.3z M167.1,123.3c-0.9,2.6-2.1,5-3.7,7.2l-2,2.8l-3.2-8.7c1.3-1.7,2.8-3.2,4.5-4.5l7.7-6.2L167.1,123.3z M185.3,82.9
		c2.3-3.3,6.4-4.6,8.9-2.8c2.5,1.8,2.6,6,0.3,9.3c-2.3,3.3-6.4,4.6-8.9,2.8C183.1,90.5,182.9,86.2,185.3,82.9z"/>
	<path class="st0" d="M234.2,51.5c-0.9-0.7-2.1-0.8-3.2-0.4l-4.3,1.6l7.9-24.4c0.4-1.2,0.1-2.4-0.7-3.3c-0.8-0.9-2.1-1.3-3.2-1
		c-1.4,0.3-34.2,7.9-55.1,24.5c-1.5,1.2-1.7,3.3-0.5,4.7c1.2,1.5,3.3,1.7,4.7,0.5c14.6-11.6,36.3-18.7,46.6-21.7l-8.1,25.1
		c-0.4,1.2-0.1,2.6,0.9,3.5c0.9,0.9,2.3,1.2,3.5,0.7l6-2.2c-1.2,16.5-4.9,29.6-10.8,37.8c-6.4,9.1-17.2,13.7-28.2,12
		c-1.8-0.3-3.6,1-3.8,2.8c-0.2,1.3,0.4,2.6,1.4,3.3c0.4,0.3,0.9,0.5,1.4,0.6c13.6,2.1,26.9-3.6,34.8-14.8
		c7.3-10.3,11.4-26,12.3-46.5C235.7,53.3,235.2,52.2,234.2,51.5z"/>
</g>
</svg>
