<?xml version="1.0" encoding="utf-8"?>
<!-- Generator: Adobe Illustrator 22.1.0, SVG Export Plug-In . SVG Version: 6.00 Build 0)  -->
<svg version="1.1" id="Warstwa_1" xmlns="http://www.w3.org/2000/svg" xmlns:xlink="http://www.w3.org/1999/xlink" x="0px" y="0px"
	 viewBox="0 0 329 239" style="enable-background:new 0 0 329 239;" xml:space="preserve">
<style type="text/css">
	.st0{fill:#FFFFFF;}
</style>
<g>
	<path class="st0" d="M252.8,189.4L235,171.6c-0.5-0.5-0.7-1.1-0.7-1.7c0-0.7,0.3-1.3,0.7-1.8c3.4-3.4,3.4-9,0-12.4L113,33.5
		c-6.3-6.3-16.6-6.3-22.9,0L76.7,46.9C73.7,49.9,72,54,72,58.3c0,4.3,1.7,8.4,4.7,11.4L103,96c0.1,0.1,0.2,0.3,0.3,0.5
		c0.1,0.1,0.3,0.2,0.5,0.3l20.5,20.5c0.1,0.1,0.2,0.3,0.3,0.5c0.1,0.1,0.3,0.2,0.5,0.3l20.5,20.5c0.1,0.1,0.2,0.3,0.3,0.5
		c0.1,0.1,0.3,0.2,0.5,0.3l20.5,20.5c0.1,0.1,0.2,0.3,0.3,0.4c0.1,0.1,0.3,0.2,0.4,0.3l17.8,17.8c0.1,0.1,0.2,0.3,0.3,0.4
		c0.1,0.1,0.3,0.2,0.4,0.3l12.9,12.9c3.3,3.3,9.1,3.3,12.4,0c1-1,2.5-1,3.5,0l17.8,17.8c2.8,2.8,6.5,4.2,10.1,4.2s7.4-1.4,10.1-4.2
		c2.7-2.7,4.2-6.3,4.2-10.1C257.1,195.7,255.6,192.1,252.8,189.4z M223.8,192l-4.6-4.6c-1.7-1.7-4-2.6-6.2-2.6
		c-2.2,0-4.5,0.9-6.2,2.6c-0.9,0.9-2.6,0.9-3.5,0l-11-11l5.7-5.6c1.2-1.2,1.2-3.2,0-4.5c-1.2-1.2-3.2-1.2-4.5,0l-5.6,5.7l-14.1-14.1
		l5.7-5.7c1.2-1.2,1.2-3.2,0-4.5c-1.2-1.2-3.2-1.2-4.5,0l-5.6,5.7l-16.8-16.8l5.7-5.7c1.2-1.2,1.2-3.2,0-4.5c-1.2-1.2-3.2-1.2-4.4,0
		l-5.7,5.7l-16.8-16.8l5.6-5.7c1.2-1.2,1.2-3.2,0-4.5c-1.2-1.2-3.2-1.2-4.4,0l-5.7,5.7l-16.7-16.8l5.6-5.7c1.2-1.2,1.2-3.2,0-4.5
		c-1.2-1.2-3.2-1.2-4.5,0l-5.7,5.6L81.2,65.3c-1.9-1.9-2.9-4.3-2.9-7c0-2.6,1-5.1,2.9-7L94.5,38c3.9-3.8,10.1-3.8,14,0l24.4,24.4
		l-5.7,5.7c-1.2,1.2-1.2,3.2,0,4.5c0.6,0.6,1.4,0.9,2.2,0.9c0.8,0,1.6-0.3,2.2-0.9l5.7-5.7l16.8,16.8l-5.7,5.7
		c-1.2,1.2-1.2,3.2,0,4.5c0.6,0.6,1.4,0.9,2.2,0.9c0.8,0,1.6-0.3,2.2-0.9l5.7-5.7l16.7,16.8l-5.7,5.7c-1.2,1.2-1.2,3.2,0,4.5
		c0.6,0.6,1.4,0.9,2.2,0.9s1.6-0.3,2.2-0.9l5.7-5.7l16.7,16.8l-5.7,5.7c-1.2,1.2-1.2,3.2,0,4.5c0.6,0.6,1.4,0.9,2.2,0.9
		c0.8,0,1.6-0.3,2.2-0.9l5.7-5.7l14.1,14.1l-5.7,5.7c-1.2,1.2-1.2,3.2,0,4.5c0.6,0.6,1.4,0.9,2.2,0.9c0.8,0,1.6-0.3,2.2-0.9l5.7-5.7
		l11,11c1,1,1,2.5,0,3.5c-1.7,1.6-2.6,3.9-2.6,6.2c0,2.3,0.9,4.5,2.6,6.2l4.6,4.6l-11.3,11.3C223.9,191.9,223.8,192,223.8,192z
		 M248.4,205.2c-3.1,3.1-8.2,3.1-11.4,0l-8.8-8.8c0.1,0,0.1,0,0.1-0.1l11.3-11.3l8.8,8.8c1.5,1.5,2.4,3.5,2.4,5.7
		C250.7,201.7,249.9,203.7,248.4,205.2z"/>
	<path class="st0" d="M95.8,48.2c-1.2-1.2-3.2-1.2-4.4,0c-1.2,1.2-1.2,3.2,0,4.5l111.4,111.4c0.6,0.6,1.4,0.9,2.2,0.9
		c0.8,0,1.6-0.3,2.2-0.9c1.2-1.2,1.2-3.2,0-4.5L95.8,48.2z"/>
</g>
</svg>
