<?xml version="1.0" encoding="utf-8"?>
<!-- Generator: Adobe Illustrator 22.1.0, SVG Export Plug-In . SVG Version: 6.00 Build 0)  -->
<svg version="1.1" id="Warstwa_1" xmlns="http://www.w3.org/2000/svg" xmlns:xlink="http://www.w3.org/1999/xlink" x="0px" y="0px"
	 viewBox="0 0 329 239" style="enable-background:new 0 0 329 239;" xml:space="preserve">
<style type="text/css">
	.st0{fill:#FFFFFF;}
</style>
<path class="st0" d="M228.4,93.8l-21.2-29.2V43.9c0-6.7-5.4-12.1-12.1-12.1h-60.4c-6.7,0-12.1,5.4-12.1,12.1v20.7l-21.2,29.2
	c-0.5,0.7-0.7,1.5-0.7,2.3v80.3c0,2.1,1.7,3.9,3.9,3.9s3.9-1.7,3.9-3.9V100h69.1v102.1h-69.1v-14c0-2.1-1.7-3.9-3.9-3.9
	s-3.9,1.7-3.9,3.9v17.8c0,2.1,1.7,3.9,3.9,3.9h120.8c2.1,0,3.9-1.7,3.9-3.9V96.1C229.2,95.3,228.9,94.5,228.4,93.8z M195.7,69.8
	l-16.3,22.4h-67.3l16.3-22.4H195.7z M185.2,202.1V97.4l18.1-24.9l18.1,24.9v104.7H185.2z M130.3,62V43.9c0-2.4,2-4.4,4.4-4.4h60.4
	c2.4,0,4.4,2,4.4,4.4V62H130.3z"/>
</svg>
