<?xml version="1.0" encoding="utf-8"?>
<!-- Generator: Adobe Illustrator 22.1.0, SVG Export Plug-In . SVG Version: 6.00 Build 0)  -->
<svg version="1.1" id="Warstwa_1" xmlns="http://www.w3.org/2000/svg" xmlns:xlink="http://www.w3.org/1999/xlink" x="0px" y="0px"
	 viewBox="0 0 329 239" style="enable-background:new 0 0 329 239;" xml:space="preserve">
<style type="text/css">
	.st0{fill:#FFFFFF;}
</style>
<g>
	<path class="st0" d="M236.9,79.4c1.4-2.1,2.1-4.5,2.1-7v-40c0-7-5.7-12.7-12.7-12.7H207c-7,0-12.7,5.7-12.7,12.7v19.3
		c0,3.7-3,6.7-6.7,6.7h-64.5c-3.7,0-6.7-3-6.7-6.7V32.5c0-7-5.7-12.7-12.7-12.7H84.6c-7,0-12.7,5.7-12.7,12.7v21
		c0,2,0.5,3.9,1.3,5.7l5.3,10.7l2.9,20.5l-2.9,14.2l-5.4,10.8c-0.9,1.7-1.3,3.7-1.3,5.7v32c0,2.5,0.7,4.9,2.1,7l4.3,6.4
		c0,0,0,0.1,0,0.1v8.3c0,0.1,0,0.1-0.1,0.2l-2.7,2.7c-2.4,2.4-3.7,5.6-3.7,9v7c0,14.1,11.5,25.5,25.6,25.6h78.6c0,0,0,0,0,0
		c2.5,0,4.9-0.7,7-2.1l6.4-4.3c0,0,0.1,0,0.1,0h5.8c0,0,0.1,0,0.1,0l6.4,4.3c2.1,1.4,4.5,2.1,7,2.1c0,0,0,0,0,0h4.5
		c14.1,0,25.5-11.5,25.6-25.6v-59.7c0-2-0.5-3.9-1.3-5.7l-5.4-10.8l-2.8-14.1c0,0,0-0.1,0-0.1l2.8-16.9L236.9,79.4z M222,79.5
		c-1,1.5-1.7,3.2-2,5l-2.8,16.8c-0.2,1.5-0.2,3,0.1,4.6l2.8,14.1c0.2,1.1,0.6,2.2,1.1,3.2l5.4,10.7c0,0,0,0.1,0,0.1v59.7
		c0,7.2-5.9,13.1-13.1,13.1H209h0c0,0-0.1,0-0.1,0l-6.4-4.3c-2.1-1.4-4.5-2.1-7-2.1c0,0,0,0,0,0h-5.8c0,0,0,0,0,0
		c-2.5,0-4.9,0.7-7,2.1l-6.4,4.3c0,0-0.1,0-0.1,0H97.5c-7.2,0-13.1-5.9-13.1-13.1v-7c0-0.1,0-0.1,0.1-0.2l2.7-2.7
		c2.4-2.4,3.7-5.6,3.7-9v-8.3c0-2.5-0.7-4.9-2.1-7l-4.3-6.4c0,0,0-0.1,0-0.1v-32c0-0.1,0-0.1,0-0.1l5.4-10.8c0.5-1,0.9-2.1,1.1-3.2
		l2.8-14.2c0.3-1.4,0.3-2.8,0.1-4.3l-2.9-20.4c-0.2-1.4-0.6-2.7-1.2-3.9l-5.3-10.5c0,0,0-0.1,0-0.1v-21c0-0.1,0.1-0.2,0.2-0.2h19.3
		c0.1,0,0.2,0.1,0.2,0.2v19.3c0,10.5,8.6,19.1,19.1,19.1h64.5c10.5,0,19.1-8.6,19.1-19.1V32.5c0-0.1,0.1-0.2,0.2-0.2h19.3
		c0.1,0,0.2,0.1,0.2,0.2v40c0,0,0,0.1,0,0.1L222,79.5z"/>
	<path class="st0" d="M206.8,138.1v35.5c0,3.4,2.8,6.2,6.2,6.2s6.2-2.8,6.2-6.2v-35.5c0-3.4-2.8-6.2-6.2-6.2
		S206.8,134.6,206.8,138.1z"/>
</g>
</svg>
