<?xml version="1.0" encoding="utf-8"?>
<!-- Generator: Adobe Illustrator 22.1.0, SVG Export Plug-In . SVG Version: 6.00 Build 0)  -->
<svg version="1.1" id="Warstwa_1" xmlns="http://www.w3.org/2000/svg" xmlns:xlink="http://www.w3.org/1999/xlink" x="0px" y="0px"
	 viewBox="0 0 329 239" style="enable-background:new 0 0 329 239;" xml:space="preserve">
<style type="text/css">
	.st0{fill:#FFFFFF;}
</style>
<path class="st0" d="M242,127.5c-0.1-3.6-0.1-6.2-0.1-7.6c0-10.9-2.8-73.4-3.1-80.5c-0.2-5-0.4-9.3-3.5-12c-2.2-2-5.3-2.7-10.5-2.4
	c-8.3,0.5-23.1,2.4-36.1,4.1c-4.3,0.6-8.5,1.1-12.2,1.5c0,0-0.1,0-0.1,0c-5.2,0.6-9.3,1.1-10.7,1.1h-1.6c-2.4,0-12.4-1.3-23-2.6
	c-13-1.7-27.6-3.6-36-4.1c-3.9-0.3-7.8-0.2-10.6,2.3c-2.6,2.3-3.2,5.8-3.4,10.3c-0.1,2.9-3.2,70.8-3.2,82.2c0,1.3,0,3.9-0.1,7.6
	c-0.3,18.3-1,56.4,1.4,73.1c1.5,10.1,5.5,14.2,14.2,14.2c0.7,0,1.5,0,2.3-0.1c6.5-0.5,16.6-1.7,26.7-3c0,0,0,0,0.1,0
	c2.9-0.4,5.8-0.7,8.6-1.1c10.6-1.4,20.6-2.6,23-2.6h1.6c2.4,0,12.4,1.3,23,2.6c12.2,1.6,26.1,3.4,34.6,4c11,0.8,15.6-3,17.3-14.1
	C243,183.8,242.4,145.8,242,127.5L242,127.5z M234.3,199.7c-1.1,7.8-2.8,9.2-10.4,8.6c-8.4-0.6-22.1-2.4-34.3-4
	c-13-1.7-21.1-2.7-23.8-2.7h-1.6c-0.6,0-1.5,0.1-2.8,0.2c2.4-1,4.6-2,6.5-2.8c3.9-1.7,7.9-3.4,9-3.6c1.7,0,3.2-1.5,3.2-3.2
	c0-1.8-1.4-3.2-3.2-3.2c-2,0-4.8,1.2-11.5,4.1c-8,3.5-20.2,8.7-33.9,12.4c-9.9,1.3-19.8,2.4-26.1,2.9c-6.9,0.5-8.6-1-9.7-8.6
	c-2.4-16.2-1.6-55.3-1.3-72.1c0.1-3.7,0.1-6.3,0.1-7.7c0-11.2,3-79,3.2-81.9c0.1-2.1,0.3-5,1.3-5.8c0.6-0.5,1.8-0.8,3.8-0.8
	c0.6,0,1.3,0,2,0.1c8.1,0.5,22.7,2.4,35.6,4.1c6.4,0.8,11.5,1.5,15.5,1.9c-5.7,2.2-10.7,4.4-14.6,6.2c-3.7,1.7-7.6,3.4-8.6,3.5
	c-1.7,0-3.2,1.5-3.2,3.2c0,1.8,1.4,3.2,3.2,3.2c2,0,4.7-1.2,11.2-4.1c7.9-3.5,19.9-8.8,33.7-12.5c3.4-0.4,7.4-0.9,12-1.5
	c12.9-1.7,27.6-3.6,35.7-4.1c3.8-0.2,5.2,0.3,5.8,0.7c1,0.9,1.2,4.3,1.3,7.5c1.2,25.7,3.1,71.4,3.1,80.2c0,1.4,0,4,0.1,7.7
	C235.9,144.3,236.6,183.4,234.3,199.7L234.3,199.7z M207.9,127.5"/>
<path class="st0" d="M187.7,137.2c-0.9-6.8-3.9-19.5-13.6-29.2c-3.2-3.2-7.5-4.9-11.9-4.8c-4.2,0.1-8.1,1.9-10.8,5
	c-5.5,6.2-4.5,16.3,2.3,22.5c9.5,8.7,21.5,11.5,27.9,12.4c0.3,0,0.5,0.1,0.8,0.1c1.4,0,2.8-0.6,3.8-1.6
	C187.4,140.5,187.9,138.8,187.7,137.2L187.7,137.2z M183.2,138.7c-0.3,0.3-0.7,0.4-1.1,0.3c-5.9-0.8-17-3.4-25.6-11.3
	c-5-4.6-5.9-12.3-2-16.7c2-2.3,4.8-3.6,7.8-3.7c0.1,0,0.2,0,0.4,0c3.1,0,6.2,1.3,8.4,3.5c8.8,8.8,11.6,20.6,12.4,26.8
	C183.6,138.3,183.4,138.6,183.2,138.7L183.2,138.7z M183.2,138.7"/>
<path class="st0" d="M173.2,121.3c-1.5-2.6-3.3-5-5.4-7c-1.7-1.7-4.2-2.5-6.5-2c-1.1,0.2-1.8,1.3-1.6,2.4c0.2,1.1,1.3,1.8,2.4,1.6
	c0.9-0.2,2,0.2,2.7,0.9c1.8,1.8,3.4,3.9,4.7,6.2c0.4,0.7,1.1,1,1.8,1c0.4,0,0.7-0.1,1-0.3C173.5,123.5,173.8,122.2,173.2,121.3
	L173.2,121.3z M173.2,121.3"/>
<path class="st0" d="M150.2,79.1c-1-6-5.4-10.3-11.6-11.5c-9.2-1.7-20.5,3.8-27.5,13.4c-5.3,7.3-6.5,15.5-3.3,22
	c0.8,1.6,1.8,3,3,4.2c2.9,2.9,6.8,4.5,11,4.5c0.2,0,0.4,0,0.5,0c5.1-0.2,9.4-4.5,9.6-9.6c0.1-2.5-0.8-4.8-2.5-6.6
	c-1.2-1.2-2.7-2-4.3-2.4c0.2-0.4,0.5-1,1-1.7c0.9-1.2,1.9-2.3,3.1-3.2c0.9-0.7,1.1-2,0.4-2.9c-0.7-0.9-2-1.1-2.9-0.4
	c-1.5,1.1-2.8,2.5-3.9,4c-1.6,2.1-2.9,5.3-1.5,7.2c0.4,0.5,1,0.9,1.7,0.9c1.3,0,2.6,0.5,3.5,1.4c0.9,0.9,1.4,2.2,1.3,3.5
	c-0.1,3-2.6,5.5-5.6,5.6c-3.2,0.1-6.2-1.1-8.5-3.3c-0.9-0.9-1.7-2-2.2-3.1c-2.5-5.1-1.4-11.8,3-17.8c6.1-8.3,15.7-13.2,23.4-11.8
	c4.5,0.8,7.6,3.8,8.3,8.1c0.5,2.9-1.5,5.8-4.5,6.4c-2.5,0.6-4.9-0.7-5.7-2.9c-0.4-1.1-1.6-1.6-2.7-1.2c-1.1,0.4-1.6,1.6-1.2,2.7
	c1.6,4.2,6,6.6,10.5,5.5C147.6,89.1,151,84.1,150.2,79.1L150.2,79.1z M150.2,79.1"/>
<path class="st0" d="M193.4,161c-3.7-3.5-9.8-3.5-13.5,0c-1.8,1.7-2.8,4-2.9,6.4c0,2.4,0.9,4.7,2.7,6.5c0.8,0.8,2.1,0.8,2.9,0
	c0.8-0.8,0.8-2.1,0-2.9c-1-0.9-1.5-2.2-1.5-3.5c0-1.3,0.6-2.5,1.6-3.5c2.2-2,5.7-2,7.9,0c2.4,2.2,3.7,5.2,3.7,8.3
	c0,1.3-0.2,2.6-0.6,3.8c-1.9,5.4-7.3,9.3-14.7,10.5c-10.2,1.6-20.4-1.8-24.8-8.2c-2.6-3.8-2.7-8-0.1-11.6c1.7-2.4,5.2-3,7.7-1.4
	c2.2,1.3,3,3.9,2,6.1c-0.4,0.8-0.2,1.8,0.5,2.4c1.8,1.6,5.6,3.2,10.2,3.1c1.1,0,2-1,2-2.1c0-1.1-1-2.1-2.1-2c-2.9,0-5-0.7-6.3-1.3
	c0.9-3.7-0.7-7.5-4.1-9.6c-4.4-2.7-10.3-1.6-13.3,2.5c-3.6,5-3.5,11.1,0.1,16.3c4.5,6.5,13.6,10.4,23.3,10.4c1.8,0,3.7-0.1,5.6-0.4
	c8.9-1.4,15.6-6.3,17.9-13.2c0.6-1.7,0.9-3.4,0.9-5.1C198.3,168,196.6,164,193.4,161L193.4,161z M193.4,161"/>
<path class="st0" d="M197.5,62.8l0.3-0.3c0.8-0.8,0.8-2.1,0-2.9c-0.8-0.8-2.1-0.8-2.9,0l-0.3,0.3c-2-1.2-4.6-1.5-7.4-1
	c-3.3,0.7-6.7,2.6-9.5,5.4c-2.8,2.8-4.7,6.2-5.4,9.5c-0.6,2.8-0.2,5.4,1,7.4l-0.3,0.3c-0.8,0.8-0.8,2.1,0,2.9
	c0.4,0.4,0.9,0.6,1.5,0.6c0.5,0,1.1-0.2,1.5-0.6l0.3-0.3c1.4,0.8,3,1.2,4.8,1.2c0.8,0,1.7-0.1,2.6-0.3c3.3-0.7,6.7-2.6,9.5-5.4
	c2.8-2.8,4.7-6.2,5.4-9.5C199.1,67.4,198.7,64.9,197.5,62.8L197.5,62.8z M190.2,76.8c-2.2,2.2-4.8,3.7-7.4,4.2
	c-1.3,0.3-3.7,0.5-5.3-1.1c0,0,0,0,0,0c0,0,0,0,0,0c-1.6-1.6-1.4-4-1.1-5.3c0.5-2.5,2-5.2,4.2-7.4c2.2-2.2,4.8-3.7,7.4-4.2
	c0.5-0.1,1.1-0.2,1.7-0.2c1.2,0,2.5,0.3,3.5,1.3l0,0C195.9,66.7,194.5,72.5,190.2,76.8L190.2,76.8z M190.2,76.8"/>
<path class="st0" d="M236.8,160.5c1.2-2,1.5-4.6,1-7.4c-0.7-3.3-2.6-6.7-5.4-9.5c-2.8-2.8-6.2-4.7-9.5-5.4c-2.8-0.6-5.3-0.2-7.4,1
	l-0.3-0.3c-0.8-0.8-2.1-0.8-2.9,0c-0.8,0.8-0.8,2.1,0,2.9l0.3,0.3c-1.2,2-1.5,4.6-1,7.4c0.7,3.3,2.6,6.7,5.4,9.5
	c2.8,2.8,6.2,4.7,9.5,5.4c0.9,0.2,1.7,0.3,2.6,0.3c1.8,0,3.4-0.4,4.8-1.2l0.3,0.3c0.4,0.4,0.9,0.6,1.5,0.6c0.5,0,1.1-0.2,1.5-0.6
	c0.8-0.8,0.8-2.1,0-2.9L236.8,160.5z M232.6,159.2C232.6,159.2,232.6,159.2,232.6,159.2C232.6,159.2,232.6,159.2,232.6,159.2
	c-1.6,1.6-4,1.4-5.3,1.1c-2.5-0.5-5.2-2-7.4-4.2c-4.3-4.3-5.7-10.1-3.1-12.7l0,0c1-1,2.4-1.3,3.5-1.3c0.7,0,1.3,0.1,1.7,0.2
	c2.5,0.5,5.2,2,7.4,4.2c2.2,2.2,3.7,4.8,4.2,7.4C233.9,155.3,234.1,157.7,232.6,159.2L232.6,159.2z M232.6,159.2"/>
<path class="st0" d="M215.8,88.3c-0.8-0.4-1.8-1-2.2-1.3c-0.3-0.8-1-1.4-2-1.4c-0.9,0-1.7,0.6-2,1.4c-0.4,0.3-1.4,0.9-2.2,1.3
	c-4.7,2.6-13.4,7.4-13.4,19.3c0,5.4,2.6,10.1,7.2,12.9c3.4,2.1,7.3,2.8,10.3,1.8c0.9,0.3,1.9,0.5,3,0.5c2.4,0,5-0.8,7.3-2.2
	c4.6-2.9,7.2-7.6,7.2-12.9C229.2,95.8,220.5,90.9,215.8,88.3L215.8,88.3z M219.8,117.1c-2.5,1.6-5.4,2-7.2,1.2
	c-0.3-0.1-0.6-0.2-0.9-0.2c-0.3,0-0.6,0.1-0.9,0.2c-1.8,0.9-4.7,0.4-7.2-1.2c-1.6-1-5.2-3.9-5.2-9.4c0-9.4,6.8-13.2,11.2-15.7
	c0.8-0.4,1.5-0.8,2.1-1.3c0.6,0.4,1.3,0.8,2.1,1.3c4.5,2.5,11.2,6.3,11.2,15.7C225,113.2,221.4,116.1,219.8,117.1L219.8,117.1z
	 M219.8,117.1"/>
<path class="st0" d="M215.1,98.2c-0.9-0.7-2.2-0.4-2.9,0.5c-0.7,0.9-0.4,2.2,0.5,2.9c2.6,1.8,3.5,3.4,3.5,6c0,0.4-0.1,0.8-0.3,1.1
	c-0.5,1-0.2,2.3,0.8,2.8c0.3,0.2,0.7,0.3,1,0.3c0.7,0,1.4-0.4,1.8-1.1c0.5-0.9,0.8-2,0.8-3.1C220.4,102.5,217.5,99.9,215.1,98.2
	L215.1,98.2z M215.1,98.2"/>
<path class="st0" d="M136.6,133.3c-8.4-8.4-17.9-5.7-23.1-4.2c-0.9,0.3-2,0.6-2.5,0.6c-0.8-0.4-1.7-0.3-2.4,0.4
	c-0.4,0.4-0.6,0.9-0.6,1.5c0,0.3,0.1,0.6,0.2,0.9c-0.1,0.5-0.4,1.6-0.6,2.5c-1.5,5.1-4.2,14.7,4.2,23.1c2.9,2.9,6.7,4.5,10.7,4.5
	c1.2,0,2.4-0.1,3.6-0.4c3.9-0.9,7.1-3.2,8.5-6.1c2.8-1.4,5.2-4.6,6.1-8.5C141.8,142.3,140.4,137.1,136.6,133.3L136.6,133.3z
	 M136.6,146.6c-0.7,2.9-2.4,5.3-4.3,5.9c-0.6,0.2-1.1,0.7-1.3,1.3c-0.7,1.9-3,3.6-5.9,4.3c-1.8,0.4-6.4,1-10.4-3
	c-6.7-6.7-4.5-14.1-3.1-19c0.2-0.9,0.5-1.7,0.6-2.4c0.7-0.1,1.5-0.4,2.4-0.6c4.9-1.4,12.4-3.5,19,3.1
	C137.6,140.1,137,144.8,136.6,146.6L136.6,146.6z M136.6,146.6"/>
<path class="st0" d="M132,142.2c-0.3-1-0.8-1.9-1.6-2.7c-3.6-3.6-7.5-3.5-10.4-2.9c-1.1,0.2-1.9,1.3-1.7,2.4
	c0.2,1.1,1.3,1.9,2.4,1.7c3.1-0.6,4.9-0.1,6.8,1.8c0.3,0.3,0.5,0.6,0.6,1c0.3,0.9,1.1,1.5,2,1.5c0.2,0,0.4,0,0.6-0.1
	C131.7,144.5,132.3,143.3,132,142.2L132,142.2z M132,142.2"/>
</svg>
