<?xml version="1.0" encoding="utf-8"?>
<!-- Generator: Adobe Illustrator 22.1.0, SVG Export Plug-In . SVG Version: 6.00 Build 0)  -->
<svg version="1.1" id="Warstwa_1" xmlns="http://www.w3.org/2000/svg" xmlns:xlink="http://www.w3.org/1999/xlink" x="0px" y="0px"
	 viewBox="0 0 329 239" style="enable-background:new 0 0 329 239;" xml:space="preserve">
<style type="text/css">
	.st0{fill:#FFFFFF;}
</style>
<g>
	<path class="st0" d="M259.7,142.5c-0.6-1.9-2.3-3.3-4.3-3.5c-5.1-0.7-11-2.3-12.2-3.3L141.7,46.6c-2.1-1.8-5.2-1.7-7.2,0.2
		l-11.8,11.8c0.3-1.4,0.1-2.9-0.7-4.1L103.7,27c-0.9-1.3-2.3-2.1-3.9-2.3c-1.6-0.1-3.1,0.4-4.2,1.5L70.5,51.4
		c-1.1,1.1-1.7,2.6-1.5,4.2c0.2,1.6,1,3,2.3,3.8l27.4,18.3c0.9,0.6,1.9,0.9,2.9,0.9c0.4,0,0.8-0.1,1.3-0.2L91.1,90.2
		c-2,1.9-2.1,5.1-0.2,7.2l90,102.6l0,0c0.6,0.8,1.9,5.6,2.4,11c0.2,2,1.5,3.8,3.4,4.5c0.6,0.2,1.2,0.3,1.8,0.3
		c1.4,0,2.7-0.6,3.7-1.5l66.3-66.3C259.9,146.5,260.4,144.4,259.7,142.5z M110.9,56.7l-9.9,9.9L82.4,54.3l16.1-16.1L110.9,56.7z
		 M244.2,147.4l-52.3,52.3c-0.8-3-1.9-5.2-3.2-6.6L102,94.2l36.5-36.5l97.9,85.9C238,145.1,240.7,146.3,244.2,147.4z"/>
	<path class="st0" d="M200,121L200,121c-1.7-1.7-4.5-1.7-6.2,0l-28.5,28.5c-0.8,0.8-1.3,1.9-1.3,3.1c0,1.2,0.5,2.3,1.3,3.1
		l11.7,11.7c0.8,0.8,1.9,1.3,3.1,1.3c1.2,0,2.3-0.5,3.1-1.3l28.5-28.5c1.7-1.7,1.7-4.5,0-6.2L200,121z M202.4,135.8l-22.3,22.3
		l-5.6-5.6l22.3-22.3L202.4,135.8z"/>
</g>
</svg>
