<?xml version="1.0" encoding="utf-8"?>
<!-- Generator: Adobe Illustrator 22.1.0, SVG Export Plug-In . SVG Version: 6.00 Build 0)  -->
<svg version="1.1" id="Warstwa_1" xmlns="http://www.w3.org/2000/svg" xmlns:xlink="http://www.w3.org/1999/xlink" x="0px" y="0px"
	 viewBox="0 0 329 239" style="enable-background:new 0 0 329 239;" xml:space="preserve">
<style type="text/css">
	.st0{fill:#FFFFFF;}
</style>
<path class="st0" d="M257.8,121.5c-0.1-3.6-0.1-6.2-0.1-7.6c0-10.9-2.8-73.4-3.1-80.5c-0.2-5-0.4-9.3-3.5-12
	c-2.2-2-5.3-2.7-10.5-2.4c-8.3,0.5-23.1,2.4-36.1,4.1c-4.3,0.6-8.5,1.1-12.2,1.5h-0.1c-5.2,0.6-9.3,1.1-10.7,1.1h-1.6
	c-2.4,0-12.4-1.3-23-2.6c-13-1.7-27.6-3.6-36-4.1c-3.9-0.3-7.8-0.2-10.6,2.3c-2.6,2.3-3.2,5.8-3.4,10.3c-0.1,2.9-3.2,70.8-3.2,82.2
	c0,1.3,0,3.9-0.1,7.6c-0.3,18.3-1,56.4,1.4,73.1c1.5,10.1,5.5,14.2,14.2,14.2c0.7,0,1.5,0,2.3-0.1c6.5-0.5,16.6-1.7,26.7-3
	c0,0,0,0,0.1,0c2.9-0.4,5.8-0.7,8.6-1.1c10.6-1.4,20.6-2.6,23-2.6h1.6c2.4,0,12.4,1.3,23,2.6c12.2,1.6,26.1,3.4,34.6,4
	c11,0.8,15.6-3,17.3-14.1C258.8,177.8,258.2,139.8,257.8,121.5L257.8,121.5z M250.1,193.7c-1.1,7.8-2.8,9.2-10.4,8.6
	c-8.4-0.6-22.1-2.4-34.3-4c-13-1.7-21.1-2.7-23.8-2.7H180c-0.6,0-1.5,0.1-2.8,0.2c2.4-1,4.6-2,6.5-2.8c3.9-1.7,7.9-3.4,9-3.6
	c1.7,0,3.2-1.5,3.2-3.2c0-1.8-1.4-3.2-3.2-3.2c-2,0-4.8,1.2-11.5,4.1c-8,3.5-20.2,8.7-33.9,12.4c-9.9,1.3-19.8,2.4-26.1,2.9
	c-6.9,0.5-8.6-1-9.7-8.6c-2.4-16.2-1.6-55.3-1.3-72.1c0.1-3.7,0.1-6.3,0.1-7.7c0-11.2,3-79,3.2-81.9c0.1-2.1,0.3-5,1.3-5.8
	c0.6-0.5,1.8-0.8,3.8-0.8c0.6,0,1.3,0,2,0.1c8.1,0.5,22.7,2.4,35.6,4.1c6.4,0.8,11.5,1.5,15.5,1.9c-5.7,2.2-10.7,4.4-14.6,6.2
	c-3.7,1.7-7.6,3.4-8.6,3.5c-1.7,0-3.2,1.5-3.2,3.2c0,1.8,1.4,3.2,3.2,3.2c2,0,4.7-1.2,11.2-4.1c7.9-3.5,19.9-8.8,33.7-12.5
	c3.4-0.4,7.4-0.9,12-1.5c12.9-1.7,27.6-3.6,35.7-4.1c3.8-0.2,5.2,0.3,5.8,0.7c1,0.9,1.2,4.3,1.3,7.5c1.2,25.7,3.1,71.4,3.1,80.2
	c0,1.4,0,4,0.1,7.7C251.7,138.3,252.4,177.4,250.1,193.7z"/>
<path class="st0" d="M173.9,47.5c-19.1,0-38.3-1.5-57.6-4.4c-1.4-0.2-2.3-1.5-2.1-2.9c0.2-1.4,1.5-2.3,2.9-2.1
	c38.1,5.8,76,5.8,112.6,0c3.7-0.6,7.5-1.3,11.3-2c1.4-0.3,2.7,0.6,2.9,2c0.3,1.4-0.6,2.7-2,2.9c-3.8,0.7-7.6,1.4-11.4,2
	C211.9,46,193,47.5,173.9,47.5z"/>
<path class="st0" d="M139.4,155.8c-0.5,0-1.1-0.2-1.6-0.5l-6.7-5.3c-1.1-0.9-1.3-2.4-0.4-3.5c0.9-1.1,2.4-1.3,3.5-0.4l6.7,5.3
	c1.1,0.9,1.3,2.4,0.4,3.5C140.8,155.4,140.1,155.8,139.4,155.8z"/>
<path class="st0" d="M161.4,153.1c-0.4,0-0.8-0.1-1.1-0.3c-1.2-0.6-1.7-2.1-1.1-3.4l4.7-9.3c0.6-1.2,2.1-1.7,3.4-1.1
	c1.2,0.6,1.7,2.1,1.1,3.4l-4.7,9.3C163.2,152.6,162.3,153.1,161.4,153.1z"/>
<path class="st0" d="M142,139.1c-0.5,0-1.1-0.2-1.5-0.5l-9.3-7.3c-1.1-0.9-1.3-2.4-0.4-3.5c0.9-1.1,2.4-1.3,3.5-0.4l9.3,7.3
	c1.1,0.9,1.3,2.4,0.4,3.5C143.5,138.8,142.8,139.1,142,139.1z"/>
<path class="st0" d="M157.4,183.8H142c-1.4,0-2.5-1.1-2.5-2.5s1.1-2.5,2.5-2.5h15.3c1.4,0,2.5,1.1,2.5,2.5S158.8,183.8,157.4,183.8z
	"/>
<path class="st0" d="M209.4,179.8c-0.3,0-0.6-0.1-1-0.2c-1.3-0.5-1.9-2-1.3-3.3c0.9-2.2,3.4-8.3,3.9-9.8c0.4-1.3,1.9-2,3.2-1.6
	c1.3,0.4,2,1.9,1.6,3.2c-0.7,2.1-3.9,9.8-4.1,10.2C211.3,179.2,210.4,179.8,209.4,179.8z"/>
</svg>
