<?xml version="1.0" encoding="utf-8"?>
<!-- Generator: Adobe Illustrator 22.1.0, SVG Export Plug-In . SVG Version: 6.00 Build 0)  -->
<svg version="1.1" id="Warstwa_1" xmlns="http://www.w3.org/2000/svg" xmlns:xlink="http://www.w3.org/1999/xlink" x="0px" y="0px"
	 viewBox="0 0 329 239" style="enable-background:new 0 0 329 239;" xml:space="preserve">
<style type="text/css">
	.st0{fill:#FFFFFF;}
</style>
<path class="st0" d="M161.6,123.7l-11.9-8.5c-0.1-0.1-0.2-0.1-0.2-0.2c0,0,0,0,0,0c-0.1,0-0.1-0.1-0.2-0.1l-13.2-9.4
	c-0.6-0.4-1.3-0.6-2-0.5c-0.7,0.1-1.3,0.5-1.7,1.1c-5.9,8.2-4,19.7,4.3,25.6c3.1,2.2,6.8,3.4,10.6,3.4c1,0,2-0.1,3.1-0.3
	c4.8-0.8,9.1-3.4,11.9-7.4C163.1,126.2,162.8,124.6,161.6,123.7z M135.1,121.5l6.8-0.9l-4.1,5.1C136.6,124.5,135.7,123,135.1,121.5z
	 M145.9,124l0.4,5.8c-1.4-0.1-2.9-0.5-4.2-1L145.9,124z M135.3,111.4l5.7,4.1l-6.8,0.9C134.3,114.7,134.6,113,135.3,111.4z
	 M151.5,129.1l-0.5-6.6l5.2,3.7C154.9,127.6,153.3,128.6,151.5,129.1z"/>
<path class="st0" d="M226.9,120.3c-1-1.4-2.3-2.5-3.9-3.1l-4.4-6.5c0.7-0.9,0.7-2.1,0.1-3.1l-0.2-0.3c-1.2-1.7-1.7-3.9-1.4-6
	c0.4-3.3-0.5-6.7-2.4-9.4l0,0c-4.4-6.4-13.1-8.1-19.6-3.7c-6.4,4.3-8.1,12.8-3.9,19.3c1.9,2.9,4.7,5,8,5.9c2.2,0.6,4.1,2,5.4,3.9
	c0.5,0.7,1.3,1.1,2.2,1.1c0.2,0,0.5,0,0.7-0.1l4.5,6.6c0,1.6,0.5,3.2,1.4,4.5c1.6,2.3,4.1,3.6,6.7,3.6c1.6,0,3.2-0.5,4.6-1.4
	C228.4,129.1,229.4,124,226.9,120.3L226.9,120.3z M207.2,112.2c-1.8-1.8-4-3.1-6.5-3.8c-2.1-0.6-3.9-1.9-5-3.7
	c-2.6-4.1-1.5-9.4,2.5-12.1c1.5-1,3.2-1.5,5-1.5c2.8,0,5.6,1.4,7.3,3.9l0,0c1.2,1.7,1.7,3.8,1.5,5.9c-0.3,2.6,0.1,5.2,1.1,7.4
	L207.2,112.2z M221.8,127.3c-1.3,0.9-3.1,0.6-4-0.8c-0.5-0.7-0.5-1.5-0.5-2c0.1-0.6-0.1-1.3-0.4-1.8l-4.9-7.3l2.4-1.6l4.8,7.1
	c0.4,0.6,1,0.9,1.6,1.1c0.7,0.2,1.4,0.6,1.8,1.2C223.4,124.6,223.1,126.4,221.8,127.3z"/>
<path class="st0" d="M212.1,136.9h-96c-3.7,0-6.7,3-6.7,6.7v17.1c0,17.2,10.9,32,26.2,37.6c-0.7,1-1,2.2-1,3.4v1.9
	c0,3.4,2.8,6.2,6.2,6.2h46c3.4,0,6.2-2.8,6.2-6.2v-1.9c0-1.2-0.3-2.3-0.9-3.2c15.6-5.5,26.8-20.4,26.8-37.8v-17.1
	C218.8,139.9,215.8,136.9,212.1,136.9z M186.7,200.9c0.5,0,1,0.4,1,1v1.9c0,0.5-0.4,1-1,1h-46c-0.5,0-1-0.4-1-1v-1.9
	c0-0.5,0.4-1,1-1l0,0H186.7L186.7,200.9z M213.5,160.8c0,19.2-15.6,34.9-34.9,34.9h-29.2c-18.3,0-33.4-14.2-34.8-32.2h20.7
	c1.4,0,2.6-1.2,2.6-2.6s-1.2-2.6-2.6-2.6h-20.8v-5.4h33.9c1.4,0,2.6-1.2,2.6-2.6s-1.2-2.6-2.6-2.6h-33.9v-3.9c0-0.8,0.7-1.5,1.5-1.5
	h96c0.8,0,1.5,0.7,1.5,1.5L213.5,160.8L213.5,160.8z"/>
<path class="st0" d="M113.1,117.1c0.8,0,1.6-0.2,2.4-0.6c1.4-0.7,2.4-2,2.8-3.6l0.9-4.2c4.3-0.5,7.6-2.8,9.1-6.2
	c1.3-3,1-6.4-0.9-9.6c-1.7-3-4.6-5.4-8.1-7c-3.5-1.5-7.3-1.9-10.6-1.2c-3.6,0.8-6.3,2.9-7.7,5.9c-1.5,3.4-0.8,7.4,1.7,10.9l-2.4,3.5
	c-0.9,1.3-1.2,2.9-0.7,4.5c0.4,1.5,1.5,2.8,3,3.4l8.4,3.6C111.6,116.9,112.3,117.1,113.1,117.1z M104.6,108.1
	C104.6,108.1,104.6,108.1,104.6,108.1l3.1-4.6c0.9-1.3,0.8-3.2-0.2-4.4c-1.8-2.1-2.4-4.5-1.6-6.4c0.6-1.4,2-2.5,4-2.9
	c0.7-0.2,1.4-0.2,2.2-0.2c1.7,0,3.5,0.4,5.2,1.1c2.5,1.1,4.5,2.8,5.7,4.8c1,1.7,1.2,3.5,0.6,4.9l0,0c-0.8,1.8-2.9,3-5.5,3.1
	c-1.8,0.1-3.3,1.4-3.6,3.1l-1.1,5c0,0,0,0,0,0.1c0,0,0,0-0.1,0L104.6,108.1C104.6,108.2,104.6,108.2,104.6,108.1z"/>
<path class="st0" d="M114,96.7l0.9-2c0.6-1.3,0-2.9-1.4-3.5c-1.3-0.6-2.9,0-3.4,1.4l-0.9,2c-0.6,1.3,0,2.9,1.4,3.5
	c0.3,0.1,0.7,0.2,1,0.2C112.6,98.3,113.6,97.7,114,96.7z"/>
<path class="st0" d="M115.9,100.4c0.3,0.1,0.7,0.2,1,0.2c1,0,2-0.6,2.4-1.6l0.9-2c0.6-1.3,0-2.9-1.4-3.4c-1.3-0.6-2.9,0-3.4,1.4
	l-0.9,2C114,98.3,114.6,99.8,115.9,100.4z"/>
<path class="st0" d="M233.6,54.7l1.7-4.2c0.5-1.3-0.1-2.9-1.5-3.4c-1.3-0.5-2.9,0.1-3.4,1.5l-1.7,4.2c-0.8-0.1-1.7,0-2.5,0.2
	c-2.4,0.6-4.3,2.3-5.3,4.5c-2.6,5.8-8.5,12-14,14.8c-0.8,0.4-1.3,1.2-1.4,2.1c-0.1,0.9,0.3,1.8,1,2.3c2.5,1.9,5.7,2.9,9.1,2.9
	c1.3,0,2.6-0.1,4-0.4c6-1.3,11.3-5.1,14-10.1c1-1.9,1.8-3.9,2.4-6C236.9,60,236,56.8,233.6,54.7z M231,61.6c-0.5,1.8-1.2,3.4-2,5
	c-2,3.6-6.1,6.5-10.5,7.5c-1.7,0.4-3.3,0.4-4.8,0.2c5.1-3.8,9.7-9.3,12.1-14.6c0.3-0.8,1-1.3,1.8-1.6c0.8-0.2,1.7,0,2.4,0.5
	C230.9,59.3,231.3,60.5,231,61.6z"/>
<path class="st0" d="M105.1,80.1c0.2,0,0.5,0,0.7-0.1c2.1-0.3,4.8-2,5.9-8.4c0.7-4.1,0.7-9.3-0.1-14.7h0c-0.8-5.4-2.2-10.4-4.1-14.1
	c-2.9-5.8-6-6.7-8.1-6.4c-2.1,0.3-4.8,2-5.9,8.4c-0.7,4.1-0.7,9.3,0.1,14.7c0.8,5.4,2.2,10.4,4.1,14.1
	C100.4,78.9,103.1,80.1,105.1,80.1z M100.3,41.7c1.3,0.6,4.7,5.8,6.2,16h0c0.7,5,0.7,8.9,0.3,11.8l-1.5-10.7c-0.2-1.4-1.5-2.4-3-2.2
	c-1.4,0.2-2.4,1.5-2.2,3l1.3,9.3c-1-2.5-1.9-5.9-2.5-10.1C97.4,48.6,99.2,42.6,100.3,41.7z"/>
<path class="st0" d="M193.5,42.6c-2.7,3.6-2.8,8.6,0,12.3c3,3.9,13,5.6,14.9,5.8c0.1,0,0.3,0,0.4,0c0.6,0,1.1-0.2,1.6-0.5
	c0.6-0.4,0.9-1.1,1-1.8c0.2-2,1.2-12-1.9-15.9c-2.9-3.7-7.8-4.9-11.9-3.2l-2.8-3.7c-0.9-1.1-2.5-1.4-3.7-0.5
	c-1.1,0.9-1.4,2.5-0.5,3.7L193.5,42.6z M201.5,43.8c1.5,0,2.9,0.7,3.9,1.9c0.9,1.2,1.2,5.3,1,9.3c-3.9-0.8-7.9-2.2-8.8-3.4
	c-0.8-1-1.1-2.3-1-3.6c0.1-0.6,0.2-1.1,0.5-1.6c0.2,0.1,0.5,0.1,0.7,0.1c0.6,0,1.1-0.2,1.6-0.5c0.7-0.5,1-1.3,1-2.1
	C200.8,43.9,201.2,43.8,201.5,43.8z"/>
<path class="st0" d="M159.9,45.7c6.8,0,12.4,5.6,12.4,12.4c0,1.4,1.2,2.6,2.6,2.6s2.6-1.2,2.6-2.6c0-9.7-7.9-17.7-17.7-17.7
	c-1.4,0-2.6,1.2-2.6,2.6C157.2,44.5,158.4,45.7,159.9,45.7z"/>
<path class="st0" d="M159.9,31h-16.1c-11.1,0-20.2,13.5-24.6,21.6c-1.9,3.5-1.9,7.6,0,11.1c4.4,8.1,13.5,21.6,24.6,21.6h4v14.5
	c0,4.7,3.8,8.6,8.6,8.6s8.6-3.8,8.6-8.6v-15c1.7-0.3,3.3-0.8,4.9-1.4v14c0,4.7,3.8,8.6,8.6,8.6c4.7,0,8.6-3.8,8.6-8.6V58.1
	C187,43.2,174.8,31,159.9,31z M159.7,99.7c0,1.8-1.5,3.3-3.3,3.3s-3.3-1.5-3.3-3.3V85.2h6.6V99.7z M181.7,97.3
	c0,1.8-1.5,3.3-3.3,3.3c-1.8,0-3.3-1.5-3.3-3.3V80.5c2.6-1.7,4.8-3.9,6.6-6.4V97.3z M171.2,76.8c0,0-0.1,0-0.1,0.1
	c-3.3,2-7.1,3.1-11.2,3.1c-9.5,0-17.5-6-20.6-14.5c-0.4-1-1.4-1.7-2.5-1.7l0,0c-1.8,0-3.1,1.8-2.5,3.5c1.8,5.1,5.2,9.5,9.5,12.7
	h-0.1c-8.7,0-16.9-13.2-20-18.8c-1-1.9-1-4.1,0-6c3.1-5.7,11.3-18.8,20-18.8h0.1c-4.1,3-7.4,7.2-9.3,12.1c-0.7,1.7,0.6,3.6,2.5,3.6
	l0,0c1.1,0,2.1-0.7,2.4-1.7c3.3-8.5,11.8-14.5,21.7-13.9c11,0.6,19.8,9.4,20.5,20.4C182.2,65.2,177.9,72.7,171.2,76.8z"/>
<path class="st0" d="M178.4,110.4c-4.7,0-8.6,3.8-8.6,8.6v6.3c0,4.7,3.8,8.6,8.6,8.6c4.7,0,8.6-3.8,8.6-8.6v-6.3
	C187,114.2,183.1,110.4,178.4,110.4z M181.7,125.2c0,1.8-1.5,3.3-3.3,3.3c-1.8,0-3.3-1.5-3.3-3.3v-6.3c0-1.8,1.5-3.3,3.3-3.3
	c1.8,0,3.3,1.5,3.3,3.3V125.2z"/>
</svg>
