<?xml version="1.0" encoding="utf-8"?>
<!-- Generator: Adobe Illustrator 22.1.0, SVG Export Plug-In . SVG Version: 6.00 Build 0)  -->
<svg version="1.1" id="Warstwa_1" xmlns="http://www.w3.org/2000/svg" xmlns:xlink="http://www.w3.org/1999/xlink" x="0px" y="0px"
	 viewBox="0 0 329 239" style="enable-background:new 0 0 329 239;" xml:space="preserve">
<style type="text/css">
	.st0{fill:#FFFFFF;}
</style>
<path class="st0" d="M235.8,42H93.9C85.7,42,79,48.5,79,56.7v16.1c0,0.1,0,0.2,0.1,0.3c0.4,19.3,7.3,37.9,19.6,52.8
	c0.1,0.1,0.2,0.2,0.2,0.2l6.6,58.6c0.8,8.5,8,15,16.6,15h85.4c8.6,0,15.8-6.4,16.6-15l6.6-58.7c0.1-0.2,0.3-0.3,0.4-0.5
	c12.2-14.9,19-33.4,19.4-52.6c0-0.1,0.1-0.2,0.1-0.3V56.7C250.6,48.5,243.9,42,235.8,42L235.8,42z M84.8,56.7c0-4.9,4.1-8.8,9-8.8
	h141.9c4.9,0,9,3.9,9,8.8V70h-160V56.7z M184.1,149c-1.4-2.8-4.2-4.5-7.3-4.5h-24c-3.1,0-5.9,1.7-7.3,4.5c-15.9-4-30.2-12.8-41-25.2
	l-5.4-48h131.5l-5.4,48C214.4,136.2,200.1,145,184.1,149L184.1,149z M179.4,156c0,1.3-1,2.3-2.3,2.3H153c-1.3,0-2.3-1-2.3-2.3v-3.4
	c0-1.3,1-2.3,2.3-2.3H177c1.3,0,2.3,1,2.3,2.3V156z M93.2,75.8l4.4,38.8c-7.5-11.7-11.8-25-12.5-38.8H93.2z M236.4,75.8h8.2
	c-0.8,13.8-5.1,27.2-12.5,38.8L236.4,75.8z M218.3,184.2c-0.5,5.6-5.2,9.8-10.8,9.8h-85.4c-5.6,0-10.3-4.2-10.8-9.8l-5.6-50.9
	c10.9,10.5,24.4,17.9,39.2,21.4v1.1c0,4.5,3.5,8.3,8,8.3h24c4.5,0,8-3.8,8-8.3v-1.1c14.7-3.5,28.3-10.9,39.2-21.4L218.3,184.2z
	 M218.3,184.2"/>
</svg>
