<?xml version="1.0" encoding="utf-8"?>
<!-- Generator: Adobe Illustrator 22.1.0, SVG Export Plug-In . SVG Version: 6.00 Build 0)  -->
<svg version="1.1" id="Warstwa_1" xmlns="http://www.w3.org/2000/svg" xmlns:xlink="http://www.w3.org/1999/xlink" x="0px" y="0px"
	 viewBox="0 0 329 239" style="enable-background:new 0 0 329 239;" xml:space="preserve">
<style type="text/css">
	.st0{fill:#FFFFFF;}
</style>
<g>
	<path class="st0" d="M221.1,25.2l-19.8-11c-4.7-2.6-10.1-3.2-15.3-1.8c-5.2,1.5-9.4,4.9-12,9.5L87.3,177.2
		c-2.6,4.7-3.2,10.1-1.8,15.3c1.5,5.2,4.9,9.4,9.5,12l19.8,11c3.1,1.7,6.4,2.5,9.7,2.5c7.1,0,13.9-3.7,17.5-10.3l86.7-155.3
		C234.3,42.7,230.8,30.5,221.1,25.2z M119.6,207.2l-19.8-11c-5-2.8-6.8-9.1-4-14.1l86.7-155.5c1.9-3.4,5.5-5.3,9.1-5.3
		c1.7,0,3.4,0.4,5,1.3l8.9,4.9c-4.4-1.7-9.4-0.9-13,2.1c-5.4-1.7-11.5,0.6-14.3,5.8c-3.2,5.8-1.1,13.3,4.8,16.7l17,9.5
		c1.8,1,3.9,1.5,5.9,1.5c2.7,0,5.3-0.9,7.5-2.5l-79.5,142.6C131,208.1,124.6,209.9,119.6,207.2z M207.3,48.5c1.2,0.7,1.7,2.2,1,3.4
		c-0.8,1.2-2.4,1.6-3.6,0.9l-17-9.5c-1.3-0.7-1.7-2.3-1-3.5c0.5-0.9,1.3-1.3,2.2-1.3c0.4,0,0.9,0.1,1.3,0.3l5.3,3l2.5-3.9
		c1-1.6,3.1-2.2,4.7-1.2c1.7,0.9,2.3,3,1.4,4.7l-2.1,4.1L207.3,48.5z M214,41.5c0.6-4.7-1.3-9.3-5-12.1l7.4,4.1
		c5,2.8,6.8,9.1,4,14.1l-2.4,4.2C218.4,48,217,44.1,214,41.5z"/>
	<path class="st0" d="M190.4,68l-11.7-6.5c-5.4-2.9-12.2-1-15.3,4.3l-12.5,22c-3,5.3-1,12.1,4.3,15.1c0.7,0.4,1,1.3,0.6,2.1
		l-42.3,74.5c-3,5.3-1,12.1,4.4,15.1l0.6,0.3c1.7,0.9,3.5,1.3,5.3,1.3c4,0,7.8-2,9.9-5.7l60.9-107.5c1.4-2.5,1.8-5.4,1-8.2
		C194.9,71.9,193,69.5,190.4,68z M122.5,186.2c-0.7-0.4-0.9-1.3-0.6-2l42.3-74.5c3-5.3,1-12.1-4.3-15.1c-0.7-0.4-1-1.3-0.6-2.1
		l12.5-22c0.4-0.7,1.4-1,2.2-0.6l11.6,6.4c0.7,0.4,1,1.3,0.6,2.1l-61,107.4c-0.4,0.7-1.4,1-2.2,0.6L122.5,186.2z"/>
</g>
</svg>
