<?xml version="1.0" encoding="utf-8"?>
<!-- Generator: Adobe Illustrator 22.1.0, SVG Export Plug-In . SVG Version: 6.00 Build 0)  -->
<svg version="1.1" id="Warstwa_1" xmlns="http://www.w3.org/2000/svg" xmlns:xlink="http://www.w3.org/1999/xlink" x="0px" y="0px"
	 viewBox="0 0 329 239" style="enable-background:new 0 0 329 239;" xml:space="preserve">
<style type="text/css">
	.st0{fill:#FFFFFF;}
</style>
<g>
	<path class="st0" d="M226.3,128.7c0-35.5,10.4-69.9,30.1-99.4l3.2-4.8h-10.1l-0.9,0.9c-26.3,26.3-40.7,61.2-40.7,98.3v4.9h-37.2
		c4.2-24.5,13.5-47.8,27.5-68.8l3.2-4.8h-10.1l-0.9,0.9c-20.1,20.1-33.3,45.3-38.4,72.7h-41.3c3-28.9,12.9-56.6,29.2-81l3.2-4.8
		h-10.1l-0.9,0.9c-23.1,23.1-37,52.8-40.1,84.9H70v85.8h190v-85.8H226.3z M253.9,141.1c-6.8,0.7-10.7,3.8-14.2,6.6
		c-3.7,2.9-6.8,5.5-13.4,5.5v-18.4h27.6V141.1z M214,169.2v-45.5c0-29.3,9.4-57.1,26.8-80.1c-13.6,26.2-20.7,55.3-20.7,85.1v40.4
		l1,0.9c1.3,1.2,2.1,2.8,2.1,4.5c0,3.4-2.7,6.1-6.1,6.1c-3.4,0-6.1-2.7-6.1-6.1c0-1.7,0.7-3.3,2.1-4.5L214,169.2z M207.9,134.9v9.3
		c-3-1.8-6.8-3.2-12.3-3.2c-8.7,0-13.3,3.6-17.2,6.8c-3,2.4-5.7,4.5-10.2,5.2c0.2-6.1,0.8-12.1,1.6-18.1L207.9,134.9L207.9,134.9z
		 M155.8,154.4c0-29.3,9.4-57.1,26.8-80.1c-13.6,26.2-20.7,55.3-20.7,85.1v12.4l1.8,0.8c4.5,2,7.4,6.4,7.4,11.2
		c0,6.8-5.5,12.3-12.3,12.3c-6.8,0-12.3-5.5-12.3-12.3c0-4.9,2.9-9.3,7.4-11.2l1.8-0.8V154.4z M151.1,134.9
		c-0.5,3.8-0.9,7.7-1.1,11.6c-3.6-2.8-8-5.5-15.6-5.5c-8.7,0-13.2,3.6-17.2,6.8c-2.3,1.9-4.4,3.5-7.3,4.5v-5.1
		c0-4.1,0.2-8.2,0.4-12.3L151.1,134.9L151.1,134.9z M97.6,166.2v-24c0-29.3,9.4-57.1,26.8-80.1c-13.6,26.2-20.7,55.3-20.7,85.1v19
		l1,0.9c1.3,1.2,2.1,2.8,2.1,4.5c0,3.4-2.7,6.1-6.1,6.1c-3.4,0-6.1-2.7-6.1-6.1c0-1.7,0.7-3.3,2.1-4.5L97.6,166.2z M91.6,134.9
		c-0.1,2.4-0.2,4.9-0.2,7.3v6.5c-0.4-0.3-0.8-0.6-1.2-0.9c-3.5-2.8-7.4-5.9-14.2-6.6v-6.3H91.6z M76.1,208.4v-18.2
		c4.6,0.7,7.3,2.8,10.3,5.2c4,3.2,8.5,6.8,17.2,6.8s13.2-3.6,17.2-6.8c3.7-2.9,6.8-5.5,13.4-5.5v-6.1c-8.7,0-13.3,3.6-17.2,6.8
		c-3.7,2.9-6.8,5.5-13.4,5.5c-6.6,0-9.7-2.5-13.4-5.5c-3.5-2.8-7.4-5.9-14.2-6.6v-36.7c4.6,0.7,7.3,2.8,10.3,5.2
		c1.5,1.2,3.1,2.5,5,3.6v7.4c-2,2.2-3.1,5.1-3.1,8.1c0,6.8,5.5,12.3,12.3,12.3s12.3-5.5,12.3-12.3c0-3-1.1-5.8-3.1-8.1v-4.9
		c5-1.2,8.2-3.8,11.1-6.1c3.7-2.9,6.8-5.5,13.4-5.5c6.6,0,9.7,2.5,13.4,5.5c0.6,0.5,1.3,1,1.9,1.5c0,0.1,0,0.2,0,0.4V168
		c-5.6,3.3-9.2,9.3-9.2,15.9c0,10.1,8.2,18.4,18.4,18.4c10.1,0,18.4-8.2,18.4-18.4c0-6.6-3.5-12.6-9.2-15.9v-8.5c0-0.1,0-0.2,0-0.2
		c6.8-0.7,10.7-3.8,14.1-6.6c3.7-2.9,6.8-5.5,13.4-5.5c5.9,0,9.1,2,12.3,4.6v15c-2,2.2-3.1,5.1-3.1,8.1c0,6.8,5.5,12.3,12.3,12.3
		c6.8,0,12.3-5.5,12.3-12.3c0-3-1.1-5.8-3.1-8.1v-7.3c8.7,0,13.2-3.6,17.2-6.8c3-2.4,5.8-4.6,10.3-5.2V184
		c-6.8,0.7-10.7,3.8-14.2,6.6c-3.7,2.9-6.8,5.5-13.4,5.5c-6.6,0-9.8-2.5-13.4-5.5c-4-3.2-8.5-6.8-17.2-6.8c-5,0-9.2,1.2-13.1,3.7
		l3.3,5.1c2.1-1.4,4.9-2.8,9.8-2.8c6.6,0,9.8,2.5,13.4,5.5c4,3.2,8.5,6.8,17.2,6.8c8.7,0,13.3-3.6,17.2-6.8c3-2.4,5.8-4.6,10.3-5.2
		v18.2H76.1z M76.1,208.4"/>
</g>
</svg>
