<?xml version="1.0" encoding="utf-8"?>
<!-- Generator: Adobe Illustrator 22.1.0, SVG Export Plug-In . SVG Version: 6.00 Build 0)  -->
<svg version="1.1" id="Warstwa_1" xmlns="http://www.w3.org/2000/svg" xmlns:xlink="http://www.w3.org/1999/xlink" x="0px" y="0px"
	 viewBox="0 0 329 239" style="enable-background:new 0 0 329 239;" xml:space="preserve">
<style type="text/css">
	.st0{fill:#FFFFFF;}
</style>
<g>
	<path class="st0" d="M179.9,121.8c-11.2,0-20.3,9.3-20.3,20.7c0,11.4,9.2,20.6,20.4,20.6c11.2,0,20.3-9.3,20.3-20.7
		C200.3,131,191.1,121.7,179.9,121.8z M180,155.5c-7.1,0-12.8-5.8-12.8-13.1c0-7.2,5.7-13.1,12.8-13.1c7.1,0,12.8,5.8,12.8,13.1
		C192.8,149.6,187.1,155.5,180,155.5z"/>
	<path class="st0" d="M163.6,96.4c0-11.4-9.1-20.7-20.4-20.7c-11.2,0-20.4,9.3-20.4,20.7c0,11.4,9.1,20.7,20.4,20.7
		C154.4,117.1,163.6,107.8,163.6,96.4z M130.4,96.4c0-7.2,5.7-13.1,12.8-13.1c7.1,0,12.8,5.9,12.8,13.1c0,7.2-5.7,13.1-12.8,13.1
		C136.2,109.5,130.4,103.7,130.4,96.4z"/>
	<path class="st0" d="M112.6,130.9c-8.9,0-16.1,7.2-16.1,16.1s7.2,16.1,16.1,16.1c8.9,0,16.1-7.2,16.1-16.1S121.4,130.9,112.6,130.9
		z M112.6,155.5c-4.7,0-8.6-3.8-8.6-8.6c0-4.7,3.8-8.6,8.6-8.6c4.7,0,8.5,3.8,8.5,8.6C121.1,151.7,117.3,155.5,112.6,155.5z"/>
	<path class="st0" d="M258.1,52.7c-2,0-4,0.3-6.1,0.8l-5.5,1.4c-5.4,1.4-13.1,2.1-21,2.1c-7.9,0-15.5-0.8-21-2.1l-5.5-1.4
		c-6.1-1.5-14.2-2.4-22.8-2.4c-8.6,0-16.7,0.8-22.8,2.4l-5.5,1.4c-5.4,1.4-13.1,2.1-21,2.1s-15.5-0.8-21-2.1l-5.5-1.4
		c-2-0.5-4.1-0.8-6.1-0.8c-11.9,0-20.6,9.1-20.6,21.5v90.6c0,6.1,2.1,11.6,5.8,15.5c5.1,5.3,12.8,7.3,20.8,5.3l5.5-1.4
		c5.5-1.4,13.1-2.1,21-2.1c7.9,0,15.5,0.8,21,2.1l5.5,1.4c6.1,1.5,14.2,2.4,22.8,2.4s16.7-0.8,22.8-2.4l5.5-1.4
		c5.5-1.4,13.1-2.1,21-2.1c7.9,0,15.5,0.8,21,2.1l5.5,1.4c2,0.5,4.1,0.8,6.1,0.8c11.9,0,20.6-9.1,20.6-21.5V74.2
		C278.6,61.7,270,52.7,258.1,52.7z M241.9,175.6c-5-0.7-10.7-1.1-16.4-1.1l-0.3,0h-5.4l2.2-4.9c2.1-4.6,6.6-7.6,11.6-7.6
		c5.6,0,10.5,3.7,12.2,9.2l1.6,5.3L241.9,175.6z M271.1,164.8c0,8.4-5.2,14-13,14c-0.3,0-0.6,0-0.8,0l-3.3-0.2v-3.3
		c0-11.5-9.1-20.9-20.4-20.9c-10.2,0-18.9,7.7-20.2,18l-0.3,2.7l-2.7,0.4c-2.8,0.4-5.4,0.9-7.7,1.4l-5.5,1.4
		c-5.4,1.4-13.1,2.1-21,2.1c-7.9,0-15.5-0.8-21-2.1l-5.5-1.4c-6.1-1.5-14.2-2.4-22.8-2.4c-8.6,0-16.7,0.8-22.8,2.4l-5.5,1.4
		c-1.4,0.4-2.8,0.5-4.2,0.5c0,0,0,0,0,0c-3.7,0-6.9-1.3-9.2-3.7c-2.4-2.5-3.7-6.1-3.7-10.2V74.2c0-8.4,5.2-14,13-14
		c1.4,0,2.8,0.2,4.2,0.5l5.5,1.4c6.1,1.5,14.2,2.4,22.8,2.4c8.6,0,16.7-0.8,22.8-2.4l5.5-1.4c5.4-1.4,13.1-2.1,21-2.1
		c7.9,0,15.5,0.8,21,2.1l5.5,1.4c6.1,1.5,14.2,2.4,22.8,2.4c8.6,0,16.7-0.8,22.8-2.4l5.5-1.4c1.4-0.4,2.8-0.5,4.2-0.5
		c7.8,0,13,5.6,13,14V164.8z"/>
	<path class="st0" d="M231.9,88.9c-16.9-10-40.2-0.1-41.2,0.4l-2.2,0.9l0.2,2.4c0.1,1.1,2.5,26.3,19.4,36.3
		c16.9,10,40.4,0.2,41.4-0.2l2.2-0.9l-0.2-2.4C251.5,124.2,248.8,98.9,231.9,88.9z M218.4,111.7l22.1,13.1c-7.5,2-19.7,3.9-28.9-1.6
		c-11.2-6.7-14.9-22.7-15.9-28.8c5.9-2.1,21.7-6.5,32.9,0.1c9.1,5.4,13.4,17.1,15.2,24.6l-22-13.1c-1.6-0.9-3.6-0.4-4.5,1.2
		C216.3,108.7,216.8,110.7,218.4,111.7z"/>
</g>
</svg>
