<?xml version="1.0" encoding="utf-8"?>
<!-- Generator: Adobe Illustrator 22.1.0, SVG Export Plug-In . SVG Version: 6.00 Build 0)  -->
<svg version="1.1" id="Warstwa_1" xmlns="http://www.w3.org/2000/svg" xmlns:xlink="http://www.w3.org/1999/xlink" x="0px" y="0px"
	 viewBox="0 0 329 239" style="enable-background:new 0 0 329 239;" xml:space="preserve">
<style type="text/css">
	.st0{fill:#FFFFFF;}
</style>
<path class="st0" d="M216.9,53.9c-0.5-0.5-1.1-0.8-1.8-0.8H113.5c-0.7,0-1.3,0.3-1.8,0.8c-0.5,0.5-0.7,1.2-0.6,1.9l14.8,130
	c0.1,1.3,1.2,2.2,2.5,2.2h71.8c1.3,0,2.3-0.9,2.5-2.2l8.8-76.9c0.1-0.3,0.2-0.6,0.2-1c0-0.2,0-0.3,0-0.4l5.9-51.8
	C217.6,55.1,217.4,54.4,216.9,53.9z M198,183.1h-67.4l-8.3-72.6h84L198,183.1z M206.8,105.5h-85.1L116.3,58h96L206.8,105.5z"/>
</svg>
