<?xml version="1.0" encoding="utf-8"?>
<!-- Generator: Adobe Illustrator 22.1.0, SVG Export Plug-In . SVG Version: 6.00 Build 0)  -->
<svg version="1.1" id="Warstwa_1" xmlns="http://www.w3.org/2000/svg" xmlns:xlink="http://www.w3.org/1999/xlink" x="0px" y="0px"
	 viewBox="0 0 329 239" style="enable-background:new 0 0 329 239;" xml:space="preserve">
<style type="text/css">
	.st0{fill:#FFFFFF;}
</style>
<path class="st0" d="M141.3,160.1c1.2,1.2,3.3,1.2,4.5,0l2.5-2.5l2.5,2.5c1.2,1.2,3.2,1.2,4.5,0c1.2-1.2,1.2-3.2,0-4.5l-2.5-2.5
	l2.5-2.5c1.2-1.3,1.2-3.2,0-4.5c-1.2-1.2-3.2-1.2-4.5,0l-2.5,2.5l-2.5-2.5c-1.3-1.2-3.2-1.2-4.5,0c-1.2,1.2-1.2,3.2,0,4.5l2.5,2.5
	l-2.5,2.5C140.1,156.8,140.1,158.8,141.3,160.1L141.3,160.1z M141.3,160.1"/>
<path class="st0" d="M170,86.8c1.2,1.2,3.3,1.2,4.5,0l2.5-2.5l2.5,2.5c1.2,1.2,3.2,1.2,4.5,0c1.2-1.2,1.2-3.2,0-4.5l-2.5-2.5
	l2.5-2.5c1.2-1.3,1.2-3.2,0-4.5c-1.2-1.2-3.2-1.2-4.5,0l-2.5,2.5l-2.5-2.5c-1.3-1.2-3.2-1.2-4.5,0c-1.2,1.2-1.2,3.2,0,4.5l2.5,2.5
	l-2.5,2.5C168.8,83.5,168.8,85.6,170,86.8L170,86.8z M170,86.8"/>
<path class="st0" d="M225.5,123.7c-1.2-1.2-3.3-1.2-4.5,0l-2.5,2.5l-2.5-2.5c-1.3-1.2-3.2-1.2-4.5,0c-1.2,1.2-1.2,3.2,0,4.5l2.5,2.5
	l-2.5,2.5c-0.8,0.8-1.2,2-0.9,3.1c0.3,1.1,1.2,2,2.3,2.3c1.1,0.3,2.3,0,3.1-0.9l2.5-2.5l2.5,2.5c1.3,1.2,3.2,1.2,4.5,0
	c1.2-1.2,1.2-3.2,0-4.5l-2.5-2.5l2.5-2.5C226.7,127,226.7,125,225.5,123.7L225.5,123.7z M225.5,123.7"/>
<path class="st0" d="M96.8,153.7c-4.6,3.3-8.8,7.1-12.5,11.5l-0.1,0.1c-4.1,4.8-7.2,10.3-9.2,16.2c-2.7,7.1-1.9,15,2.2,21.4
	c4.7,5.9,12,9.3,19.5,9h1.1c5.9-0.1,11.7-1.3,17.2-3.4c5.4-2.1,10.5-4.8,15.1-8.2c0.1-0.1,0.1-0.1,0.2-0.2l0,0
	c8.5-5.9,15.4-14,19.9-23.4c1,0.1,1.9,0.1,2.9,0.1c10.5,0,20.4-4.7,27.1-12.8c8.4,10.4,22,15.1,35,12.1c13-3,23.2-13.1,26.3-26.1
	c3.1-13-1.5-26.6-11.8-35.1c6.6-3.2,12.5-7.5,17.6-12.7c4.1-4.1,7.6-8.6,10.6-13.6c3.2-5.3,5.4-11.3,6.4-17.4l0-0.1
	c1.5-7.4-0.6-15.1-5.7-20.7c-5.6-5.1-13.2-7.2-20.6-5.7c-0.1,0-0.1,0-0.2,0c-6.2,1-12.1,3.2-17.5,6.4c-0.6,0.3-1.2,0.7-1.7,1.1
	c-4.3,2.7-8.3,5.9-11.8,9.5c-1.9,1.9-3.6,3.9-5.2,5.9c-10.7-9.4-26.1-11.3-38.8-4.8c-3.1-9.4-8.4-17.8-15.5-24.7l-0.1-0.1
	c-4-4.1-8.6-7.6-13.5-10.5c-14.9-8.7-29.9-9-38.2-0.7c-8.3,8.3-8,23.3,0.7,38.2c2.9,4.9,6.5,9.5,10.5,13.5l0.1,0.1
	C117.6,89.5,131.1,96,142.5,96c0.4,0,0.8,0,1.2,0c0.2,4,1,7.9,2.5,11.6c-16.4,3.3-28.1,17.7-28.2,34.4c0,0.6,0.1,1.1,0.1,1.7
	C110.5,145.6,103.2,149,96.8,153.7L96.8,153.7z M126,164.1L126,164.1l-8.1,5.9l-25.4-4.2c2.2-2.2,4.5-4.2,7-6.1L126,164.1z
	 M125.4,195.9c-2.6,1.8-5.2,3.3-8,4.7l4.2-25.4l8.2-5.9L125.4,195.9z M80.4,186.2l12,2l-11.5,8.2C79.7,193.1,79.5,189.6,80.4,186.2
	L80.4,186.2z M96.1,193.4l-2,12c-3.5-0.3-6.8-1.6-9.5-3.8L96.1,193.4z M103.4,188.1l10.8-7.7l-3.8,22.9c-3.2,1.1-6.5,1.8-9.9,2.1
	L103.4,188.1z M87.6,171.4l23,3.8l-10.8,7.7L82.4,180C83.7,177,85.5,174,87.6,171.4L87.6,171.4z M132.8,190l2.9-17.7
	c2.5,1.4,5.2,2.6,8,3.3C141,181,137.3,185.9,132.8,190L132.8,190z M236,141.9c0,15.8-12.8,28.7-28.7,28.7c-9.3,0-18-4.5-23.3-12.1
	c5.6-10.4,5.6-22.8,0-33.2c5.2-7.3,13.5-11.8,22.5-12.1c0.3,0,0.5,0,0.8,0C223.1,113.2,236,126.1,236,141.9L236,141.9z M225.8,55.5
	c3-1.6,6.1-2.8,9.4-3.7v17.6l-9.4,9.4V55.5z M256.1,57.5c1.7,3.1,2.5,6.5,2.2,10H246L256.1,57.5z M253.6,83.4h-23.3l9.4-9.4h17.6
	C256.4,77.2,255.1,80.4,253.6,83.4L253.6,83.4z M223.9,89.7h25.8c-1.8,2.5-3.8,4.9-5.9,7.1h-27L223.9,89.7z M211.1,107.1
	c0.5-1.3,1-2.5,1.3-3.9h24.2c-4,3.2-8.5,5.7-13.3,7.6C219.6,108.8,215.4,107.6,211.1,107.1L211.1,107.1z M251.6,53l-10,10V50.8
	C245,50.6,248.5,51.3,251.6,53L251.6,53z M211.3,66.2c2.5-2.5,5.2-4.7,8.1-6.7v25.6l-5.9,5.9c-0.6-6.8-3.2-13.4-7.5-18.7
	C207.7,70.2,209.4,68.1,211.3,66.2L211.3,66.2z M110.3,73.3c-2.2-2.2-4.1-4.6-5.9-7.2h25.8l7.1,7.1L110.3,73.3z M98,33.9l10,10H95.9
	C95.6,40.5,96.3,37,98,33.9L98,33.9z M141.8,68.7l-7.1-7.1V35.8c2.5,1.8,4.9,3.8,7.1,5.9V68.7z M128.3,55.2l-9.4-9.4V28.3
	c3.3,0.9,6.4,2.1,9.4,3.7V55.2z M114.4,50.3l9.4,9.4h-23.3c-1.6-3-2.8-6.1-3.7-9.4H114.4z M148.8,75.7l-0.6-0.6V48.8
	c4.1,5.2,7.2,11.2,8.9,17.6C153.8,69,151,72.2,148.8,75.7L148.8,75.7z M112.5,27.3v12.2l-10-10C105.6,27.8,109.1,27,112.5,27.3
	L112.5,27.3z M117.4,79.6h26.3l2.2,2.2c-0.9,2.5-1.6,5.1-1.9,7.8C136,90,126.2,86.3,117.4,79.6L117.4,79.6z M149.9,94.1
	c0-9.5,4.7-18.4,12.6-23.7l0.1-0.1c10.8-7.4,25.2-6.4,35,2.2c9.8,8.7,12.5,22.9,6.5,34.5c-2.1,0.2-4.2,0.5-6.2,1.1
	c-0.7,0-1.5,0.2-2,0.7c-6.1,2.1-11.5,5.8-15.6,10.8c-6.6-8.1-16.6-12.8-27.1-12.8H153C151,102.9,150,98.5,149.9,94.1L149.9,94.1z
	 M153.1,113.2c15.8,0,28.7,12.8,28.7,28.7c0,15.8-12.8,28.7-28.7,28.7c-15.8,0-28.7-12.8-28.7-28.7
	C124.5,126.1,137.3,113.2,153.1,113.2L153.1,113.2z M121.5,156.9l-14-2.3c3.7-2,7.5-3.5,11.5-4.6
	C119.6,152.3,120.4,154.7,121.5,156.9L121.5,156.9z M121.5,156.9"/>
</svg>
